<?xml version="1.0" encoding="utf-8"?>
<!-- Generator: Adobe Illustrator 23.0.4, SVG Export Plug-In . SVG Version: 6.00 Build 0)  -->
<svg version="1.1" xmlns="http://www.w3.org/2000/svg" xmlns:xlink="http://www.w3.org/1999/xlink" x="0px" y="0px" width="1200px"
	 height="1800px" viewBox="0 0 1200 1800" enable-background="new 0 0 1200 1800" xml:space="preserve">
<g id="Layer_1">
	<g>
		<defs>
			<rect id="SVGID_3_" width="1200" height="1800"/>
		</defs>
		<clipPath id="SVGID_2_">
			<use xlink:href="#SVGID_3_"  overflow="visible"/>
		</clipPath>
		<g clip-path="url(#SVGID_2_)">
			<g>
				<rect x="494.7" y="196.6" fill="#FFFFFF" stroke="#231F20" stroke-miterlimit="10" width="423" height="117.9"/>
				<rect x="943.5" y="1672.3" fill="#FFFFFF" stroke="#231F20" stroke-miterlimit="10" width="179.6" height="49.4"/>
				<rect x="420.3" y="1218.2" fill="#FFFFFF" stroke="#231F20" stroke-miterlimit="10" width="359.1" height="98.8"/>
				<rect x="420.3" y="1368.2" fill="#FFFFFF" stroke="#231F20" stroke-miterlimit="10" width="359.1" height="98.8"/>
				<rect x="421.6" y="1516.7" fill="#FFFFFF" stroke="#231F20" stroke-miterlimit="10" width="359.1" height="98.8"/>
				<rect x="285.1" y="375.6" fill="#FFFFFF" stroke="#231F20" stroke-miterlimit="10" width="845.9" height="117.9"/>
				<rect x="242.4" y="801.6" fill="#FFFFFF" stroke="#231F20" stroke-miterlimit="10" width="718.2" height="296.3"/>
				<text transform="matrix(1 0 0 1 500.2164 252.1155)" font-family="'MyriadPro-Regular'" font-size="71.82px">INFO 1</text>
				<text transform="matrix(0.9867 0 0 1 325.316 422.26)"><tspan x="0" y="0" font-family="'MyriadPro-Regular'" font-size="42.868px">INFO 2 INFO 2 INFO 2 INFO 2 INFO 2 INFO 2 </tspan><tspan x="0" y="51.4" font-family="'MyriadPro-Regular'" font-size="42.868px">INFO 2 INFO 2 INFO 2 INFO 2 INFO 2 INFO 2</tspan></text>
				<text transform="matrix(1 0 0 1 265.1285 851.0549)"><tspan x="0" y="0" font-family="'MyriadPro-Regular'" font-size="35.91px">INFO DES</tspan><tspan x="141.3" y="0" font-family="'MyriadPro-Regular'" font-size="35.91px" letter-spacing="-2">T</tspan><tspan x="156.5" y="0" font-family="'MyriadPro-Regular'" font-size="35.91px">A</tspan><tspan x="177.9" y="0" font-family="'MyriadPro-Regular'" font-size="35.91px">QUE INFO DES</tspan><tspan x="392.5" y="0" font-family="'MyriadPro-Regular'" font-size="35.91px" letter-spacing="-2">T</tspan><tspan x="407.7" y="0" font-family="'MyriadPro-Regular'" font-size="35.91px">A</tspan><tspan x="429.1" y="0" font-family="'MyriadPro-Regular'" font-size="35.91px">QUE INFO </tspan><tspan x="0" y="43.1" font-family="'MyriadPro-Regular'" font-size="35.91px">DES</tspan><tspan x="59.3" y="43.1" font-family="'MyriadPro-Regular'" font-size="35.91px" letter-spacing="-2">T</tspan><tspan x="74.4" y="43.1" font-family="'MyriadPro-Regular'" font-size="35.91px">A</tspan><tspan x="95.9" y="43.1" font-family="'MyriadPro-Regular'" font-size="35.91px">QUE INFO DES</tspan><tspan x="310.5" y="43.1" font-family="'MyriadPro-Regular'" font-size="35.91px" letter-spacing="-2">T</tspan><tspan x="325.6" y="43.1" font-family="'MyriadPro-Regular'" font-size="35.91px">A</tspan><tspan x="347.1" y="43.1" font-family="'MyriadPro-Regular'" font-size="35.91px">QUE INFO DES</tspan><tspan x="561.7" y="43.1" font-family="'MyriadPro-Regular'" font-size="35.91px" letter-spacing="-2">T</tspan><tspan x="576.8" y="43.1" font-family="'MyriadPro-Regular'" font-size="35.91px">A</tspan><tspan x="598.3" y="43.1" font-family="'MyriadPro-Regular'" font-size="35.91px">QUE</tspan><tspan x="0" y="86.2" font-family="'MyriadPro-Regular'" font-size="35.91px">INFO DES</tspan><tspan x="141.3" y="86.2" font-family="'MyriadPro-Regular'" font-size="35.91px" letter-spacing="-2">T</tspan><tspan x="156.5" y="86.2" font-family="'MyriadPro-Regular'" font-size="35.91px">A</tspan><tspan x="177.9" y="86.2" font-family="'MyriadPro-Regular'" font-size="35.91px">QUE INFO DES</tspan><tspan x="392.5" y="86.2" font-family="'MyriadPro-Regular'" font-size="35.91px" letter-spacing="-2">T</tspan><tspan x="407.7" y="86.2" font-family="'MyriadPro-Regular'" font-size="35.91px">A</tspan><tspan x="429.1" y="86.2" font-family="'MyriadPro-Regular'" font-size="35.91px">QUE INFO </tspan><tspan x="0" y="129.3" font-family="'MyriadPro-Regular'" font-size="35.91px">DES</tspan><tspan x="59.3" y="129.3" font-family="'MyriadPro-Regular'" font-size="35.91px" letter-spacing="-2">T</tspan><tspan x="74.4" y="129.3" font-family="'MyriadPro-Regular'" font-size="35.91px">A</tspan><tspan x="95.9" y="129.3" font-family="'MyriadPro-Regular'" font-size="35.91px">QUE INFO DES</tspan><tspan x="310.5" y="129.3" font-family="'MyriadPro-Regular'" font-size="35.91px" letter-spacing="-2">T</tspan><tspan x="325.6" y="129.3" font-family="'MyriadPro-Regular'" font-size="35.91px">A</tspan><tspan x="347.1" y="129.3" font-family="'MyriadPro-Regular'" font-size="35.91px">QUE INFO DES</tspan><tspan x="561.7" y="129.3" font-family="'MyriadPro-Regular'" font-size="35.91px" letter-spacing="-2">T</tspan><tspan x="576.8" y="129.3" font-family="'MyriadPro-Regular'" font-size="35.91px">A</tspan><tspan x="598.3" y="129.3" font-family="'MyriadPro-Regular'" font-size="35.91px">QUE</tspan><tspan x="0" y="172.4" font-family="'MyriadPro-Regular'" font-size="35.91px">INFO DES</tspan><tspan x="141.3" y="172.4" font-family="'MyriadPro-Regular'" font-size="35.91px" letter-spacing="-2">T</tspan><tspan x="156.5" y="172.4" font-family="'MyriadPro-Regular'" font-size="35.91px">A</tspan><tspan x="177.9" y="172.4" font-family="'MyriadPro-Regular'" font-size="35.91px">QUE INFO DES</tspan><tspan x="392.5" y="172.4" font-family="'MyriadPro-Regular'" font-size="35.91px" letter-spacing="-2">T</tspan><tspan x="407.7" y="172.4" font-family="'MyriadPro-Regular'" font-size="35.91px">A</tspan><tspan x="429.1" y="172.4" font-family="'MyriadPro-Regular'" font-size="35.91px">QUE INFO</tspan><tspan x="0" y="215.5" font-family="'MyriadPro-Regular'" font-size="35.91px">DES</tspan><tspan x="59.3" y="215.5" font-family="'MyriadPro-Regular'" font-size="35.91px" letter-spacing="-2">T</tspan><tspan x="74.4" y="215.5" font-family="'MyriadPro-Regular'" font-size="35.91px">A</tspan><tspan x="95.9" y="215.5" font-family="'MyriadPro-Regular'" font-size="35.91px">QUE INFO DES</tspan><tspan x="310.5" y="215.5" font-family="'MyriadPro-Regular'" font-size="35.91px" letter-spacing="-2">T</tspan><tspan x="325.6" y="215.5" font-family="'MyriadPro-Regular'" font-size="35.91px">A</tspan><tspan x="347.1" y="215.5" font-family="'MyriadPro-Regular'" font-size="35.91px">QUE INFO DES</tspan><tspan x="561.7" y="215.5" font-family="'MyriadPro-Regular'" font-size="35.91px" letter-spacing="-2">T</tspan><tspan x="576.8" y="215.5" font-family="'MyriadPro-Regular'" font-size="35.91px">A</tspan><tspan x="598.3" y="215.5" font-family="'MyriadPro-Regular'" font-size="35.91px">QUE</tspan></text>
				<text transform="matrix(1 0 0 1 519.9322 1280.6526)"><tspan x="0" y="0" font-family="'MyriadPro-Regular'" font-size="35.91px">D</tspan><tspan x="23.9" y="0" font-family="'MyriadPro-Regular'" font-size="35.91px">E</tspan><tspan x="42.2" y="0" font-family="'MyriadPro-Regular'" font-size="35.91px" letter-spacing="-2">T</tspan><tspan x="57.3" y="0" font-family="'MyriadPro-Regular'" font-size="35.91px">ALHE 1</tspan></text>
				<text transform="matrix(1 0 0 1 519.317 1428.6057)"><tspan x="0" y="0" font-family="'MyriadPro-Regular'" font-size="35.91px">D</tspan><tspan x="23.9" y="0" font-family="'MyriadPro-Regular'" font-size="35.91px">E</tspan><tspan x="42.2" y="0" font-family="'MyriadPro-Regular'" font-size="35.91px" letter-spacing="-2">T</tspan><tspan x="57.3" y="0" font-family="'MyriadPro-Regular'" font-size="35.91px">ALHE 1</tspan></text>
				<text transform="matrix(1 0 0 1 518.8765 1576.9983)"><tspan x="0" y="0" font-family="'MyriadPro-Regular'" font-size="35.91px">D</tspan><tspan x="23.9" y="0" font-family="'MyriadPro-Regular'" font-size="35.91px">E</tspan><tspan x="42.2" y="0" font-family="'MyriadPro-Regular'" font-size="35.91px" letter-spacing="-2">T</tspan><tspan x="57.3" y="0" font-family="'MyriadPro-Regular'" font-size="35.91px">ALHE 1</tspan></text>
				<text transform="matrix(1 0 0 1 1000.4908 1706.6145)"><tspan x="0" y="0" font-family="'MyriadPro-Regular'" font-size="26.9325px" letter-spacing="-1">L</tspan><tspan x="11.7" y="0" font-family="'MyriadPro-Regular'" font-size="26.9325px">OGO</tspan></text>
				<rect x="0" y="0" fill="#FACBCA" width="1199.6" height="1800"/>
				<path fill="none" stroke="#C69A7E" stroke-miterlimit="10" d="M1005.6,349.6c13.8-50.4-94.6,294.7,40.4,309.7"/>
				<g>
					<g>
						<g>
							<polygon fill="#FBDBD9" points="-87.4,1255.1 -87.4,1317.9 1199.6,698.2 1199.6,635.5 							"/>
						</g>
						<g>
							<polygon fill="#FBDBD9" points="-87.4,1573.1 -87.4,1635.8 1199.6,1016.1 1199.6,953.4 							"/>
						</g>
						<g>
							<polygon fill="#FBDBD9" points="431.6,1800 561.9,1800 1199.6,1493 1199.6,1430.3 							"/>
						</g>
						<g>
							<polygon fill="#FBDBD9" points="-87.4,1414.1 -87.4,1476.8 1199.6,857.2 1199.6,794.4 							"/>
						</g>
						<g>
							<polygon fill="#FBDBD9" points="1199.6,1652 1199.6,1589.2 761.8,1800 892.1,1800 							"/>
						</g>
						<g>
							<polygon fill="#FBDBD9" points="101.5,1800 231.8,1800 1199.6,1334.1 1199.6,1271.3 							"/>
						</g>
						<g>
							<polygon fill="#FBDBD9" points="-87.4,1732 -87.4,1794.8 1199.6,1175.1 1199.6,1112.4 							"/>
						</g>
						<g>
							<polygon fill="#FBDBD9" points="-87.4,1096.2 -87.4,1158.9 1199.6,539.3 1199.6,476.5 							"/>
						</g>
						<g>
							<polygon fill="#FBDBD9" points="-87.4,460.3 -87.4,523.1 1040.8,-20.1 910.5,-20.1 							"/>
						</g>
						<g>
							<polygon fill="#FBDBD9" points="-87.4,142.4 -87.4,205.2 380.5,-20.1 250.2,-20.1 							"/>
						</g>
						<g>
							<polygon fill="#FBDBD9" points="-87.4,301.4 -87.4,364.1 710.7,-20.1 580.3,-20.1 							"/>
						</g>
						<g>
							<polygon fill="#FBDBD9" points="-87.4,619.3 -87.4,682 1199.6,62.4 1199.6,-0.4 							"/>
						</g>
						<g>
							<polygon fill="#FBDBD9" points="-87.4,937.2 -87.4,1000 1199.6,380.3 1199.6,317.5 							"/>
						</g>
						<g>
							<polygon fill="#FBDBD9" points="-87.4,778.2 -87.4,841 1199.6,221.3 1199.6,158.6 							"/>
						</g>
					</g>
				</g>
				<path fill="none" stroke="#C69A7E" stroke-miterlimit="10" d="M200.2,263.4c0,0,5.2,189-42.9,234.7"/>
				<g>
					<path fill="#F7F5FA" d="M864.7,1520.7v-17.5h65.9v-130.3h2.5c46.2,0,83.6-37,83.6-82.7v-157.7
						c63.7-72.9,101.4-163.1,101.4-260.8c0-97.7-37.7-187.9-101.4-260.8V453.3c0-45.7-37.4-82.7-83.6-82.7h-2.5V240.4h-65.9v-17.5
						c0-40.1-32.9-72.7-73.5-72.7H411c-40.6,0-73.5,32.5-73.5,72.7v17.5h-65.9v130.3h-2.5c-46.2,0-83.6,37-83.6,82.7V611
						C121.8,683.9,84.1,774.1,84.1,871.8c0,97.7,37.7,187.9,101.4,260.8v157.7c0,45.7,37.4,82.7,83.6,82.7h2.5v130.3h65.9v17.5
						c0,40.1,32.9,72.7,73.5,72.7h380.2C831.8,1593.4,864.7,1560.9,864.7,1520.7z"/>
					
						<rect x="242.4" y="737.9" fill="none" stroke="#FBDBD9" stroke-width="4" stroke-miterlimit="10" width="718.2" height="296.3"/>
					<path fill="#C69A7E" stroke="#231F20" stroke-width="0.5" stroke-miterlimit="10" d="M791.2,1601.2H411
						c-44.8,0-81.2-36.1-81.2-80.4v-9.8h-58.2c-4.2,0-7.7-3.5-7.7-7.8v-122.7c-48-2.7-86.2-42.2-86.2-90.3v-154.7
						c-66.3-76.9-101.4-168-101.4-263.7c0-95.7,35-186.8,101.4-263.7V453.3c0-48.2,38.2-87.7,86.2-90.3V240.4c0-4.3,3.4-7.8,7.7-7.8
						h58.2v-9.8c0-44.4,36.4-80.4,81.2-80.4h380.2c44.8,0,81.2,36.1,81.2,80.4v9.8h58.2c4.2,0,7.7,3.5,7.7,7.8V363
						c48,2.7,86.2,42.2,86.2,90.3v154.7c66.3,76.9,101.4,168,101.4,263.7c0,95.7-35,186.8-101.4,263.7v154.7
						c0,48.2-38.2,87.7-86.2,90.3v122.7c0,4.3-3.4,7.8-7.7,7.8h-58.2v9.8C872.3,1565.1,835.9,1601.2,791.2,1601.2z M279.3,1495.4
						h58.2c4.2,0,7.7,3.5,7.7,7.8v17.5c0,35.8,29.5,64.9,65.8,64.9h380.2c36.3,0,65.8-29.1,65.8-64.9v-17.5c0-4.3,3.4-7.8,7.7-7.8
						h58.2v-122.5c0-4.3,3.4-7.8,7.7-7.8h2.5c41.9,0,76-33.6,76-74.9v-157.7c0-1.9,0.7-3.7,1.9-5.2c65.1-74.5,99.4-162.8,99.4-255.6
						c0-92.7-34.4-181.1-99.4-255.6c-1.2-1.4-1.9-3.3-1.9-5.2V453.3c0-41.3-34.1-74.9-76-74.9h-2.5c-4.2,0-7.7-3.5-7.7-7.8V248.1
						h-58.2c-4.2,0-7.7-3.5-7.7-7.8v-17.5c0-35.8-29.5-64.9-65.8-64.9H411c-36.3,0-65.8,29.1-65.8,64.9v17.5c0,4.3-3.4,7.8-7.7,7.8
						h-58.2v122.5c0,4.3-3.4,7.8-7.7,7.8h-2.5c-41.9,0-76,33.6-76,74.9V611c0,1.9-0.7,3.7-1.9,5.2C126.1,690.6,91.7,779,91.7,871.8
						c0,92.7,34.4,181.1,99.4,255.6c1.2,1.4,1.9,3.3,1.9,5.2v157.7c0,41.3,34.1,74.9,76,74.9h2.5c4.2,0,7.7,3.5,7.7,7.8V1495.4z"/>
				</g>
				<g>
					<g>
						<path fill="#F7B0AB" d="M910.8,298.3l-37.4,60.6l58.9-11.4C932.3,347.6,914.6,310.6,910.8,298.3z"/>
						<polygon fill="#77C6AE" points="949.2,372.2 931.4,441.3 980.9,410.1 						"/>
						<path fill="#F7B0AB" d="M1010.4,431.4c0,0,23.8,15.6,40.6,21.8l-43.4,41.7L1010.4,431.4z"/>
						<polygon fill="#77C6AE" points="1089.5,466.7 1109.2,525.6 1134.4,475.2 						"/>
						<path fill="#C69A7E" d="M1193,480.7c-148.7,0-220.7-65.8-254.9-121.5c-37.6-61.2-39-123.7-39-124.3l2.8,0
							c0,0.6,1.4,62.4,38.6,123c33.8,55,105.1,120,252.4,120c2.2,0,4.3,0,6.5,0l0,2.8C1197.4,480.7,1195.2,480.7,1193,480.7z"/>
					</g>
					<g>
						<path fill="#F7B0AB" d="M291.3,298.3l37.4,60.6l-58.9-11.4C269.8,347.6,287.6,310.6,291.3,298.3z"/>
						<polygon fill="#77C6AE" points="253,372.2 270.8,441.3 221.3,410.1 						"/>
						<path fill="#F7B0AB" d="M191.8,431.4c0,0-23.8,15.6-40.6,21.8l43.4,41.7L191.8,431.4z"/>
						<polygon fill="#77C6AE" points="112.6,466.7 93,525.6 67.8,475.2 						"/>
						<path fill="#C69A7E" d="M9.2,480.7c-2.2,0-4.4,0-6.6,0l0-2.8c151.8,2,224.6-64.2,259-120c37.2-60.5,38.6-122.3,38.6-123l2.8,0
							c0,0.6-1.4,63.1-39,124.3C229.8,414.9,157.9,480.7,9.2,480.7z"/>
					</g>
				</g>
				<g>
					<g>
						<g>
							<path fill="#F48B88" d="M1110.1,163.9c-15.1,57.4-62.2,101.9-103,91.2c-40.8-10.7-60-72.6-44.9-130
								c15.1-57.4,55.6-79.4,96.4-68.7C1099.4,67.1,1125.2,106.5,1110.1,163.9z"/>
							<path fill="#F48B88" d="M1007.1,255.1c0,0-6.7,3.9-7.3,8.1c5.5,1.4,12.5,3.3,12.5,3.3S1014.5,257.7,1007.1,255.1z"/>
						</g>
						<g>
							<path fill="#77C6AE" d="M1180.6,216.2c1.8,56.4-29.2,109.8-69.3,111c-40.2,1.3-74.4-50-76.1-106.5
								c-1.8-56.4,29.2-87.5,69.4-88.7C1144.7,130.8,1178.9,159.8,1180.6,216.2z"/>
							<path fill="#77C6AE" d="M1111.3,327.2c0,0-5.1,5.4-4.5,9.3c5.4-0.2,12.3-0.4,12.3-0.4S1118.8,327.6,1111.3,327.2z"/>
						</g>
					</g>
					<g>
						<g>
							<path fill="#F48B88" d="M96.3,163.9c15.1,57.4,62.2,101.9,103,91.2c40.8-10.7,60-72.6,44.9-130
								c-15.1-57.4-55.6-79.4-96.4-68.7C107,67.1,81.3,106.5,96.3,163.9z"/>
							<path fill="#F48B88" d="M199.4,255.1c0,0,6.7,3.9,7.3,8.1c-5.5,1.4-12.5,3.3-12.5,3.3S191.9,257.7,199.4,255.1z"/>
						</g>
						<g>
							<path fill="#77C6AE" d="M25.8,216.2C24,272.7,55,326,95.1,327.2c40.2,1.3,74.4-50,76.1-106.5c1.8-56.4-29.2-87.5-69.4-88.7
								C61.7,130.8,27.6,159.8,25.8,216.2z"/>
							<path fill="#77C6AE" d="M95.1,327.2c0,0,5.1,5.4,4.5,9.3c-5.4-0.2-12.3-0.4-12.3-0.4S87.6,327.6,95.1,327.2z"/>
						</g>
					</g>
				</g>
				<g>
					<g>
						<g>
							<g>
								<path fill="#F48B88" d="M956.1,289.7c-42.3-14.4-85.3-26.2-128.7-35.4c-3.7-0.8-6.2-4.4-5.4-8.1c5.5-27.6,11-55.1,16.6-82.7
									c0.7-3.7,4.6-6,8.7-5.2c47.1,10,93.7,22.8,139.7,38.4c5.4,1.8,7.1,8.1,3.2,11.6c-10.1,9.2-20,18.5-29.8,27.9
									c-1.6,1.5-2.3,3.7-1.9,5.9c2.4,13.4,4.7,26.8,6.7,40.2C965.9,287.4,961,291.4,956.1,289.7z"/>
								<path fill="#F48B88" d="M235,295.8c42.1-14.3,84.9-26.1,128-35.2c3.7-0.8,6.1-4.4,5.4-8.1c-5.5-27.6-11-55.1-16.6-82.7
									c-0.7-3.7-4.6-6-8.7-5.2c-46.8,9.9-93.2,22.7-138.9,38.2c-5.3,1.8-7,8.1-3.2,11.6c10.1,9.2,20,18.5,29.7,27.9
									c1.6,1.5,2.3,3.7,1.9,5.9c-2.4,13.4-4.6,26.8-6.6,40.2C225.2,293.5,230.1,297.4,235,295.8z"/>
							</g>
						</g>
						<path fill="#F7B0AB" d="M899.1,250.8c-199.4-55.2-409.8-55.2-609.2,0c-3.6,1-7.4-1-8.3-4.5c-7.5-27.2-15-54.5-22.5-81.7
							c-1-3.5,1.4-7.3,5.4-8.4c216.1-59.8,444.1-59.8,660.2,0c4,1.1,6.4,4.9,5.4,8.4c-7.5,27.2-15,54.5-22.5,81.7
							C906.5,249.8,902.8,251.9,899.1,250.8z"/>
					</g>
				</g>
				<g>
					<g>
						<path fill="#77C6AE" d="M496.4,580.4c0,0-44.9,21.1-50.2,76.6c-5.3,55.4,35.6,100.3,84.5,110.9
							c48.8,10.6,186.1,50.2,258.7-6.6c72.6-56.8,30.4-138.6,13.2-137.3c-17.2,1.3,5.3,26.4-11.9,47.5c-17.2,21.1-79.2,9.2-99-18.5
							c-19.8-27.7-31.7-70-87.1-77.9S516.2,568.5,496.4,580.4z"/>
						<g>
							<path fill="#F6ABB2" d="M540.6,759.3c0,0-29,9.9-29.7,12.5c-0.7,2.6,18.5,20.5,29.7,15.8c11.2-4.6,14.5-8.6,14.5-8.6
								s4,15.2,20.5,10.6c16.5-4.6,23.1-18.5,23.1-18.5l-30.4-8.6L540.6,759.3z"/>
							<g>
								<path fill="#F8C4A4" d="M542.3,746.4c0,0,3,11.9-8.9,17.8c-6.9,5,21.8,20.8,45.5,5c0-3-13.9-6.9-10.9-23.8L542.3,746.4z"/>
								<g>
									<path fill="#FAD4B5" d="M470,639.8c0,0-19.8,71.3,11.9,93.7s132,31.7,161.1-1.3c29-33,15.8-81.8,5.3-100.3
										c-10.6-18.5-58.1-33-101.7-30.4C503,604.2,475.3,614.7,470,639.8z"/>
									<path fill="#77C6AE" d="M499,637.2c0,0,39.6,50.2,136,38.3c0,0,10.6,39.6-7.9,71.3c-7.3,12.6,48.8-21.1,46.2-73.9
										c-2.6-52.8-25.1-80.5-77.9-91.1c-52.8-10.6-108.3,2.6-126.7,34.3c-18.5,31.7-31.7,88.4,6.6,118.8c13.2,6.6,0-21.1,0-38.3
										C475.3,679.4,501.7,670.2,499,637.2z"/>
								</g>
							</g>
						</g>
						<path fill="#FFE4AB" d="M498.2,609.5c12.1-2.1,90.6-13.9,139.6,21.8c1,0.7,2.4,0.6,3.2-0.3l9.6-10.9c1.4-1.6,0.1-4.2-2.1-3.9
							c-7.5,1-19.3,1.2-23.7-5.6c-4.2-6.5-5.7-16.6-6.3-23.2c-0.2-2.1-2.8-2.9-4.2-1.3c-4.8,5.6-13.3,13.4-21.2,10.5
							c-9.2-3.5-18-27.7-21.4-38c-0.6-1.9-3.1-2.2-4.2-0.6c-6,8.7-20.3,28.4-28.9,31.3c-6.5,2.2-11.5-2.6-14.5-6.8
							c-1.2-1.7-3.8-1.1-4.3,0.9c-1.2,5.2-3.4,11.7-7.8,12.6c-4.9,1-14,0.3-19.6-0.2c-2-0.2-3.3,1.9-2.3,3.6l5.5,9.2
							C496.3,609.2,497.2,609.6,498.2,609.5z"/>
						<path fill="#F8AF9F" d="M619,716.2c0,0-8.9-2.5-15.3,4c-6.4,6.4-2,16.8,7.4,18.3c9.4,1.5,16.3-6.9,14.4-14.4
							C623.5,716.7,619,716.2,619,716.2z"/>
						<path fill="#F8AF9F" d="M505.2,708.8c0,0-8.9-2.5-15.3,4c-6.4,6.4-2,16.8,7.4,18.3c9.4,1.5,16.3-6.9,14.4-14.4
							C509.6,709.3,505.2,708.8,505.2,708.8z"/>
						<path fill="#868276" d="M587.6,699.3c-0.5,1.2,0.7,2.3,1.8,1.6c4-2.4,11.6-5.2,17.2,2.8c0,0,6.5,1-0.5-5.9
							C600,691.8,590.7,692.4,587.6,699.3z"/>
						<path fill="#868276" d="M527.6,692.8c0.4,1.2-0.9,2.2-1.9,1.5c-3.8-2.7-11.1-6.2-17.4,1.2c0,0-6.6,0.4,1-5.9
							C515.9,684.2,525.1,685.7,527.6,692.8z"/>
						<path fill="#F48D80" d="M546.7,725.1l15.3,0.4c1.9,0,3.3,1.9,2.8,3.7c-0.9,3.4-3.5,7.8-10.9,7.1c-7.1-0.7-9.5-4.6-10.2-7.7
							C543.2,726.8,544.8,725,546.7,725.1z"/>
					</g>
					<path fill="#FACBCA" d="M712.6,633.6c0,0-18.8-22.8-6.9-30.7s15.8,15.8,15.8,15.8s8.9-18.8,20.8-11.9
						C754.2,613.8,732.4,641.5,712.6,633.6z"/>
					<path fill="#FACBCA" d="M405,645.2c0,0-23.6-9.1-18-20c5.5-10.9,18.4,5.2,18.4,5.2s-1.2-17.8,10.5-17.6
						C427.8,613,423.1,642.8,405,645.2z"/>
				</g>
				<g>
					<circle fill="#C69A7E" cx="498.6" cy="1083.7" r="6.5"/>
					<circle fill="#C69A7E" cx="549.7" cy="1083.7" r="6.5"/>
					<circle fill="#C69A7E" cx="600.7" cy="1083.7" r="6.5"/>
					<circle fill="#C69A7E" cx="651.8" cy="1083.7" r="6.5"/>
					<circle fill="#C69A7E" cx="702.8" cy="1083.7" r="6.5"/>
				</g>
				<path fill="none" stroke="#C69A7E" stroke-miterlimit="10" d="M89.9,336.6c0,0-53.9,188.5,0,242.4"/>
				<path fill="none" stroke="#C69A7E" stroke-miterlimit="10" d="M1113.4,336.6c0,0,13.5,161.6-40.4,228.9"/>
			</g>
			<g>
				<g>
					<g>
						<path fill="#F9F9F9" d="M992.4,1689.1c0.8,1,1.1,2.3,1.1,3.9v7.5c0,0.2-0.1,0.4-0.2,0.6c-0.2,0.2-0.3,0.2-0.6,0.2
							c-0.2,0-0.4-0.1-0.6-0.2c-0.2-0.2-0.2-0.3-0.2-0.6v-7.4c0-1.2-0.3-2.1-0.8-2.9c-0.6-0.7-1.4-1.1-2.6-1.1
							c-0.7,0-1.5,0.2-2.1,0.5c-0.7,0.4-1.2,0.8-1.6,1.4c-0.4,0.6-0.6,1.3-0.6,2v7.4c0,0.2-0.1,0.4-0.2,0.6
							c-0.2,0.2-0.3,0.2-0.6,0.2s-0.4-0.1-0.6-0.2s-0.2-0.3-0.2-0.6v-7.5c0-1.2-0.3-2.1-0.8-2.8s-1.4-1.1-2.5-1.1
							c-0.7,0-1.4,0.2-2.1,0.5c-0.7,0.4-1.2,0.8-1.6,1.4c-0.4,0.6-0.6,1.2-0.6,1.9v7.5c0,0.2-0.1,0.4-0.2,0.6
							c-0.2,0.2-0.3,0.2-0.6,0.2s-0.4-0.1-0.6-0.2s-0.2-0.3-0.2-0.6v-11.9c0-0.2,0.1-0.4,0.2-0.6s0.3-0.2,0.6-0.2s0.4,0.1,0.6,0.2
							c0.2,0.2,0.2,0.3,0.2,0.6v1.5c0.5-0.7,1.1-1.3,2-1.8c0.8-0.5,1.7-0.7,2.6-0.7c1,0,1.9,0.2,2.7,0.7s1.3,1.2,1.6,2.2
							c0.4-0.8,1.1-1.5,2.1-2c1-0.6,2-0.9,3-0.9C990.5,1687.6,991.7,1688.1,992.4,1689.1z"/>
						<path fill="#F9F9F9" d="M1009,1694.3c-0.2,0.2-0.3,0.2-0.6,0.2h-10.1c0,1.1,0.2,2,0.7,2.9c0.4,0.8,1.1,1.5,1.9,2
							c0.8,0.5,1.8,0.7,2.9,0.7c0.9,0,1.6-0.2,2.3-0.5c0.7-0.4,1.2-0.8,1.6-1.4c0.2-0.2,0.4-0.2,0.6-0.2c0.2,0,0.3,0.1,0.5,0.2
							s0.2,0.3,0.2,0.5c0,0.2-0.1,0.4-0.3,0.6c-0.6,0.7-1.3,1.3-2.1,1.7c-0.9,0.4-1.8,0.7-2.7,0.7c-1.4,0-2.6-0.3-3.6-0.9
							s-1.9-1.4-2.5-2.5c-0.6-1.1-0.9-2.3-0.9-3.6c0-1.5,0.3-2.7,0.9-3.8c0.6-1.1,1.3-1.9,2.3-2.5s2-0.9,3.1-0.9
							c1.1,0,2.1,0.2,3,0.7c0.9,0.5,1.7,1.2,2.3,2.2c0.6,1,0.9,2.1,0.9,3.4C1009.3,1693.9,1009.2,1694.1,1009,1694.3z M1000.2,1690
							c-0.9,0.7-1.4,1.7-1.7,3.1h9.1v-0.2c-0.1-0.8-0.4-1.5-0.8-2.1c-0.4-0.6-1-1-1.7-1.4c-0.7-0.3-1.4-0.5-2.1-0.5
							C1002.1,1688.9,1001.1,1689.3,1000.2,1690z"/>
						<path fill="#F9F9F9" d="M1022.1,1687.5c0.9,0.5,1.4,1.1,1.4,1.9c0,0.4-0.1,0.7-0.3,1s-0.5,0.4-0.9,0.4c-0.3,0-0.5,0-0.7-0.1
							c-0.2-0.1-0.4-0.2-0.5-0.3c-0.2-0.1-0.3-0.2-0.5-0.3c-0.2-0.1-0.4-0.2-0.8-0.2c-0.3-0.1-0.6-0.1-0.8-0.1
							c-1.3,0-2.4,0.4-3.1,1.2s-1.1,1.9-1.1,3.2c0,1.3,0.4,2.3,1.1,3.2c0.8,0.8,1.7,1.3,2.9,1.3c0.9,0,1.5-0.1,1.9-0.3
							c0.1-0.1,0.3-0.1,0.4-0.3c0.2-0.1,0.4-0.2,0.5-0.3c0.2-0.1,0.4-0.1,0.6-0.1c0.4,0,0.8,0.1,1.1,0.4c0.3,0.3,0.4,0.6,0.4,1.1
							c0,0.4-0.2,0.8-0.7,1.2c-0.5,0.4-1.2,0.7-2,0.9c-0.8,0.2-1.7,0.3-2.6,0.3c-1.4,0-2.6-0.3-3.6-1c-1-0.6-1.8-1.5-2.4-2.6
							c-0.6-1.1-0.9-2.4-0.9-3.8c0-1.4,0.3-2.7,0.9-3.8c0.6-1.1,1.4-2,2.5-2.6c1.1-0.6,2.3-0.9,3.6-0.9
							C1020,1686.8,1021.2,1687.1,1022.1,1687.5z"/>
						<path fill="#F9F9F9" d="M1038.8,1698c-0.6,1.1-1.5,2-2.6,2.6s-2.3,0.9-3.7,0.9c-1.4,0-2.6-0.3-3.7-0.9c-1.1-0.6-2-1.5-2.6-2.6
							c-0.6-1.1-1-2.4-1-3.8c0-1.4,0.3-2.7,1-3.8c0.6-1.1,1.5-2,2.6-2.6c1.1-0.6,2.3-0.9,3.7-0.9c1.3,0,2.6,0.3,3.7,0.9
							c1.1,0.6,2,1.5,2.6,2.6c0.6,1.1,1,2.4,1,3.8C1039.7,1695.6,1039.4,1696.9,1038.8,1698z M1036,1691.9c-0.4-0.7-0.9-1.2-1.5-1.6
							c-0.6-0.4-1.3-0.6-2-0.6s-1.4,0.2-2,0.6c-0.6,0.4-1.1,0.9-1.5,1.6c-0.4,0.7-0.5,1.5-0.5,2.3c0,0.9,0.2,1.6,0.5,2.3
							s0.9,1.2,1.5,1.6c0.6,0.4,1.3,0.6,2,0.6s1.4-0.2,2-0.6c0.6-0.4,1.1-0.9,1.5-1.6s0.5-1.4,0.5-2.3
							C1036.5,1693.3,1036.3,1692.6,1036,1691.9z"/>
						<path fill="#F9F9F9" d="M1053.8,1688.4c0.7,1.1,1,2.6,1,4.4v6.8c0,0.5-0.2,0.8-0.5,1.2c-0.3,0.3-0.7,0.5-1.1,0.5
							s-0.8-0.2-1.1-0.5c-0.3-0.3-0.5-0.7-0.5-1.2v-6.8c0-1-0.2-1.7-0.6-2.3c-0.4-0.6-1.1-0.8-2.1-0.8c-1,0-1.8,0.3-2.4,0.9
							s-0.9,1.3-0.9,2.2v6.8c0,0.5-0.2,0.8-0.5,1.2c-0.3,0.3-0.7,0.5-1.1,0.5s-0.8-0.2-1.1-0.5c-0.3-0.3-0.5-0.7-0.5-1.2v-11
							c0-0.5,0.2-0.8,0.5-1.2s0.7-0.5,1.1-0.5s0.8,0.2,1.1,0.5s0.5,0.7,0.5,1.2v0.5c0.5-0.6,1.1-1.2,1.9-1.6
							c0.8-0.5,1.6-0.7,2.6-0.7C1051.8,1686.8,1053.1,1687.4,1053.8,1688.4z"/>
						<path fill="#F9F9F9" d="M1070.2,1687.5c0.3,0.3,0.4,0.6,0.4,1c0,0.2-0.1,0.5-0.2,0.8l-5,10.9c-0.1,0.3-0.3,0.5-0.5,0.7
							s-0.5,0.3-0.8,0.3l-0.2,0c-0.3,0-0.6-0.1-0.8-0.3s-0.5-0.4-0.6-0.8l-5-10.9c-0.1-0.3-0.2-0.6-0.2-0.8c0-0.4,0.2-0.7,0.5-1
							c0.3-0.3,0.7-0.4,1.1-0.4c0.3,0,0.7,0.1,0.9,0.3c0.3,0.2,0.5,0.4,0.6,0.7l3.7,8.4l3.7-8.4c0.1-0.3,0.3-0.6,0.6-0.8
							c0.2-0.2,0.5-0.3,0.8-0.2C1069.6,1687.1,1069.9,1687.3,1070.2,1687.5z"/>
						<path fill="#F9F9F9" d="M1073.3,1685.1c-0.2-0.2-0.4-0.5-0.4-1v-0.5c0-0.5,0.1-0.8,0.4-1c0.3-0.2,0.7-0.3,1.3-0.3
							c0.6,0,1.1,0.1,1.3,0.3c0.2,0.2,0.4,0.5,0.4,1v0.5c0,0.5-0.1,0.9-0.4,1c-0.3,0.2-0.7,0.3-1.3,0.3
							C1074,1685.4,1073.5,1685.3,1073.3,1685.1z M1075.7,1700.8c-0.3,0.3-0.7,0.5-1.1,0.5c-0.5,0-0.8-0.2-1.1-0.5
							c-0.3-0.3-0.5-0.7-0.5-1.2v-11c0-0.5,0.2-0.8,0.5-1.2s0.7-0.5,1.1-0.5c0.5,0,0.8,0.2,1.1,0.5s0.5,0.7,0.5,1.2v11
							C1076.2,1700.1,1076.1,1700.5,1075.7,1700.8z"/>
						<path fill="#F9F9F9" d="M1092.2,1682.1c0.3,0.3,0.5,0.7,0.5,1.2v16.4c0,0.5-0.2,0.8-0.5,1.2c-0.3,0.3-0.7,0.5-1.1,0.5
							c-0.5,0-0.8-0.2-1.1-0.5s-0.5-0.7-0.5-1.1c-0.4,0.5-1,1-1.8,1.3c-0.8,0.4-1.6,0.5-2.4,0.5c-1.2,0-2.3-0.3-3.3-0.9
							s-1.8-1.5-2.4-2.6c-0.6-1.1-0.9-2.4-0.9-3.8c0-1.4,0.3-2.7,0.9-3.8c0.6-1.1,1.3-2,2.3-2.6c1-0.6,2.1-0.9,3.3-0.9
							c0.9,0,1.7,0.2,2.4,0.5c0.7,0.3,1.4,0.7,1.9,1.2v-5.2c0-0.5,0.2-0.8,0.5-1.2c0.3-0.3,0.7-0.5,1.1-0.5
							C1091.5,1681.6,1091.9,1681.8,1092.2,1682.1z M1088.5,1697.4c0.7-0.8,1.1-1.9,1.1-3.2c0-1.3-0.4-2.3-1.1-3.2
							c-0.7-0.8-1.7-1.3-2.8-1.3c-1.1,0-2.1,0.4-2.8,1.3s-1.1,1.9-1.1,3.2c0,1.3,0.4,2.3,1.1,3.2c0.7,0.8,1.7,1.3,2.8,1.3
							C1086.8,1698.6,1087.8,1698.2,1088.5,1697.4z"/>
						<path fill="#F9F9F9" d="M1108.4,1694.9c-0.3,0.3-0.7,0.4-1.1,0.4h-8.8c0.2,1,0.7,1.9,1.5,2.5c0.8,0.6,1.6,0.9,2.6,0.9
							c0.7,0,1.3-0.1,1.7-0.2c0.4-0.1,0.7-0.3,1-0.4c0.2-0.1,0.4-0.3,0.5-0.3c0.3-0.2,0.6-0.2,0.9-0.2c0.4,0,0.7,0.1,1,0.4
							c0.3,0.3,0.4,0.6,0.4,0.9c0,0.5-0.2,0.9-0.7,1.3c-0.5,0.4-1.2,0.8-2,1c-0.8,0.3-1.7,0.4-2.5,0.4c-1.5,0-2.8-0.3-3.9-0.9
							c-1.1-0.6-2-1.5-2.6-2.6c-0.6-1.1-0.9-2.3-0.9-3.7c0-1.5,0.3-2.9,1-4c0.6-1.2,1.5-2,2.5-2.6c1-0.6,2.2-0.9,3.4-0.9
							c1.2,0,2.3,0.3,3.3,1c1,0.6,1.9,1.5,2.5,2.6c0.6,1.1,0.9,2.2,0.9,3.5C1108.9,1694.3,1108.8,1694.6,1108.4,1694.9z
							 M1098.5,1692.6h7v-0.2c-0.1-0.7-0.4-1.4-1.1-1.9c-0.7-0.5-1.4-0.8-2.2-0.8C1100.1,1689.7,1098.9,1690.7,1098.5,1692.6z"/>
					</g>
					<path fill="#F9F9F9" d="M1032.4,1690.2h6.7l-6.7-16.6l-6.7,16.6H1032.4z"/>
					<path fill="#F9F9F9" d="M1039.1,1690.2l-6.7-16.6l-1.1,2.8c0.3,0.2,0.7,0.4,1.1,0.4c0,0,0,0,0,0c0.2,0,0.3,0.1,0.4,0.2
						l5.3,13.2H1039.1z"/>
					<path fill="#F9F9F9" d="M1035.5,1681.4h-6.3l0.9-2.4h4.4L1035.5,1681.4z"/>
					<path fill="#F9F9F9" d="M1033.7,1679.1l0.9,2.4h1l-0.9-2.4H1033.7z"/>
					<path fill="#F9F9F9" d="M1037.8,1686.9H1027l0.9-2.4h8.8L1037.8,1686.9z"/>
					<path fill="#F9F9F9" d="M1037.8,1686.9l-0.9-2.4h-1l0.9,2.4H1037.8z"/>
					<path fill="#F9F9F9" d="M1039.3,1691.4h-13.8c-0.2,0-0.4-0.2-0.4-0.4v-0.4c0-0.2,0.2-0.4,0.4-0.4h13.8c0.2,0,0.4,0.2,0.4,0.4
						v0.4C1039.7,1691.2,1039.5,1691.4,1039.3,1691.4z"/>
					<path fill="#F9F9F9" d="M1039.3,1690.2h-1c0.2,0,0.4,0.2,0.4,0.4v0.4c0,0.2-0.2,0.4-0.4,0.4h1c0.2,0,0.4-0.2,0.4-0.4v-0.4
						C1039.7,1690.3,1039.5,1690.2,1039.3,1690.2z"/>
					<g>
						<path fill="#F9F9F9" d="M1035.7,1676.1l0.3,0.1c0.2,0.1,0.4,0.3,0.5,0.5l0.3,0.8c0.1,0.1,0.2,0.1,0.3,0l0.3-0.8
							c0.1-0.2,0.2-0.4,0.5-0.5l0.3-0.1c0.1-0.1,0.1-0.2,0-0.3l-0.3-0.1c-0.2-0.1-0.4-0.3-0.5-0.5l-0.3-0.8c-0.1-0.1-0.2-0.1-0.3,0
							l-0.3,0.8c-0.1,0.2-0.2,0.4-0.5,0.5l-0.3,0.1C1035.6,1675.8,1035.6,1676,1035.7,1676.1z"/>
						<path fill="#F9F9F9" d="M1037.8,1675.6c-0.2-0.1-0.3-0.2-0.4-0.4c-0.1,0.6-0.5,1-1,1.2c0,0,0.1,0.1,0.1,0.2l0.3,0.8
							c0.1,0.1,0.2,0.1,0.3,0l0.3-0.8c0.1-0.2,0.2-0.4,0.5-0.5l0.3-0.1c0.1-0.1,0.1-0.2,0-0.3L1037.8,1675.6z"/>
					</g>
					<path fill="#F9F9F9" d="M1025.5,1680.4l0.3,0.1c0.2,0.1,0.4,0.3,0.5,0.5l0.3,0.8c0.1,0.1,0.2,0.1,0.3,0l0.3-0.8
						c0.1-0.2,0.2-0.4,0.5-0.5l0.3-0.1c0.1-0.1,0.1-0.2,0-0.3l-0.3-0.1c-0.2-0.1-0.4-0.3-0.5-0.5l-0.3-0.8c-0.1-0.1-0.2-0.1-0.3,0
						l-0.3,0.8c-0.1,0.2-0.2,0.4-0.5,0.5l-0.3,0.1C1025.3,1680.2,1025.3,1680.3,1025.5,1680.4z"/>
					<path fill="#F9F9F9" d="M1027.6,1680c-0.2-0.1-0.3-0.2-0.4-0.4c-0.1,0.6-0.5,1-1,1.2c0,0,0.1,0.1,0.1,0.2l0.3,0.8
						c0.1,0.1,0.2,0.1,0.3,0l0.3-0.8c0.1-0.2,0.2-0.4,0.5-0.5l0.3-0.1c0.1-0.1,0.1-0.2,0-0.3L1027.6,1680z"/>
					<path fill="#F9F9F9" d="M1030.8,1675.9l0.8-0.2l0.2,0.8c0.1,0.5,0.6,0.9,1.2,0.8c0.5-0.1,0.9-0.6,0.8-1.2l-0.2-0.8l0.8-0.2
						c0.5-0.1,0.9-0.6,0.8-1.2c-0.1-0.5-0.6-0.9-1.2-0.8l-0.8,0.2l-0.2-0.8c-0.1-0.5-0.6-0.9-1.2-0.8c-0.5,0.1-0.9,0.6-0.8,1.2
						l0.2,0.8l-0.8,0.2c-0.5,0.1-0.9,0.6-0.8,1.2C1029.7,1675.6,1030.2,1676,1030.8,1675.9z"/>
				</g>
				<path fill="#F9F9F9" d="M1030.8,1675.9l0.8-0.2l1.6-2.3l-0.2-0.8c-0.1-0.5-0.6-0.9-1.2-0.8c-0.5,0.1-0.9,0.6-0.8,1.2l0.2,0.8
					l-0.8,0.2c-0.5,0.1-0.9,0.6-0.8,1.2C1029.7,1675.6,1030.2,1676,1030.8,1675.9z"/>
			</g>
		</g>
	</g>
</g>
<g id="Layer_2">
</g>
</svg>
