<svg id="Layer_1" data-name="Layer 1" xmlns="http://www.w3.org/2000/svg" x="0px" y="0px" width="1200px"
	 height="1800px" viewBox="0 0 1200 1800"><defs><style>.cls-1{fill:#fbda8e;}.cls-2{fill:#ffebab;}.cls-3{fill:#c6d9a8;}.cls-4{fill:#424965;}.cls-5{fill:#969dbb;}.cls-6{fill:#cbcedc;}</style></defs><title>karaoke - bg</title><rect class="cls-1" x="1.71" y="1.5" width="1197.29" height="1680.24"/><polygon class="cls-2" points="602.55 824.41 496.95 1681.74 366.51 1681.74 602.55 824.41"/><polygon class="cls-2" points="200.2 1681.74 602.55 824.41 67.4 1681.74 200.2 1681.74"/><polygon class="cls-2" points="1.5 1519.24 602.55 824.41 1.5 1324.17 1.5 1519.24"/><polygon class="cls-2" points="1.5 1073.37 602.55 824.41 1.5 933.62 1.5 1073.37"/><polygon class="cls-2" points="602.55 858.82 496.95 1.5 366.51 1.5 602.55 858.82"/><polygon class="cls-2" points="200.2 1.5 602.55 858.82 67.4 1.5 200.2 1.5"/><polygon class="cls-2" points="1.5 164 602.55 858.82 1.5 359.06 1.5 164"/><polygon class="cls-2" points="1.5 609.87 602.55 858.82 1.5 749.61 1.5 609.87"/><polygon class="cls-2" points="597.94 858.82 703.54 1.5 833.98 1.5 597.94 858.82"/><polygon class="cls-2" points="1000.29 1.5 597.94 858.82 1133.1 1.5 1000.29 1.5"/><polygon class="cls-2" points="1199 164 597.94 858.82 1199 359.06 1199 164"/><polygon class="cls-2" points="1199 609.87 597.94 858.82 1199 749.61 1199 609.87"/><polygon class="cls-2" points="597.94 824.41 703.54 1681.74 833.98 1681.74 597.94 824.41"/><polygon class="cls-2" points="1000.29 1681.74 597.94 824.41 1133.1 1681.74 1000.29 1681.74"/><polygon class="cls-2" points="1199 1519.24 597.94 824.41 1199 1324.17 1199 1519.24"/><polygon class="cls-2" points="1199 1073.37 597.94 824.41 1199 933.62 1199 1073.37"/><polygon class="cls-3" points="-1 614.58 1200 1076.05 1200 1801 -0.78 1801 -1 614.58"/><path class="cls-2" d="M992.42,1689.09a6.2,6.2,0,0,1,1.14,3.89v7.51a.81.81,0,1,1-1.61,0v-7.43a4.55,4.55,0,0,0-.84-2.85,3,3,0,0,0-2.6-1.1,4.53,4.53,0,0,0-3.74,2,3.51,3.51,0,0,0-.62,2v7.43a.77.77,0,0,1-.22.57.82.82,0,0,1-.58.23.79.79,0,0,1-.8-.8V1693a4.6,4.6,0,0,0-.8-2.8,3,3,0,0,0-2.51-1.07,4.2,4.2,0,0,0-2.07.53,4.42,4.42,0,0,0-1.58,1.42,3.35,3.35,0,0,0-.6,1.92v7.51a.74.74,0,0,1-.23.57.82.82,0,0,1-1.14,0,.74.74,0,0,1-.23-.57V1688.6a.74.74,0,0,1,.23-.57.85.85,0,0,1,1.14,0,.74.74,0,0,1,.23.57v1.54a5.84,5.84,0,0,1,2-1.8,5,5,0,0,1,2.59-.72,4.75,4.75,0,0,1,2.67.74,4.07,4.07,0,0,1,1.61,2.18,4.9,4.9,0,0,1,2.05-2,5.89,5.89,0,0,1,3-.88A4.2,4.2,0,0,1,992.42,1689.09Z"/><path class="cls-2" d="M1009.05,1694.27a.8.8,0,0,1-.56.23h-10.1a6.17,6.17,0,0,0,.65,2.85,5,5,0,0,0,1.87,2,5.46,5.46,0,0,0,2.88.73,4.89,4.89,0,0,0,2.29-.53,4.77,4.77,0,0,0,1.63-1.36,1,1,0,0,1,.56-.23.66.66,0,0,1,.48.21.64.64,0,0,1,.22.48.76.76,0,0,1-.27.55,6.73,6.73,0,0,1-2.15,1.7,6,6,0,0,1-2.74.67,7.39,7.39,0,0,1-3.63-.88,6.19,6.19,0,0,1-2.46-2.46,7.29,7.29,0,0,1-.88-3.64,7.94,7.94,0,0,1,.87-3.81,6.29,6.29,0,0,1,2.31-2.5,5.91,5.91,0,0,1,3.07-.86,6.41,6.41,0,0,1,3,.74,6,6,0,0,1,2.28,2.18,6.52,6.52,0,0,1,.91,3.4A.71.71,0,0,1,1009.05,1694.27Zm-8.83-4.26a5,5,0,0,0-1.7,3h9.11v-.21a4.1,4.1,0,0,0-.8-2.08,4.25,4.25,0,0,0-1.67-1.36,4.87,4.87,0,0,0-2.07-.46A4.48,4.48,0,0,0,1000.22,1690Z"/><path class="cls-2" d="M1022.11,1687.53a2.1,2.1,0,0,1,1.39,1.87,1.6,1.6,0,0,1-.35,1,1.1,1.1,0,0,1-.91.44,1.71,1.71,0,0,1-.69-.12,2.61,2.61,0,0,1-.52-.32,4.29,4.29,0,0,0-.5-.33,3.16,3.16,0,0,0-.78-.24,4.59,4.59,0,0,0-.85-.11,4,4,0,0,0-3.13,1.24,5,5,0,0,0,0,6.4,3.78,3.78,0,0,0,2.94,1.26,4.62,4.62,0,0,0,1.95-.32l.44-.28a3,3,0,0,1,.52-.31,1.49,1.49,0,0,1,.59-.1,1.36,1.36,0,0,1,1,.42,1.55,1.55,0,0,1,.39,1.09,1.53,1.53,0,0,1-.75,1.19,5.69,5.69,0,0,1-2,.89,10,10,0,0,1-2.61.34,6.77,6.77,0,0,1-3.62-1,6.5,6.5,0,0,1-2.42-2.64,8.19,8.19,0,0,1-.86-3.76,8,8,0,0,1,.9-3.82,6.61,6.61,0,0,1,2.5-2.61,7,7,0,0,1,3.63-.94A8.14,8.14,0,0,1,1022.11,1687.53Z"/><path class="cls-2" d="M1038.75,1698a6.76,6.76,0,0,1-2.63,2.62,7.75,7.75,0,0,1-7.36,0,6.87,6.87,0,0,1-2.62-2.62,8,8,0,0,1,0-7.62,7,7,0,0,1,2.62-2.62,7.67,7.67,0,0,1,7.36,0,6.89,6.89,0,0,1,2.63,2.62,8,8,0,0,1,0,7.62Zm-2.79-6.13a4,4,0,0,0-1.47-1.58,3.86,3.86,0,0,0-2-.56,3.92,3.92,0,0,0-2,.56,4.08,4.08,0,0,0-1.47,1.58,4.9,4.9,0,0,0-.54,2.32,4.8,4.8,0,0,0,.54,2.31,4.05,4.05,0,0,0,1.47,1.57,3.92,3.92,0,0,0,2,.56,3.86,3.86,0,0,0,2-.56,4,4,0,0,0,1.47-1.57,4.7,4.7,0,0,0,.55-2.31A4.79,4.79,0,0,0,1036,1691.88Z"/><path class="cls-2" d="M1053.79,1688.43a8.07,8.07,0,0,1,1,4.45v6.79a1.61,1.61,0,0,1-.45,1.16,1.67,1.67,0,0,1-2.3,0,1.61,1.61,0,0,1-.45-1.16v-6.79a3.81,3.81,0,0,0-.62-2.3,2.44,2.44,0,0,0-2.11-.84,3.29,3.29,0,0,0-2.43.89,3.06,3.06,0,0,0-.88,2.25v6.79a1.61,1.61,0,0,1-.45,1.16,1.55,1.55,0,0,1-1.15.46,1.52,1.52,0,0,1-1.15-.46,1.62,1.62,0,0,1-.46-1.16v-11a1.62,1.62,0,0,1,.46-1.16,1.56,1.56,0,0,1,1.15-.46,1.56,1.56,0,0,1,1.6,1.62v.45a6.59,6.59,0,0,1,1.88-1.65,4.92,4.92,0,0,1,2.55-.68C1051.84,1686.83,1053.1,1687.36,1053.79,1688.43Z"/><path class="cls-2" d="M1070.22,1687.53a1.37,1.37,0,0,1,.43,1,2,2,0,0,1-.22.8l-5,10.93a1.74,1.74,0,0,1-.55.72,1.56,1.56,0,0,1-.81.29l-.25,0a1.46,1.46,0,0,1-.84-.28,1.9,1.9,0,0,1-.6-.76l-5-10.93a2.2,2.2,0,0,1-.18-.85,1.32,1.32,0,0,1,.45-1,1.56,1.56,0,0,1,1.12-.44,1.74,1.74,0,0,1,.94.27,1.6,1.6,0,0,1,.64.74l3.69,8.39,3.65-8.37a1.77,1.77,0,0,1,.59-.76,1.25,1.25,0,0,1,.83-.24A1.46,1.46,0,0,1,1070.22,1687.53Z"/><path class="cls-2" d="M1073.29,1685.07a1.23,1.23,0,0,1-.37-1v-.51a1.18,1.18,0,0,1,.4-1,2.14,2.14,0,0,1,1.28-.29,2.17,2.17,0,0,1,1.31.29,1.23,1.23,0,0,1,.37,1v.51a1.22,1.22,0,0,1-.39,1,2.35,2.35,0,0,1-1.32.28A2.09,2.09,0,0,1,1073.29,1685.07Zm2.46,15.76a1.67,1.67,0,0,1-2.3,0,1.61,1.61,0,0,1-.45-1.16v-11a1.61,1.61,0,0,1,.45-1.16,1.67,1.67,0,0,1,2.3,0,1.61,1.61,0,0,1,.45,1.16v11A1.61,1.61,0,0,1,1075.75,1700.83Z"/><path class="cls-2" d="M1092.2,1682.1a1.59,1.59,0,0,1,.46,1.17v16.4a1.62,1.62,0,0,1-.46,1.16,1.52,1.52,0,0,1-1.15.46,1.51,1.51,0,0,1-1.13-.45,1.64,1.64,0,0,1-.47-1.14,5.85,5.85,0,0,1-4.19,1.86,6.13,6.13,0,0,1-3.34-1,6.59,6.59,0,0,1-2.37-2.61,8.24,8.24,0,0,1-.86-3.8,8.34,8.34,0,0,1,.85-3.81,6.55,6.55,0,0,1,2.34-2.62,6,6,0,0,1,3.27-.94,6.18,6.18,0,0,1,2.4.46,6.32,6.32,0,0,1,1.9,1.18v-5.2a1.61,1.61,0,0,1,.45-1.16,1.68,1.68,0,0,1,2.3,0Zm-3.71,15.28a5.18,5.18,0,0,0,0-6.36,3.75,3.75,0,0,0-5.64,0,5.2,5.2,0,0,0,0,6.36,3.8,3.8,0,0,0,5.65,0Z"/><path class="cls-2" d="M1108.44,1694.89a1.67,1.67,0,0,1-1.12.4h-8.82a4.07,4.07,0,0,0,1.47,2.46,4.16,4.16,0,0,0,2.6.89,5.92,5.92,0,0,0,1.71-.2,5,5,0,0,0,1-.43l.49-.3a2.06,2.06,0,0,1,.91-.24,1.28,1.28,0,0,1,1,.4,1.24,1.24,0,0,1,.4.92,1.68,1.68,0,0,1-.74,1.31,6.5,6.5,0,0,1-2,1,8.28,8.28,0,0,1-6.45-.5,6.61,6.61,0,0,1-2.58-2.56,7.51,7.51,0,0,1-.9-3.68,8.12,8.12,0,0,1,1-4,6.73,6.73,0,0,1,2.54-2.64,6.58,6.58,0,0,1,3.36-.91,6.24,6.24,0,0,1,3.33,1,7.22,7.22,0,0,1,2.49,2.57,6.84,6.84,0,0,1,.94,3.51A1.36,1.36,0,0,1,1108.44,1694.89Zm-9.91-2.25h7v-.19a2.76,2.76,0,0,0-1.09-1.91,3.5,3.5,0,0,0-2.25-.8A3.32,3.32,0,0,0,1098.53,1692.64Z"/><path class="cls-2" d="M1032.39,1690.17h6.66l-6.66-16.62-6.65,16.62Z"/><path class="cls-2" d="M1039.05,1690.17l-6.66-16.62-1.1,2.77a1.81,1.81,0,0,0,1.1.38h0a.4.4,0,0,1,.37.25l5.3,13.22Z"/><path class="cls-2" d="M1035.55,1681.43h-6.31l.94-2.36h4.42Z"/><path class="cls-2" d="M1033.65,1679.07l.95,2.36h1l-1-2.36Z"/><path class="cls-2" d="M1037.76,1686.94H1027l1-2.36h8.83Z"/><path class="cls-2" d="M1037.76,1686.94l-1-2.36h-1l1,2.36Z"/><path class="cls-2" d="M1039.29,1691.35H1025.5a.4.4,0,0,1-.4-.39v-.4a.4.4,0,0,1,.4-.39h13.79a.4.4,0,0,1,.4.39v.4A.4.4,0,0,1,1039.29,1691.35Z"/><path class="cls-2" d="M1039.29,1690.17h-1a.4.4,0,0,1,.4.39v.4a.4.4,0,0,1-.4.39h1a.4.4,0,0,0,.4-.39v-.4A.4.4,0,0,0,1039.29,1690.17Z"/><path class="cls-2" d="M1035.71,1676.06l.31.12a.8.8,0,0,1,.46.46l.28.77a.16.16,0,0,0,.3,0l.28-.77a.8.8,0,0,1,.46-.46l.32-.12a.16.16,0,0,0,0-.29l-.32-.12a.8.8,0,0,1-.46-.46l-.28-.77a.16.16,0,0,0-.3,0l-.28.77a.8.8,0,0,1-.46.46l-.31.12A.15.15,0,0,0,1035.71,1676.06Z"/><path class="cls-2" d="M1037.8,1675.65a.75.75,0,0,1-.43-.41,1.65,1.65,0,0,1-1,1.25,1.09,1.09,0,0,1,.08.15l.28.77a.16.16,0,0,0,.3,0l.28-.77a.8.8,0,0,1,.46-.46l.32-.12a.16.16,0,0,0,0-.29Z"/><path class="cls-2" d="M1025.48,1680.39l.32.12a.8.8,0,0,1,.46.46l.28.77a.15.15,0,0,0,.29,0l.29-.77a.77.77,0,0,1,.46-.46l.31-.12a.15.15,0,0,0,0-.29l-.31-.12a.77.77,0,0,1-.46-.46l-.29-.77a.16.16,0,0,0-.29,0l-.28.77a.8.8,0,0,1-.46.46l-.32.12A.16.16,0,0,0,1025.48,1680.39Z"/><path class="cls-2" d="M1027.58,1680a.79.79,0,0,1-.44-.4,1.66,1.66,0,0,1-1,1.24,1.09,1.09,0,0,1,.08.15l.28.77a.15.15,0,0,0,.29,0l.29-.77a.77.77,0,0,1,.46-.46l.31-.12a.15.15,0,0,0,0-.29Z"/><path class="cls-2" d="M1030.76,1675.85l.79-.15.15.78a1,1,0,0,0,2-.37l-.15-.78.78-.16a1,1,0,0,0,.79-1.16,1,1,0,0,0-1.17-.79l-.78.15-.16-.78a1,1,0,0,0-2,.38l.15.78-.78.15a1,1,0,1,0,.37,1.95Z"/><path class="cls-2" d="M1030.76,1675.85l.79-.15,1.59-2.33-.16-.78a1,1,0,0,0-2,.38l.15.78-.78.15a1,1,0,1,0,.37,1.95Z"/><polygon class="cls-4" points="1014.43 1150.94 186.28 1150.94 206.69 1060.94 186.28 970.95 1014.43 970.95 994.03 1060.94 1014.43 1150.94"/><path class="cls-5" d="M667.08,327.73H533.63A141.66,141.66,0,0,0,392,469.39V755.22A141.67,141.67,0,0,0,533.63,896.89H667.08A141.67,141.67,0,0,0,808.75,755.22V469.39A141.66,141.66,0,0,0,667.08,327.73Z"/><path class="cls-4" d="M550.82,476.74H392V449.52H550.82a13.61,13.61,0,0,1,13.61,13.61h0A13.61,13.61,0,0,1,550.82,476.74Z"/><path class="cls-4" d="M550.82,525.13H392V497.91H550.82a13.61,13.61,0,0,1,13.61,13.61h0A13.61,13.61,0,0,1,550.82,525.13Z"/><path class="cls-4" d="M550.82,573.53H392V546.31H550.82a13.61,13.61,0,0,1,13.61,13.61h0A13.61,13.61,0,0,1,550.82,573.53Z"/><path class="cls-4" d="M550.82,621.92H392V594.7H550.82a13.61,13.61,0,0,1,13.61,13.61h0A13.61,13.61,0,0,1,550.82,621.92Z"/><path class="cls-4" d="M550.82,670.32H392V643.1H550.82a13.61,13.61,0,0,1,13.61,13.61h0A13.61,13.61,0,0,1,550.82,670.32Z"/><path class="cls-4" d="M392,691.49H561.13a3.31,3.31,0,0,1,3.31,3.31v20.61a3.31,3.31,0,0,1-3.31,3.31H392a0,0,0,0,1,0,0V691.49A0,0,0,0,1,392,691.49Z"/><path class="cls-4" d="M550.82,767.11H392V739.89H550.82a13.61,13.61,0,0,1,13.61,13.61h0A13.61,13.61,0,0,1,550.82,767.11Z"/><rect class="cls-4" x="562.71" y="896.89" width="39.67" height="244.81"/><path class="cls-4" d="M562.71,906.81h-62.3c-63.55-.73-116.1-54.07-118.68-118.68V694.45h-15v102.4c0,65.55,53.13,124.44,118.68,124.44h77.3Z"/><path class="cls-4" d="M649.89,476.74H808.75V449.52H649.89a13.61,13.61,0,0,0-13.61,13.61h0A13.61,13.61,0,0,0,649.89,476.74Z"/><path class="cls-4" d="M649.89,525.13H808.75V497.91H649.89a13.61,13.61,0,0,0-13.61,13.61h0A13.61,13.61,0,0,0,649.89,525.13Z"/><path class="cls-4" d="M649.89,573.53H808.75V546.31H649.89a13.61,13.61,0,0,0-13.61,13.61h0A13.61,13.61,0,0,0,649.89,573.53Z"/><path class="cls-4" d="M649.89,621.92H808.75V594.7H649.89a13.61,13.61,0,0,0-13.61,13.61h0A13.61,13.61,0,0,0,649.89,621.92Z"/><path class="cls-4" d="M649.89,670.32H808.75V643.1H649.89a13.61,13.61,0,0,0-13.61,13.61h0A13.61,13.61,0,0,0,649.89,670.32Z"/><path class="cls-4" d="M636.28,691.49H805.45a3.31,3.31,0,0,1,3.31,3.31v20.61a3.31,3.31,0,0,1-3.31,3.31H636.28a0,0,0,0,1,0,0V691.49A0,0,0,0,1,636.28,691.49Z" transform="translate(1445.03 1410.21) rotate(180)"/><path class="cls-4" d="M649.89,767.11H808.75V739.89H649.89a13.61,13.61,0,0,0-13.61,13.61h0A13.61,13.61,0,0,0,649.89,767.11Z"/><rect class="cls-4" x="598.33" y="896.89" width="39.67" height="244.81" transform="translate(1236.34 2038.58) rotate(180)"/><path class="cls-4" d="M638,906.81h62.31c63.54-.73,116.09-54.07,118.67-118.68V694.45h15v102.4c0,65.55-53.13,124.44-118.68,124.44H638Z"/><path class="cls-6" d="M710.53,355.37c-4.36-2-33.26-8.94-72.53-8.94s-41,34-12.43,37.56,93,0,127,21.46l34,21.47S769.56,383,710.53,355.37Z"/><path class="cls-6" d="M593.38,358.05c0,6.42-6.87,11.63-15.34,11.63s-15.33-5.21-15.33-11.63,6.86-11.62,15.33-11.62S593.38,351.63,593.38,358.05Z"/><path class="cls-6" d="M676.55,875.86s42-1.78,73.33-33.09S779.4,805.21,766,799,725.74,866,676.55,875.86Z"/><path class="cls-2" d="M104.27,956.24l-58.5,22-5.36,2,10.66,54.08a15.39,15.39,0,1,0,13.23,9.93,15.17,15.17,0,0,0-2.95-4.85l-9.3-44.45,47-17.65,8.91,35.72a15.46,15.46,0,1,0,10.34,5.29Z"/><path class="cls-2" d="M1134.16,1365.61l-61.71-9.87-5.65-.91-17.51,52.26a15.4,15.4,0,1,0,6.58,15.18,15.17,15.17,0,0,0-.17-5.67l13.93-43.22,49.54,7.92-10,35.44a15.46,15.46,0,1,0,6.37,9.71Z"/><path class="cls-2" d="M1110.56,1175.36l11.47-43.95,14.26,1.47,3.93-17.33,0-.23-16.35-1.67-5.69-.59-14.55,53.16a15.45,15.45,0,1,0,7,9.14Z"/><path class="cls-2" d="M98.81,1376.24l11.46-43.94,14.27,1.46,3.92-17.33v-.22l-16.35-1.68-5.69-.58-14.55,53.16a15.43,15.43,0,1,0,7,9.13Z"/><polygon class="cls-2" points="302.02 837.37 314.93 863.52 343.8 867.72 322.91 888.08 327.84 916.83 302.02 903.25 276.2 916.83 281.14 888.08 260.25 867.72 289.12 863.52 302.02 837.37"/><polygon class="cls-3" points="967.49 763.44 980.4 789.6 1009.27 793.79 988.38 814.15 993.31 842.91 967.49 829.33 941.67 842.91 946.61 814.15 925.72 793.79 954.58 789.6 967.49 763.44"/><polygon class="cls-3" points="996.05 287.99 1008.96 314.15 1037.83 318.35 1016.94 338.71 1021.87 367.46 996.05 353.88 970.23 367.46 975.16 338.71 954.28 318.35 983.14 314.15 996.05 287.99"/><polygon class="cls-2" points="1116.04 1531.01 1128.95 1557.17 1157.81 1561.36 1136.92 1581.72 1141.86 1610.47 1116.04 1596.9 1090.22 1610.47 1095.15 1581.72 1074.26 1561.36 1103.13 1557.17 1116.04 1531.01"/><polygon class="cls-2" points="107.44 753.5 116.46 771.78 136.63 774.71 122.04 788.94 125.48 809.03 107.44 799.55 89.39 809.03 92.84 788.94 78.24 774.71 98.42 771.78 107.44 753.5"/><polygon class="cls-2" points="1025.25 1235.02 1034.27 1253.3 1054.45 1256.23 1039.85 1270.46 1043.3 1290.55 1025.25 1281.07 1007.21 1290.55 1010.65 1270.46 996.05 1256.23 1016.23 1253.3 1025.25 1235.02"/><polygon class="cls-2" points="151.2 1194.13 160.23 1212.41 180.4 1215.34 165.8 1229.57 169.25 1249.66 151.2 1240.18 133.16 1249.66 136.6 1229.57 122.01 1215.34 142.18 1212.41 151.2 1194.13"/><polygon class="cls-2" points="82.4 1493.16 99.16 1527.12 136.63 1532.56 109.52 1558.99 115.92 1596.32 82.4 1578.69 48.88 1596.32 55.29 1558.99 28.17 1532.56 65.64 1527.12 82.4 1493.16"/><polygon class="cls-3" points="250.49 276.15 267.25 310.11 304.72 315.55 277.61 341.98 284.01 379.3 250.49 361.68 216.97 379.3 223.38 341.98 196.26 315.55 233.73 310.11 250.49 276.15"/><path class="cls-4" d="M1120,573.53c0,11.66-9.66,21.66-13.07,32.19-3.55,10.91-1.74,24.65-8.34,33.73s-20.35,11.66-29.52,18.34-15.64,18.87-26.55,22.42c-10.53,3.41-23-2.54-34.66-2.54s-24.14,6-34.66,2.54c-10.91-3.55-17.47-15.81-26.55-22.42s-22.84-9.17-29.52-18.34-4.8-22.82-8.34-33.73c-3.42-10.53-13.07-20.53-13.07-32.19s9.65-21.67,13.07-32.19c3.54-10.91,1.73-24.65,8.34-33.73s20.35-11.66,29.52-18.34,15.64-18.88,26.55-22.42c10.52-3.42,23,2.54,34.66,2.54s24.13-6,34.66-2.54c10.91,3.54,17.47,15.81,26.55,22.42s22.84,9.17,29.52,18.34,4.79,22.82,8.34,33.73C1110.38,551.86,1120,561.86,1120,573.53Z"/><path class="cls-4" d="M306.66,573.53c0,11.66-9.66,21.66-13.07,32.19-3.55,10.91-1.74,24.65-8.34,33.73s-20.35,11.66-29.52,18.34-15.64,18.87-26.55,22.42c-10.53,3.41-23-2.54-34.66-2.54s-24.14,6-34.66,2.54c-10.91-3.55-17.47-15.81-26.55-22.42s-22.84-9.17-29.52-18.34-4.8-22.82-8.34-33.73C92,595.19,82.38,585.19,82.38,573.53S92,551.86,95.45,541.34c3.54-10.91,1.73-24.65,8.34-33.73s20.35-11.66,29.52-18.34,15.64-18.88,26.55-22.42c10.52-3.42,23,2.54,34.66,2.54s24.13-6,34.66-2.54c10.91,3.54,17.47,15.81,26.55,22.42s22.84,9.17,29.52,18.34,4.79,22.82,8.34,33.73C297,551.86,306.66,561.86,306.66,573.53Z"/></svg>