<?xml version="1.0" encoding="utf-8"?>
<!-- Generator: Adobe Illustrator 23.0.4, SVG Export Plug-In . SVG Version: 6.00 Build 0)  -->
<svg version="1.1" id="Layer_1" xmlns="http://www.w3.org/2000/svg" xmlns:xlink="http://www.w3.org/1999/xlink" x="0px" y="0px"
	 width="1200px" height="1800px" viewBox="0 0 1200 1800" enable-background="new 0 0 1200 1800" xml:space="preserve">
<g>
	<defs>
		<rect id="MASK_2_" x="1" y="2" width="1200" height="1800"/>
	</defs>
	<clipPath id="MASK_4_">
		<use xlink:href="#MASK_2_"  overflow="visible"/>
	</clipPath>
	<g clip-path="url(#MASK_4_)">
		<g>
			<g>
				<g>
					<polygon fill="#C0E4F3" points="0.5,0.5 0.5,1551.1 0.5,1800 1200,1800 1200,1551.1 1200,0.5 					"/>
				</g>
			</g>
			<g>
				<g>
					<polygon fill="#EAF1F4" points="54.5,0.5 54.5,1551.1 54.5,1800 120.6,1800 120.6,1551.1 120.6,0.5 					"/>
				</g>
				<g>
					<polygon fill="#EAF1F4" points="182.6,0.5 182.6,1551.1 182.6,1800 248.8,1800 248.8,1551.1 248.8,0.5 					"/>
				</g>
				<g>
					<polygon fill="#EAF1F4" points="310.8,0.5 310.8,1551.1 310.8,1800 376.9,1800 376.9,1551.1 376.9,0.5 					"/>
				</g>
				<g>
					<polygon fill="#EAF1F4" points="439,0.5 439,1551.1 439,1800 505.1,1800 505.1,1551.1 505.1,0.5 					"/>
				</g>
				<g>
					<polygon fill="#EAF1F4" points="567.2,0.5 567.2,1551.1 567.2,1800 633.3,1800 633.3,1551.1 633.3,0.5 					"/>
				</g>
				<g>
					<polygon fill="#EAF1F4" points="695.4,0.5 695.4,1551.1 695.4,1800 761.5,1800 761.5,1551.1 761.5,0.5 					"/>
				</g>
				<g>
					<polygon fill="#EAF1F4" points="823.5,0.5 823.5,1551.1 823.5,1800 889.7,1800 889.7,1551.1 889.7,0.5 					"/>
				</g>
				<g>
					<polygon fill="#EAF1F4" points="951.7,0.5 951.7,1551.1 951.7,1800 1017.9,1800 1017.9,1551.1 1017.9,0.5 					"/>
				</g>
				<g>
					<polygon fill="#EAF1F4" points="1079.9,0.5 1079.9,1551.1 1079.9,1800 1146,1800 1146,1551.1 1146,0.5 					"/>
				</g>
			</g>
		</g>
		<g>
			<g>
				<g>
					<path fill="#C9CFCF" d="M992.4,1689.1c0.8,1,1.1,2.3,1.1,3.9v7.5c0,0.2-0.1,0.4-0.2,0.6c-0.2,0.2-0.3,0.2-0.6,0.2
						c-0.2,0-0.4-0.1-0.6-0.2c-0.2-0.2-0.2-0.3-0.2-0.6v-7.4c0-1.2-0.3-2.1-0.8-2.9c-0.6-0.7-1.4-1.1-2.6-1.1
						c-0.7,0-1.5,0.2-2.1,0.5c-0.7,0.4-1.2,0.8-1.6,1.4c-0.4,0.6-0.6,1.3-0.6,2v7.4c0,0.2-0.1,0.4-0.2,0.6c-0.2,0.2-0.3,0.2-0.6,0.2
						s-0.4-0.1-0.6-0.2s-0.2-0.3-0.2-0.6v-7.5c0-1.2-0.3-2.1-0.8-2.8s-1.4-1.1-2.5-1.1c-0.7,0-1.4,0.2-2.1,0.5
						c-0.7,0.4-1.2,0.8-1.6,1.4c-0.4,0.6-0.6,1.2-0.6,1.9v7.5c0,0.2-0.1,0.4-0.2,0.6c-0.2,0.2-0.3,0.2-0.6,0.2s-0.4-0.1-0.6-0.2
						s-0.2-0.3-0.2-0.6v-11.9c0-0.2,0.1-0.4,0.2-0.6s0.3-0.2,0.6-0.2s0.4,0.1,0.6,0.2c0.2,0.2,0.2,0.3,0.2,0.6v1.5
						c0.5-0.7,1.1-1.3,2-1.8c0.8-0.5,1.7-0.7,2.6-0.7c1,0,1.9,0.2,2.7,0.7s1.3,1.2,1.6,2.2c0.4-0.8,1.1-1.5,2.1-2c1-0.6,2-0.9,3-0.9
						C990.5,1687.6,991.7,1688.1,992.4,1689.1z"/>
					<path fill="#C9CFCF" d="M1009,1694.3c-0.2,0.2-0.3,0.2-0.6,0.2h-10.1c0,1.1,0.2,2,0.7,2.9c0.4,0.8,1.1,1.5,1.9,2
						c0.8,0.5,1.8,0.7,2.9,0.7c0.9,0,1.6-0.2,2.3-0.5c0.7-0.4,1.2-0.8,1.6-1.4c0.2-0.2,0.4-0.2,0.6-0.2c0.2,0,0.3,0.1,0.5,0.2
						s0.2,0.3,0.2,0.5c0,0.2-0.1,0.4-0.3,0.6c-0.6,0.7-1.3,1.3-2.1,1.7c-0.9,0.4-1.8,0.7-2.7,0.7c-1.4,0-2.6-0.3-3.6-0.9
						s-1.9-1.4-2.5-2.5c-0.6-1.1-0.9-2.3-0.9-3.6c0-1.5,0.3-2.7,0.9-3.8c0.6-1.1,1.3-1.9,2.3-2.5s2-0.9,3.1-0.9c1.1,0,2.1,0.2,3,0.7
						c0.9,0.5,1.7,1.2,2.3,2.2c0.6,1,0.9,2.1,0.9,3.4C1009.3,1693.9,1009.2,1694.1,1009,1694.3z M1000.2,1690
						c-0.9,0.7-1.4,1.7-1.7,3.1h9.1v-0.2c-0.1-0.8-0.4-1.5-0.8-2.1c-0.4-0.6-1-1-1.7-1.4c-0.7-0.3-1.4-0.5-2.1-0.5
						C1002.1,1688.9,1001.1,1689.3,1000.2,1690z"/>
					<path fill="#C9CFCF" d="M1022.1,1687.5c0.9,0.5,1.4,1.1,1.4,1.9c0,0.4-0.1,0.7-0.3,1s-0.5,0.4-0.9,0.4c-0.3,0-0.5,0-0.7-0.1
						c-0.2-0.1-0.4-0.2-0.5-0.3c-0.2-0.1-0.3-0.2-0.5-0.3c-0.2-0.1-0.4-0.2-0.8-0.2c-0.3-0.1-0.6-0.1-0.8-0.1
						c-1.3,0-2.4,0.4-3.1,1.2s-1.1,1.9-1.1,3.2c0,1.3,0.4,2.3,1.1,3.2c0.8,0.8,1.7,1.3,2.9,1.3c0.9,0,1.5-0.1,1.9-0.3
						c0.1-0.1,0.3-0.1,0.4-0.3c0.2-0.1,0.4-0.2,0.5-0.3c0.2-0.1,0.4-0.1,0.6-0.1c0.4,0,0.8,0.1,1.1,0.4c0.3,0.3,0.4,0.6,0.4,1.1
						c0,0.4-0.2,0.8-0.7,1.2c-0.5,0.4-1.2,0.7-2,0.9c-0.8,0.2-1.7,0.3-2.6,0.3c-1.4,0-2.6-0.3-3.6-1c-1-0.6-1.8-1.5-2.4-2.6
						c-0.6-1.1-0.9-2.4-0.9-3.8c0-1.4,0.3-2.7,0.9-3.8c0.6-1.1,1.4-2,2.5-2.6c1.1-0.6,2.3-0.9,3.6-0.9
						C1020,1686.8,1021.2,1687.1,1022.1,1687.5z"/>
					<path fill="#C9CFCF" d="M1038.8,1698c-0.6,1.1-1.5,2-2.6,2.6s-2.3,0.9-3.7,0.9c-1.4,0-2.6-0.3-3.7-0.9c-1.1-0.6-2-1.5-2.6-2.6
						c-0.6-1.1-1-2.4-1-3.8c0-1.4,0.3-2.7,1-3.8c0.6-1.1,1.5-2,2.6-2.6c1.1-0.6,2.3-0.9,3.7-0.9c1.3,0,2.6,0.3,3.7,0.9
						c1.1,0.6,2,1.5,2.6,2.6c0.6,1.1,1,2.4,1,3.8C1039.7,1695.6,1039.4,1696.9,1038.8,1698z M1036,1691.9c-0.4-0.7-0.9-1.2-1.5-1.6
						c-0.6-0.4-1.3-0.6-2-0.6s-1.4,0.2-2,0.6c-0.6,0.4-1.1,0.9-1.5,1.6c-0.4,0.7-0.5,1.5-0.5,2.3c0,0.9,0.2,1.6,0.5,2.3
						s0.9,1.2,1.5,1.6c0.6,0.4,1.3,0.6,2,0.6s1.4-0.2,2-0.6c0.6-0.4,1.1-0.9,1.5-1.6s0.5-1.4,0.5-2.3
						C1036.5,1693.3,1036.3,1692.6,1036,1691.9z"/>
					<path fill="#C9CFCF" d="M1053.8,1688.4c0.7,1.1,1,2.6,1,4.4v6.8c0,0.5-0.2,0.8-0.5,1.2c-0.3,0.3-0.7,0.5-1.1,0.5
						s-0.8-0.2-1.1-0.5c-0.3-0.3-0.5-0.7-0.5-1.2v-6.8c0-1-0.2-1.7-0.6-2.3c-0.4-0.6-1.1-0.8-2.1-0.8c-1,0-1.8,0.3-2.4,0.9
						s-0.9,1.3-0.9,2.2v6.8c0,0.5-0.2,0.8-0.5,1.2c-0.3,0.3-0.7,0.5-1.1,0.5s-0.8-0.2-1.1-0.5c-0.3-0.3-0.5-0.7-0.5-1.2v-11
						c0-0.5,0.2-0.8,0.5-1.2s0.7-0.5,1.1-0.5s0.8,0.2,1.1,0.5s0.5,0.7,0.5,1.2v0.5c0.5-0.6,1.1-1.2,1.9-1.6c0.8-0.5,1.6-0.7,2.6-0.7
						C1051.8,1686.8,1053.1,1687.4,1053.8,1688.4z"/>
					<path fill="#C9CFCF" d="M1070.2,1687.5c0.3,0.3,0.4,0.6,0.4,1c0,0.2-0.1,0.5-0.2,0.8l-5,10.9c-0.1,0.3-0.3,0.5-0.5,0.7
						s-0.5,0.3-0.8,0.3l-0.2,0c-0.3,0-0.6-0.1-0.8-0.3s-0.5-0.4-0.6-0.8l-5-10.9c-0.1-0.3-0.2-0.6-0.2-0.8c0-0.4,0.2-0.7,0.5-1
						c0.3-0.3,0.7-0.4,1.1-0.4c0.3,0,0.7,0.1,0.9,0.3c0.3,0.2,0.5,0.4,0.6,0.7l3.7,8.4l3.7-8.4c0.1-0.3,0.3-0.6,0.6-0.8
						c0.2-0.2,0.5-0.3,0.8-0.2C1069.6,1687.1,1069.9,1687.3,1070.2,1687.5z"/>
					<path fill="#C9CFCF" d="M1073.3,1685.1c-0.2-0.2-0.4-0.5-0.4-1v-0.5c0-0.5,0.1-0.8,0.4-1c0.3-0.2,0.7-0.3,1.3-0.3
						c0.6,0,1.1,0.1,1.3,0.3c0.2,0.2,0.4,0.5,0.4,1v0.5c0,0.5-0.1,0.9-0.4,1c-0.3,0.2-0.7,0.3-1.3,0.3
						C1074,1685.4,1073.5,1685.3,1073.3,1685.1z M1075.7,1700.8c-0.3,0.3-0.7,0.5-1.1,0.5c-0.5,0-0.8-0.2-1.1-0.5
						c-0.3-0.3-0.5-0.7-0.5-1.2v-11c0-0.5,0.2-0.8,0.5-1.2s0.7-0.5,1.1-0.5c0.5,0,0.8,0.2,1.1,0.5s0.5,0.7,0.5,1.2v11
						C1076.2,1700.1,1076.1,1700.5,1075.7,1700.8z"/>
					<path fill="#C9CFCF" d="M1092.2,1682.1c0.3,0.3,0.5,0.7,0.5,1.2v16.4c0,0.5-0.2,0.8-0.5,1.2c-0.3,0.3-0.7,0.5-1.1,0.5
						c-0.5,0-0.8-0.2-1.1-0.5s-0.5-0.7-0.5-1.1c-0.4,0.5-1,1-1.8,1.3c-0.8,0.4-1.6,0.5-2.4,0.5c-1.2,0-2.3-0.3-3.3-0.9
						s-1.8-1.5-2.4-2.6c-0.6-1.1-0.9-2.4-0.9-3.8c0-1.4,0.3-2.7,0.9-3.8c0.6-1.1,1.3-2,2.3-2.6c1-0.6,2.1-0.9,3.3-0.9
						c0.9,0,1.7,0.2,2.4,0.5c0.7,0.3,1.4,0.7,1.9,1.2v-5.2c0-0.5,0.2-0.8,0.5-1.2c0.3-0.3,0.7-0.5,1.1-0.5
						C1091.5,1681.6,1091.9,1681.8,1092.2,1682.1z M1088.5,1697.4c0.7-0.8,1.1-1.9,1.1-3.2c0-1.3-0.4-2.3-1.1-3.2
						c-0.7-0.8-1.7-1.3-2.8-1.3c-1.1,0-2.1,0.4-2.8,1.3s-1.1,1.9-1.1,3.2c0,1.3,0.4,2.3,1.1,3.2c0.7,0.8,1.7,1.3,2.8,1.3
						C1086.8,1698.6,1087.8,1698.2,1088.5,1697.4z"/>
					<path fill="#C9CFCF" d="M1108.4,1694.9c-0.3,0.3-0.7,0.4-1.1,0.4h-8.8c0.2,1,0.7,1.9,1.5,2.5c0.8,0.6,1.6,0.9,2.6,0.9
						c0.7,0,1.3-0.1,1.7-0.2c0.4-0.1,0.7-0.3,1-0.4c0.2-0.1,0.4-0.3,0.5-0.3c0.3-0.2,0.6-0.2,0.9-0.2c0.4,0,0.7,0.1,1,0.4
						c0.3,0.3,0.4,0.6,0.4,0.9c0,0.5-0.2,0.9-0.7,1.3c-0.5,0.4-1.2,0.8-2,1c-0.8,0.3-1.7,0.4-2.5,0.4c-1.5,0-2.8-0.3-3.9-0.9
						c-1.1-0.6-2-1.5-2.6-2.6c-0.6-1.1-0.9-2.3-0.9-3.7c0-1.5,0.3-2.9,1-4c0.6-1.2,1.5-2,2.5-2.6c1-0.6,2.2-0.9,3.4-0.9
						c1.2,0,2.3,0.3,3.3,1c1,0.6,1.9,1.5,2.5,2.6c0.6,1.1,0.9,2.2,0.9,3.5C1108.9,1694.3,1108.8,1694.6,1108.4,1694.9z
						 M1098.5,1692.6h7v-0.2c-0.1-0.7-0.4-1.4-1.1-1.9c-0.7-0.5-1.4-0.8-2.2-0.8C1100.1,1689.7,1098.9,1690.7,1098.5,1692.6z"/>
				</g>
				<path fill="#C9CFCF" d="M1032.4,1690.2h6.7l-6.7-16.6l-6.7,16.6H1032.4z"/>
				<path fill="#C9CFCF" d="M1039.1,1690.2l-6.7-16.6l-1.1,2.8c0.3,0.2,0.7,0.4,1.1,0.4c0,0,0,0,0,0c0.2,0,0.3,0.1,0.4,0.2l5.3,13.2
					H1039.1z"/>
				<path fill="#C9CFCF" d="M1035.5,1681.4h-6.3l0.9-2.4h4.4L1035.5,1681.4z"/>
				<path fill="#C9CFCF" d="M1033.7,1679.1l0.9,2.4h1l-0.9-2.4H1033.7z"/>
				<path fill="#C9CFCF" d="M1037.8,1686.9H1027l0.9-2.4h8.8L1037.8,1686.9z"/>
				<path fill="#C9CFCF" d="M1037.8,1686.9l-0.9-2.4h-1l0.9,2.4H1037.8z"/>
				<path fill="#C9CFCF" d="M1039.3,1691.4h-13.8c-0.2,0-0.4-0.2-0.4-0.4v-0.4c0-0.2,0.2-0.4,0.4-0.4h13.8c0.2,0,0.4,0.2,0.4,0.4
					v0.4C1039.7,1691.2,1039.5,1691.4,1039.3,1691.4z"/>
				<path fill="#C9CFCF" d="M1039.3,1690.2h-1c0.2,0,0.4,0.2,0.4,0.4v0.4c0,0.2-0.2,0.4-0.4,0.4h1c0.2,0,0.4-0.2,0.4-0.4v-0.4
					C1039.7,1690.3,1039.5,1690.2,1039.3,1690.2z"/>
				<g>
					<path fill="#C9CFCF" d="M1035.7,1676.1l0.3,0.1c0.2,0.1,0.4,0.3,0.5,0.5l0.3,0.8c0.1,0.1,0.2,0.1,0.3,0l0.3-0.8
						c0.1-0.2,0.2-0.4,0.5-0.5l0.3-0.1c0.1-0.1,0.1-0.2,0-0.3l-0.3-0.1c-0.2-0.1-0.4-0.3-0.5-0.5l-0.3-0.8c-0.1-0.1-0.2-0.1-0.3,0
						l-0.3,0.8c-0.1,0.2-0.2,0.4-0.5,0.5l-0.3,0.1C1035.6,1675.8,1035.6,1676,1035.7,1676.1z"/>
					<path fill="#C9CFCF" d="M1037.8,1675.6c-0.2-0.1-0.3-0.2-0.4-0.4c-0.1,0.6-0.5,1-1,1.2c0,0,0.1,0.1,0.1,0.2l0.3,0.8
						c0.1,0.1,0.2,0.1,0.3,0l0.3-0.8c0.1-0.2,0.2-0.4,0.5-0.5l0.3-0.1c0.1-0.1,0.1-0.2,0-0.3L1037.8,1675.6z"/>
				</g>
				<path fill="#C9CFCF" d="M1025.5,1680.4l0.3,0.1c0.2,0.1,0.4,0.3,0.5,0.5l0.3,0.8c0.1,0.1,0.2,0.1,0.3,0l0.3-0.8
					c0.1-0.2,0.2-0.4,0.5-0.5l0.3-0.1c0.1-0.1,0.1-0.2,0-0.3l-0.3-0.1c-0.2-0.1-0.4-0.3-0.5-0.5l-0.3-0.8c-0.1-0.1-0.2-0.1-0.3,0
					l-0.3,0.8c-0.1,0.2-0.2,0.4-0.5,0.5l-0.3,0.1C1025.3,1680.2,1025.3,1680.3,1025.5,1680.4z"/>
				<path fill="#C9CFCF" d="M1027.6,1680c-0.2-0.1-0.3-0.2-0.4-0.4c-0.1,0.6-0.5,1-1,1.2c0,0,0.1,0.1,0.1,0.2l0.3,0.8
					c0.1,0.1,0.2,0.1,0.3,0l0.3-0.8c0.1-0.2,0.2-0.4,0.5-0.5l0.3-0.1c0.1-0.1,0.1-0.2,0-0.3L1027.6,1680z"/>
				<path fill="#C9CFCF" d="M1030.8,1675.9l0.8-0.2l0.2,0.8c0.1,0.5,0.6,0.9,1.2,0.8c0.5-0.1,0.9-0.6,0.8-1.2l-0.2-0.8l0.8-0.2
					c0.5-0.1,0.9-0.6,0.8-1.2c-0.1-0.5-0.6-0.9-1.2-0.8l-0.8,0.2l-0.2-0.8c-0.1-0.5-0.6-0.9-1.2-0.8c-0.5,0.1-0.9,0.6-0.8,1.2
					l0.2,0.8l-0.8,0.2c-0.5,0.1-0.9,0.6-0.8,1.2C1029.7,1675.6,1030.2,1676,1030.8,1675.9z"/>
			</g>
			<path fill="#C9CFCF" d="M1030.8,1675.9l0.8-0.2l1.6-2.3l-0.2-0.8c-0.1-0.5-0.6-0.9-1.2-0.8c-0.5,0.1-0.9,0.6-0.8,1.2l0.2,0.8
				l-0.8,0.2c-0.5,0.1-0.9,0.6-0.8,1.2C1029.7,1675.6,1030.2,1676,1030.8,1675.9z"/>
		</g>
		<g>
			<g>
				<path fill="#8DACC2" d="M192.7,1436.5c0-20.6,16.7-37.4,37.4-37.4c3.2,0,6.2,0.4,9.1,1.2c2.9-34.7,32-62,67.5-62
					c25.7,0,48.1,14.3,59.5,35.4c7.2-3.7,15.4-5.8,24.1-5.8c29.3,0,53,23.7,53,53c0,29.3-23.7,53-53,53H228.1l0.1-0.1
					C208.5,1472.7,192.7,1456.4,192.7,1436.5z"/>
				<path fill="#8DACC2" d="M1041.2,700.8c-5.4-0.4-10.6,0.3-15.4,1.8c-6.1-33.7-36.1-59.4-72.4-59.4c-27.5,0-51.5,14.8-64.1,36.7
					c-3.9-1.4-8.2-2.2-12.6-2.2c-15.3,0-28.4,9-34.2,21.8c-7.7-3.3-16.4-4.9-25.5-4.2c-24.8,2-45,21.3-47.6,45.5
					c0,0.3-0.1,0.5-0.1,0.8c-2,21.6,15.8,40.1,38,40.1h51.6H926h54.8h57.5c23.4,0,42.3-18.9,41.4-42
					C1079.1,719.3,1062.2,702.2,1041.2,700.8z"/>
				<g>
					<path fill="#E2E1E1" d="M220.7,207.7c-2.2-0.3-4.5-0.6-6.8-0.8c0,0-13,20-47.6,26.9c-34.6,6.9-54.3-6.6-54.3-6.6
						c-0.4,0.2-0.8,0.5-1.2,0.7l-2.2-7.3c34.7-4.7,72.7-10.6,112.7-18.2L220.7,207.7z"/>
					<g>
						<g>
							<path fill="#7BC5D7" d="M203.8,200.2c0,0-13,20-47.6,26.9c-34.6,6.9-54.3-6.6-54.3-6.6l-17.3,30.6l85.8,47l61.1-76.4
								L203.8,200.2z"/>
							<path fill="#C0E4F3" d="M203.8,200.2c0,0,7,50.8-40.9,60.4c-47.9,9.6-61-40-61-40C24.6,262.5-5.8,332.4-5.8,332.4
								c9.3,31.2,64.1,59.6,64.1,59.6l21.3-30l13.2,124.4l86.7,63.7c13.6,5.8,41.5,1.1,41.5,1.1s27.6-6.3,37.9-16.9l55.6-92.1
								l-35.6-119.9l31.2,19.5c0,0,39.7-47.3,36.3-79.7C346.3,262.1,291.3,209.2,203.8,200.2z"/>
							<path fill="#7BC5D7" d="M153.4,493c-33.1-24.9-60.6-6.5-60.6-6.5l86.7,63.7C179.5,550.2,187.5,518.7,153.4,493z"/>
							<g>
								<path fill="#7BC5D7" d="M64.7,383.2l9.5-13.3c-13.8-7.8-56-33.5-66.2-61.7c-3.6,5.6-6.4,10.4-8.6,14.3
									C9.8,350,50.3,375,64.7,383.2z"/>
							</g>
							<path fill="#7BC5D7" d="M261,471.5c21-35.7,53.5-29.3,53.5-29.3l-55.6,92.1C258.9,534.3,239.4,508.3,261,471.5z"/>
							<g>
								<path fill="#7BC5D7" d="M300.7,336l-13.9-8.7c9.8-12.5,38.8-52.4,37.5-82.4c5.5,3.7,10,7.1,13.4,9.9
									C338.7,284.3,310.9,322.9,300.7,336z"/>
							</g>
							<path fill="#7BC5D7" d="M166.2,276.8c-55.1,11-73.6-39.9-76.5-49.1c-3.7,2.3-7.2,4.6-10.7,7c6.5,17.3,30.1,66,89.6,54.1
								c59.5-11.9,62.6-65.9,61.9-84.4c-4.1-0.9-8.3-1.7-12.5-2.4C218.8,211.7,221.3,265.8,166.2,276.8z"/>
							<path fill="#F3A8C3" d="M202,325c-12,2.4-20.4,12.4-21.4,24l0,0l0,0c-5.3-10.3-17-16.3-29-13.9c-14.5,2.9-23.9,17-21,31.5
								c0.2,0.9,0.4,1.8,0.7,2.7c8.7,28.9,60.6,36.3,60.6,36.3s45.1-26.7,42-56.8c-0.1-0.9-0.2-1.8-0.4-2.7
								C230.6,331.5,216.5,322.1,202,325z"/>
						</g>
						<polygon fill="#8DACC2" points="223.7,175.8 213.9,173.4 209.3,212.1 214.7,213.4 220.1,214.7 233.6,178.2 						"/>
						<polygon fill="#8DACC2" points="82.8,196.5 73.5,200.6 93.1,234.2 98.2,231.9 103.3,229.7 92.1,192.5 						"/>
					</g>
					<path fill="#8DACC2" d="M-94.8,231.2l0-2.4c1.4,0,142.7-3.3,320.3-38.1c163.9-32.1,393.3-98.5,554.9-232.1l1.5,1.8
						c-162,133.9-391.8,200.4-556,232.6C48,227.8-93.4,231.1-94.8,231.2z"/>
				</g>
				<g>
					<path fill="#E2E1E1" d="M1182,1124.9l-13.4-28.2l-25.2-53.2c-7.5-15.8-26.6-22.7-42.8-15.3l-72.2,32.7
						c-16.1,7.3-23.2,26-15.7,41.8l33.4,70.6l0,0l5.1,10.8c7.5,15.8,26.6,22.7,42.8,15.3l72.2-32.7
						C1182.5,1159.4,1189.5,1140.7,1182,1124.9z"/>
					<g>
						<path fill="#95C7DB" d="M1094.5,1031.6l-72.2,32.7c-16.1,7.3-23.2,26-15.7,41.8l33.4,70.6c7.5,15.8,26.6,22.7,42.8,15.3
							l72.2-32.7c16.1-7.3,23.2-26,15.7-41.8l-33.4-70.6C1129.8,1031.2,1110.7,1024.3,1094.5,1031.6z"/>
						<path fill="#C0E4F3" d="M1089.4,1020.8l-72.2,32.7c-16.1,7.3-23.2,26-15.7,41.8l33.4,70.6c7.5,15.8,26.6,22.7,42.8,15.3
							l72.2-32.7c16.1-7.3,23.2-26,15.7-41.8l-33.4-70.6C1124.7,1020.3,1105.5,1013.5,1089.4,1020.8z"/>
						<g>
							<path fill="#95C7DB" d="M1107.3,1027.8c6.7,2.5,12.4,7.5,15.6,14.3l29.8,62.8c6.7,14,0.4,30.7-14,37.2l-64.2,29.1
								c-6,2.7-12.5,3.2-18.5,1.8c7,2.7,15.1,2.7,22.5-0.7l64.2-29.1c14.4-6.5,20.6-23.2,14-37.2l-29.8-62.8
								C1122.9,1035.1,1115.6,1029.7,1107.3,1027.8z"/>
							<path fill="#FFFFFF" d="M1046.6,1164.2l-31-65.4c-6.9-14.6-0.4-32,14.6-38.8l67-30.3c2.5-1.2,5.2-1.9,7.8-2.3
								c-5.3-0.8-10.9-0.1-16.2,2.3l-64.2,29.1c-14.4,6.5-20.6,23.2-14,37.2l29.8,62.8c2.3,4.9,6,8.9,10.3,11.6
								C1049.1,1168.5,1047.7,1166.5,1046.6,1164.2z"/>
						</g>
						<g>
							<path fill="#E97E9C" d="M1120.4,1099.5c1,2.2,1.6,4.7,1.7,7.7c0.1,3-0.4,6.2-1.6,9.7c-1.2,3.5-3.2,6.8-6.1,9.9
								c-2.9,3.2-6.8,5.8-11.6,8c-3.7,1.7-7.1,2.8-10.5,3.5c-3.3,0.7-6.5,0.9-9.7,0.5c-3.1-0.3-6.3-1.2-9.4-2.6
								c-2.8-1.3-5.5-3-8.1-5c-2.5-2-4.8-4.4-6.9-7.1c-2.1-2.7-3.9-5.7-5.5-9.1c-2.6-5.5-4.1-10.7-4.5-15.8c-0.4-5,0.2-9.8,1.7-14.2
								c1.6-4.4,4-8.4,7.3-11.8c3.3-3.4,7.3-6.2,11.9-8.3c5.6-2.5,11.1-3.7,16.5-3.5c5.4,0.2,10.1,1.4,13.9,3.6
								c3.9,2.2,6.5,4.7,7.8,7.5c0.7,1.6,0.8,3.2,0.3,4.9c-0.6,1.7-1.7,2.9-3.3,3.7c-1.8,0.8-3.3,1-4.6,0.6c-1.3-0.4-3-1.4-5-2.9
								c-3.4-2.5-6.8-4.1-10-4.6c-3.3-0.5-6.7,0-10.3,1.6c-5.8,2.6-9.3,6.8-10.7,12.7c-1.4,5.8-0.2,12.7,3.5,20.6
								c2.5,5.3,5.3,9.3,8.5,12.1c3.2,2.8,6.6,4.5,10.1,4.9c3.6,0.5,7.2-0.1,11-1.8c4-1.8,7-4.4,8.8-7.6c1.9-3.2,2.6-7,2.2-11.5
								c-0.2-2.1-0.2-3.8,0.2-5.4c0.3-1.5,1.5-2.7,3.5-3.6c1.7-0.8,3.4-0.8,5.1-0.2C1118.3,1096.7,1119.5,1097.8,1120.4,1099.5z"/>
						</g>
					</g>
				</g>
				<g>
					<path fill="#8DACC2" d="M1062.2,972.6c0-129.7-104.7-234.9-233.8-234.9c-5.3,0-10.5,0.2-15.7,0.5
						C783.3,658.7,696.8,601,594.6,601c-102.2,0-188.7,57.7-218.1,137.2c-5.2-0.3-10.4-0.5-15.7-0.5
						c-129.1,0-233.8,105.2-233.8,234.9c0,39.2,9.6,76.1,26.4,108.6c-16.9,32.5-26.4,69.4-26.4,108.6
						c0,129.7,104.7,234.9,233.8,234.9c5.3,0,10.6-0.2,15.8-0.5c29.5,79.4,115.9,136.9,218,136.9c102.1,0,188.5-57.5,218-136.9
						c5.2,0.4,10.5,0.5,15.8,0.5c129.1,0,233.8-105.2,233.8-234.9c0-39.2-9.6-76.1-26.4-108.6
						C1052.7,1048.7,1062.2,1011.8,1062.2,972.6z"/>
					<path fill="#FFFFFF" d="M594.6,1534.7c-88.7,0-166.1-48.1-192.7-119.6l-6.9-18.6l-20.2,1.4c-4.8,0.3-9.5,0.5-14,0.5
						c-114.1,0-206.9-93.6-206.9-208.6c0-34.1,7.9-66.6,23.5-96.6l6.2-11.9l-6.2-11.9c-15.6-30-23.5-62.5-23.5-96.6
						c0-115,92.8-208.6,206.9-208.6c4.4,0,9.1,0.2,13.9,0.5l20.3,1.3l6.9-18.7c26.5-71.7,104-119.9,192.8-119.9
						s166.3,48.2,192.8,119.9l6.9,18.7l20.3-1.3c4.8-0.3,9.4-0.5,13.9-0.5c114.1,0,206.9,93.6,206.9,208.6
						c0,34.1-7.9,66.6-23.5,96.6l-6.2,11.9l6.2,11.9c15.6,30,23.5,62.5,23.5,96.6c0,115-92.8,208.6-206.9,208.6
						c-4.5,0-9.2-0.2-14-0.5l-20.2-1.4l-6.9,18.6C760.7,1486.6,683.2,1534.7,594.6,1534.7z"/>
					<path fill="#8DACC2" d="M594.6,1522.8c-4.5,0-9.1-0.1-13.5-0.4l0.2-2.6c4.4,0.3,8.9,0.4,13.4,0.4V1522.8z M605.1,1522.6
						l-0.1-2.6c4.5-0.2,8.9-0.5,13.3-1l0.3,2.6C614.2,1522.1,609.7,1522.4,605.1,1522.6z M567.6,1521.3c-4.4-0.5-8.9-1.2-13.4-2
						l0.5-2.6c4.4,0.8,8.8,1.4,13.2,2L567.6,1521.3z M632.1,1519.8l-0.5-2.6c4.4-0.7,8.8-1.6,13.1-2.6l0.6,2.6
						C641,1518.2,636.5,1519,632.1,1519.8z M540.9,1516.5c-4.4-1.1-8.7-2.3-13-3.6l0.8-2.5c4.2,1.3,8.6,2.5,12.9,3.6L540.9,1516.5z
						 M658.4,1513.7l-0.8-2.5c4.2-1.3,8.5-2.7,12.7-4.2l0.9,2.5C667,1511,662.7,1512.4,658.4,1513.7z M515.1,1508.4
						c-4.2-1.6-8.4-3.4-12.4-5.2l1.1-2.4c4,1.8,8.1,3.6,12.3,5.2L515.1,1508.4z M683.8,1504.4l-1.1-2.4c4.1-1.8,8.1-3.8,12-5.8
						l1.3,2.3C692,1500.6,687.9,1502.6,683.8,1504.4z M490.6,1497.1c-4-2.2-7.9-4.5-11.6-6.9l1.5-2.2c3.7,2.4,7.5,4.6,11.4,6.8
						L490.6,1497.1z M707.6,1491.8l-1.4-2.2c3.8-2.3,7.5-4.8,11-7.4l1.6,2.1C715.2,1486.9,711.4,1489.4,707.6,1491.8z M468,1482.6
						c-3.6-2.7-7.1-5.5-10.4-8.5l1.8-2c3.3,2.9,6.7,5.7,10.3,8.3L468,1482.6z M729.4,1476l-1.8-2c3.4-2.8,6.7-5.8,9.8-8.9l1.9,1.9
						C736.1,1470.1,732.8,1473.1,729.4,1476z M447.8,1464.9c-3.1-3.2-6.2-6.6-9-10l2.1-1.7c2.8,3.3,5.7,6.6,8.8,9.8L447.8,1464.9z
						 M748.4,1457.2l-2.1-1.7c2.9-3.3,5.6-6.8,8.2-10.3l2.2,1.5C754.1,1450.3,751.4,1453.8,748.4,1457.2z M430.7,1444.3
						c-2.5-3.7-5-7.5-7.1-11.3l2.3-1.3c2.2,3.8,4.5,7.5,7,11.1L430.7,1444.3z M764.1,1435.6l-2.3-1.3c2.2-3.7,4.3-7.6,6.2-11.5
						l2.4,1.1C768.5,1427.8,766.4,1431.7,764.1,1435.6z M417.5,1421.2c-1.5-3.3-2.9-6.7-4.2-10.1l-0.8-2.2l2.5-0.9l0.8,2.2
						c1.2,3.3,2.6,6.7,4.1,9.9L417.5,1421.2z M775.7,1411.6l-2.5-0.9l4.6-12.4l2.5,0.9L775.7,1411.6z M407.9,1396.5l-4.6-12.4
						l2.5-0.9l4.6,12.4L407.9,1396.5z M784.9,1386.8l-2.5-0.9l1.7-4.7l10.4,0.7l-0.2,2.6l-8.4-0.6L784.9,1386.8z M360.8,1386.5
						c-3.1,0-6.3-0.1-9.3-0.2l0.1-2.6c4.4,0.2,8.8,0.3,13.4,0.2l0.1,2.6C363.5,1386.5,362.1,1386.5,360.8,1386.5z M834.8,1386.4
						l-0.1-2.6c4.4-0.1,8.9-0.4,13.3-0.9l0.3,2.6C843.8,1385.9,839.3,1386.2,834.8,1386.4z M821.2,1386.3c-2-0.1-3.9-0.2-6-0.3
						l-7.5-0.5l0.2-2.6l7.5,0.5c2,0.1,3.9,0.2,5.9,0.3L821.2,1386.3z M378.5,1385.7l-0.2-2.6l13.4-0.9l0.2,2.6L378.5,1385.7z
						 M337.9,1385.1c-4.5-0.5-9-1.2-13.4-2.1l0.5-2.6c4.4,0.8,8.8,1.5,13.2,2L337.9,1385.1z M861.7,1383.6l-0.5-2.6
						c4.4-0.8,8.8-1.7,13.1-2.8l0.7,2.6C870.6,1381.9,866.1,1382.8,861.7,1383.6z M311.3,1380.1c-4.3-1.2-8.7-2.5-13-3.9l0.9-2.5
						c4.2,1.4,8.5,2.7,12.8,3.9L311.3,1380.1z M888,1377.1l-0.8-2.5c4.2-1.4,8.4-2.9,12.5-4.6l1,2.4
						C896.5,1374.1,892.2,1375.7,888,1377.1z M285.7,1371.3c-4.1-1.7-8.2-3.7-12.2-5.7l1.2-2.3c3.9,2,8,3.9,12.1,5.6L285.7,1371.3z
						 M913,1367l-1.2-2.4c4-1.9,7.9-4,11.7-6.2l1.4,2.3C921,1362.9,917,1365,913,1367z M261.7,1359.1c-3.8-2.3-7.6-4.8-11.3-7.3
						l1.6-2.1c3.6,2.5,7.4,4.9,11.1,7.2L261.7,1359.1z M936.3,1353.5l-1.5-2.2c3.6-2.5,7.3-5.1,10.7-7.8l1.7,2.1
						C943.6,1348.3,940,1351,936.3,1353.5z M239.6,1343.7c-3.5-2.8-6.9-5.7-10.2-8.8l1.8-1.9c3.2,3,6.6,5.9,10,8.6L239.6,1343.7z
						 M957.4,1337l-1.8-1.9c3.3-2.9,6.5-6,9.5-9.2l1.9,1.8C964,1330.9,960.8,1334,957.4,1337z M220,1325.5c-3-3.2-6-6.6-8.9-10
						l2.1-1.7c2.8,3.4,5.7,6.7,8.7,9.9L220,1325.5z M976.1,1317.8l-2.1-1.7c2.8-3.3,5.6-6.8,8.2-10.3l2.2,1.5
						C981.8,1310.9,979,1314.4,976.1,1317.8z M203,1304.9c-2.6-3.6-5.1-7.3-7.4-11.1l2.3-1.4c2.3,3.7,4.8,7.4,7.3,10.9L203,1304.9z
						 M992,1296.3l-2.3-1.4c2.4-3.7,4.6-7.5,6.7-11.3l2.4,1.2C996.7,1288.8,994.4,1292.6,992,1296.3z M188.9,1282.3
						c-2.1-3.9-4-7.9-5.8-11.9l2.5-1.1c1.8,4,3.7,7.9,5.7,11.8L188.9,1282.3z M1004.9,1273l-2.5-1.1c1.8-4,3.6-8,5.1-12.1l2.5,0.9
						C1008.5,1264.9,1006.7,1269,1004.9,1273z M178.1,1258.1c-1.5-4.1-2.9-8.4-4.2-12.6l2.6-0.7c1.2,4.2,2.6,8.3,4.1,12.4
						L178.1,1258.1z M1014.4,1248.2l-2.6-0.8c1.3-4.2,2.4-8.4,3.4-12.6l2.6,0.6C1016.9,1239.7,1015.7,1244,1014.4,1248.2z
						 M170.7,1232.6c-1-4.3-1.8-8.7-2.4-13l2.7-0.4c0.6,4.3,1.5,8.6,2.4,12.9L170.7,1232.6z M1020.5,1222.4l-2.7-0.4
						c0.7-4.3,1.3-8.6,1.7-13l2.7,0.3C1021.8,1213.7,1021.2,1218.1,1020.5,1222.4z M166.7,1206.5c-0.4-4.4-0.6-8.8-0.7-13.2l2.7,0
						c0.1,4.3,0.3,8.7,0.7,13.1L166.7,1206.5z M1023.1,1196.1l-2.7-0.1c0.1-2.1,0.1-4.2,0.1-6.3c0-2.3,0-4.6-0.1-6.8l2.7-0.1
						c0.1,2.3,0.1,4.6,0.1,6.9C1023.2,1191.9,1023.1,1194,1023.1,1196.1z M168.9,1180.1l-2.7-0.1c0.2-4.4,0.6-8.9,1.1-13.2l2.7,0.3
						C169.5,1171.4,169.1,1175.7,168.9,1180.1z M1019.5,1169.9c-0.4-4.3-1-8.7-1.7-13l2.7-0.4c0.7,4.3,1.3,8.7,1.7,13.1
						L1019.5,1169.9z M171.9,1154.1l-2.7-0.5c0.8-4.3,1.7-8.7,2.8-13l2.6,0.6C173.6,1145.6,172.7,1149.9,171.9,1154.1z
						 M1015.2,1144.1c-1-4.2-2.2-8.5-3.5-12.6l2.6-0.8c1.3,4.2,2.5,8.5,3.5,12.8L1015.2,1144.1z M178.3,1128.8l-2.6-0.8
						c1.4-4.2,2.9-8.4,4.6-12.5l2.5,1C181.2,1120.5,179.7,1124.7,178.3,1128.8z M1007.4,1119.1c-1.6-4.1-3.3-8.1-5.2-12.1l2.4-1.1
						c1.9,4,3.6,8.1,5.2,12.2L1007.4,1119.1z M188.2,1104.5l-2.4-1.1c0.8-1.6,1.6-3.3,2.5-4.9l3.6-6.9l2.4,1.2l-3.6,6.9
						C189.8,1101.3,188.9,1102.9,188.2,1104.5z M996.3,1095.3l-6.1-11.7l2.4-1.2l6.1,11.7L996.3,1095.3z M197.1,1081l-6.1-11.7
						l2.4-1.2l6.1,11.7L197.1,1081z M996.9,1071.8l-2.4-1.2l4.1-7.9c0.7-1.3,1.3-2.5,1.9-3.8l2.4,1.1c-0.6,1.3-1.3,2.6-1.9,3.8
						L996.9,1071.8z M185,1057.5c-1.9-4-3.7-8.1-5.3-12.2l2.5-0.9c1.6,4,3.4,8.1,5.2,12L185,1057.5z M1008.4,1047.9l-2.5-1
						c1.7-4,3.2-8.2,4.6-12.3l2.6,0.8C1011.7,1039.7,1010.1,1043.8,1008.4,1047.9z M175.2,1032.8c-1.3-4.2-2.5-8.5-3.6-12.8l2.6-0.6
						c1,4.2,2.2,8.5,3.5,12.6L175.2,1032.8z M1016.8,1022.8l-2.6-0.7c1.1-4.2,2.1-8.5,2.9-12.8l2.7,0.5
						C1018.9,1014.2,1017.9,1018.5,1016.8,1022.8z M168.9,1007c-0.7-4.3-1.4-8.7-1.8-13.1l2.7-0.3c0.5,4.3,1.1,8.7,1.8,12.9
						L168.9,1007z M1021.7,996.7l-2.7-0.3c0.5-4.3,0.9-8.7,1.1-13l2.7,0.1C1022.7,988,1022.3,992.4,1021.7,996.7z M166.2,980.7
						c-0.1-2.7-0.2-5.4-0.2-8.1c0-1.7,0-3.4,0.1-5.1l2.7,0.1c0,1.7-0.1,3.4-0.1,5.1c0,2.7,0.1,5.3,0.2,8L166.2,980.7z M1020.5,970.3
						c0-4.3-0.2-8.7-0.6-13.1l2.7-0.2c0.3,4.4,0.5,8.8,0.6,13.2L1020.5,970.3z M169.5,954.5l-2.7-0.2c0.4-4.4,1-8.8,1.7-13.1
						l2.7,0.4C170.5,945.8,169.9,950.2,169.5,954.5z M1018.4,944.3c-0.6-4.3-1.4-8.6-2.3-12.9l2.6-0.5c0.9,4.3,1.7,8.7,2.3,13
						L1018.4,944.3z M173.6,928.7l-2.6-0.6c1-4.3,2.1-8.6,3.4-12.8l2.6,0.7C175.7,920.2,174.6,924.4,173.6,928.7z M1013,918.7
						c-1.2-4.2-2.6-8.4-4-12.5l2.5-0.9c1.5,4.2,2.9,8.4,4.1,12.6L1013,918.7z M181.2,903.6l-2.5-0.9c1.6-4.1,3.3-8.3,5.1-12.3
						l2.5,1.1C184.5,895.5,182.8,899.5,181.2,903.6z M1004.1,894.1c-1.8-4-3.7-8-5.7-11.8l2.4-1.2c2,3.9,4,7.9,5.7,12L1004.1,894.1z
						 M192.1,879.7l-2.4-1.2c2.1-3.9,4.4-7.8,6.7-11.5l2.3,1.4C196.4,872.1,194.2,875.9,192.1,879.7z M991.9,870.9
						c-2.3-3.7-4.7-7.4-7.2-11l2.2-1.5c2.6,3.6,5,7.4,7.3,11.1L991.9,870.9z M206.2,857.5L204,856c2.6-3.6,5.4-7.1,8.3-10.5l2.1,1.7
						C211.5,850.5,208.8,854,206.2,857.5z M976.7,849.4c-2.8-3.4-5.7-6.7-8.7-9.9l2-1.8c3,3.2,6,6.6,8.8,10.1L976.7,849.4z
						 M223.2,837.3l-2-1.8c3.1-3.2,6.3-6.3,9.6-9.3l1.8,1.9C229.4,831,226.2,834.1,223.2,837.3z M958.7,830.1c-3.2-3-6.6-5.9-10-8.7
						l1.7-2c3.4,2.8,6.8,5.8,10.1,8.8L958.7,830.1z M242.8,819.5l-1.7-2c3.5-2.8,7.1-5.4,10.8-8l1.5,2.2
						C249.8,814.2,246.2,816.8,242.8,819.5z M938.2,813.4c-3.6-2.5-7.3-5-11.1-7.3l1.4-2.2c3.8,2.3,7.6,4.8,11.3,7.4L938.2,813.4z
						 M264.7,804.6l-1.4-2.3c3.9-2.3,7.8-4.4,11.9-6.4l1.2,2.3C272.4,800.2,268.5,802.4,264.7,804.6z M915.5,799.6
						c-3.9-2-8-3.9-12-5.7l1.1-2.4c4.1,1.8,8.2,3.7,12.2,5.8L915.5,799.6z M288.5,792.8l-1-2.4c4.1-1.7,8.4-3.3,12.7-4.7l0.9,2.5
						C296.7,789.5,292.5,791.1,288.5,792.8z M891,789.1c-4.2-1.5-8.5-2.8-12.7-4l0.7-2.5c4.3,1.2,8.7,2.5,12.9,4L891,789.1z
						 M313.7,784.4l-0.7-2.5c4.4-1.1,8.8-2.1,13.2-2.9l0.5,2.6C322.4,782.3,318,783.3,313.7,784.4z M865.3,782.1
						c-4.3-0.9-8.8-1.6-13.2-2.1l0.3-2.6c4.5,0.6,9,1.3,13.4,2.2L865.3,782.1z M784.2,781l-0.4-0.9l-4.6-12.3l2.5-0.9l4.6,12.3
						l-1.2,0.4l0.1,1.3L784.2,781z M405,781l-11.5-0.8l0.2-2.6l9.5,0.6l0.6-1.7l2.5,0.9L405,781z M798.7,780.1l-0.2-2.6l13.4-0.9
						l0.2,2.6L798.7,780.1z M340,779.6l-0.3-2.6c4.5-0.5,9-0.8,13.5-1l0.1,2.6C348.9,778.8,344.4,779.1,340,779.6z M380,779.4
						l-6.4-0.4c-2.4-0.2-4.7-0.3-7-0.3l0.1-2.6c2.3,0.1,4.7,0.2,7.1,0.3l6.4,0.4L380,779.4z M838.8,778.8c-4.4-0.2-8.8-0.3-13.4-0.3
						l0-2.6c4.6-0.1,9.1,0,13.6,0.3L838.8,778.8z M410.9,765l-2.5-0.9l4.6-12.4l2.5,0.9L410.9,765z M774.7,755.4l-1.2-3.3
						c-1.1-3-2.3-6-3.6-8.9l2.5-1.1c1.3,3,2.6,6,3.7,9l1.2,3.3L774.7,755.4z M420.5,740.6l-2.4-1.1c1.9-4,4-8,6.2-11.8l2.3,1.3
						C424.5,732.8,422.4,736.7,420.5,740.6z M763.9,731.5c-2.1-3.8-4.4-7.5-6.9-11.2l2.2-1.5c2.5,3.7,4.9,7.5,7,11.3L763.9,731.5z
						 M433.8,718l-2.2-1.5c2.6-3.6,5.3-7.2,8.2-10.6l2.1,1.7C439,711,436.3,714.5,433.8,718z M749.2,709.8c-2.7-3.4-5.7-6.7-8.7-9.9
						l2-1.8c3.1,3.2,6.1,6.6,8.9,10L749.2,709.8z M450.8,697.9l-1.9-1.8c3.1-3.1,6.4-6.2,9.8-9.1l1.8,2
						C457.1,691.8,453.8,694.8,450.8,697.9z M730.9,690.8c-3.3-2.9-6.7-5.7-10.2-8.4l1.7-2.1c3.6,2.7,7.1,5.6,10.4,8.5L730.9,690.8z
						 M470.8,680.6l-1.6-2.1c3.6-2.6,7.3-5.2,11.1-7.6l1.5,2.2C478,675.5,474.3,678.1,470.8,680.6z M709.9,674.8
						c-3.7-2.4-7.5-4.7-11.4-6.9l1.3-2.3c3.9,2.2,7.8,4.5,11.5,7L709.9,674.8z M493.2,666.5l-1.3-2.3c3.9-2.1,8-4.1,12.1-6l1.1,2.4
						C501.1,662.4,497.1,664.4,493.2,666.5z M686.7,661.8c-4-1.9-8.1-3.6-12.2-5.3l1-2.4c4.2,1.6,8.4,3.4,12.4,5.3L686.7,661.8z
						 M517.5,655.5l-1-2.5c4.2-1.6,8.5-3,12.8-4.3l0.8,2.5C525.9,652.5,521.6,654,517.5,655.5z M661.9,652.1
						c-4.2-1.3-8.5-2.6-12.8-3.7l0.7-2.5c4.4,1.1,8.7,2.3,13,3.7L661.9,652.1z M543,647.8l-0.6-2.6c4.3-1,8.8-1.9,13.3-2.7l0.5,2.6
						C551.7,645.8,547.3,646.7,543,647.8z M636,645.6c-4.4-0.8-8.8-1.5-13.2-2.1l0.3-2.6c4.5,0.6,9,1.3,13.4,2.1L636,645.6z
						 M569.4,643.2l-0.3-2.6c4.5-0.5,9-0.9,13.5-1.1l0.1,2.6C578.2,642.3,573.8,642.7,569.4,643.2z M609.4,642.3
						c-4.4-0.3-8.9-0.4-13.4-0.5l0-2.6c4.5,0,9.1,0.2,13.5,0.5L609.4,642.3z"/>
				</g>
				<g>
					<path fill="#E2E1E1" d="M957.6,837.2l25.2,12.2c4.5,2.2,9.7,2.9,14.6,1.5c0.5-0.1,1-0.3,1.5-0.5l71.3,34.5
						c5,2.4,10.5,3.5,16,3.2c11.4-0.7,21.7-7.3,26.7-17.3c7.8-15.4,1.3-34.2-14.5-41.8c0,0,0,0,0,0l-71.2-34.4
						c-0.2-0.5-0.3-1.1-0.5-1.6c-1.1-2.9-3-5.4-5.4-7.4c-0.9-0.8-2-1.5-3-2.2c-0.5-0.3-1.1-0.6-1.7-0.9l-25.2-12.2
						c-7.1-3.4-14.7-4.5-22-3.5c-8.4,1.1-16.4,5-22.4,11.1c0,0-0.1,0.1-0.1,0.1c-0.1,0.1-0.2,0.3-0.3,0.4c-1.3,1.4-2.5,2.9-3.7,4.6
						c-0.9,1.4-1.8,2.8-2.6,4.3c-0.1,0.3-0.2,0.5-0.3,0.8l0,0C931.2,806.3,939,828.2,957.6,837.2z M1095.4,834.9
						c12.4,6,17.6,20.8,11.4,33c-4,7.9-12.1,13.1-21.1,13.7c-4.3,0.3-8.7-0.6-12.6-2.5c-12.4-6-17.5-20.8-11.4-33
						c4-7.9,12.1-13.1,21.1-13.7C1087.1,832.1,1091.5,833,1095.4,834.9z M1026.5,803.8c0.3-0.6,0.6-1.3,0.7-1.9l50.6,24.4
						c-9.5,1.9-17.8,8.1-22.2,16.7c-4.5,9-4.2,19-0.1,27.4L1005,846c0.4-0.6,0.8-1.1,1.1-1.8c1.4-2.7,2.2-5.3,2.4-7.8l0,0
						c0,0,0,0,0,0c0.1-1.5,0-2.9-0.3-4.3c0,0,0-0.1,0-0.1c-0.3-1.3-0.9-2.6-1.7-3.8c0-0.1-0.1-0.1-0.1-0.2c-0.4-0.5-0.8-1-1.2-1.5
						c-0.1-0.1-0.1-0.2-0.2-0.3c-0.5-0.5-1.1-1-1.7-1.5c-0.1-0.1-0.2-0.1-0.3-0.2c-0.5-0.4-1.1-0.8-1.7-1.2
						c-0.2-0.1-0.4-0.2-0.6-0.3c-0.7-0.4-1.5-0.9-2.3-1.3c0,0-2.9-2-12.1,0.8c-2.3,0.7-4.8,0.6-7-0.2c-0.9-0.3-1.8-0.7-2.6-1.3
						c-0.7-0.4-1.4-0.9-2-1.5c-0.9-0.8-1.7-1.8-2.4-2.8c-2.3-3.7-2.9-8.7-0.2-14.1c3.5-6.9,9.7-9.2,15.1-8.3
						c4.3,0.7,8.1,3.4,9.6,7.3c3.4,8.9,6.7,9.9,6.7,9.9c2,0.9,3.8,1.6,5.6,2c0.6,0.1,1.2,0.2,1.7,0.3c1.1,0.1,2.2,0.1,3.2,0
						c0.5-0.1,1.1-0.1,1.6-0.3c0.5-0.1,1-0.3,1.5-0.4C1021,811.8,1024.1,808.6,1026.5,803.8z"/>
					<g>
						<path fill="#C0E4F3" d="M987.7,835.7l56.6,27.4c-4.1-8.4-4.4-18.4,0.1-27.4c4.4-8.7,12.6-14.8,22.2-16.7l-56.6-27.4l3-5.9
							l74.1,35.9c0,0,0,0,0,0c15.8,7.6,22.3,26.4,14.5,41.8c-5.1,10-15.3,16.7-26.7,17.3c-5.5,0.3-11.1-0.8-16-3.2l-74.2-35.9
							L987.7,835.7z M1074.5,874.1c9-0.5,17.1-5.8,21.1-13.7c6.2-12.2,1-26.9-11.4-33c-3.9-1.9-8.3-2.8-12.6-2.5
							c-9,0.5-17.1,5.8-21.1,13.7c-6.2,12.2-1,26.9,11.4,33C1065.8,873.5,1070.1,874.4,1074.5,874.1z"/>
						<path fill="#F8D061" d="M929.1,779.9c9.3-18.5,32.2-26,51.1-16.9l25.2,12.2c4.5,2.2,8.2,5.8,10.1,10.4c1.3,3.2,1.8,7-0.2,10.8
							c-4.8,9.5-12.5,12.8-23,7.7c0,0-3.4-1-6.7-9.9c-3.4-8.9-18.4-11.5-24.7,1c-6.3,12.5,4.9,22.6,14.2,19.8
							c9.3-2.8,12.1-0.8,12.1-0.8c10.4,5,12.5,13,7.7,22.5c-1.9,3.8-5.3,5.8-8.7,6.7c-4.8,1.4-10.1,0.7-14.6-1.5l-25.2-12.2
							C927.5,820.7,919.7,798.4,929.1,779.9z"/>
						<path fill="#F9E97A" d="M928.7,781.1c0-0.1,0-0.3,0-0.4c0.1-0.3,0.2-0.5,0.3-0.8c9.3-18.5,32.2-26,51.1-16.9l25.2,12.2
							c4.5,2.2,8.2,5.8,10.1,10.4c1.3,3.2,1.8,7-0.2,10.8c-4.8,9.5-12.5,12.8-23,7.7c0,0-3.4-1-6.7-9.9c-3.4-8.9-18.4-11.5-24.7,1
							c-6.3,12.5,4.9,22.6,14.2,19.8c9.3-2.8,12.1-0.8,12.1-0.8c7.4,3.6,10.6,8.7,10.1,14.7c-3.6,1-7.3,1.6-11.1,1.8
							C956.2,832.6,930.5,810.3,928.7,781.1z"/>
					</g>
				</g>
				<g>
					<path fill="#E2E1E1" d="M1034.5,1371.1l-74.7-26.8c-16.7-6-35.2,2.4-41.3,18.7l-23.1,61.5l-8.6,22.8
						c-6.1,16.3,2.4,34.4,19.2,40.4l74.7,26.8c16.7,6,35.2-2.4,41.3-18.7l4.2-11.2c0,0,0,0,0,0l20.2-53.7l3-8.1v0l4.2-11.2
						C1059.7,1395.2,1051.2,1377.1,1034.5,1371.1z"/>
					<g>
						<path fill="#E97E9C" d="M1019,1374.9l-74.7-26.8c-16.7-6-35.2,2.4-41.3,18.7l-27.4,73c-6.1,16.3,2.4,34.4,19.2,40.4l74.7,26.8
							c16.7,6,35.2-2.4,41.4-18.7l27.4-73C1044.3,1399,1035.7,1380.9,1019,1374.9z"/>
						<path fill="#F3A8C3" d="M1023.2,1363.7l-74.7-26.8c-16.7-6-35.2,2.4-41.3,18.7l-27.4,73c-6.1,16.3,2.4,34.4,19.2,40.4
							l74.7,26.8c16.7,6,35.2-2.4,41.3-18.7l27.4-73C1048.5,1387.8,1039.9,1369.7,1023.2,1363.7z"/>
						<g>
							<path fill="#E97E9C" d="M1030.8,1381c2.9,6.4,3.3,13.8,0.7,20.9l-24.4,65c-5.5,14.5-21.9,22-36.8,16.7l-66.5-23.8
								c-6.2-2.2-11.2-6.4-14.4-11.5c3,6.7,8.7,12.3,16.4,15.1l66.5,23.8c14.9,5.3,31.3-2.1,36.8-16.7l24.4-65
								C1036.5,1397.1,1035.3,1388.1,1030.8,1381z"/>
							<path fill="#FFFFFF" d="M889.2,1435.6l25.4-67.7c5.7-15.1,22.8-22.9,38.3-17.4l69.3,24.8c2.6,0.9,5,2.2,7.2,3.8
								c-3.2-4.2-7.7-7.6-13.1-9.6l-66.5-23.8c-14.9-5.3-31.3,2.1-36.8,16.7l-24.4,65c-1.9,5.1-2.2,10.4-1.1,15.4
								C887.8,1440.3,888.3,1437.9,889.2,1435.6z"/>
						</g>
						<g>
							<g>
								<path fill="#C0E4F3" d="M948.8,1451.8l-21.9-7.9c-3.2-1.1-5.2-2.6-6-4.5c-0.8-1.9-0.7-4.3,0.5-7.4l19.8-52.7
									c1.2-3.1,2.7-5.1,4.6-5.9c1.9-0.9,4.4-0.7,7.5,0.4l23.2,8.3c3.4,1.2,6.3,2.5,8.7,3.8c2.4,1.3,4.3,2.9,5.9,4.8
									c1.3,1.6,2.4,3.4,3.1,5.4c0.7,2,1.1,4,1.1,6.1c0,2.1-0.4,4.1-1.2,6.2c-2.6,7-8.1,10.9-16.5,11.5c8.3,6.3,10.9,13.7,7.7,22.2
									c-1.5,3.9-3.8,7.1-7.1,9.5c-3.2,2.4-6.9,3.7-10.9,4c-2.5,0.1-5.3-0.2-8.2-0.8C956,1454.2,952.6,1453.2,948.8,1451.8z
									 M954.9,1386.6l-6.8,18.1l13.3,4.8c3.6,1.3,6.5,2,8.8,2c2.2,0,4.2-0.7,6-2.2c1.3-1,2.3-2.4,2.9-4.1c1.3-3.5,0.9-6.4-1.2-8.4
									c-2.1-2.1-5.9-4.1-11.1-6L954.9,1386.6z M959.4,1420.3l-15.1-5.4l-7.7,20.5l15.6,5.6c9.8,3.5,16,1.8,18.6-5.1
									c1.3-3.5,1-6.6-0.9-9.1C968,1424.3,964.5,1422.1,959.4,1420.3z"/>
							</g>
						</g>
					</g>
				</g>
				<g>
					<path fill="#E2E1E1" d="M701.7,1260.6c-15.1,0-28.5,7.5-36.4,18.9c-15.6-8.5-33.5-13.4-52.5-13.5c-21.1-0.2-40.8,5.5-57.6,15.4
						c-7.9-12.2-21.7-20.3-37.6-20.3c-24.5,0.1-44.3,19.5-44.2,43.4c0,19.8,13.7,36.4,32.2,41.5c-2.3,8.5-3.5,17.4-3.6,26.5
						c-0.3,39.9,21.6,74.8,54.5,93.6c-16.8,3.3-33.5,17.5-44.8,27.6c-11.3,10-27.2,27.1-17.5,42.9c8.7,14.1,25.2,6.8,41.6-6.5
						c-1.9,7.8-3.3,15.5-3.7,23c-11.4,7.6-15.8,24.8-9.8,41.4c6.9,19.1,24.9,30.4,40.2,25.1c4.6-1.6,8.4-4.5,11.4-8.3
						c0.3,0.1,0.6,0.1,0.8,0.2c0.5,0.1,1,0.2,1.5,0.3c1.3,0.3,2.7,0.6,4,0.8c0.6,0.1,1.2,0.2,1.8,0.3c1.3,0.2,2.7,0.4,4.1,0.6
						c0.7,0.1,1.4,0.2,2.1,0.2c1.4,0.2,2.9,0.3,4.4,0.4c0.7,0.1,1.5,0.1,2.2,0.2c1.6,0.1,3.2,0.1,4.9,0.2c0.7,0,1.4,0.1,2.1,0.1
						c2.4,0,4.8,0,7.4,0c2.5-0.1,5-0.2,7.4-0.3c0.7,0,1.4-0.1,2.1-0.2c1.6-0.1,3.3-0.3,4.8-0.4c0.8-0.1,1.5-0.2,2.2-0.3
						c1.5-0.2,2.9-0.4,4.3-0.6c0.7-0.1,1.4-0.2,2.1-0.3c1.4-0.2,2.8-0.5,4.1-0.8c0.6-0.1,1.2-0.3,1.8-0.4c1.4-0.3,2.7-0.6,4-1
						c0.5-0.1,1-0.3,1.5-0.4c1.4-0.4,2.7-0.8,4-1.3c0.4-0.1,0.7-0.2,1.1-0.4c0.5-0.2,1.1-0.4,1.6-0.6c3.3,4.6,7.7,8,13.2,9.6
						c15.6,4.5,33-7.5,38.9-27c5.9-19.4-1.8-38.9-17.4-43.4c-0.7-0.2-1.4-0.3-2-0.5c-0.9-6.6-2.5-13.4-4.6-20.1
						c17.9,16.5,37.1,27.7,47.1,12.1c10-15.7-5.6-33-16.8-43.2c-10.9-10-26.8-24-43.1-28c33.5-18.2,56.2-53,56.6-93.1
						c0.1-10.4-1.4-20.4-4.1-29.9c16.7-6.3,28.5-22,28.4-40.5C746.1,1279.8,726.2,1260.5,701.7,1260.6z"/>
					<g>
						<g>
							<path fill="#D4A078" d="M620.2,1431.4l-26.6,5.9l-26.8-4.6c0,0-122.3,178.2,31,174.6C751.2,1603.7,620.2,1431.4,620.2,1431.4
								z"/>
							<path fill="#F2D7AC" d="M595.5,1515c-27.1,0.6-48.4,33.2-47.4,72.8c0.1,4,0.4,7.8,0.9,11.6c11.7,5.5,27.6,8.4,48.7,7.9
								c21.1-0.5,36.8-4.2,48.3-10.2c0.3-3.8,0.5-7.7,0.4-11.7C645.5,1545.9,622.7,1514.3,595.5,1515z"/>
							<g>
								<path fill="#E4AB80" d="M566.4,1568.2c6.9,19.1,0.1,38.9-15.2,44.2c-15.3,5.3-33.3-6-40.2-25.1
									c-6.9-19.1-0.1-38.9,15.2-44.2C541.5,1537.8,559.5,1549,566.4,1568.2z"/>
								<path fill="#F2D7AC" d="M559.1,1575.7c5.4,11.2,2.4,23.7-6.7,27.9c-9.1,4.2-20.9-1.4-26.3-12.6c-5.4-11.2-2.4-23.7,6.7-27.9
									C541.9,1558.9,553.7,1564.5,559.1,1575.7z"/>
							</g>
							<g>
								<path fill="#E4AB80" d="M634.5,1566.6c-5.9,19.4,1.8,38.9,17.4,43.4c15.6,4.5,33-7.5,38.9-27c5.9-19.4-1.8-38.9-17.4-43.4
									C657.9,1535.1,640.4,1547.1,634.5,1566.6z"/>
								<path fill="#F2D7AC" d="M642.1,1573.8c-4.9,11.4-1.3,23.8,8.1,27.6c9.3,3.8,20.8-2.4,25.7-13.8c4.9-11.4,1.3-23.8-8.1-27.6
									C658.5,1556.1,647,1562.3,642.1,1573.8z"/>
							</g>
						</g>
						<path fill="#D4A078" d="M556.4,1458.4c-20.3-2.8-42.2,15.7-56.1,28c-11.3,10-27.2,27.1-17.5,42.9
							c20.9,34.1,87.7-56.5,87.7-56.5c-3.3-6-5-12.7-12.7-14.2C557.4,1458.5,556.9,1458.4,556.4,1458.4z"/>
						<path fill="#D4A078" d="M641.5,1459c20.3-2.5,41.9,16.3,55.6,28.9c11.1,10.2,26.7,27.5,16.8,43.2
							c-21.5,33.7-86.8-57.9-86.8-57.9c3.4-5.9,5.3-12.6,12.9-14C640.5,1459.2,641,1459.1,641.5,1459z"/>
						<g>
							<g>
								<path fill="#E4AB80" d="M550.7,1296.9c0.1,23.9-19.7,43.4-44.2,43.4c-24.5,0.1-44.4-19.3-44.4-43.2
									c-0.1-23.9,19.7-43.4,44.2-43.4C530.8,1253.6,550.7,1272.9,550.7,1296.9z"/>
								<path fill="#F2D7AC" d="M530.1,1296.9c0,12.8-10.5,23.2-23.6,23.2c-13.1,0-23.7-10.3-23.7-23.1c0-12.8,10.5-23.2,23.6-23.2
									C519.4,1273.8,530.1,1284.1,530.1,1296.9z"/>
								<path fill="#E4AB80" d="M734.9,1296.4c0.1,23.9-19.7,43.4-44.2,43.4c-24.5,0.1-44.4-19.3-44.4-43.2
									c-0.1-23.9,19.7-43.4,44.2-43.4C714.9,1253.2,734.8,1272.5,734.9,1296.4z"/>
								<path fill="#F2D7AC" d="M714.3,1296.5c0,12.8-10.5,23.2-23.6,23.2c-13.1,0-23.7-10.3-23.7-23.1c0-12.8,10.5-23.2,23.6-23.2
									C703.6,1273.3,714.2,1283.7,714.3,1296.5z"/>
								<path fill="#E4AB80" d="M710.5,1366.9c-0.5,59.3-50.1,107.1-110.8,106.6c-60.7-0.5-109.5-49-109-108.3
									c0.5-59.3,50.1-107.1,110.8-106.6C662.2,1259,711,1307.5,710.5,1366.9z"/>
								<path fill="#F2D7AC" d="M651.7,1416.9c-0.2,26.3-23.5,47.4-51.9,47.2c-28.5-0.2-51.4-21.7-51.1-48
									c0.2-26.3,23.5-47.4,51.9-47.2C629.1,1369.1,652,1390.6,651.7,1416.9z"/>
								<g>
									<path fill="#563522" d="M613.7,1389.7c0-0.3,0-0.6-0.1-0.9c-1.2-5.6-13.8-5.8-13.8-5.8s-13.2,0-14,6
										c-0.1,0.4-0.1,0.8,0,1.2c1.2,5.7,9.1,13.4,14,13.4c4.9,0,12.8-7.7,13.9-13.4C613.7,1389.9,613.7,1389.8,613.7,1389.7
										L613.7,1389.7C613.7,1389.7,613.7,1389.7,613.7,1389.7z"/>
								</g>
								<g>
									<path fill="#563522" d="M556.3,1366.1c-0.1,6.5-5.5,11.7-12.1,11.6c-6.6-0.1-12-5.3-11.9-11.8c0.1-6.5,5.5-11.7,12.1-11.6
										C551,1354.3,556.3,1359.6,556.3,1366.1z"/>
									<path fill="#FFFFFF" d="M544.3,1361.9c0,2-1.7,3.6-3.7,3.6c-2.1,0-3.7-1.7-3.7-3.7c0-2,1.7-3.6,3.8-3.6
										C542.7,1358.3,544.3,1359.9,544.3,1361.9z"/>
								</g>
								<g>
									<path fill="#563522" d="M666,1366.9c-0.1,6.5-5.5,11.7-12.1,11.6c-6.6-0.1-12-5.3-11.9-11.8c0.1-6.5,5.5-11.7,12.1-11.6
										C660.7,1355.1,666,1360.4,666,1366.9z"/>
									<path fill="#FFFFFF" d="M654,1362.8c0,2-1.7,3.6-3.7,3.6c-2.1,0-3.7-1.7-3.7-3.7c0-2,1.7-3.6,3.7-3.6
										C652.4,1359.1,654,1360.8,654,1362.8z"/>
								</g>
							</g>
						</g>
						<path fill="#563522" d="M600.1,1427.4c-13.1-0.1-16.1-9.4-16.2-9.8c-0.3-0.9,0.2-1.8,1.1-2c0.9-0.3,1.8,0.2,2.1,1.1
							c0.1,0.3,2.5,7.4,13,7.5c10.6,0.1,13.1-7,13.2-7.3c0.3-0.9,1.2-1.3,2.1-1c0.9,0.3,1.4,1.2,1.1,2
							C616.4,1418.2,613.2,1427.5,600.1,1427.4z"/>
					</g>
				</g>
				<g>
					<g>
						<g>
							<path fill="#E97E9C" d="M602.3,207.1l-17.4,4.2c-1.3,0.3-2.2,1.7-1.8,3c0.3,1.3,1.7,2.2,3,1.8l17.4-4.2
								c1.3-0.3,2.2-1.7,1.8-3C604.9,207.6,603.6,206.8,602.3,207.1z"/>
							<path fill="#E97E9C" d="M607.1,227l-17.4,4.2c-1.3,0.3-2.2,1.7-1.8,3c0.3,1.3,1.7,2.2,3,1.8l17.4-4.2c1.3-0.3,2.2-1.7,1.8-3
								C609.8,227.5,608.4,226.7,607.1,227z"/>
							<path fill="#F3A8C3" d="M593.9,99.9c0.8,3.2-1.2,6.4-4.4,7.2c-3.2,0.8-6.4-1.2-7.2-4.4c-0.8-3.2,1.2-6.4,4.4-7.2
								C589.9,94.7,593.1,96.7,593.9,99.9z"/>
						</g>
						<polygon fill="#8DACC2" points="581.3,66.6 572,70.7 591.9,104.1 597,101.9 602.1,99.6 590.5,62.4 						"/>
					</g>
				</g>
				<g>
					<path fill="#E2E1E1" d="M534.1,249.4c-14.8,11.4-17.1,21.9-43.7,21.2c-7.4-0.2-13.7-3-18.9-6.9c-5.3-4-5.8-11.8-1.2-16.4
						c8.6-8.6,14-20.4,14.4-33.5c0.7-26.8-20.1-49.3-46.7-50.7l2.3-27.5l-10.1,0.3l-10.1,0.3l4.3,28c-21,4.9-37.2,23.5-38.3,45.6
						l-13.5-0.4c-2.1-0.1-4.3-0.2-6.4-0.4c-3.5-0.3-6.5-1.5-9.7-2.9c-2.5-1-4.4-0.4-3.6,2.7c0,0,0,0,0,0
						c0.1,6.5,12.1,31.5,41.9,31.4c0.5,0.7,1,1.5,1.5,2.2c3.7,4.8,2.9,11.6-1.8,15.4c-24.2,19.7-30.8,54.6-11.8,80.1
						c31.3,42,110.4,37.2,141.8-2.2c16.6-20.8,24.2-48.6,24.3-74.6C548.7,261.1,548.9,238,534.1,249.4z"/>
					<g>
						<g>
							<path fill="#F8D061" d="M346.8,199.2c3.2,1.3,6.2,2.5,9.7,2.9c2.1,0.2,4.2,0.3,6.4,0.4l22.5,0.6c0,0,52.4,22,9.5,29.4
								c-36.9,6.3-51.6-23.4-51.7-30.5c0,0,0,0,0,0C342.4,198.8,344.3,198.2,346.8,199.2z"/>
							<path fill="#F9E97A" d="M384.8,250.9c4.7-3.8,5.5-10.6,1.8-15.4c-6.9-8.9-10.8-20.1-10.3-32.2c1.1-25.7,22.3-46.6,48-47.3
								c28.6-0.8,51.6,22.6,50.8,50.8c-0.4,13.1-5.8,24.9-14.4,33.5c-4.6,4.7-4.1,12.5,1.2,16.4c5.2,3.9,11.5,6.7,18.9,6.9
								c26.7,0.7,28.9-9.8,43.7-21.2c14.8-11.4,14.6,11.8,14.6,11.8c-0.1,26.1-7.8,53.8-24.3,74.6c-31.4,39.4-110.5,44.2-141.8,2.2
								C354.1,305.5,360.6,270.5,384.8,250.9z"/>
							<path fill="#F8D061" d="M394.7,289.7c0,0,6.2-35.6,51.2-19.8c20.1,7,36.5,19.6,47.1,29.2c6.6,6.1,4.4,17-4,20
								c-13.4,4.8-33.5,10-54.7,8.7C386.5,324.8,394.7,289.7,394.7,289.7z"/>
							<g>
								<path fill="#563522" d="M420.9,191.5c1.1,6.2-3,12.1-9.2,13.2c-6.2,1.1-12.1-3-13.2-9.2c-1.1-6.2,3-12.1,9.2-13.2
									C413.9,181.2,419.8,185.3,420.9,191.5z"/>
								<path fill="#FFFFFF" d="M409,189.7c0.3,1.9-0.9,3.8-2.9,4.1c-1.9,0.3-3.8-0.9-4.1-2.9c-0.3-1.9,0.9-3.8,2.9-4.1
									C406.8,186.5,408.7,187.7,409,189.7z"/>
							</g>
						</g>
						<polygon fill="#8DACC2" points="420.6,128.9 410.5,129.2 416.3,167.7 421.9,167.5 427.5,167.3 430.7,128.5 						"/>
					</g>
				</g>
				<g>
					<path fill="#E2E1E1" d="M180.6,1212.8c-1.2,0.4-2.4,0.8-3.6,1.4l-25.7,11.1c-0.6,0.2-1.1,0.5-1.7,0.8c-3.9,2.1-7,5.2-8.8,9.2
						c-0.1,0.2-0.2,0.5-0.3,0.7c-0.1,0.3-0.2,0.5-0.3,0.8l-72.6,31.5c0,0,0,0,0,0c-16.1,7-23.4,25.5-16.2,41.2
						c4.6,10.2,14.6,17.3,26,18.4c5.5,0.5,11.1-0.3,16.2-2.5l72.7-31.5c0.5,0.2,1,0.4,1.4,0.6c4.8,1.6,10,1.1,14.6-0.9l25.7-11.1
						c19.3-8.4,28-30.4,19.4-49.2C219.3,1215.5,199,1207,180.6,1212.8z M90.8,1319.4c-4,1.7-8.4,2.4-12.7,2
						c-9-0.9-16.8-6.4-20.5-14.5c-5.6-12.4,0.1-27,12.8-32.5c4-1.7,8.4-2.4,12.7-2c9,0.9,16.8,6.4,20.5,14.5
						C109.2,1299.3,103.4,1313.9,90.8,1319.4z M109.7,1284.3c-4-8.8-12-15.3-21.4-17.6l51.6-22.4c0.2,0.6,0.4,1.3,0.7,1.9
						c1.4,3,3.1,5.5,5.1,7.3c3.2,2.8,7.2,4,11.9,3.2c1.8-0.3,3.7-0.9,5.7-1.7c0,0,0.5-0.1,1.3-0.7c1.3-1,3.5-3.4,5.9-8.9
						c2.9-6.7,12.4-9.4,19.3-4.6c0.7,0.5,1.4,1.1,2.1,1.8c1.3,1.3,2.4,2.9,3.3,4.9c0.7,1.6,1.2,3.1,1.4,4.6c0.4,2.9-0.1,5.6-1.2,7.9
						c-0.4,0.8-0.9,1.6-1.5,2.2c-1.4,1.7-3.1,3.1-5.1,4c-0.5,0.2-1.1,0.4-1.7,0.6c-1.1,0.3-2.3,0.5-3.5,0.5c-1.2,0-2.4-0.2-3.5-0.6
						c-1.1-0.4-2.2-0.7-3.1-1c-2.9-0.8-4.9-0.9-6.3-0.9c-1.2,0-1.9,0.3-2.3,0.4c-0.1,0-0.1,0-0.2,0.1c-0.1,0-0.1,0.1-0.1,0.1
						c-0.8,0.4-1.6,0.8-2.4,1.2c-0.2,0.1-0.4,0.2-0.6,0.3c-0.6,0.4-1.2,0.7-1.8,1.1c-0.1,0.1-0.2,0.1-0.3,0.2
						c-0.6,0.5-1.2,1-1.7,1.5c-0.1,0.1-0.2,0.2-0.2,0.2c-0.5,0.5-0.9,1-1.3,1.5c0,0.1-0.1,0.1-0.2,0.2c-0.8,1.2-1.4,2.4-1.8,3.7
						c0,0,0,0.1,0,0.1c-0.4,1.4-0.5,2.8-0.5,4.3l0,0l0,0c0.1,2.5,0.8,5.1,2.1,7.9c0.3,0.7,0.7,1.3,1.1,1.9l-51.6,22.4
						C113.1,1303.4,113.9,1293.4,109.7,1284.3z"/>
					<g>
						<path fill="#F8D061" d="M155.1,1279.2l-57.8,25.1c4.5-8.2,5.2-18.2,1.1-27.4c-4-8.8-12-15.3-21.4-17.6l57.7-25l-2.7-6
							L56.4,1261c0,0,0,0,0,0c-16.1,7-23.4,25.5-16.2,41.2c4.6,10.2,14.6,17.3,26,18.4c5.5,0.5,11.1-0.3,16.2-2.5l75.6-32.8
							L155.1,1279.2z M66.8,1314c-9-0.9-16.8-6.4-20.5-14.5c-5.6-12.4,0.1-27,12.8-32.5c4-1.7,8.4-2.4,12.7-2
							c9,0.9,16.8,6.4,20.5,14.5c5.6,12.4-0.1,27-12.8,32.5C75.5,1313.8,71.1,1314.5,66.8,1314z"/>
						<path fill="#E97E9C" d="M216.1,1225.8c-8.6-18.8-31.1-27.3-50.4-19L140,1218c-4.6,2-8.5,5.5-10.5,10c-1.4,3.2-2.1,7-0.3,10.8
							c4.4,9.7,12,13.3,22.6,8.7c0,0,3.4-0.9,7.1-9.6c3.7-8.7,18.9-10.7,24.6,2c5.8,12.7-5.9,22.4-15,19.2
							c-9.1-3.2-12.1-1.3-12.1-1.3c-10.6,4.6-13,12.5-8.6,22.2c1.8,3.9,5.1,6,8.4,7.1c4.8,1.6,10,1.1,14.6-0.9l25.7-11.1
							C215.9,1266.7,224.6,1244.7,216.1,1225.8z"/>
						<path fill="#F3A8C3" d="M216.4,1227c0-0.1,0-0.3,0-0.4c-0.1-0.3-0.2-0.5-0.3-0.8c-8.6-18.8-31.1-27.3-50.4-19L140,1218
							c-4.6,2-8.5,5.5-10.5,10c-1.4,3.2-2.1,7-0.3,10.8c4.4,9.7,12,13.3,22.6,8.7c0,0,3.4-0.9,7.1-9.6c3.7-8.7,18.9-10.7,24.6,2
							c5.8,12.7-5.9,22.4-15,19.2c-9.1-3.2-12.1-1.3-12.1-1.3c-7.6,3.3-11,8.2-10.7,14.3c3.5,1.1,7.2,1.9,11.1,2.3
							C186.7,1277.4,213.3,1256.2,216.4,1227z"/>
					</g>
				</g>
			</g>
		</g>
		<g>
			<path fill="#E2E1E1" d="M489.6,258.6l19.2-79.1c3.4-14.1,12.7-25.3,24.5-31.6l-0.8-0.2l2-8.3c1.5-6.1,7.2-10,13.3-9.4
				c0.2-0.4,0.4-0.8,0.5-0.9c1.5-2.4,3.6-4.6,6.1-6.1c5.2-3.2,13-3.9,14.7-11c0.8-3.4-4.4-5.2-3.1-14c1-6.8,5.8-11.7,12.9-12.4
				l8.2-26.2l9.3,4.1l9.3,4.1l-12.9,21.7c5.2,3.9,6.9,10.1,4.8,16.3c-2.8,8.4-8.3,7.6-9.1,11c-1.7,7,4.9,11.2,8.1,16.5
				c1.5,2.5,2.4,5.3,2.6,8.2c0,0.1,0,0.5,0,1c5.7,2.2,9,8.3,7.5,14.4l-2,8.3l-0.8-0.2c7.6,11.1,10.7,25.2,7.3,39.4l-19.2,79.1
				c-3.3,13.7-17.1,22.1-30.8,18.8l-52.6-12.8C494.7,286.1,486.2,272.3,489.6,258.6z"/>
			<g>
				<g>
					<path fill="#E97E9C" d="M558.2,123c1.5-2.4,3.6-4.6,6.1-6.1c5.2-3.2,13-3.9,14.7-11c0.8-3.4-4.4-5.2-3.1-14
						c1.3-8.8,8.9-14.4,19.5-11.8c0,0,0,0,0,0c0,0,0,0,0,0c10.7,2.6,14.8,11.1,11.9,19.5c-2.8,8.4-8.3,7.6-9.1,11
						c-1.7,7,4.9,11.2,8.1,16.5c1.5,2.5,2.4,5.3,2.6,8.2c0,0.2,0,3.6-0.1,3.6c0,0-26.1-6.3-26.1-6.3l0,0c0,0,0,0,0,0
						s-26.1-6.3-26.1-6.3C556.5,126.2,558.1,123.2,558.2,123z"/>
					<path fill="#E97E9C" d="M578,137.2l6.8,1.7c26.4,6.4,42.5,33,36.1,59.3l-19.2,79.1c-3.3,13.7-17.1,22.1-30.8,18.8l-52.6-12.8
						c-13.7-3.3-22.1-17.1-18.8-30.8l19.2-79.1C525.1,147,551.7,130.8,578,137.2z"/>
					<path fill="#FFFFFF" d="M614.3,195.7c-0.2,1.5-0.5,3-0.8,4.5L596.7,269c-2.9,11.9-14.9,19.2-26.8,16.3l-45.8-11.1
						c-11.9-2.9-19.2-14.9-16.3-26.8l16.7-68.8c0.4-1.5,0.8-2.9,1.3-4.4L614.3,195.7z"/>
					<path fill="#D1EDEE" d="M541.8,178.1l-13.2,54.2c-2.9,11.9,4.4,23.9,16.3,26.8l45.8,11.1c1.8,0.4,3.6,0.6,5.3,0.6
						c-3.7,10.8-15,17.2-26.3,14.4l-45.8-11.1c-11.9-2.9-19.2-14.9-16.3-26.8l16.7-68.8c0.4-1.5,0.8-2.9,1.3-4.4L541.8,178.1z"/>
					<path fill="#F3A8C3" d="M559.5,124.1l47.8,11.6c6.7,1.6,10.8,8.3,9.1,15l-2,8.3l-72-17.5l2-8.3
						C546.1,126.6,552.8,122.5,559.5,124.1z"/>
					<path fill="#E97E9C" d="M585.2,198.1l17.4,4.2c1.3,0.3,2.2,1.7,1.8,3c-0.3,1.3-1.7,2.2-3,1.8l-17.4-4.2c-1.3-0.3-2.2-1.7-1.8-3
						C582.6,198.6,583.9,197.8,585.2,198.1z"/>
					<path fill="#E97E9C" d="M580.4,218l17.4,4.2c1.3,0.3,2.2,1.7,1.8,3c-0.3,1.3-1.7,2.2-3,1.8l-17.4-4.2c-1.3-0.3-2.2-1.7-1.8-3
						C577.7,218.5,579.1,217.7,580.4,218z"/>
					<path fill="#E97E9C" d="M575.6,238l17.4,4.2c1.3,0.3,2.2,1.7,1.8,3c-0.3,1.3-1.7,2.2-3,1.8l-17.4-4.2c-1.3-0.3-2.2-1.7-1.8-3
						C572.9,238.5,574.2,237.6,575.6,238z"/>
					<path fill="#F3A8C3" d="M593.6,90.9c-0.8,3.2,1.2,6.4,4.4,7.2c3.2,0.8,6.4-1.2,7.2-4.4c0.8-3.2-1.2-6.4-4.4-7.2
						C597.6,85.7,594.4,87.7,593.6,90.9z"/>
				</g>
				<polygon fill="#8DACC2" points="606.3,57.6 615.5,61.7 595.6,95.1 590.5,92.9 585.4,90.6 597,53.4 				"/>
			</g>
		</g>
		<g>
			<path fill="#FFFFFF" d="M609.7,477.1c2-3.6,2-9.5,0-13.1l-28.9-53.3c-2-3.6,0-6.6,4.4-6.6H1198v132.8H585.2c-4.4,0-6.4-3-4.4-6.6
				L609.7,477.1z"/>
			<rect x="1190.7" y="414.3" fill="#8DACC2" width="7.3" height="2.4"/>
			<path fill="#8DACC2" d="M623.7,414.3h14.9v2.4h-14.9V414.3z M653.6,414.3h14.9v2.4h-14.9V414.3z M683.4,414.3h14.9v2.4h-14.9
				V414.3z M713.3,414.3h14.9v2.4h-14.9V414.3z M743.1,414.3H758v2.4h-14.9V414.3z M772.9,414.3h14.9v2.4h-14.9V414.3z M802.8,414.3
				h14.9v2.4h-14.9V414.3z M832.6,414.3h14.9v2.4h-14.9V414.3z M862.5,414.3h14.9v2.4h-14.9V414.3z M892.3,414.3h14.9v2.4h-14.9
				V414.3z M922.1,414.3h14.9v2.4h-14.9V414.3z M952,414.3h14.9v2.4H952V414.3z M981.8,414.3h14.9v2.4h-14.9V414.3z M1011.7,414.3
				h14.9v2.4h-14.9V414.3z M1041.5,414.3h14.9v2.4h-14.9V414.3z M1071.3,414.3h14.9v2.4h-14.9V414.3z M1101.2,414.3h14.9v2.4h-14.9
				V414.3z M1131,414.3h14.9v2.4H1131V414.3z M1160.9,414.3h14.9v2.4h-14.9V414.3z"/>
			<polygon fill="#8DACC2" points="603.3,421.5 606,420.5 603.8,416.7 608.8,416.7 608.8,414.3 599.2,414.3 			"/>
			<path fill="#8DACC2" d="M618.4,447.9l2.6-1l5,8.8l-2.6,1L618.4,447.9z M608.4,430.3l2.6-1l5,8.8l-2.6,1L608.4,430.3z"/>
			<polygon fill="#8DACC2" points="631.1,476.5 634.6,470.5 631.1,464.5 628.5,465.5 631.3,470.5 628.5,475.5 			"/>
			<path fill="#8DACC2" d="M608.4,510.7l5-8.8l2.6,1l-5,8.8L608.4,510.7z M618.4,493.1l5-8.8l2.6,1l-5,8.8L618.4,493.1z"/>
			<polygon fill="#8DACC2" points="599.2,526.7 608.8,526.7 608.8,524.3 603.8,524.3 606,520.6 603.3,519.5 			"/>
			<path fill="#8DACC2" d="M623.7,524.3h14.9v2.4h-14.9V524.3z M653.6,524.3h14.9v2.4h-14.9V524.3z M683.4,524.3h14.9v2.4h-14.9
				V524.3z M713.3,524.3h14.9v2.4h-14.9V524.3z M743.1,524.3H758v2.4h-14.9V524.3z M772.9,524.3h14.9v2.4h-14.9V524.3z M802.8,524.3
				h14.9v2.4h-14.9V524.3z M832.6,524.3h14.9v2.4h-14.9V524.3z M862.5,524.3h14.9v2.4h-14.9V524.3z M892.3,524.3h14.9v2.4h-14.9
				V524.3z M922.1,524.3h14.9v2.4h-14.9V524.3z M952,524.3h14.9v2.4H952V524.3z M981.8,524.3h14.9v2.4h-14.9V524.3z M1011.7,524.3
				h14.9v2.4h-14.9V524.3z M1041.5,524.3h14.9v2.4h-14.9V524.3z M1071.3,524.3h14.9v2.4h-14.9V524.3z M1101.2,524.3h14.9v2.4h-14.9
				V524.3z M1131,524.3h14.9v2.4H1131V524.3z M1160.9,524.3h14.9v2.4h-14.9V524.3z"/>
			<rect x="1190.7" y="524.3" fill="#8DACC2" width="7.3" height="2.4"/>
		</g>
	</g>
</g>
</svg>
