<?xml version="1.0" encoding="utf-8"?>
<!-- Generator: Adobe Illustrator 23.0.4, SVG Export Plug-In . SVG Version: 6.00 Build 0)  -->
<svg version="1.1" id="Layer_1" xmlns="http://www.w3.org/2000/svg" xmlns:xlink="http://www.w3.org/1999/xlink" x="0px" y="0px"
	 width="1200px" height="1800px" viewBox="0 0 1200 1800" enable-background="new 0 0 1200 1800" xml:space="preserve">
<g>
	<defs>
		<rect id="SVGID_8_" width="1200" height="1800"/>
	</defs>
	<clipPath id="SVGID_2_">
		<use xlink:href="#SVGID_8_"  overflow="visible"/>
	</clipPath>
	<g id="CHA_DE_REVELACAO_BG_1_" clip-path="url(#SVGID_2_)">
		<g>
			<g>
				<defs>
					<rect id="SVGID_10_" x="-8" y="-10" width="1216" height="1816"/>
				</defs>
				<use xlink:href="#SVGID_10_"  overflow="visible" fill="#ADD9E7"/>
				<clipPath id="SVGID_3_">
					<use xlink:href="#SVGID_10_"  overflow="visible"/>
				</clipPath>
				<g clip-path="url(#SVGID_3_)">
					<path fill="#F5F5F5" d="M291.9,371.8c16.2,20.3,56.8,8.4,62.9-25.7c4-22,5.3-50.3-4.8-69.4c-10.9-20.5-28.2-16.8-44-14.7
						c1.3-21.2,1-65.1-38.4-85.2c-31.9-16.3-60.1,22.4-66.4,43.1c-20.1-29.6-73-20.1-83.2,23.3c-34.5-37.6-99.5-4.6-99.4,74.1
						c0.1,47.5,25.3,84.6,62,86.9c9.7,0.6,20.1-0.1,29.3-5c1.9-1,17.2-12.1,15.8-14.6c0,0,5.7,12.7,18,23.2
						c22.7,19.3,64.8,15.6,84.9-19.6C268.6,424.3,291.9,371.8,291.9,371.8z"/>
					<path fill="#DEEEF7" d="M36.4,255c-11.2,49.7-6.5,80,10.7,100.4c18.7,22.1,48.2,28.4,71,13.1c2.8-1.9,9.7-9.7,11.2-10
						c1.6-0.3,6.8,12.2,11.9,18.8c8,10.1,19,17.3,30.1,19.6c16.7,3.6,33.5-6,46.2-21c1.9-2.2,3.4-4.9,5.2-7.3c1.9-2.6,3.3-4.5,6-3
						c3.3,1.9,6.3,5,9.7,6.9c6.3,3.6,12.8,6.9,19.7,5.6c4.2-0.8,8.1-2.9,11.7-6c6.4-5.4,14.8-22.4,22.9-18.9
						c8,3.5,15.1,13.4,23.8,12.8c30.5-2,44.6-42.9,36.5-81.9c6.5,18.6,5.1,42.6,1.6,61.9c-6.2,34.1-46.7,45.9-62.9,25.7
						c0,0-23.3,52.5-63.3,16.4c-20.1,35.1-62.2,38.9-84.9,19.6c-12.3-10.5-18-23.2-18-23.2c1.4,2.4-13.9,13.5-15.8,14.6
						c-9.1,4.9-19.6,5.7-29.3,5c-36.7-2.3-61.9-39.3-62-86.9C18.5,291.2,25.6,270.2,36.4,255z"/>
				</g>
				<g clip-path="url(#SVGID_3_)">
					<path fill="#F5F5F5" d="M900,418.6c-16.2,20.2-56.8,8.4-62.9-25.7c-4-22-5.3-50.3,4.8-69.4c10.9-20.5,28.2-16.8,44-14.7
						c-1.3-21.2-1-65.1,38.4-85.2c31.9-16.3,60.1,22.4,66.4,43.1c20.1-29.6,73-20.1,83.2,23.3c34.5-37.6,99.5-4.6,99.4,74.1
						c-0.1,47.5-25.3,84.6-62,86.9c-9.7,0.6-20.1-0.1-29.3-5c-1.9-1-17.2-12.1-15.8-14.6c0,0-5.7,12.7-18,23.2
						c-22.7,19.3-64.8,15.6-84.9-19.5C923.2,471.1,900,418.6,900,418.6z"/>
					<path fill="#DEEEF7" d="M1155.4,301.8c11.2,49.7,6.5,80-10.7,100.4c-18.7,22.1-48.2,28.4-71,13.1c-2.8-1.9-9.7-9.7-11.2-9.9
						c-1.6-0.3-6.8,12.2-11.9,18.8c-8,10.1-19,17.3-30.1,19.7c-16.7,3.6-33.5-6-46.2-21c-1.9-2.2-3.4-4.9-5.2-7.3
						c-1.9-2.6-3.3-4.5-6-3c-3.3,1.9-6.3,5-9.7,6.9c-6.3,3.6-12.8,6.9-19.7,5.6c-4.2-0.8-8.1-2.9-11.7-6
						c-6.4-5.4-14.8-22.4-22.9-18.9c-8,3.5-15.1,13.4-23.8,12.8c-30.5-2-44.6-42.9-36.5-81.9c-6.5,18.6-5.1,42.6-1.6,61.9
						c6.2,34.1,46.7,45.9,62.9,25.7c0,0,23.3,52.5,63.3,16.4c20.1,35.1,62.2,38.9,84.9,19.5c12.3-10.5,18-23.2,18-23.2
						c-1.4,2.4,13.9,13.5,15.8,14.6c9.1,4.9,19.6,5.6,29.3,5c36.7-2.3,61.9-39.3,62-86.9C1173.3,338,1166.2,316.9,1155.4,301.8z"/>
				</g>
				<g clip-path="url(#SVGID_3_)">
					<path fill="#F5F5F5" d="M1112.1,705.3c8.1,10.2,28.5,4.2,31.6-12.9c2-11.1,2.7-25.2-2.4-34.9c-5.5-10.3-14.1-8.4-22.1-7.4
						c0.6-10.6,0.5-32.7-19.3-42.8c-16-8.2-30.2,11.2-33.4,21.6c-10.1-14.9-36.7-10.1-41.8,11.7c-17.3-18.9-50-2.3-49.9,37.2
						c0,23.9,12.7,42.5,31.1,43.6c4.9,0.3,10.1-0.1,14.7-2.5c1-0.5,8.6-6.1,7.9-7.3c0,0,2.9,6.4,9.1,11.7
						c11.4,9.7,32.5,7.8,42.6-9.8C1100.4,731.7,1112.1,705.3,1112.1,705.3z"/>
					<path fill="#DEEEF7" d="M983.9,646.7c-5.6,24.9-3.3,40.2,5.4,50.4c9.4,11.1,24.2,14.2,35.7,6.6c1.4-0.9,4.8-4.9,5.6-5
						c0.8-0.1,3.4,6.1,6,9.4c4,5.1,9.5,8.7,15.1,9.9c8.4,1.8,16.8-3,23.2-10.5c0.9-1.1,1.7-2.5,2.6-3.7c0.9-1.3,1.7-2.3,3-1.5
						c1.7,1,3.2,2.5,4.9,3.5c3.2,1.8,6.4,3.5,9.9,2.8c2.1-0.4,4.1-1.5,5.9-3c3.2-2.7,7.4-11.3,11.5-9.5c4,1.7,7.6,6.7,11.9,6.4
						c15.3-1,22.4-21.6,18.4-41.1c3.3,9.3,2.5,21.4,0.8,31.1c-3.1,17.1-23.5,23.1-31.6,12.9c0,0-11.7,26.4-31.8,8.2
						c-10.1,17.6-31.2,19.5-42.6,9.8c-6.2-5.3-9-11.7-9.1-11.7c0.7,1.2-7,6.8-7.9,7.3c-4.6,2.5-9.8,2.8-14.7,2.5
						c-18.4-1.2-31.1-19.8-31.1-43.6C974.9,664.8,978.4,654.3,983.9,646.7z"/>
				</g>
				<g clip-path="url(#SVGID_3_)">
					<path fill="#F5F5F5" d="M1008.5,105.5c-8.1,10.2-28.5,4.2-31.6-12.9c-2-11.1-2.7-25.2,2.4-34.9c5.5-10.3,14.1-8.4,22.1-7.4
						c-0.6-10.6-0.5-32.7,19.3-42.8c16-8.2,30.2,11.2,33.4,21.6c10.1-14.9,36.7-10.1,41.8,11.7c17.3-18.9,50-2.3,49.9,37.2
						c0,23.9-12.7,42.5-31.1,43.6c-4.9,0.3-10.1,0-14.7-2.5c-1-0.5-8.6-6.1-7.9-7.3c0,0-2.9,6.4-9.1,11.7
						c-11.4,9.7-32.5,7.8-42.6-9.8C1020.2,131.9,1008.5,105.5,1008.5,105.5z"/>
					<path fill="#DEEEF7" d="M1136.8,46.8c5.6,24.9,3.3,40.2-5.4,50.4c-9.4,11.1-24.2,14.2-35.7,6.6c-1.4-0.9-4.8-4.9-5.6-5
						c-0.8-0.1-3.4,6.1-6,9.4c-4,5.1-9.5,8.7-15.1,9.9c-8.4,1.8-16.8-3-23.2-10.5c-0.9-1.1-1.7-2.5-2.6-3.7c-0.9-1.3-1.7-2.3-3-1.5
						c-1.7,1-3.2,2.5-4.9,3.5c-3.2,1.8-6.4,3.5-9.9,2.8c-2.1-0.4-4.1-1.5-5.9-3c-3.2-2.7-7.4-11.3-11.5-9.5c-4,1.7-7.6,6.7-11.9,6.4
						c-15.3-1-22.4-21.6-18.4-41.1c-3.3,9.3-2.5,21.4-0.8,31.1c3.1,17.1,23.5,23.1,31.6,12.9c0,0,11.7,26.4,31.8,8.2
						c10.1,17.6,31.2,19.5,42.6,9.8c6.2-5.3,9-11.6,9.1-11.7c-0.7,1.2,7,6.8,7.9,7.3c4.6,2.5,9.8,2.8,14.7,2.5
						c18.4-1.2,31.1-19.8,31.1-43.6C1145.8,65,1142.2,54.4,1136.8,46.8z"/>
				</g>
				<g clip-path="url(#SVGID_3_)">
					<path fill="#F5F5F5" d="M1087.1,1121.2c-8.1,10.2-28.5,4.2-31.6-12.9c-2-11.1-2.7-25.2,2.4-34.9c5.5-10.3,14.1-8.4,22.1-7.4
						c-0.6-10.6-0.5-32.7,19.3-42.8c16-8.2,30.2,11.2,33.4,21.6c10.1-14.9,36.7-10.1,41.8,11.7c17.3-18.9,50-2.3,49.9,37.2
						c0,23.9-12.7,42.5-31.1,43.6c-4.9,0.3-10.1-0.1-14.7-2.5c-1-0.5-8.6-6.1-7.9-7.3c0,0-2.9,6.4-9,11.7
						c-11.4,9.7-32.5,7.8-42.6-9.8C1098.8,1147.6,1087.1,1121.2,1087.1,1121.2z"/>
					<path fill="#DEEEF7" d="M1215.3,1062.6c5.6,24.9,3.3,40.2-5.4,50.4c-9.4,11.1-24.2,14.2-35.7,6.6c-1.4-0.9-4.9-4.9-5.6-5
						c-0.8-0.1-3.4,6.1-6,9.4c-4,5.1-9.5,8.7-15.1,9.9c-8.4,1.8-16.8-3-23.2-10.5c-0.9-1.1-1.7-2.5-2.6-3.7c-0.9-1.3-1.7-2.3-3-1.5
						c-1.7,1-3.2,2.5-4.9,3.5c-3.2,1.8-6.4,3.5-9.9,2.8c-2.1-0.4-4.1-1.5-5.9-3c-3.2-2.7-7.4-11.3-11.5-9.5c-4,1.7-7.6,6.7-11.9,6.4
						c-15.3-1-22.4-21.6-18.4-41.1c-3.3,9.3-2.5,21.4-0.8,31.1c3.1,17.1,23.5,23.1,31.6,12.9c0,0,11.7,26.4,31.8,8.2
						c10.1,17.6,31.2,19.5,42.6,9.8c6.2-5.3,9-11.7,9-11.7c-0.7,1.2,7,6.8,7.9,7.3c4.6,2.5,9.8,2.8,14.7,2.5
						c18.4-1.2,31.1-19.8,31.1-43.6C1224.4,1080.8,1220.8,1070.2,1215.3,1062.6z"/>
				</g>
				<g clip-path="url(#SVGID_3_)">
					<path fill="#F5F5F5" d="M680.6,1671.9c-8.1,10.2-28.5,4.2-31.6-12.9c-2-11.1-2.7-25.2,2.4-34.9c5.5-10.3,14.1-8.4,22.1-7.4
						c-0.6-10.6-0.5-32.7,19.3-42.8c16-8.2,30.2,11.2,33.4,21.6c10.1-14.9,36.7-10.1,41.8,11.7c17.3-18.9,50-2.3,49.9,37.2
						c0,23.9-12.7,42.5-31.1,43.6c-4.9,0.3-10.1,0-14.7-2.5c-1-0.5-8.6-6.1-7.9-7.3c0,0-2.9,6.4-9,11.7c-11.4,9.7-32.5,7.8-42.6-9.8
						C692.3,1698.3,680.6,1671.9,680.6,1671.9z"/>
					<path fill="#DEEEF7" d="M808.9,1613.3c5.6,24.9,3.3,40.2-5.4,50.4c-9.4,11.1-24.2,14.2-35.7,6.6c-1.4-0.9-4.9-4.9-5.6-5
						c-0.8-0.1-3.4,6.1-6,9.4c-4,5.1-9.5,8.7-15.1,9.9c-8.4,1.8-16.8-3-23.2-10.5c-1-1.1-1.7-2.5-2.6-3.7c-0.9-1.3-1.7-2.3-3-1.5
						c-1.7,1-3.2,2.5-4.9,3.5c-3.2,1.8-6.4,3.5-9.9,2.8c-2.1-0.4-4.1-1.5-5.9-3c-3.2-2.7-7.4-11.3-11.5-9.5c-4,1.7-7.6,6.7-11.9,6.4
						c-15.3-1-22.4-21.6-18.4-41.1c-3.3,9.3-2.5,21.4-0.8,31.1c3.1,17.1,23.5,23.1,31.6,12.9c0,0,11.7,26.4,31.8,8.2
						c10.1,17.6,31.2,19.5,42.6,9.8c6.2-5.3,9-11.6,9-11.7c-0.7,1.2,7,6.8,7.9,7.3c4.6,2.5,9.8,2.8,14.7,2.5
						c18.4-1.2,31.1-19.8,31.1-43.6C817.9,1631.5,814.3,1620.9,808.9,1613.3z"/>
				</g>
				<g clip-path="url(#SVGID_3_)">
					<path fill="#F5F5F5" d="M226.9,1048.9c-8.1,10.2-28.5,4.2-31.6-12.9c-2-11.1-2.7-25.2,2.4-34.9c5.5-10.3,14.1-8.4,22.1-7.4
						c-0.6-10.6-0.5-32.7,19.3-42.8c16-8.2,30.2,11.2,33.4,21.6c10.1-14.9,36.7-10.1,41.8,11.7c17.3-18.9,50-2.3,49.9,37.2
						c0,23.9-12.7,42.5-31.1,43.6c-4.9,0.3-10.1,0-14.7-2.5c-1-0.5-8.6-6.1-7.9-7.3c0,0-2.9,6.4-9.1,11.7
						c-11.4,9.7-32.5,7.8-42.6-9.8C238.6,1075.2,226.9,1048.9,226.9,1048.9z"/>
					<path fill="#DEEEF7" d="M355.1,990.2c5.6,24.9,3.3,40.2-5.4,50.4c-9.4,11.1-24.2,14.2-35.7,6.6c-1.4-0.9-4.8-4.9-5.6-5
						c-0.8-0.1-3.4,6.1-6,9.4c-4,5.1-9.5,8.7-15.1,9.9c-8.4,1.8-16.8-3-23.2-10.5c-0.9-1.1-1.7-2.5-2.6-3.7c-0.9-1.3-1.7-2.3-3-1.5
						c-1.7,1-3.2,2.5-4.9,3.5c-3.2,1.8-6.4,3.5-9.9,2.8c-2.1-0.4-4.1-1.5-5.9-3c-3.2-2.7-7.4-11.3-11.5-9.5c-4,1.7-7.6,6.7-11.9,6.4
						c-15.3-1-22.4-21.6-18.4-41.1c-3.3,9.3-2.5,21.4-0.8,31.1c3.1,17.1,23.5,23.1,31.6,12.9c0,0,11.7,26.4,31.8,8.2
						c10.1,17.6,31.2,19.5,42.6,9.8c6.2-5.3,9-11.7,9.1-11.7c-0.7,1.2,7,6.8,7.9,7.3c4.6,2.5,9.8,2.8,14.7,2.5
						c18.4-1.2,31.1-19.8,31.1-43.6C364.2,1008.4,360.6,997.8,355.1,990.2z"/>
				</g>
				<g clip-path="url(#SVGID_3_)">
					<path fill="#F5F5F5" d="M4.8,1499.4c-8.1,10.2-28.5,4.2-31.6-12.9c-2-11.1-2.7-25.2,2.4-34.9c5.5-10.3,14.1-8.4,22.1-7.4
						c-0.6-10.6-0.5-32.7,19.3-42.8c16-8.2,30.2,11.2,33.4,21.6c10.1-14.9,36.7-10.1,41.8,11.7c17.3-18.9,50-2.3,49.9,37.2
						c0,23.9-12.7,42.5-31.1,43.6c-4.9,0.3-10.1,0-14.7-2.5c-1-0.5-8.6-6.1-7.9-7.3c0,0-2.9,6.4-9,11.7c-11.4,9.7-32.5,7.8-42.6-9.8
						C16.5,1525.8,4.8,1499.4,4.8,1499.4z"/>
					<path fill="#DEEEF7" d="M133.1,1440.8c5.6,24.9,3.3,40.2-5.4,50.4c-9.4,11.1-24.2,14.2-35.7,6.6c-1.4-0.9-4.9-4.9-5.6-5
						c-0.8-0.1-3.4,6.1-6,9.4c-4,5.1-9.5,8.7-15.1,9.9c-8.4,1.8-16.8-3-23.2-10.5c-0.9-1.1-1.7-2.5-2.6-3.7c-0.9-1.3-1.7-2.3-3-1.5
						c-1.7,1-3.2,2.5-4.9,3.5c-3.2,1.8-6.4,3.5-9.9,2.8c-2.1-0.4-4.1-1.5-5.9-3c-3.2-2.7-7.4-11.3-11.5-9.5c-4,1.7-7.6,6.7-11.9,6.4
						c-15.3-1-22.4-21.6-18.4-41.1c-3.3,9.3-2.5,21.4-0.8,31.1c3.1,17.1,23.5,23.1,31.6,12.9c0,0,11.7,26.4,31.8,8.2
						c10.1,17.6,31.2,19.5,42.6,9.8c6.2-5.3,9-11.7,9-11.7c-0.7,1.2,7,6.8,7.9,7.3c4.6,2.5,9.8,2.8,14.7,2.5
						c18.4-1.2,31.1-19.8,31.1-43.6C142.1,1459,138.5,1448.4,133.1,1440.8z"/>
				</g>
				<g clip-path="url(#SVGID_3_)">
					<path fill="#F5F5F5" d="M-21.3,821.3c-8.1,10.2-28.5,4.2-31.6-12.9c-2-11.1-2.7-25.2,2.4-34.9c5.5-10.3,14.1-8.4,22.1-7.4
						c-0.6-10.6-0.5-32.7,19.3-42.8c16-8.2,30.2,11.2,33.4,21.6c10.1-14.9,36.7-10.1,41.8,11.7c17.3-18.9,50-2.3,49.9,37.2
						c0,23.9-12.7,42.5-31.1,43.6c-4.9,0.3-10.1,0-14.7-2.5c-1-0.5-8.6-6.1-7.9-7.3c0,0-2.9,6.4-9.1,11.7
						c-11.4,9.7-32.5,7.8-42.6-9.8C-9.6,847.6-21.3,821.3-21.3,821.3z"/>
					<path fill="#DEEEF7" d="M107,762.6c5.6,24.9,3.3,40.2-5.4,50.4c-9.4,11.1-24.2,14.2-35.7,6.6c-1.4-0.9-4.8-4.9-5.6-5
						c-0.8-0.1-3.4,6.1-6,9.4c-4,5.1-9.5,8.7-15.1,9.9c-8.4,1.8-16.8-3-23.2-10.5c-0.9-1.1-1.7-2.5-2.6-3.7c-0.9-1.3-1.7-2.3-3-1.5
						c-1.7,1-3.2,2.5-4.9,3.5c-3.2,1.8-6.4,3.5-9.9,2.8c-2.1-0.4-4.1-1.5-5.9-3c-3.2-2.7-7.4-11.3-11.5-9.5c-4,1.7-7.6,6.7-11.9,6.4
						c-15.3-1-22.4-21.6-18.4-41.1c-3.3,9.3-2.5,21.4-0.8,31.1c3.1,17.1,23.5,23.1,31.6,12.9c0,0,11.7,26.4,31.8,8.2
						c10.1,17.6,31.2,19.5,42.6,9.8c6.2-5.3,9-11.6,9.1-11.7c-0.7,1.2,7,6.8,7.9,7.3c4.6,2.5,9.8,2.8,14.7,2.5
						c18.4-1.2,31.1-19.8,31.1-43.6C116,780.8,112.4,770.2,107,762.6z"/>
				</g>
				<g clip-path="url(#SVGID_3_)">
					<path fill="#F5F5F5" d="M-4.5,126c-8.1,10.2-28.5,4.2-31.6-12.9c-2-11.1-2.7-25.2,2.4-34.9c5.5-10.3,14.1-8.4,22.1-7.4
						c-0.6-10.6-0.5-32.7,19.3-42.8C23.7,20,37.8,39.4,41,49.8c10.1-14.9,36.7-10.1,41.8,11.7c17.3-18.9,50-2.3,49.9,37.2
						c0,23.9-12.7,42.5-31.1,43.6c-4.9,0.3-10.1-0.1-14.7-2.5c-1-0.5-8.6-6.1-7.9-7.3c0,0-2.9,6.4-9.1,11.7
						c-11.4,9.7-32.5,7.8-42.6-9.8C7.2,152.4-4.5,126-4.5,126z"/>
					<path fill="#DEEEF7" d="M123.7,67.4c5.6,24.9,3.3,40.2-5.4,50.4c-9.4,11.1-24.2,14.2-35.7,6.6c-1.4-0.9-4.8-4.9-5.6-5
						c-0.8-0.1-3.4,6.1-6,9.4c-4,5.1-9.5,8.7-15.1,9.9c-8.4,1.8-16.8-3-23.2-10.5c-0.9-1.1-1.7-2.5-2.6-3.7c-0.9-1.3-1.7-2.3-3-1.5
						c-1.7,1-3.2,2.5-4.9,3.5c-3.2,1.8-6.4,3.5-9.9,2.8c-2.1-0.4-4.1-1.5-5.9-3C3.2,123.5-1,115-5,116.8c-4,1.7-7.6,6.7-11.9,6.4
						c-15.3-1-22.4-21.6-18.4-41.1c-3.3,9.3-2.5,21.4-0.8,31.1c3.1,17.1,23.5,23.1,31.6,12.9c0,0,11.7,26.4,31.8,8.2
						c10.1,17.6,31.2,19.5,42.6,9.8c6.2-5.3,9-11.7,9.1-11.7c-0.7,1.2,7,6.8,7.9,7.3c4.6,2.5,9.8,2.8,14.7,2.5
						c18.4-1.2,31.1-19.8,31.1-43.6C132.8,85.6,129.2,75,123.7,67.4z"/>
				</g>
				<g clip-path="url(#SVGID_3_)">
					<path fill="#F5F5F5" d="M630.9,749.3c11.6,14.5,40.7,6.1,45.1-18.4c2.9-15.8,3.8-36-3.5-49.8c-7.8-14.7-20.2-12.1-31.5-10.5
						c0.9-15.2,0.7-46.7-27.5-61.1c-22.9-11.7-43.1,16.1-47.6,30.9c-14.4-21.3-52.4-14.4-59.7,16.7c-24.7-27-71.4-3.3-71.3,53.1
						c0.1,34.1,18.1,60.6,44.5,62.3c6.9,0.4,14.4-0.1,21-3.6c1.4-0.7,12.3-8.7,11.3-10.5c0,0,4.1,9.1,12.9,16.6
						c16.2,13.9,46.4,11.2,60.9-14C614.2,786.9,630.9,749.3,630.9,749.3z"/>
					<path fill="#DEEEF7" d="M447.7,665.5c-8,35.6-4.7,57.4,7.7,72c13.4,15.8,34.6,20.3,50.9,9.4c2-1.3,6.9-6.9,8.1-7.1
						c1.1-0.2,4.8,8.7,8.6,13.5c5.8,7.3,13.6,12.4,21.6,14.1c12,2.6,24-4.3,33.1-15.1c1.4-1.6,2.5-3.5,3.7-5.2
						c1.3-1.9,2.4-3.3,4.3-2.1c2.4,1.4,4.5,3.5,7,4.9c4.5,2.6,9.2,5,14.1,4c3-0.6,5.8-2.1,8.4-4.3c4.6-3.9,10.6-16.1,16.4-13.6
						c5.7,2.5,10.8,9.6,17,9.2c21.9-1.5,32-30.8,26.2-58.7c4.7,13.3,3.6,30.6,1.1,44.4c-4.4,24.5-33.5,32.9-45.1,18.4
						c0,0-16.7,37.7-45.4,11.8c-14.4,25.2-44.6,27.9-60.9,14c-8.8-7.5-12.9-16.6-12.9-16.6c1,1.8-9.9,9.7-11.3,10.5
						c-6.6,3.5-14,4.1-21,3.6c-26.3-1.7-44.4-28.2-44.5-62.3C434.9,691.5,440,676.4,447.7,665.5z"/>
				</g>
				<g clip-path="url(#SVGID_3_)">
					<path fill="#F5F5F5" d="M923.3,1427.3c-11.6,14.5-40.7,6.1-45.1-18.4c-2.9-15.8-3.8-36,3.5-49.8c7.8-14.7,20.2-12.1,31.5-10.5
						c-0.9-15.2-0.7-46.7,27.5-61.1c22.9-11.7,43.1,16.1,47.6,30.9c14.4-21.3,52.4-14.4,59.7,16.7c24.7-27,71.4-3.3,71.3,53.1
						c-0.1,34.1-18.1,60.6-44.5,62.3c-6.9,0.4-14.4-0.1-21-3.6c-1.4-0.7-12.3-8.7-11.3-10.4c0,0-4.1,9.1-12.9,16.6
						c-16.2,13.9-46.4,11.2-60.9-14C940,1465,923.3,1427.3,923.3,1427.3z"/>
					<path fill="#DEEEF7" d="M1106.5,1343.6c8,35.6,4.7,57.4-7.7,72c-13.4,15.8-34.6,20.3-50.9,9.4c-2-1.3-6.9-6.9-8.1-7.1
						c-1.1-0.2-4.8,8.7-8.6,13.5c-5.8,7.3-13.6,12.4-21.6,14.1c-12,2.6-24-4.3-33.1-15.1c-1.4-1.6-2.5-3.5-3.7-5.2
						c-1.3-1.9-2.4-3.3-4.3-2.1c-2.4,1.4-4.5,3.6-7,4.9c-4.5,2.6-9.2,5-14.1,4c-3-0.6-5.8-2.1-8.4-4.3c-4.6-3.9-10.6-16.1-16.4-13.6
						c-5.7,2.5-10.8,9.6-17,9.2c-21.9-1.5-32-30.8-26.2-58.7c-4.7,13.3-3.6,30.6-1.1,44.4c4.4,24.5,33.5,32.9,45.1,18.4
						c0,0,16.7,37.7,45.4,11.8c14.4,25.2,44.6,27.9,60.9,14c8.8-7.5,12.9-16.6,12.9-16.6c-1,1.7,9.9,9.7,11.3,10.4
						c6.6,3.5,14,4.1,21,3.6c26.3-1.7,44.4-28.2,44.5-62.3C1119.4,1369.6,1114.2,1354.5,1106.5,1343.6z"/>
				</g>
				<g clip-path="url(#SVGID_3_)">
					<path fill="#F5F5F5" d="M371.7,1744.4c11.6,14.5,40.7,6.1,45.1-18.4c2.9-15.8,3.8-36-3.5-49.8c-7.8-14.7-20.2-12.1-31.5-10.5
						c0.9-15.2,0.7-46.7-27.5-61.1c-22.9-11.7-43.1,16.1-47.6,30.9c-14.5-21.3-52.4-14.4-59.7,16.7c-24.7-27-71.4-3.3-71.3,53.1
						c0.1,34.1,18.1,60.6,44.5,62.3c6.9,0.4,14.4-0.1,21-3.6c1.4-0.7,12.3-8.7,11.3-10.4c0,0,4.1,9.1,12.9,16.6
						c16.2,13.9,46.4,11.2,60.9-14C355.1,1782.1,371.7,1744.4,371.7,1744.4z"/>
					<path fill="#DEEEF7" d="M188.6,1660.7c-8.1,35.6-4.7,57.4,7.7,72c13.4,15.8,34.6,20.3,50.9,9.4c2-1.3,6.9-6.9,8.1-7.1
						c1.1-0.2,4.8,8.7,8.6,13.5c5.8,7.3,13.6,12.4,21.6,14.1c12,2.6,24-4.3,33.1-15.1c1.4-1.6,2.5-3.5,3.7-5.2
						c1.3-1.9,2.4-3.3,4.3-2.1c2.4,1.4,4.5,3.6,7,4.9c4.5,2.6,9.2,5,14.1,4c3-0.6,5.8-2.1,8.4-4.3c4.6-3.9,10.6-16.1,16.4-13.6
						c5.7,2.5,10.9,9.6,17,9.2c21.9-1.5,32-30.8,26.2-58.7c4.7,13.3,3.6,30.6,1.1,44.4c-4.4,24.5-33.5,32.9-45.1,18.4
						c0,0-16.7,37.7-45.4,11.8c-14.4,25.2-44.6,27.9-60.9,14c-8.8-7.5-12.9-16.6-12.9-16.6c1,1.7-9.9,9.7-11.3,10.4
						c-6.6,3.5-14,4.1-21,3.6c-26.3-1.7-44.4-28.2-44.5-62.3C175.7,1686.6,180.8,1671.6,188.6,1660.7z"/>
				</g>
			</g>
		</g>
		<g>
			<path fill="#E4E2E3" d="M1066.5,1556.7V717.1c-58.3,0-105.6-48.9-105.6-109.3H304.5c0,60.4-47.3,109.3-105.6,109.3v840.6
				c0.3,0,0.7,0,1,0c58,0,105.1,48.4,105.6,108.3h655.4C960.9,1605.7,1008.2,1556.7,1066.5,1556.7z"/>
			<path fill="#F5F5F5" d="M1044.8,1541.3V701.7c-58.3,0-105.6-48.9-105.6-109.3H282.8c0,60.4-47.3,109.3-105.6,109.3v840.6
				c0.3,0,0.7,0,1,0c58,0,105.1,48.4,105.6,108.3h655.4C939.2,1590.2,986.5,1541.3,1044.8,1541.3z"/>
			<g>
				<g>
					<path fill="none" stroke="#6CBAD4" stroke-width="3" stroke-linecap="round" stroke-linejoin="round" d="M1011.6,1518.5
						c3.1-0.3,6.1-0.4,9.3-0.4v-9.3"/>
					
						<line fill="none" stroke="#6CBAD4" stroke-width="3" stroke-linecap="round" stroke-linejoin="round" stroke-dasharray="26.7324,26.7324" x1="1020.9" y1="1489.9" x2="1020.9" y2="743.6"/>
					<path fill="none" stroke="#6CBAD4" stroke-width="3" stroke-linecap="round" stroke-linejoin="round" d="M1020.9,734.2v-9.3
						c-3.1,0-6.2-0.1-9.3-0.4"/>
					
						<path fill="none" stroke="#6CBAD4" stroke-width="3" stroke-linecap="round" stroke-linejoin="round" stroke-dasharray="28.4795,28.4795" d="
						M991.9,720.5c-35.2-11-62.2-41.6-69.1-79.6"/>
					<path fill="none" stroke="#6CBAD4" stroke-width="3" stroke-linecap="round" stroke-linejoin="round" d="M921.5,630.9
						c-0.3-3.1-0.4-6.2-0.4-9.3h-9.3"/>
					
						<line fill="none" stroke="#6CBAD4" stroke-width="3" stroke-linecap="round" stroke-linejoin="round" stroke-dasharray="25.7918,25.7918" x1="893.5" y1="621.6" x2="319.4" y2="621.6"/>
					<path fill="none" stroke="#6CBAD4" stroke-width="3" stroke-linecap="round" stroke-linejoin="round" d="M310.3,621.6H301
						c0,3.1-0.1,6.2-0.4,9.3"/>
					
						<path fill="none" stroke="#6CBAD4" stroke-width="3" stroke-linecap="round" stroke-linejoin="round" stroke-dasharray="28.4788,28.4788" d="
						M297,650.7c-10.4,36.7-39.9,64.9-76.6,72.3"/>
					<path fill="none" stroke="#6CBAD4" stroke-width="3" stroke-linecap="round" stroke-linejoin="round" d="M210.5,724.5
						c-3.1,0.3-6.1,0.4-9.3,0.4v9.3"/>
					
						<line fill="none" stroke="#6CBAD4" stroke-width="3" stroke-linecap="round" stroke-linejoin="round" stroke-dasharray="26.7668,26.7668" x1="201.2" y1="753.1" x2="201.2" y2="1500.3"/>
					<path fill="none" stroke="#6CBAD4" stroke-width="3" stroke-linecap="round" stroke-linejoin="round" d="M201.2,1509.7v9.3
						c0.3,0,0.6,0,0.9,0c2.8,0,5.6,0.1,8.3,0.4"/>
					
						<path fill="none" stroke="#6CBAD4" stroke-width="3" stroke-linecap="round" stroke-linejoin="round" stroke-dasharray="28.4699,28.4699" d="
						M230.2,1523.1c35.3,10.7,62.5,41.1,69.8,78.9"/>
					<path fill="none" stroke="#6CBAD4" stroke-width="3" stroke-linecap="round" stroke-linejoin="round" d="M301.4,1612
						c0.3,3.1,0.5,6.1,0.5,9.3h9.3"/>
					
						<line fill="none" stroke="#6CBAD4" stroke-width="3" stroke-linecap="round" stroke-linejoin="round" stroke-dasharray="25.7521,25.7521" x1="329.4" y1="1621.3" x2="902.7" y2="1621.3"/>
					<path fill="none" stroke="#6CBAD4" stroke-width="3" stroke-linecap="round" stroke-linejoin="round" d="M911.8,1621.3h9.3
						c0-3.1,0.1-6.2,0.4-9.3"/>
					
						<path fill="none" stroke="#6CBAD4" stroke-width="3" stroke-linecap="round" stroke-linejoin="round" stroke-dasharray="28.4784,28.4784" d="
						M925.1,1592.2c10.4-36.7,39.9-64.9,76.6-72.3"/>
				</g>
			</g>
		</g>
		<g>
			<g>
				
					<line fill="none" stroke="#637986" stroke-width="14" stroke-linecap="round" stroke-linejoin="round" stroke-miterlimit="10" stroke-dasharray="0,32.8457" x1="96.1" y1="500.7" x2="96.1" y2="-9"/>
				<g>
					<g>
						<path fill="#F9D166" d="M124.8,631.1c0.2-0.2,0.3-0.5,0.5-0.7c13.9-13.9,14.6-21.1,14.6-21.1c-2.7-3.8-21.4,1.8-25.1-0.7
							c-5.6-3.6-5.3-14.1-6.2-20c-3.1-22.6-0.4-46.5,10.4-66.8c10.1-19,27.4-29.8,45.1-40.9c0.7-0.4,1.3-2.3,0.7-3.9
							c-0.7-1.6-4.6-3.1-6.8-3.4c-4.2-0.5-8.6-0.3-12.8-0.4c-2.4,0-4.7,0-7,0.2c-8.5,0.6-16.9,2.1-25.1,4.3
							c-3.3,0.9-6.5,1.9-9.7,3.1c-57.5,21.7-90.3,94.1-61.2,171.3c29.1,77.2,101.7,110.8,165.2,90.1c29.5-9.6,57.3-27.8,72.2-59.4
							c0.9-1.9,2.4-6.2,1.4-7.3c-1.3-1.3-4.4,0.1-5.8,0.7c-2.8,1.2-4.3,1.8-7.1,2.7c-20.7,7.1-41.2,13.6-63.4,11.9
							c-20.2-1.6-39-9.8-55.4-21.5c-10.4-7.4-14.7-13.7-20.9-24.9C125.8,639.8,121.6,635.6,124.8,631.1z"/>
						<path fill="#EDECEB" d="M241.3,717c-26.6,12.2-43.7,19.3-73.5,18.7c-13.9-0.3-35.9-4.3-48.8-9.8c-11.7-5-22.4-12.7-32.1-20.9
							c-15.6-13.1-29.5-28.3-41.4-44.9c31,71.6,100.7,102.2,162,82.2c26.6-8.7,51.9-24.4,67.5-50.6
							C264.6,699.7,253.1,711.6,241.3,717z"/>
					</g>
					
						<path fill="none" stroke="#E7A318" stroke-width="4.049" stroke-linecap="round" stroke-linejoin="round" stroke-miterlimit="10" d="
						M103.6,658.1c0.2,3.1,4.2,6.4,6.8,7.4c6.3,2.4,12.7-0.8,14.8-6.9"/>
					
						<path fill="none" stroke="#E7A318" stroke-width="4.049" stroke-linecap="round" stroke-linejoin="round" stroke-miterlimit="10" d="
						M81.1,604.8c6.3,5.1,18.1,3.5,23.8-3.9"/>
					<g>
						<path fill="#DF6650" d="M179.9,535.6c-2.1,0.9-6.5-0.7-7.3-2.2c-4.7-8.7-18-53.2-51.2-11.6c-2.2,2.8-3.7,6.7-7.3,4.3
							c-8.4-5.6-19-13.4-25.5-19.7c-4.3-4.2-7.9-8.4-13.1-11.3c-0.1,0-0.2-0.1-0.3-0.2c-0.3-0.2-0.6-0.3-0.9-0.4
							c-0.1-0.1-0.3-0.2-0.5-0.2c-0.1-0.1-0.2-0.1-0.3-0.1c0-0.1,0-0.2,0.1-0.3c0.4-1.1,1.7-3.1,2.8-4.7c0,0,0-0.1,0.1-0.1
							c0.5-0.8,1-1.4,1.2-1.7c1.2-1.6,2.4-3.1,3.5-4.6c0.1-0.1,0.1-0.2,0.2-0.3c0.3-0.4,0.6-0.8,0.9-1.1c0.6-0.7,1.2-1.4,1.8-2.2
							c0.3-0.3,0.6-0.7,0.9-1c0.9-1,1.8-2,2.7-2.9c6.4-6.4,13.1-10.7,22.8-13.6c5.1-1.5,10.5-1.7,15.8-1.7
							c6.2-0.1,12.1,0.1,17.9,2.4c5.7,2.2,10.9,5.7,15.8,9.3c0.2,0.1,0.4,0.3,0.6,0.5c16,12.2,20.3,32.9,21.5,46.9
							C182.7,525.1,184.5,533.6,179.9,535.6z"/>
						<path opacity="0.3" fill="#978281" d="M164.8,476c-9.7-6.8-20-11-29.2-11.8c-25.6-2.3-46.4,14-58.2,32c-0.2-0.1-1-0.5-1.9-1
							c-0.1,0-0.2-0.1-0.3-0.2c-0.3-0.2-0.6-0.3-0.9-0.4c-0.1-0.1-0.3-0.2-0.5-0.2c-0.1-0.1-0.2-0.1-0.3-0.1c0-0.1,0-0.2,0.1-0.3
							c0.4-1.5,1.6-3.1,2.8-4.7c0,0,0-0.1,0.1-0.1c1-1.3,2-2.5,2.7-3.5c0.6-0.9,1.3-1.9,2-2.8c0.1-0.1,0.1-0.2,0.2-0.3
							c0.3-0.4,0.6-0.8,0.9-1.1c0.6-0.7,1.2-1.4,1.8-2.2c0.3-0.3,0.6-0.7,0.9-1c0.9-1,1.8-2,2.7-2.9c6.4-6.4,13.1-10.7,22.8-13.6
							c5.1-1.5,10.5-1.7,15.8-1.7c6.2-0.1,12.1,0.1,17.9,2.4c5.7,2.2,10.9,5.7,15.8,9.3c0.2,0.1,0.4,0.3,0.6,0.5
							C162,473.2,163.4,474.6,164.8,476z"/>
						<path fill="#EDECEB" d="M75.4,490.5c-0.9,1.3-1.6,2.6-1.8,3.8c6.3,2.8,10.1,7.5,15,12.2c6.5,6.3,17.1,14.1,25.5,19.7
							c2.9,1.9,4.3-0.3,6-2.7C108,510.2,91.4,498.3,75.4,490.5z"/>
						<g>
							<path fill="#DF6650" d="M113.2,540.1c-1.1-0.7-2.1-1.3-3-2c-1.1-0.7-2.1-1.4-3-2c-1.9-1.3-3.6-2.5-5.2-3.6l-0.5-0.3
								c-0.8-0.6-1.7-1.2-2.5-1.8l-0.5-0.3c-1.7-1.3-3.5-2.6-5.3-3.9c-0.9-0.7-1.9-1.4-2.9-2.2c-1.7-1.3-3.6-2.7-5.6-4.2
								c-0.3-0.2-0.5-0.4-0.8-0.6l-0.3-0.2c-0.5-0.4-1.1-0.8-1.8-1.3c-0.2-0.2-0.5-0.4-0.8-0.6c-1.5-1-3.2-2.2-5-3.5
								c-1-0.7-2-1.4-2.9-2.1c-1.6-1.1-3-2.2-4.3-3.3c-1.1-0.9-2-1.7-2.8-2.5c-0.3-0.3-0.6-0.7-0.9-1c-2-2.5,2.4-7.2,4.8-10.4
								c0.8-1.1,2.4-1.3,4.3-0.8c1.1,0.3,2.3,0.8,3.6,1.4c1.5,0.7,3.1,1.7,4.8,2.8c1,0.7,2,1.3,3,2.1c1.9,1.4,3.9,2.8,5.6,4.2
								c0.3,0.2,0.5,0.4,0.8,0.7c0.4,0.3,0.9,0.7,1.3,1c0.2,0.2,0.5,0.4,0.7,0.6c2.2,1.8,3.9,3.2,4.8,3.8l0.7,0.5
								c0.9,0.7,1.9,1.4,2.9,2.1c1.7,1.3,3.5,2.6,5.3,4c0.1,0.1,0.3,0.3,0.5,0.4c0.8,0.6,1.6,1.3,2.4,1.9c0.2,0.1,0.3,0.3,0.5,0.4
								c2.1,1.7,4.1,3.4,5.8,5c1,0.9,1.9,1.7,2.7,2.5c0.4,0.3,0.7,0.7,1,1C123.5,530.9,115.8,538.3,113.2,540.1z"/>
							<g>
								<path fill="#EDECEB" d="M75.2,512.8c-1-0.7-2-1.4-2.9-2.1c2.5-4.4,5.9-9.7,9.4-13.8c1,0.7,2,1.3,3,2.1
									C81.9,502.1,78.5,507,75.2,512.8z"/>
							</g>
							<g>
								<path fill="#EDECEB" d="M84,519l-0.3-0.2c-0.5-0.4-1.1-0.8-1.8-1.3c-0.2-0.2-0.5-0.4-0.8-0.6c2.5-4.3,5.8-9.6,9.3-13.6
									c0.5,0.4,1.1,0.7,1.7,1.1c0.4,0.3,0.9,0.7,1.3,1C90.5,508.6,87.3,513.3,84,519z"/>
							</g>
							<g>
								<path fill="#EDECEB" d="M101.4,532.1c-0.8-0.6-1.7-1.2-2.5-1.8l-0.5-0.3c2.5-4.3,5.8-9.5,9.2-13.4c0.1,0.1,0.3,0.3,0.5,0.4
									c0.8,0.6,1.6,1.3,2.4,1.9C107.8,521.9,104.6,526.6,101.4,532.1z"/>
							</g>
							<g>
								<path fill="#EE7D58" d="M68.8,508c-1.1-0.9-2-1.7-2.8-2.5c2.3-3.9,5.2-8.4,8.2-12.2c1.1,0.3,2.3,0.8,3.6,1.4
									C75,498,71.9,502.6,68.8,508z"/>
							</g>
							<g>
								<path fill="#EE7D58" d="M76,513.4c-1-0.7-2-1.4-2.9-2.1c2.5-4.4,5.9-9.7,9.4-13.8c1,0.7,2,1.3,3,2.1
									C82.7,502.8,79.4,507.6,76,513.4z"/>
							</g>
							<g>
								<path fill="#EE7D58" d="M84.8,519.6c-0.4-0.3-0.7-0.6-1.1-0.8c-0.5-0.4-1.1-0.8-1.8-1.3l0,0c2.8-4.4,6.6-10.2,9.3-13.6
									c1,0.8,1.9,1.5,2.8,2.3c-2.6,3.3-6.3,9-9.1,13.3L84.8,519.6z"/>
							</g>
							<g>
								<path fill="#EE7D58" d="M90.3,523.9L90.3,523.9c2.8-4.3,6.4-10,9.1-13.4c0.9,0.7,1.9,1.4,2.9,2.1c-2.6,3.3-6.2,8.9-9,13.2
									l-0.2,0.3C92.3,525.3,91.4,524.6,90.3,523.9z"/>
							</g>
							<g>
								<path fill="#EE7D58" d="M101.9,532.4c-1-0.7-2-1.4-2.9-2.1c2.9-4.1,6.9-9.9,9.2-13.4c1,0.8,1.9,1.5,2.9,2.3
									C108.5,523,104.7,528.6,101.9,532.4z"/>
							</g>
							<g>
								<path fill="#EE7D58" d="M119.5,526.7c-2.5,3.4-6.4,7.9-9.4,11.4c-1.1-0.7-2.1-1.4-3-2l0.1-0.1c3.1-3.6,7.2-8.4,9.6-11.8
									C117.8,525,118.7,525.9,119.5,526.7z"/>
							</g>
						</g>
						<path fill="#DF6650" d="M169.7,531.7c-5.4,7,1.8,19,10.5,17.2c8.3-1.7,12-14.7,4.7-19.8c-2.5-1.7-5.8-2.5-8.7-1.7
							C173.8,528.2,171.3,529.7,169.7,531.7z"/>
					</g>
				</g>
			</g>
			<g>
				
					<line fill="none" stroke="#637986" stroke-width="10" stroke-linecap="round" stroke-linejoin="round" stroke-miterlimit="10" stroke-dasharray="0,32.8457" x1="968.1" y1="254.6" x2="968.1" y2="-6"/>
				<g>
					<g>
						<path fill="#EF8AA7" d="M953,291.4c-12.3,11-14.1,29-4.1,40.1c10,11.1,28,11.2,40.3,0.2c12.3-11,14.1-29,4.1-40.1
							C983.3,280.4,965.3,280.3,953,291.4z M983.2,325c-6,5.5-14.1,9-21.8,5.8c-8-3.3-13-11.9-11.1-20.5c0.9-4.3,3.7-11.1,7.1-14.1
							c9.3-8.4,25.8-7.4,31.8,2.3C995.1,308,990.9,318,983.2,325z"/>
						<path fill="#F3F0EE" d="M987,329.6c-6.7,5.8-16.9,10.5-26.1,9.3c9.2,2.6,20.1,0.2,28.3-7.2c6.7-6,10.3-14,10.5-21.9
							C997.9,317.5,993,324.5,987,329.6z"/>
						<path fill="#E8E6E4" d="M956,327.5c-4.7-4.2-7.2-10.7-5.8-17.1c0.9-4.3,3.7-11.1,7.1-14.1c8.9-8,24.3-7.5,30.9,1
							c1.9-1.9,4.1-3.1,6.6-3.8c-0.5-0.6-1-1.3-1.5-1.9c-10-11.1-28.1-11.2-40.3-0.2c-12.3,11-14.1,29-4.1,40.1
							c0.5,0.6,1.1,1.2,1.7,1.7C952.1,331,953.9,329,956,327.5z"/>
					</g>
					<path fill="#F29DBA" d="M986,254.4c-8.7-8.6-21.1-9-29.1,0c-3.3,3.7-4.8,7.7-6.4,12.3c-2.1,5.9-5.9,11.2-10.8,15.1
						c-4.5,3.7-10,6.3-15.8,7.2c-5.3,0.8-11.6,4.7-14.6,9.9c-3.7,6.4,0.3,17.1,4.5,22.5c8,10.4,23.5,8.2,33.9,3.5
						C966.6,316.2,1010,278.1,986,254.4z M927.7,312.9c-2.1,1.9-5.3,1.7-7.2-0.4c-1.9-2.1-1.7-5.3,0.4-7.2c2.1-1.9,5.3-1.7,7.2,0.4
						C930,307.8,929.8,311,927.7,312.9z M975.7,269.8c-2.1,1.9-5.3,1.7-7.2-0.4c-1.9-2.1-1.7-5.3,0.4-7.2c2.1-1.9,5.3-1.7,7.2,0.4
						C978,264.7,977.8,267.9,975.7,269.8z"/>
					<path opacity="0.3" fill="#CACBC5" d="M923.9,289c-5.3,0.8-11.6,4.7-14.6,9.9c-3.7,6.4,0.3,17.1,4.5,22.5
						c1.8,2.3,3.9,4,6.3,5.2c-2.8-2.9-5.1-6.2-6.8-9.9c-2-3.8-3.2-8.7-2.5-12.8c0.9-5.6,3.5-9.1,8.1-11.9c2.3-1.4,5-3.1,8.4-3.8
						C926.2,288.5,925.1,288.8,923.9,289z"/>
					<path fill="#F3F0EE" d="M986,254.4c-2.6-2.6-5.6-4.5-8.7-5.5c4.4,3.3,7.8,9,9.6,12.9c3.7,8.3,0.9,17.5-3.5,25
						c-5,8.6-11.9,16-19.2,22.7c-9.1,8.4-19.7,15.1-31.3,19.2c5.2-0.4,10.4-1.9,14.7-3.9C966.6,316.2,1010,278.1,986,254.4z"/>
					<path fill="#F7D19D" d="M964.2,286.7c-0.4-5.1-6-8.4-9.6-11.2c-10.8-8.8-10.2-24.5-19.1-34.5c-15.4-17.2-38.5,4.8-34.7,19.2
						c3.7,13.9,16.6,17.3,25.7,22.2c9.7,5.2,10.9,17.4,19.4,20.8C951.7,305.5,964.9,295.9,964.2,286.7z"/>
					<path fill="#F3F0EE" d="M935.5,241c-8.3-9.3-18.9-7.1-26.2-1c3.2-0.9,8.1-2,11.2-1.5c8,1.3,14.2,7.4,17.1,14.8
						c2,4.9,1.9,9.6,4.3,14.3c1.4,2.7,3.3,6.1,5.7,7.9c2,1.5,6.3,4.5,8.4,5.9c6.7,4.6,5.6,12.4,0.7,18.4c4.3-3.3,7.8-8.3,7.4-13.1
						c-0.4-5.1-6-8.4-9.6-11.2C943.8,266.7,944.4,250.9,935.5,241z"/>
					<path opacity="0.3" fill="#CACBC5" d="M925.5,277.2c-0.6,0.2-1.5-0.1-2.7-1c-3.2-2.3-6.2-4.8-9.3-7.2
						c-3.6-2.9-8.1-6.9-8.6-11.8c-0.3-2.8,0.8-6.4,2.3-8.9c2.9-4.7,11.2-8.5,14.6-2.2c2.6,4.8-1.7,7.4-1.6,13.1
						c0.1,4.2,4.2,8,5.4,10.8C926.5,272.2,928.5,276.3,925.5,277.2z"/>
				</g>
			</g>
			<g>
				
					<line fill="none" stroke="#637986" stroke-width="14.9671" stroke-linecap="round" stroke-linejoin="round" stroke-miterlimit="10" stroke-dasharray="0,32.8457" x1="1090.3" y1="505.1" x2="1090.3" y2="-7.5"/>
				<g>
					<path fill="#F9D166" d="M1048.1,449.3c10.8,23.2,0.6,50.8-22.6,61.5c-23.2,10.8-50.8,0.6-61.5-22.6
						c-10.8-23.2-0.6-50.8,22.6-61.5C1009.8,415.9,1037.3,426,1048.1,449.3z"/>
					<path opacity="0.4" fill="#CDCCC0" d="M970.5,459.6c2.2-4.6,5.6-8.5,9.5-11.7c2.4-1.9,5-3.6,7.7-5.1c8.9-4.8,19.1-9.1,29.4-8.9
						c2.6,0.1,5.3,0.5,7.8,1.5c1.3,0.5,5.7,3.7,7.1,2.5c1-0.9,0.3-2.8-1.3-4.2c-3.9-3.3-12.8-6.5-16.5-7.4c-2.2-0.5-4.4-0.8-6.6-0.8
						c-2.8-0.1-5.7,0.1-8.5,0.5c-3.8,0.6-7.8,1.8-11.4,3.5c-10.9,5-20,15.1-23,26.9c-0.7,2.5-2.7,11.2-2.1,14.7
						c0.3,1.6,1.3,5,2.9,2.2c1.7-3,2.4-6.4,3.4-9.6C969.4,462.3,969.9,460.9,970.5,459.6z"/>
					<path fill="#F9D166" d="M1181.9,504.1c2.8,29.5-13.8,59.7-44.3,77.9c-18.2,10.9-55.4,26.1-82,6.1
						c-16.1-12.1-18.5-35.7-30.5-54.4c-4.2-6.6-9.5-12.5-17-17.2c-0.4-0.2-0.8-0.5-1.2-0.7c-0.3-0.2-0.7-0.4-1-0.6
						c-0.4-0.2-0.7-0.4-1.1-0.6c-0.4-0.2-0.7-0.4-1.1-0.6c-0.4-0.2-0.8-0.4-1.1-0.6c-0.4-0.2-0.8-0.4-1.2-0.5c0,0-0.1,0-0.1-0.1
						c-1.1-0.5-2.3-1-3.5-1.4l53.5-52.7c2.6,28.3,7.3,40.6,31.8,40.3c28.2-0.3,43.1-24.4,39.5-49.9c-1.3-9-4.3-15.9,6.4-20.7
						c10.5-4.6,22.9,6.3,30.3,17.5C1169,460.3,1180.3,486.3,1181.9,504.1z"/>
					<path fill="#F3F0EE" d="M1018.6,496.3c-0.9,5.1-0.3,10.4,1.2,15.9c1.9,7,5.1,14.2,5.4,21.5c-4.2-6.6-9.5-12.5-17-17.2
						c-0.4-0.2-0.8-0.5-1.2-0.7c-0.3-0.2-0.7-0.4-1-0.6c-0.4-0.2-0.7-0.4-1.1-0.6c-0.4-0.2-0.7-0.4-1.1-0.6
						c-0.4-0.2-0.7-0.4-1.1-0.6c-0.4-0.2-0.8-0.4-1.2-0.5c0,0-0.1,0-0.1-0.1c-0.3-0.1-0.6-0.3-1-0.4
						C1007.2,507.9,1013.1,502.3,1018.6,496.3z"/>
					<path fill="#F3F0EE" d="M1170,537.3c-8.8,13-18.4,21.3-32.1,29.2c-14.5,8.3-34.1,13.3-50.8,15c-8.3,0.9-16.9,1-25.2-0.4
						c-6.6-1.1-12.1-4.8-18.1-7.3c2.9,5.4,6.5,10.4,11.7,14.3c26.6,20,63.7,4.8,82-6.1c29.7-17.7,46.2-46.9,44.5-75.7
						C1180,519.5,1175.9,528.6,1170,537.3z"/>
					<path fill="#EE7D58" d="M956.3,515.1c14,14.4,43.5,18.4,60.1-11.4c3.2-5.7,4.9-14.6,5.3-19.7c-9.3,9.9-25.6,13.8-41.3,10.6
						C970.4,517.3,956.3,515.1,956.3,515.1z"/>
					<path opacity="0.3" fill="#BFAB88" d="M975.6,510.1c3.4-2.9,6.3-6.8,10.5-8.6c4.4-1.8,9.2-2.5,13.6-4.3
						c2.8-1.2,5.5-2.6,8.1-4.2c-8.2,3-17.9,3.6-27.3,1.7c-10,22.6-24.1,20.4-24.1,20.4c1,1,2.1,2,3.2,2.9
						C965.7,518,971.1,514,975.6,510.1z"/>
					<path fill="#F3F0EE" d="M1016.2,488.8c-0.4,4.5-1.1,9.2-3.7,13c-3.9,5.7-10.1,10.9-15.9,14.5c-8.9,5.5-19.9,8.2-30.2,6.1
						c15.2,7.4,36.8,5.2,50-18.6c3.2-5.7,4.9-14.6,5.3-19.7C1020.1,485.9,1018.3,487.4,1016.2,488.8z"/>
					<g>
						<path fill="#5D514D" d="M1016.3,460.1c2.1,4.7,1.2,9.7-2.1,11.2c-3.3,1.5-7.8-1-9.9-5.6c-2.2-4.7-1.2-9.7,2.1-11.2
							C1009.7,452.9,1014.1,455.4,1016.3,460.1z"/>
						<path fill="#E2E0DE" d="M1012.4,466.4c-2.5,1.7-5.3,2-7.6,0.4c2.3,3.9,6.3,5.9,9.3,4.5c3.2-1.5,4.2-6.1,2.4-10.6
							C1015.7,462.9,1014.3,465.1,1012.4,466.4z"/>
						<path fill="#EDE9E4" d="M1012,455.6c0.5,1.2,0,2.5-1.1,3.1c-1.2,0.5-2.5,0-3.1-1.1c-0.6-1.2,0-2.5,1.1-3.1
							C1010.1,453.9,1011.5,454.4,1012,455.6z"/>
						<path fill="#EDE9E4" d="M1010.3,468.6c0.3,0.6,0,1.3-0.6,1.5c-0.6,0.3-1.3,0-1.5-0.6c-0.3-0.6,0-1.3,0.6-1.5
							C1009.3,467.7,1010,468,1010.3,468.6z"/>
					</g>
					<path opacity="0.4" fill="#CDCCC0" d="M1136.5,430.8c5.3,1,6.2,5.9,4.1,8.2c-3.5,3.9-9.2,2.8-9.1,11.1c0.1,2.4,1.2,8.1-1.1,9.6
						c-3.4,2.4-3.9-4-4.1-6c-0.4-6.1-2.6-14.1,0.8-19.7C1129.2,430.5,1132.8,430,1136.5,430.8z"/>
				</g>
			</g>
			<g>
				
					<line fill="none" stroke="#637986" stroke-width="10" stroke-linecap="round" stroke-linejoin="round" stroke-miterlimit="10" stroke-dasharray="0,32.8457" x1="224.9" y1="205.3" x2="224.9" y2="-7"/>
				<g>
					<path fill="#BDDFEE" d="M218.7,308.6c4.5,4.5,11.2,3.1,16.6,1.4c7.7-2.5,15.2-5.8,22.5-9.3c5.8-2.8,13.4-4.9,15.6-11.8
						c2.6-8.2-3.5-16.7-7.5-23.3c-4.1-6.8-8.6-13.3-13.1-19.9c-2.9-4.2-5.5-8.5-7.5-13.2c-2-4.7-2.8-9.8-4.4-14.6
						c-1.4-4.2-6.6-10.9-10.8-13c-1.8-0.9-4.5-1-6.4-0.2c-7.8,3.4-12.7,5.5-20.5,8.8c-4.5,1.9-7.7,2.9-10.7,6.9
						c-2.9,4-5.1,14,0.4,21.6c2.7,3.7,4.8,8,6.4,12.2c3.1,8.5,3.4,14.8,6.5,23.4c1.1,3.2,3.2,9.2,4.3,12.4
						C212.3,296.3,213.8,303.7,218.7,308.6z"/>
					<path fill="#EDE9E4" d="M209.8,277c-1.2-3.5-1.9-6.5-2.6-9.5c0.4-0.6,0.9-1.2,1.5-1.6c3.1-2.5,5.8-1.8,9.2-0.5
						c6.8,2.5,14,4.1,21.2,2.2c5.2-1.4,13.3-5.3,16.9-10.7c2.1,3.2,4.3,6.4,6.2,9.8c3.4,5.7,8.8,13.2,6.5,20.3
						c-1.9,6.1-8.6,7.9-13.7,10.3c-6.4,3.1-12.9,5.9-19.7,8.1c-4.7,1.5-10.6,2.7-14.5-1.2c-4.3-4.3-5.6-10.7-7.4-16.3
						C212.6,285,210.8,279.8,209.8,277z"/>
					<path opacity="0.3" fill="#B1C1C8" d="M227.9,230.7c2.5-1,5.1-2.2,7.3-3.4c2.2,7.3,4.9,13.8,8.5,20.6c3.7,7,9.8,13.5,14.3,20.1
						c2.2,3.3,10.9,20.5,11,20.6c-1.5,2.1-5.1,4.3-8.9,5.9c-2.5-6.2-9-16.7-10.9-20.3c-4.3-8.1-10.3-14.6-13.7-23.1
						C232.7,244.2,230.3,237.7,227.9,230.7z"/>
					<path opacity="0.3" fill="#B1C1C8" d="M224.9,221.5c2.7-0.9,5-2.7,7.7-4.1c0.6,1.8,1.2,3.7,1.7,5.5c-2.3,1.4-4.9,2.9-7.6,3.8
						c-0.2-0.5-0.4-1.1-0.6-1.6C225.6,224,225.3,222.7,224.9,221.5z"/>
					<path fill="#E3EBEE" d="M226.1,218.8c-4.9,2.5-9.7,4.2-14.6,6.3c-4.9,2.2-10.5,4.3-15.7,5.8c-2.1,0.6-3.9,1.3-6.1,1
						c-0.2-4.8,1.2-9.3,2.9-11.7c2.9-4,6.2-5,10.7-6.9l20.5-8.8c1.9-0.8,4.6-0.7,6.4,0.2c2.2,1.1,4.7,3.5,6.8,6.2
						C234.5,214.8,230.1,216.8,226.1,218.8z"/>
					<path fill="#E3EBEE" d="M218.6,233.7c4.5-2.2,11.6-6.1,15.3-8.1c3.2-1.8,4.9-2.8,8-5.3c0.3,1.1,0.6,2.2,0.9,3.2
						C237.4,226.3,224.2,233.2,218.6,233.7z"/>
					<path fill="#E6EFF5" d="M210.3,289.9c-1-3.2-3.2-9.3-4.3-12.4c-3-8.6-3.3-14.8-6.5-23.4c-1.6-4.2-3.7-8.6-6.4-12.2
						c-5.5-7.6-3.3-17.6-0.4-21.6c0-0.1,0.1-0.1,0.1-0.2c-0.5,4.5-1.4,9.9-0.5,14.4c1.1,5.7,5,8.9,7.6,14.1c5,9.8,6.7,20,10.9,31.3
						c2.9,8,4.1,17.9,10.1,24.3c2.9,3.1,9.6,5.9,14.8,5.6c-0.2,0.1-0.3,0.1-0.5,0.2c-5.4,1.8-12.1,3.1-16.6-1.4
						C213.8,303.7,212.3,296.3,210.3,289.9z"/>
					<g>
						<g>
							<path fill="#F7D19D" d="M193.4,212.3c2.4-1.5,4.8-2.8,7.2-4.1c0,0,0,0,0,0c-1.4-5.5-7.3-7.9-9.4-12.9
								c-3.7-8.6,8.3-13.3,12.9-9.5c4.5,3.7,3.5,9.1,3.8,13.2c0.1,2,1,3.5,2,5c0.8-0.3,1.7-0.6,2.5-0.9c3.7-1.2,5.6-2,10.4-2.9
								c1.4-0.3,5.8-1.6,5.9,0.4c0,2.1-4.8,3.6-6.3,4.2c-2.2,0.9-4.4,2-6.8,2.5c-1.3,0.3-2.4,0.7-3.6,1.1c0.1,0.4,0.1,0.8,0.1,1.3
								c-0.1,2.5-5.9,5.7-9.2,3.9c-0.2-0.1-0.4-0.2-0.5-0.4c-2.4,1.2-4.9,2.3-7.4,3.2c-2.5,0.9-6.3,2.1-8.7,3
								C185.8,216.7,191.5,213.5,193.4,212.3z"/>
							<path fill="#F8F2E0" d="M188.3,216.5c-0.4,0.3-0.9,0.6-1.3,0.9c1.4-2.1,5-4.2,6.5-5.1c2.4-1.5,4.8-2.8,7.2-4.1c0,0,0,0,0,0
								c-1.4-5.5-7.3-7.9-9.4-12.9c-1.4-3.2-0.5-5.9,1.3-7.8c-2.6,6,1.3,10.3,5.7,13.9c5.2,4.2,5.3,6.9,2.3,8.6
								c-3.3,1.8-6,2.8-9.2,4.6C190.2,215.2,189.3,215.9,188.3,216.5z"/>
							<path opacity="0.3" fill="#CACBC5" d="M206.2,197.8c0.2-0.2,0.2-0.6,0.1-1.2c-0.3-1.6-0.7-3.1-1.1-4.6
								c-0.5-1.8-1.2-4.2-2.9-5.2c-1-0.6-2.5-0.8-3.6-0.6c-2.2,0.3-5,2.7-3.3,5c1.3,1.8,3,0.6,5.1,1.6c1.6,0.7,2.2,2.9,3.1,3.8
								C204.2,197.3,205.4,198.7,206.2,197.8z"/>
						</g>
						<g>
							<path fill="#E06B68" d="M184.9,225.5l0.3,0.7c1.5,3.5,3.5,5.9,7.4,4.4c0.1,0,0.1,0,0.2-0.1l41-17.7c0.1,0,0.2-0.1,0.3-0.1
								c3.6-1.7,2.8-4.7,1.4-8.1l-0.3-0.7c-1.5-3.5-3.1-6.1-7-4.5c-0.1,0-0.1,0-0.2,0.1l-41,17.7C182.9,218.8,183.4,222,184.9,225.5
								z"/>
							<g>
								<path fill="#E28079" d="M230.9,214l2.8-1.2c0.1,0,0.2-0.1,0.3-0.1c-1.7-5-3.5-9.1-5.9-13.3c-0.1,0-0.1,0-0.2,0.1l-2.9,1.3
									C227.4,204.9,229.2,209,230.9,214z"/>
							</g>
							<g>
								<path fill="#E28079" d="M223.5,217.2l3.1-1.3c-1.7-5-3.5-9.1-5.9-13.4l-3.1,1.3C220,208.1,221.8,212.2,223.5,217.2z"/>
							</g>
							<g>
								<path fill="#E28079" d="M216.1,220.4l3.1-1.3c-1.6-4.3-4-9.4-6-13.4l-3.1,1.3C212.1,211,214.5,216.2,216.1,220.4z"/>
							</g>
							<g>
								<path fill="#E28079" d="M207.2,223.5l0.3,0.6l3.1-1.3l-0.3-0.6c-1.5-3.6-3.6-8.5-5.6-12.8l-3.1,1.3
									C203.6,215,205.7,219.9,207.2,223.5z"/>
							</g>
							<g>
								<path fill="#E28079" d="M200,227.4l3.1-1.3c-2.1-4.6-4.3-9.5-5.7-13.5l-3.1,1.3C195.8,217.9,197.9,222.8,200,227.4z"/>
							</g>
							<g>
								<path fill="#E28079" d="M192.5,230.6c0.1,0,0.1,0,0.2-0.1l2.9-1.2c-2.5-4.7-4.2-8.8-5.6-13.5l-3.1,1.3
									C188.3,221.8,190.1,225.9,192.5,230.6z"/>
							</g>
						</g>
					</g>
					<g>
						<g>
							<path fill="#8AC0E1" d="M198.1,242.2c0.7-0.4,3.1-1.7,4.8-2.2l-0.4-1.1c-1.8,0.6-4.3,1.9-5.1,2.3L198.1,242.2z"/>
						</g>
						<g>
							<path fill="#8AC0E1" d="M200.1,246.8c0.7-0.4,3.1-1.7,4.8-2.2l-0.4-1.1c-1.8,0.6-4.3,1.9-5.1,2.3L200.1,246.8z"/>
						</g>
						<g>
							<path fill="#8AC0E1" d="M202.1,251.4c0.5-0.3,1.7-0.9,3-1.5c0.6-0.3,1.3-0.5,1.8-0.7l-0.4-1.1c-1.8,0.6-4.3,1.9-5.1,2.3
								L202.1,251.4z"/>
						</g>
						<g>
							<path fill="#8AC0E1" d="M209.5,259.2c0.5-0.2,1.1-0.5,1.5-0.7l-0.5-1c-1.6,0.9-4.2,1.8-4.9,2l0.3,1.1
								C206.5,260.4,208.1,259.9,209.5,259.2z"/>
						</g>
						<g>
							<path fill="#8AC0E1" d="M207.5,254.6c0.5-0.2,1.1-0.5,1.5-0.7l-0.5-1c-1.6,0.9-4.2,1.8-4.9,2l0.3,1.1
								C204.5,255.8,206.1,255.2,207.5,254.6z"/>
						</g>
					</g>
				</g>
			</g>
		</g>
		<g>
			<g>
				<path fill="#FFFFFF" d="M672.1,470.1c-0.3-0.2-0.7-0.3-1-0.5c-0.5-0.2-1.4-0.5-2.6-0.5c-2.9,0-5.6,1.7-6.8,4.2
					c-1.1,2.2-2.2,4.1-3.3,5.7c-0.3-6.1-0.9-10.6-1-11.4c-0.5-5.4-4.5-7.9-7.9-7.9c-4.9,0-9.8,4.9-9.8,9.8c0,5.6-0.9,12.9-2.1,18.2
					c-0.1-1.7-0.2-3.9-0.2-6.5c0-2.1,0-4.1,0.1-5.9c0-1.5,0-2.8,0-3.8c0-9.1-4.8-10.5-7.7-10.5c-4.8,0-9.1,4.5-9.7,8.4
					c0,0.2,0,0.4-0.1,0.6c0,1.1-0.1,2.5-0.2,4.1c-2.8-8.1-8.7-12.8-17.1-12.8c-8.5,0-15.7,5.9-17.8,13.8c-1,2-2,3.8-3,5.4
					c-2-6-6.7-10.3-13.6-12.5c3.1-5.2,5-11.1,5-16.4c0-9.7-6.1-16.3-15.1-16.3c-2.7,0-5.4,0.6-7.9,1.7c-1.5-1.3-3.3-1.7-4.7-1.7
					c-5,0-10.2,5.4-10.7,11.2c-1.1,13.9-1.7,25.6-1.7,35c0,8.5,0.4,15.3,1.4,20.2c0.9,4.7,4.7,8.1,9.1,8.1c1.8,0,3.4-0.5,4.7-1.4
					c3.1,0.9,6.6,1.4,10.3,1.4c13.6,0,22.8-3.9,30.9-14c2.4,8.3,8,13.3,15.5,13.3c8.1,0,13.1-6.3,15.2-13.7
					c1.6,8,5.4,12.6,11.4,13.7c-1.4,3.5-2.3,7.1-2.3,10.2c0,7.6,4.8,12.4,12.5,12.4c13.8,0,15.2-18.7,15.9-28.7
					c0.1-0.9,0.1-1.7,0.2-2.5c7.9-6.3,13.2-12.7,17.1-20.5c0.1-0.2,0.2-0.5,0.3-0.8c0.2-0.5,0.5-1.4,0.5-2.6
					C675.9,473.9,674.5,471.4,672.1,470.1z M606.6,483.1C606.6,483.1,606.6,483.1,606.6,483.1c-0.1-0.5-0.1-1-0.2-1.5
					C606.5,482.2,606.6,482.7,606.6,483.1z M552.6,454.4c1-1.6,1.8-2.5,2.4-3.1c0,0,0,0.1,0,0.1c0,2.9-1,6.3-2.7,9.3
					C552.4,458.8,552.5,456.7,552.6,454.4z M551.8,482.2c1-0.2,1.9-0.3,2.8-0.3c10,0,10,3.7,10,5.5c0,3.1-6.4,7.2-10.1,7.2
					c-0.9,0-1.8-0.2-2.7-0.7c-0.1-3-0.1-6.2-0.1-9.5C551.8,483.7,551.8,482.9,551.8,482.2z"/>
				<path fill="#FFFFFF" d="M670.8,594.4c-0.3-0.2-0.7-0.3-1-0.4c-0.5-0.2-1.4-0.5-2.7-0.5c-0.2,0-0.4,0-0.5,0c-4,0-5.6,3-6.7,5.2
					c-0.8,1.5-2.1,4.2-4.7,8.7c-0.1-3.1-0.2-6.6-0.2-10.5c3.2-6,9.5-20.3,9.5-29.6c0-8.5-5.3-11.5-9.9-11.5
					c-17.5,0-17.5,29.6-17.5,39.3c0,1.8,0,3.4,0.1,5c-0.5,0.9-1.1,1.9-1.8,3c0.1-2.2,0.1-4,0.1-5.4c0-7.3-5.2-12.3-10-12.3
					c-0.7,0-1.8,0.1-3,0.6c-1.4-4.2-4.9-6.7-9.6-6.7c-3.5,0-6.5,1.5-8.6,3.8c-0.5-4.5-3.9-7.6-8.6-7.6c-5.5,0-9.3,5.2-9.3,10
					c0,2.2,0.7,4.1,1.8,5.5c-1.5,2.8-2,6.2-2.2,9.3c-0.7,1.1-1.4,2.2-2,3.1c-0.2-4-0.5-7.3-0.6-9.1c0-0.5-0.1-0.9-0.3-1.4
					c-1.3-3.9-5.5-7-9.5-7c-3.9,0-7.9,2.9-7.9,9.3c0,6.7-4.6,20.5-7.6,23.1c-3.7-0.8-4.6-9.4-4.6-14c0-7.8,2.4-16.2,5-22
					c1.2,2.5,3.8,4.3,6.8,4.3c6.1,0,8.8-6.7,8.8-13.4c0-7.9-4.9-13.2-12.3-13.2c-15.8,0-26.9,23.4-26.9,44.4
					c0,16.6,7.6,27.8,19.7,29.7c-0.8,2.3-1.3,4.7-1.3,7.2c0,8.5,6.2,14.9,14.4,14.9c12.2,0,14.5-18.9,16.1-31.5c0-0.2,0-0.3,0.1-0.5
					c1.1-0.8,2.2-1.6,3.3-2.4c1.8,10.3,5.5,12,9.1,12c3,0,8.1,0,21.8-25.3c0.1,0,0.2,0,0.2,0c0.2,13.4,1,25.3,9.9,25.3
					c1.9,0,5.2,0,12.2-9.7c2.7,8.3,6.7,9.7,10.1,9.7c5.2,0,9.2-4,16.4-16.3c5.9-10.1,7.3-13.5,7.7-14.5c0.2-0.6,0.3-1.2,0.3-1.8
					C674.7,598.3,673.2,595.7,670.8,594.4z"/>
				<path fill="#FFFFFF" d="M593,564.5c2.4,0,4.9-0.5,7.3-1.5c0.1,0,0.2-0.1,0.3-0.2c1.8-0.9,3.4-2,4.8-3.2c1.3,3,4.1,4.8,7.3,4.8
					c3.7,0,6.7-2.2,7.8-5.8c0.2-0.5,0.2-1.1,0.3-1.6l0.2-12.3c0.6-0.8,1.6-1.5,3.7-1.8c1.3,0,4.3-0.2,6.4-2.4c2-2,2.5-4.2,2.5-5.6
					c0-0.3,0-0.5-0.1-0.8l-0.1-0.5c-0.1-0.4-0.1-0.7-0.2-1c-1.1-3.3-3.9-5.4-7.2-5.7c-3-0.4-6,0-8.8,1.4c-0.1,0.1-0.2,0.1-0.4,0.2
					c-1.3-1.2-3-1.8-4.9-1.8h-0.3c-3,0-5.4,1.5-6.8,3.9c-3.4-3-7.1-3.7-10.1-3.7c-4.4,0-8.5,1.4-12.1,4.1c-0.1,0.1-0.2,0.2-0.3,0.3
					c-4.2,3.7-6.5,8.7-6.5,14.3v0.7c0,2.8,0.6,5.6,1.8,8.4c0.1,0.2,0.2,0.4,0.3,0.6C582.3,562.8,588.5,564.5,593,564.5z
					 M594.5,542.8L594.5,542.8c0.4,0.4,0.8,1.2,0.8,2.6v0.6c0,0.5-0.1,1-0.2,1.4c-0.9,1.2-1.6,1.2-2,1.2c0,0-0.1,0-0.3,0
					c-0.7-0.5-1-1.1-1-2.4v-0.6c0-0.4,0.1-0.9,0.2-1.4C592.4,543.2,592.9,542.8,594.5,542.8z"/>
			</g>
			<g>
				<g>
					<path fill="#4EB6D5" d="M594.3,477c0,0.3,0,0.5-0.1,0.7c-10.4,21.2-19.7,26.5-35.4,26.5c-4.2,0-8.6-0.7-12.5-2.7
						c0,1.9-1.2,2.7-2.5,2.7c-1.4,0-3-1.2-3.5-3.5c-0.4-1.9-1.2-7.4-1.2-19.1c0-8.1,0.4-19.3,1.7-34.5c0.3-3,3.2-5.9,5-5.9
						c1,0,1.5,0.7,1.5,2.6c0,1-0.1,1.9-0.2,2.8c2.6-2.7,6.4-5.4,11.2-5.4c5.8,0,9.4,4,9.4,10.5c0,7-4.2,15.4-10.1,20.6
						c9.6,0,19.7,3.6,19.7,15.1c0,4.1-2.1,7.9-6.2,11.2c6.7-2.5,12.7-8.3,19.7-22.5c0.3-0.6,0.9-1,1.6-1c0.3,0,0.4,0,0.7,0.1
						C593.9,475.6,594.3,476.3,594.3,477z M546,484.4c0,5.4,0.1,9.6,0.2,12.6c2.5,2.1,5.4,3.4,8.3,3.4c6.2,0,15.8-5.8,15.8-12.9
						c0-9.1-8.1-11.2-15.8-11.2c-3.4,0-6.2,1-8.5,1C546.1,479.8,546,482.2,546,484.4z M556.4,444.8c-5.3,0-8.8,6.7-9.5,8
						c-0.4,7.7-0.6,14.5-0.7,20.5c0.3,0,0.6-0.1,0.9-0.2c8.1-3.2,13.6-13.4,13.6-21.7c0-3-0.7-6.4-3.9-6.6H556.4z"/>
					<path fill="#4EB6D5" d="M615.7,489.8c-0.5,5.4-3.4,13.6-10.4,13.6c-7.4,0-10.3-7.2-10.9-13.8c-2.6-2.1-4.2-5.8-4.2-9.8
						c0-6.9,5.7-12.7,12.7-12.7c9.4,0,13.1,8.1,13.1,18.7c4.5-2.5,8.4-6,10.4-9.9c0.3-0.6,1-1,1.6-1c1,0,1.8,0.9,1.8,1.8
						c0,0.3-0.1,0.5-0.2,0.8C626.7,483.1,621.4,487,615.7,489.8z M612.4,484.9c0-5.8-1.6-13.9-8.7-14.2c-2.9,0-5.4,1.9-7,4.3
						c0.7-0.6,1.6-1.1,2.5-1.1c1.1,0,1.9,0.6,1.9,2.1c0,0.9-0.4,1.9-0.4,3.6c0,2.4,0.5,5.8,0.7,8.9c1.1,0.4,2.1,0.5,3.3,0.5
						c2.6,0,5.2-0.8,7.7-1.8C612.4,486.6,612.4,485.7,612.4,484.9z M606.6,500.2c2.5,0,5-4.3,5.3-8.9c-2.3,0.8-5,1.4-7.7,1.4
						c-0.8,0-1.5,0-2.3-0.2C602.6,497.2,602.3,500.2,606.6,500.2z"/>
					<path fill="#4EB6D5" d="M670.2,476.6c0,0.3-0.1,0.5-0.2,0.8c-4.2,8.3-9.9,14.3-17.3,20c-1.1,6.4-0.3,28.5-10.7,28.5
						c-5,0-6.7-2.7-6.7-6.6c0-7.1,6.3-17.9,10.3-20.6c0.1-1.9,0.3-4.1,0.3-6.4c-1.7,5-4.8,11.3-11.2,11.3c-7.9,0-9.4-9.2-9.4-18.4
						c0-5.8,0.5-11.5,0.6-15c0.2-1.3,2.3-3.5,4-3.5c1.4,0,1.9,1.2,1.9,4.8c0,2.4-0.1,5.9-0.1,9.7c0,8.6,0.5,18.2,4.3,18.2
						c7.8,0,9.4-23.9,9.4-29.9c0-1.9,2.3-4.1,4.1-4.1c1.1,0,2,0.8,2.2,2.8c0,0,1.2,9.6,1.2,20.1c0,1.5-0.1,2.9-0.1,4.4
						c4.6-3.5,9.3-7.5,14-17c0.3-0.6,1-1,1.6-1c0.3,0,0.5,0.1,0.8,0.2C669.9,475.4,670.2,476,670.2,476.6z M645.1,504.4
						c-2.2,2.6-6.5,11.6-6.5,15.6c0,1.1,0.4,1.9,1.3,1.9C644.2,521.8,644.5,509.3,645.1,504.4z"/>
				</g>
				<g>
					<path fill="#F08CA0" d="M595.7,601c0,0.3-0.1,0.5-0.2,0.8c-5.4,10.7-11.6,15.2-17.3,18.9c-1,6.6-2.7,29.6-10.8,29.6
						c-5,0-8.7-3.7-8.7-9.2c0-8.1,7.2-16.1,12.4-19.9c0-3.2,0.3-6.7,0.3-10c-1.9,6.4-5.1,16.9-13.5,17.3c-11,0-17.6-9.2-17.6-24.2
						c0-18.8,9.9-38.7,21.2-38.7c4.8,0,6.5,3.5,6.5,7.5c0,2.7-1,7.7-3.1,7.7c-1.1,0-1.9-0.9-1.9-1.8c0-0.4,1.5-3.2,1.5-6.6
						c0-1.8-0.5-3-2.1-3c-7.3,0-15,20.9-15,34.9c0,4.5,0.6,19.8,10.9,19.8c7,0,12.8-21.5,12.8-28.9c0-2.6,0.9-3.5,2.2-3.5
						c1.6,0,3.5,1.5,4.1,3.1c0,0.1,1,10.5,1,21.6c4.8-3.3,9.6-7.4,14-16.1c0.3-0.6,0.9-1,1.5-1c0.3,0,0.5,0.1,0.8,0.2
						C595.4,599.7,595.7,600.3,595.7,601z M570.9,625.9c-3.2,2.7-8.4,8-8.4,15.9c0,2.4,0.8,3.9,3.5,3.9
						C570.7,645.5,570.4,630.6,570.9,625.9z"/>
					<path fill="#F08CA0" d="M596,627.9c-3.4,0-4.5-13.8-4.5-23.3c0-10.1,1.8-12.9,5.3-12.9c1.4,0,1.9,0.7,1.9,2
						c0,4.3-1.5,22.7-1.5,27.5c0,1,0,1.2,0.2,1.2c2,0,14.1-21.8,14.3-22.3c0.3-0.5,0.9-0.9,1.6-0.9c1.1,0,1.7,1,1.7,1.8
						c0,0.3-0.1,0.5-0.2,0.8C613.3,604.6,601.2,627.9,596,627.9z M594.8,588.4c-1.9,0-2.7-1.3-2.7-2.9c0-1.8,1.3-4.2,3.5-4.2
						c2.1,0,3,1.2,3,2.9c0,1.9-1.3,4.1-3.5,4.2H594.8z"/>
					<path fill="#F08CA0" d="M647,600.9c0,0.3-0.1,0.6-0.2,0.9c-2.1,4-14.2,26.1-18.9,26.1c-5.1,0-3.8-24.1-4.4-28.9
						c-2.3,2.4-5.5,3.8-8.6,3.8c-3.8,0-9.2-2.7-9.2-8.9c0-4.3,2.9-8.9,7.1-8.9c3.5,0,4.6,2.5,4.6,5.4c0,3.1-1.2,6.7-2.5,8.8
						c2.7-0.1,5.6-0.7,7.7-5.5c0.8-1.8,1.8-2.6,2.8-2.6c1.7,0,4.2,2.5,4.2,6.5c0,3.2-0.4,8.9-0.4,14.7c0,3.7,0.1,7.3,0.6,10.3
						c2.2-3,12.8-20.9,13.7-22.6c0.3-0.5,1-0.9,1.6-0.9c0.3,0,0.5,0.1,0.8,0.2C646.7,599.7,647,600.2,647,600.9z M609.9,593.2
						c0,1.6,0.7,3.4,1.9,4.2c0.5-0.6,2.4-3.5,2.4-7.3c0-0.7-0.2-1.3-0.7-1.4C611.1,588.7,609.9,591,609.9,593.2z"/>
					<path fill="#F08CA0" d="M668.9,601c-0.1,0.3-1.1,3-7.2,13.5c-7,11.9-9.6,13.5-11.5,13.5c-5.3,0-7.5-16-7.5-32.7
						c0-10.1,0.5-33.5,11.8-33.5c3,0,4.2,2.3,4.2,5.8c0,8.4-6.8,23.5-9.5,28.1c0,12.1,0.7,25,2.1,28.2c1.3-1.8,4.6-6.3,7.8-11.7
						c8.1-13.9,6.1-12.8,8.1-12.8c0.3,0,0.5,0.1,0.8,0.2C668.6,599.7,668.9,600.3,668.9,601z M655.7,566.9c0-0.9-0.2-1.4-0.7-1.4
						c-2,0-5.5,14.5-5.5,19.6c0,0.4,0,0.9,0.1,1.2c1-2.4,2-4.8,2.9-7.3C654.5,573.5,655.7,569.1,655.7,566.9z"/>
				</g>
				<g>
					<path fill="#465761" d="M594.7,532.5c4,0,7.1,2,9.3,6.1c1,2.2,1.5,4.4,1.5,6.5v1.4c0,5.1-2.5,8.8-7.4,11.3
						c-1.7,0.7-3.4,1.1-5.1,1.1c-4.3,0-7.7-2.2-10.1-6.5c-0.9-2.1-1.3-4.2-1.3-6.2v-0.7c0-4,1.5-7.4,4.5-10
						C588.6,533.4,591.5,532.5,594.7,532.5z M586.1,545.5v0.6c0,3.6,1.5,6.2,4.6,7.8c0.9,0.3,1.7,0.4,2.4,0.4c2.9,0,5.2-1.3,7-4
						c0.6-1.2,0.9-2.6,0.9-4.2v-0.6c0-3.5-1.2-6-3.7-7.8c-0.9-0.4-1.6-0.6-2.2-0.6h-0.6c-3.8,0-6.4,1.7-7.8,5
						C586.3,543.2,586.1,544.3,586.1,545.5z"/>
					<path fill="#465761" d="M611.5,532.2h0.3c0.9,0,1.5,0.6,2,1.9l0.8,3.7c1.3-2.1,2.9-3.6,4.8-4.5c1.4-0.7,2.8-1,4.2-1
						c0.5,0,1.1,0,1.6,0.1c1.2,0,2,0.6,2.4,1.8l0.1,0.5c0,0.5-0.3,1.1-0.8,1.6c-0.5,0.5-1.3,0.7-2.7,0.7c-4.5,0.4-7.5,2.5-9.1,6.1
						l-0.2,13.7c-0.4,1.2-1.2,1.8-2.3,1.8c-1.1,0-1.8-0.6-2.2-1.7l-0.1-0.4l0.1-7.1c0-4.9-0.4-10-1.2-15.1
						C609.6,533,610.3,532.2,611.5,532.2z"/>
				</g>
			</g>
		</g>
		<g>
			<g>
				<g>
					<path fill="#D68D60" d="M1207.4,1743.4h9.5l-126.7-261.1c-1-2.1-3.6-3-5.7-2c-2.1,1-3,3.6-2,5.7L1207.4,1743.4z"/>
				</g>
				<g>
					<path fill="#F5F5F5" d="M1245.8,1486.4c-11.1,5.4-19.3,5-29.2-2.5c9.4-15,10.7-34.1,2.7-50.6c-3.4-6.9-8.2-13-14.1-17.7
						c12-20.2,13.3-45.2,2.8-66.9c-17-35.1-59.4-49.8-94.5-32.8c-4,1.9-7.7,4.2-11.2,6.8c-25.3-23.5-62.5-29.5-94.4-14
						c-27.4,13.3-45.1,39.8-47.5,69.5c-8.1,1-16.1,3.4-23.5,7c-37.3,18.1-52.9,63.2-34.8,100.5c6.3,13,16.1,23.7,28.1,31.2
						c-4,11.8-3.3,24.9,2.3,36.3c11.4,23.6,39.7,33.6,63.4,22.8c1.4,1.5,2.9,3.2,4.7,5.1c18.5,19,46.6,23.9,75.3,13.2
						c6.7-2.5,12.8-5.3,18.1-8.3c10.9-6.2,21-14.9,28.5-24.6c12,1.8,24.4-0.1,35.7-5.6c9.5-4.6,17.6-11.5,23.5-20
						c0.3,0.1,0.6,0.2,0.9,0.3c14.9,5.4,26.1,4,40.4-0.2c2.7-0.8,5.4-1.8,8-3.1c0,0,0,0,0,0c14.5-7,26.5-20.6,30.9-30.4
						c2.1-4.6,1-10-2.6-13.5C1255.8,1485,1250.3,1484.2,1245.8,1486.4z M1191.9,1476.6c-2.3,2.2-3.6,5.3-3.7,8.5
						c0,3.2,1.2,6.3,3.5,8.6c6.8,6.9,15.8,14.5,27.1,18.1c-0.9,0.4-1.7,0.7-2.6,0.9c-10.6,3.1-16.5,3.9-25.5,0.7
						c-1.9-0.7-4.2-2-6.5-3.7c-3-2.2-6.8-3-10.4-2c-0.7,0.2-1.4,0.5-2,0.8c-2.6,1.3-4.7,3.5-5.9,6.3c-3.4,8.4-9.9,15.2-18.2,19.3
						c-8.7,4.2-18.3,5-27.2,2.2c-5.3-1.7-11,0.5-13.8,5.2c-1.5,2.5-2.4,3.9-2.7,4.4c-5.7,7.5-13.5,14.3-21.9,19.1
						c-4.2,2.4-9.1,4.6-14.7,6.7c-9.3,3.5-32.9,9.8-49.6-7.3c-1.3-1.4-5.8-6.6-7.6-9c-0.5-1.2-1.1-2.3-2-3.4
						c-4.3-5-11.8-5.6-16.8-1.4c-1.6,1.4-3.3,2.4-5,3.3c-12,5.8-26.5,0.8-32.4-11.2c-3.8-7.8-3.1-17.2,1.9-24.4
						c2.1-3,2.7-6.8,1.6-10.3c-1.1-3.5-3.6-6.3-7-7.7c-11.8-4.8-21.4-13.7-27-25.2c-12.3-25.4-1.7-56.1,23.7-68.5
						c7.6-3.7,16-5.4,24.4-5.1c3.4,0.1,6.7-1.2,9.1-3.6c2.4-2.4,3.6-5.8,3.4-9.1c-1.6-24.8,11.8-47.8,34.1-58.6
						c25.7-12.4,56-5.6,73.8,16.6c2.2,2.7,5.4,4.3,8.9,4.5c3.5,0.1,6.8-1.2,9.2-3.8c3.9-4.2,8.5-7.6,13.7-10.1
						c23.2-11.3,51.3-1.5,62.6,21.7c8.4,17.2,5.4,37.6-7.5,51.8c-2.6,2.9-3.6,6.8-2.8,10.6c0.8,3.8,3.5,6.9,7,8.4
						c6.4,2.7,11.5,7.6,14.5,13.7C1203.1,1454.8,1200.8,1468,1191.9,1476.6z"/>
					<path fill="#F5B6C3" d="M1200.2,1485.2c12.3-11.8,16.2-30.6,8.3-46.7c-4.4-9.2-11.9-15.9-20.6-19.5
						c15.6-17.3,20.1-42.9,9.4-65.1c-14.2-29.2-49.3-41.4-78.6-27.2c-6.7,3.2-12.4,7.6-17.2,12.7c-20.7-25.9-57.3-35-88.4-19.9
						c-27.4,13.3-42.7,41.5-40.8,70.1c-10.1-0.4-20.4,1.6-30.1,6.3c-31.4,15.2-44.5,53.1-29.3,84.5c7.1,14.7,19.2,25.4,33.3,31.1
						c-7.2,10.4-8.8,24.2-2.9,36.4c8.7,18,30.4,25.5,48.4,16.8c2.8-1.3,5.2-3,7.5-4.9c-0.8,0.7,9.3,12.1,10.1,12.8
						c16.7,17.2,40.9,18.4,62.5,10.3c5.5-2.1,11.2-4.6,16.4-7.5c9.8-5.6,18.9-13.5,25.7-22.5c0.3-0.4,1.7-2.7,3.2-5.2
						c11.3,3.6,24.2,2.9,36-2.8c11.5-5.6,19.8-14.9,24.1-25.5c3,2.2,6.3,4.2,9.6,5.4c12.1,4.4,20.7,3.2,32.9-0.5
						c15.3-4.5,27.9-19.1,31.5-27C1228.8,1507.9,1213.8,1499,1200.2,1485.2z"/>
					<g>
						
							<path fill="none" stroke="#F5F5F5" stroke-width="3" stroke-linecap="round" stroke-linejoin="round" stroke-miterlimit="10" stroke-dasharray="16.0261" d="
							M1173.1,1511.1c0.5-0.2,1-0.4,1.5-0.6c2.7-0.7,5.6-0.2,7.8,1.5c2.5,1.9,5.1,3.3,7.2,4.1c9.7,3.5,16.3,2.6,27.3-0.6
							c3.3-1,6.9-2.8,10-4.9c-14-1.8-24.7-10.5-33.3-19.1c-1.7-1.7-2.6-4-2.6-6.4c0-2.4,1-4.7,2.8-6.4c9.8-9.5,12.4-24.1,6.5-36.3
							c-3.3-6.8-9-12.2-16-15.2c-2.7-1.1-4.6-3.5-5.3-6.3c-0.6-2.8,0.2-5.8,2.1-8c13.7-15.2,16.8-36.8,7.9-55.1
							c-12-24.7-41.8-35.1-66.6-23.1c-5.5,2.7-10.4,6.3-14.6,10.7c-1.8,1.9-4.3,2.9-6.9,2.8c-2.6-0.1-5-1.3-6.7-3.4
							c-18.7-23.3-50.5-30.5-77.5-17.4c-23.4,11.4-37.5,35.5-35.8,61.5c0.2,2.5-0.8,5-2.5,6.9c-1.8,1.8-4.2,2.8-6.8,2.7
							c-8.9-0.4-17.8,1.5-25.8,5.4c-26.9,13.1-38.2,45.6-25.1,72.5c5.9,12.2,16,21.6,28.6,26.7c2.5,1,4.5,3.1,5.2,5.8
							c0.8,2.6,0.3,5.4-1.2,7.7c-5.6,8.1-6.4,18.6-2.1,27.4c6.6,13.5,22.9,19.2,36.4,12.6c1.9-0.9,3.8-2.2,5.6-3.7
							c3.8-3.2,9.4-2.7,12.6,1c0.8,0.9,1.3,1.9,1.7,2.9c1.7,2.4,6.7,8.1,8.1,9.6c18,18.5,42.9,11.8,52.8,8.1
							c5.7-2.1,10.8-4.5,15.1-6.9c8.8-5,16.9-12.1,22.9-20c0.3-0.4,1.2-1.9,2.8-4.6c2.1-3.5,6.4-5.2,10.4-3.9c9.6,3,20,2.2,29.4-2.3
							c9-4.4,16-11.8,19.7-20.8C1169.6,1513.7,1171.2,1512.1,1173.1,1511.1z"/>
					</g>
				</g>
				<path fill="#F5F5F5" d="M1063.7,1366.3c-10.7-11.5-20.2,2.8-19.1,11c-7.9-8.3-19.1-4-20.8,4c-0.6,3.7,0.3,6.9,2.2,9.7
					c-0.4,0.6-0.8,1.3-1.1,2.1c-0.6,1.8-0.7,3.8-0.4,5.5c-2.1-0.6-4.2-0.5-6.1,0.4c-2.9,1.4-4.6,4.3-4.2,7.3c0.5,2.9,2.2,5.1,5,6.6
					c5.5,2.9,14.1,2.1,17.8,0.3c0.7-0.3,1.2-0.7,1.5-1.1c1.9-2,2.3-7.1,1.8-11.4c7.4,2.6,14.9,3.1,17.3,1.5
					C1064.4,1398.7,1071.4,1374.7,1063.7,1366.3z M1037.3,1411c-0.1,0.1-0.3,0.4-1,0.7c-3.3,1.6-11.3,2.3-16.3-0.3
					c-2.3-1.2-3.7-3-4.1-5.3c-0.3-2.3,1.1-4.5,3.3-5.6c1.9-0.9,4.2-0.8,6.3,0.3c0.3,0.2,0.7,0.1,1-0.1c0.3-0.3,0.3-0.7,0.2-1
					c-0.8-1.6-0.8-4-0.1-6c1.2-3.4,4-4.5,7.6-2.5c2.1,1.2,3.7,4.3,4.4,8.7C1039.3,1404.5,1038.8,1409.4,1037.3,1411z"/>
			</g>
			<g>
				<path fill="#F5F5F5" d="M1007.1,1445.8c0.8-0.4,1.6-0.2,2.4,0.6l11.9,24c0.5,1.3,0.2,2.3-0.9,2.8c-0.8,0.4-1.6,0.2-2.3-0.6
					l-0.2-0.2l-11.9-24.2c-0.3-0.7-0.1-1.4,0.6-2.2L1007.1,1445.8z"/>
				<path fill="#F5F5F5" d="M1026.3,1436c1-0.5,2.3,0,3.7,1.4l15.2,17.2l0.2-0.1l-3.2-25c0.1-0.8,0.5-1.4,1.1-1.7
					c1.3-0.3,2.1,0,2.6,1l3.6,29.1c-0.2,0.7-0.6,1.2-1.2,1.4l-1,0.5c-1,0.5-2.2,0.1-3.4-1.3c-11.7-12.5-17.8-19.2-18.3-20
					C1025,1437.6,1025.3,1436.8,1026.3,1436z"/>
				<path fill="#F5F5F5" d="M1060,1420c2.4-1.2,5.1-1.3,8-0.4c3.5,1.5,6.1,4,7.8,7.5l0.2,0.4l0.1,0.2l0,0.2l0.1,0.2
					c1.7,3.4,2.4,6.8,2,10.2c-0.3,1.8-1,3.5-1.8,5c-1.5,2.2-3.2,3.8-5.1,4.7l-0.6,0.3c-2.9,1.4-6.2,1.5-9.9,0.4
					c-2.7-1.3-4.7-3.3-6.2-6.3l-0.3-0.5c-1.9-3.9-2.5-8-1.8-12.4C1053.7,1425,1056.1,1421.8,1060,1420z M1057.9,1440.1l0.5,1
					c1,2.1,2.5,3.6,4.3,4.3c2.5,0.6,4.6,0.5,6.3-0.4l0.8-0.4c2.7-1.3,4.3-3.6,4.9-7c0.1-2.4-0.4-5-1.7-7.6l-0.6-1.1
					c-1.6-3.2-3.9-5.2-6.9-5.9c-1.4-0.1-2.7,0.1-3.7,0.6c-4.1,2-5.9,5.7-5.4,11.2C1056.5,1436.6,1057,1438.4,1057.9,1440.1z"/>
				<path fill="#F5F5F5" d="M1090.3,1404.7c0.8-0.4,1.6-0.2,2.4,0.6l0.3,0.3c0.4,0.8,0.2,1.6-0.7,2.4c0,0.1-1.9,1-5.7,3l-0.2,0.2
					l0.3,0.5c2.3,4.4,4.3,8.4,6.1,12.1l1.1,2.3l3.7,7.7c0.4,1.3,0.1,2.1-0.9,2.6c-0.8,0.4-1.6,0.2-2.4-0.6l-0.1-0.1l-3.9-8.3
					l-0.7-1.5c-1.9-4-4.1-8.2-6.4-12.8l-0.2-0.1l-0.1,0c-1,0.5-3.1,1.7-6.1,3.6c-0.8,0.4-1.6,0.2-2.4-0.5l-0.2-0.4
					c-0.6-1.2,0.1-2.4,2.1-3.3C1080.4,1409.8,1085.1,1407.2,1090.3,1404.7z"/>
				<path fill="#F5F5F5" d="M1109.4,1395.7c1.4-0.4,2.3-0.1,2.7,0.9c0.4,0.7,0.2,1.5-0.6,2.3l-6.6,3.6l-4.1,2.4l3.4,6.9
					c4.3-2.6,7.3-4.3,8.8-5c0.7-0.3,1.4-0.1,2.2,0.6l0.3,0.4c0.4,0.8,0.2,1.5-0.5,2.3l-9,5.2l4.7,9.4l0.1,0
					c1.4-0.7,4.9-2.6,10.2-5.8c0.9-0.4,1.7-0.1,2.5,0.9c0.4,0.8,0.2,1.6-0.5,2.3c-4.4,2.8-8.3,5-11.8,6.7l-0.4,0.3
					c-1.3,0.3-2.1,0-2.6-0.9c-3.8-7.4-6.6-13.1-8.6-17.1c-2.3-4.7-3.3-7-3.1-7.1c0.1-0.8,0.8-1.5,2-2.1c3.5-2.2,7-4.2,10.5-5.9
					L1109.4,1395.7z"/>
			</g>
			<g>
				<path fill="#EE7A89" d="M1062.4,1522.6L1062.4,1522.6L1062.4,1522.6L1062.4,1522.6l0.2,0.6c-0.7,0.4-1.5,0.7-2.3,0.9
					c-5.9,1.8-11.3,0.6-16.3-3.5c-1.7-1.8-3.3-4.2-4.8-7.2c-0.3-0.6-0.6-1.2-0.9-1.9c-2.1-4.8-2.6-9.5-1.3-14
					c1.5-5,4.3-8.8,8.5-11.5c1.2-0.7,2.3-1.4,3.3-1.9c1-0.5,1.8-0.8,2.6-1.1c1.7-0.3,2.8,0.1,3.4,1.3c0.1,0.2,0.1,0.3,0.2,0.5
					c0.7,1.5,0.1,2.7-1.6,3.5l-0.2,0.1c-0.5,0.1-1,0.4-1.6,0.7c-0.8,0.4-1.8,0.9-2.8,1.6c-3,1.9-5,4.6-6.1,8.3
					c-1.1,3.6-0.7,7.6,1.4,11.9c0.1,0.2,0.2,0.3,0.3,0.5c2.5,4.8,5.9,7.6,10.4,8.2c1.3,0,2.6-0.2,4-0.6c0.6-0.2,1.2-0.4,1.7-0.7
					l0,0.1c1.9-1.1,3.2-3,4-5.5c0.8-2.5,1-4.9,0.4-7.1c-0.4-1.6-0.8-2.9-1.3-3.9c-0.2-0.4-0.4-0.8-0.6-1.1c-1.9,1.2-4.5,2.8-7.6,4.9
					c-1.3,0.7-2.5,0.3-3.4-1.1c-0.7-1.5-0.6-2.8,0.4-3.9c4.2-3.1,8-5.4,11.2-7c1.2-0.6,2.3-0.1,3.5,1.3l0.3,0.5
					c2.7,5.5,3.8,10.8,3.4,15.7c-1,5.9-3.7,10-8.1,12.1L1062.4,1522.6z"/>
				<path fill="#EE7A89" d="M1071.1,1473.1c1.1-0.5,2.2-0.3,3.3,0.8l16.3,32.9c0.6,1.9,0.2,3.1-1.2,3.8c-1.1,0.5-2.2,0.3-3.2-0.8
					l-0.2-0.2l-16.3-33.2c-0.5-1-0.2-2,0.8-3L1071.1,1473.1z"/>
				<path fill="#EE7A89" d="M1093.5,1461.5c4.6-2.2,9.1-2.5,13.5-0.8c2,1,3.6,2.4,4.5,4.5c1.6,3.2,1.3,6.5-0.6,9.9
					c-0.8,1.3-2,2.7-3.6,4.1l15.6,10.3c0.6,0.4,1,0.9,1.3,1.4c0.4,0.8,0.3,1.7-0.3,2.6c-0.3,0.3-0.6,0.5-0.9,0.7
					c-1.1,0.5-2.3,0.3-3.6-0.7l-16.8-10.9c-1.7,1-3.7,2.1-5.9,3.2c0.5,1,1,1.9,1.4,2.9c2.1,4.3,3.8,8.2,5.1,11.8
					c0.8,1.6,0.4,3-1.1,4c-1.4,0.7-2.5,0.3-3.3-1.2c-2.1-4.7-5-11-8.8-18.7l-0.8-1.6c-4.3-8.8-6.2-13.3-5.8-13.4
					c-0.2-0.4,0.1-1.1,0.9-2C1087.3,1465,1090.4,1463.1,1093.5,1461.5z M1089.3,1470.4l4.9,10.6c5.8-2.8,9.6-5.3,11.4-7.6
					c1.6-2.1,2.1-4,1.2-5.7c-0.1-0.1-0.1-0.2-0.2-0.4l-0.1-0.2c-1.1-2.3-4.1-2.8-8.9-1.6l-2,0.9c-2.4,1.2-4.6,2.4-6.5,3.8
					L1089.3,1470.4z"/>
				<path fill="#EE7A89" d="M1113.8,1452.1c1.7-0.4,2.8,0,3.3,1.1l0.2,0.2l14.8,30.4l0.2-0.1l3-1.4c2.8-1.3,6.5-3.5,11.1-6.4
					c1.2-0.6,2.4-0.2,3.4,1.3c0.5,1,0.3,2-0.6,3c-3.7,2.6-7.5,4.9-11.4,6.8c-4.1,2-6.5,2.9-7.4,2.7c-0.9-0.1-2.1-1.4-3.3-4l-14.9-31
					C1112.3,1453.5,1112.8,1452.6,1113.8,1452.1z"/>
			</g>
		</g>
		<g>
			<g>
				<g>
					<path fill="#D68D60" d="M4.4,1744.3l122.8-257.2c1-2.1,0.1-4.7-2-5.7c-2.1-1-4.7-0.1-5.7,2L-5,1744.3H4.4z"/>
				</g>
				<g>
					<path fill="#F5F5F5" d="M220.4,1610.2c-11.1-5.3-15.8-11.9-16.1-24.2c17.5-2,33.1-12.8,40.9-29.2c3.3-6.9,5-14.4,5-21.9
						c23.1-3.2,43.3-17.6,53.6-39.3c16.7-34.9,1.8-77-33.1-93.6c-3.9-1.9-8-3.4-12.2-4.5c2.6-34.2-15.8-66.7-47.6-81.9
						c-27.3-13-58.8-10.4-83.3,6.2c-5.8-5.7-12.6-10.4-19.9-13.9c-37.1-17.7-81.8-1.9-99.5,35.2c-6.2,12.9-8.4,27.1-6.7,41.1
						c-11.6,4.2-21.3,12.9-26.8,24.3c-11.2,23.5-1.5,51.6,21.6,63.3c-0.4,2-0.7,4.3-1,6.8c-3.3,26.1,10.3,51,36.4,66.5
						c6.1,3.7,12.1,6.7,17.7,8.9c11.6,4.6,24.6,7,36.8,6.9c6.1,10.4,15.2,18.9,26.4,24.3c9.5,4.5,19.8,6.5,30.1,5.9
						c0.1,0.3,0.2,0.6,0.3,0.9c5.1,14.9,13.1,22.7,25.2,31.2c2.3,1.6,4.8,3,7.4,4.3c0,0,0,0,0,0c14.4,6.9,32.4,7.8,42.8,5.1
						c4.8-1.2,8.4-5.4,8.9-10.4C227.6,1617.1,224.9,1612.4,220.4,1610.2z M194.6,1562.4c-3.2-0.4-6.3,0.5-8.8,2.4
						c-2.5,2-4.1,4.8-4.5,8c-1.1,9.6-1.5,21.2,2.7,32.2c-0.8-0.5-1.6-0.9-2.3-1.4c-9-6.3-13.2-10.4-16.3-19.3
						c-0.7-1.9-1-4.5-1.1-7.3c-0.1-3.7-1.9-7.1-4.9-9.3c-0.6-0.4-1.2-0.8-1.9-1.1c-2.6-1.3-5.7-1.5-8.5-0.7
						c-8.6,2.5-17.9,1.8-26.2-2.2c-8.6-4.1-15.2-11.1-18.5-19.7c-2-5.1-7.2-8.2-12.6-7.5c-2.8,0.4-4.5,0.6-5.1,0.6
						c-9.4,0.2-19.5-1.6-28.4-5.2c-4.4-1.8-9.3-4.2-14.3-7.2c-8.5-5.1-28-19.4-25-43c0.3-1.8,1.5-8.6,2.3-11.5
						c0.6-1.1,1.1-2.3,1.4-3.7c1.2-6.4-2.9-12.6-9.3-13.9c-2.1-0.4-3.9-1-5.6-1.8c-12-5.7-17.1-20.1-11.3-32.1
						c3.7-7.8,11.4-13,20.1-13.6c3.6-0.2,6.9-2.1,9-5.1c2.1-3,2.7-6.7,1.6-10.2c-3.6-12.1-2.6-25.1,2.8-36.5
						c12.1-25.3,42.5-36.1,67.8-24c7.6,3.6,14.2,9.1,19.1,15.8c2,2.7,5,4.5,8.4,4.8c3.4,0.3,6.7-0.8,9.2-3
						c18.2-16.6,44.3-20.5,66.6-9.8c25.5,12.2,39,40,32.8,67.5c-0.8,3.4,0,6.9,2,9.7c2,2.8,5.2,4.5,8.6,4.8
						c5.7,0.5,11.2,1.9,16.3,4.4c23.1,11,32.9,38.8,21.9,62c-8.2,17.2-25.8,27.5-44.8,26.3c-3.8-0.2-7.6,1.4-10,4.4
						c-2.4,3-3.2,7-2.2,10.7c1.9,6.6,1.3,13.6-1.7,19.8C218.4,1557.6,206.7,1564,194.6,1562.4z"/>
					<path fill="#61AFD2" d="M193,1574.1c16.8,2.2,33.7-6.4,41.4-22.5c4.4-9.1,4.9-19.1,2.4-28.1c23,1.4,45.7-10.9,56.3-33
						c13.9-29.1,1.6-63.9-27.5-77.8c-6.6-3.2-13.6-5-20.5-5.5c7.2-32.1-8.3-66.1-39.3-80.9c-27.3-13-58.6-7.4-79.7,11.8
						c-5.9-8.1-13.9-14.9-23.5-19.5c-31.3-14.9-68.7-1.7-83.7,29.6c-7,14.6-7.8,30.6-3.5,45.1c-12.5,0.8-24.2,8.2-30,20.3
						c-8.6,17.9-1,39.3,16.9,47.9c2.7,1.3,5.6,2.2,8.4,2.8c-1-0.2-3.6,14.7-3.7,15.8c-3,23.6,11,43.1,30.7,54.8c5.1,3,10.5,5.9,16,8
						c10.4,4.2,22.2,6.3,33.4,6c0.5,0,3.1-0.3,6.1-0.7c4.2,11,12.7,20.5,24.5,26.2c11.4,5.4,23.8,6.1,34.7,2.9
						c0.1,3.7,0.6,7.5,1.7,10.8c4.1,12.1,10.4,18,20.7,25.3c13,9.1,32.1,9.8,40.4,7.7C193.1,1610.4,190.8,1593.2,193,1574.1z"/>
					<g>
						
							<path fill="none" stroke="#F5F5F5" stroke-width="3" stroke-linecap="round" stroke-linejoin="round" stroke-miterlimit="10" stroke-dasharray="15.8971" d="
							M156.2,1569.2c0.5,0.2,0.9,0.5,1.4,0.8c2.2,1.6,3.6,4.2,3.7,7c0.1,3.1,0.5,6,1.3,8.2c3.3,9.7,8,14.3,17.4,20.8
							c2.8,2,6.4,3.6,10,4.7c-7.3-11.9-7.2-25.7-5.8-37.6c0.3-2.4,1.5-4.5,3.4-6c1.9-1.5,4.3-2.1,6.6-1.8
							c13.4,1.8,26.4-5.3,32.2-17.5c3.2-6.8,3.9-14.6,1.9-21.9c-0.8-2.8-0.2-5.8,1.6-8c1.8-2.2,4.6-3.5,7.5-3.3
							c20.2,1.3,39-9.7,47.7-28c11.7-24.6,1.3-54.2-23.3-65.9c-5.5-2.6-11.3-4.2-17.4-4.7c-2.6-0.2-4.9-1.5-6.5-3.6
							c-1.5-2.1-2.1-4.7-1.5-7.2c6.5-28.9-7.6-58.1-34.4-70.9c-23.3-11.1-50.7-7.1-69.8,10.3c-1.9,1.7-4.4,2.5-6.9,2.3
							c-2.5-0.3-4.8-1.6-6.3-3.6c-5.2-7.1-12.2-12.9-20.2-16.7c-26.8-12.8-59-1.4-71.8,25.4c-5.8,12.1-6.8,25.8-3,38.7
							c0.8,2.6,0.3,5.4-1.2,7.6c-1.5,2.2-4,3.6-6.7,3.8c-9.7,0.7-18.4,6.5-22.6,15.3c-6.4,13.4-0.7,29.6,12.7,36
							c1.9,0.9,4,1.6,6.3,2.1c4.8,1,7.9,5.6,7,10.4c-0.2,1.1-0.6,2.2-1.2,3.1c-0.8,2.8-2.2,10.2-2.4,12.2
							c-3.2,25.4,17.4,40.6,26.4,46c5.2,3.1,10.2,5.6,14.7,7.4c9.4,3.7,19.9,5.6,29.7,5.4c0.5,0,2.2-0.2,5.3-0.6
							c4.1-0.5,8,1.8,9.5,5.6c3.6,9.3,10.7,16.9,20,21.3c9,4.3,19.1,5.1,28.4,2.4C151.9,1568.1,154.2,1568.3,156.2,1569.2z"/>
					</g>
				</g>
				<path fill="#F5F5F5" d="M200.7,1394.6c2.3-15.4-14.7-13.9-20.3-8c1.5-11.3-8.7-17.2-16-13.6c-3.2,1.8-5.2,4.6-6.1,7.7
					c-0.8,0-1.5,0.2-2.3,0.5c-1.8,0.6-3.4,1.8-4.5,3.1c-0.8-2-2.2-3.6-4.1-4.5c-2.8-1.4-6.2-0.9-8.3,1.3c-1.9,2.1-2.6,4.9-2,8
					c1.2,6.1,7.1,12.2,10.8,14c0.7,0.3,1.3,0.5,1.8,0.5c2.7,0.2,6.9-2.6,10-5.6c2.6,7.3,6.9,13.5,9.6,14.4
					C176,1415.2,199,1405.8,200.7,1394.6z M149.7,1401.8c-0.2,0-0.5,0-1.1-0.3c-3.3-1.6-8.8-7.3-9.8-12.8c-0.5-2.6,0-4.8,1.6-6.5
					c1.6-1.6,4.2-2,6.4-0.9c1.9,0.9,3.2,2.7,3.7,5.1c0.1,0.4,0.4,0.6,0.7,0.7c0.4,0,0.7-0.1,0.9-0.5c0.7-1.6,2.6-3.1,4.6-3.9
					c3.4-1.2,5.9,0.3,6.6,4.3c0.4,2.4-1,5.6-4,8.8C156,1399.4,151.8,1402,149.7,1401.8z"/>
			</g>
			<g>
				<path fill="#F5F5F5" d="M104,1399.9c0.8,0.4,1.2,1.1,1,2.2l-11.2,24.1c-0.8,1.2-1.7,1.5-2.7,1c-0.8-0.4-1.1-1.1-1-2.1l0-0.2
					l11.4-24.2c0.3-0.7,1-1,2.1-0.9L104,1399.9z"/>
				<path fill="#F5F5F5" d="M123.4,1408.8c1,0.5,1.4,1.7,1.2,3.7l-4,22.5l0.2,0.1l17.4-18c0.7-0.4,1.4-0.5,2-0.2
					c1,0.8,1.3,1.7,0.9,2.6l-20.4,20.8c-0.7,0.3-1.3,0.2-1.8,0l-1-0.5c-1-0.5-1.4-1.6-1.1-3.5c2.5-16.8,3.9-25.7,4.2-26.6
					C121.4,1408.8,122.3,1408.5,123.4,1408.8z"/>
				<path fill="#F5F5F5" d="M156.8,1425c2.4,1.2,4.2,3.2,5.3,6c1,3.7,0.7,7.2-1,10.7l-0.2,0.4l0,0.2l-0.1,0.2l-0.1,0.2
					c-1.6,3.4-3.9,6.1-6.7,7.9c-1.6,0.9-3.3,1.4-5.1,1.7c-2.6,0.2-4.9-0.2-6.8-1.1l-0.6-0.3c-2.9-1.4-5-3.9-6.5-7.4
					c-0.7-2.9-0.3-5.7,1.1-8.7l0.3-0.5c1.8-3.9,4.7-6.9,8.5-9.1C148.9,1423.3,152.9,1423.2,156.8,1425z M139.8,1435.8l-0.5,1
					c-1,2.1-1.2,4.1-0.7,6c1.1,2.3,2.5,3.8,4.2,4.7l0.8,0.4c2.7,1.3,5.5,1.1,8.5-0.6c2-1.4,3.6-3.4,4.8-6l0.6-1.1
					c1.5-3.2,1.6-6.2,0.3-9c-0.8-1.2-1.7-2-2.7-2.5c-4-1.9-8.1-1-12,2.8C141.7,1432.6,140.7,1434.1,139.8,1435.8z"/>
				<path fill="#F5F5F5" d="M187.3,1439c0.8,0.4,1.1,1.1,1,2.2l-0.1,0.4c-0.4,0.8-1.1,1.1-2.3,1c0,0-2-0.8-5.8-2.6l-0.3-0.1
					l-0.2,0.5c-2,4.5-3.9,8.6-5.7,12.2l-1.1,2.3l-3.7,7.6c-0.8,1.1-1.6,1.4-2.6,0.9c-0.8-0.4-1.2-1.1-1-2.2l0-0.2l4-8.2l0.7-1.5
					c1.9-3.9,3.9-8.2,6-12.9l-0.1-0.2l-0.1,0c-1-0.5-3.2-1.3-6.6-2.5c-0.8-0.4-1.1-1.1-1.1-2.2l0.2-0.4c0.6-1.2,1.9-1.4,3.8-0.5
					C177.3,1434.5,182.2,1436.6,187.3,1439z"/>
				<path fill="#F5F5F5" d="M206.2,1448.3c1.1,0.8,1.5,1.7,1,2.7c-0.4,0.7-1.1,1.1-2.1,1l-6.9-2.9l-4.4-1.7l-3.3,6.9
					c4.7,1.7,7.8,3,9.4,3.7c0.7,0.3,1,1,0.9,2.1l-0.1,0.4c-0.4,0.8-1.1,1.1-2.1,1l-9.7-3.8l-4.4,9.4l0.1,0.1
					c1.4,0.7,5.1,2.1,10.8,4.3c0.8,0.4,1.1,1.2,0.8,2.5c-0.4,0.8-1.1,1.1-2.1,1c-4.9-1.7-9.1-3.4-12.5-5l-0.5-0.2
					c-1.1-0.8-1.4-1.6-0.9-2.6c3.4-7.5,6.1-13.3,8-17.3c2.2-4.6,3.4-6.9,3.6-6.8c0.7-0.4,1.6-0.3,2.9,0.3c3.9,1.3,7.6,2.8,11.1,4.5
					L206.2,1448.3z"/>
			</g>
			<g>
				<path fill="#465761" d="M92.2,1444.2c6.9,3.3,10.4,7.9,10.5,13.9c-0.2,1.6-0.5,2.7-0.9,3.6l-0.2,0.5c-2,4.2-5.7,6.2-11.1,6.1
					l-0.2,0.3c3.4,2.6,5.4,5.7,6.1,9.2c0.1,2.3-0.3,4.3-1.1,6l-0.3,0.6c-1.9,4-5.4,6.4-10.5,7.2c-4.3,0.2-9.3-1.1-15.1-3.8
					c-5-2.4-7.7-4.2-7.9-5.5c-0.3-0.5,3.2-8.3,10.6-23.7c2.3-4.7,4.9-10.1,7.8-16.3c0.3-0.6,1.2-1,2.7-1.2
					C86.5,1442,89.7,1443,92.2,1444.2z M75,1466.3l-6.3,13.8c0.2,0.3,1.4,1.1,3.6,2.1c7.3,3.5,12.4,4.1,15.2,1.9
					c0.9-0.8,1.5-1.5,1.9-2.3l0.4-0.9c1.2-2.6,0.4-5.2-2.7-7.7c-2.3-2-5.1-3.8-8.2-5.3L75,1466.3z M84,1448l-6,12.5l1.7,0.8
					c3.6,1.7,7.5,2.1,11.8,1.3c2.4-0.8,3.9-1.7,4.4-2.8l0.4-0.9c1.1-2.2-0.2-4.7-3.8-7.4c-0.9-0.6-2-1.2-3.2-1.8
					C86,1448.3,84.2,1447.7,84,1448z"/>
				<path fill="#465761" d="M136.2,1465c3.9,1.9,6.7,5.1,8.5,9.7c1.6,5.9,1.1,11.6-1.6,17.2l-0.3,0.7l-0.1,0.3l-0.2,0.3l-0.2,0.4
					c-2.6,5.5-6.2,9.8-10.7,12.8c-2.6,1.4-5.3,2.3-8.1,2.7c-4.3,0.3-7.9-0.3-10.9-1.7l-1-0.5c-4.6-2.2-8.1-6.2-10.4-11.9
					c-1.1-4.6-0.5-9.2,1.7-13.9l0.4-0.8c3-6.2,7.5-11.1,13.7-14.6C123.6,1462.2,130,1462,136.2,1465z M108.9,1482.4l-0.7,1.5
					c-1.6,3.4-2,6.6-1.1,9.6c1.7,3.7,3.9,6.2,6.7,7.5l1.3,0.6c4.3,2.1,8.8,1.7,13.6-0.9c3.2-2.2,5.8-5.5,7.8-9.7l0.9-1.8
					c2.5-5.1,2.6-10,0.5-14.5c-1.3-1.9-2.7-3.2-4.4-4c-6.5-3.1-13-1.6-19.4,4.5C112,1477.2,110.2,1479.6,108.9,1482.4z"/>
				<path fill="#465761" d="M185.2,1487.9c1.1,0.5,1.6,1.6,1.6,3.2c0,0.3-0.1,0.6-0.3,1c-0.4,0.9-8.7,5.2-24.8,12.9l-8.7,18.2
					c-0.8,1.7-1.9,2.6-3.4,2.6l-1.1-0.4c-1.6-0.8-2.1-2.2-1.4-4.2l8.4-17.6c0.1-0.3-0.4-4.8-1.6-13.5c-1.2-8.3-1.4-13.2-0.8-14.5
					l0.1-0.2c0.8-1.4,1.9-1.7,3.4-1l0.1,0c1.3,0.6,2.1,2,2.4,4.2l2.5,19.6l21.2-10.4C183.7,1487.5,184.5,1487.6,185.2,1487.9z"/>
			</g>
		</g>
		<g>
			<g>
				<path fill="#E5E5E5" d="M481.3,260.8V153H324.5l28.7,53.9l-28.7,53.9C324.5,260.8,405.1,246.3,481.3,260.8z"/>
				<path fill="#CECECE" d="M370.8,237.1h110.5v23.7C481.3,260.8,458.6,245,370.8,237.1z"/>
			</g>
			<g>
				<path fill="#E5E5E5" d="M717.4,260.8V153h156.8l-28.7,53.9l28.7,53.9C874.2,260.8,793.6,246.3,717.4,260.8z"/>
				<path fill="#CECECE" d="M828,237.1H717.4v23.7C717.4,260.8,740.1,245,828,237.1z"/>
			</g>
			<polygon fill="#F5F5F5" points="516.4,237.1 370.8,237.1 370.8,124.1 511.9,124.1 686.8,124.1 828,124.1 828,237.1 682.3,237.1 
							"/>
		</g>
		<g>
			<g>
				<g>
					<path fill="#F9F9F9" d="M992.4,1689.1c0.8,1,1.1,2.3,1.1,3.9v7.5c0,0.2-0.1,0.4-0.2,0.6c-0.2,0.2-0.3,0.2-0.6,0.2
						c-0.2,0-0.4-0.1-0.6-0.2c-0.2-0.2-0.2-0.3-0.2-0.6v-7.4c0-1.2-0.3-2.1-0.8-2.9c-0.6-0.7-1.4-1.1-2.6-1.1
						c-0.7,0-1.5,0.2-2.1,0.5c-0.7,0.4-1.2,0.8-1.6,1.4c-0.4,0.6-0.6,1.3-0.6,2v7.4c0,0.2-0.1,0.4-0.2,0.6c-0.2,0.2-0.3,0.2-0.6,0.2
						s-0.4-0.1-0.6-0.2s-0.2-0.3-0.2-0.6v-7.5c0-1.2-0.3-2.1-0.8-2.8s-1.4-1.1-2.5-1.1c-0.7,0-1.4,0.2-2.1,0.5
						c-0.7,0.4-1.2,0.8-1.6,1.4c-0.4,0.6-0.6,1.2-0.6,1.9v7.5c0,0.2-0.1,0.4-0.2,0.6c-0.2,0.2-0.3,0.2-0.6,0.2s-0.4-0.1-0.6-0.2
						s-0.2-0.3-0.2-0.6v-11.9c0-0.2,0.1-0.4,0.2-0.6s0.3-0.2,0.6-0.2s0.4,0.1,0.6,0.2c0.2,0.2,0.2,0.3,0.2,0.6v1.5
						c0.5-0.7,1.1-1.3,2-1.8c0.8-0.5,1.7-0.7,2.6-0.7c1,0,1.9,0.2,2.7,0.7s1.3,1.2,1.6,2.2c0.4-0.8,1.1-1.5,2.1-2c1-0.6,2-0.9,3-0.9
						C990.5,1687.6,991.7,1688.1,992.4,1689.1z"/>
					<path fill="#F9F9F9" d="M1009,1694.3c-0.2,0.2-0.3,0.2-0.6,0.2h-10.1c0,1.1,0.2,2,0.7,2.9c0.4,0.8,1.1,1.5,1.9,2
						c0.8,0.5,1.8,0.7,2.9,0.7c0.9,0,1.6-0.2,2.3-0.5c0.7-0.4,1.2-0.8,1.6-1.4c0.2-0.2,0.4-0.2,0.6-0.2c0.2,0,0.3,0.1,0.5,0.2
						s0.2,0.3,0.2,0.5c0,0.2-0.1,0.4-0.3,0.6c-0.6,0.7-1.3,1.3-2.1,1.7c-0.9,0.4-1.8,0.7-2.7,0.7c-1.4,0-2.6-0.3-3.6-0.9
						s-1.9-1.4-2.5-2.5c-0.6-1.1-0.9-2.3-0.9-3.6c0-1.5,0.3-2.7,0.9-3.8c0.6-1.1,1.3-1.9,2.3-2.5s2-0.9,3.1-0.9c1.1,0,2.1,0.2,3,0.7
						c0.9,0.5,1.7,1.2,2.3,2.2c0.6,1,0.9,2.1,0.9,3.4C1009.3,1693.9,1009.2,1694.1,1009,1694.3z M1000.2,1690
						c-0.9,0.7-1.4,1.7-1.7,3.1h9.1v-0.2c-0.1-0.8-0.4-1.5-0.8-2.1c-0.4-0.6-1-1-1.7-1.4c-0.7-0.3-1.4-0.5-2.1-0.5
						C1002.1,1688.9,1001.1,1689.3,1000.2,1690z"/>
					<path fill="#F9F9F9" d="M1022.1,1687.5c0.9,0.5,1.4,1.1,1.4,1.9c0,0.4-0.1,0.7-0.3,1s-0.5,0.4-0.9,0.4c-0.3,0-0.5,0-0.7-0.1
						c-0.2-0.1-0.4-0.2-0.5-0.3c-0.2-0.1-0.3-0.2-0.5-0.3c-0.2-0.1-0.4-0.2-0.8-0.2c-0.3-0.1-0.6-0.1-0.8-0.1
						c-1.3,0-2.4,0.4-3.1,1.2s-1.1,1.9-1.1,3.2c0,1.3,0.4,2.3,1.1,3.2c0.8,0.8,1.7,1.3,2.9,1.3c0.9,0,1.5-0.1,1.9-0.3
						c0.1-0.1,0.3-0.1,0.4-0.3c0.2-0.1,0.4-0.2,0.5-0.3c0.2-0.1,0.4-0.1,0.6-0.1c0.4,0,0.8,0.1,1.1,0.4c0.3,0.3,0.4,0.6,0.4,1.1
						c0,0.4-0.2,0.8-0.7,1.2c-0.5,0.4-1.2,0.7-2,0.9c-0.8,0.2-1.7,0.3-2.6,0.3c-1.4,0-2.6-0.3-3.6-1c-1-0.6-1.8-1.5-2.4-2.6
						c-0.6-1.1-0.9-2.4-0.9-3.8c0-1.4,0.3-2.7,0.9-3.8c0.6-1.1,1.4-2,2.5-2.6c1.1-0.6,2.3-0.9,3.6-0.9
						C1020,1686.8,1021.2,1687.1,1022.1,1687.5z"/>
					<path fill="#F9F9F9" d="M1038.8,1698c-0.6,1.1-1.5,2-2.6,2.6s-2.3,0.9-3.7,0.9c-1.4,0-2.6-0.3-3.7-0.9c-1.1-0.6-2-1.5-2.6-2.6
						c-0.6-1.1-1-2.4-1-3.8c0-1.4,0.3-2.7,1-3.8c0.6-1.1,1.5-2,2.6-2.6c1.1-0.6,2.3-0.9,3.7-0.9c1.3,0,2.6,0.3,3.7,0.9
						c1.1,0.6,2,1.5,2.6,2.6c0.6,1.1,1,2.4,1,3.8C1039.7,1695.6,1039.4,1696.9,1038.8,1698z M1036,1691.9c-0.4-0.7-0.9-1.2-1.5-1.6
						c-0.6-0.4-1.3-0.6-2-0.6s-1.4,0.2-2,0.6c-0.6,0.4-1.1,0.9-1.5,1.6c-0.4,0.7-0.5,1.5-0.5,2.3c0,0.9,0.2,1.6,0.5,2.3
						s0.9,1.2,1.5,1.6c0.6,0.4,1.3,0.6,2,0.6s1.4-0.2,2-0.6c0.6-0.4,1.1-0.9,1.5-1.6s0.5-1.4,0.5-2.3
						C1036.5,1693.3,1036.3,1692.6,1036,1691.9z"/>
					<path fill="#F9F9F9" d="M1053.8,1688.4c0.7,1.1,1,2.6,1,4.4v6.8c0,0.5-0.2,0.8-0.5,1.2c-0.3,0.3-0.7,0.5-1.1,0.5
						s-0.8-0.2-1.1-0.5c-0.3-0.3-0.5-0.7-0.5-1.2v-6.8c0-1-0.2-1.7-0.6-2.3c-0.4-0.6-1.1-0.8-2.1-0.8c-1,0-1.8,0.3-2.4,0.9
						s-0.9,1.3-0.9,2.2v6.8c0,0.5-0.2,0.8-0.5,1.2c-0.3,0.3-0.7,0.5-1.1,0.5s-0.8-0.2-1.1-0.5c-0.3-0.3-0.5-0.7-0.5-1.2v-11
						c0-0.5,0.2-0.8,0.5-1.2s0.7-0.5,1.1-0.5s0.8,0.2,1.1,0.5s0.5,0.7,0.5,1.2v0.5c0.5-0.6,1.1-1.2,1.9-1.6c0.8-0.5,1.6-0.7,2.6-0.7
						C1051.8,1686.8,1053.1,1687.4,1053.8,1688.4z"/>
					<path fill="#F9F9F9" d="M1070.2,1687.5c0.3,0.3,0.4,0.6,0.4,1c0,0.2-0.1,0.5-0.2,0.8l-5,10.9c-0.1,0.3-0.3,0.5-0.5,0.7
						s-0.5,0.3-0.8,0.3l-0.2,0c-0.3,0-0.6-0.1-0.8-0.3s-0.5-0.4-0.6-0.8l-5-10.9c-0.1-0.3-0.2-0.6-0.2-0.8c0-0.4,0.2-0.7,0.5-1
						c0.3-0.3,0.7-0.4,1.1-0.4c0.3,0,0.7,0.1,0.9,0.3c0.3,0.2,0.5,0.4,0.6,0.7l3.7,8.4l3.7-8.4c0.1-0.3,0.3-0.6,0.6-0.8
						c0.2-0.2,0.5-0.3,0.8-0.2C1069.6,1687.1,1069.9,1687.3,1070.2,1687.5z"/>
					<path fill="#F9F9F9" d="M1073.3,1685.1c-0.2-0.2-0.4-0.5-0.4-1v-0.5c0-0.5,0.1-0.8,0.4-1c0.3-0.2,0.7-0.3,1.3-0.3
						c0.6,0,1.1,0.1,1.3,0.3c0.2,0.2,0.4,0.5,0.4,1v0.5c0,0.5-0.1,0.9-0.4,1c-0.3,0.2-0.7,0.3-1.3,0.3
						C1074,1685.4,1073.5,1685.3,1073.3,1685.1z M1075.7,1700.8c-0.3,0.3-0.7,0.5-1.1,0.5c-0.5,0-0.8-0.2-1.1-0.5
						c-0.3-0.3-0.5-0.7-0.5-1.2v-11c0-0.5,0.2-0.8,0.5-1.2s0.7-0.5,1.1-0.5c0.5,0,0.8,0.2,1.1,0.5s0.5,0.7,0.5,1.2v11
						C1076.2,1700.1,1076.1,1700.5,1075.7,1700.8z"/>
					<path fill="#F9F9F9" d="M1092.2,1682.1c0.3,0.3,0.5,0.7,0.5,1.2v16.4c0,0.5-0.2,0.8-0.5,1.2c-0.3,0.3-0.7,0.5-1.1,0.5
						c-0.5,0-0.8-0.2-1.1-0.5s-0.5-0.7-0.5-1.1c-0.4,0.5-1,1-1.8,1.3c-0.8,0.4-1.6,0.5-2.4,0.5c-1.2,0-2.3-0.3-3.3-0.9
						s-1.8-1.5-2.4-2.6c-0.6-1.1-0.9-2.4-0.9-3.8c0-1.4,0.3-2.7,0.9-3.8c0.6-1.1,1.3-2,2.3-2.6c1-0.6,2.1-0.9,3.3-0.9
						c0.9,0,1.7,0.2,2.4,0.5c0.7,0.3,1.4,0.7,1.9,1.2v-5.2c0-0.5,0.2-0.8,0.5-1.2c0.3-0.3,0.7-0.5,1.1-0.5
						C1091.5,1681.6,1091.9,1681.8,1092.2,1682.1z M1088.5,1697.4c0.7-0.8,1.1-1.9,1.1-3.2c0-1.3-0.4-2.3-1.1-3.2
						c-0.7-0.8-1.7-1.3-2.8-1.3c-1.1,0-2.1,0.4-2.8,1.3s-1.1,1.9-1.1,3.2c0,1.3,0.4,2.3,1.1,3.2c0.7,0.8,1.7,1.3,2.8,1.3
						C1086.8,1698.6,1087.8,1698.2,1088.5,1697.4z"/>
					<path fill="#F9F9F9" d="M1108.4,1694.9c-0.3,0.3-0.7,0.4-1.1,0.4h-8.8c0.2,1,0.7,1.9,1.5,2.5c0.8,0.6,1.6,0.9,2.6,0.9
						c0.7,0,1.3-0.1,1.7-0.2c0.4-0.1,0.7-0.3,1-0.4c0.2-0.1,0.4-0.3,0.5-0.3c0.3-0.2,0.6-0.2,0.9-0.2c0.4,0,0.7,0.1,1,0.4
						c0.3,0.3,0.4,0.6,0.4,0.9c0,0.5-0.2,0.9-0.7,1.3c-0.5,0.4-1.2,0.8-2,1c-0.8,0.3-1.7,0.4-2.5,0.4c-1.5,0-2.8-0.3-3.9-0.9
						c-1.1-0.6-2-1.5-2.6-2.6c-0.6-1.1-0.9-2.3-0.9-3.7c0-1.5,0.3-2.9,1-4c0.6-1.2,1.5-2,2.5-2.6c1-0.6,2.2-0.9,3.4-0.9
						c1.2,0,2.3,0.3,3.3,1c1,0.6,1.9,1.5,2.5,2.6c0.6,1.1,0.9,2.2,0.9,3.5C1108.9,1694.3,1108.8,1694.6,1108.4,1694.9z
						 M1098.5,1692.6h7v-0.2c-0.1-0.7-0.4-1.4-1.1-1.9c-0.7-0.5-1.4-0.8-2.2-0.8C1100.1,1689.7,1098.9,1690.7,1098.5,1692.6z"/>
				</g>
				<path fill="#F9F9F9" d="M1032.4,1690.2h6.7l-6.7-16.6l-6.7,16.6H1032.4z"/>
				<path fill="#F9F9F9" d="M1039.1,1690.2l-6.7-16.6l-1.1,2.8c0.3,0.2,0.7,0.4,1.1,0.4c0,0,0,0,0,0c0.2,0,0.3,0.1,0.4,0.2l5.3,13.2
					H1039.1z"/>
				<path fill="#F9F9F9" d="M1035.5,1681.4h-6.3l0.9-2.4h4.4L1035.5,1681.4z"/>
				<path fill="#F9F9F9" d="M1033.7,1679.1l0.9,2.4h1l-0.9-2.4H1033.7z"/>
				<path fill="#F9F9F9" d="M1037.8,1686.9H1027l0.9-2.4h8.8L1037.8,1686.9z"/>
				<path fill="#F9F9F9" d="M1037.8,1686.9l-0.9-2.4h-1l0.9,2.4H1037.8z"/>
				<path fill="#F9F9F9" d="M1039.3,1691.4h-13.8c-0.2,0-0.4-0.2-0.4-0.4v-0.4c0-0.2,0.2-0.4,0.4-0.4h13.8c0.2,0,0.4,0.2,0.4,0.4
					v0.4C1039.7,1691.2,1039.5,1691.4,1039.3,1691.4z"/>
				<path fill="#F9F9F9" d="M1039.3,1690.2h-1c0.2,0,0.4,0.2,0.4,0.4v0.4c0,0.2-0.2,0.4-0.4,0.4h1c0.2,0,0.4-0.2,0.4-0.4v-0.4
					C1039.7,1690.3,1039.5,1690.2,1039.3,1690.2z"/>
				<g>
					<path fill="#F9F9F9" d="M1035.7,1676.1l0.3,0.1c0.2,0.1,0.4,0.3,0.5,0.5l0.3,0.8c0.1,0.1,0.2,0.1,0.3,0l0.3-0.8
						c0.1-0.2,0.2-0.4,0.5-0.5l0.3-0.1c0.1-0.1,0.1-0.2,0-0.3l-0.3-0.1c-0.2-0.1-0.4-0.3-0.5-0.5l-0.3-0.8c-0.1-0.1-0.2-0.1-0.3,0
						l-0.3,0.8c-0.1,0.2-0.2,0.4-0.5,0.5l-0.3,0.1C1035.6,1675.8,1035.6,1676,1035.7,1676.1z"/>
					<path fill="#F9F9F9" d="M1037.8,1675.6c-0.2-0.1-0.3-0.2-0.4-0.4c-0.1,0.6-0.5,1-1,1.2c0,0,0.1,0.1,0.1,0.2l0.3,0.8
						c0.1,0.1,0.2,0.1,0.3,0l0.3-0.8c0.1-0.2,0.2-0.4,0.5-0.5l0.3-0.1c0.1-0.1,0.1-0.2,0-0.3L1037.8,1675.6z"/>
				</g>
				<path fill="#F9F9F9" d="M1025.5,1680.4l0.3,0.1c0.2,0.1,0.4,0.3,0.5,0.5l0.3,0.8c0.1,0.1,0.2,0.1,0.3,0l0.3-0.8
					c0.1-0.2,0.2-0.4,0.5-0.5l0.3-0.1c0.1-0.1,0.1-0.2,0-0.3l-0.3-0.1c-0.2-0.1-0.4-0.3-0.5-0.5l-0.3-0.8c-0.1-0.1-0.2-0.1-0.3,0
					l-0.3,0.8c-0.1,0.2-0.2,0.4-0.5,0.5l-0.3,0.1C1025.3,1680.2,1025.3,1680.3,1025.5,1680.4z"/>
				<path fill="#F9F9F9" d="M1027.6,1680c-0.2-0.1-0.3-0.2-0.4-0.4c-0.1,0.6-0.5,1-1,1.2c0,0,0.1,0.1,0.1,0.2l0.3,0.8
					c0.1,0.1,0.2,0.1,0.3,0l0.3-0.8c0.1-0.2,0.2-0.4,0.5-0.5l0.3-0.1c0.1-0.1,0.1-0.2,0-0.3L1027.6,1680z"/>
				<path fill="#F9F9F9" d="M1030.8,1675.9l0.8-0.2l0.2,0.8c0.1,0.5,0.6,0.9,1.2,0.8c0.5-0.1,0.9-0.6,0.8-1.2l-0.2-0.8l0.8-0.2
					c0.5-0.1,0.9-0.6,0.8-1.2c-0.1-0.5-0.6-0.9-1.2-0.8l-0.8,0.2l-0.2-0.8c-0.1-0.5-0.6-0.9-1.2-0.8c-0.5,0.1-0.9,0.6-0.8,1.2
					l0.2,0.8l-0.8,0.2c-0.5,0.1-0.9,0.6-0.8,1.2C1029.7,1675.6,1030.2,1676,1030.8,1675.9z"/>
			</g>
			<path fill="#F9F9F9" d="M1030.8,1675.9l0.8-0.2l1.6-2.3l-0.2-0.8c-0.1-0.5-0.6-0.9-1.2-0.8c-0.5,0.1-0.9,0.6-0.8,1.2l0.2,0.8
				l-0.8,0.2c-0.5,0.1-0.9,0.6-0.8,1.2C1029.7,1675.6,1030.2,1676,1030.8,1675.9z"/>
		</g>
	</g>
</g>
</svg>
