<?xml version="1.0" encoding="utf-8"?>
<!-- Generator: Adobe Illustrator 23.0.4, SVG Export Plug-In . SVG Version: 6.00 Build 0)  -->
<svg version="1.1" id="Layer_1" xmlns="http://www.w3.org/2000/svg" xmlns:xlink="http://www.w3.org/1999/xlink" x="0px" y="0px"
	 width="1200px" height="1800px" viewBox="0 0 1200 1800" style="enable-background:new 0 0 1200 1800;" xml:space="preserve">
<style type="text/css">
	.st0{fill:#E3C8E1;}
	.st1{clip-path:url(#XMLID_6_);fill:#112142;}
	.st2{clip-path:url(#XMLID_6_);}
	.st3{fill:#112142;}
	.st4{fill:#0D0F16;}
	.st5{fill:url(#SVGID_1_);}
	.st6{fill:url(#SVGID_2_);}
	.st7{fill:url(#SVGID_3_);}
	.st8{fill:url(#SVGID_4_);}
	.st9{fill:url(#SVGID_5_);}
	.st10{fill:url(#SVGID_6_);}
	.st11{fill:url(#SVGID_7_);}
	.st12{fill:url(#SVGID_8_);}
	.st13{fill:url(#SVGID_9_);}
	.st14{fill:url(#SVGID_10_);}
	.st15{fill:none;stroke:#D6AF81;stroke-width:1.4173;stroke-miterlimit:10;}
	.st16{fill:#F9F9F9;}
	.st17{fill:#363333;}
	.st18{fill:#FCC173;}
	.st19{fill:none;stroke:#FCC173;stroke-width:1.1983;stroke-linecap:round;stroke-linejoin:round;stroke-miterlimit:10;}
	.st20{fill:none;stroke:#FCC173;stroke-width:1.0419;stroke-linecap:round;stroke-linejoin:round;stroke-miterlimit:10;}
	.st21{fill:none;stroke:#FCC173;stroke-width:2.8876;stroke-linecap:round;stroke-miterlimit:10;}
	.st22{fill:#FFFFFF;}
	.st23{fill:#F9FCFF;}
	.st24{fill:#F9CDD6;}
	.st25{clip-path:url(#SVGID_12_);}
	.st26{clip-path:url(#SVGID_14_);}
	.st27{fill:#583614;}
	.st28{fill:#7A5B24;}
	.st29{fill:#B58F2E;}
	.st30{fill:#FDDD85;}
	.st31{fill:#FFD76F;}
	.st32{fill:#5A441A;}
	.st33{fill:#9E7A2C;}
	.st34{clip-path:url(#SVGID_16_);}
	.st35{fill:none;stroke:#E2AD58;stroke-linecap:round;stroke-miterlimit:10;}
	.st36{opacity:0.4;}
	.st37{fill:#F5DADE;}
	.st38{fill:#FCC943;}
	.st39{fill:#F8BAC5;}
	.st40{fill:#FBDA8E;}
	.st41{fill:#FFEBAB;}
	.st42{fill:#C6D9A8;}
	.st43{fill:#424965;}
	.st44{fill:#969DBB;}
	.st45{fill:#CBCEDC;}
	.st46{clip-path:url(#SVGID_18_);}
	.st47{clip-path:url(#SVGID_20_);}
	.st48{clip-path:url(#SVGID_22_);}
	.st49{clip-path:url(#SVGID_24_);}
	.st50{clip-path:url(#SVGID_26_);}
	.st51{clip-path:url(#SVGID_28_);}
	.st52{clip-path:url(#XMLID_9_);fill:#112142;}
	.st53{clip-path:url(#XMLID_9_);}
	.st54{fill:url(#SVGID_29_);}
	.st55{fill:url(#SVGID_30_);}
	.st56{fill:url(#SVGID_31_);}
	.st57{fill:url(#SVGID_32_);}
	.st58{fill:url(#SVGID_33_);}
	.st59{fill:url(#SVGID_34_);}
	.st60{fill:url(#SVGID_35_);}
	.st61{fill:url(#SVGID_36_);}
	.st62{fill:url(#SVGID_37_);}
	.st63{fill:url(#SVGID_38_);}
	.st64{fill:#3D3D3C;}
	.st65{clip-path:url(#XMLID_10_);fill:#112142;}
	.st66{clip-path:url(#XMLID_10_);}
	.st67{fill:url(#SVGID_39_);}
	.st68{fill:url(#SVGID_40_);}
	.st69{fill:url(#SVGID_41_);}
	.st70{fill:url(#SVGID_42_);}
	.st71{fill:url(#SVGID_43_);}
	.st72{fill:url(#SVGID_44_);}
	.st73{fill:url(#SVGID_45_);}
	.st74{fill:url(#SVGID_46_);}
	.st75{fill:url(#SVGID_47_);}
	.st76{fill:url(#SVGID_48_);}
</style>
<g>
	<g>
		<g>
			<rect x="-0.2" class="st64" width="1200.2" height="1800"/>
			<path class="st22" d="M403.2,329c-3.5-25.9-7.2-51.8-11.2-77.7c-2-12.9-4.1-25.8-6.2-38.8c-1.2-7-0.8-20.4-7-25.6
				c-8.1-6.8-33.7-2.4-39.9,6.1c-8,10.9-1.7,32.7,3.7,45.4c-4.6-1.3-9.5-1.1-13.7,1.1c-2.9-10.9-5.6-21.8-8.6-32.7
				c-1.6-5.6-3-10-9.2-11.3c-11.5-2.4-33.8,2.2-36.4,15.8c-1.9,9.9,1.8,21.5,3.4,31.2c2,12.3,4.3,24.6,6.7,36.9
				c4.9,24.4,9.4,49.6,17.3,73.3c0.1,0.4,0.4,0.6,0.7,0.7c-0.3,0.7-0.1,1.5,0.7,1.8c12.9,3.8,32.3,6,38.7-9.4c2.9-7,1-15.7,0.2-22.9
				c-1.3-11.3-2.7-22.6-5.2-33.7c4.6,0.8,10.5-0.2,13.8-3.4c1.3-1.3,0-3.3-1.7-2.6c-2.2,0.9-4.1,2.1-6.5,2.6c-2.3,0.5-4.6,0.5-7,0.3
				c-0.1,0-0.2,0-0.4,0.1c-1.3-0.4-2.9,0.5-2.7,2.3c1.8,12.5,4.1,25,5.5,37.5c1.3,11.4,1.4,22.6-11.2,27c-7,2.5-15.3,0.7-22.5-0.3
				c0.1-0.2,0.2-0.5,0.2-0.9c-0.7-3.7-1.4-7.4-2.1-11.2c3.1,0.1,6.1,0.4,9.2,0.9c1.7,0.3,2.4-2.2,0.7-2.6c-3.4-0.8-6.9-1-10.4-0.8
				c-0.7-3.6-1.4-7.2-2.2-10.8c3,0.1,6.1,0.2,9.1,0c1.6-0.1,1.6-2.4,0-2.5c-3.2-0.3-6.4-0.1-9.7,0c-0.7-3.2-1.4-6.3-2-9.5
				c3.6,0.2,7.2,0.6,10.9,0.9c1.2,0.1,1.4-1.8,0.3-2.1c-3.7-0.9-7.8-1.1-11.7-0.9c-0.9-4.3-1.9-8.6-2.8-13c1.3,0.1,2.6,0.1,3.9,0.1
				c2.1,0.1,4.2,0.5,6.3,0.5c1.5,0,1.9-2.3,0.4-2.7c-2-0.5-4.2-0.6-6.3-0.7c-1.6-0.1-3.3-0.2-5,0c-0.8-3.7-1.6-7.4-2.4-11.2
				c3.1,0.3,6.2,0.7,9.4,0.7c1.2,0,1.6-2.1,0.3-2.2c-3.3-0.5-6.8-0.6-10.2-0.8c-0.7-3.5-1.5-6.9-2.2-10.4c3.1,0.4,6.6,0.3,9.6,0
				c1.4-0.1,1.4-2.1,0-2.2c-3.1-0.3-6.8-0.4-10.1,0.1c-0.8-4-1.6-8.1-2.3-12.1c3.1,0.1,6.2,0.2,9.2,0.1c1.4,0,1.4-2.2,0-2.2
				c-3.2-0.1-6.4-0.1-9.6,0.1c-0.4-2.4-0.9-4.7-1.3-7.1c-0.2-1.1-0.4-2.3-0.6-3.4c2.8,0.1,5.5,0.2,8.3,0.1c1.5-0.1,1.5-2.3,0-2.3
				c-2.9-0.1-5.8,0-8.7,0.1c-0.8-4.5-1.5-9-2.2-13.5c2.8,0.2,5.8,0.3,8.4,0c1.4-0.2,1.4-2,0-2.2c-2.8-0.4-5.9-0.2-8.8,0
				c-0.1-0.9-0.3-1.8-0.4-2.6c-0.5-3.7-1.3-7.6-1.1-11.2c1.2,0.1,2.4,0.2,3.7,0.4c1.7,0.3,3.3,0.9,5,0.9c1.1,0,1.4-1.5,0.6-2
				c-2.3-1.5-5.8-2-8.9-1.9c0.7-3.2,2.5-6.2,6.5-8.5c3.2-1.9,9.6-2.9,13.4-3.5c6.9-1.1,11.6-2.4,16,5.1c1.9,3.3,2.3,8.6,3.2,12.2
				c2.2,8.1,4.3,16.3,6.5,24.4c0.6,2.2,3.5,2.1,4.2,0.6c0,0,0,0,0.1,0c4.1-1.7,8.1-2.3,12.4-0.9c0.9,0.3,1.7-0.1,2.1-0.8
				c0.1,0.2,0.2,0.5,0.3,0.7c0.8,1.7,3.8,0.8,3.2-1.1c-1-3.1-2.2-6.7-3.4-10.6c2.3,0.1,4.5,0.2,6.8,0.1c1.2,0,1.2-1.8,0-1.8
				c-2.4-0.1-4.8,0-7.2,0.1c-1-3.4-1.8-6.9-2.4-10.4c2.4,0.3,4.9,0.6,7.2,0.5c1.1,0,1.4-1.7,0.3-2c-2.5-0.5-5.2-0.7-7.8-0.8
				c-0.3-2.2-0.4-4.4-0.4-6.5c2.9,0.4,5.9,0.9,8.7,0.7c1.2-0.1,1.6-1.9,0.3-2.2c-2.8-0.7-5.9-0.7-8.9-0.9c0.3-3.5,1.3-6.8,3-9.6
				c3.4,0.1,6.9,0.1,10.3,0c1.5-0.1,1.5-2.3,0-2.3c-2.9-0.1-5.7-0.1-8.6,0c1.1-1.2,2.3-2.3,3.8-3.3c2.9-1.9,8.7-2,12.2-2.4
				c10-1.2,14.9,3.7,18,12.5c2.6,7.5,2.9,17.2,4.1,25.1c5.5,34.2,10.5,68.5,15.1,102.8c0.1,0.6,0.3,1,0.7,1.3
				c-5.2,6.4-13.3,13-22.3,9.5c-4.2-1.6-6.7-5.1-8.4-9.1c2.5,0.5,5,1.1,7.5,1.4c1.2,0.2,1.5-1.8,0.3-2.1c-2.8-0.7-5.8-1.1-8.7-1.6
				c0,0,0,0-0.1,0c-1-2.8-1.7-5.7-2.4-8.5c3.1,0.4,6.2,0.8,9.3,1c1.2,0.1,1.2-1.7,0-1.9c-3.2-0.4-6.5-0.5-9.7-0.8
				c-0.2-0.7-0.4-1.5-0.6-2.2c-0.8-2.6-1.6-5.1-2.3-7.7c0,0,0.1,0,0.1,0c2.8,0.4,5.8,1,8.7,0.9c1.3-0.1,1.6-1.9,0.3-2.2
				c-2.9-0.7-6-0.7-9-0.9c-0.3,0-0.5,0.1-0.7,0.2c-1.1-3.7-2.3-7.4-3.4-11.1c2.9,0.8,5.9,1.2,8.9,1c1.4-0.1,1.5-2.2,0-2.2
				c-3.3-0.1-6.5-0.4-9.7-1.2c-0.9-2.8-1.8-5.5-2.8-8.3c-0.5-1.5-3-0.7-2.6,0.9c3,12,6.9,23.9,10.5,35.8c2,6.8,3.1,15.2,9.1,19.8
				c11.1,8.6,24.2,0.9,31.4-8.6c0.6-0.8,0.4-1.6-0.1-2.1C402.9,330.6,403.3,329.9,403.2,329z"/>
			<g>
				<path class="st22" d="M533.1,301.2c-3.7-21.4-13.1-43.6-21.1-63.8c-8.4-21.3-17.5-43.7-30-63.1c0.3-1.1-0.3-2.4-1.6-2.4
					c-11.5,0.3-22.9,0.9-34.4,1.4c-6.2,0.3-14.8-0.6-20.2,3.3c-4.4,3.2-5.7,8.2-6.6,13.2c-1.4,7.8-1.9,16-2.3,24.1
					c-0.2,0.3-0.2,0.6,0,1c-0.1,3.1-0.3,6.1-0.5,9.1c-1.3,22-2,44.1-2,66.1c0,10.4-0.5,21.1,0.6,31.4c0.4,3.6,0.9,6.3,2.7,8.3
					c-1.1,1-0.8,3.2,1.1,3.4c7,0.9,14,1,21,0.6c4.4-0.3,10.7,0.1,14.4-2.7c7-5.4,3.2-21.7,1.5-29.3c5.4-1.1,10.8-2.1,16.3-2.4
					c5.4-0.3,10.5,0.5,15.8,0.9C480.5,329.5,538.1,330,533.1,301.2z M520.1,315.9c-8.8,3.7-25,2.1-27.9-7.7c2.5,0.1,5,0.1,7.5,0.2
					c1.5,0,1.5-2.4,0-2.3c-2.6,0-5.2,0.1-7.9,0.2c-0.2-1.8,0-3.8,0.7-6c0,0,0-0.1,0-0.1c3.5,0.8,7.2,1.1,10.5,0.3
					c1.3-0.3,1-2.2-0.3-2.3c-4.2-0.2-8.1-0.2-12.1-1.1c-0.1-0.1-0.2-0.2-0.4-0.2c-11.2-3.7-25.7-2.4-36.4,2.3
					c-0.7,0.3-0.9,1-0.8,1.6c-0.1,0.2-0.2,0.4-0.2,0.7c0.4,7.6,5.2,24.3-4.2,27.5c-7.5,2.6-17.8,1.4-26.2,0.7
					c-2.6-2.1-3.7-5.9-4.1-10.3c0,0,0.1,0,0.1,0c3.4,0.4,6.8,0.8,10.2,1c1.4,0.1,1.8-2.3,0.3-2.5c-3.5-0.5-7-0.6-10.6-0.9
					c-0.1,0-0.2,0-0.3,0c-0.2-4.1,0.1-8.5,0.2-12c2.6,0.1,5.3,0.2,7.9,0.1c1.4-0.1,1.4-2.1,0-2.2c-2.6-0.1-5.2,0-7.8,0.1
					c0-0.6,0-1.1,0-1.6c-0.1-8.1-0.1-16.2,0-24.2c0-0.1,0-0.2,0-0.3c2.3,0,4.7,0.2,7,0c1.4-0.2,1.4-2,0-2.1c-2.3-0.2-4.7,0-7,0
					c0.1-5.9,0.3-11.8,0.5-17.7c2.2,0.1,4.3,0.2,6.5,0.1c1.2-0.1,1.2-1.9,0-1.9c-2.1-0.1-4.3,0-6.5,0.1c0.1-4.4,0.3-8.8,0.5-13.1
					c0.1,0,0.1,0,0.1,0.1c2.4,0.4,4.9,0.7,7.4,1c1.4,0.2,1.4-2.1,0-2.2c-2.4-0.3-4.7-0.6-7.1-0.8c-0.1,0-0.2,0-0.3,0
					c0.1-3.1,0.3-6.2,0.5-9.2c0.2-3.7,0.1-9.1,0.2-15.1c1.7,0.2,3.4,0.4,5.1,0.5c1.1,0.1,1.4-1.8,0.3-1.9c-1.8-0.3-3.5-0.4-5.3-0.6
					c0.1-3.7,0.3-7.6,0.7-11.4c2,0.5,4,0.6,6.1,0.2c0.8-0.1,0.6-1.6-0.2-1.5c-2,0.2-3.8,0.2-5.7-0.3c0.6-4.2,1.4-8.3,2.8-11.8
					c2.5,0.3,5.1,0.6,7.6,0.7c1.7,0.1,1.6-2.3,0-2.5c-2.2-0.3-4.4-0.5-6.6-0.6c2-4.1,4.8-7.1,8.8-8.4c6.9-2.2,17.2-0.9,24.5-1.3
					c6.9-0.4,13.9-0.8,20.8-1.3c12.1,24,23.3,48.3,32.6,73.5c5.1,13.8,9.7,27.7,13.8,41.8C528.3,300,531.1,311.2,520.1,315.9z"/>
				<path class="st22" d="M488.7,256.5c-2.6,0-5.2,0.1-7.8,0.2c-0.8-2.5-1.8-4.9-2.9-7.2c2,0.1,4,0.1,6,0.1c1.5,0,1.5-2.3,0-2.3
					c-2.4,0-4.7,0-7.1,0.1c-1.4-2.6-2.8-5.2-4.2-7.8c-0.2-0.4-0.4-0.8-0.7-1.2c1.9,0,3.8,0.1,5.7,0c1.3,0,1.3-1.9,0-2
					c-2.3-0.1-4.6,0-6.8,0c-3.6-6.4-7.3-12.8-11.1-19.1c2.7,0.6,5.5,1.1,8.2,1.5c1.4,0.2,2-1.8,0.6-2.1c-3.3-0.7-6.7-1.2-10.1-1.6
					c-0.3-0.5-0.6-1-0.9-1.5c-1.1-1.7-4.2-1.6-4.3,0.8c-0.3,16.6,0.2,33.8,4.3,50c0,0,0,0,0,0c-0.3,0.8-0.1,1.7,0.9,2.1
					c6.3,2,13.2,1.1,19.4-1c0.5-0.2,0.8-0.5,0.9-0.8c1.3,0.9,3.7,0,3.4-2.1c-0.2-1.2-0.4-2.5-0.7-3.6c2.4,0.1,4.8,0.1,7.2,0.2
					C490.3,259,490.3,256.4,488.7,256.5z M476.1,261.9c-5.2,1.8-10.3,1.9-15.6,1.6c-1.1-13.7-2.5-27.3-2.8-41
					c3.2,5.3,6.4,10.6,9.4,16c4.1,7.4,9.2,15.1,10.6,23.6C477.3,261.7,476.7,261.7,476.1,261.9z"/>
			</g>
			<path class="st22" d="M502.1,190.3c-0.1,0-0.1,0.2,0,0.2C502.2,190.5,502.2,190.3,502.1,190.3z"/>
			<g>
				<path class="st22" d="M619,189c-12-16.8-33-23.1-52.8-24.5c-11.7-0.8-37.8-2.2-34.6,16.4c0,0.2,0.1,0.3,0.2,0.5
					c0,9.2,2.5,18.6,3.9,27.7c1.8,12.4,3.5,24.8,4.9,37.2c1.4,11.7,2.6,23.4,3.6,35.1c0.8,9-0.3,20.5,3.3,28.9
					c5,11.5,22.9,7.9,32.2,4.5c5.7-2.1,6.7-5.3,6.8-11.1c0.2-10.6-2.7-22-5.2-32.3C614.2,260.4,642.8,222.4,619,189z M578.8,267.4
					c-0.7,0.2-1.2,0.7-1.5,1.2c-0.7,0.4-1.1,1.2-0.9,2.2c1.8,7.6,3.4,15.2,4.4,22.9c0.7,5.2-0.2,14-5.4,17.3
					c-1.4,0.9-9.1,1.4-10.8,1.5c-6.2,0.1-12.2-3.5-14.3-9.3c-0.3-0.7-0.4-1.4-0.5-2.2c3.2,0.1,6.5,0.2,9.7,0.2c1.2,0,1.2-1.9,0-1.9
					c-3.3-0.1-6.6,0.1-9.8,0.2c-0.1-1.9,0-3.9-0.1-5.7c-0.1-1.9-0.3-3.8-0.5-5.7c2.7,0,5.5-0.2,8.1-0.5c1.4-0.2,1.5-2.3,0-2.2
					c-2.7,0.1-5.5,0.4-8.2,0.8c-0.5-5.5-1-11-1.5-16.6c-0.3-3-0.6-6-1-9c2.3-0.3,4.4-0.1,6.7-0.1c1.3,0,1.5-1.9,0.3-2.2
					c-2.3-0.6-4.9-0.3-7.2,0.2c-0.9-8.4-2-16.8-3.2-25.1c2.6,0.4,5.5,0.2,8-0.5c1.4-0.4,0.8-2.5-0.6-2.1c-2.5,0.7-5,0.9-7.6,1
					c0,0,0,0-0.1,0c-0.5-3.4-0.9-6.9-1.4-10.3c0-0.1,0-0.2,0-0.3c1.8,0.3,3.6,0.6,5.5,0.8c1.2,0.1,1.5-1.9,0.3-2.1
					c-2-0.3-4-0.6-6.1-0.8c-0.5-3.5-0.9-7-1.4-10.7c2.3,0.3,4.6,0.2,6.7-0.5c1.4-0.5,0.8-2.6-0.6-2.2c-2.1,0.7-4.2,0.9-6.4,0.7
					c-0.4-3.4-0.9-6.8-1.6-10.1c2.9,0.5,6.1,0.8,9,0.7c1.4,0,1.9-2.3,0.3-2.6c-3.1-0.4-6.6-0.5-9.7-0.4c-0.8-4-1.8-7.8-3.1-11.5
					c3,0.3,6.3,0.4,9.3,0.2c1.7-0.1,1.7-2.5,0-2.6c-3.1-0.2-6.4-0.1-9.5,0.2c0,0-0.1,0-0.1,0c1.4-18.9,39.8-11.5,51.4-8.1
					c14.8,4.3,28.7,13.6,34.3,28.5C631.3,231.5,606.7,258.8,578.8,267.4z"/>
				<path class="st22" d="M589.7,216.9c-1.8-6.8-10.7-19.7-19.2-14.5c-0.3,0.2-0.4,0.6-0.3,1c0,0.1-0.1,0.2-0.1,0.2
					c-0.7,4.1,0,8.4,0.5,12.5c0.5,4.6,0.8,9.3,1.9,13.8c0.2,0.7,0.7,1.1,1.3,1.3c-0.4,1,0.2,2.4,1.6,2.7
					C585.3,235.8,592.1,225.7,589.7,216.9z M576.3,229.9c0-0.1,0.1-0.2,0.1-0.3c0-4.5-0.9-9-1.4-13.4c-0.5-4-0.9-8.2-2.3-12
					c5.4,1.7,9.3,4.6,12,10.2C588.1,222,585.1,229.7,576.3,229.9z"/>
			</g>
			<g>
				<path class="st22" d="M730,205.3c-8.4-18.8-27.8-29.2-46.9-34.4c-10.7-2.9-34.2-9-36.9,6.8c-0.5,0-1,0-1.6-0.1
					c-0.9,0-0.8,1.2,0,1.3c0.5,0,0.9,0.1,1.4,0.1c0,0.4-0.1,0.7-0.1,1.1c0,0.2,0,0.3,0.1,0.5c-1.8,9.1-1.2,18.8-1.7,27.9
					c-0.6,12.5-1.5,25-2.5,37.4c-1,11.7-2.1,23.4-3.4,35.1c-1,9-4.4,20-2.5,29c2.6,12.2,20.9,12.2,30.7,10.8c6-0.9,7.6-3.9,8.8-9.5
					c2.3-10.3,1.7-22.1,1.3-32.7C711.2,274.3,746.8,242.7,730,205.3z M675.2,274.3c-0.7,0.1-1.3,0.4-1.7,0.9c-0.8,0.3-1.3,0.9-1.3,2
					c0.3,7.8,0.3,15.5-0.2,23.3c-0.4,5.3-3,13.7-8.7,15.9c-1.6,0.6-9.2-0.4-10.9-0.7c-6.1-1.1-11.3-5.8-12.2-11.9
					c-0.1-0.8-0.1-1.6,0-2.5c4.6,0.6,9.3,1,13.9,1.1c1.7,0,1.7-2.5,0-2.6c-4.5-0.4-9.1-0.6-13.6-0.6c0.3-1.7,0.7-3.4,0.9-4.9
					c1-8,1.9-16.1,2.7-24.1c0,0,0-0.1,0-0.1c3.1,0.5,6.2,0.8,9.2,0.6c1.5-0.1,1.5-2.4,0-2.3c-3.1,0.1-6,0.1-9.1-0.2
					c0.4-4.5,0.8-9,1.2-13.5c2.9,0.8,6.4,1.1,9.4,0.8c1.5-0.2,1.5-2.3,0-2.3c-3.1,0-6.2-0.2-9.3-0.4c0.4-4.5,0.7-9.1,1-13.6
					c3,0.1,6,0.2,9,0.1c1.4,0,1.4-2.2,0-2.2c-2.9-0.1-5.9,0-8.9,0.1c0.3-4.4,0.5-8.9,0.8-13.3c0.1,0,0.1,0.1,0.2,0.1
					c2.6,0.1,5.3,0.2,7.9,0.3c1.3,0.1,1.3-2.1,0-2.1c-2.6,0.1-5.3,0.2-7.9,0.3c-0.1,0-0.1,0-0.1,0.1c0-0.2,0-0.4,0-0.6
					c0.4-9,1.6-18.8,1.5-28.3c1.1,0.1,2.2,0.1,3.3,0.1c1.8,0,3.7,0.1,5.5,0.1c1.6-0.1,1.6-2.4,0-2.4c-1.8-0.1-3.7,0-5.5,0.1
					c-1.1,0-2.2,0-3.3,0.1c-0.1-3.5-0.3-7-0.9-10.3c0.1-0.1,0.2-0.3,0.3-0.5c0.1-0.4,0.2-0.8,0.4-1.2c3.3,0.3,6.6,0.7,9.8,1
					c1.4,0.1,1.5-2.2,0-2.2c-3.1-0.1-6.1-0.2-9.2-0.3c7.5-14.5,40.9-0.7,51,4.5c13.7,7.1,25.5,19,28,34.7
					C733.8,249.4,704.2,271.3,675.2,274.3z"/>
				<path class="st22" d="M695.9,226.9c-0.4-7-6.6-21.4-15.9-18c-0.3,0.1-0.6,0.5-0.5,0.9c0,0.1-0.1,0.1-0.1,0.2
					c-1.5,3.8-1.6,8.2-2,12.3c-0.4,4.6-1.1,9.3-0.9,13.9c0,0.7,0.4,1.3,1,1.6c-0.6,1-0.3,2.4,1.1,3
					C687.8,244.6,696.5,235.9,695.9,226.9z M680.1,237c0-0.1,0.1-0.2,0.1-0.3c0.8-4.4,0.9-9,1.2-13.5c0.3-4,0.8-8.2,0.1-12.2
					c4.9,2.7,8.2,6.4,9.7,12.3C693.3,231.6,688.8,238.6,680.1,237z"/>
			</g>
			<path class="st22" d="M862.1,207.7c-5.9-7.5-16.3-22-27.7-18.1c-4.7,1.6-8.2,6.7-11.4,10.3c-6.9,7.8-13.7,15.7-20,24
				c-4.2-9.4-8.4-18.7-12.6-28.1c-2.2-5-4.1-11.3-8.6-14.9c-8.3-6.5-25.9,0.7-33.7,5.1c-8.9,5-7.7,10.6-3.3,18.9
				c8.2,15.8,18.5,31.3,31.1,44c-5.5,11.6-10.4,23.5-15.4,35.4c-4.1,9.8-10.6,20.9-13,31.3c-3.2,13.7,13,17.4,24.1,20.4
				c14.4,3.9,25,6.3,30.4-8.7c7.6-21.1,11-43.6,14.5-65.7c0.1-0.3,0-0.6,0-0.9c15-8.8,31.9-17.9,45.2-28.9
				C871,224.1,868.9,216.3,862.1,207.7z M836.9,242.2c-8.1,5.1-16.2,10.1-24.1,15.5c-0.9,0.6-0.9,1.5-0.6,2.4
				c-0.2,0.3-0.4,0.7-0.5,1.1c-2.6,16.2-5.2,32.5-9.4,48.4c-1.5,5.8-2.6,15.6-6.5,20.4c-5.7,7.1-19.6,2.3-26.6,0
				c-8.2-2.6-17.9-5-16-15c2.9,0.5,5.9,0.9,8.8,1.2c1.3,0.1,1.6-2.1,0.3-2.3c-2.8-0.5-5.7-0.9-8.6-1.2c0.9-3.3,2.5-6.6,4.1-9.9
				c2.7,0.3,5.4,0.7,8.1,0.8c1.3,0.1,1.2-1.8,0-1.9c-2.4-0.3-4.8-0.5-7.3-0.6c1-2.1,2.1-4.2,2.9-6.2c0.9-2.1,1.7-4.2,2.6-6.3
				c3.1,0.6,6.2,1.3,9.4,1.8c1.3,0.2,1.9-1.8,0.6-2.1c-3.1-0.6-6.1-1-9.2-1.5c3.6-8.6,7.1-17.2,10.5-25.9c2.6,0.5,5.3,0.9,7.9,1.1
				c1.1,0.1,1.4-1.8,0.3-2c-2.5-0.4-5-0.6-7.5-0.8c1.2-3.1,2.3-6.2,3.5-9.3c0.4-1-0.1-1.7-0.8-2.1c0-0.3-0.1-0.6-0.3-0.9
				c-1.6-2.3-5.1-6.6-9.2-11.8c2.8,0.6,5.7,1.3,8.5,1.6c1.1,0.1,1.3-1.6,0.3-1.9c-3.1-0.8-6.3-1.2-9.4-1.7c-0.3,0-0.5,0-0.7,0.2
				c-3-4-6.3-8.4-9.3-12.8c3.1,0.8,6.3,1.6,9.4,2.2c1.4,0.3,2-1.8,0.6-2.2c-3.8-0.9-7.7-1.6-11.5-2.3c-1.9-2.9-3.6-5.8-5.1-8.6
				c3.8,0.7,7.7,1.5,11.6,1.9c1,0.1,1.3-1.6,0.2-1.8c-4.2-0.9-8.5-1.4-12.7-2c-2.3-4.9-3.6-9.4-3.1-12.8c3.2,0.7,6.6,1.1,9.8,1.6
				c1.4,0.2,2-1.9,0.6-2.1c-3.3-0.5-6.6-1-9.9-1.4c0.4-1,1-1.9,1.9-2.6c2.4-2,9.1-3.3,11.9-4.2c10.6-3.6,17.1,0.4,22.8,9.4
				c5.9,9.4,9.7,21.4,14.3,31.6c0.7,1.6,2.4,1.6,3.5,0.8c0.6,0.3,1.4,0.4,2-0.3c1.4-1.4,2.7-2.9,4-4.4c2.8,0.4,5.6,0.7,8.3,1
				c1.5,0.2,1.5-2.2,0-2.4c-2.2-0.2-4.4-0.4-6.6-0.6c2.2-2.5,4.4-5,6.6-7.6c3.1,0.1,6.4,0.3,9.5,0c1.3-0.1,1.3-1.9,0-2
				c-2.5-0.2-5.1-0.1-7.7,0c1.6-1.9,3.3-3.8,5-5.7c1-1.1,1.9-2.2,2.9-3.3c3,0.8,6.2,1.2,9.3,0.9c1.5-0.1,1.5-2.4,0-2.3
				c-2.6,0.1-5.1-0.1-7.6-0.5c5-5,10.3-8.1,18.3-2.8c3.7,2.4,8.1,7.3,10.5,11C869.3,227.4,849,234.5,836.9,242.2z"/>
			<g>
				<path class="st22" d="M272,555c-2.8-27.9-27.7-53.2-56.4-50.7c16.1-23.5,8-57-20.6-66.9c-16.1-5.5-33.8-1.4-48.8,5.4
					c-8.3,3.7-19.2,9-19.6,18.1c-0.5,0.2-0.9,0.8-0.7,1.4c7.3,26.5,20,52.3,30.9,77.6c10.4,24.3,21.5,48.2,33.9,71.5
					c0.8,1.5,2.4,1.3,3.4,0.4c-0.1,1.6,1.7,3.3,3.6,2.4c19.3-9.8,39.2-18.9,58.2-29.4C267.7,578.3,273.4,568.7,272,555z M267,565.3
					c-3.1,13.9-21.1,19.4-32.4,25.1c-13.2,6.6-26.3,13.3-39.5,19.9c-0.2,0.1-0.2,0.2-0.3,0.3c0.1-0.5,0.1-1-0.2-1.6
					c-1.8-3.3-3.5-6.6-5.2-9.9c3.5-0.3,7.3-0.5,10.5-1.7c1.1-0.4,0.9-1.9-0.3-2c-3.6-0.2-7.7,0.8-11.3,1.5c-1.7-3.3-3.3-6.6-4.9-9.9
					c3.3-0.1,6.5-0.3,9.8-0.4c1.1,0,1.1-1.8,0-1.7c-3.5,0.3-7,0.5-10.4,0.8c-1.9-3.9-3.8-7.9-5.7-11.9c3,0.1,6,0.1,9,0.2
					c1.3,0,1.3-2,0-2c-3.3,0.1-6.5,0.1-9.8,0.2c-4.5-9.6-8.8-19.2-13-28.9c3.5,1.5,7.7,1.9,11.3,1.1c1.1-0.2,0.9-2.1-0.3-2
					c-4.2,0.3-7.6,0.1-11.6-1c-0.1,0-0.1,0-0.2,0c-1.3-3-2.6-6-3.9-9c-0.3-0.8-0.7-1.6-1-2.4c2.4,0.4,4.8,0.6,7.2,0.5
					c1.2,0,1.2-2,0-1.9c-2.6,0.2-5.2,0.2-7.8-0.1c-1.8-4.2-3.5-8.5-5.2-12.8c2.8,0.3,5.5,0.6,8.3,0.9c1.3,0.1,1.3-1.9,0-2
					c-3-0.2-5.9-0.3-8.9-0.4c-3.3-8.3-6.5-16.7-10-24.9c2.1,0.4,4.2,0.6,6.2,0.4c1.2-0.1,1.2-1.8,0-1.8c-2.4-0.1-4.8-0.3-7.1-0.7
					c-1.8-4.1-3.6-8.2-5.5-12.3c2.9,0.3,5.8,0.6,8.7,0.7c1.2,0.1,1.2-1.8,0-1.9c-3.2-0.3-6.3-0.5-9.5-0.6c-1.4-2.8-2.7-5.6-4.2-8.4
					c-0.1-1.1,0-2.1,0.2-3.1c3.9,0.8,7.7,1.6,11.6,2.2c1.3,0.2,1.8-1.7,0.5-1.9c-3.9-0.7-7.8-1.3-11.7-1.9
					c3.5-9.3,19.9-14.8,27.8-17.3c11.5-3.7,23.7-5.1,35.3-1c26.1,9.2,33.3,40.6,16.7,61.7c-1,1.3-0.4,2.8,0.6,3.6
					c0.2,0.8,0.8,1.5,1.9,1.4C241.3,507.1,274,533.9,267,565.3z"/>
				<path class="st22" d="M191.3,476.2c-5.8-10.9-20.6-9.3-28.2-1.6c-0.7,0.7-0.4,1.6,0.1,2.1c0,0.1,0,0.2,0.1,0.3
					c2.4,5.8,5.1,11.5,7.7,17.2c0.5,1.1,1.6,1.2,2.5,0.8c0,1.3,1,2.5,2.5,2c5.1-1.8,11.2-2.5,14.6-7.3
					C193.4,485.8,193.6,480.3,191.3,476.2z M184.4,489.8c-2.9,1.6-6.4,2.1-9.5,3.2c0-0.2,0-0.4-0.1-0.6c-1.8-5.7-4.8-11.6-8.6-16.4
					c6.6-3.9,16.5-6.4,21.2,1.6C190.1,481.9,188.8,487.4,184.4,489.8z"/>
				<path class="st22" d="M227.8,551.7c-3.8-6-9.4-10.6-16.8-10.2c-5.2,0.3-14.2,2.9-15.9,8.5c0,0.1,0,0.1,0,0.2
					c-0.4,0.3-0.7,0.9-0.4,1.5c3.1,8.4,7.9,17.2,13.6,24.1c0.4,0.5,0.9,0.6,1.3,0.6c-0.2,1.1,0.6,2.6,2,2.7c5.8,0.4,14-4.3,17.4-8.9
					C233.3,564.3,231.3,557.4,227.8,551.7z M222.1,570.5c-3.2,2.2-7,3.7-10.8,4.5c0.2-0.5,0.3-1.2,0-1.8
					c-4.1-7.3-8.7-14.5-13.2-21.5c0.1-0.2,0.2-0.4,0.2-0.6c0.3-3,9.6-5,12.1-5.2c6.7-0.5,11.1,3.5,14.3,8.9
					C227.8,560.4,227.7,566.7,222.1,570.5z"/>
			</g>
			<path class="st22" d="M331.1,539.7c-11.8-44.6-25.4-91-46.4-132.4c0.2-0.3,0.2-0.7,0-1.1c-0.7-1.6-1.6-2.9-2.6-3.9
				c-0.1-0.2-0.2-0.5-0.4-0.7c-0.3-0.5-0.7-0.7-1.2-0.6c-8.6-6-24.8,1-33.4,8.2c-0.2,0-0.5,0.1-0.7,0.3c-6.5,4.3-7.1,10.9-5.7,18.2
				c2.8,14.5,10,29.1,15.5,42.8c11.5,28.4,24.1,56.6,39.5,83.2c0.6,1.1,1.8,0.9,2.5,0.2c10.6,4,26.3-0.3,31-11.3
				C330.5,542.2,331.5,541.2,331.1,539.7z M326.2,540.1c-3.6,4-6.5,7.5-11.7,9.5c-5,2-9.9,2-15.1,1c-0.5-0.1-0.9,0-1.2,0.3
				c-3.8-7.9-7.6-15.8-11.4-23.6c3.5,0.4,7,0.7,10.4,1.1c1.1,0.1,1.2-1.8,0-1.8c-3.7-0.1-7.3-0.3-11-0.4c-2.2-4.5-4.3-9-6.4-13.6
				c2.9,0.1,5.8,0.1,8.8,0.1c1.2,0,1.2-1.9,0-1.9c-3.2,0-6.4,0-9.6,0.1c-2.2-4.7-4.4-9.4-6.5-14.2c3.9,0.8,7.9,1.3,11.9,1.9
				c1.4,0.2,1.7-1.7,0.3-1.9c-4.2-0.5-8.4-1.2-12.6-1.5c-0.1,0-0.1,0-0.2,0.1c-1.8-4-3.5-8-5.2-12c-0.1-0.2-0.2-0.4-0.3-0.7
				c3.7,0.1,7.5,0.2,11.2,0.3c1.3,0,1.3-2.1,0-2.1c-3.9,0.1-7.9,0.2-11.8,0.3c-2.2-5.3-4.4-10.7-6.6-16c4.2,0.6,8.6,1.4,12.8,1.5
				c1.3,0.1,1.6-2.1,0.3-2.3c-4.5-0.7-9.1-0.8-13.6-1.1c-0.1,0-0.1,0-0.2,0c-1.6-4.1-3.3-8.3-4.9-12.5c-0.1-0.3-0.2-0.6-0.3-0.8
				c3.1,0.2,6.1,0.4,9.2,0.8c1.2,0.1,1.5-1.9,0.3-2.1c-3.3-0.6-6.9-0.8-10.2-0.5c-1.8-4.3-4.3-9.8-6-15.3c3.7,0.6,7.5,0.9,11.2,1.2
				c1.4,0.1,1.4-2,0-2.1c-3.6-0.3-7.4-0.6-11-0.6c-0.3,0-0.4,0.1-0.6,0.3c-1.3-4.7-2-9.3-1-13.3c3.4,0.3,6.8,0.7,10.2,0.9
				c1.5,0.1,1.5-2.2,0-2.4c-3.2-0.3-6.3-0.4-9.5-0.6c0.6-1.5,1.6-2.9,2.9-4.1c0.2-0.2,0.3-0.4,0.4-0.6c9.6-5.4,23.5-13.3,31.4-5.7
				c15.8,44.6,33.5,88,45.7,134C326.3,540.1,326.2,540.1,326.2,540.1z"/>
			<g>
				<path class="st22" d="M456,497.2c-10.1-19.5-35.1-35-56.8-39c21-20,22.5-56-4.3-72.3c-14.5-8.9-34.4-10-50.8-7.6
					c-13.6,2.1-30.9,6.4-37.8,19.4c-0.1,0.3-0.2,0.5-0.2,0.8c-0.3,0.5-0.5,1.1-0.3,1.8c6.8,28.2,15.3,56,24.8,83.4
					c6.3,18.3,12.5,42.3,29,54.4c0.3,0.4,0.7,0.8,1.3,0.8c0.3,0.1,0.7,0.1,0.9-0.1c7.8-1.9,16-4.8,23.3-8.1c3.4-1.5,6.2-2.4,6.9-6.4
					c0.8-4.2-2.8-9.1-4.2-12.8c-2.6-7-4-14.3-5.5-21.6c15.8,4.5,22.2,16.5,32.2,28.4c0.2,0.2,0.4,0.4,0.7,0.5
					c0.3,0.5,0.7,0.8,1.5,0.8C428.5,519.6,465.8,516,456,497.2z M442.6,510.6c-7.2,3.7-16.9,4.7-24.9,5.5c0-0.1,0-0.2-0.1-0.3
					c-1.7-3.4-3.9-6.9-6.3-10.2c3.1,0.6,6.2,1.2,9.3,1.6c1.4,0.2,2-1.9,0.6-2.1c-3.5-0.6-7-1.1-10.5-1.5c-0.3,0-0.6,0.1-0.7,0.3
					c-1.7-2.2-3.6-4.3-5.6-6.3c0,0,0,0,0,0c3.4,0.4,6.8,1,10.2,1c1.2,0,1.5-1.9,0.3-2.1c-3.4-0.6-7-0.6-10.5-0.8
					c-0.7,0-1,0.5-0.9,1.1c-3.5-3.3-7.5-6-11.7-7.9c3.3,0.6,6.6,1.2,10,1.8c1.4,0.2,1.9-1.9,0.6-2.1c-3.5-0.5-7-1-10.5-1.4
					c-0.8-0.1-1.1,1-0.6,1.4c-3.1-1.3-6.5-2.2-9.9-2.5c-0.5,0-0.9,0.1-1.1,0.4c-0.6,0.2-1.1,0.7-1.1,1.4c-0.2,8.4,1.6,16.7,4.5,24.6
					c0.3,0,0.5,0,0.8,0.1c0.7,5.3,4.6,12.4-0.6,15.1c-0.5,0-0.9,0-1.3-0.1c-1.3,1-3,1.5-5.1,1.2c-0.2,0.1-0.3,0.1-0.4,0.2
					c-5.1,1.9-10.3,3.6-15.3,5.7c-3.5-4.3-6.5-8.7-9.3-13.3c3,0.3,6,0.4,8.9,0.8c1.1,0.1,1.3-1.7,0.3-1.9c-3.2-0.5-6.8-0.8-10.1-0.4
					c-2.3-3.9-4.3-7.9-6.2-12c3.3,0.1,6.5,0.1,9.8,0.2c1.5,0.1,1.5-2.3,0-2.3c-3.5,0.1-7,0.2-10.5,0.3c-1.8-4-3.4-8-4.9-12.1
					c3.3,0,6.7-0.1,10-0.4c1.4-0.1,1.5-2.3,0-2.2c-3.5,0.1-7.1,0.5-10.5,1c0,0,0,0-0.1,0c-1.8-4.8-3.4-9.6-5.1-14.5
					c3.4,0.6,6.8,1,10.2,1c1.1,0,1.1-1.8,0-1.8c-3.6,0.1-7.1-0.1-10.6-0.6c-0.5-1.6-1.1-3.1-1.6-4.7c-0.8-2.3-1.5-4.7-2.3-7
					c3.5,0.1,7.1,0.4,10.5,0.1c1.4-0.1,1.4-2.1,0-2.2c-3.6-0.2-7.4,0.1-11,0.1c0,0-0.1,0-0.1,0c-1.4-4.4-2.8-8.8-4.1-13.3
					c0.1,0,0.2,0.1,0.3,0.1c3.1,0.4,6.3,0.6,9.4,0.7c1.4,0,1.4-2.1,0-2.2c-3.1-0.2-6.3-0.3-9.4-0.3c-0.4,0-0.6,0.2-0.7,0.4
					c-2.8-9.1-5.4-18.2-7.9-27.3c2.8,0.5,5.6,1,8.4,1.4c1.2,0.2,1.8-1.7,0.5-1.9c-3.1-0.5-6.3-0.9-9.4-1.3
					c-1.3-4.6-2.5-9.3-3.8-13.9c2.9,0.5,5.8,1.1,8.7,1.6c1.3,0.2,1.8-1.7,0.5-1.9c-3.2-0.5-6.5-1.1-9.7-1.6
					c-0.4-1.4-0.8-2.8-1.2-4.3c0-0.1-0.1-0.2-0.1-0.3c17.1-19.3,53.8-21,76.3-11.8c30,12.2,30.5,49.6,8.1,69.4
					c-0.8,0.7-0.9,1.5-0.6,2.2c-0.8,1-0.6,2.7,1.1,3.1c17.2,4.9,32.4,11.2,45.5,23.9C449.3,494,458.4,502.4,442.6,510.6z"/>
				<path class="st22" d="M377.2,422c-4.2-11.6-18.3-11-27.5-6.5c-0.9,0.5-0.8,1.5-0.2,2c0.3,2.8,2.9,5.8,4.1,8.3
					c1.8,3.7,2.7,7.6,3.8,11.5c0.2,0.7,0.7,1.1,1.4,1.3c0.3,0.3,0.8,0.6,1.4,0.5C369,438.3,381.1,432.9,377.2,422z M361.3,434.7
					c-0.6-3.5-2-7-3.5-10.2c-1-2.1-2.4-5.1-4.4-7.1c7.1-1.5,16.1-2.5,19.5,5.4C376.4,430.9,367.5,433.3,361.3,434.7z"/>
			</g>
			<path class="st22" d="M561.8,374c-0.1-5.6,1.1-12.9-0.8-18.2c-2.9-8.4-12.6-5.2-19.3-4.4c-31.7,3.8-63.3,8.7-94.7,14.6
				c-7.7,1.5-21,1.6-26.2,9c-5.1,7.2-0.2,19,2.5,26.2c2.7,7,5.8,15.6,14,17.3c10,2.1,25.2-4.9,33.9-8.8c0.3-0.1,0.6-0.4,0.8-0.6
				c2.7,26.1,8.3,51.9,13.9,77.5c3.6,16.5,5.7,29.4,25.7,27.3c7-0.8,17.9-2.1,23.4-6.9c5.5-4.8,3.7-12.2,3.1-18.7
				c-2.5-27.1-6.9-54-12.9-80.5c11.7-2.6,23.4-5.3,35-7.9c1.3-0.3,2.1-1.2,2-2.6L561.8,374z M555.2,396.1
				c-2.3,2.1-10.8,2.4-13.7,3.1l-18.2,4.1c-0.7,0.1-1.1,0.5-1.4,1c-1,0.2-1.8,1-1.5,2.4c4,17.5,7.4,35.2,9.9,53
				c1.3,8.9,2.3,17.8,3.2,26.8c0.7,6.9,0.8,13.6-5.1,18.8c-3.2,2.8-11,3.1-15.3,3.7c-7.2,1-11.8,1.3-16.2-5.1
				c-1.6-2.4-2.6-4.6-3.4-6.9c3.4,0.3,6.7,0.7,10,1.5c1.4,0.3,1.9-1.8,0.6-2c-3.7-0.5-7.4-0.9-11.1-1c-0.6-2.2-1.1-4.5-1.7-7.1
				c-0.4-1.7-0.7-3.4-1.1-5c3.4,0.8,6.8,1.5,10.1,2.2c1.5,0.3,2.1-1.9,0.6-2.2c-3.7-0.7-7.5-1.5-11.2-2.1c-0.7-3.3-1.5-6.6-2.2-9.9
				c3,0.4,6.1,0.7,9.1,0.9c1.5,0.1,1.5-2.2,0-2.3c-3.2-0.3-6.4-0.5-9.5-0.6c-0.5-2.5-1-4.9-1.5-7.4c-0.4-1.9-0.7-3.8-1.1-5.7
				c2.6,0.6,5.3,1.2,8,1.7c1.5,0.3,2.2-2,0.6-2.3c-3-0.7-6.1-1.3-9.1-1.8c-0.8-4.1-1.6-8.1-2.4-12.2c2.3,0.4,4.6,0.8,6.9,1.2
				c1.6,0.3,2-2,0.3-2.2c-2.5-0.3-5.1-0.6-7.6-0.9c-1-5.1-1.9-10.2-3-15.4c3.1,0.9,6.2,1.9,9.4,2.5c1.5,0.3,2.1-1.8,0.6-2.3
				c-3.3-1-6.8-1.7-10.2-2.5c-0.1,0-0.2,0-0.2,0c-0.7-3.3-1.3-6.7-2.1-10c2.7,0.6,5.5,1.1,8.3,1.5c1.3,0.2,1.6-2.1,0.3-2.3
				c-3-0.6-6-1-9-1.4c-0.2-1.1-0.4-2.2-0.7-3.3c-0.3-1.5-2.4-1.4-2.6-0.1c-0.5-0.5-1.2-0.7-2.1-0.4c-10.4,4-28.9,13.5-38.3,2
				c-2.7-3.4-4.2-9.5-5.5-13.5c-0.3-1-0.5-1.9-0.6-2.8c0.1,0.1,0.2,0.1,0.4,0.1c3.4,0.4,6.8,0.9,10.2,1.1c1.5,0.1,1.5-2.2,0-2.4
				c-3.4-0.4-6.8-0.5-10.2-0.7c-0.2,0-0.4,0.1-0.6,0.2c-0.2-3.2,0.5-6.1,2-8.7c3.4,0.7,6.7,1.3,10.1,1.9c1.5,0.2,2.1-2,0.6-2.3
				c-3.1-0.6-6.2-1.1-9.4-1.6c2.4-3,5.9-5.3,10.2-6.8c9.6-3.4,21.3-4,31.4-5.8c10.5-1.8,21-3.5,31.5-5.1c10.5-1.6,21.1-3,31.7-4.4
				c4.2-0.5,9.4-1.8,13.6-1.6c9.5,0.3,10,4.4,10.2,12.8C557.3,375.7,560.7,391.1,555.2,396.1z"/>
			<g>
				<path class="st22" d="M807.5,436.5c-0.5-18-3.8-35.9-15.3-50.2c-11.7-14.6-63.6-55.2-75.6-24.1c-7.9,20.6-11.6,44.1-15.6,65.7
					c-4.4,24-7.7,48.3-8.6,72.7c-0.1,1.3,1.2,2,2.1,1.7c0.1,2.7,1.8,5.4,4.3,6.6c0.1,0.9,0.7,1.7,1.8,2
					c32.7,8.9,76.1,11.6,96.4-21.6C806.6,473.8,808,454.4,807.5,436.5z M794.6,484.3c-18.3,34.4-61.2,30.3-93.1,22.3
					c-2.8-1.1-4.4-3.3-4.7-6.4c-0.1-0.6-0.6-0.9-1.1-0.9c0.2-1.3,0.3-2.6,0.5-3.9c3.1,0.4,6.4,0.3,9.4-0.5c1.5-0.4,0.9-2.6-0.6-2.3
					c-2.9,0.7-5.7,1-8.6,1c0.5-4.2,1-8.3,1.5-12.5c0,0,0,0,0.1,0c2.9,0.5,6,0.4,8.9,0.4c1.6,0,1.6-2.5,0-2.5c-2.9,0-5.9-0.1-8.7,0.4
					c0.6-4.9,1.3-9.9,1.9-14.8c3.1,0.1,6.1,0.1,9.2,0.3c1.5,0.1,1.5-2.4,0-2.3c-3,0.1-6,0.2-8.9,0.3c1.9-14.1,4.2-28.1,6.9-42.1
					c2.8,0.3,5.6,0.6,8.4,0.8c1.4,0.1,1.4-2,0-2.2c-2.6-0.3-5.3-0.5-8-0.7c0.8-4.2,1.7-8.3,2.5-12.5c0.1,0.1,0.3,0.2,0.5,0.3
					c3.3,0.7,7.1,1,10.5,1c1.1,0,1.5-1.8,0.3-2c-3.4-0.5-7.1-0.9-10.5-0.8c-0.2,0-0.3,0.1-0.4,0.1c0.5-2.5,1.1-5.1,1.7-7.6
					c2.1-8.9,4.3-17.8,6.8-26.6c0.5-1.7,0.8-3,1.1-4.1c3.5,0.1,7,0.2,10.5,0.1c1.5,0,1.5-2.3,0-2.3c-3.2-0.1-6.5,0-9.7,0.1
					c1-2.3,2.7-3.6,7.2-5.6c7.9-3.4,11.4-1.9,19.6,1.3c15.2,6,30.5,16.2,40.9,29C807.5,412.5,808.6,458.1,794.6,484.3z"/>
				<path class="st22" d="M764.4,415c-5.1-4.8-17-11-22.4-3.4c-3.8,5.3-3,17-3.7,23.1c-1.3,10.7-3.1,21.4-3,32.1c0,1.1,1,1.4,1.9,1
					c0.2,1,1.1,2,2.4,2C766.7,469.7,786.3,435.7,764.4,415z M738.9,465.3c-0.2,0-0.4,0.1-0.6,0.1c2.2-9.1,3-18.5,4.1-27.8
					c1.1-9.1,0.4-32.8,16.4-21.4c9.4,6.7,12.2,19.8,8.4,30.4C762.9,458.8,751.4,465.1,738.9,465.3z"/>
			</g>
			<g>
				<path class="st22" d="M931.7,393.6c-3.8-5.4-10.6-7.5-16.6-9.4c-14.6-4.6-31.3-9.5-42,4.2c-14.8,19.1-26,42.4-38,63.3
					c-6,10.4-11.9,20.9-17.6,31.4c-0.2,0.4-0.4,0.8-0.7,1.2c-0.3,0.2-0.5,0.5-0.4,0.8c-5.9,10.5-13.2,21.3-17.3,32.5
					c-5.6,15.1,15.4,23.2,27.4,24.6c18.4,2.1,24.9-14,27.5-29.1c6.7,2.2,13.3,3.4,19.6,6.8c2,1.1,4.4,3.4,6.7,3.6
					c-4.5,9-13.7,30.9-1.7,36.6c6.5,3,19,4.7,26.3,4.2c6-0.4,10.4-3.7,13.2-8.8c4.2-7.5,5-17,6.5-25.2c2.2-12.1,4.1-24.3,5.6-36.5
					c3.1-25.1,4.7-50.4,4.7-75.7C935,410.3,936.4,400.2,931.7,393.6z M930.1,431.7c-0.5,19.1-1.8,38.1-4,57.1
					c-2.2,19.4-3.9,40.8-10.1,59.4c-3,8.9-7.1,11.6-17.2,10.8c-3.6-0.3-8.7-1.1-12.1-2.1c-7.9-2.3-9.5-7.9-8.6-14.3
					c2.4,0.5,4.9,1.1,7.3,1.6c1.5,0.3,2.1-2,0.6-2.2c-2.5-0.4-5-0.8-7.6-1.2c0.6-3,1.8-6.1,3-9c2.5,0.3,4.9,0.7,7.4,0.9
					c1.4,0.1,1.3-2,0-2.2c-2.2-0.3-4.4-0.4-6.6-0.6c0.8-1.8,1.6-3.4,2.3-5c0.7-1.4-0.1-2.7-1.2-3.2c0.1-0.4,0.2-0.8,0.1-1.2
					c-0.1-0.3-0.2-0.5-0.3-0.8c-0.6-1.9-3.9-1.6-3.6,0.5c-0.2-1.4,0.5-0.6-1-1.9c-1.1-0.9-2.7-1.6-3.9-2.2c-2-1-4.1-2-6.2-2.7
					c-4.5-1.7-9.6-3.1-14.4-2.8c0,0,0,0,0,0c-0.6-1.1-2.5-1.4-2.8,0.2c-2,8.3-4.5,19.6-12.3,24.5c-7.9,5-25.3,1.2-31.8-5.7
					c-3.5-3.7-3.6-8.3-2.2-13.1c3.8,0.3,7.5,0.7,11.2,1.6c1.2,0.3,1.8-1.6,0.5-1.9c-3.6-0.8-7.5-1.3-11.2-1.3
					c1.4-3.8,3.5-7.5,5.6-10.9c4.1,0.2,8.3,0.2,12.5,0.2c1.4,0,1.5-2.2,0-2.2c-3.8,0-7.6,0-11.3,0.2c1.1-1.8,2.1-3.4,2.9-4.8
					c1.9-3.6,3.9-7.1,5.8-10.6c2.9,0.6,5.9,0.9,8.9,1.1c1.5,0.1,1.5-2.3,0-2.3c-2.7,0-5.3-0.2-7.9-0.5c2.4-4.4,4.8-8.9,7.3-13.3
					c0.3-0.5,0.6-1,0.9-1.6c3,0.6,6.1,1.1,9.2,1.1c1.5,0,1.5-2.2,0-2.3c-2.8-0.1-5.5-0.3-8.2-0.6c2.4-4.2,4.8-8.4,7.2-12.6
					c2.6,0.6,5.2,1.3,7.8,1.9c1.4,0.4,2-1.9,0.6-2.2c-2.5-0.5-4.9-1-7.4-1.6c1.9-3.4,3.9-6.7,5.8-10c2.6,1.1,5.5,1.6,8.4,1.3
					c1.3-0.2,1.4-2.3,0-2.1c-2.6,0.2-5,0-7.5-0.7c2.5-4.3,5.1-8.7,7.6-13c3.6,0.5,7.3,0.9,10.9,1.1c1.6,0.1,1.6-2.3,0-2.5
					c-3.2-0.4-6.4-0.5-9.6-0.7c0.9-1.4,1.7-2.9,2.5-4.3c1.8-2.9,3.5-5.9,5.3-8.8c3.1,0.7,6.2,1.4,9.4,2.1c1.3,0.3,1.9-1.8,0.6-2.1
					c-3-0.6-6-1.1-9-1.7c2-3.3,4-6.6,6.1-9.9c3.2,0.4,6.5,0.9,9.7,1.1c1.2,0.1,1.5-2,0.3-2.1c-2.9-0.4-5.9-0.6-8.9-0.7
					c0.6-0.9,1.2-1.9,1.7-2.9c1.5-2.4,3-5.1,4.9-7.5c3.7,0.9,7.4,1.5,11.1,2.4c1.7,0.4,2.3-2.3,0.7-2.5c-3.4-0.5-6.8-1.1-10.2-1.7
					c1.7-1.8,3.8-3.4,6.3-4.2c5.2-1.6,11.6,0.2,16.6,1.2c9.8,2,23,4.2,27.7,14.3C933.1,407.3,930.3,423.8,930.1,431.7z"/>
				<path class="st22" d="M908,451.7c-3.6-1.3-7.4-2.2-11.2-2.1c-0.4-3.7-1.4-6.8-3.3-8.2c-7.4-5.2-26.9,40.7-29.8,47.1
					c-0.6,1.4,0.6,2.6,1.7,2.4c2.3,2.5,6.1,3.8,9.1,5c4.2,1.7,8.6,3.1,13.1,3.4c0.6,0,1-0.2,1.4-0.5c0.9,1,2.7,1.3,3.5-0.3
					c0.5-1,1-2,1.4-3c2.1,0.7,4.2,1.2,6.4,1.5c1.5,0.2,1.8-1.9,0.3-2.1c-2-0.3-4-0.7-6-1.3c1-2.8,1.6-5.6,1.9-8.5
					c1.9,0.1,3.8,0.1,5.7,0.2c1.5,0,1.5-2.4,0-2.4c-1.8,0.1-3.7,0.1-5.5,0.2c0.3-3.2,0.3-6.4,0.2-9.7c2.7,0.8,5.4,1.5,8.2,2.2
					c1.4,0.4,2-1.9,0.6-2.2c-2.9-0.6-5.9-1.3-8.8-1.9c0-0.9-0.1-1.8-0.1-2.7c-0.1-1.5,0.1-4.1,0.2-7.1c2.8,0.6,5.6,1.3,8.3,1.5
					c1.2,0.1,1.5-1.8,0.3-2.1c-2.8-0.7-5.7-1-8.6-1.4c0.1-2.8,0.1-5.9-0.1-8.7c3.7,0.4,7.1,1.2,10.5,2.6
					C908.7,454.2,909.3,452.2,908,451.7z M892.6,471.1c0.1,4.2,0.2,8.3-0.2,12.4c-0.5,0.3-0.6,1-0.2,1.4c-0.5,3.8-1.4,7.5-3.2,11
					c-0.2-0.2-0.5-0.4-0.8-0.5c-4.1-1.1-8.3-1.8-12.4-3.1c-2.9-0.9-5.7-2.6-8.6-3.2c4.2-6.9,8.1-14.1,12-21.2
					c1.7-3.1,9-19.1,11.3-18.2C893.6,450.8,892.5,467.5,892.6,471.1z"/>
			</g>
			<path class="st22" d="M1075.2,476.2c-2.4-9.3-7-24.5-18.2-25.3c-14.4-1-33.5,11.5-45.6,18.9c0.3-10.9,0.3-21.8-0.3-32.6
				c-0.3-5.5,0.4-15.1-3.7-19.8c-7-8-24.1-1.7-32.1,1.2c-13.2,4.7-15,8-13.1,21.6c2.4,17.8,8,34.6,18.2,49.4
				c-0.1,0.1-0.1,0.1-0.2,0.2c-14,20.4-26,42.4-38.6,63.6c-3.2,5.4-10.5,13.7-7.6,20.8c2.4,5.9,10.9,8.6,16.1,11
				c12.7,5.6,22.8,9.6,29.7-4.3c11.6-23.3,22.6-46.9,34-70.4c0.2-0.3,0.2-0.7,0.2-1C1034.2,510.3,1082.8,505.5,1075.2,476.2z
				 M1013.5,504.6c-1.5,0-2.3,1.1-2.4,2.3c-0.6,0.1-1.2,0.5-1.5,1.2c-7.3,15.1-14.6,30.3-21.9,45.4c-3.6,7.4-6.6,15.7-11,22.7
				c-7.6,12.3-15,9-26.1,3.8c-2.2-1-6.3-2.3-7.9-4.1c-3.2-3.5-3.2-7.1-2-10.5c4.3,0.3,8.6,0.8,12.9,0.9c1.3,0,1.3-1.9,0-2
				c-4-0.4-8.1-0.5-12.1-0.7c1.3-2.7,3.2-5.3,4.6-7.6c0.9-1.5,1.8-3,2.7-4.5c1.3,0,2.7-0.1,4-0.1c1.9,0,3.7,0.2,5.5,0.2
				c1.6,0.1,1.5-2.3,0-2.4c-2.5-0.2-5.5-0.3-8.2,0.1c2.2-3.7,4.4-7.3,6.5-11c2.6,0.6,5.2,1.1,7.7,1.4c1.4,0.2,2.1-1.9,0.6-2.2
				c-2.3-0.5-4.7-0.9-7.1-1.3c2.1-3.6,4.3-7.2,6.5-10.8c2.7,0.4,5.5,0.8,8.2,0.9c1.2,0,1.5-2,0.3-2.1c-2.4-0.4-4.9-0.5-7.3-0.6
				c2.9-4.9,5.8-9.7,8.7-14.7c3.1,0.3,6.3,0.6,9.4,1c1.3,0.2,1.3-2,0-2.1c-2.8-0.2-5.6-0.4-8.4-0.6c2.5-4.4,4.9-8.8,7.3-13.3
				c2.2,0.1,4.5,0.1,6.7,0.1c1.4,0,1.5-2.3,0-2.2c-1.9,0-3.7,0-5.6,0.1c0-0.1,0.1-0.1,0.1-0.2c0.3-0.6,0.3-1.1,0.1-1.5
				c0.3-0.4,0.4-1,0.1-1.6c-2-3.8-3.8-7.6-5.6-11.5c3.9,0.7,7.8,1.5,11.7,2c1.2,0.2,1.5-1.9,0.3-2.2c-4.3-0.9-8.6-1.4-13-2
				c-1.8-4.1-3.4-8.2-4.8-12.4c3.2,0.4,6.4,0.9,9.6,1.1c1.5,0.1,1.4-2.1,0-2.3c-3.4-0.4-6.8-0.5-10.2-0.7c-0.4-1.4-0.9-2.8-1.2-4.2
				c-0.6-2.2-1.1-4.3-1.5-6.5c3.2,0.6,6.3,1.2,9.5,1.8c1.5,0.3,2.1-1.8,0.6-2.2c-3.3-1-7-1.6-10.5-1.8c-0.5-2.5-0.9-5.1-1.2-7.7
				c-0.2-1.3-0.3-2.4-0.4-3.5c3.7,0.2,7.2,0.8,10.8,1.8c1.4,0.4,2-1.8,0.6-2.2c-3.7-1.1-7.6-1.6-11.5-1.4c-0.1-5.7,2-8.4,10-11.2
				c4.2-1.5,8.6-2.7,13.1-3.5c13.5-2.4,16,6.2,16.6,17.4c0.6,11.2,0.6,22.3,0.2,33.5c-0.1,1.7,1.4,2.4,2.7,2.2
				c0.4,0.8,1.3,1.3,2.3,0.8c2.6-1.4,5.2-2.7,7.9-4c0.1,0.4,0.4,0.7,0.9,0.7c3.7,0.3,7.3,0.7,11,0.8c1.4,0.1,1.3-2,0-2.1
				c-3.1-0.3-6.3-0.5-9.5-0.7c3.6-1.8,7.2-3.5,10.8-5.1c3.7,0.2,7.3,0.8,10.9,1.5c1.4,0.3,2-1.8,0.6-2.1c-2.4-0.6-4.8-1-7.2-1.3
				c1.8-0.8,3.7-1.5,5.5-2.2c7.1-2.7,11.6-5,18-0.3c5.7,4.2,8.3,12,9.9,18.7C1076.6,502.1,1028.9,505,1013.5,504.6z"/>
			<path class="st22" d="M429.6,290.3c-3.1-0.3-6.7-0.3-9.7,0.2c-1,0.2-1,1.9,0,2.1c3,0.5,6.7,0.5,9.7,0.2
				C431.1,292.6,431.1,290.5,429.6,290.3z"/>
			<path class="st22" d="M427.5,226.8c-1.8-0.4-3.7-0.6-5.5-0.8c-1.2-0.2-1.8,1.7-0.5,1.9c1.9,0.3,3.8,0.8,5.8,0.9
				C428.4,228.8,428.6,227.1,427.5,226.8z"/>
			<path class="st22" d="M476.6,223.9c-3.6,0.7-6.9,1-10.5-0.1c-1.2-0.4-1.7,1.5-0.5,1.9c3.7,1.2,7.9,1.6,11.6,0.2
				C478.5,225.5,478,223.6,476.6,223.9z"/>
			<path class="st22" d="M556.1,273.9c-2.2,0.3-4.4,0.1-6.6-0.5c-1.1-0.3-1.5,1.3-0.5,1.7c2.4,0.9,4.8,1.2,7.3,1
				C558,276,557.8,273.7,556.1,273.9z"/>
			<path class="st22" d="M550.9,244.9c-1.4-0.1-2.8,0-4.2,0.2c-0.8,0.1-0.8,1.6,0,1.7c1.4,0.2,2.8,0.3,4.2,0.2
				C552.2,246.9,552.2,245,550.9,244.9z"/>
			<path class="st22" d="M654.9,287.1c-1.5-0.1-3.1,0.1-4.7,0.1c0,0,0,0,0,0c-1.2-0.2-2.4-0.2-3.6-0.3c-1.8-0.1-3.6-0.4-5.3-0.1
				c-0.8,0.1-0.6,1.2,0,1.4c1.4,0.5,2.9,0.6,4.4,0.8c0.1,0.1,0.1,0.1,0.3,0.2c1.4,0.3,2.8,0.3,4.2,0.3c1.6,0.1,3.1,0.2,4.7,0.1
				C656.5,289.6,656.5,287.2,654.9,287.1z"/>
			<path class="st22" d="M655.5,208c-0.1-0.3-0.3-0.5-0.6-0.5c-2.6-0.2-5.3-0.3-7.9-0.2c-1.3,0.1-1.3,1.9,0,2c1,0,2,0,2.9,0
				c0.1,0.4,0.3,0.7,0.7,0.8c1.4,0.3,2.8,0.3,4.2,0.2C656.2,210.2,656.4,208.5,655.5,208z"/>
			<path class="st22" d="M778.8,273.4c-2.3-0.8-4.9-1.4-7.3-1.1c-0.9,0.1-1.3,1.5-0.2,1.7c2.4,0.3,4.7,0.6,7,1.5
				C779.5,275.8,780.1,273.8,778.8,273.4z"/>
			<path class="st22" d="M181.4,557c-3.6-0.4-7.4-0.3-11-0.1c-1,0.1-0.9,1.4,0,1.5c3.6,0.4,7.4,0.6,11,0.4
				C182.6,558.7,182.6,557.1,181.4,557z"/>
			<path class="st22" d="M157.3,499.8c-3.4-0.6-7.1-0.6-10.5-0.9c-1.3-0.1-1.2,1.8,0,2c3.4,0.4,6.8,1,10.2,1.1
				C158.2,502,158.5,500,157.3,499.8z"/>
			<path class="st22" d="M304.8,538.4c-3.6,0.7-7.1,1-10.8,0.8c-0.8,0-1,1.3-0.2,1.4c3.8,0.6,7.7,0.7,11.6-0.1
				C306.8,540.2,306.2,538.2,304.8,538.4z"/>
			<path class="st22" d="M328.2,432.8c-2.3-0.5-4.7-0.1-6.9,0.5c-0.9,0.3-0.8,2,0.2,1.8c2.1-0.3,4.3-0.2,6.4-0.2
				C329.2,435,329.5,433.1,328.2,432.8z"/>
			<path class="st22" d="M440.1,403.7c-3.1-0.8-6.4-1-9.5-1.4c-1.2-0.2-1.7,1.6-0.5,1.8c3.2,0.6,6.5,1.5,9.7,1.8
				C441.1,406,441.3,404,440.1,403.7z"/>
			<path class="st22" d="M652.5,395.9c-2.6-0.2-5.3,0.1-7.9,0.2c-1.1,0-1.1,1.6,0,1.7c2.6,0.1,5.3,0.3,7.9,0.2
				C653.8,397.8,653.8,396,652.5,395.9z"/>
			<path class="st22" d="M685.3,368.8c-0.6-9.9-1.6-17-12.5-18.8c-8.4-1.4-26-4.7-31.1,4.6c-3.1,5.6-2.2,14.4-2.4,20.4
				c-0.3,8.8-0.3,17.5,0.6,26.2c-3,1.2-6.2,1.5-9.4,0.9c-1.6-0.3-3.1-1.2-4.6-1.6c0.1-0.2,0.1-0.3,0.2-0.5
				c1.7-10.8,2.4-21.7,2.3-32.7c0-4.8,0.5-11.3-2.4-15.5c-2.7-3.8-6.4-4.8-10.9-5.4c-6.9-0.8-15.7-2.1-22.6-1
				c-12.7,2-11.4,15.9-11.2,25.9c0,0.4,0,0.9,0,1.3c-0.6,0.3-0.6,1.2,0,1.5c0.3,19.7-0.1,39.4-1.2,59.1c-1.1,19.9-3.2,39.6-5.5,59.3
				c-1.7,14,1.9,16.8,15.8,19c7.8,1.2,24.8,5.5,28.9-4.2c2.8-6.8,0.8-19.6,1-26.8c0.2-10.6,0.5-21.2,0.7-31.8c6,0,12.1,0.7,18.1,0.6
				c0,10.4-0.1,20.8-0.1,31.2c0,6.7-1.5,15.8,0.9,22.3c4.1,11.2,19.7,9.5,29.2,8.6c10.6-1,11.7-8.5,12.9-17.9
				c2.6-20.6,3.9-41.5,4.5-62.3C687,410.4,686.6,389.6,685.3,368.8z M681.7,433.3c-0.4,12.3-1.1,24.6-2.1,36.9
				c-0.8,9.7,0.8,32.4-10.2,36.6c-3.3,1.3-10.5,0.5-14.2,0.3c-8.7-0.6-10.8-6.9-11.4-13.8c2.6,0.6,5.3,0.9,8,0.8
				c1.5-0.1,1.5-2.5,0-2.4c-2.7,0.2-5.4,0-8.1-0.5c-0.1-1.9-0.1-3.8-0.1-5.6c0-0.9,0-1.8,0-2.7c2.5,0.1,4.9,0.1,7.4,0.2
				c1.5,0,1.5-2.3,0-2.3c-2.5,0.1-4.9,0.1-7.4,0.2c0-3.5,0-7,0-10.6c2.5,0.1,4.9,0.1,7.4,0.1c1.5,0,1.5-2.4,0-2.3
				c-2.4,0-4.9,0.1-7.4,0.1c0-3.8,0-7.6,0-11.4c0.1,0,0.1,0.1,0.2,0.1c2.6,0.1,5.3,0.3,7.9,0.1c1.5-0.1,1.5-2.2,0-2.3
				c-2.6-0.2-5.3,0-7.9,0.1c-0.1,0-0.2,0-0.2,0.1c0-2.2,0-4.4,0-6.5c0-1.4-1-2.2-2.1-2.3c-0.2-0.2-0.5-0.4-0.9-0.5
				c-6.8-1.8-14.6-1.3-21.5-0.5c-0.7,0.1-1.1,0.5-1.3,1.1c-0.9,0.2-1.6,0.8-1.7,2l-0.8,36.6c-0.1,4.3,1.6,14.6-0.4,18.3
				c-4,7.4-13.9,5.2-20.4,4.5c-10.9-1.3-15.2-3-15.5-14.6c0-0.1,0-0.3,0-0.4c3.4,0.3,6.9,0.4,10.3,0.4c1.6,0,1.6-2.3,0-2.4
				c-3.4-0.2-6.9-0.2-10.3-0.2c0.2-4.7,1.3-9.6,1.9-14.2c2.3,0.2,4.5,0.5,6.8,0.7c1.3,0.1,1.3-2,0-2.1c-2.2-0.1-4.4-0.3-6.6-0.4
				c0.4-3.9,0.8-7.9,1.1-11.8c2.9,0.1,5.7,0.2,8.6,0.1c1.3,0,1.3-2,0-2.1c-2.8-0.1-5.6,0-8.4,0.1c0.3-3.9,0.7-7.7,1-11.6
				c2.5,0.3,4.9,0.7,7.4,0.9c1,0.1,1.2-1.5,0.2-1.7c-2.5-0.4-5-0.6-7.5-0.9c0.2-3.1,0.5-6.1,0.7-9.2c0.1-1.4,0.1-2.7,0.2-4.1
				c0,0,0.1,0,0.1,0c2.6,0.1,5.3,0.1,7.9,0.2c1.4,0,1.4-2.2,0-2.1c-2.6,0.1-5.3,0.1-7.9,0.2c0,0,0,0-0.1,0c0.2-4.1,0.3-8.2,0.5-12.3
				c0.7,0.1,1.3,0.1,1.9,0c0.1,0.3,0.3,0.6,0.8,0.6c1.8,0.1,3.7,0.1,5.5,0.1c1.3,0,1.3-1.9,0-2c-1.5,0-3.1,0-4.6,0.1
				c0-0.4-0.3-0.8-0.9-0.9c-0.9-0.1-1.8-0.1-2.7,0c0.1-4.1,0.2-8.2,0.2-12.3c0.8,0.1,1.6,0.3,2.4,0.4c0.2,0.3,0.4,0.5,0.9,0.6
				c0.3,0,0.5,0,0.8,0c0.3,0,0.6-0.1,0.8-0.3c1.6,0.2,3.1,0.3,4.7,0.5c1.9,0.4,4,0.7,5.8,0.3c1-0.2,0.7-1.6-0.2-1.7
				c-1-0.1-2-0.1-3.1-0.1c-3.9-0.7-7.9-1.6-11.9-2c0,0-0.1,0-0.1,0c0-4.8,0.1-9.5,0.1-14.3c2.5,0.5,5,0.9,7.5,1.2
				c1.5,0.2,2.2-2.1,0.6-2.3c-2.7-0.4-5.4-0.8-8.2-1.1c0-4.1,0.1-8.3,0.1-12.4c2.6,0.3,5.2,0.6,7.8,0.6c1.4,0,1.3-1.9,0-2.1
				c-2.6-0.3-5.2-0.4-7.8-0.5c0-2.7,0-5.3,0.1-8c0-1,0.1-2,0.3-2.9c5.3,0.3,10.5-0.3,15.7-1.3c1.7-0.3,1-3-0.7-2.6
				c-4.8,1.1-9.6,1.6-14.4,1.8c1.8-5.8,6.6-8.7,14.1-9.5c9.3-0.9,19.7,0.8,23,12c1.6,5.2,0,13.4-0.2,18.7
				c-0.3,6.2-0.7,12.5-1.1,18.7c-0.1,1.1,0.6,1.7,1.4,1.8c1,2.5,4.7,3.7,7.1,4.2c4,0.8,7.9,0.3,11.6-1.4c1.2-0.6,1.2-1.7,0.7-2.6
				c0.3-7-0.3-14.8-0.1-22.3c1,0.4,2.1,0.7,3.2,1c0.1,0,0.1,0.1,0.1,0.1c0,0,0.1,0,0.1,0c2.6,0.7,5.2,1.2,7.7,1.2
				c1.4,0,1.8-2.2,0.3-2.5c-0.1,0-0.3,0-0.4-0.1c-0.2-0.2-0.4-0.3-0.7-0.3c-0.4,0-0.9,0-1.3,0c-3-0.5-6-0.9-9-1.5
				c0.1-3.7,0.5-7.4,1.3-10.8c0-0.2,0.1-0.4,0.2-0.6c3.2,0.7,6.5,1,9.6,0.7c1.4-0.1,1.4-2.1,0-2.2c-3.1-0.1-6-0.2-9-0.7
				c2.7-7.8,8.4-10.1,16.9-9.7c6.8,0.3,15-1,18.4,7.5c2.1,5.3,1,15.1,1.2,20.9c0.2,4.6,0.3,9.2,0.4,13.9
				C682.1,408.6,682.1,420.9,681.7,433.3z"/>
			<path class="st22" d="M711.6,449.4c-2.4,0.1-4.7,0.1-7.1,0.2c-1,0-1,1.5,0,1.5c2.4,0.1,4.7,0.1,7.1,0.2
				C712.8,451.4,712.8,449.4,711.6,449.4z"/>
			<path class="st22" d="M716.6,434.5c-3.5-0.7-7-0.9-10.6-0.4c-1.4,0.2-1.5,2.4,0,2.2c3.4-0.3,6.6-0.2,9.9,0.5
				C717.5,437.1,718.1,434.7,716.6,434.5z"/>
			<path class="st22" d="M721.8,392c-2.6,0-5.3,0.1-7.9,0.1c-1,0-1,1.6,0,1.6c2.6,0,5.3,0.2,7.9,0.1
				C723.1,393.9,723.1,392,721.8,392z"/>
			<path class="st22" d="M728.2,378.8c-3.5,0.2-6.6-0.4-10-1c-0.8-0.1-1.6,1.1-0.6,1.5c3.2,1.5,7.1,1.8,10.6,1.7
				C729.6,381.1,729.6,378.7,728.2,378.8z"/>
			<g>
				<path class="st22" d="M1024.5,909c-6.4,0.8-12.7,1.7-19.1,2.5c3-4.5,6.1-9.1,9-13.6c0.8-1.2-0.8-2.9-2-2.3
					c-7.2,3.4-15,6.3-22,10.3c1.5-2.4,2.6-4.9,3.3-7.4c3.9-15.3-0.8-39.2-14.3-48.8c-13.6-9.7-31.7-7.4-45.6,0.2
					c-16.3,8.9-36.4,26-39.2,45.3c-3-2-6.5-3.2-10-3.6c-3.4-0.3-6.7,0.3-9.8,1.6c-4.7-19.3-17.9-36.4-37-43.1
					c-18.9-6.7-42-2-55.3,13.4c-10.8,12.4-14.7,31-8.7,46.4c-2.7-1.1-5.3-2.2-8-3.3c-1.7-0.7-4,0.8-3.1,2.8
					c2.5,5.9,5.7,11.2,9.6,16.1c-8.3-0.2-16.6-0.4-24.9-0.5c-2,0-2.7,2.7-1.3,3.9c8,6.7,17.6,12.2,27.9,14.5
					c-3.7,3-6.6,6.9-8.4,12.2c-3,9.1-2.2,19.1-1.8,28.4c0.6,15.4,1.3,30.7,2,46.1c2.9,67,3.8,134.4,9.2,201.2c0.2,2.3,3.1,2.5,4,0.8
					c0.2,0.3,0.5,0.5,0.9,0.5c33.9,3.6,68.2,3.8,102.3,3.6c35.4-0.2,71.4-0.5,106.6-4.2c3.2-0.3,2.9-5.1-0.3-5c0,0,0,0,0,0
					c6.7-58.1,11.5-116.3,14.4-174.7c1.4-29.2,2.4-58.4,2.8-87.7c0.1-10.8-0.4-21.1-5.1-28.5c9.8-6.6,18.4-14.7,25.7-24.1
					C1027.1,911,1026.3,908.7,1024.5,909z M897.7,896.2c3.8-14.9,16.7-26.5,28.6-35.5c12.1-9.2,27.9-16,43.1-10.4
					c15.7,5.8,19.2,21.7,19.8,36.9c0,0.8,0,1.5-0.1,2.3c-3.7-12.5-14.6-19.4-29.7-14.1c-10.3,3.7-19.7,11.2-27.8,18.4
					c-9.8,8.7-17.9,20.9-30.8,24.8c1.5-2.6,2.3-5.6,2.3-8.8c0-5.1-2.4-9.5-6-12.7C897.4,896.9,897.6,896.7,897.7,896.2z
					 M986.4,900.2c-5.3,11.5-17.4,20.9-29.8,21.9c-0.4,0-0.7,0.2-1,0.3c-19.1-1.3-38.4-1.1-57.7,0.2c0,0,0.1-0.1,0.1-0.1
					c0.1,0,0.2,0,0.3,0c14-1.8,22.4-12.1,32-21.3c15-14.4,54.5-41.5,56-1.3C986.3,900,986.4,900.1,986.4,900.2z M885.8,896.3
					c7.2,1.3,13.9,7.3,13,15.1c-0.7,5.7-4.6,10.1-9.6,11.8c-2.7,0.2-5.4,0.5-8.1,0.7c-0.2-0.2-0.5-0.4-0.9-0.4
					C859.8,921.6,867.3,893.1,885.8,896.3z M791.2,862.4c30.8-25.6,70.9-0.5,79.2,33.3c-3.8,3-6.6,7.3-7.4,12.3
					c-0.6,4,0.3,7.8,2.3,11c-9.5-5.8-15.5-16-23.7-23.8c-9.2-8.7-20.6-12.3-33.3-10.8c-13.6,1.7-29,13.3-28.5,26.2
					c-0.3-0.6-0.6-1.3-0.9-1.9C772.2,892.8,778.1,873.3,791.2,862.4z M868.6,925.3c-16.5,1.8-32.8,4-49,6.2
					c-11.7,0.6-23.4-2.6-31.9-10.2c-12.1-16.8,6.5-31.4,22.5-32.7c12.2-1,22.3,3.4,30.7,12.1C849.7,909.7,856.6,920.7,868.6,925.3z
					 M753.9,929.6c7.8,0.2,15.5,0.3,23.3,0.5c2.2,0,2.5-2.7,1.3-3.9c-3.8-4.1-6.9-8.5-9.4-13.3c2.4,1,4.8,1.9,7.2,2.9
					c0.1,0,0.2,0,0.3,0.1c5.2,8.6,13.8,15.3,23.4,18.3c-8.2,1.2-16.4,3-22.9,7C768.6,938.2,761,934.7,753.9,929.6z M862.7,1231
					c-27.6-0.2-55.1-1.2-82.7-1.1c-0.3,0-0.6,0.1-0.8,0.3c0-4.6-0.1-9.2-0.2-13.8c3.9-0.1,7.7-0.3,11.6-0.5c1.8-0.1,1.6-2.9-0.2-2.8
					c-3.8,0.3-7.6,0.6-11.5,1c-0.1-4.3-0.2-8.5-0.3-12.8c4.4-0.7,8.9-1.4,13.3-2.2c1.6-0.3,1.5-2.8-0.2-2.6
					c-4.4,0.7-8.8,1.6-13.2,2.6c-0.2-6.6-0.5-13.2-0.7-19.8c0.1,0,0.2,0,0.4,0c4.1-0.5,8.2-1,12.3-1.6c1.7-0.2,1.5-2.9-0.2-2.6
					c-4.1,0.6-8.2,1.2-12.3,1.9c-0.1,0-0.2,0.1-0.3,0.1c-0.2-5.9-0.5-11.9-0.8-17.8c3.4,0,6.8-0.4,10-1.4c1.4-0.4,0.7-2.5-0.7-2.1
					c-3.1,0.8-6.2,1.4-9.4,1.7c-0.3-5.6-0.6-11.2-0.8-16.8c3.8,0,7.8-0.3,11.4-1.3c1.3-0.4,0.9-2.6-0.5-2.4c-3.7,0.5-7.3,1-11,1.3
					c-0.3-5.6-0.6-11.1-0.8-16.7c3.9-0.1,7.8-0.2,11.6-0.7c1.6-0.2,1.4-2.4-0.2-2.4c-3.8,0-7.7,0.5-11.5,0.9
					c-0.2-4.5-0.4-9-0.6-13.4c3.7-0.1,7.5-0.2,11.3-0.5c1.7-0.1,1.5-2.7-0.2-2.6c-3.7,0.2-7.5,0.6-11.2,1c-0.2-4.8-0.5-9.6-0.7-14.3
					c3.9,0.1,7.9,0.2,11.8,0.3c1.5,0.1,1.4-2.5-0.2-2.4c-3.9,0.1-7.8,0.1-11.7,0.2c-0.1-3.1-0.3-6.2-0.4-9.2l-0.3-5.9
					c3.8-0.1,7.6-0.4,11.4-0.6c1.9-0.1,1.7-3.2-0.2-3c-3.8,0.3-7.5,0.6-11.3,1l-0.7-16.8c0.1,0,0.1,0,0.2,0
					c4.1-0.2,8.3-0.4,12.4-0.5c1.5-0.1,1.4-2.5-0.2-2.4c-4.1,0.4-8.2,0.8-12.3,1.1c-0.1,0-0.1,0-0.1,0l-0.8-17.8
					c4-0.1,8.1-0.2,12.1-0.6c1.7-0.2,1.6-2.7-0.2-2.7c-4,0.1-8,0.6-12,1l-0.7-15.8c4,0,8.1-0.4,12-1.4c1.7-0.4,0.8-3-0.9-2.6
					c-3.8,0.9-7.4,1.5-11.2,1.8l-0.5-12.6c-0.1-1.8-0.2-3.5-0.3-5.3c4.3,0.5,8.4-0.1,12.5-1.7c2.1-0.8,0.6-4-1.4-2.8
					c-3.4,2-7.3,2.8-11.2,2.6c-0.4-6.1-0.9-12.3-0.9-18.4c0.1,0,0.2,0.1,0.2,0.1c4.1,0.2,8.9,0.3,12.8-1.1c1.6-0.5,1.1-3-0.6-2.9
					c-4.2,0.4-8.1,1.3-12.4,1.4c0,0,0,0,0,0c0.1-2.7,0.2-5.3,0.6-8c0.3-2,0.7-3.8,1.2-5.5c3.7,0.2,7.4,0.1,11,0.5
					c1.9,0.2,2.5-2.8,0.6-3c-3.5-0.3-7.1-0.6-10.6-0.3c4.9-11.3,16.2-14.8,29.3-16.8c13.8-2.1,27.7-4.2,41.7-5.9
					c4.9,49.5,9,99.1,12.3,148.7C857.8,1131.7,858.1,1181.7,862.7,1231z M904,1214.6c0.1,0,0.2,0,0.3,0c0.2,5.4,0.3,10.7,0.6,16.1
					c-6.9,0.2-13.8,0.4-20.8,0.4c-6.1,0-12.1,0-18.2,0c1.3-49.5-3.3-99.7-6.6-149.1c-3.3-49.7-7.4-99.4-12.3-149
					c22.5-2.8,45.2-4.7,67.8-5.4c-3.8,50.1-6.6,100.2-8.4,150.4c-1.6,44.6-3.5,89.7-2.3,134.4c-0.1,0-0.3,0-0.4,0
					C902.5,1212.6,902.6,1214.6,904,1214.6z M1000,972.5c-0.4,25.2-1.3,50.3-2.4,75.5c-2.8,59.8-7.7,119.5-14.6,178.9
					c0,0.2,0,0.3,0,0.5c-24.8,0.9-49.6,2.4-74.4,3.2c0.2-5.4,0.4-10.7,0.5-16.1c3.5-0.1,7-0.3,10.5-0.6c1.7-0.1,1.5-2.7-0.2-2.6
					c-3.4,0.2-6.8,0.4-10.2,0.7c0.1-5.1,0.2-10.1,0.3-15.2c3.2-0.9,6.3-2,9.6-2.6c1.8-0.3,1.3-2.9-0.5-2.5c-3,0.7-6.1,1.5-9,2.7
					c0.1-6.1,0.2-12.1,0.3-18.2c4.6-0.1,9.2-0.4,13.8-0.6c1.7-0.1,1.5-2.8-0.2-2.7c-4.5,0.4-9.1,0.7-13.6,1.2
					c0.1-5.6,0.1-11.2,0.2-16.8c4.1,0.1,8.2-0.1,12.4-0.1c1.7,0,1.5-2.7-0.2-2.6c-4,0.3-8.1,0.5-12.2,1c0.1-5.7,0.1-11.4,0.2-17
					c0,0,0.1,0,0.1,0c4.4-0.7,8.7-1.2,13.2-1c1.6,0.1,1.5-2.5-0.2-2.5c-4.4,0-8.9,0.4-13.1,1.7c0.1-6.2,0.2-12.4,0.3-18.6
					c0,0,0.1,0,0.1,0c4.5,0.2,9.1-0.1,13.6-1.1c1.7-0.4,0.8-2.8-0.9-2.5c-4.3,0.9-8.4,1.5-12.8,1.5c0.1-7,0.3-14.1,0.5-21.1
					c4.5-0.2,9.2-0.1,13.7-0.7c1.5-0.2,1.3-2.3-0.2-2.3c-4.5,0.1-9,0.7-13.5,1.1c0.1-3.5,0.2-7.1,0.3-10.6c0.3-7.3,0.6-14.7,0.9-22
					c0.1,0,0.1,0,0.2,0c4.4-0.2,8.9-0.6,13.2-1.4c1.7-0.3,1.6-2.9-0.2-2.7c-4.4,0.4-8.9,1.3-13.2,2.3c0.2-5.5,0.5-10.9,0.8-16.4
					c4.1,0.3,8.3,0.3,12.3-0.4c1.5-0.3,1.5-2.7-0.2-2.5c-4,0.4-8,0.8-12,0.8c0.2-5.3,0.5-10.5,0.8-15.8c4.2,0.2,8.5,0.3,12.7,0.5
					c1.7,0.1,1.6-2.7-0.2-2.6c-4.1,0.2-8.3,0.2-12.4,0.4c0.3-5.1,0.5-10.1,0.8-15.2c0.2,0.2,0.4,0.3,0.7,0.3c3.8,0,7.7-0.1,11.6-0.4
					c1.7-0.1,1.5-2.7-0.2-2.6c-3.8,0.2-7.7,0.6-11.5,1.2c-0.2,0-0.4,0.1-0.5,0.3c0.3-5.7,0.7-11.4,1-17.2c3.3,0.7,6.7,1.1,10,0.6
					c1.5-0.3,1.5-2.6-0.2-2.5c-3.3,0.2-6.5,0.2-9.7-0.4c0.3-4.7,0.6-9.3,0.9-14c4.1,0.2,8.8,0.5,12.8-0.3c1.4-0.3,1.9-2.6,0.2-2.8
					c-4.1-0.4-8.7,0.1-12.8,0.6c0.3-5.4,0.7-10.9,1.1-16.3c0.2,0.5,0.6,0.8,1.2,0.8c1.6-0.1,3.1-0.7,4.7-0.7
					c1.7-0.1,3.3,0.2,4.9,0.7c2,0.6,2.7-2.7,0.7-3.2c-3.4-0.9-8.1-1.1-11,1c-0.2,0.1-0.3,0.2-0.3,0.4c0.6-8.4,1.1-16.9,1.8-25.3
					c0,0,0-0.1,0-0.1c9.9-0.2,19.7-0.1,29.6,0.4c11.5,0.5,25.9,0.1,37,3.9C1003.6,937.4,1000.3,958.7,1000,972.5z M997.8,932.8
					c-3.4-3.6-8.2-6.2-15.2-7.3c-4.4-0.7-8.9-1.3-13.4-1.8c7-3,13.8-8.2,18.6-14.2c7-2,13.7-5.3,20.4-8.4c-2.7,3.8-5.3,7.7-8,11.5
					c-0.8,1.2-0.2,3.3,1.5,3.1c6.1-0.7,12.2-1.5,18.2-2.2C1013.5,921,1006.1,927.3,997.8,932.8z"/>
				<path class="st22" d="M929.6,1075.3c-0.5-1.7-3-0.8-2.6,0.9c-0.1-0.4-12.2,0.1-13.3,0.1c-1.3,0-1.1,1.9,0.1,2
					c2.2,0.1,4.5,0.2,6.7,0.3c2,0.1,4.2,0.5,6.2,0.2C928.7,1078.5,930.2,1077.3,929.6,1075.3z"/>
			</g>
			<g>
				<path class="st22" d="M511.3,974.1c1.7-1.3,0.8-4.2-1.5-3.6c-6,1.5-11.9,2.3-18.1,2.4c3.3-6.3,6.6-12.6,9.8-19
					c0.9-1.8-1.3-3.6-2.8-2.2c-7.1,6.4-14.9,10.4-22.8,15.2c3.8-17.3-6.3-39.7-23.5-45.4c-9.5-3.1-19.5-2.4-29.3,0.8
					c7-19.6-17.4-33.3-35.4-26.2c-19.6,7.8-26.5,27.4-28.6,47c-1.8-21.6-8.9-45.2-29.5-50.9c-20.7-5.8-50.7,8-44.4,32.9
					c-9.7-2.3-19.8-2-29.1,2c-13.1,5.7-22.7,18.1-21.7,32.7c0,0.5,0.1,1.1,0.2,1.6c-4.9-1.9-9.8-3.7-14.7-5.5
					c-1.4-0.5-2.9,1.1-2.4,2.4c2.1,6.3,5.1,11.9,8.8,17.2c-9.2,1.6-18.3,1.9-27.6,0.9c-2.2-0.2-2.4,2.7-1,3.7
					c5.6,4.1,11.7,7.5,18.3,9.9c-0.5,0.2-0.9,0.4-1.3,0.6c-14.5,7.9-11.9,37.7-11.8,51.2c0.4,45.8,1.2,91.9,4.2,137.8
					c-0.2,0.3-0.1,0.7,0.1,1c1,14.7,2.2,29.3,3.7,43.8c0.1,0.7,0.5,1.2,1,1.4c0.1,0.7,0.6,1.3,1.6,1.3c44.5,2.3,89.5,0.4,134,0.2
					c44.7-0.2,89.3-0.4,134-0.6c1.5,0,2.3-1.2,2.3-2.4c-0.1,3,4.7,3,4.8-0.1c3.1-54,5.7-107.9,7.7-162c0.5-13.5,1-27,1.4-40.5
					c0.3-8,2-18.5-2.5-25.8c-0.9-1.5-2-2.7-3.1-3.7C497.8,985.6,504,979.4,511.3,974.1z M425.8,926.4c14.5-4.8,31.6-3.1,40.3,11.1
					c8.6,14.1,10.4,38-8.3,44.7c-1.6,0.6-1.8,2.5-1,3.5c-4.6-0.1-9.3-0.2-13.8-0.3c-24.8-1-49.6-1.5-74.4-1.6
					c0.7-1.3,1.1-2.8,1.3-4.3c15.3-8.9,30-13.1,47.7-14.3c2.2-0.2,2.3-3.4,0-3.5c-16.7-0.5-34,5.2-47.6,14.9
					c-0.1-1.7-0.6-3.4-1.3-4.9c-0.5-0.9-1-1.7-1.7-2.5c0.1-0.1,0.2-0.1,0.3-0.2C383.8,951.7,402.7,934,425.8,926.4z M361.2,963.5
					c1.4-17.5,1.7-36.3,12.9-50.8c5.5-7.2,13-12.8,22.2-13.9c14.4-1.6,29,10.6,21.3,25.6c-21.2,8.8-41.1,27.9-52.4,42.9c0,0,0,0,0,0
					c-0.5-0.4-1.1-0.7-1.6-1.1c5.5-11.8,13.2-21.5,22.7-30.5c1.8-1.7-0.8-4-2.6-2.6c-10.4,8.2-18,19.5-22.8,31.7
					c-0.2-0.1-0.3-0.1-0.5-0.2C360.8,964.5,361.2,964.1,361.2,963.5z M364.1,983.8c-7,0-14.1,0-21.1,0.1c-0.9-1.1-1.5-2.3-1.8-3.4
					c0.8-0.5,0.8-1.9-0.3-2.4c0.3-5.8,7.4-10.6,13.7-10.4C364.2,968,368.1,976,364.1,983.8z M339,901.9
					c15.2,13.2,16.9,42.8,16.1,61.7c-0.6,0-1.3-0.1-1.9,0c-1.7,0.1-3.5,0.4-5.2,0.9c-2.4-13-9.9-25.4-19.5-34.3
					c-1.2-1.1-2.8,0.6-1.7,1.7c9.1,10.2,14.2,21.2,17.8,34.1c-1.6,0.9-3.1,2.1-4.4,3.5c-2.7-7.4-9.2-13.4-14.6-19
					c-6.8-7.1-14.4-13.8-23.1-18.6c-4.6-2.6-9.6-4.7-14.8-6.2c0.1-0.2,0.1-0.4,0.1-0.6C285.2,898.9,320.3,885.7,339,901.9z
					 M270.2,928.5c13-1,25.7,4.2,36.2,11.4c11.1,7.6,25.7,20.1,32.2,32.1c-0.1,0.2-0.2,0.3-0.3,0.5c-0.7,1.4-1,2.8-1.1,4.3
					c-17.6-5.9-37.4-8.5-55.8-6.8c-2.4,0.2-2.5,3.8,0,3.9c19.3,0.1,37.3,2,56,6.2c0.3,1.4,0.9,2.7,1.7,3.9
					c-18.8,0.2-37.5,0.7-56.3,1.4c-7.9,0.3-15.7,0.7-23.6,1.1c-0.2-0.2-0.4-0.5-0.7-0.6c-11.6-5.2-19.9-15.7-19.5-28.8
					C239.4,940.7,255,929.6,270.2,928.5z M205.6,980.8c8.2,0.3,16.3-0.4,24.5-2c1.6-0.3,1.7-2.2,0.9-3.3c-3.5-4.5-6.2-9.2-8.3-14.4
					c3.9,1.4,7.8,2.9,11.7,4.2c0.3,0.1,0.6,0.1,0.8,0.1c2.2,9,8,17,16.1,21.4c-2.9,0.2-5.7,0.3-8.6,0.5c-6,0.4-14.3-0.3-21.3,1
					C215.8,986.3,210.6,983.9,205.6,980.8z M214.1,1223.7c-0.1-4-0.3-7.9-0.4-11.9c0,0,0,0,0,0c4.1,0.5,8.3,0.2,12.4-0.6
					c1.5-0.3,0.9-2.6-0.6-2.3c-3.9,0.8-7.8,1-11.8,0.9c0,0,0,0-0.1,0c-0.3-9.7-0.8-19.3-1.2-29c3.5,0.1,6.9,0.2,10.4,0.1
					c1.5,0,1.5-2.3,0-2.3c-3.5-0.1-7,0-10.5,0.1c-0.2-4.5-0.4-9-0.6-13.5c3.4,0.4,6.9,0.7,10.3,0.6c1.5-0.1,1.5-2.3,0-2.3
					c-3.5,0.1-7,0.1-10.4-0.2c-0.3-6.6-0.6-13.2-0.9-19.8c1.4,0,2.9,0.3,3.7,0.3c2,0.1,4.1,0.1,6.1,0.1c1.4,0,1.4-2.2,0-2.2
					c-2.7-0.1-5.3,0-8,0.1c-0.6,0-1.3,0-1.9-0.1c-0.2-4.7-0.4-9.4-0.6-14.1c3.9,1.7,8.3,2,12.4,1.3c1.3-0.2,0.8-2.3-0.5-2
					c-4,0.9-7.8,0.4-11.7-0.8c-0.1,0-0.2,0-0.3,0c-0.6-14.2-1.2-28.4-1.5-42.6c-0.3-10.9-0.9-22-1.1-33.1c0.1,0,0.1,0.1,0.2,0.1
					c3,0.5,5.9,0.4,8.9-0.2c1.4-0.3,0.8-2.7-0.6-2.2c-2.6,0.9-5.3,1.1-8.1,0.9c-0.2,0-0.3,0-0.5,0.1c-0.1-3.9-0.1-7.8,0-11.7
					c3.7,0.5,7.5,0.7,11.1,0.4c1.5-0.2,1.6-2.4,0-2.4c-3.7,0.1-7.4,0.2-11,0c0.1-5.2,0.4-10.3,0.9-15.4c3,0.8,6.2,1.1,9.3,0.8
					c1.6-0.1,1.7-2.7,0-2.6c-3.1,0.2-6.1,0.2-9.2-0.4c0,0,0-0.1,0-0.1c0.4-3.5,0.9-8,2.1-12.3c3.6,0.1,7.3,0.2,10.9,0.1
					c1.5,0,1.5-2.4,0-2.4c-3.4,0-6.8,0-10.2,0.1c1.5-4.3,4-8,8.2-9.6c4.8-1.9,11.6-1.1,16.8-1.5c12.6-0.8,25.2-1.5,37.8-2
					c17.7-0.8,35.4-1.3,53.2-1.6c-0.1,0.2-0.1,0.5-0.1,0.8c0.4,39.3,0.8,78.6,1.3,117.9c0.4,38.2-0.1,76.7,1.8,114.9
					C291.3,1222.3,252.5,1221.5,214.1,1223.7z M347.2,1222.4c-4.7,0-9.5,0-14.2,0c1.2-38.2-0.2-76.7-0.5-114.9
					c-0.3-39.3-0.7-78.6-1.1-117.9c0-0.3-0.1-0.6-0.2-0.8c15.9-0.2,31.8-0.3,47.7-0.1c-0.1,0.3-0.2,0.6-0.2,0.9
					c0,4.5-0.1,9.1-0.1,13.7c-0.4,0.5-0.4,1.2,0,1.6c-0.5,72.4-2.5,145.1,0.2,217.4C368.4,1222.3,357.8,1222.4,347.2,1222.4z
					 M492.5,1026.3c-0.4,12.8-0.9,25.5-1.3,38.3c-2,53.2-4.5,106.4-7.6,159.6c-0.1-1.2-0.8-2.3-2.3-2.3c-33,0.1-65.9,0.3-98.9,0.4
					c0.2-4.2,0.3-8.5,0.4-12.8c3.4,0.3,6.7-0.1,9.9-1.3c1.5-0.5,0.6-2.6-0.8-2c-2.9,1.2-5.9,1.7-9,1.6c0.2-4.8,0.3-9.6,0.4-14.4
					c0,0,0,0,0.1,0c3.5-0.1,7.1-0.1,10.6-0.5c1.3-0.1,1.4-2.2,0-2.1c-3.5,0.2-7.1,0.8-10.6,1.4c0.1-5.1,0.2-10.2,0.3-15.3
					c2.9,0.1,5.9,0.2,8.8,0.2c1.3,0,1.3-2,0-2c-2.9,0.1-5.9,0.1-8.8,0.2c0.1-5.2,0.1-10.4,0.2-15.6c3,0.2,5.9-0.1,8.9-0.6
					c1.4-0.2,0.8-2.6-0.6-2.2c-2.8,0.6-5.5,0.9-8.3,1c0.1-5.1,0.1-10.1,0.1-15.2c3,0.1,6.1,0,9.2,0.1c1.8,0,1.8-2.6,0-2.8
					c-2.9-0.3-6.1-0.3-9.2,0.2c0-5.1,0-10.2,0-15.4c4.3,0.7,9,0.6,13.3-0.1c1.4-0.2,1.1-2.7-0.3-2.5c-4.4,0.6-8.5,0.7-12.9,0.8
					c0,0,0,0-0.1,0c0-4.9,0-9.9,0-14.8c2.4,0.2,4.8,0.7,7.3,1.3c1.3,0.3,2.4-1.7,1-2.3c-2.5-1.1-5.4-1.5-8.3-1.6
					c0-4.6,0-9.2-0.1-13.9c3.1,0,6.2,0.2,9.2,0.1c1.4,0,1.4-2.1,0-2.2c-3.1-0.1-6.2,0-9.2,0.1c0-4.6,0-9.3-0.1-13.9
					c2.6,0.3,5.3-0.1,7.6-1.4c1.3-0.7,0.1-2.7-1.2-2c-2.1,1.1-4.2,1.7-6.5,1.6c0-3.9,0-7.9-0.1-11.8c3.2,0.1,6.5-0.1,9.7-0.6
					c1.4-0.2,0.8-2.5-0.6-2.2c-3,0.6-6,0.9-9.1,1c0-4.7,0-9.4-0.1-14.1c3.4,0.1,6.8,0.2,10.2,0.2c1.6,0,1.6-2.4,0-2.4
					c-3.4,0-6.8,0.1-10.2,0.2c0-3.9,0-7.8-0.1-11.7c3.3,0.2,6.5,0,9.8-0.5c1.4-0.2,0.8-2.5-0.6-2.1c-3.1,0.8-6.1,1-9.2,1
					c0-3.6,0-7.2,0-10.8c3.4,0,6.9,0,10.3-0.3c1.6-0.2,1.6-2.5,0-2.5c-3.4,0.1-6.9,0.5-10.3,0.9c0-4.4,0-8.8,0-13.2
					c3.2-0.1,6.4-0.1,9.6-0.3c1.9-0.1,1.9-3.1,0-3c-3.2,0.2-6.4,0.5-9.6,0.8c0-4.3,0-8.6,0-12.9c0-0.3-0.1-0.6-0.2-0.9
					c9.5,0.1,19,0.2,28.5,0.5c11.1,0.3,22.3,0.7,33.4,1.1c5.9,0.2,11.9,0.5,17.8,0.8c5.9,0.3,14.1-0.6,19.6,1.7
					C496.3,998.5,492.9,1014.3,492.5,1026.3z M488.6,990.1c-2.5-1.3-5.3-2.1-8.3-2.6c-6.6-1.1-13.4-1.5-20.2-1.6
					c7.9-3.2,12.7-9.1,15-16.1c6.9-1.8,13.3-5.6,19.2-10c-2.5,4.7-4.9,9.3-7.3,14c-0.7,1.3,0.2,2.8,1.6,2.9
					c4.8,0.1,9.5-0.2,14.2-0.9C497.6,980.1,492.8,984.8,488.6,990.1z"/>
				<path class="st22" d="M222.5,1192.5c-2.7,0.4-5.9,1.4-8.5,2.5c-0.7,0.3-0.3,1.5,0.4,1.4c1.4-0.1,2.8-0.5,4.1-0.7
					c1.5-0.3,3.1-0.5,4.5-1C224.5,1194.1,223.9,1192.2,222.5,1192.5z"/>
				<path class="st22" d="M221.6,1112c-3.3,1.7-6.4,2.6-10.2,2.1c-0.9-0.1-1.1,1.4-0.2,1.6c3.8,0.8,8.1,0.3,11.4-1.9
					C223.7,1113,222.8,1111.4,221.6,1112z"/>
				<path class="st22" d="M221.3,1095.8c-3.8,0.4-7.4,0.3-11.2-0.4c-0.9-0.2-1.3,1.2-0.4,1.4c3.8,0.8,7.7,1.1,11.6,0.9
					C222.6,1097.7,222.5,1095.7,221.3,1095.8z"/>
				<path class="st22" d="M218.3,1077.9c-2.8,0-5.6,0.1-8.3,0.2c-0.8,0-0.8,1.2,0,1.2c2.8,0.1,5.6,0.3,8.3,0.2
					C219.3,1079.5,219.3,1077.9,218.3,1077.9z"/>
				<path class="st22" d="M221.3,1065.6c-4-0.5-8.1-0.5-12.1-0.7c-1.1,0-1.1,1.6,0,1.7c4,0.4,8.1,0.9,12.1,1
					C222.6,1067.6,222.5,1065.8,221.3,1065.6z"/>
			</g>
			<path class="st22" d="M908.7,186.7c-1.2-1-2.9,0.7-1.7,1.7c6.8,5.9,7.5,14.8,3.5,22.5c-0.7,1.3,1.1,2.3,1.9,1.1
				C918.4,204.3,915.9,192.8,908.7,186.7z"/>
			<path class="st22" d="M927.8,187.5c-0.6-0.8-1.9-0.1-1.4,0.8c4,6.4,4,13.6,0.6,20.3c-0.8,1.6,1.6,3.1,2.5,1.5
				C933.4,202.8,932.6,194.1,927.8,187.5z"/>
			<path class="st22" d="M1096.1,502.9c-1.9,9.9-8.7,18.1-19.4,18.7c-1.5,0.1-1.5,2.4,0,2.3c10.8-0.4,21.8-9.3,22-20.7
				C1098.7,501.8,1096.4,501.4,1096.1,502.9z"/>
			<path class="st22" d="M1110.2,511.7c-3.8,3.9-7.5,7.8-11.3,11.8c-1.2,1.3,0.7,3.1,1.9,1.9c3.9-3.8,7.9-7.5,11.8-11.3
				C1114.1,512.6,1111.7,510.1,1110.2,511.7z"/>
			<path class="st22" d="M163.1,634c-8.4-3.3-14.1-10.2-14.7-19.3c-0.1-1.6-2.5-1.6-2.5,0c-0.2,9.9,6.5,19.9,16.3,22.5
				C164.3,637.7,165,634.8,163.1,634z"/>
			<path class="st22" d="M146.2,647.6c-5.2-3.6-8.6-9.3-9.2-15.6c-0.2-2.1-3.5-2.2-3.3,0c0.5,7.7,4.3,14.4,10.7,18.7
				C146.3,652,148.1,648.9,146.2,647.6z"/>
			<path class="st22" d="M181.3,162.5c-8.2,3.6-8.8,15.6-2.7,21.3c1.5,1.4,3.5-0.7,2.2-2.2c-4.4-4.9-2.7-12.3,2.4-16
				C185,164.3,183.4,161.5,181.3,162.5z"/>
			<path class="st22" d="M196.1,168c-3.2,4-6.4,8-9.5,12.1c-0.9,1.2,1.1,2.8,2.1,1.6c3.3-3.7,6.6-7.5,9.9-11.3
				C200.1,168.7,197.5,166.2,196.1,168z"/>
			<path class="st22" d="M185.8,803.2c-8.3-1-16.4,2-22.3,8c-1.2,1.2,0.6,3,1.9,1.9c5.7-5.2,12.7-7.4,20.4-6.7
				C187.8,806.5,187.7,803.4,185.8,803.2z"/>
			<path class="st22" d="M201.2,814.8c-7.1,0-14.2,1.5-20.4,5c-1.4,0.8-0.2,2.9,1.3,2.2c6.1-2.8,12.4-4.4,19.1-4.3
				C203.1,817.7,203.1,814.8,201.2,814.8z"/>
			<path class="st22" d="M967.6,772.3c-8-8.9-20.7-12.2-32.3-9.4c-1.3,0.3-0.8,2.3,0.5,2c11.4-2.2,21.5,1.3,29.9,9.1
				C967,775.2,968.7,773.5,967.6,772.3z"/>
			<path class="st22" d="M975.8,763.3c-2.5-6.2-8.6-10.6-15.3-10.7c-1.6,0-2.1,2.7-0.4,2.9c5.7,0.9,10,3.9,12.6,9.1
				C973.5,766.3,976.5,765.1,975.8,763.3z"/>
			<path class="st22" d="M1085.6,1119.3c-0.3-1.4-2.7-1.1-2.6,0.3c1,9.6-0.4,17.5-3.4,26.6c-0.5,1.6,1.9,2.7,2.8,1.2
				C1086.9,1139.2,1087.7,1128.4,1085.6,1119.3z"/>
			<path class="st22" d="M1098.6,1130.7c-1.2,8.6-5.5,15.5-13,20c-2.1,1.3-0.2,4.6,2,3.4c8.2-4.6,13.7-13.5,13.9-23
				C1101.5,1129.5,1098.8,1129.1,1098.6,1130.7z"/>
			<path class="st22" d="M148.7,1241.7c-4.2-7.1-4.6-14.3-2.6-22.2c0.3-1.3-1.7-2.4-2.3-1c-3.6,8-2.3,17.4,2.3,24.7
				C147.1,1244.9,149.7,1243.4,148.7,1241.7z"/>
			<path class="st22" d="M163.4,1246.2c-2.1-7.8-4.3-15.6-6.6-23.3c-0.4-1.3-2.3-0.7-2,0.5c1.9,7.9,4,15.7,6.1,23.5
				C161.4,1248.5,163.9,1247.8,163.4,1246.2z"/>
			<path class="st22" d="M176.4,1595.1c-6.8-1.8-14.2,0.4-18.6,6c-0.9,1.1,0.6,2.6,1.6,1.6c4.3-4.5,10.2-6.4,16.3-4.8
				C177.4,1598.2,178.1,1595.5,176.4,1595.1z"/>
			<path class="st22" d="M199.1,1606.4c-8.3-1-16.2,0.5-23.7,4.1c-1.3,0.6-0.2,2.4,1.1,1.9c7.2-3.1,14.8-4,22.6-3.2
				C200.9,1609.3,200.8,1606.6,199.1,1606.4z"/>
			<path class="st22" d="M1078.3,1613.5c-0.2-1.9-3.1-2.1-3.1,0c-0.1,6.7-0.7,12.7-3.3,19c-0.5,1.3,1.7,2.2,2.3,1
				C1077.2,1627.4,1079.1,1620.3,1078.3,1613.5z"/>
			<path class="st22" d="M1089.9,1613c-0.3-2.3-3.9-1.3-3.5,1c1.3,8.5-1.2,16.9-6.8,23.5c-1.3,1.5,0.8,3.8,2.3,2.2
				C1088.6,1632.3,1091.4,1622.9,1089.9,1613z"/>
		</g>
		<g>
			<g>
				<g>
					<path class="st22" d="M992.4,1689.1c0.8,1,1.1,2.3,1.1,3.9v7.5c0,0.2-0.1,0.4-0.2,0.6c-0.2,0.2-0.3,0.2-0.6,0.2
						c-0.2,0-0.4-0.1-0.6-0.2c-0.2-0.2-0.2-0.3-0.2-0.6v-7.4c0-1.2-0.3-2.1-0.8-2.9c-0.6-0.7-1.4-1.1-2.6-1.1
						c-0.7,0-1.5,0.2-2.1,0.5c-0.7,0.4-1.2,0.8-1.6,1.4c-0.4,0.6-0.6,1.3-0.6,2v7.4c0,0.2-0.1,0.4-0.2,0.6c-0.2,0.2-0.3,0.2-0.6,0.2
						s-0.4-0.1-0.6-0.2s-0.2-0.3-0.2-0.6v-7.5c0-1.2-0.3-2.1-0.8-2.8s-1.4-1.1-2.5-1.1c-0.7,0-1.4,0.2-2.1,0.5
						c-0.7,0.4-1.2,0.8-1.6,1.4c-0.4,0.6-0.6,1.2-0.6,1.9v7.5c0,0.2-0.1,0.4-0.2,0.6c-0.2,0.2-0.3,0.2-0.6,0.2s-0.4-0.1-0.6-0.2
						s-0.2-0.3-0.2-0.6v-11.9c0-0.2,0.1-0.4,0.2-0.6s0.3-0.2,0.6-0.2s0.4,0.1,0.6,0.2c0.2,0.2,0.2,0.3,0.2,0.6v1.5
						c0.5-0.7,1.1-1.3,2-1.8c0.8-0.5,1.7-0.7,2.6-0.7c1,0,1.9,0.2,2.7,0.7s1.3,1.2,1.6,2.2c0.4-0.8,1.1-1.5,2.1-2c1-0.6,2-0.9,3-0.9
						C990.5,1687.6,991.7,1688.1,992.4,1689.1z"/>
					<path class="st22" d="M1009,1694.3c-0.2,0.2-0.3,0.2-0.6,0.2h-10.1c0,1.1,0.2,2,0.7,2.9c0.4,0.8,1.1,1.5,1.9,2
						c0.8,0.5,1.8,0.7,2.9,0.7c0.9,0,1.6-0.2,2.3-0.5c0.7-0.4,1.2-0.8,1.6-1.4c0.2-0.2,0.4-0.2,0.6-0.2c0.2,0,0.3,0.1,0.5,0.2
						s0.2,0.3,0.2,0.5c0,0.2-0.1,0.4-0.3,0.6c-0.6,0.7-1.3,1.3-2.1,1.7c-0.9,0.4-1.8,0.7-2.7,0.7c-1.4,0-2.6-0.3-3.6-0.9
						s-1.9-1.4-2.5-2.5c-0.6-1.1-0.9-2.3-0.9-3.6c0-1.5,0.3-2.7,0.9-3.8c0.6-1.1,1.3-1.9,2.3-2.5s2-0.9,3.1-0.9c1.1,0,2.1,0.2,3,0.7
						c0.9,0.5,1.7,1.2,2.3,2.2c0.6,1,0.9,2.1,0.9,3.4C1009.3,1693.9,1009.2,1694.1,1009,1694.3z M1000.2,1690
						c-0.9,0.7-1.4,1.7-1.7,3.1h9.1v-0.2c-0.1-0.8-0.4-1.5-0.8-2.1c-0.4-0.6-1-1-1.7-1.4c-0.7-0.3-1.4-0.5-2.1-0.5
						C1002.1,1688.9,1001.1,1689.3,1000.2,1690z"/>
					<path class="st22" d="M1022.1,1687.5c0.9,0.5,1.4,1.1,1.4,1.9c0,0.4-0.1,0.7-0.3,1s-0.5,0.4-0.9,0.4c-0.3,0-0.5,0-0.7-0.1
						c-0.2-0.1-0.4-0.2-0.5-0.3c-0.2-0.1-0.3-0.2-0.5-0.3c-0.2-0.1-0.4-0.2-0.8-0.2c-0.3-0.1-0.6-0.1-0.8-0.1
						c-1.3,0-2.4,0.4-3.1,1.2s-1.1,1.9-1.1,3.2c0,1.3,0.4,2.3,1.1,3.2c0.8,0.8,1.7,1.3,2.9,1.3c0.9,0,1.5-0.1,1.9-0.3
						c0.1-0.1,0.3-0.1,0.4-0.3c0.2-0.1,0.4-0.2,0.5-0.3c0.2-0.1,0.4-0.1,0.6-0.1c0.4,0,0.8,0.1,1.1,0.4c0.3,0.3,0.4,0.6,0.4,1.1
						c0,0.4-0.2,0.8-0.7,1.2c-0.5,0.4-1.2,0.7-2,0.9c-0.8,0.2-1.7,0.3-2.6,0.3c-1.4,0-2.6-0.3-3.6-1c-1-0.6-1.8-1.5-2.4-2.6
						c-0.6-1.1-0.9-2.4-0.9-3.8c0-1.4,0.3-2.7,0.9-3.8c0.6-1.1,1.4-2,2.5-2.6c1.1-0.6,2.3-0.9,3.6-0.9
						C1020,1686.8,1021.2,1687.1,1022.1,1687.5z"/>
					<path class="st22" d="M1038.8,1698c-0.6,1.1-1.5,2-2.6,2.6s-2.3,0.9-3.7,0.9c-1.4,0-2.6-0.3-3.7-0.9c-1.1-0.6-2-1.5-2.6-2.6
						c-0.6-1.1-1-2.4-1-3.8c0-1.4,0.3-2.7,1-3.8c0.6-1.1,1.5-2,2.6-2.6c1.1-0.6,2.3-0.9,3.7-0.9c1.3,0,2.6,0.3,3.7,0.9
						c1.1,0.6,2,1.5,2.6,2.6c0.6,1.1,1,2.4,1,3.8C1039.7,1695.6,1039.4,1696.9,1038.8,1698z M1036,1691.9c-0.4-0.7-0.9-1.2-1.5-1.6
						c-0.6-0.4-1.3-0.6-2-0.6s-1.4,0.2-2,0.6c-0.6,0.4-1.1,0.9-1.5,1.6c-0.4,0.7-0.5,1.5-0.5,2.3c0,0.9,0.2,1.6,0.5,2.3
						s0.9,1.2,1.5,1.6c0.6,0.4,1.3,0.6,2,0.6s1.4-0.2,2-0.6c0.6-0.4,1.1-0.9,1.5-1.6s0.5-1.4,0.5-2.3
						C1036.5,1693.3,1036.3,1692.6,1036,1691.9z"/>
					<path class="st22" d="M1053.8,1688.4c0.7,1.1,1,2.6,1,4.4v6.8c0,0.5-0.2,0.8-0.5,1.2c-0.3,0.3-0.7,0.5-1.1,0.5
						s-0.8-0.2-1.1-0.5c-0.3-0.3-0.5-0.7-0.5-1.2v-6.8c0-1-0.2-1.7-0.6-2.3c-0.4-0.6-1.1-0.8-2.1-0.8c-1,0-1.8,0.3-2.4,0.9
						s-0.9,1.3-0.9,2.2v6.8c0,0.5-0.2,0.8-0.5,1.2c-0.3,0.3-0.7,0.5-1.1,0.5s-0.8-0.2-1.1-0.5c-0.3-0.3-0.5-0.7-0.5-1.2v-11
						c0-0.5,0.2-0.8,0.5-1.2s0.7-0.5,1.1-0.5s0.8,0.2,1.1,0.5s0.5,0.7,0.5,1.2v0.5c0.5-0.6,1.1-1.2,1.9-1.6c0.8-0.5,1.6-0.7,2.6-0.7
						C1051.8,1686.8,1053.1,1687.4,1053.8,1688.4z"/>
					<path class="st22" d="M1070.2,1687.5c0.3,0.3,0.4,0.6,0.4,1c0,0.2-0.1,0.5-0.2,0.8l-5,10.9c-0.1,0.3-0.3,0.5-0.5,0.7
						s-0.5,0.3-0.8,0.3l-0.2,0c-0.3,0-0.6-0.1-0.8-0.3s-0.5-0.4-0.6-0.8l-5-10.9c-0.1-0.3-0.2-0.6-0.2-0.8c0-0.4,0.2-0.7,0.5-1
						c0.3-0.3,0.7-0.4,1.1-0.4c0.3,0,0.7,0.1,0.9,0.3c0.3,0.2,0.5,0.4,0.6,0.7l3.7,8.4l3.7-8.4c0.1-0.3,0.3-0.6,0.6-0.8
						c0.2-0.2,0.5-0.3,0.8-0.2C1069.6,1687.1,1069.9,1687.3,1070.2,1687.5z"/>
					<path class="st22" d="M1073.3,1685.1c-0.2-0.2-0.4-0.5-0.4-1v-0.5c0-0.5,0.1-0.8,0.4-1c0.3-0.2,0.7-0.3,1.3-0.3
						c0.6,0,1.1,0.1,1.3,0.3c0.2,0.2,0.4,0.5,0.4,1v0.5c0,0.5-0.1,0.9-0.4,1c-0.3,0.2-0.7,0.3-1.3,0.3
						C1074,1685.4,1073.5,1685.3,1073.3,1685.1z M1075.7,1700.8c-0.3,0.3-0.7,0.5-1.1,0.5c-0.5,0-0.8-0.2-1.1-0.5
						c-0.3-0.3-0.5-0.7-0.5-1.2v-11c0-0.5,0.2-0.8,0.5-1.2s0.7-0.5,1.1-0.5c0.5,0,0.8,0.2,1.1,0.5s0.5,0.7,0.5,1.2v11
						C1076.2,1700.1,1076.1,1700.5,1075.7,1700.8z"/>
					<path class="st22" d="M1092.2,1682.1c0.3,0.3,0.5,0.7,0.5,1.2v16.4c0,0.5-0.2,0.8-0.5,1.2c-0.3,0.3-0.7,0.5-1.1,0.5
						c-0.5,0-0.8-0.2-1.1-0.5s-0.5-0.7-0.5-1.1c-0.4,0.5-1,1-1.8,1.3c-0.8,0.4-1.6,0.5-2.4,0.5c-1.2,0-2.3-0.3-3.3-0.9
						s-1.8-1.5-2.4-2.6c-0.6-1.1-0.9-2.4-0.9-3.8c0-1.4,0.3-2.7,0.9-3.8c0.6-1.1,1.3-2,2.3-2.6c1-0.6,2.1-0.9,3.3-0.9
						c0.9,0,1.7,0.2,2.4,0.5c0.7,0.3,1.4,0.7,1.9,1.2v-5.2c0-0.5,0.2-0.8,0.5-1.2c0.3-0.3,0.7-0.5,1.1-0.5
						C1091.5,1681.6,1091.9,1681.8,1092.2,1682.1z M1088.5,1697.4c0.7-0.8,1.1-1.9,1.1-3.2c0-1.3-0.4-2.3-1.1-3.2
						c-0.7-0.8-1.7-1.3-2.8-1.3c-1.1,0-2.1,0.4-2.8,1.3s-1.1,1.9-1.1,3.2c0,1.3,0.4,2.3,1.1,3.2c0.7,0.8,1.7,1.3,2.8,1.3
						C1086.8,1698.6,1087.8,1698.2,1088.5,1697.4z"/>
					<path class="st22" d="M1108.4,1694.9c-0.3,0.3-0.7,0.4-1.1,0.4h-8.8c0.2,1,0.7,1.9,1.5,2.5c0.8,0.6,1.6,0.9,2.6,0.9
						c0.7,0,1.3-0.1,1.7-0.2c0.4-0.1,0.7-0.3,1-0.4c0.2-0.1,0.4-0.3,0.5-0.3c0.3-0.2,0.6-0.2,0.9-0.2c0.4,0,0.7,0.1,1,0.4
						c0.3,0.3,0.4,0.6,0.4,0.9c0,0.5-0.2,0.9-0.7,1.3c-0.5,0.4-1.2,0.8-2,1c-0.8,0.3-1.7,0.4-2.5,0.4c-1.5,0-2.8-0.3-3.9-0.9
						c-1.1-0.6-2-1.5-2.6-2.6c-0.6-1.1-0.9-2.3-0.9-3.7c0-1.5,0.3-2.9,1-4c0.6-1.2,1.5-2,2.5-2.6c1-0.6,2.2-0.9,3.4-0.9
						c1.2,0,2.3,0.3,3.3,1c1,0.6,1.9,1.5,2.5,2.6c0.6,1.1,0.9,2.2,0.9,3.5C1108.9,1694.3,1108.8,1694.6,1108.4,1694.9z
						 M1098.5,1692.6h7v-0.2c-0.1-0.7-0.4-1.4-1.1-1.9c-0.7-0.5-1.4-0.8-2.2-0.8C1100.1,1689.7,1098.9,1690.7,1098.5,1692.6z"/>
				</g>
				<path class="st22" d="M1032.4,1690.2h6.7l-6.7-16.6l-6.7,16.6H1032.4z"/>
				<path class="st22" d="M1039.1,1690.2l-6.7-16.6l-1.1,2.8c0.3,0.2,0.7,0.4,1.1,0.4c0,0,0,0,0,0c0.2,0,0.3,0.1,0.4,0.2l5.3,13.2
					H1039.1z"/>
				<path class="st22" d="M1035.5,1681.4h-6.3l0.9-2.4h4.4L1035.5,1681.4z"/>
				<path class="st22" d="M1033.7,1679.1l0.9,2.4h1l-0.9-2.4H1033.7z"/>
				<path class="st22" d="M1037.8,1686.9H1027l0.9-2.4h8.8L1037.8,1686.9z"/>
				<path class="st22" d="M1037.8,1686.9l-0.9-2.4h-1l0.9,2.4H1037.8z"/>
				<path class="st22" d="M1039.3,1691.4h-13.8c-0.2,0-0.4-0.2-0.4-0.4v-0.4c0-0.2,0.2-0.4,0.4-0.4h13.8c0.2,0,0.4,0.2,0.4,0.4v0.4
					C1039.7,1691.2,1039.5,1691.4,1039.3,1691.4z"/>
				<path class="st22" d="M1039.3,1690.2h-1c0.2,0,0.4,0.2,0.4,0.4v0.4c0,0.2-0.2,0.4-0.4,0.4h1c0.2,0,0.4-0.2,0.4-0.4v-0.4
					C1039.7,1690.3,1039.5,1690.2,1039.3,1690.2z"/>
				<g>
					<path class="st22" d="M1035.7,1676.1l0.3,0.1c0.2,0.1,0.4,0.3,0.5,0.5l0.3,0.8c0.1,0.1,0.2,0.1,0.3,0l0.3-0.8
						c0.1-0.2,0.2-0.4,0.5-0.5l0.3-0.1c0.1-0.1,0.1-0.2,0-0.3l-0.3-0.1c-0.2-0.1-0.4-0.3-0.5-0.5l-0.3-0.8c-0.1-0.1-0.2-0.1-0.3,0
						l-0.3,0.8c-0.1,0.2-0.2,0.4-0.5,0.5l-0.3,0.1C1035.6,1675.8,1035.6,1676,1035.7,1676.1z"/>
					<path class="st22" d="M1037.8,1675.6c-0.2-0.1-0.3-0.2-0.4-0.4c-0.1,0.6-0.5,1-1,1.2c0,0,0.1,0.1,0.1,0.2l0.3,0.8
						c0.1,0.1,0.2,0.1,0.3,0l0.3-0.8c0.1-0.2,0.2-0.4,0.5-0.5l0.3-0.1c0.1-0.1,0.1-0.2,0-0.3L1037.8,1675.6z"/>
				</g>
				<path class="st22" d="M1025.5,1680.4l0.3,0.1c0.2,0.1,0.4,0.3,0.5,0.5l0.3,0.8c0.1,0.1,0.2,0.1,0.3,0l0.3-0.8
					c0.1-0.2,0.2-0.4,0.5-0.5l0.3-0.1c0.1-0.1,0.1-0.2,0-0.3l-0.3-0.1c-0.2-0.1-0.4-0.3-0.5-0.5l-0.3-0.8c-0.1-0.1-0.2-0.1-0.3,0
					l-0.3,0.8c-0.1,0.2-0.2,0.4-0.5,0.5l-0.3,0.1C1025.3,1680.2,1025.3,1680.3,1025.5,1680.4z"/>
				<path class="st22" d="M1027.6,1680c-0.2-0.1-0.3-0.2-0.4-0.4c-0.1,0.6-0.5,1-1,1.2c0,0,0.1,0.1,0.1,0.2l0.3,0.8
					c0.1,0.1,0.2,0.1,0.3,0l0.3-0.8c0.1-0.2,0.2-0.4,0.5-0.5l0.3-0.1c0.1-0.1,0.1-0.2,0-0.3L1027.6,1680z"/>
				<path class="st22" d="M1030.8,1675.9l0.8-0.2l0.2,0.8c0.1,0.5,0.6,0.9,1.2,0.8c0.5-0.1,0.9-0.6,0.8-1.2l-0.2-0.8l0.8-0.2
					c0.5-0.1,0.9-0.6,0.8-1.2c-0.1-0.5-0.6-0.9-1.2-0.8l-0.8,0.2l-0.2-0.8c-0.1-0.5-0.6-0.9-1.2-0.8c-0.5,0.1-0.9,0.6-0.8,1.2
					l0.2,0.8l-0.8,0.2c-0.5,0.1-0.9,0.6-0.8,1.2C1029.7,1675.6,1030.2,1676,1030.8,1675.9z"/>
			</g>
			<path class="st22" d="M1030.8,1675.9l0.8-0.2l1.6-2.3l-0.2-0.8c-0.1-0.5-0.6-0.9-1.2-0.8c-0.5,0.1-0.9,0.6-0.8,1.2l0.2,0.8
				l-0.8,0.2c-0.5,0.1-0.9,0.6-0.8,1.2C1029.7,1675.6,1030.2,1676,1030.8,1675.9z"/>
		</g>
	</g>
</g>
</svg>
