<?xml version="1.0" encoding="utf-8"?>
<!-- Generator: Adobe Illustrator 23.0.4, SVG Export Plug-In . SVG Version: 6.00 Build 0)  -->
<svg version="1.1" xmlns="http://www.w3.org/2000/svg" xmlns:xlink="http://www.w3.org/1999/xlink" x="0px" y="0px" width="1200px"
	 height="1800px" viewBox="0 0 1200 1800" enable-background="new 0 0 1200 1800" xml:space="preserve">
<g id="Layer_1">
	<g>
		<defs>
			<rect id="SVGID_617_" width="1200" height="1800"/>
		</defs>
		<clipPath id="SVGID_2_">
			<use xlink:href="#SVGID_617_"  overflow="visible"/>
		</clipPath>
		<g clip-path="url(#SVGID_2_)">
			<g>
				<rect x="-2.9" y="0" fill="#FFFFFF" stroke="#231F20" stroke-miterlimit="10" width="1201.5" height="1699.3"/>
				<g>
					<rect x="-2.9" y="0" fill="#EBDFE9" width="1202" height="1800"/>
					<polygon fill="#E4C7DB" points="347.2,0 -2.9,526.4 -2.9,623.9 412.1,0 					"/>
					<polygon fill="#E4C7DB" points="496.9,0 -2.9,751.4 -2.9,848.9 561.7,0 					"/>
					<polygon fill="#E4C7DB" points="646.5,0 -2.9,976.4 -2.9,1073.9 711.3,0 					"/>
					<polygon fill="#E4C7DB" points="796.1,0 -2.9,1201.5 -2.9,1299 861,0 					"/>
					<polygon fill="#E4C7DB" points="945.8,0 -2.9,1426.5 -2.9,1524 1010.6,0 					"/>
					<polygon fill="#E4C7DB" points="1095.4,0 -2.9,1651.5 -2.9,1749 1160.3,0 					"/>
					<polygon fill="#E4C7DB" points="1199.1,69.1 47.3,1801.1 112.1,1801.1 1199.1,166.6 					"/>
					<polygon fill="#E4C7DB" points="1199.1,294.1 196.9,1801.1 261.8,1801.1 1199.1,391.6 					"/>
					<polygon fill="#E4C7DB" points="1199.1,519.1 346.6,1801.1 411.4,1801.1 1199.1,616.6 					"/>
					<polygon fill="#E4C7DB" points="1199.1,744.1 496.2,1801.1 561,1801.1 1199.1,841.6 					"/>
					<polygon fill="#E4C7DB" points="1199.1,969.1 645.8,1801.1 710.7,1801.1 1199.1,1066.6 					"/>
					<polygon fill="#E4C7DB" points="1199.1,1177.6 784.5,1801.1 849.3,1801.1 1199.1,1275.1 					"/>
					<polygon fill="#E4C7DB" points="1199.1,1389.1 925.2,1801.1 990,1801.1 1199.1,1486.6 					"/>
					<polygon fill="#E4C7DB" points="1199.1,1597.6 1063.8,1801.1 1128.7,1801.1 1199.1,1695.1 					"/>
					<polygon fill="#E4C7DB" points="209.9,0 -2.9,319.9 -2.9,417.4 274.7,0 					"/>
					<polygon fill="#E4C7DB" points="348.5,0 -2.9,528.4 -2.9,625.9 413.4,0 					"/>
					<polygon fill="#E4C7DB" points="74.5,0 -2.9,116.3 -2.9,213.8 139.3,0 					"/>
					<polygon fill="#E4C7DB" points="213.1,0 -2.9,324.8 -2.9,422.3 277.9,0 					"/>
					<polygon fill="#EFC7CF" points="1007.1,384.1 182.6,384.1 241,318 182.6,255.3 1007.1,255.3 956,318 					"/>
					<polygon fill="#F3F1F1" points="900.6,218.2 359.9,218.2 398.2,151.8 359.9,89 900.6,89 867.1,151.8 					"/>
				</g>
				<rect x="68.2" y="626.4" fill="#F3F1F1" width="1063.3" height="1081.4"/>
				
					<polyline fill="none" stroke="#CB8967" stroke-width="8.9396" stroke-linecap="round" stroke-linejoin="round" stroke-miterlimit="10" stroke-dasharray="4.4698,26.8187" points="
					1107.8,1329.3 1107.8,666.9 91.9,666.9 91.9,1657.8 900.6,1657.8 				"/>
				<g>
					<g>
						
							<path fill="none" stroke="#D5A086" stroke-width="8.9396" stroke-linecap="round" stroke-linejoin="round" stroke-miterlimit="10" d="
							M130.5,462.2c-1,15.4,7.4,29.7,15.2,42.7c10.7,18.1,21.8,37.1,28.7,57.3c4.7,14.1,4.1,29.8,4.5,44.7
							c0.2,9.6,0.5,20.6,7.4,27.9"/>
						<path fill="#EECB9B" d="M127.8,456.5c-3.3,3.3-7.9,13.7-3.4,14.8c3.3,0.8,4.7-2.7,6.3-4.5c2-2.3,2.3-1.9,5.5-1.9
							c8.8,0.1-2.2-10.8-7.1-9.3C128.7,455.7,128.3,456.1,127.8,456.5z"/>
						<path fill="#FCD298" d="M158.4,360.2c14.6,40.9-4,88.3-27.3,98.6c-25.1,11.1-70.9-17.5-85.4-58.4c-14.6-40.9-1.2-83.1,30-94.2
							C106.8,295.1,143.8,319.3,158.4,360.2z"/>
						<path fill="#F8BF90" d="M84,424.2c-14.3-12.2-29.4-34-34.1-52.5c-6.7-26-0.3-34.2,2.1-47.1c-13.1,18.8-16.3,47.5-6.3,75.7
							c14.6,40.9,60.3,69.5,85.4,58.4c6.9-3,13.3-9.3,18.6-17.6C120.8,444.9,102.3,439.9,84,424.2z"/>
						<path fill="#FDE6CC" d="M126.5,442c0.8,2.3-0.4,4.8-2.7,5.7c-2.3,0.8-4.8-0.4-5.7-2.7c-0.8-2.3,0.4-4.8,2.7-5.7
							C123.1,438.5,125.6,439.7,126.5,442z"/>
						<path fill="#FDE6CC" d="M78.1,315.4c0.8,2.3-0.4,4.8-2.7,5.7c-2.3,0.8-4.8-0.4-5.7-2.7c-0.8-2.3,0.4-4.8,2.7-5.7
							C74.7,311.9,77.3,313.1,78.1,315.4z"/>
						<path fill="#FDE6CC" d="M137.6,408.8c0.8,2.3-0.4,4.8-2.7,5.7c-2.3,0.8-4.8-0.4-5.7-2.7c-0.8-2.3,0.4-4.8,2.7-5.7
							C134.3,405.3,136.8,406.5,137.6,408.8z"/>
						<path fill="#FDE6CC" d="M98.5,421c0.8,2.3-0.4,4.8-2.7,5.7c-2.3,0.8-4.8-0.4-5.7-2.7c-0.8-2.3,0.4-4.8,2.7-5.7
							C95.1,417.5,97.7,418.7,98.5,421z"/>
						<path fill="#FDE6CC" d="M66.2,405.1c0.8,2.3-0.4,4.8-2.7,5.7c-2.3,0.8-4.8-0.4-5.7-2.7c-0.8-2.3,0.4-4.8,2.7-5.7
							C62.8,401.5,65.3,402.7,66.2,405.1z"/>
						<path fill="#FDE6CC" d="M152.9,383.3c0.8,2.3-0.4,4.8-2.7,5.7c-2.3,0.8-4.8-0.4-5.7-2.7c-0.8-2.3,0.4-4.8,2.7-5.7
							C149.6,379.8,152.1,381,152.9,383.3z"/>
						<path fill="#FDE6CC" d="M107.7,392.4c0.8,2.3-0.4,4.8-2.7,5.7c-2.3,0.8-4.8-0.4-5.7-2.7c-0.8-2.3,0.4-4.8,2.7-5.7
							C104.3,388.9,106.9,390.1,107.7,392.4z"/>
						<path fill="#FDE6CC" d="M72.2,369.8c0.8,2.3-0.4,4.8-2.7,5.7c-2.3,0.8-4.8-0.4-5.7-2.7c-0.8-2.3,0.4-4.8,2.7-5.7
							C68.8,366.3,71.3,367.5,72.2,369.8z"/>
						<path fill="#FDE6CC" d="M122.8,356.3c0.8,2.3-0.4,4.8-2.7,5.7c-2.3,0.8-4.8-0.4-5.7-2.7c-0.8-2.3,0.4-4.8,2.7-5.7
							C119.5,352.8,122,354,122.8,356.3z"/>
						<path fill="#FDE6CC" d="M89.2,341.9c0.8,2.3-0.4,4.8-2.7,5.7c-2.3,0.8-4.8-0.4-5.7-2.7c-0.8-2.3,0.4-4.8,2.7-5.7
							C85.8,338.4,88.3,339.6,89.2,341.9z"/>
						<path fill="#FDE6CC" d="M57.3,346.3c0.8,2.3-0.4,4.8-2.7,5.7c-2.3,0.8-4.9-0.4-5.7-2.7c-0.8-2.3,0.4-4.8,2.7-5.7
							C54,342.8,56.5,344,57.3,346.3z"/>
						<path fill="#FDE6CC" d="M113,317.3c0.8,2.3-0.4,4.8-2.7,5.7c-2.3,0.8-4.8-0.4-5.7-2.7c-0.8-2.3,0.4-4.8,2.7-5.7
							C109.6,313.8,112.1,315,113,317.3z"/>
						<path opacity="0.6" fill="#FDE6CC" d="M137.8,326c11.6,11.7,15.8,26.3,9.4,32.6c-6.4,6.3-20.9,1.9-32.5-9.7
							c-11.6-11.7-15.8-26.3-9.4-32.6C111.7,309.9,126.2,314.3,137.8,326z"/>
					</g>
					<g>
						
							<path fill="none" stroke="#C4BBD2" stroke-width="8.9396" stroke-linecap="round" stroke-linejoin="round" stroke-miterlimit="10" d="
							M179.6,324.8c-3.6,15,2.2,30.5,7.7,44.7c7.5,19.6,15.2,40.3,18.5,61.3c2.2,14.7-1,30-3.2,44.8c-1.4,9.5-3,20.4,2.6,28.7"/>
						<path fill="#C1C9E2" d="M177.8,318.7c-3.8,2.6-10.1,12.2-5.8,14c3.1,1.3,5.1-1.9,6.9-3.4c2.4-2,2.6-1.5,5.7-0.9
							c8.7,1.6-0.4-11.1-5.4-10.4C178.9,318.1,178.4,318.3,177.8,318.7z"/>
						<path fill="#C1C9E2" d="M224.4,229c7.4,42.8-19,86.3-43.7,92.5c-26.6,6.7-66.8-29.3-74.2-72.1c-7.4-42.8,13-82,45.6-87.7
							C184.6,156,217,186.2,224.4,229z"/>
						<path fill="#AEB7D9" d="M140.1,279.4c-12-14.5-23.1-38.6-24.7-57.5c-2.2-26.7,5.6-33.7,10.1-46c-16.1,16.3-24.2,44-19.1,73.5
							c7.4,42.8,47.6,78.8,74.2,72.1c7.3-1.8,14.7-6.9,21.3-14.2C172.9,306,155.5,297.9,140.1,279.4z"/>
						<path fill="#E1E4F3" d="M179,304.1c0.4,2.4-1.2,4.7-3.6,5.1c-2.4,0.4-4.7-1.2-5.1-3.6c-0.4-2.4,1.2-4.7,3.6-5.1
							C176.3,300.1,178.6,301.7,179,304.1z"/>
						<path fill="#E1E4F3" d="M152.9,171.2c0.4,2.4-1.2,4.7-3.6,5.1c-2.4,0.4-4.7-1.2-5.1-3.6c-0.4-2.4,1.2-4.7,3.6-5.1
							C150.2,167.1,152.5,168.8,152.9,171.2z"/>
						<path fill="#E1E4F3" d="M195.7,273.3c0.4,2.4-1.2,4.7-3.6,5.1c-2.4,0.4-4.7-1.2-5.1-3.6c-0.4-2.4,1.2-4.7,3.6-5.1
							C193,269.3,195.3,270.9,195.7,273.3z"/>
						<path fill="#E1E4F3" d="M155,278.7c0.4,2.4-1.2,4.7-3.6,5.1c-2.4,0.4-4.7-1.2-5.1-3.6c-0.4-2.4,1.2-4.7,3.6-5.1
							C152.3,274.6,154.6,276.3,155,278.7z"/>
						<path fill="#E1E4F3" d="M125.9,257.5c0.4,2.4-1.2,4.7-3.6,5.1c-2.4,0.4-4.7-1.2-5.1-3.6c-0.4-2.4,1.2-4.7,3.6-5.1
							C123.2,253.4,125.5,255,125.9,257.5z"/>
						<path fill="#E1E4F3" d="M215.1,250.8c0.4,2.4-1.2,4.7-3.6,5.1c-2.4,0.4-4.7-1.2-5.1-3.6c-0.4-2.4,1.2-4.7,3.6-5.1
							C212.4,246.8,214.7,248.4,215.1,250.8z"/>
						<path fill="#E1E4F3" d="M169,252.1c0.4,2.4-1.2,4.7-3.6,5.1c-2.4,0.4-4.7-1.2-5.1-3.6c-0.4-2.4,1.2-4.7,3.6-5.1
							C166.3,248,168.5,249.7,169,252.1z"/>
						<path fill="#E1E4F3" d="M137.8,223.7c0.4,2.4-1.2,4.7-3.6,5.1c-2.4,0.4-4.7-1.2-5.1-3.6c-0.4-2.4,1.2-4.7,3.6-5.1
							C135.1,219.7,137.4,221.3,137.8,223.7z"/>
						<path fill="#E1E4F3" d="M190,219.1c0.4,2.4-1.2,4.7-3.6,5.1c-2.4,0.4-4.7-1.2-5.1-3.6c-0.4-2.4,1.2-4.7,3.6-5.1
							C187.3,215,189.6,216.7,190,219.1z"/>
						<path fill="#E1E4F3" d="M159.3,199.2c0.4,2.4-1.2,4.7-3.6,5.1c-2.4,0.4-4.7-1.2-5.1-3.6c-0.4-2.4,1.2-4.7,3.6-5.1
							C156.6,195.1,158.9,196.8,159.3,199.2z"/>
						<path fill="#E1E4F3" d="M127.2,198c0.4,2.4-1.2,4.7-3.6,5.1c-2.4,0.4-4.7-1.2-5.1-3.6c-0.4-2.4,1.2-4.7,3.6-5.1
							C124.5,194,126.8,195.6,127.2,198z"/>
						<path fill="#E1E4F3" d="M187,178.9c0.4,2.4-1.2,4.7-3.6,5.1c-2.4,0.4-4.7-1.2-5.1-3.6c-0.4-2.4,1.2-4.7,3.6-5.1
							C184.2,174.9,186.5,176.5,187,178.9z"/>
						<path opacity="0.4" fill="#FDF3F8" d="M209.9,191.7c9.4,13.5,11.1,28.6,3.7,33.7c-7.4,5.1-20.9-1.6-30.3-15.1
							c-9.4-13.5-11.1-28.6-3.7-33.7C186.9,171.5,200.5,178.2,209.9,191.7z"/>
					</g>
					<g>
						
							<path fill="none" stroke="#C8B5D8" stroke-width="8.9396" stroke-linecap="round" stroke-linejoin="round" stroke-miterlimit="10" d="
							M244.7,401.1c-10,11.8-11.9,28.2-13.4,43.3c-2.2,20.9-4.7,42.8-11.3,63c-4.7,14.1-14.5,26.3-23.2,38.5
							c-5.6,7.8-11.9,16.8-10.8,26.8"/>
						<path fill="#F1D9D9" d="M245.9,394.9c-4.6,0.6-14.5,6.3-11.6,9.8c2.2,2.6,5.4,0.7,7.7,0.2c3-0.7,3-0.1,5.5,1.8
							c7,5.3,4.7-10-0.1-11.7C247.1,394.8,246.5,394.8,245.9,394.9z"/>
						<path fill="#EFC7CF" d="M328.1,336.1c-12.8,41.5-56,68.3-80.9,62.6c-26.8-6.2-46.3-56.5-33.4-98
							c12.8-41.5,48.8-67.2,80.4-57.4C325.8,253.1,341,294.6,328.1,336.1z"/>
						<path fill="#ECB3C3" d="M230.1,342.8c-4.1-18.3-3.1-44.9,4.1-62.5c10.2-24.8,20.2-27.5,29.9-36.4
							c-21.8,7.2-41.5,28.3-50.4,56.8c-12.8,41.5,6.7,91.8,33.4,98c7.3,1.7,16.2,0.5,25.4-2.9C247.2,381.4,235.4,366.3,230.1,342.8z
							"/>
						<path fill="#F1D9D9" d="M253.5,382.5c-0.7,2.3-3.2,3.7-5.6,2.9c-2.3-0.7-3.7-3.2-2.9-5.6c0.7-2.3,3.2-3.7,5.6-2.9
							C252.9,377.6,254.3,380.1,253.5,382.5z"/>
						<path fill="#F1D9D9" d="M290.6,252.2c-0.7,2.3-3.2,3.7-5.6,2.9c-2.3-0.7-3.7-3.2-2.9-5.6c0.7-2.3,3.2-3.7,5.6-2.9
							C290,247.3,291.4,249.8,290.6,252.2z"/>
						<path fill="#F1D9D9" d="M282.4,362.6c-0.7,2.3-3.2,3.7-5.6,2.9c-2.3-0.7-3.7-3.2-2.9-5.6c0.7-2.3,3.2-3.7,5.6-2.9
							C281.8,357.8,283.1,360.2,282.4,362.6z"/>
						<path fill="#F1D9D9" d="M243.7,348.9c-0.7,2.3-3.2,3.7-5.6,2.9c-2.3-0.7-3.7-3.2-2.9-5.6c0.7-2.3,3.2-3.7,5.6-2.9
							C243.1,344.1,244.5,346.6,243.7,348.9z"/>
						<path fill="#F1D9D9" d="M227.4,316.8c-0.7,2.3-3.2,3.7-5.6,2.9c-2.3-0.7-3.7-3.2-2.9-5.6c0.7-2.3,3.2-3.7,5.6-2.9
							C226.8,311.9,228.1,314.4,227.4,316.8z"/>
						<path fill="#F1D9D9" d="M309.9,351.3c-0.7,2.3-3.2,3.7-5.6,2.9c-2.3-0.7-3.7-3.2-2.9-5.6c0.7-2.3,3.2-3.7,5.6-2.9
							C309.3,346.5,310.6,349,309.9,351.3z"/>
						<path fill="#F1D9D9" d="M268.2,331.5c-0.7,2.3-3.2,3.7-5.6,2.9c-2.3-0.7-3.7-3.2-2.9-5.6c0.7-2.3,3.2-3.7,5.6-2.9
							C267.6,326.7,268.9,329.2,268.2,331.5z"/>
						<path fill="#F1D9D9" d="M253.3,292.1c-0.7,2.3-3.2,3.7-5.6,2.9c-2.3-0.7-3.7-3.2-2.9-5.6c0.7-2.3,3.2-3.7,5.6-2.9
							C252.7,287.3,254,289.8,253.3,292.1z"/>
						<path fill="#F1D9D9" d="M302,311.7c-0.7,2.3-3.2,3.7-5.6,2.9c-2.3-0.7-3.7-3.2-2.9-5.6c0.7-2.3,3.2-3.7,5.6-2.9
							C301.4,306.9,302.7,309.3,302,311.7z"/>
						<path fill="#F1D9D9" d="M283.6,280c-0.7,2.3-3.2,3.7-5.6,2.9c-2.3-0.7-3.7-3.2-2.9-5.6c0.7-2.3,3.2-3.7,5.6-2.9
							C283,275.2,284.3,277.7,283.6,280z"/>
						<path fill="#F1D9D9" d="M255.5,264.4c-0.7,2.3-3.2,3.7-5.6,2.9c-2.3-0.7-3.7-3.2-2.9-5.6c0.7-2.3,3.2-3.7,5.6-2.9
							C254.9,259.6,256.2,262.1,255.5,264.4z"/>
						<path fill="#F1D9D9" d="M317.4,274.5c-0.7,2.3-3.2,3.7-5.6,2.9c-2.3-0.7-3.7-3.2-2.9-5.6c0.7-2.3,3.2-3.7,5.6-2.9
							C316.8,269.7,318.2,272.2,317.4,274.5z"/>
						<path opacity="0.5" fill="#F1D9D9" d="M332.1,296.3c2.3,16.3-3.1,30.5-12,31.7c-8.9,1.2-17.9-11-20.2-27.3
							c-2.3-16.3,3.1-30.5,12-31.7C320.8,267.8,329.8,280,332.1,296.3z"/>
					</g>
					<g>
						<path fill="#F0F0F0" d="M33.1,679.3c0-9.9,7.3-18.2,17.5-21.2c-0.2-1.3-0.3-2.5-0.3-3.8c0-14.9,12.1-27.1,27.1-27.1
							c3.8,0,7.3,0.8,10.6,2.2c4.5-10.5,16.1-18,29.7-18c11.1,0,20.8,5,26.5,12.5c3.3-1.3,6.8-2,10.5-2c14.6,0,26.6,10.7,28.7,24.7
							c1.2-0.1,2.4-0.2,3.6-0.2c14.2,0,25.7,10,25.7,22.4c0,9.1-6.3,17-15.3,20.5c0,0.5,0.1,1.1,0.1,1.6c0,13.3-10.8,24.1-24.1,24.1
							c-4.9,0-9.5-1.5-13.3-4c-5.1,9.4-16,15.9-28.7,15.9c-10.1,0-19.2-4.2-25-10.7c-5.3,6.1-13.2,10-21.9,10
							c-14.5,0-26.6-10.7-28.7-24.6C43.1,700.3,33.1,690.8,33.1,679.3z"/>
						<path fill="#EEF7FB" d="M36.8,685c0-9.9,7.3-18.2,17.5-21.2c-0.2-1.3-0.3-2.5-0.3-3.8c0-14.9,12.1-27.1,27.1-27.1
							c3.8,0,7.3,0.8,10.6,2.2c4.5-10.5,16.1-18,29.7-18c11.1,0,20.8,5,26.5,12.5c3.3-1.3,6.8-2,10.5-2c14.6,0,26.6,10.7,28.7,24.7
							c1.2-0.1,2.4-0.2,3.6-0.2c14.2,0,25.7,10,25.7,22.4c0,9.1-6.3,17-15.3,20.5c0,0.5,0.1,1.1,0.1,1.6c0,13.3-10.8,24.1-24.1,24.1
							c-4.9,0-9.5-1.5-13.3-4c-5.1,9.4-16,15.9-28.7,15.9c-10.1,0-19.2-4.2-25-10.7c-5.3,6.1-13.2,10-21.9,10
							c-14.5,0-26.6-10.7-28.7-24.6C46.8,706,36.8,696.5,36.8,685z"/>
					</g>
					<g>
						<path fill="#F0F0F0" d="M38.2,603.8c0-9.9,7.3-18.2,17.5-21.2c-0.2-1.3-0.3-2.5-0.3-3.8c0-14.9,12.1-27.1,27.1-27.1
							c3.8,0,7.3,0.8,10.6,2.2c4.5-10.5,16.1-18,29.7-18c11.1,0,20.8,5,26.5,12.5c3.3-1.3,6.8-2,10.5-2c14.6,0,26.6,10.7,28.7,24.7
							c1.2-0.1,2.4-0.2,3.6-0.2c14.2,0,25.7,10,25.7,22.4c0,9.1-6.3,17-15.3,20.5c0,0.5,0.1,1.1,0.1,1.6c0,13.3-10.8,24.1-24.1,24.1
							c-4.9,0-9.5-1.5-13.3-4c-5.1,9.4-16,15.9-28.7,15.9c-10.1,0-19.2-4.2-25-10.7c-5.3,6.1-13.2,10-21.9,10
							c-14.5,0-26.6-10.7-28.7-24.6C48.1,624.8,38.2,615.3,38.2,603.8z"/>
						<path fill="#EEF7FB" d="M41.8,609.6c0-9.9,7.3-18.2,17.5-21.2c-0.2-1.3-0.3-2.5-0.3-3.8c0-14.9,12.1-27.1,27.1-27.1
							c3.8,0,7.3,0.8,10.6,2.2c4.5-10.5,16.1-18,29.7-18c11.1,0,20.8,5,26.5,12.5c3.3-1.3,6.8-2,10.5-2c14.6,0,26.6,10.7,28.7,24.7
							c1.2-0.1,2.4-0.2,3.6-0.2c14.2,0,25.7,10,25.7,22.4c0,9.1-6.3,17-15.3,20.5c0,0.5,0.1,1.1,0.1,1.6c0,13.3-10.8,24.1-24.1,24.1
							c-4.9,0-9.5-1.5-13.3-4c-5.1,9.4-16,15.9-28.7,15.9c-10.1,0-19.2-4.2-25-10.7c-5.3,6.1-13.2,10-21.9,10
							c-14.5,0-26.6-10.7-28.7-24.6C51.8,630.6,41.8,621.1,41.8,609.6z"/>
					</g>
					<g>
						<g>
							<g>
								<g>
									<g>
										<g>
											<g>
												<path fill="#BC9E83" d="M157.7,651.6c0,0-28.6,0.5-36,27.4c0,0-15.5-13.3-29.5-2.8c-15.9,12,21.8,52,36.6,38.7l52.4-22
													L157.7,651.6z"/>
											</g>
										</g>
									</g>
								</g>
								<g>
									<g>
										<g>
											<g>
												<path fill="#B4987F" d="M112.6,705.4c0,0,0.1,0,0.1,0c12.9-1.9,28.2-2.7,38.7-11.5c5.2-4.4,8.6-11,10.9-17.2
													c1.4-3.7,2.4-7.5,3.3-11.3l15.5,27.4l-52.4,22c-4.1,3.7-10,3.3-16,0.5V705.4z"/>
											</g>
										</g>
									</g>
								</g>
								<g>
									<g>
										<g>
											<g>
												<path fill="#A98F78" d="M92.1,676.2C92.1,676.2,92.1,676.1,92.1,676.2C92.1,676.1,92.1,676.1,92.1,676.2
													c11.4-2.9,18.1,3.8,25,11.3c3.8,4.2,10,12.2,11.7,17.7c1,3.3,0.8,6.4,0.1,9.6l-0.2,0.1
													C113.9,728.2,76.2,688.1,92.1,676.2z"/>
											</g>
										</g>
									</g>
								</g>
								<g>
									<g>
										<g>
											<g>
												<g>
													<path fill="#EDD6CE" d="M104.1,690.4c-0.7,0.4,0.6,5.7,0.6,5.7s-4.4,3.1-4.4,3.8c0,0.6,5.6,1.2,5.6,1.2
														s1.7,5.2,2.2,5.3c0.5,0.1,2.9-5,2.9-5s5.5,0.1,5.7-0.5c0.2-0.6-3.9-4.3-3.9-4.3s1.7-5,1.3-5.6
														c-0.3-0.6-5.2,2.4-5.2,2.4S104.8,689.9,104.1,690.4z"/>
												</g>
											</g>
										</g>
									</g>
								</g>
							</g>
							<g>
								<g>
									<g>
										<g>
											<g>
												<path fill="#BC9E83" d="M289.6,650.9c0,0,28.6,0.5,36,27.4c0,0,15.5-13.3,29.5-2.8c15.9,12-21.8,52-36.6,38.7l-52.4-22
													L289.6,650.9z"/>
											</g>
										</g>
									</g>
								</g>
								<g>
									<g>
										<g>
											<g>
												<path fill="#B4987F" d="M334.6,704.7c0,0-0.1,0-0.1,0c-12.9-1.9-28.2-2.7-38.7-11.5c-5.2-4.4-8.6-11-10.9-17.2
													c-1.4-3.7-2.4-7.5-3.3-11.3l-15.5,27.4l52.4,22c4.1,3.7,10,3.3,16,0.5V704.7z"/>
											</g>
										</g>
									</g>
								</g>
								<g>
									<g>
										<g>
											<g>
												<path fill="#A98F78" d="M355.2,675.5C355.2,675.4,355.2,675.4,355.2,675.5C355.2,675.4,355.2,675.4,355.2,675.5
													c-11.4-2.9-18.1,3.8-25,11.3c-3.8,4.2-10,12.2-11.7,17.7c-1,3.3-0.8,6.4-0.1,9.6l0.2,0.1
													C333.4,727.5,371.1,687.4,355.2,675.5z"/>
											</g>
										</g>
									</g>
								</g>
								<g>
									<g>
										<g>
											<g>
												<g>
													<path fill="#EDD6CE" d="M343.2,689.6c0.7,0.4-0.6,5.7-0.6,5.7s4.4,3.1,4.4,3.8c0,0.6-5.6,1.2-5.6,1.2s-1.7,5.2-2.2,5.3
														c-0.5,0.1-2.9-5-2.9-5s-5.5,0.1-5.7-0.5c-0.2-0.6,3.9-4.3,3.9-4.3s-1.7-5-1.3-5.6c0.3-0.6,5.2,2.4,5.2,2.4
														S342.5,689.2,343.2,689.6z"/>
												</g>
											</g>
										</g>
									</g>
								</g>
							</g>
							<g>
								<g>
									<g>
										<g>
											<path fill="#C2A387" d="M293.4,628.3c0,41.8-16.4,72.3-72.7,72.3c-47.8,0-64.2-32.2-64.2-74c0-41.8,25.5-72.3,68.5-72.3
												C267.9,554.3,293.4,586.5,293.4,628.3z"/>
										</g>
									</g>
								</g>
							</g>
							<g>
								<g>
									<g>
										<g>
											<path fill="#EAC1C2" d="M257.8,643.1c0,24-7.9,41.5-34.9,41.5c-23,0-30.9-18.5-30.9-42.4c0-24,12.2-41.5,32.9-41.5
												C245.6,600.7,257.8,619.2,257.8,643.1z"/>
										</g>
									</g>
								</g>
							</g>
							<g>
								<g>
									<g>
										<g>
											<g>
												<path fill="#B79A80" d="M204.6,698.6c-18.6-20.1-20.9-44.6-24.7-66.7c-0.9-5.6-0.3-23.2-0.9-28.8c-0.8-7-0.5-4.7,0-11.7
													c0.3-3.5-0.5-1.2-5.5-1.5c-3.1-0.2-6.3,0.4-9.5,0.7c-4.9,10.4-7.6,22.6-7.6,36c0,36.9,12.8,66.3,48.6,72.7
													C204.9,699,204.8,698.8,204.6,698.6z"/>
											</g>
										</g>
									</g>
								</g>
								<g>
									<g>
										<g>
											<g>
												<path fill="#C2A387" d="M191.8,579.5c1.6-11.8-2.6-20-23.2-11.2c0,0-44.7,53.1-1.3,128c0,0,1.4,3,5.9,5.6
													c5,2.9,18.6-0.2,19.2-3.8c0.4-2.3-1.1-5.8-1.7-8c-1.4-5.5-3.2-10.8-4.8-16.2c-4-13.3-7.6-27.4-9.2-41.3
													c-1.6-13.8-1.5-31.9,6.8-43.8"/>
											</g>
										</g>
									</g>
								</g>
								<g>
									<g>
										<g>
											<g>
												<path fill="#C2A387" d="M157.1,589.6c-2.2,3.3-4.2,6.9-6.5,10.1c-2.2,3-4.7,5.5-5.5,9.3c-0.5,2.1-0.7,4.2,2,4.1
													c0.7,0-1.9,8.8-2.3,9.7c-0.8,2-1.7,4.1-1.8,6.3c-0.1,2.8,0.9,3,2.1,4.8c2,3,1.2,6.1,1,9.7c-0.2,3.6,0.1,9.6,5,7.1"/>
											</g>
										</g>
									</g>
								</g>
							</g>
							<g>
								<g>
									<g>
										<g>
											<g>
												<path fill="#B79A80" d="M245.5,697.9c18.6-20.1,20.9-44.6,24.7-66.7c0.9-5.6,0.3-23.2,0.9-28.8c0.8-7,0.5-4.7,0-11.7
													c-0.3-3.5,0.5-1.2,5.5-1.5c3.1-0.2,6.3,0.4,9.5,0.7c4.9,10.4,7.6,22.6,7.6,36c0,36.9-12.8,66.3-48.6,72.7
													C245.2,698.3,245.3,698.1,245.5,697.9z"/>
											</g>
										</g>
									</g>
								</g>
								<g>
									<g>
										<g>
											<g>
												<path fill="#C2A387" d="M293,588.9c2.2,3.3,4.2,6.9,6.5,10.1c2.2,3,4.7,5.5,5.5,9.3c0.5,2.1,0.7,4.2-2,4.1
													c-0.7,0,1.9,8.8,2.3,9.7c0.8,2,1.7,4.1,1.8,6.3c0.1,2.8-0.9,3-2.1,4.8c-2,3-1.2,6.1-1,9.7c0.2,3.6-0.1,9.6-5,7.1"/>
											</g>
										</g>
									</g>
								</g>
								<g>
									<g>
										<path fill="#DFC1CE" d="M232,685.2c-0.7,9.3-1.8,18.6,8.2,23.2c6,3.3,14.2,2.1,20.1,1.8c18.8-0.9,13.2-23.7,11.1-38.3
											c-2.2-15-3.3-23.9-6-39.2c-2-8.6-2.8-8.2-15-8.2c-10.1,0-12.2-1.8-13.7,9.2C236.7,633.7,233.3,663.3,232,685.2z"/>
									</g>
									<g>
										<path fill="#EFC7CF" d="M232,685.2c-0.7,9.3-1.8,18.6,8.2,23.2c6,3.3,14.2,2.1,20.1,1.8c18.8-0.9,13.2-23.7,11.1-38.3
											c-2.2-15-3.3-23.9-6-39.2c-2-8.6-2.8-8.2-15-8.2c-10.1,0-12.2-1.8-13.7,9.2C236.7,633.7,233.3,663.3,232,685.2z"/>
									</g>
									<g>
										<path fill="#ECAFC1" d="M244.8,706.6c-3.9-2.5-7.2-5.5-8.1-10.3c-1-5.6-0.5-11.4-0.5-17.1c0-7.2,0-14.4,0.2-21.7
											c0.2-6.4,0-13.3,1.3-19.6c0.8-3.7,5.2-2,7.9-1.6c6.7,1.1,13.5-0.1,20.1-1.7c-0.1-0.6-0.2-1.2-0.3-1.9
											c-2-8.6-2.8-8.2-15-8.2c-10.1,0-12.2-1.8-13.7,9.2c0,0-3.4,29.5-4.7,51.4c-0.7,9.3-1.8,18.6,8.2,23.2
											c3.8,2.1,8.5,2.4,12.9,2.2C250.1,709.5,247.3,708.1,244.8,706.6z"/>
									</g>
									<path fill="#DF7985" d="M236.8,632.9c0,0,13.3,3.3,28.6-0.2c0,0,1.1-0.3,0.8-2.7c-0.2-2-1.1-9.3-1.1-9.3s0.2-3.5-4.6-4
										c-2.9-0.3-5.3-0.5-9.5-0.5c-6,0-10.2,0.6-11.5,1c-1.3,0.4-2.7,0.9-3.2,3.8c-0.5,2.8-0.6,9.2-0.6,9.2
										S235.5,632.4,236.8,632.9z"/>
									<path fill="#E9A2AA" d="M265.2,620.8c0,0,0.2-3.5-4.6-4c-2.9-0.3-5.3-0.5-9.5-0.5c-6,0-10.2,0.6-11.5,1
										c-1.3,0.4-2.7,0.9-3.2,3.8c0,0.2,0.3,2.2,14.8,2.2C264.2,623.2,265.2,620.8,265.2,620.8z"/>
									<g>
										<path fill="#F5C695" d="M261.7,620.2c3.8-1.3-7.3-4-7.5-8.2c-0.1-2.3,0.7-5.7,0.5-7.9c-0.2-2.5-1.2-5.1-4.8-4.6
											c-1.5,0.2-3.6,1.2-3,6.4c0.4,3.2,1.2,6.5-1.6,8.8c-1.8,1.4-4.3,2.6-5.8,4.3c-0.4,0.5-0.9,1.1,0,1.5
											C239.6,620.4,251.1,623.9,261.7,620.2z"/>
									</g>
									<g>
										<path fill="#F3B275" d="M262,618.9c-0.6,0.7-1.3,1.3-2,1.9c0.5-0.2,1.1-0.3,1.6-0.5C262.7,619.9,262.6,619.4,262,618.9z"
											/>
									</g>
									<g>
										<path fill="#F3BF8E" d="M243.5,619.6c-0.3-1.2,1.3-2,2.3-2.8c3-2.5,4.3-5.1,3.4-8.1c-1-3.2-1.8-5.9-0.3-8.9
											c-1.3,0.5-2.5,2-2,6.1c0.4,3.2,1.2,6.5-1.6,8.8c-1.8,1.4-4.3,2.6-5.8,4.3c-0.4,0.5-0.9,1.1,0,1.5c0,0,4.5,1.4,10.5,1.5
											C249,621.4,243.8,620.8,243.5,619.6z"/>
									</g>
									<g>
										<g>
											<path fill="#F2AC70" d="M262.1,619c-0.1,0.1-0.3,0.2-0.6,0.3c-12.8,4.9-22,0.2-22,0.2c-0.1,0-0.2-0.1-0.3-0.1
												c-0.3,0.4-0.2,0.8,0.4,1c0,0,11.5,3.5,22-0.2C262.6,619.9,262.6,619.5,262.1,619z"/>
										</g>
									</g>
									<path fill="#F9E6C3" d="M253.9,602.3c0.3,1.2,0.1,2.2-0.6,2.4c-0.6,0.2-1.4-0.6-1.7-1.8c-0.3-1.2-0.1-2.2,0.6-2.4
										C252.8,600.3,253.6,601.1,253.9,602.3z"/>
									<g>
										<path fill="#EAE3EA" d="M263,646.5c-0.1,0-0.3,0-0.4,0c-4.9-0.2-1,17-0.5,19.2c0.7,3.7,1.2,7.5,2.1,11.2
											c0.3,1.2,2.6,6,4.6,2.8c1.3-2.1,0.1-8.9-0.7-14.7c-1-7.4-0.9-10.7-2.9-16C264.8,647.7,264.2,646.7,263,646.5z"/>
									</g>
									
										<line fill="none" stroke="#F4E1E4" stroke-width="13.4094" stroke-linecap="round" stroke-miterlimit="10" x1="237.4" y1="646.2" x2="241.8" y2="646.7"/>
									
										<line fill="none" stroke="#F4E1E4" stroke-width="13.4094" stroke-linecap="round" stroke-miterlimit="10" x1="235.9" y1="656.2" x2="240.3" y2="656.6"/>
									
										<line fill="none" stroke="#F4E1E4" stroke-width="13.4094" stroke-linecap="round" stroke-miterlimit="10" x1="235.2" y1="664.5" x2="239.7" y2="664.9"/>
									
										<line fill="none" stroke="#F4E1E4" stroke-width="13.4094" stroke-linecap="round" stroke-miterlimit="10" x1="234.5" y1="674.6" x2="239" y2="675"/>
									
										<line fill="none" stroke="#F4E1E4" stroke-width="13.4094" stroke-linecap="round" stroke-miterlimit="10" x1="233.8" y1="686.2" x2="238.3" y2="686.5"/>
								</g>
								<g>
									<g>
										<g>
											<g>
												<path fill="#C2A387" d="M258.3,578.8c-1.6-11.8,2.6-20,23.2-11.2c0,0,44.7,53.1,1.2,128c0,0-1.4,3-5.9,5.6
													c-5,2.9-18.6-0.2-19.2-3.8c-0.4-2.3,1.1-5.8,1.7-8c1.4-5.5,3.2-10.8,4.8-16.2c4-13.3,7.6-27.4,9.2-41.3
													c1.6-13.8,1.5-31.9-6.8-43.8"/>
											</g>
										</g>
									</g>
								</g>
							</g>
							<g>
								<g>
									<g>
										<g>
											<g>
												<path fill="#C2A387" d="M198.7,466c4.2-6.2,8.2-12.9,15.5-15.7c1.6-0.6,3.5-1.4,4.2,0.2c0.7,1.7-1.2,2.9-1.1,4.4
													c2.7,1.1,5.2-0.9,7.5-2c1.2-0.6,9.8-4.2,9.1-0.8c-0.1,0.8-1.9,3.3-1.4,4c1.9,2.4,5.5-0.9,7.9,0c3.2,1.2,0.6,3.1,0.1,5.2
													c-0.8,3.1,2.6,3.1,4.9,3.8"/>
											</g>
										</g>
									</g>
								</g>
								<g>
									<g>
										<g>
											<g>
												<path fill="#A98F78" d="M299.9,512.3c1.4,2.6,2.8,5.1,4,7.7c1.7,2.2,4.2,9.5,2.6,12.2c-1.7,2.7-4.3-1.6-6.6-1.6
													c-0.4,2,1.1,3.8,1.8,5.6c0.8,2.1,1.5,4.3,1.7,6.5c0.2,1.6,0.3,4.3-2.2,4.2c-1.5-0.1-2.7-2-4.4-2.1
													c-0.2,4.2,1.7,9.2-0.9,13.1c-3.6,5.2-3.4-4.4-7.6-4"/>
											</g>
										</g>
									</g>
								</g>
								<g>
									<g>
										<g>
											<g>
												<path fill="#A98F78" d="M148.6,511.8c-1.4,2.6-4,7.6-5.2,10.1c-1.7,2.2-4.2,9.5-2.6,12.2c1.7,2.7,4.3-1.6,6.6-1.6
													c0.4,2-1.1,3.8-1.8,5.6c-0.8,2.1-1.5,4.3-1.7,6.5c-0.2,1.6-0.3,4.3,2.2,4.2c1.5-0.1,2.7-2,4.4-2.1
													c0.2,4.2-1.7,9.2,0.9,13.1c3.6,5.2,3.4-4.4,7.6-4"/>
											</g>
										</g>
									</g>
								</g>
								<g>
									<g>
										<g>
											<g>
												<path fill="#A98F78" d="M301.1,520.5c0,34.2-19.7,61.9-76.9,61.9c-61.9,0-76.9-27.7-76.9-61.9
													c0-34.2,34.4-61.9,76.9-61.9C266.7,458.6,301.1,486.3,301.1,520.5z"/>
											</g>
										</g>
									</g>
								</g>
								<g>
									<g>
										<g>
											<g>
												<path fill="#C2A387" d="M296.8,520.5c0,32.3-18.2,62.5-72.2,62.5c-58.4,0-73-30.3-73-62.5c0-3.5-3-1.7-2.4-5.1
													c3-16.4,16.5-36.4,32.6-46c11.3-6.7,26.8-11.1,41.6-11.1c13.4,0,28.7,2.7,39.5,8.3C284.7,477.8,296.8,499,296.8,520.5z"
													/>
											</g>
										</g>
									</g>
								</g>
								<g>
									<g>
										<g>
											<g>
												<g>
													<g>
														<path fill="#C2A387" d="M164,449.9c-10.2,0-18.7,6.9-21.3,16.3c-0.8-0.1-1.3-0.9-2.2-0.6c-1.3,0.3-1.3,1.8-1.3,2.9
															c0.2,2.5,2.4,5.1,2,7.6c-1.5,0.1-3-0.5-2.5,1.4c0.3,1.3,2.1,2.2,2.5,3.3c1.2,0.8,2.4,1.5,3.6,2.3
															c0.1,0.1,0.1,0.2,0.2,0.3c-1.7,1.1-2.3,2.9-0.8,4.5c1.3,1.4,3.4,0.9,4.6,2c-0.9,0.9-1.2,2.1-0.1,3
															c1.5,1.2,5.3,0.4,7.9-0.2c2.3,0.8,4.8,1.3,7.3,1.3c12.2,0,22-9.9,22-22C186,459.7,176.1,449.9,164,449.9z"/>
													</g>
												</g>
											</g>
										</g>
										<g>
											<g>
												<g>
													<g>
														<path fill="#EAC1C2" d="M160.7,484.6c5.2-5.6,11.2-10.5,17.3-15.3c0.1-0.1,0.2-0.1,0.3-0.1
															c-1.3-6.1-6.6-10.6-13.1-10.6c-7.4,0-13.4,6-13.4,13.4C151.8,477.8,155.5,482.7,160.7,484.6z"/>
													</g>
												</g>
											</g>
										</g>
										<g>
											<g>
												<g>
													<g>
														<path fill="#E8B4BB" d="M157.6,468.1c0.7-4.8,3.5-7.8,7.3-9.4c-7.3,0.1-13.2,6-13.2,13.4c0,5.8,3.7,10.8,8.9,12.6
															c0.3-0.3,0.6-0.6,0.9-0.9C158.7,479,156.9,473.4,157.6,468.1z"/>
													</g>
												</g>
											</g>
										</g>
									</g>
									<g>
										<g>
											<g>
												<g>
													<path fill="#C2A387" d="M173.6,473.9c-0.4-0.6-0.7-2.2-1.6-2.1c-1.7,0.2-1.4,3.5-3.4,3.1c-0.7-0.2-1.4-0.6-2.2-0.1
														c-0.7,0.4-0.8,1.3-1,1.9c-0.2,0.6-0.1,1.8-0.8,2.1c-0.8,0.3-2-0.9-3-0.7c-1.1,0.2-1.9,2.2-1.9,3.2
														c0,1.5,0.9,2.7,1.1,4.2"/>
												</g>
											</g>
										</g>
									</g>
								</g>
								<g>
									<g>
										<g>
											<g>
												<g>
													<g>
														<path fill="#C2A387" d="M282.3,449.9c10.2,0,18.7,6.9,21.3,16.3c0.8-0.1,1.3-0.9,2.2-0.6c1.3,0.3,1.3,1.8,1.3,2.9
															c-0.2,2.5-2.4,5.1-2,7.6c1.5,0.1,3-0.5,2.5,1.4c-0.3,1.3-2.1,2.2-2.5,3.3c-1.2,0.8-2.4,1.5-3.6,2.3
															c-0.1,0.1-0.1,0.2-0.2,0.3c1.7,1.1,2.3,2.9,0.8,4.5c-1.3,1.4-3.4,0.9-4.6,2c0.9,0.9,1.2,2.1,0.1,3
															c-1.5,1.2-5.3,0.4-7.9-0.2c-2.3,0.8-4.8,1.3-7.3,1.3c-12.2,0-22-9.9-22-22C260.3,459.7,270.2,449.9,282.3,449.9z"/>
													</g>
												</g>
											</g>
										</g>
										<g>
											<g>
												<g>
													<g>
														<path fill="#EAC1C2" d="M285.6,484.6c-5.2-5.6-11.2-10.5-17.3-15.3c-0.1-0.1-0.2-0.1-0.3-0.1
															c1.3-6.1,6.6-10.6,13.1-10.6c7.4,0,13.4,6,13.4,13.4C294.5,477.8,290.8,482.7,285.6,484.6z"/>
													</g>
												</g>
											</g>
										</g>
										<g>
											<g>
												<g>
													<g>
														<path fill="#E8B4BB" d="M270.7,471.2c1.3-1.6,2.9-2.9,4.7-4c5.8-3.5,12.3-2.6,18.2,0.1c0.1,0,0.1,0.1,0.1,0.1
															c-1.9-5.1-6.8-8.8-12.6-8.8c-6.4,0-11.8,4.6-13.1,10.6c0.1,0,0.2,0,0.3,0.1C269.1,469.9,269.9,470.5,270.7,471.2z"/>
													</g>
												</g>
											</g>
										</g>
									</g>
									<g>
										<g>
											<g>
												<g>
													<path fill="#C2A387" d="M272.7,473.9c0.4-0.6,0.7-2.2,1.6-2.1c1.7,0.2,1.4,3.5,3.4,3.1c0.7-0.2,1.4-0.6,2.2-0.1
														c0.7,0.4,0.8,1.3,1,1.9c0.2,0.6,0.1,1.8,0.8,2.1c0.8,0.3,2-0.9,3-0.7c1.1,0.2,1.9,2.2,1.9,3.2c0,1.5-0.9,2.7-1.1,4.2"
														/>
												</g>
											</g>
										</g>
									</g>
								</g>
								<g>
									<g>
										<g>
											<g>
												<path fill="#C2A387" d="M295.1,509.1c1.1,2,4.6,7.9,5.6,10c1.3,1.7,3.4,7.6,2.1,9.8c-1.3,2.2-3.5-1.3-5.3-1.3
													c-0.3,1.6,0.9,3.1,1.4,4.5c0.6,1.7,1.2,3.4,1.4,5.2c0.1,1.3,0.2,3.4-1.7,3.4c-1.2,0-2.1-1.6-3.5-1.7
													c-0.2,3.4,1.4,7.4-0.7,10.5c-2.9,4.2-2.7-3.5-6-3.2"/>
											</g>
										</g>
									</g>
								</g>
								<g>
									<g>
										<g>
											<g>
												<path fill="#C2A387" d="M154.6,508.1c-1.2,2.2-5.9,9.2-6.9,11.4c-1.4,1.8-3.6,8.1-2.2,10.4c1.4,2.3,3.7-1.4,5.6-1.4
													c0.3,1.7-0.9,3.3-1.5,4.8c-0.7,1.8-1.3,3.6-1.5,5.5c-0.1,1.4-0.2,3.7,1.8,3.6c1.3,0,2.3-1.7,3.7-1.8
													c0.2,3.6-1.5,7.8,0.8,11.1c3.1,4.5,2.9-3.7,6.4-3.4"/>
											</g>
										</g>
									</g>
								</g>
								<g>
									<g>
										<g>
											<g>
												<g>
													<path fill="#B4967A" d="M208.7,461.7c-0.1,0-0.3,0-0.4-0.1c-0.3-0.2-0.4-0.6-0.2-1c1.4-2.2,3.3-4.3,4.3-5.3
														c0.3-0.3,0.7-0.3,1,0c0.3,0.3,0.3,0.7,0,1c-1,1-2.8,2.9-4.1,5C209.2,461.5,209,461.7,208.7,461.7z"/>
												</g>
											</g>
										</g>
									</g>
									<g>
										<g>
											<g>
												<g>
													<path fill="#B4967A" d="M221.9,462.6c-0.1,0-0.2,0-0.3-0.1c-0.3-0.2-0.5-0.6-0.3-1c1.6-3,4.2-5.3,7.6-6.9
														c0.4-0.2,0.8,0,0.9,0.3c0.2,0.4,0,0.8-0.3,0.9c-3.2,1.5-5.5,3.6-6.9,6.3C222.4,462.5,222.1,462.6,221.9,462.6z"/>
												</g>
											</g>
										</g>
									</g>
									<g>
										<g>
											<g>
												<g>
													<path fill="#B4967A" d="M231.3,465.4c-0.2,0-0.4-0.1-0.5-0.2c-0.3-0.3-0.3-0.7,0-1c1.7-1.7,3.6-3.1,5.5-4.5
														c0.3-0.2,0.8-0.2,1,0.1c0.2,0.3,0.2,0.8-0.1,1c-1.8,1.4-3.7,2.8-5.3,4.4C231.6,465.3,231.4,465.4,231.3,465.4z"/>
												</g>
											</g>
										</g>
									</g>
									<g>
										<g>
											<g>
												<g>
													<path fill="#B4967A" d="M223.3,479.5c-0.4,0-0.7-0.3-0.7-0.6c-0.2-3,0.4-5.7,2-8.6c0.2-0.3,0.6-0.5,1-0.3
														c0.3,0.2,0.5,0.6,0.3,1c-1.5,2.7-2,5.1-1.8,7.8C224,479.1,223.7,479.4,223.3,479.5
														C223.3,479.5,223.3,479.5,223.3,479.5z"/>
												</g>
											</g>
										</g>
									</g>
									<g>
										<g>
											<g>
												<g>
													<path fill="#B4967A" d="M214.1,473.2c-0.4,0-0.7-0.3-0.7-0.7c0-1.8,0.5-3.6,0.9-5.1c0.1-0.4,0.2-0.8,0.3-1.1
														c0.1-0.4,0.5-0.6,0.9-0.5c0.4,0.1,0.6,0.5,0.5,0.9c-0.1,0.4-0.2,0.8-0.3,1.1c-0.4,1.6-0.9,3.2-0.9,4.8
														C214.8,472.8,214.5,473.2,214.1,473.2z"/>
												</g>
											</g>
										</g>
									</g>
									<g>
										<g>
											<g>
												<g>
													<path fill="#B4967A" d="M216.5,485.3c-0.3,0-0.6-0.3-0.7-0.6c-0.2-1.6-0.5-3.3-0.7-5.2c0-0.4,0.2-0.7,0.6-0.8
														c0.4-0.1,0.7,0.2,0.8,0.6c0.2,1.9,0.5,3.5,0.7,5.1C217.2,484.9,217,485.3,216.5,485.3
														C216.5,485.3,216.5,485.3,216.5,485.3z"/>
												</g>
											</g>
										</g>
									</g>
									<g>
										<g>
											<g>
												<g>
													<path fill="#B4967A" d="M221.9,496.8c-0.4,0-0.7-0.3-0.7-0.7c0-0.8-0.1-1.5-0.1-2.3c-0.1-0.8-0.1-1.6-0.1-2.4
														c0-0.4,0.3-0.7,0.7-0.7c0.4,0,0.7,0.3,0.7,0.7c0,0.8,0.1,1.5,0.1,2.3c0.1,0.8,0.1,1.6,0.1,2.4
														C222.6,496.5,222.3,496.8,221.9,496.8z"/>
												</g>
											</g>
										</g>
									</g>
									<g>
										<g>
											<g>
												<g>
													<path fill="#B4967A" d="M225.4,502.2c-0.4,0-0.7-0.3-0.7-0.7c0-1,0-2,0.3-3c0.1-0.4,0.5-0.6,0.9-0.5
														c0.4,0.1,0.6,0.5,0.5,0.9c-0.2,0.9-0.2,1.7-0.2,2.6C226.1,501.9,225.8,502.2,225.4,502.2z"/>
												</g>
											</g>
										</g>
									</g>
									<g>
										<g>
											<g>
												<g>
													<path fill="#B4967A" d="M218.6,510.4c-0.4,0-0.7-0.3-0.7-0.7c0-1.4,0-2.9,0.2-4.3c0.1-0.4,0.4-0.6,0.8-0.6
														c0.4,0.1,0.6,0.4,0.6,0.8c-0.2,1.3-0.2,2.7-0.2,4.1C219.3,510.1,219,510.4,218.6,510.4z"/>
												</g>
											</g>
										</g>
									</g>
									<g>
										<g>
											<g>
												<g>
													<path fill="#B4967A" d="M215.8,501.3c-0.4,0-0.7-0.3-0.7-0.7c0-1.1-0.1-2.3-0.2-3.4c-0.1-1.2-0.2-2.4-0.2-3.6
														c0-0.4,0.3-0.7,0.7-0.7c0.4,0,0.7,0.3,0.7,0.7c0,1.1,0.1,2.3,0.2,3.4c0.1,1.2,0.2,2.4,0.2,3.6
														C216.5,501,216.2,501.3,215.8,501.3z"/>
												</g>
											</g>
										</g>
									</g>
									<g>
										<g>
											<g>
												<g>
													<path fill="#B4967A" d="M210.6,492.1c-0.4,0-0.7-0.3-0.7-0.6c-0.2-1.7-0.6-3.3-0.9-5l-0.2-1c-0.1-0.4,0.2-0.8,0.5-0.8
														c0.4-0.1,0.8,0.2,0.8,0.5l0.2,1c0.4,1.7,0.8,3.4,1,5.2C211.4,491.7,211.1,492.1,210.6,492.1
														C210.7,492.1,210.6,492.1,210.6,492.1z"/>
												</g>
											</g>
										</g>
									</g>
									<g>
										<g>
											<g>
												<g>
													<path fill="#B4967A" d="M206.6,479.5C206.6,479.5,206.6,479.5,206.6,479.5c-0.5-0.1-0.7-0.4-0.7-0.8
														c0.1-0.9,0.2-1.9,0.2-2.8c0.1-0.9,0.1-1.9,0.2-2.9c0-0.4,0.4-0.7,0.8-0.6c0.4,0,0.7,0.4,0.6,0.8
														c-0.1,0.9-0.2,1.9-0.2,2.8c-0.1,0.9-0.1,1.9-0.2,2.9C207.3,479.2,207,479.5,206.6,479.5z"/>
												</g>
											</g>
										</g>
									</g>
									<g>
										<g>
											<g>
												<g>
													<path fill="#B4967A" d="M229.4,481.6C229.3,481.6,229.3,481.6,229.4,481.6c-0.5-0.1-0.8-0.4-0.7-0.8
														c0.2-1.6,0.5-3.2,0.5-4.8c0-0.4,0.3-0.7,0.7-0.7c0.4,0,0.7,0.3,0.7,0.7c0,1.7-0.2,3.4-0.5,5
														C230,481.3,229.7,481.6,229.4,481.6z"/>
												</g>
											</g>
										</g>
									</g>
									<g>
										<g>
											<g>
												<g>
													<path fill="#B4967A" d="M227.7,492.1c-0.4,0-0.7-0.3-0.7-0.7c0-0.5,0.1-1,0.1-1.5c0.1-0.5,0.1-0.9,0.1-1.3
														c0-0.4,0.3-0.7,0.7-0.7c0.4,0,0.7,0.3,0.7,0.7c0,0.5-0.1,1-0.1,1.5c-0.1,0.5-0.1,0.9-0.1,1.3
														C228.4,491.8,228.1,492.1,227.7,492.1z"/>
												</g>
											</g>
										</g>
									</g>
									<g>
										<g>
											<g>
												<g>
													<path fill="#B4967A" d="M226.3,511.1c0,0-0.1,0-0.1,0c-0.4-0.1-0.6-0.4-0.6-0.8c0.2-1.2,0.6-2.6,1.2-4.1
														c0.1-0.4,0.6-0.5,0.9-0.4c0.4,0.1,0.5,0.6,0.4,0.9c-0.6,1.4-0.9,2.7-1.1,3.8C227,510.9,226.7,511.1,226.3,511.1z"/>
												</g>
											</g>
										</g>
									</g>
									<g>
										<g>
											<g>
												<g>
													<path fill="#B4967A" d="M233.8,472.9c-0.1,0-0.2,0-0.3-0.1c-0.4-0.1-0.5-0.6-0.4-0.9c0.2-0.5,0.4-1.2,0.6-1.8
														c0.2-0.7,0.4-1.3,0.6-2c0.1-0.4,0.6-0.5,0.9-0.4c0.4,0.1,0.5,0.6,0.4,0.9c-0.2,0.6-0.4,1.2-0.6,1.8
														c-0.2,0.7-0.4,1.3-0.6,2C234.4,472.7,234.1,472.9,233.8,472.9z"/>
												</g>
											</g>
										</g>
									</g>
									<g>
										<g>
											<g>
												<g>
													<path fill="#B4967A" d="M232.9,491.4c0,0-0.1,0-0.1,0c-0.4-0.1-0.7-0.4-0.6-0.8c0.1-0.8,0.3-1.7,0.5-2.6
														c0.2-0.9,0.3-1.7,0.5-2.5c0.1-0.4,0.4-0.6,0.8-0.6c0.4,0.1,0.7,0.4,0.6,0.8c-0.1,0.8-0.3,1.7-0.5,2.6
														c-0.2,0.9-0.3,1.7-0.5,2.5C233.5,491.2,233.2,491.4,232.9,491.4z"/>
												</g>
											</g>
										</g>
									</g>
									<g>
										<g>
											<g>
												<g>
													<path fill="#B4967A" d="M230.3,504.8C230.3,504.8,230.2,504.8,230.3,504.8c-0.5-0.1-0.8-0.4-0.7-0.8
														c0.2-1.4,0.6-2.6,0.9-3.9c0.1-0.3,0.2-0.6,0.3-0.9c0.1-0.4,0.5-0.6,0.9-0.5c0.4,0.1,0.6,0.5,0.5,0.9
														c-0.1,0.3-0.2,0.6-0.3,0.9c-0.4,1.2-0.7,2.4-0.9,3.7C231,504.5,230.7,504.8,230.3,504.8z"/>
												</g>
											</g>
										</g>
									</g>
									<g>
										<g>
											<g>
												<g>
													<path fill="#B4967A" d="M201.7,472.2c-0.4,0-0.7-0.3-0.7-0.7c0-2,0.2-3.7,0.4-5.6l0.1-0.6c0-0.4,0.4-0.7,0.8-0.6
														c0.4,0,0.7,0.4,0.6,0.8l-0.1,0.6c-0.2,1.8-0.4,3.6-0.4,5.4C202.4,471.9,202.1,472.2,201.7,472.2z"/>
												</g>
											</g>
										</g>
									</g>
								</g>
								<g>
									<g>
										<g>
											<g>
												<g>
													<path fill="#B4967A" d="M149.9,526.1c-0.1,0-0.1,0-0.2,0c-0.4-0.1-0.6-0.5-0.5-0.9c0.8-2.9,2.4-5.4,3.9-7.5
														c0.2-0.3,0.7-0.4,1-0.2c0.3,0.2,0.4,0.7,0.2,1c-1.4,2-2.9,4.4-3.6,7C150.5,525.9,150.2,526.1,149.9,526.1z"/>
												</g>
											</g>
										</g>
									</g>
									<g>
										<g>
											<g>
												<g>
													<path fill="#B4967A" d="M152.2,540.2C152.2,540.2,152.2,540.2,152.2,540.2c-0.4,0-0.7-0.4-0.7-0.8
														c0.2-3.1,1.2-6,2.1-8.8c0.1-0.4,0.5-0.6,0.9-0.4c0.4,0.1,0.6,0.5,0.4,0.9c-0.9,2.7-1.8,5.5-2.1,8.5
														C152.9,539.9,152.6,540.2,152.2,540.2z"/>
												</g>
											</g>
										</g>
									</g>
									<g>
										<g>
											<g>
												<g>
													<path fill="#B4967A" d="M157.2,548.9C157.1,548.9,157.1,548.9,157.2,548.9c-0.5,0-0.7-0.4-0.7-0.8
														c0.2-2.1,0.5-4.2,0.7-6.6c0-0.4,0.4-0.7,0.8-0.6c0.4,0,0.7,0.4,0.6,0.8c-0.2,2.3-0.5,4.5-0.7,6.6
														C157.8,548.6,157.5,548.9,157.2,548.9z"/>
												</g>
											</g>
										</g>
									</g>
									<g>
										<g>
											<g>
												<g>
													<path fill="#B4967A" d="M158.6,532.2c-0.1,0-0.1,0-0.2,0c-0.4-0.1-0.6-0.5-0.4-0.9c0.4-1.2,0.6-2.6,0.8-3.8l0.1-0.5
														c0.1-0.4,0.4-0.6,0.8-0.6c0.4,0.1,0.6,0.4,0.6,0.8l-0.1,0.5c-0.2,1.3-0.4,2.7-0.9,4C159.1,532,158.9,532.2,158.6,532.2
														z"/>
												</g>
											</g>
										</g>
									</g>
									<g>
										<g>
											<g>
												<g>
													<path fill="#B4967A" d="M156.9,521.7c-0.1,0-0.1,0-0.2,0c-0.4-0.1-0.6-0.5-0.5-0.9l0.7-2.8c0.1-0.4,0.5-0.6,0.9-0.5
														c0.4,0.1,0.6,0.5,0.5,0.9l-0.7,2.8C157.5,521.5,157.2,521.7,156.9,521.7z"/>
												</g>
											</g>
										</g>
									</g>
									<g>
										<g>
											<g>
												<g>
													<path fill="#B4967A" d="M155.1,511.8c-0.1,0-0.1,0-0.2,0c-0.4-0.1-0.6-0.5-0.5-0.8c0.5-2.1,1.2-4.3,1.9-6.4
														c0.1-0.4,0.5-0.6,0.9-0.4c0.4,0.1,0.6,0.5,0.4,0.9c-0.7,2.1-1.4,4.2-1.9,6.3C155.7,511.6,155.4,511.8,155.1,511.8z"/>
												</g>
											</g>
										</g>
									</g>
									<g>
										<g>
											<g>
												<g>
													<path fill="#B4967A" d="M163.3,553.1c-0.3,0-0.6-0.2-0.7-0.6c-0.5-3-0.2-6.2,0-8.8c0-0.4,0.4-0.7,0.8-0.6
														c0.4,0,0.7,0.4,0.6,0.8c-0.2,2.5-0.5,5.7,0,8.5c0.1,0.4-0.2,0.7-0.6,0.8C163.3,553.1,163.3,553.1,163.3,553.1z"/>
												</g>
											</g>
										</g>
									</g>
									<g>
										<g>
											<g>
												<g>
													<path fill="#B4967A" d="M168.2,564.3c-0.3,0-0.5-0.1-0.6-0.4c-0.5-0.9-0.9-1.6-1.6-2.5c-0.2-0.3-0.2-0.8,0.1-1
														c0.3-0.2,0.8-0.2,1,0.1c0.7,0.9,1.2,1.7,1.7,2.7c0.2,0.3,0,0.8-0.3,0.9C168.4,564.3,168.3,564.3,168.2,564.3z"/>
												</g>
											</g>
										</g>
									</g>
								</g>
								<g>
									<g>
										<g>
											<g>
												<g>
													<path fill="#B4967A" d="M299.2,523.6c-0.3,0-0.6-0.2-0.7-0.5c-0.7-2.7-2.3-5.1-3.6-7c-0.2-0.3-0.1-0.8,0.2-1
														c0.3-0.2,0.8-0.1,1,0.2c1.5,2.1,3.1,4.6,3.9,7.5c0.1,0.4-0.1,0.8-0.5,0.9C299.4,523.5,299.3,523.6,299.2,523.6z"/>
												</g>
											</g>
										</g>
									</g>
									<g>
										<g>
											<g>
												<g>
													<path fill="#B4967A" d="M296.9,537.6c-0.4,0-0.7-0.3-0.7-0.6c-0.2-3-1.2-5.8-2.1-8.5c-0.1-0.4,0.1-0.8,0.4-0.9
														c0.4-0.1,0.8,0.1,0.9,0.4c0.9,2.8,1.9,5.7,2.1,8.8C297.6,537.3,297.3,537.6,296.9,537.6
														C296.9,537.6,296.9,537.6,296.9,537.6z"/>
												</g>
											</g>
										</g>
									</g>
									<g>
										<g>
											<g>
												<g>
													<path fill="#B4967A" d="M292,546.3c-0.4,0-0.7-0.3-0.7-0.6c-0.2-2.1-0.5-4.2-0.7-6.6c0-0.4,0.2-0.7,0.6-0.8
														c0.4,0,0.7,0.2,0.8,0.6c0.2,2.3,0.5,4.5,0.7,6.6C292.7,545.9,292.4,546.2,292,546.3C292,546.3,292,546.3,292,546.3z"/>
												</g>
											</g>
										</g>
									</g>
									<g>
										<g>
											<g>
												<g>
													<path fill="#B4967A" d="M290.6,529.7c-0.3,0-0.6-0.2-0.7-0.5c-0.4-1.3-0.7-2.7-0.9-4l-0.1-0.5
														c-0.1-0.4,0.2-0.7,0.6-0.8c0.4-0.1,0.7,0.2,0.8,0.6l0.1,0.5c0.2,1.2,0.4,2.6,0.8,3.8c0.1,0.4-0.1,0.8-0.4,0.9
														C290.7,529.6,290.6,529.7,290.6,529.7z"/>
												</g>
											</g>
										</g>
									</g>
									<g>
										<g>
											<g>
												<g>
													<path fill="#B4967A" d="M292.2,519.1c-0.3,0-0.6-0.2-0.7-0.5l-0.7-2.8c-0.1-0.4,0.1-0.8,0.5-0.9
														c0.4-0.1,0.8,0.1,0.9,0.5l0.7,2.8c0.1,0.4-0.1,0.8-0.5,0.9C292.3,519.1,292.3,519.1,292.2,519.1z"/>
												</g>
											</g>
										</g>
									</g>
									<g>
										<g>
											<g>
												<g>
													<path fill="#B4967A" d="M294.1,509.3c-0.3,0-0.6-0.2-0.7-0.6c-0.5-2.1-1.2-4.2-1.9-6.3c-0.1-0.4,0.1-0.8,0.4-0.9
														c0.4-0.1,0.8,0.1,0.9,0.4c0.7,2.1,1.4,4.3,1.9,6.4c0.1,0.4-0.2,0.8-0.5,0.8C294.2,509.2,294.1,509.3,294.1,509.3z"/>
												</g>
											</g>
										</g>
									</g>
									<g>
										<g>
											<g>
												<g>
													<path fill="#B4967A" d="M285.9,550.5c0,0-0.1,0-0.1,0c-0.4-0.1-0.6-0.4-0.6-0.8c0.5-2.8,0.2-6,0-8.5
														c0-0.4,0.3-0.7,0.6-0.8c0.4,0,0.7,0.3,0.8,0.6c0.2,2.6,0.5,5.9,0,8.8C286.5,550.3,286.2,550.5,285.9,550.5z"/>
												</g>
											</g>
										</g>
									</g>
									<g>
										<g>
											<g>
												<g>
													<path fill="#B4967A" d="M281,561.8c-0.1,0-0.2,0-0.3-0.1c-0.3-0.2-0.5-0.6-0.3-0.9c0.5-1,1-1.8,1.7-2.7
														c0.2-0.3,0.7-0.4,1-0.1c0.3,0.2,0.4,0.7,0.1,1c-0.6,0.9-1.1,1.5-1.6,2.5C281.5,561.6,281.2,561.8,281,561.8z"/>
												</g>
											</g>
										</g>
									</g>
								</g>
								<g>
									<g>
										<g>
											<g>
												<path fill="#E2CDB2" d="M225.9,496c-28.9-4.7-38.6,39.9-28.5,61.1c6.9,14.4,34.6,13.2,44.1,5.9c9-6.9,9-21.4,7.9-32.2
													c-1.6-15.9-6.1-26-16.5-32.3C230.7,497.2,228.3,496.4,225.9,496z"/>
											</g>
										</g>
									</g>
								</g>
								<g>
									<g>
										<g>
											<g>
												<g>
													<path fill="#625A4D" d="M215.3,527.1c-1,5.3,1.5,10.3,7.2,10.7c5.6,0.4,8.9-5.8,7.1-10.7c-0.5-1.4-2.8-0.8-2.3,0.6
														c1.4,3.7-0.7,7.7-4.8,7.7c-4.2,0-5.6-4.3-5-7.8C217.8,526.3,215.5,525.6,215.3,527.1L215.3,527.1z"/>
												</g>
											</g>
										</g>
									</g>
								</g>
								<g>
									<g>
										<g>
											<g>
												<path fill="#EAC1C2" d="M275.4,512.9c0,2.9-5.4,5.3-12.1,5.3c-6.7,0-12.1-2.4-12.1-5.3c0-2.9,5.4-5.3,12.1-5.3
													C270,507.6,275.4,510,275.4,512.9z"/>
											</g>
										</g>
									</g>
								</g>
								<g>
									<g>
										<g>
											<g>
												<path fill="#EAC1C2" d="M195.2,512.4c0,2.9-5.4,5.3-12.1,5.3c-6.7,0-12.1-2.4-12.1-5.3c0-2.9,5.4-5.3,12.1-5.3
													C189.8,507.1,195.2,509.5,195.2,512.4z"/>
											</g>
										</g>
									</g>
								</g>
								<g>
									<g>
										<g>
											<g>
												<path fill="#423C32" d="M234,507.4c-0.1,1.3-0.4,2.5-1,3.6c-2.1,3.9-6.4,7.6-11.1,7.6c-6.6,0-11.7-7.5-11.7-11.3
													c0-3.8,3.5-8.9,11.5-4.8c1.3,0.6,3.3-2.3,8-1.4C232.9,501.7,234.1,504.5,234,507.4z"/>
											</g>
										</g>
									</g>
								</g>
								<g>
									<g>
										<g>
											<g>
												<path fill="#EFF3EF" d="M232.8,505c-0.3,1-1.8,1.3-3.4,0.9c-1.6-0.5-2.7-1.6-2.4-2.6c0.3-1,1.8-1.3,3.4-0.9
													C232,502.9,233.1,504.1,232.8,505z"/>
											</g>
										</g>
									</g>
								</g>
								<g>
									<path fill="#625A4D" d="M200.9,498c0,5.2-3.4,9.4-7.6,9.4c-4.2,0-7.6-4.2-7.6-9.4c0-5.2,3.4-9.4,7.6-9.4
										C197.5,488.6,200.9,492.8,200.9,498z"/>
									<path fill="#FFFFFF" d="M201.2,497.6c0,1.8-1.5,3.3-3.3,3.3c-1.8,0-3.3-1.5-3.3-3.3c0-1.8,1.5-3.3,3.3-3.3
										C199.7,494.4,201.2,495.8,201.2,497.6z"/>
									<path fill="#FFFFFF" d="M194.5,493.4c0,0.9-0.7,1.6-1.6,1.6c-0.9,0-1.6-0.7-1.6-1.6c0-0.9,0.7-1.6,1.6-1.6
										C193.8,491.9,194.5,492.6,194.5,493.4z"/>
								</g>
								<g>
									<path fill="#625A4D" d="M258.1,498c0,5.2-3.4,9.4-7.6,9.4c-4.2,0-7.6-4.2-7.6-9.4c0-5.2,3.4-9.4,7.6-9.4
										C254.7,488.6,258.1,492.8,258.1,498z"/>
									<path fill="#FFFFFF" d="M258.4,497.6c0,1.8-1.5,3.3-3.3,3.3c-1.8,0-3.3-1.5-3.3-3.3c0-1.8,1.5-3.3,3.3-3.3
										C256.9,494.4,258.4,495.8,258.4,497.6z"/>
									<path fill="#FFFFFF" d="M251.7,493.4c0,0.9-0.7,1.6-1.6,1.6s-1.6-0.7-1.6-1.6c0-0.9,0.7-1.6,1.6-1.6
										S251.7,492.6,251.7,493.4z"/>
								</g>
							</g>
							<g>
								<g>
									<g>
										<g>
											<g>
												<path fill="#B4967A" d="M287.8,586.2c-0.3,0-0.5-0.1-0.6-0.4c-0.4-0.7-0.7-1.5-1-2.2c-0.8-1.8-1.6-3.4-2.7-4.9
													c-0.2-0.3-0.2-0.8,0.2-1c0.3-0.2,0.8-0.2,1,0.2c1.1,1.6,1.9,3.3,2.8,5.1c0.3,0.7,0.7,1.4,1,2.1c0.2,0.3,0,0.8-0.3,0.9
													C288,586.2,287.9,586.2,287.8,586.2z"/>
											</g>
										</g>
									</g>
								</g>
								<g>
									<g>
										<g>
											<g>
												<path fill="#B4967A" d="M293.4,600.6c-0.3,0-0.6-0.2-0.7-0.5c-0.2-0.5-0.3-0.9-0.3-1.3c-0.1-0.4-0.1-0.7-0.3-1.2
													c-0.1-0.4,0.1-0.8,0.4-0.9c0.4-0.1,0.8,0.1,0.9,0.4c0.2,0.5,0.3,0.9,0.3,1.3c0.1,0.4,0.1,0.7,0.3,1.2
													c0.1,0.4-0.1,0.8-0.4,0.9C293.5,600.6,293.5,600.6,293.4,600.6z"/>
											</g>
										</g>
									</g>
								</g>
								<g>
									<g>
										<g>
											<g>
												<path fill="#B4967A" d="M301.2,611.2c-0.3,0-0.6-0.2-0.7-0.5c-0.3-1-0.6-1.9-0.8-2.9c-0.2-0.9-0.5-1.8-0.8-2.8
													c-0.1-0.4,0.1-0.8,0.4-0.9c0.4-0.1,0.8,0.1,0.9,0.4c0.3,1,0.6,1.9,0.8,2.9c0.2,0.9,0.5,1.8,0.8,2.8
													c0.1,0.4-0.1,0.8-0.4,0.9C301.3,611.2,301.3,611.2,301.2,611.2z"/>
											</g>
										</g>
									</g>
								</g>
								<g>
									<g>
										<g>
											<g>
												<path fill="#B4967A" d="M298.2,619.1c-0.4,0-0.7-0.3-0.7-0.6c-0.2-1.7-0.5-3.4-0.8-5.1l1.4-0.3l-0.7,0.1l0.7-0.1
													c0.2,1.2,0.4,2.3,0.6,3.5c0.1,0.1,0.2,0.3,0.2,0.5v1.3C298.9,618.7,298.6,619,298.2,619.1
													C298.2,619.1,298.2,619.1,298.2,619.1z"/>
											</g>
										</g>
									</g>
								</g>
								<g>
									<g>
										<g>
											<g>
												<path fill="#B4967A" d="M302.4,628.4c-0.4,0-0.7-0.3-0.7-0.7c0-2-0.2-3.9-0.8-6.4c-0.1-0.4,0.2-0.8,0.5-0.8
													c0.4-0.1,0.8,0.2,0.8,0.5c0.4,1.8,0.8,4.1,0.8,6.7C303.1,628.1,302.8,628.4,302.4,628.4z"/>
											</g>
										</g>
									</g>
								</g>
								<g>
									<g>
										<g>
											<g>
												<path fill="#B4967A" d="M298.5,640.8c0,0-0.1,0-0.1,0c-0.4-0.1-0.6-0.4-0.6-0.8c0.3-2,0.5-3.9,0.5-5.8
													c0-0.4,0.3-0.7,0.7-0.7c0.4,0,0.7,0.3,0.7,0.7c0,2-0.2,3.9-0.5,6C299.2,640.5,298.9,640.8,298.5,640.8z"/>
											</g>
										</g>
									</g>
								</g>
								<g>
									<g>
										<g>
											<g>
												<path fill="#B4967A" d="M299.6,648c-0.1,0-0.2,0-0.2,0c-0.4-0.1-0.5-0.5-0.4-0.9c0.5-1.2,0.9-2.4,1.1-3.6
													c0-0.4,0.4-0.7,0.8-0.6c0.4,0,0.7,0.4,0.6,0.8c-0.2,1.3-0.7,2.6-1.1,3.9C300.2,647.8,299.9,648,299.6,648z"/>
											</g>
										</g>
									</g>
								</g>
								<g>
									<g>
										<g>
											<g>
												<path fill="#B4967A" d="M295.3,655.8c-0.1,0-0.1,0-0.2,0c-0.4-0.1-0.6-0.5-0.5-0.9c0.3-1.1,0.6-2.5,0.8-4
													c0-0.4,0.4-0.7,0.8-0.6c0.4,0,0.7,0.4,0.6,0.8c-0.2,1.5-0.5,3-0.8,4.2C295.9,655.6,295.6,655.8,295.3,655.8z"/>
											</g>
										</g>
									</g>
								</g>
								<g>
									<g>
										<g>
											<g>
												<path fill="#B4967A" d="M293.4,610c-0.3,0-0.5-0.2-0.7-0.4l-1.9-4.7c-0.1-0.4,0-0.8,0.4-0.9c0.4-0.1,0.8,0,0.9,0.4
													l1.9,4.7c0.1,0.4,0,0.8-0.4,0.9C293.6,610,293.5,610,293.4,610z"/>
											</g>
										</g>
									</g>
								</g>
								<g>
									<g>
										<g>
											<g>
												<path fill="#B4967A" d="M286.5,596.2c-0.3,0-0.6-0.2-0.7-0.5c-0.5-1.9-1.5-3.8-3.2-6c-0.2-0.3-0.2-0.8,0.1-1
													c0.3-0.2,0.8-0.2,1,0.1c1.8,2.4,2.8,4.4,3.4,6.5c0.1,0.4-0.1,0.8-0.5,0.9C286.6,596.2,286.6,596.2,286.5,596.2z"/>
											</g>
										</g>
									</g>
								</g>
								<g>
									<g>
										<g>
											<g>
												<path fill="#B4967A" d="M279,582.3c-0.3,0-0.5-0.2-0.7-0.4c-0.5-1.2-1.4-2.3-2.4-3.3c-0.2-0.2-0.3-0.4-0.5-0.6
													c-0.3-0.3-0.2-0.7,0.1-1c0.3-0.3,0.7-0.2,1,0.1c0.2,0.2,0.3,0.4,0.5,0.5c1,1.1,2,2.3,2.6,3.7c0.1,0.4,0,0.8-0.4,0.9
													C279.2,582.3,279.1,582.3,279,582.3z"/>
											</g>
										</g>
									</g>
								</g>
								<g>
									<g>
										<g>
											<g>
												<path fill="#B4967A" d="M293.8,595.1c-0.3,0-0.6-0.2-0.7-0.5c-0.5-1.4-1-2.6-1.7-3.8c-0.2-0.3,0-0.8,0.3-0.9
													c0.3-0.2,0.8,0,0.9,0.3c0.6,1.3,1.3,2.5,1.8,4c0.1,0.4-0.1,0.8-0.4,0.9C294,595.1,293.9,595.1,293.8,595.1z"/>
											</g>
										</g>
									</g>
								</g>
								<g>
									<g>
										<g>
											<g>
												<path fill="#B4967A" d="M297.3,631.6c-0.4,0-0.7-0.3-0.7-0.7c0-1.8-0.2-3.7-0.3-5.6c0-0.4,0.3-0.7,0.6-0.8
													c0.4,0,0.7,0.3,0.8,0.6c0.2,1.9,0.3,3.8,0.3,5.7C298,631.2,297.7,631.6,297.3,631.6z"/>
											</g>
										</g>
									</g>
								</g>
							</g>
							<g>
								<g>
									<g>
										<g>
											<g>
												<path fill="#B4967A" d="M161.6,588.4c-0.1,0-0.2,0-0.3-0.1c-0.3-0.2-0.5-0.6-0.3-0.9c0.4-0.7,0.7-1.4,1-2.1
													c0.8-1.8,1.6-3.5,2.8-5.1c0.2-0.3,0.7-0.4,1-0.2c0.3,0.2,0.4,0.7,0.2,1c-1.1,1.5-1.8,3.2-2.7,4.9
													c-0.3,0.7-0.7,1.4-1,2.2C162.1,588.3,161.9,588.4,161.6,588.4z"/>
											</g>
										</g>
									</g>
								</g>
								<g>
									<g>
										<g>
											<g>
												<path fill="#B4967A" d="M156,602.8c-0.1,0-0.2,0-0.2,0c-0.4-0.1-0.6-0.5-0.4-0.9c0.1-0.4,0.2-0.8,0.3-1.2
													c0.1-0.4,0.2-0.8,0.3-1.3c0.1-0.4,0.5-0.6,0.9-0.4c0.4,0.1,0.6,0.5,0.4,0.9c-0.1,0.4-0.2,0.8-0.3,1.2
													c-0.1,0.4-0.2,0.8-0.3,1.3C156.6,602.6,156.3,602.8,156,602.8z"/>
											</g>
										</g>
									</g>
								</g>
								<g>
									<g>
										<g>
											<g>
												<path fill="#B4967A" d="M148.2,613.4c-0.1,0-0.1,0-0.2,0c-0.4-0.1-0.6-0.5-0.4-0.9c0.3-0.9,0.5-1.9,0.8-2.8
													c0.2-0.9,0.5-1.9,0.8-2.9c0.1-0.4,0.5-0.6,0.9-0.4c0.4,0.1,0.6,0.5,0.4,0.9c-0.3,0.9-0.5,1.9-0.8,2.8
													c-0.2,0.9-0.5,1.9-0.8,2.9C148.7,613.2,148.5,613.4,148.2,613.4z"/>
											</g>
										</g>
									</g>
								</g>
								<g>
									<g>
										<g>
											<g>
												<path fill="#B4967A" d="M151.1,621.2C151.1,621.2,151.1,621.2,151.1,621.2c-0.4,0-0.7-0.3-0.7-0.7v-1.2
													c0-0.2,0.1-0.4,0.2-0.5c0.2-1.2,0.4-2.4,0.6-3.5c0.1-0.4,0.4-0.6,0.8-0.6c0.4,0.1,0.6,0.4,0.6,0.8v0
													c-0.3,1.7-0.6,3.4-0.8,5.1C151.8,621,151.5,621.2,151.1,621.2z"/>
											</g>
										</g>
									</g>
								</g>
								<g>
									<g>
										<g>
											<g>
												<path fill="#B4967A" d="M146.9,630.6c-0.4,0-0.7-0.3-0.7-0.7c0-2.6,0.4-4.9,0.8-6.7c0.1-0.4,0.5-0.6,0.8-0.5
													c0.4,0.1,0.6,0.5,0.5,0.8c-0.5,2.5-0.8,4.4-0.8,6.4C147.6,630.3,147.3,630.6,146.9,630.6z"/>
											</g>
										</g>
									</g>
								</g>
								<g>
									<g>
										<g>
											<g>
												<path fill="#B4967A" d="M150.8,643c-0.3,0-0.6-0.2-0.7-0.6c-0.3-2.1-0.5-4-0.5-6c0-0.4,0.3-0.7,0.7-0.7
													c0.4,0,0.7,0.3,0.7,0.7c0,1.9,0.1,3.8,0.5,5.8c0.1,0.4-0.2,0.7-0.6,0.8C150.9,643,150.9,643,150.8,643z"/>
											</g>
										</g>
									</g>
								</g>
								<g>
									<g>
										<g>
											<g>
												<path fill="#B4967A" d="M149.1,649.7c-0.5-1.3-1-2.6-1.1-3.9c0-0.4,0.2-0.7,0.6-0.8c0.4,0,0.7,0.2,0.8,0.6
													c0.1,1.2,0.6,2.3,1.1,3.6L149.1,649.7z"/>
											</g>
										</g>
									</g>
								</g>
								<g>
									<g>
										<g>
											<g>
												<path fill="#B4967A" d="M154.1,658c-0.3,0-0.6-0.2-0.7-0.5c-0.3-1.1-0.6-2.6-0.8-4.2c0-0.4,0.2-0.7,0.6-0.8
													c0.4,0,0.7,0.2,0.8,0.6c0.2,1.5,0.5,2.9,0.8,4c0.1,0.4-0.1,0.8-0.5,0.9C154.2,658,154.2,658,154.1,658z"/>
											</g>
										</g>
									</g>
								</g>
								<g>
									<g>
										<g>
											<g>
												<path fill="#B4967A" d="M156,612.2c-0.1,0-0.2,0-0.3-0.1c-0.4-0.1-0.5-0.6-0.4-0.9l1.9-4.7c0.1-0.4,0.6-0.5,0.9-0.4
													c0.4,0.1,0.5,0.6,0.4,0.9l-1.9,4.7C156.5,612,156.3,612.2,156,612.2z"/>
											</g>
										</g>
									</g>
								</g>
								<g>
									<g>
										<g>
											<g>
												<path fill="#B4967A" d="M162.9,598.4c-0.1,0-0.1,0-0.2,0c-0.4-0.1-0.6-0.5-0.5-0.9c0.6-2.1,1.6-4.1,3.4-6.5
													c0.2-0.3,0.7-0.4,1-0.1c0.3,0.2,0.4,0.7,0.1,1c-1.7,2.2-2.7,4.1-3.2,6C163.5,598.2,163.2,598.4,162.9,598.4z"/>
											</g>
										</g>
									</g>
								</g>
								<g>
									<g>
										<g>
											<g>
												<path fill="#B4967A" d="M170.4,584.5c-0.1,0-0.2,0-0.3-0.1c-0.4-0.1-0.5-0.6-0.4-0.9c0.6-1.4,1.6-2.6,2.6-3.7
													c0.2-0.2,0.3-0.4,0.5-0.5c0.3-0.3,0.7-0.3,1-0.1c0.3,0.3,0.3,0.7,0.1,1c-0.2,0.2-0.3,0.4-0.5,0.6
													c-0.9,1-1.9,2.1-2.4,3.3C170.9,584.3,170.7,584.5,170.4,584.5z"/>
											</g>
										</g>
									</g>
								</g>
								<g>
									<g>
										<g>
											<g>
												<path fill="#B4967A" d="M155.5,597.3c-0.1,0-0.1,0-0.2,0c-0.4-0.1-0.6-0.5-0.4-0.9c0.5-1.5,1.1-2.7,1.8-4
													c0.2-0.3,0.6-0.5,0.9-0.3c0.3,0.2,0.5,0.6,0.3,0.9l0,0c-0.6,1.3-1.2,2.5-1.7,3.8C156.1,597.1,155.8,597.3,155.5,597.3z"
													/>
											</g>
										</g>
									</g>
								</g>
								<g>
									<g>
										<g>
											<g>
												<path fill="#B4967A" d="M152.1,633.7c-0.4,0-0.7-0.3-0.7-0.7c0-1.9,0.2-3.8,0.3-5.7c0-0.4,0.4-0.7,0.8-0.6
													c0.4,0,0.7,0.4,0.6,0.8c-0.2,1.8-0.3,3.7-0.3,5.6C152.8,633.4,152.5,633.7,152.1,633.7z"/>
											</g>
										</g>
									</g>
								</g>
							</g>
						</g>
						<g>
							<path fill="#F8BF90" d="M253.1,437.2l-2.3-1.2c-4.5,11.6-8.8,8.5-8.8,8.5c-4.7-1.5-1.3-12.4-1.3-12.4l-3.5-0.8
								c-1.4,15.8-8.6,11.6-8.6,11.6c-4.9-2.9-5.7-18.8-5.8-22.6h-2.9c-0.1,3.8-0.9,19.7-5.8,22.6c0,0-7.2,4.1-8.6-11.6L202,432
								c0,0,3.4,11-1.3,12.4c0,0-4.2,3.1-8.8-8.5l-2.3,1.2c0,0,4.5,10.9,3.9,27.2l27,0.2v0l0.8,0l0.8,0v0l27-0.2
								C248.6,448.1,253.1,437.2,253.1,437.2z"/>
							<path fill="#F6AF80" d="M249.2,460.9c-9.2,2.7-18.8,4.1-28.1,2.2c-14-2.8-25.9-11.9-31.1-25.3c-0.1-0.3-0.1-0.5,0-0.7
								l-0.3,0.2c0,0,4.5,10.9,3.9,27.2l27,0.2v0l0.8,0l0.8,0v0l27-0.2C249.2,463.1,249.2,462,249.2,460.9z"/>
							<g>
								<path fill="#FBCC96" d="M194.9,436.5c0,2.1-1.7,3.8-3.8,3.8s-3.8-1.7-3.8-3.8c0-2.1,1.7-3.8,3.8-3.8
									S194.9,434.3,194.9,436.5z"/>
								<path fill="#FDEEEC" d="M193.2,434.7c0,0.5-0.5,1-1.1,1c-0.6,0-1.1-0.4-1.1-1c0-0.5,0.5-1,1.1-1
									C192.7,433.7,193.2,434.2,193.2,434.7z"/>
							</g>
							<g>
								<path fill="#FBCC96" d="M207.1,431.3c0,2.1-1.7,3.8-3.8,3.8c-2.1,0-3.8-1.7-3.8-3.8c0-2.1,1.7-3.8,3.8-3.8
									C205.4,427.5,207.1,429.2,207.1,431.3z"/>
								<path fill="#FDEEEC" d="M205.5,429.5c0,0.5-0.5,1-1.1,1c-0.6,0-1.1-0.4-1.1-1c0-0.5,0.5-1,1.1-1
									C205,428.6,205.5,429,205.5,429.5z"/>
							</g>
							<g>
								<path fill="#FBCC96" d="M243.2,431.5c0,2.1-1.7,3.8-3.8,3.8s-3.8-1.7-3.8-3.8c0-2.1,1.7-3.8,3.8-3.8
									S243.2,429.4,243.2,431.5z"/>
								<ellipse fill="#FDEEEC" cx="240.5" cy="429.7" rx="1.1" ry="1"/>
							</g>
							<g>
								<path fill="#FBCC96" d="M256,436.5c0,2.1-1.7,3.8-3.8,3.8c-2.1,0-3.8-1.7-3.8-3.8c0-2.1,1.7-3.8,3.8-3.8
									C254.3,432.6,256,434.4,256,436.5z"/>
								<path fill="#FDEEEC" d="M254.4,434.7c0,0.5-0.5,1-1.1,1c-0.6,0-1.1-0.4-1.1-1c0-0.5,0.5-1,1.1-1
									C253.9,433.7,254.4,434.2,254.4,434.7z"/>
							</g>
							<g>
								<path fill="#FBCC96" d="M225.2,419.7c0,2.1-1.7,3.8-3.8,3.8c-2.1,0-3.8-1.7-3.8-3.8c0-2.1,1.7-3.8,3.8-3.8
									C223.4,415.9,225.2,417.6,225.2,419.7z"/>
								<path fill="#FDEEEC" d="M223.5,417.9c0,0.5-0.5,1-1.1,1c-0.6,0-1.1-0.4-1.1-1c0-0.5,0.5-1,1.1-1
									C223,416.9,223.5,417.4,223.5,417.9z"/>
							</g>
							<path fill="#FCDCBC" d="M248.7,448c0,0-1,3.2-1.2,12.9c0,0-1.9,3.3-2.3-0.6c-0.4-3.9-0.8-8,2.4-13.5
								C250.7,441.2,248.7,448,248.7,448z"/>
						</g>
					</g>
				</g>
				<g>
					<g>
						<path fill="#F0F0F0" d="M981.4,1483.4c0-17.5,13-32.3,31-37.6c-0.3-2.2-0.5-4.5-0.5-6.8c0-26.5,21.5-48,48-48
							c6.7,0,13,1.4,18.8,3.8c8-18.6,28.5-31.9,52.6-31.9c19.6,0,36.9,8.8,46.9,22.2c5.8-2.2,12-3.5,18.6-3.5
							c25.8,0,47.2,19,50.9,43.7c2.1-0.3,4.2-0.4,6.4-0.4c25.2,0,45.6,17.8,45.6,39.8c0,16.2-11.1,30.1-27.1,36.3
							c0.1,1,0.1,1.9,0.1,2.9c0,23.6-19.1,42.7-42.7,42.7c-8.7,0-16.8-2.6-23.5-7.1c-9,16.6-28.3,28.1-50.8,28.1
							c-18,0-34-7.4-44.2-18.9c-9.4,10.8-23.3,17.7-38.8,17.7c-25.7,0-47.1-18.9-50.9-43.6C999.1,1520.6,981.4,1503.8,981.4,1483.4z
							"/>
						<path fill="#EEF7FB" d="M987.9,1493.6c0-17.5,13-32.3,31-37.6c-0.3-2.2-0.5-4.5-0.5-6.8c0-26.5,21.5-48,48-48
							c6.7,0,13,1.4,18.8,3.8c8-18.6,28.5-31.9,52.6-31.9c19.6,0,36.9,8.8,46.9,22.2c5.8-2.2,12-3.5,18.6-3.5
							c25.8,0,47.2,19,50.9,43.7c2.1-0.3,4.2-0.4,6.4-0.4c25.2,0,45.6,17.8,45.6,39.8c0,16.2-11.1,30.1-27.1,36.3
							c0.1,1,0.1,1.9,0.1,2.9c0,23.6-19.1,42.7-42.7,42.7c-8.7,0-16.8-2.6-23.5-7.1c-9,16.6-28.3,28.1-50.8,28.1
							c-18,0-33.9-7.4-44.2-18.9c-9.4,10.8-23.3,17.7-38.8,17.7c-25.7,0-47.1-18.9-50.9-43.6C1005.5,1530.8,987.9,1514,987.9,1493.6
							z"/>
					</g>
					<g>
						<g>
							<path fill="#EFC7CF" d="M1099.9,1381.3c5.7-17.6,28.5-56.9,34.4-79.2c0.7-2.5,0.2-4.1-1-6.5l-100.9-32.8
								c-0.9,1.8-1.2,3.4-1.2,3.4c-11.4,35.2-20.8,58-36.1,91.9c-13.4,28-34.7,53.5-9.2,81.2c18.3,16.8,42.6,15,81,26.4
								c39.4,11.7,102.3,54,122.4-7.7C1204,1413.1,1163.7,1397.8,1099.9,1381.3z"/>
						</g>
						<g>
							<path fill="#ECAFC1" d="M1013.4,1453.1c11.6-33.9,13.2-69.4-18.9-93.7c-13.5,27.5-33.6,52.6-8.5,79.9
								C993.8,1446.5,1002.7,1450.2,1013.4,1453.1z"/>
						</g>
						<g>
							<path fill="#ECAFC1" d="M1180.9,1414.6c-31.8,9.7-49.5,40.6-53,73c26.2,6.8,50.4,4.6,61.6-29.7
								C1195.6,1439,1191.9,1425.4,1180.9,1414.6z"/>
						</g>
						<g>
							<g>
								<path fill="#FBE6F1" d="M1086.1,1388.7c-0.4-0.1-0.7-0.4-0.9-0.7c-0.2-0.4-0.2-0.8-0.1-1.2c0.4-1.3,0.9-2.7,1.6-4.4
									c0.3-0.8,1.2-1.2,2-0.9c0.8,0.3,1.2,1.2,0.9,2c-0.4,1-0.7,1.9-1,2.7l2.9,0.7c0.8,0.2,1.3,1,1.1,1.9c-0.2,0.8-1,1.3-1.9,1.1
									L1086.1,1388.7C1086.2,1388.8,1086.2,1388.7,1086.1,1388.7z"/>
							</g>
							<g>
								<path fill="#FBE6F1" d="M1017.9,1444.5C1017.8,1444.4,1017.8,1444.4,1017.9,1444.5l-0.6-0.2c-0.8-0.3-1.2-1.2-1-2
									c0.3-0.8,1.1-1.2,2-1l0.5,0.2c2.4,0.7,5.1,1.5,8.2,2.3c0.9,0.1,1.3,1,1.1,1.9c-0.2,0.8-1,1.3-1.9,1.1
									C1023,1446,1020.3,1445.3,1017.9,1444.5z M1044,1450.6c-0.7-0.2-1.2-1-1-1.8c0.2-0.8,1-1.4,1.8-1.2c2.9,0.6,5.9,1.2,9,1.9
									c0.8,0.2,1.3,1,1.2,1.8c-0.2,0.8-1,1.4-1.8,1.2c-3.1-0.7-6.1-1.3-8.9-1.9C1044.1,1450.6,1044,1450.6,1044,1450.6z
									 M1122.2,1476c-0.8-0.3-1.2-1.1-1-1.9c0.2-0.8,1.1-1.3,1.9-1.1c3.1,0.8,6,1.5,8.8,2c0.8,0.2,1.4,1,1.2,1.8
									c-0.2,0.8-1,1.4-1.8,1.2C1128.5,1477.6,1125.4,1476.9,1122.2,1476C1122.2,1476,1122.2,1476,1122.2,1476z M1104.8,1470.1
									C1104.8,1470.1,1104.8,1470.1,1104.8,1470.1c-2.9-1.1-5.8-2.2-8.6-3.4c-0.8-0.3-1.2-1.2-0.9-2c0.3-0.8,1.2-1.2,2-0.9
									c2.8,1.1,5.6,2.2,8.5,3.3c0.8,0.3,1.2,1.2,0.9,2C1106.5,1470,1105.6,1470.4,1104.8,1470.1z M1001.1,1435.9
									c-0.2-0.1-0.3-0.1-0.5-0.3c-0.9-0.7-1.8-1.5-2.7-2.3c-1.5-1.6-2.7-3.1-3.8-4.6c-0.5-0.7-0.4-1.7,0.3-2.2
									c0.7-0.5,1.6-0.4,2.2,0.3c1,1.4,2.2,2.9,3.5,4.3c0.7,0.7,1.6,1.4,2.4,2.1c0.7,0.5,0.8,1.5,0.3,2.2
									C1002.4,1435.9,1001.7,1436.1,1001.1,1435.9z M1079.3,1460.1C1079.3,1460.1,1079.2,1460.1,1079.3,1460.1
									c-3-1.1-5.9-2.1-8.6-2.9c-0.7-0.2-1.3-1.1-1-1.9c0.2-0.8,1.1-1.3,1.9-1c2.8,0.9,5.7,1.9,8.8,3c0.8,0.3,1.2,1.2,0.9,2
									C1080.9,1459.9,1080.1,1460.3,1079.3,1460.1z M1149.3,1478.8c-0.5-0.2-1-0.6-1-1.2c-0.1-0.8,0.5-1.6,1.3-1.7
									c3-0.4,5.8-1.2,8.4-2.4c0.8-0.3,1.7,0,2,0.8c0.3,0.8,0,1.7-0.8,2c-2.8,1.2-5.9,2.1-9.2,2.6
									C1149.8,1478.9,1149.5,1478.8,1149.3,1478.8z M988,1412.5c-0.6-0.2-1-0.7-1.1-1.3c-0.3-3.1-0.2-6.2,0.3-9.5
									c0.1-0.8,0.9-1.4,1.8-1.3c0.8,0.1,1.4,0.9,1.3,1.8c-0.5,3.1-0.6,5.9-0.3,8.7c0.1,0.8-0.5,1.6-1.4,1.7
									C988.5,1412.6,988.2,1412.6,988,1412.5z M1171.8,1464.6c-0.1,0-0.3-0.1-0.4-0.2c-0.7-0.5-0.9-1.4-0.4-2.1
									c1.6-2.3,3-4.9,4.3-7.7c0.3-0.8,1.2-1.1,2-0.8c0.8,0.3,1.1,1.3,0.8,2c-1.3,3-2.9,5.8-4.5,8.2
									C1173.2,1464.6,1172.5,1464.8,1171.8,1464.6z M994.1,1386.1c-0.1,0-0.1,0-0.2-0.1c-0.8-0.4-1.1-1.3-0.7-2
									c1.1-2.4,2.4-4.9,4.1-8.3c0.4-0.8,1.3-1.1,2.1-0.7c0.8,0.4,1,1.3,0.6,2.1c-1.7,3.3-3,5.8-4.1,8.1
									C995.6,1386,994.8,1386.3,994.1,1386.1z M1180.8,1439c-0.6-0.2-1.1-0.8-1.1-1.5c0.1-3-0.3-5.9-1.2-8.5
									c-0.3-0.8,0.2-1.7,1-1.9c0.8-0.3,1.7,0.2,2,1c1,3,1.5,6.2,1.4,9.5c0,0.8-0.7,1.5-1.6,1.5
									C1181,1439.1,1180.9,1439.1,1180.8,1439z M1168.4,1415.9c-0.2,0-0.3-0.1-0.4-0.2c-2.2-1.6-4.7-3.2-7.6-4.7
									c-0.8-0.4-1.1-1.3-0.7-2.1c0.4-0.8,1.3-1.1,2.1-0.7c3,1.6,5.7,3.2,8,4.9c0.7,0.5,0.8,1.5,0.3,2.2
									C1169.7,1415.9,1169,1416.1,1168.4,1415.9z M1006.6,1361.7c-0.1,0-0.1,0-0.2-0.1c-0.8-0.4-1.1-1.3-0.8-2
									c1.3-2.9,2.5-5.6,3.7-8.3c0.4-0.8,1.3-1.1,2-0.8c0.8,0.3,1.1,1.3,0.8,2c-1.2,2.7-2.5,5.5-3.8,8.4
									C1008.1,1361.5,1007.3,1361.9,1006.6,1361.7z M1108.4,1394.3c-0.8-0.2-1.2-1-1-1.8c0.2-0.8,1-1.3,1.9-1.1
									c3,0.8,6,1.5,8.9,2.2c0.8,0.2,1.3,1,1.1,1.9c-0.2,0.8-1.1,1.3-1.9,1.1c-2.9-0.7-5.9-1.5-8.9-2.2
									C1108.5,1394.3,1108.4,1394.3,1108.4,1394.3z M1134.9,1401.3c-0.8-0.3-1.2-1.1-1-1.9c0.2-0.8,1.1-1.3,1.9-1
									c2.2,0.7,4.4,1.3,6.5,2l2.3,0.8c0.8,0.3,1.2,1.1,1,2c-0.3,0.8-1.2,1.1-2,1l-2.3-0.8
									C1139.3,1402.7,1137.2,1402,1134.9,1401.3C1135,1401.3,1135,1401.3,1134.9,1401.3z M1094.7,1367.2c0,0-0.1,0-0.1,0
									c-0.8-0.3-1.1-1.2-0.8-2c1.2-2.7,2.4-5.5,3.6-8.4c0.3-0.8,1.2-1.1,2-0.8c0.8,0.3,1.1,1.2,0.8,2c-1.3,2.9-2.5,5.7-3.6,8.4
									C1096.3,1367.1,1095.4,1367.4,1094.7,1367.2z M1017.6,1336.5c0,0-0.1,0-0.1,0c-0.8-0.3-1.2-1.2-0.8-2
									c1.2-2.8,2.4-5.6,3.5-8.4c0.3-0.8,1.2-1.2,2-0.8c0.8,0.3,1.2,1.2,0.8,2c-1.1,2.8-2.3,5.6-3.5,8.5
									C1019.2,1336.4,1018.4,1336.8,1017.6,1336.5z M1105.6,1342c0,0-0.1,0-0.1-0.1c-0.8-0.3-1.1-1.2-0.8-2l3.7-8.4
									c0.3-0.8,1.3-1.1,2-0.8c0.8,0.3,1.1,1.2,0.8,2l-3.7,8.4C1107.2,1341.8,1106.4,1342.2,1105.6,1342z M1027.8,1311.1
									C1027.8,1311,1027.8,1311,1027.8,1311.1c-0.9-0.3-1.3-1.2-1-2c1.1-2.8,2.1-5.7,3.1-8.6c0.3-0.8,1.1-1.2,2-0.9
									c0.8,0.3,1.2,1.2,0.9,2c-1.1,2.9-2.1,5.8-3.2,8.6C1029.5,1310.9,1028.6,1311.3,1027.8,1311.1z M1116.7,1316.8
									c0,0-0.1,0-0.1,0c-0.8-0.3-1.1-1.2-0.8-2c1.3-3.1,2.5-5.9,3.6-8.4c0.3-0.8,1.2-1.2,2-0.8c0.8,0.3,1.2,1.2,0.8,2
									c-1.1,2.5-2.3,5.4-3.6,8.4C1118.2,1316.7,1117.4,1317,1116.7,1316.8z M1036.9,1285.2L1036.9,1285.2c-0.8-0.3-1.3-1.1-1-2
									l1.6-4.8c0,0,0.1-0.7,0.4-1.5c0.3-1,0.7-1.8,1.2-2.6c0.5-0.7,1.4-0.9,2.1-0.5c0.7,0.5,0.9,1.4,0.5,2.1
									c-0.4,0.6-0.7,1.2-0.9,1.9c-0.2,0.6-0.3,1.1-0.3,1.2l-1.7,5.2C1038.6,1285,1037.8,1285.4,1036.9,1285.2z M1057.1,1274.6
									c-0.7-0.2-1.2-0.9-1.1-1.7c0.1-0.8,0.9-1.4,1.7-1.3c2.7,0.4,5.8,0.8,9.1,1.3c0.8,0.1,1.4,0.9,1.3,1.8
									c-0.1,0.8-0.9,1.4-1.8,1.3c-3.3-0.5-6.4-1-9-1.3C1057.3,1274.6,1057.2,1274.6,1057.1,1274.6z M1118.2,1292.2
									c-0.2-0.1-0.3-0.1-0.5-0.3c-1.9-1.5-4.4-3-7.5-4.5c-0.8-0.4-1.1-1.3-0.7-2c0.4-0.8,1.3-1.1,2-0.7c3.3,1.6,6.1,3.2,8.2,4.9
									c0.7,0.5,0.8,1.5,0.2,2.2C1119.4,1292.2,1118.8,1292.4,1118.2,1292.2z M1084.1,1279.3c-0.7-0.2-1.2-1-1-1.8
									c0.2-0.8,1-1.4,1.8-1.2c3,0.7,6,1.4,9,2.2c0.8,0.2,1.3,1.1,1.1,1.9c-0.2,0.8-1.1,1.3-1.9,1.1c-2.9-0.8-5.9-1.5-8.8-2.2
									C1084.2,1279.3,1084.2,1279.3,1084.1,1279.3z"/>
							</g>
						</g>
						<path fill="#E999B4" d="M1043.2,1274.3c33.9,9.5,58.6,15.2,90.4,30.8c0.7-2.5,1.8-7,2.2-9.8c0-0.2,0-0.4-0.1-0.6
							c1.2-3.8-0.8-7.8-4.6-9.1c-2.5-0.8-5.1-0.2-6.9,1.4c-0.2-0.1-0.4-0.2-0.5-0.2c0.1-3.1-1.8-6-4.9-7c-2.8-0.9-5.7,0-7.6,2
							c0-3.1-1.9-5.9-4.9-6.9c-2.8-0.9-5.8,0-7.7,2.1c-0.1-3-2-5.7-4.9-6.7c-2.8-0.9-5.7,0-7.5,2c-0.1-2.9-2-5.6-4.9-6.6
							c-3-1-6.1,0.1-8,2.5c-0.4-2.6-2.2-4.9-4.9-5.8c-3.3-1.1-6.9,0.4-8.5,3.4c0-3-1.9-5.9-4.9-6.9c-3.2-1-6.6,0.3-8.3,3
							c-0.4-2.6-2.2-5-4.9-5.8c-3.6-1.2-7.5,0.7-8.9,4.2c-0.1,0-0.2-0.1-0.2-0.1c-1,3.2-2.3,7.5-3.6,12.1
							C1029.6,1271.2,1041.6,1273.8,1043.2,1274.3z"/>
						<g>
							<path fill="none" stroke="#FBE6F1" stroke-width="2.2349" stroke-linecap="round" stroke-miterlimit="10" d="M1005.5,1387.5
								c3.2,9.7,3.2,19.5,1.4,28.2"/>
							<path fill="none" stroke="#FBE6F1" stroke-width="2.2349" stroke-linecap="round" stroke-miterlimit="10" d="M1015.8,1387.1
								c3.2,9.7,3.2,19.6,1.4,28.2"/>
							<path fill="none" stroke="#FBE6F1" stroke-width="2.2349" stroke-linecap="round" stroke-miterlimit="10" d="M997.8,1396.5
								c9.9,0.2,20-0.1,29.7-2.3"/>
							<path fill="none" stroke="#FBE6F1" stroke-width="2.2349" stroke-linecap="round" stroke-miterlimit="10" d="M998.1,1406.2
								c9.9,0.8,20.3,0.3,29.9-2.4"/>
						</g>
					</g>
					<g>
						<path fill="#F0F0F0" d="M803.6,1519.5c0-17.3,12.8-32,30.7-37.3c-0.3-2.2-0.5-4.5-0.5-6.8c0-26.3,21.3-47.5,47.5-47.5
							c6.6,0,12.9,1.4,18.6,3.8c7.9-18.5,28.3-31.6,52.1-31.6c19.5,0,36.6,8.7,46.5,22c5.7-2.2,11.9-3.4,18.4-3.4
							c25.6,0,46.7,18.8,50.4,43.3c2.1-0.3,4.2-0.4,6.4-0.4c25,0,45.2,17.6,45.2,39.4c0,16.1-11,29.8-26.8,36
							c0.1,0.9,0.1,1.9,0.1,2.9c0,23.4-18.9,42.3-42.3,42.3c-8.6,0-16.6-2.6-23.3-7c-8.9,16.5-28.1,27.9-50.3,27.9
							c-17.8,0-33.6-7.3-43.8-18.7c-9.4,10.8-23.1,17.6-38.5,17.6c-25.5,0-46.6-18.7-50.4-43.2
							C821.1,1556.4,803.6,1539.8,803.6,1519.5z"/>
						<path fill="#EEF7FB" d="M810,1529.6c0-17.3,12.8-32,30.7-37.3c-0.3-2.2-0.5-4.5-0.5-6.8c0-26.3,21.3-47.5,47.5-47.5
							c6.6,0,12.9,1.3,18.6,3.8c7.9-18.5,28.3-31.6,52.1-31.6c19.5,0,36.6,8.8,46.5,22c5.7-2.2,11.9-3.4,18.4-3.4
							c25.6,0,46.7,18.8,50.4,43.3c2.1-0.3,4.2-0.4,6.4-0.4c25,0,45.2,17.7,45.2,39.4c0,16-11,29.8-26.8,36c0.1,0.9,0.1,1.9,0.1,2.9
							c0,23.4-18.9,42.3-42.3,42.3c-8.6,0-16.6-2.6-23.3-7c-8.9,16.5-28.1,27.9-50.3,27.9c-17.8,0-33.6-7.3-43.8-18.7
							c-9.4,10.7-23.1,17.6-38.5,17.6c-25.5,0-46.6-18.7-50.4-43.2C827.5,1566.5,810,1549.9,810,1529.6z"/>
					</g>
					<g>
						<path fill="#F0F0F0" d="M-32.1,1533.3c0-19.8,14.7-36.6,35-42.6c-0.4-2.5-0.6-5.1-0.6-7.7c0-30,24.3-54.3,54.3-54.3
							c7.5,0,14.7,1.5,21.2,4.3c9-21.1,32.3-36.1,59.5-36.1c22.2,0,41.8,10,53.1,25.1c6.5-2.5,13.6-3.9,21-3.9
							c29.2,0,53.4,21.5,57.6,49.5c2.4-0.3,4.8-0.5,7.3-0.5c28.5,0,51.7,20.2,51.7,45c0,18.3-12.6,34.1-30.6,41.1
							c0.1,1.1,0.2,2.2,0.2,3.3c0,26.7-21.6,48.3-48.3,48.3c-9.8,0-19-3-26.6-8c-10.2,18.8-32.1,31.8-57.5,31.8
							c-20.3,0-38.4-8.4-50.1-21.4c-10.7,12.3-26.4,20-44,20c-29.1,0-53.3-21.4-57.6-49.3C-12.1,1575.4-32.1,1556.4-32.1,1533.3z"/>
						<path fill="#EEF7FB" d="M-24.8,1544.8c0-19.8,14.7-36.6,35-42.6c-0.4-2.5-0.6-5.1-0.6-7.7c0-30,24.3-54.3,54.3-54.3
							c7.5,0,14.7,1.5,21.2,4.3c9-21.1,32.3-36.1,59.5-36.1c22.2,0,41.8,10,53.1,25.1c6.5-2.5,13.6-3.9,21-3.9
							c29.2,0,53.4,21.5,57.6,49.5c2.4-0.3,4.8-0.5,7.3-0.5c28.5,0,51.7,20.2,51.7,45c0,18.3-12.6,34.1-30.6,41.1
							c0.1,1.1,0.2,2.2,0.2,3.3c0,26.7-21.6,48.3-48.3,48.3c-9.8,0-19-3-26.6-8c-10.2,18.8-32.1,31.8-57.5,31.8
							c-20.3,0-38.4-8.4-50.1-21.4c-10.7,12.3-26.4,20-44,20c-29.1,0-53.3-21.4-57.6-49.3C-4.8,1586.9-24.8,1567.9-24.8,1544.8z"/>
					</g>
				</g>
				
					<rect x="201" y="746" fill="none" stroke="#F4E1E4" stroke-width="13.4094" stroke-linecap="round" stroke-miterlimit="10" width="792" height="297.4"/>
			</g>
			<g>
				<g>
					<g>
						<path fill="#F9F9F9" d="M992.4,1728.2c0.8,1,1.1,2.3,1.1,3.9v7.5c0,0.2-0.1,0.4-0.2,0.6c-0.2,0.2-0.3,0.2-0.6,0.2
							c-0.2,0-0.4-0.1-0.6-0.2c-0.2-0.2-0.2-0.3-0.2-0.6v-7.4c0-1.2-0.3-2.1-0.8-2.9c-0.6-0.7-1.4-1.1-2.6-1.1
							c-0.7,0-1.5,0.2-2.1,0.5c-0.7,0.4-1.2,0.8-1.6,1.4c-0.4,0.6-0.6,1.3-0.6,2v7.4c0,0.2-0.1,0.4-0.2,0.6
							c-0.2,0.2-0.3,0.2-0.6,0.2s-0.4-0.1-0.6-0.2s-0.2-0.3-0.2-0.6v-7.5c0-1.2-0.3-2.1-0.8-2.8s-1.4-1.1-2.5-1.1
							c-0.7,0-1.4,0.2-2.1,0.5c-0.7,0.4-1.2,0.8-1.6,1.4c-0.4,0.6-0.6,1.2-0.6,1.9v7.5c0,0.2-0.1,0.4-0.2,0.6
							c-0.2,0.2-0.3,0.2-0.6,0.2s-0.4-0.1-0.6-0.2s-0.2-0.3-0.2-0.6v-11.9c0-0.2,0.1-0.4,0.2-0.6s0.3-0.2,0.6-0.2s0.4,0.1,0.6,0.2
							c0.2,0.2,0.2,0.3,0.2,0.6v1.5c0.5-0.7,1.1-1.3,2-1.8c0.8-0.5,1.7-0.7,2.6-0.7c1,0,1.9,0.2,2.7,0.7s1.3,1.2,1.6,2.2
							c0.4-0.8,1.1-1.5,2.1-2c1-0.6,2-0.9,3-0.9C990.5,1726.7,991.7,1727.2,992.4,1728.2z"/>
						<path fill="#F9F9F9" d="M1009,1733.4c-0.2,0.2-0.3,0.2-0.6,0.2h-10.1c0,1.1,0.2,2,0.7,2.9c0.4,0.8,1.1,1.5,1.9,2
							c0.8,0.5,1.8,0.7,2.9,0.7c0.9,0,1.6-0.2,2.3-0.5c0.7-0.4,1.2-0.8,1.6-1.4c0.2-0.2,0.4-0.2,0.6-0.2c0.2,0,0.3,0.1,0.5,0.2
							s0.2,0.3,0.2,0.5c0,0.2-0.1,0.4-0.3,0.6c-0.6,0.7-1.3,1.3-2.1,1.7c-0.9,0.4-1.8,0.7-2.7,0.7c-1.4,0-2.6-0.3-3.6-0.9
							s-1.9-1.4-2.5-2.5c-0.6-1.1-0.9-2.3-0.9-3.6c0-1.5,0.3-2.7,0.9-3.8c0.6-1.1,1.3-1.9,2.3-2.5s2-0.9,3.1-0.9
							c1.1,0,2.1,0.2,3,0.7c0.9,0.5,1.7,1.2,2.3,2.2c0.6,1,0.9,2.1,0.9,3.4C1009.3,1733,1009.2,1733.2,1009,1733.4z M1000.2,1729.1
							c-0.9,0.7-1.4,1.7-1.7,3.1h9.1v-0.2c-0.1-0.8-0.4-1.5-0.8-2.1c-0.4-0.6-1-1-1.7-1.4c-0.7-0.3-1.4-0.5-2.1-0.5
							C1002.1,1728,1001.1,1728.4,1000.2,1729.1z"/>
						<path fill="#F9F9F9" d="M1022.1,1726.6c0.9,0.5,1.4,1.1,1.4,1.9c0,0.4-0.1,0.7-0.3,1s-0.5,0.4-0.9,0.4c-0.3,0-0.5,0-0.7-0.1
							c-0.2-0.1-0.4-0.2-0.5-0.3c-0.2-0.1-0.3-0.2-0.5-0.3c-0.2-0.1-0.4-0.2-0.8-0.2c-0.3-0.1-0.6-0.1-0.8-0.1
							c-1.3,0-2.4,0.4-3.1,1.2s-1.1,1.9-1.1,3.2c0,1.3,0.4,2.3,1.1,3.2c0.8,0.8,1.7,1.3,2.9,1.3c0.9,0,1.5-0.1,1.9-0.3
							c0.1-0.1,0.3-0.1,0.4-0.3c0.2-0.1,0.4-0.2,0.5-0.3c0.2-0.1,0.4-0.1,0.6-0.1c0.4,0,0.8,0.1,1.1,0.4c0.3,0.3,0.4,0.6,0.4,1.1
							c0,0.4-0.2,0.8-0.7,1.2c-0.5,0.4-1.2,0.7-2,0.9c-0.8,0.2-1.7,0.3-2.6,0.3c-1.4,0-2.6-0.3-3.6-1c-1-0.6-1.8-1.5-2.4-2.6
							c-0.6-1.1-0.9-2.4-0.9-3.8c0-1.4,0.3-2.7,0.9-3.8c0.6-1.1,1.4-2,2.5-2.6c1.1-0.6,2.3-0.9,3.6-0.9
							C1020,1725.9,1021.2,1726.2,1022.1,1726.6z"/>
						<path fill="#F9F9F9" d="M1038.8,1737.1c-0.6,1.1-1.5,2-2.6,2.6s-2.3,0.9-3.7,0.9c-1.4,0-2.6-0.3-3.7-0.9
							c-1.1-0.6-2-1.5-2.6-2.6c-0.6-1.1-1-2.4-1-3.8c0-1.4,0.3-2.7,1-3.8c0.6-1.1,1.5-2,2.6-2.6c1.1-0.6,2.3-0.9,3.7-0.9
							c1.3,0,2.6,0.3,3.7,0.9c1.1,0.6,2,1.5,2.6,2.6c0.6,1.1,1,2.4,1,3.8C1039.7,1734.7,1039.4,1736,1038.8,1737.1z M1036,1731
							c-0.4-0.7-0.9-1.2-1.5-1.6c-0.6-0.4-1.3-0.6-2-0.6s-1.4,0.2-2,0.6c-0.6,0.4-1.1,0.9-1.5,1.6c-0.4,0.7-0.5,1.5-0.5,2.3
							c0,0.9,0.2,1.6,0.5,2.3s0.9,1.2,1.5,1.6c0.6,0.4,1.3,0.6,2,0.6s1.4-0.2,2-0.6c0.6-0.4,1.1-0.9,1.5-1.6s0.5-1.4,0.5-2.3
							C1036.5,1732.4,1036.3,1731.7,1036,1731z"/>
						<path fill="#F9F9F9" d="M1053.8,1727.5c0.7,1.1,1,2.6,1,4.4v6.8c0,0.5-0.2,0.8-0.5,1.2c-0.3,0.3-0.7,0.5-1.1,0.5
							s-0.8-0.2-1.1-0.5c-0.3-0.3-0.5-0.7-0.5-1.2v-6.8c0-1-0.2-1.7-0.6-2.3c-0.4-0.6-1.1-0.8-2.1-0.8c-1,0-1.8,0.3-2.4,0.9
							s-0.9,1.3-0.9,2.2v6.8c0,0.5-0.2,0.8-0.5,1.2c-0.3,0.3-0.7,0.5-1.1,0.5s-0.8-0.2-1.1-0.5c-0.3-0.3-0.5-0.7-0.5-1.2v-11
							c0-0.5,0.2-0.8,0.5-1.2s0.7-0.5,1.1-0.5s0.8,0.2,1.1,0.5s0.5,0.7,0.5,1.2v0.5c0.5-0.6,1.1-1.2,1.9-1.6
							c0.8-0.5,1.6-0.7,2.6-0.7C1051.8,1725.9,1053.1,1726.5,1053.8,1727.5z"/>
						<path fill="#F9F9F9" d="M1070.2,1726.6c0.3,0.3,0.4,0.6,0.4,1c0,0.2-0.1,0.5-0.2,0.8l-5,10.9c-0.1,0.3-0.3,0.5-0.5,0.7
							s-0.5,0.3-0.8,0.3l-0.2,0c-0.3,0-0.6-0.1-0.8-0.3s-0.5-0.4-0.6-0.8l-5-10.9c-0.1-0.3-0.2-0.6-0.2-0.8c0-0.4,0.2-0.7,0.5-1
							c0.3-0.3,0.7-0.4,1.1-0.4c0.3,0,0.7,0.1,0.9,0.3c0.3,0.2,0.5,0.4,0.6,0.7l3.7,8.4l3.7-8.4c0.1-0.3,0.3-0.6,0.6-0.8
							c0.2-0.2,0.5-0.3,0.8-0.2C1069.6,1726.2,1069.9,1726.3,1070.2,1726.6z"/>
						<path fill="#F9F9F9" d="M1073.3,1724.2c-0.2-0.2-0.4-0.5-0.4-1v-0.5c0-0.5,0.1-0.8,0.4-1c0.3-0.2,0.7-0.3,1.3-0.3
							c0.6,0,1.1,0.1,1.3,0.3c0.2,0.2,0.4,0.5,0.4,1v0.5c0,0.5-0.1,0.9-0.4,1c-0.3,0.2-0.7,0.3-1.3,0.3
							C1074,1724.5,1073.5,1724.4,1073.3,1724.2z M1075.7,1739.9c-0.3,0.3-0.7,0.5-1.1,0.5c-0.5,0-0.8-0.2-1.1-0.5
							c-0.3-0.3-0.5-0.7-0.5-1.2v-11c0-0.5,0.2-0.8,0.5-1.2s0.7-0.5,1.1-0.5c0.5,0,0.8,0.2,1.1,0.5s0.5,0.7,0.5,1.2v11
							C1076.2,1739.2,1076.1,1739.6,1075.7,1739.9z"/>
						<path fill="#F9F9F9" d="M1092.2,1721.2c0.3,0.3,0.5,0.7,0.5,1.2v16.4c0,0.5-0.2,0.8-0.5,1.2c-0.3,0.3-0.7,0.5-1.1,0.5
							c-0.5,0-0.8-0.2-1.1-0.5s-0.5-0.7-0.5-1.1c-0.4,0.5-1,1-1.8,1.3c-0.8,0.4-1.6,0.5-2.4,0.5c-1.2,0-2.3-0.3-3.3-0.9
							s-1.8-1.5-2.4-2.6c-0.6-1.1-0.9-2.4-0.9-3.8c0-1.4,0.3-2.7,0.9-3.8c0.6-1.1,1.3-2,2.3-2.6c1-0.6,2.1-0.9,3.3-0.9
							c0.9,0,1.7,0.2,2.4,0.5c0.7,0.3,1.4,0.7,1.9,1.2v-5.2c0-0.5,0.2-0.8,0.5-1.2c0.3-0.3,0.7-0.5,1.1-0.5
							C1091.5,1720.7,1091.9,1720.9,1092.2,1721.2z M1088.5,1736.5c0.7-0.8,1.1-1.9,1.1-3.2c0-1.3-0.4-2.3-1.1-3.2
							c-0.7-0.8-1.7-1.3-2.8-1.3c-1.1,0-2.1,0.4-2.8,1.3s-1.1,1.9-1.1,3.2c0,1.3,0.4,2.3,1.1,3.2c0.7,0.8,1.7,1.3,2.8,1.3
							C1086.8,1737.7,1087.8,1737.3,1088.5,1736.5z"/>
						<path fill="#F9F9F9" d="M1108.4,1734c-0.3,0.3-0.7,0.4-1.1,0.4h-8.8c0.2,1,0.7,1.9,1.5,2.5c0.8,0.6,1.6,0.9,2.6,0.9
							c0.7,0,1.3-0.1,1.7-0.2c0.4-0.1,0.7-0.3,1-0.4c0.2-0.1,0.4-0.3,0.5-0.3c0.3-0.2,0.6-0.2,0.9-0.2c0.4,0,0.7,0.1,1,0.4
							c0.3,0.3,0.4,0.6,0.4,0.9c0,0.5-0.2,0.9-0.7,1.3c-0.5,0.4-1.2,0.8-2,1c-0.8,0.3-1.7,0.4-2.5,0.4c-1.5,0-2.8-0.3-3.9-0.9
							c-1.1-0.6-2-1.5-2.6-2.6c-0.6-1.1-0.9-2.3-0.9-3.7c0-1.5,0.3-2.9,1-4c0.6-1.2,1.5-2,2.5-2.6c1-0.6,2.2-0.9,3.4-0.9
							c1.2,0,2.3,0.3,3.3,1c1,0.6,1.9,1.5,2.5,2.6c0.6,1.1,0.9,2.2,0.9,3.5C1108.9,1733.4,1108.8,1733.7,1108.4,1734z
							 M1098.5,1731.7h7v-0.2c-0.1-0.7-0.4-1.4-1.1-1.9c-0.7-0.5-1.4-0.8-2.2-0.8C1100.1,1728.8,1098.9,1729.8,1098.5,1731.7z"/>
					</g>
					<path fill="#F9F9F9" d="M1032.4,1729.3h6.7l-6.7-16.6l-6.7,16.6H1032.4z"/>
					<path fill="#F9F9F9" d="M1039.1,1729.3l-6.7-16.6l-1.1,2.8c0.3,0.2,0.7,0.4,1.1,0.4c0,0,0,0,0,0c0.2,0,0.3,0.1,0.4,0.2
						l5.3,13.2H1039.1z"/>
					<path fill="#F9F9F9" d="M1035.5,1720.5h-6.3l0.9-2.4h4.4L1035.5,1720.5z"/>
					<path fill="#F9F9F9" d="M1033.7,1718.2l0.9,2.4h1l-0.9-2.4H1033.7z"/>
					<path fill="#F9F9F9" d="M1037.8,1726H1027l0.9-2.4h8.8L1037.8,1726z"/>
					<path fill="#F9F9F9" d="M1037.8,1726l-0.9-2.4h-1l0.9,2.4H1037.8z"/>
					<path fill="#F9F9F9" d="M1039.3,1730.4h-13.8c-0.2,0-0.4-0.2-0.4-0.4v-0.4c0-0.2,0.2-0.4,0.4-0.4h13.8c0.2,0,0.4,0.2,0.4,0.4
						v0.4C1039.7,1730.3,1039.5,1730.4,1039.3,1730.4z"/>
					<path fill="#F9F9F9" d="M1039.3,1729.3h-1c0.2,0,0.4,0.2,0.4,0.4v0.4c0,0.2-0.2,0.4-0.4,0.4h1c0.2,0,0.4-0.2,0.4-0.4v-0.4
						C1039.7,1729.4,1039.5,1729.3,1039.3,1729.3z"/>
					<g>
						<path fill="#F9F9F9" d="M1035.7,1715.2l0.3,0.1c0.2,0.1,0.4,0.3,0.5,0.5l0.3,0.8c0.1,0.1,0.2,0.1,0.3,0l0.3-0.8
							c0.1-0.2,0.2-0.4,0.5-0.5l0.3-0.1c0.1-0.1,0.1-0.2,0-0.3l-0.3-0.1c-0.2-0.1-0.4-0.3-0.5-0.5l-0.3-0.8c-0.1-0.1-0.2-0.1-0.3,0
							l-0.3,0.8c-0.1,0.2-0.2,0.4-0.5,0.5l-0.3,0.1C1035.6,1714.9,1035.6,1715.1,1035.7,1715.2z"/>
						<path fill="#F9F9F9" d="M1037.8,1714.7c-0.2-0.1-0.3-0.2-0.4-0.4c-0.1,0.6-0.5,1-1,1.2c0,0,0.1,0.1,0.1,0.2l0.3,0.8
							c0.1,0.1,0.2,0.1,0.3,0l0.3-0.8c0.1-0.2,0.2-0.4,0.5-0.5l0.3-0.1c0.1-0.1,0.1-0.2,0-0.3L1037.8,1714.7z"/>
					</g>
					<path fill="#F9F9F9" d="M1025.5,1719.5l0.3,0.1c0.2,0.1,0.4,0.2,0.5,0.5l0.3,0.8c0.1,0.1,0.2,0.1,0.3,0l0.3-0.8
						c0.1-0.2,0.2-0.4,0.5-0.5l0.3-0.1c0.1-0.1,0.1-0.2,0-0.3l-0.3-0.1c-0.2-0.1-0.4-0.2-0.5-0.5l-0.3-0.8c-0.1-0.1-0.2-0.1-0.3,0
						l-0.3,0.8c-0.1,0.2-0.2,0.4-0.5,0.5l-0.3,0.1C1025.3,1719.2,1025.3,1719.4,1025.5,1719.5z"/>
					<path fill="#F9F9F9" d="M1027.6,1719.1c-0.2-0.1-0.3-0.2-0.4-0.4c-0.1,0.6-0.5,1-1,1.2c0,0,0.1,0.1,0.1,0.2l0.3,0.8
						c0.1,0.1,0.2,0.1,0.3,0l0.3-0.8c0.1-0.2,0.2-0.4,0.5-0.5l0.3-0.1c0.1-0.1,0.1-0.2,0-0.3L1027.6,1719.1z"/>
					<path fill="#F9F9F9" d="M1030.8,1714.9l0.8-0.2l0.2,0.8c0.1,0.5,0.6,0.9,1.2,0.8s0.9-0.6,0.8-1.2l-0.2-0.8l0.8-0.2
						c0.5-0.1,0.9-0.6,0.8-1.2s-0.6-0.9-1.2-0.8l-0.8,0.2l-0.2-0.8c-0.1-0.5-0.6-0.9-1.2-0.8c-0.5,0.1-0.9,0.6-0.8,1.2l0.2,0.8
						l-0.8,0.2c-0.5,0.1-0.9,0.6-0.8,1.2S1030.2,1715,1030.8,1714.9z"/>
				</g>
				<path fill="#F9F9F9" d="M1030.8,1714.9l0.8-0.2l1.6-2.3l-0.2-0.8c-0.1-0.5-0.6-0.9-1.2-0.8c-0.5,0.1-0.9,0.6-0.8,1.2l0.2,0.8
					l-0.8,0.2c-0.5,0.1-0.9,0.6-0.8,1.2S1030.2,1715,1030.8,1714.9z"/>
			</g>
		</g>
	</g>
</g>
<g id="Layer_2">
</g>
</svg>
