<?xml version="1.0" encoding="utf-8"?>
<!-- Generator: Adobe Illustrator 23.0.4, SVG Export Plug-In . SVG Version: 6.00 Build 0)  -->
<svg version="1.1" id="Camada_1" xmlns="http://www.w3.org/2000/svg" xmlns:xlink="http://www.w3.org/1999/xlink" x="0px" y="0px"
	 width="1200.9px" height="1799.5px" viewBox="0 0 1200.9 1799.5" enable-background="new 0 0 1200.9 1799.5" xml:space="preserve">
<rect x="0" fill="#652864" width="1200.9" height="1799.5"/>
<g>
	<defs>
		<rect id="SVGID_5_" x="2.5" width="1196.8" height="1800"/>
	</defs>
	<clipPath id="SVGID_2_">
		<use xlink:href="#SVGID_5_"  overflow="visible"/>
	</clipPath>
	<g clip-path="url(#SVGID_2_)">
		<ellipse opacity="0.2" fill="#8C8AC2" cx="600.9" cy="982.9" rx="604.4" ry="646.6"/>
		<ellipse opacity="0.2" fill="#8C8AC2" cx="600.9" cy="982.9" rx="467.5" ry="500.1"/>
		<ellipse opacity="0.2" fill="#8C8AC2" cx="600.9" cy="982.9" rx="386.9" ry="413.9"/>
		<g>
			<ellipse fill="#CBBDCB" cx="600.9" cy="982.9" rx="218.5" ry="233.7"/>
			<g opacity="0.3">
				<path fill="#CBBDCB" d="M647.9,964.7c0.7-1.7,1.4-3.5,2.1-5.2c-1.1,0.9-2.7,0.9-3.9,0.1c-1.2-0.8-1.8-2.3-1.6-3.8
					c0.2-1.4,1.2-2.7,0.7-4c-0.4-1-1.5-1.4-2.5-1.3c-1,0.1-1.9,0.7-2.7,1.2c0.5-1.2-1-2.5-2.2-2.3c-1.2,0.2-2.2,1.1-3.3,1.8
					c-1.4,0.8-2.4-0.3-3.5,0c-1.6,0.4-3.3,1.5-4.5,2.6c-1.4,1.3-2.5,3.1-2.4,5.1c0,2,1.4,3.9,3.3,4.1c0.5,1.1-0.2,2.4-1,3.3
					c-0.8,0.9-1.8,1.7-2.2,2.8c-0.4,1.2,0.1,2.7,1.1,3.4c1,0.7,2.5,0.6,3.4-0.3c-0.4,1.3,0.2,2.8,1.4,3.3c1.1,0.6,2.6,0.1,3.3-1
					c-0.8,1.8,0.4,4.3,2.3,4.6c1.9,0.2,3.7-1.9,3.2-3.8c1.3,2.5,4.7,3,7.2,1.9c2.5-1.2,4.3-3.5,5.9-5.7c0.7-1,1.5-2,1.8-3.2
					c0.4-1.2,0.2-2.6-0.6-3.5C651.9,963.3,649.6,963.9,647.9,964.7z"/>
				<path fill="#CBBDCB" d="M425.6,929.8c1,0.7,2.5,0.6,3.4-0.3c-0.4,1.3,0.2,2.8,1.4,3.3c1.1,0.6,2.6,0.1,3.3-1
					c-0.8,1.8,0.4,4.3,2.3,4.6c1.9,0.2,3.7-1.9,3.2-3.8c1.3,2.5,4.7,3,7.2,1.9c1.5-0.7,2.8-1.9,3.9-3.2c0.3,0.5,0.8,0.9,1.3,1.1
					c1.8,0.8,3.9-0.3,5-2c1.1-1.7,1.4-3.8,1.7-5.8c1.1,1.9,3.8,1.9,5.6,0.8c1.9-1,3.3-2.7,5.2-3.7c1.6-0.8,3.5-1.1,4.6-2.5
					c2-2.4,0.6-6.1-0.9-8.9c2.1-1.8,1.3-5.6-0.5-7.8c-1.8-2.2-4.3-3.7-5.7-6.2c-1.8-3.2-1.4-7.4-3.1-10.8c-1.1-2.2-3.5-4-5.6-3
					c-2.5,1.1-2.6,4.9-2.3,7.8c0.5,4,0.9,7.9,1.4,11.9c-2.4,0.8-2.9,5-0.8,6.4c-2.5,1.4-5.2,3-6.5,5.7c-0.4,0.9-0.6,2.1-0.5,3.1
					c-0.9,0.3-2,0.1-2.8-0.4c-1.2-0.8-1.8-2.3-1.6-3.8c0.2-1.4,1.2-2.7,0.7-4c-0.4-1-1.5-1.4-2.5-1.3c-1,0.1-1.9,0.7-2.7,1.2
					c0.5-1.2-1-2.5-2.2-2.3c-1.2,0.2-2.2,1.1-3.3,1.8c-1.4,0.8-2.4-0.3-3.5,0c-1.6,0.4-3.3,1.5-4.5,2.6c-1.4,1.3-2.5,3.1-2.4,5.1
					c0,2,1.4,3.9,3.3,4.1c0.5,1.1-0.2,2.4-1,3.3c-0.8,0.9-1.8,1.7-2.2,2.8C424.1,927.7,424.6,929.1,425.6,929.8z M449.5,918.8
					c0.3,1,0.9,1.9,1.8,2.4c-1,0-2.2,0.4-3.1,0.8C448.6,920.9,449,919.9,449.5,918.8z"/>
				<path fill="#CBBDCB" d="M757.6,950.1c0.1,1.7,0.8,3.7,1.6,5.1c0.9,1.7,2.4,3.1,4.3,3.4c1.8,0.3,3.9-0.8,4.3-2.7
					c1.1-0.3,2.2,0.6,2.9,1.6c0.7,1,1.2,2.2,2.3,2.8c1.1,0.6,2.5,0.4,3.3-0.6c0.8-0.9,0.9-2.5,0.3-3.6c1.1,0.6,2.6,0.2,3.3-0.9
					c0.7-1.1,0.5-2.7-0.4-3.6c1.5,1.2,4,0.3,4.6-1.6c0.5-1.9-1.1-4.2-3-4.1c2.5-1,3.6-4.5,2.9-7.3c-0.6-2.8-2.5-5.1-4.3-7.2
					c-0.8-0.9-1.6-1.9-2.6-2.5c-1-0.6-2.4-0.7-3.3,0c-1.5,1.2-1.3,3.6-0.9,5.6c-1.5-1-3-2.1-4.4-3.1c0.6,1.3,0.4,3-0.5,4.1
					c-0.9,1.1-2.5,1.5-3.8,1c-1.2-0.5-2.3-1.7-3.6-1.4c-1,0.2-1.6,1.3-1.6,2.4c0,1.1,0.3,2.1,0.7,3.1c-1.1-0.7-2.4,0.6-2.5,2
					c0,1.3,0.7,2.5,1.1,3.8C758.7,948.1,757.6,948.8,757.6,950.1z"/>
				<path fill="#CBBDCB" d="M603.5,912c-0.7-0.7-1.9-1-2.6-0.5c0.7-0.7,0.8-1.9,0.3-2.8c-0.6-1-2-1.3-3-0.6
					c-0.4-1.7-1.8-2.9-3.3-3.5c-1.5-0.6-3.2-0.7-4.8-0.7c-1.8-0.1-4.1,0.2-4.5,2c-0.8,2.9,2.7,3.5,3.8,5.2c0.4,0.6,1.8,6.3-0.2,5.8
					c2.1,0.5,4.6,1.6,4.8,3.9c0.2,2.3-2.2,3.9-2.6,6.2c-0.4,2.1,1.4,4.2,3.3,4.1c1.9-0.1,3.5-2.4,3-4.4c-0.1-0.4-0.3-0.7-0.2-1.1
					c0.1-0.8,0.9-1.3,1.7-1.2c0.7,0.1,1.4,0.6,2,1c0-2.4,0.1-4.8,0.1-7.2c1.3-0.1,2.6,0.2,3.8,0.8c-0.3-1.2-0.3-2.4-0.4-3.6
					C604.6,914.1,604.3,912.8,603.5,912z"/>
				<path fill="#CBBDCB" d="M625.2,940c1.2,0.2,2.6,0.1,3.6-0.6c0.9-0.6,1.4-1.9,1.1-2.9c0.6,0.9,1.8,1.4,2.8,1
					c1.1-0.5,1.8-2.1,1.2-3.3c1.8-0.1,3.3-1.4,4.3-3c1-1.6,1.4-3.5,1.8-5.3c0.5-2,0.7-4.7-1-5.7c-2.7-1.5-4.1,2.4-6.1,3.2
					c-0.7,0.3-6.8,0.7-5.8-1.5c-1,2.3-2.6,4.9-5,4.6c-2.4-0.3-3.5-3.4-5.7-4.4c-2-0.9-4.5,0.7-4.9,2.9c-0.3,2.3,1.6,4.6,3.8,4.5
					c0.4,0,0.8-0.1,1.2,0c0.8,0.3,1.1,1.3,0.8,2.2c-0.2,0.8-0.9,1.5-1.5,2.1c2.4,0.6,4.8,1.2,7.3,1.8c-0.2,1.5-0.8,3-1.6,4.2
					C622.8,939.6,624,939.9,625.2,940z"/>
				<path fill="#CBBDCB" d="M682.6,842.8c0.4,0,0.7,0,1.1,0.1c0.7,0.3,0.9,1.3,0.6,2.1c-0.3,0.7-0.9,1.2-1.5,1.7
					c2.1,0.8,4.3,1.6,6.4,2.4c-0.3,1.4-1,2.6-1.8,3.6c1.1,0,2.2,0.4,3.3,0.7c1.1,0.3,2.3,0.4,3.3-0.2c0.9-0.5,1.4-1.6,1.2-2.5
					c0.4,0.9,1.5,1.4,2.4,1.2c1.1-0.3,1.8-1.7,1.4-2.8c1.6,0.1,3.2-0.9,4.2-2.3c1-1.4,1.6-3,2.1-4.6c0.6-1.8,1.1-4.2-0.4-5.3
					c-2.3-1.7-3.9,1.7-5.8,2.3c-0.6,0.2-6.2-0.1-5.1-2c-1.1,1.9-2.8,4.2-4.9,3.6c-2.1-0.5-2.8-3.5-4.7-4.6c-1.7-1-4.2,0.1-4.7,2.1
					C679.1,840.4,680.7,842.7,682.6,842.8z"/>
				<path fill="#CBBDCB" d="M642.7,846.1c-0.7-0.2-1.6-0.4-2.3,0c-0.6,0.5-0.5,1.8,0.3,1.8c1.2-0.1,2.4,0.7,3,1.8
					c0.8,1.4,0.9,3.1,1.2,4.7c0.3,1.6,0.8,3.3,2,4.3c1.9,1.4,5,0.5,6.6,2.3c0.9,1,1,2.5,1,3.9c0,1.4-0.1,2.9,0.6,4.1
					c0.6,1.2,2.3,1.9,3.3,1c-0.1,1.4,1.5,2.1,2.7,2.4c3.9,0.9,7.7,1.9,11.6,2.8c0.3,0.1,0.7,0.1,0.9-0.1c0.2-0.3,0-0.8-0.3-1.1
					c-2.2-2.6-4.3-5.2-6.5-7.8C659.9,857.9,652.5,849.3,642.7,846.1z"/>
				<path fill="#CBBDCB" d="M640.7,848C640.7,848,640.7,847.9,640.7,848c-0.3,0-0.6,0-0.9,0.2L640.7,848z"/>
				<path fill="#CBBDCB" d="M670.1,913.8c-0.4-0.1-0.9-0.1-1.3-0.2c-1.7-0.3-3.7-0.4-5.1,0.9c-3.4,3.1,1.5,9.6-0.8,13.7
					c-0.7,1.2-1.9,2-2.7,3.1c-2.8,3.5-1.4,8.9,0.1,13.2c0.8,2.1,1.6,4.3,2.3,6.4c0.7,2,1.5,4.1,2.5,5.9c1.6,2.8,4,5,6.7,6.5
					c1.6,0.8,3.4,1.4,4.9,2.4c5.2,3.6,1.4,6.5-1.5,9.2c-2.4,2.2-3.3,9,1.7,7.9c1.9-0.4,3-3.2,1.7-4.8c2.1,1,4.7-0.5,5.9-2.6
					c1.2-2.1,1.4-4.7,1.7-7.1c0.3-2.8,0.6-5.8-0.2-8.5c-0.8-2.7-3.1-5.2-5.8-5c1.9-1.4,1.1-4.8-0.8-6.3c-1.9-1.5-4.3-1.8-6.4-2.9
					c-2.1-1.1-4-3.5-3.2-5.8c1-1.1,1.9-2.2,2.9-3.3c-1.6-0.8-2.5-2.8-2.3-4.7c0.2-1.9,1.7-3.5,3.4-3.8c-1.1-0.9-1.6-2.5-1.1-3.9
					c0.5-1.4,1.8-2.3,3.2-2.2c1.5,0.1,2.7,1.3,4.1,1.6c0.3,0.1,0.6,0.1,0.9,0.1c0.5,1.2,1.2,2.3,2.1,3.3c2.2,2.4,5.3,3.9,8.5,3.7
					c3.1-0.2,6.2-2.3,7.3-5.4c0.7,2.6,1.4,5.3,3.4,6.9c1.9,1.6,5.4,1.4,6.3-1.1c0.7-2.1-0.8-4.3-2-6.2c-1.2-1.9-1.9-4.8-0.1-6.1
					c1.7,0,3.4,0.1,5,0.1c0,0.1,0.1,0.3,0.1,0.4c1.2,3.8,5,7.8,8.1,9.7c0.5,0.3,1,0.6,1.5,0.8c0,0,0,0,0,0c-0.7,2.7-2.7,4.7-3.8,7.2
					c-2.1,4.8-0.6,11.1,3.4,14.1l-4.4-1.7c2.5,1,2.6,5.1,0.8,7.3c-1.8,2.1-4.6,2.8-7.2,3.4c-2.6,0.6-5.4,1.4-7.1,3.6
					c-1.7,2.3-1.8,5.4-2.5,8.2c-0.7,2.8-2.6,5.9-5.3,5.7c-1.4-0.1-2.6-1-3.9-1c-3.1-0.1-4.7,4.6-3.2,7.6c1.5,2.9,4.7,4.3,7.6,5.6
					c-2.2,6.2,2.5,12.5,6.9,17.2c0.9,1,1.8,1.9,3,2.5c-1.3-0.1-2.6-0.3-3.9-0.4c1.1,0.9,1.6,2.5,1.3,3.9c-0.3,1.4-1.5,2.6-2.9,2.7
					c-1.3,0.2-2.8-0.4-3.8,0.6c-0.7,0.7-0.8,2-0.4,2.9c0.4,1,1.2,1.7,1.9,2.4c-1.2-0.1-1.9,1.8-1.3,3c0.5,1.2,1.7,1.9,2.6,2.9
					c1.2,1.2,0.4,2.5,1,3.6c0.8,1.5,2.3,2.9,3.7,3.8c1.6,1,3.5,1.6,5.3,0.9c1.7-0.6,3.1-2.7,2.6-4.6c0.8-0.8,2.2-0.6,3.3,0
					c1,0.5,2,1.3,3.2,1.3c1.2,0,2.4-0.9,2.7-2.2c0.3-1.2-0.2-2.7-1.3-3.3c1.2,0,2.4-1.1,2.5-2.4c0.2-1.3-0.7-2.7-1.9-3
					c1.9,0.3,3.7-1.7,3.4-3.7c0-0.2-0.1-0.5-0.2-0.7c0.7-0.2,1.4-0.5,2.1-0.9c5.3-2.6,10.6-5.3,15.9-7.9c1.3,2.2,2.7,4.6,5,5.7
					c2.2,1.1,5.5,0.3,6.2-2.2c0.7-2.6-1.5-5-3.3-7c-1.7-2-3.1-5.4-1.1-7.2c1.5-1.3,3.9-0.3,5.2,1.2c1.4,1.5,2.3,3.5,3.9,4.7
					c1.6,1.2,4.3,1.1,5-0.8c-2.1-1.8-4.4-4.9-2.9-7.3c2.5-4,9.5,2,12.6-1.5c-3.1-4.8-3.8-11.3-1.9-16.8c2.7-1.3,4.6-4.4,4.7-7.6
					c0.1-3.2-1.6-6.4-4.3-7.9c-1,3.4-5.8,3.5-8.4,1.2c-2.6-2.2-3.9-5.8-6-8.5c-2.1-2.8-6.1-4.7-8.7-2.6c-1.8,1.4-2.4,4.2-4.5,5.1
					c-2.9,1.2-5.5-2.1-7-5c-1.5-2.9-3-6.8-1-9.4c-2.3-2.9-2.6-7.1-3.1-10.9c-0.2-1.3-0.4-2.6-0.7-3.8c0.5,0.2,1,0.4,1.5,0.6
					c-0.6-2.4,1.9-4.3,4-5.3c2.1-1,4.7-2.7,4.2-5.2c1.1,0.2,2.2,0.4,3.3,0.7c0.4-2.1,0.2-4.4-0.6-6.4c2.7-0.2,5.3,2,5.7,4.9
					c0.1,1,0.1,2.1,0.7,2.8c0.8,0.9,2.3,0.6,3.2-0.3c0.8-0.9,1.1-2.2,1.4-3.5c1.8-1.7,0.3-5.7-2.1-5.5c0.3-0.7,0.6-1.4,0.9-2.1
					c-2.6-2.3-5.8-3.8-9.2-4.2c1.1-2.7-0.7-6.3-3.4-6.8c-2.7-0.6-5.6,2-5.5,5c-0.9-1.9-3-3.1-5-2.8c-2,0.3-3.7,2.2-3.9,4.3
					c-0.9-1.4-2.7-2.1-4.3-1.6c-1.1,0.4-1.9,1.4-2.3,2.6c-0.1,0-0.3-0.1-0.5-0.1c-0.6-0.1-1.1,0-1.6,0.2c-0.8-0.1-1.6,0.1-2.2,0.6
					c-0.1,0.1-0.2,0.2-0.3,0.3c0,0-0.1,0-0.1,0c-1.4,0.3-3.4-0.8-2.8-2.3c-1.6,1.2-3.1,2.5-4.6,3.7c-4,0.6-7.2-3.6-8.8-7.6
					c-1.6-4-3.1-8.6-6.9-10.4c-1.9,2.1-3.8,4.3-5.7,6.4c0.9-2.4-1-5.2-3.4-5.6c-2.4-0.4-4.7,1-6.3,3c-1.5,2-2.4,4.5-3.2,6.8
					C671.4,904.5,669.4,909.1,670.1,913.8z"/>
				<path fill="#CBBDCB" d="M479,890.7c1.7-0.6,3-2,4.6-2.8c4-2.1,9.5-0.3,12.2,3.8c2.7,4.2,2.1,10.1-1.2,13.1
					c0.5,0.5,1,0.8,1.5,1.1c-0.8,2.5-2.7,4.9-5,4.1c-0.3,1-0.6,2-0.9,3c-0.1-2.1-3.4-2-4.3-0.2c-0.9,1.8-0.4,4.1,0,6.1
					c0.3,2.1,0.2,4.6-1.5,5.6c-1.2,0.7-2.7,0.4-4,0.8c-2,0.7-3.1,3.1-3.1,5.3c0,2.2,0.9,4.3,1.7,6.3c-2.1,0.1-4.2,0.3-6.3,0.4
					c-2.8,4.8-0.3,12.1,4.7,13.8c-2.4,1.5-4.9,3.1-6.6,5.4c-0.4,0.5-0.7,1.1-1,1.7c-0.4-3.8-2.6-7.2-6.7-4.3c-2.3,1.6-2.3,5.8,0,7.2
					c-3.2-0.1-5.9,3.2-6.4,6.6c-0.6,3.4,0.4,6.9,1.2,10.2c1,3.9,2,7.9,4.3,11c2.4,3.1,6.5,5,9.9,3.4c-1.8,2.9,0.9,6.9,4,7.8
					c3.1,0.9,6.5,0,9.7,0.3c3.3,0.2,6.9,2.4,7,5.9c-0.7,2-1.4,3.9-2.2,5.9c2.5,0.3,4.7,2.3,5.2,4.9c0.6,2.6-0.5,5.5-2.6,6.9
					c1.8,0.5,3.2,2.5,3.3,4.5c0,2-1.3,4-3.1,4.6c-0.9,0.3-1.9,0.3-2.9,0.2c1-1.4,2-2.9,2.5-4.6c0.7-2.6-0.6-6-3.1-6.1
					c1.8-2.2,2.4-5.4,1.4-8.2c-1-2.7-3.4-4.7-6.1-5c-1.2,1.3-2.3,2.6-3.5,3.9c-0.8-3.1-1.7-6.4-4-8.4c-2.3-2-6.6-1.7-7.6,1.3
					c0.4-3.4-3.5-6.4-6.4-5c-1.2,0.6-2.1,1.8-3.4,2.2c-2.9,0.8-6.5-2.6-8.7-0.4c-1.7,1.7-0.3,4.7,1.2,6.6c1.5,1.9,3.2,4.5,1.9,6.5
					c-1.3,2-4.1,1.4-6.4,1.8c-2.4,0.4-4.6,2.5-5.2,5.1c-0.6,2.6,0.3,5.5,2.3,7.1c-1.2,0.6-2,2-1.8,3.4c0.2,1.4,1.4,2.6,2.7,2.7
					c-2.7,1.5-4.2,5.1-3.6,8.3c0.6,3.2,3.4,5.7,6.5,5.9c-1.6,0.4-1.9,3-0.8,4.3c1.1,1.3,2.9,1.6,4.6,1.6c1.7,0,3.4-0.2,4.9,0.5
					c1.9,0.9,3,3,4.3,4.7c1.3,1.7,3.4,3.2,5.3,2.5c-1.1,0.8-2.1,1.7-3.2,2.5c3.4,0.4,6.5,3.1,7.4,6.7c1.9,3.2-0.3,8.2-3.9,8.7
					c1.9,1.7,4.7,2.2,7.1,1.4c1.1,1.4,0,3.6-1.4,4.5c-1.4,1-3.2,1.4-4.4,2.6c-1.2,1.2-1.5,3.9,0.1,4.5c-2,1-4.4,3.2-3.3,5.3
					c1.3,2.5,6.1,0.9,6.9,3.7c0.4,1.7-1.2,3.3-0.8,5c0.5,1.9,3,1.9,4.8,1.4c1.8-0.5,4.3-0.6,4.9,1.2c0.7,1.9-1.3,4.4,0.1,5.7
					c0.7,0.8,2,0.5,2.9,0c2.7-1.4,2.8-0.7,4.5,1.2c1.6,1.8,2.7,3,5.1,4.3c-0.3,0.7-0.7,1.3-1,2c1.2,2.5,4.7,2.2,7,0.9
					c2.4-1.4,4.3-3.6,5.6-6.2c1.1,0.6,2.4,1.1,3.6,1.2c-0.1,1.4-1,2.6-2.1,3.5c-1.2,1-2.6,1.8-3.7,2.8c-1.2,1.1-2.1,2.6-1.9,4.2
					c0.1,0.9,0.8,1.7,1.6,2.1c-1.1,0.3-2,1.2-2.2,2.5c-0.2,1.8,1.5,3.7,3.2,3.5c0.9-0.1,1.6-0.6,2.5-0.9c0.8-0.3,1.9-0.3,2.4,0.5
					c0.8,1.1-0.2,3,0.5,4.1c0.8,1.2,2.6,0.6,3.7-0.3c1.1-0.9,2.4-2.1,3.7-1.6c0.6-0.9,0.9-2.1,0.8-3.2c1.1,1.1,2.3,2.2,3.7,2.1
					c1.4-0.1,2.7-2.2,1.6-3.2c2,0.9,4.5,0.7,6.3-0.6c1.8-1.3,2.9-3.7,2.5-6c-0.4-2.3-2.4-4.2-4.6-4.2c1-0.7,1.6-2.2,1.3-3.5
					c-0.3-1.3-1.4-2.3-2.6-2.5c-1.1-0.1-2.2,0.4-3.3,0.2c-1.8-0.3-2.9-2.5-4.2-4c0.8-1.2,2.2-2.1,3.5-2.7c2.1-1,4.7-2.7,4.2-5.2
					c1.1,0.2,2.2,0.4,3.3,0.7c0.4-2.1,0.2-4.4-0.6-6.4c2.7-0.2,5.3,2,5.7,4.9c0.1,1,0.1,2.1,0.7,2.8c0.8,0.9,2.3,0.6,3.2-0.3
					c0.8-0.9,1.1-2.2,1.4-3.5c1.8-1.7,0.3-5.7-2.1-5.5c0.3-0.7,0.6-1.4,0.9-2.1c-2.6-2.3-5.8-3.8-9.2-4.2c0.5-1.4,0.4-2.9-0.3-4.2
					c0.6-1,0.8-2,0.2-3c-1.5-2.2-5,0.4-7.1-1.1c-1.6-1.2-1.2-3.9,0-5.6c1.2-1.7,2.9-2.9,3.6-4.9c0.7-2-0.8-4.8-2.7-4.1
					c2.6-2.2,2.3-7.3-0.6-9.1c-2.9-1.8-7.2,0.4-7.6,3.9c-1.8,0-2.6-2.4-2.5-4.3c0-1.9,0.3-4.1-1-5.4c-1.4-1.4-3.6-0.9-5.4-0.5
					c-1.9,0.4-4.3,0.2-4.9-1.7c-0.5-1.6,0.6-3.4,0-4.9c-0.3-0.8-1-1.3-1.9-1.4c-1-1.4-1-3.8,0.1-5.3c1.6-2,4.2-2.6,6.6-3.2
					c2.4-0.6,5-1.5,6.2-3.9c2.9-5.9-6.5-11.7-5.5-18.4c0.3-2,1.5-3.6,2.1-5.5c2-6.1-2.4-12.4-6.5-17.2c-2-2.4-4.1-4.7-6.1-7.1
					c-1.9-2.2-3.8-4.5-6.1-6.3c-3.4-2.7-7.6-4.4-11.8-4.8c-2.5-0.2-5,0-7.5-0.5c-8.4-1.9-5-7.6-2.5-12.7c0.1,0.5,0.3,1.1,0.5,1.6
					c1.3,2.7,5,3.8,7,1.7c0.7-0.8,1.1-1.8,1.8-2.7c1.6-2.1,4.7-2.7,6.8-1.3c2.1,1.4,3,4.7,1.9,7.1c1.8,0.7,3.8-0.9,4.8-2.6
					c1.1-1.7,1.7-3.8,3.2-5.2c1.5-1.4,4.2-1.4,4.9,0.5c0.3,0.9,0.1,1.9,0,2.9c-0.1,1-0.1,2.1,0.5,2.7c0.7,0.7,2.1,0.2,2-0.7l0.3,2.9
					c4.3-1.5,8.2-4.3,11.2-7.8c-2.8-2.2-5.2-4.8-7.1-7.9c2.2-0.9,4.3-1.8,6.5-2.8c-1.9-2-4.7-3.4-7.3-2.7c-3.6,1-6.5,5.7-9.9,4.3
					c-1.7-0.7-2.6-2.8-2.6-4.7c0-2,0.7-3.8,1.4-5.6c1.2-3.1,2.4-6.2,3.6-9.3c1.3,0.7,2.6,1.4,3.9,2.1c0.8-0.9,1.2-2.1,1.2-3.4
					c0.6,1.1,1.7,2,2.9,1.9c1.8-0.1,3.3-2.4,2.8-4.3c2.6,0.5,5.2,1,7.7,1.5c0.8,0.2,1.8,0.3,2.5-0.2c1.7-1,0.8-3.6-0.3-5.4
					c0.8,0.9,2.6,0.3,3.1-1c0.6-1.4,0.1-3-0.3-4.4c-0.2-0.5-0.3-1.1-0.4-1.7c7.9,1,15.9,0,23-3.1c-1.3-2.3-2.4-4.6-3.4-7
					c1.7,2.7,4.2,5,7.2,5.5c3.2,0.5,6.9-1.5,7.6-4.9c2-0.6,3.9,1.1,5.1,2.8c1.2,1.8,2.2,3.9,4,4.9c1.9,1.1,4.4,0.6,5.9-1
					c1.5-1.7,1.7-4.4,0.5-6.3c1.9,1.1,4.6,0.4,5.8-1.5c1.2-1.9,0.9-4.8-0.7-6.4c2.7,2.1,7.2,0.5,8.1-2.9c0.7-2.5-0.6-5.2-2.7-6.5
					c0-0.9-0.1-1.8,0-2.6c0.6-0.6,1.1-1.3,1.5-2.1c1.5-0.7,3.6-0.1,5.2,0.7c2.1,1.1,4.6,2.7,4.5,5.2c2.6,0.7,4.5,3,6.4,5.1
					c4.4,4.7,9.8,8.2,15.7,10.2c1,0.3,2.1,0.6,3,0.1c1-0.6,1.3-1.8,2-2.7c0.7-0.9,2.4-1.1,2.7,0c0.4-1.5,0.9-3,1.3-4.4
					c2.2-2.3,5.9-1.2,8.5,0.4c2.6,1.6,5.5,3.7,8.5,3c0.3-2.2,0.5-4.4,0.8-6.6c0.4,1.9,2.8,2.7,4.4,1.8c1.6-0.9,2.4-2.9,2.5-4.8
					c0.1-1.9-0.4-3.8-0.9-5.7c-0.9-3.6-1.7-7.6-4.3-10.1c-2.6-2.5-7.8-2.1-8.6,1.5c-0.7-1.7-2.5-2.6-4.2-2.9
					c-2.3-0.4-4.9,0.2-6.7,1.8s-2.8,4.3-2.2,6.8c-1.5-1.2-3.1-2.5-4.9-2.6c-1.9-0.1-3.9,1.8-3.3,3.7c0.5,1.6,2.3,2.2,3.8,2.8
					c1.5,0.6,3.1,2,2.6,3.6c-1.3,1-2.7,2-4,3c1.2-0.5,2.4,1.1,2,2.4c-0.4,1.3-1.8,1.9-3.1,1.8c-1.3-0.1-2.4-0.9-3.4-1.6
					c-2-1.4-4.2-2.9-5-5.3c-0.7-2-0.3-4.1-0.7-6.2c-0.7-3.9-4.2-7-7.9-7l3.4-1.1c-1.9,0.6-3.7-1.9-3.5-4c0.2-2.1,1.6-3.9,2.9-5.5
					c1.3-1.6,2.7-3.4,2.8-5.6c0.1-2.2-1.1-4.1-1.9-6.2c-0.8-2-0.9-4.8,0.8-6c0.5-0.3,1-0.5,1.5-0.6c4.6,3.4,10.9,0.1,15.6-3.5
					c3.6,4,10.2,1.7,13.8-2.3c3.6-4,6-9.3,10.2-12.6c5.5-4.3,13.1-4.1,18.8-8c3.7-2.5,6.5-7.7,4.5-11.9c-2.4-5-9.1-4.6-14.3-3.4
					c-7,1.6-14,3.1-21,4.7c-1.8-4.8-9.3-5.2-11.6-0.6c-2.9-5-6.1-10.2-11.2-12.4c-5.1-2.2-12.3,0.6-12.8,6.4
					c-3.1-2.3-6.4-4.6-10.1-5.1c-3.7-0.5-8.1,1.4-9.2,5.2c-1.1,3.7,1.2,7.8,4.4,9.8c3.2,2,7,2.3,10.6,2.6c-3.2,2.6-2.7,8-0.6,11.7
					c2.1,3.6,5.4,6.4,7.4,10.1c0.4,0.7,0.7,1.4,1,2.2c-0.8,0.2-1.7,0.4-2.5,0.6c-0.7-2.5-2.5-4.1-4.7-5.2c0.3-2.7-0.7-5.9-2.4-8.2
					c-3.1-4-7.9-5.9-12.5-7.6c0.3-5-1.3-10.1-4.2-14.3c-1.7,1.4-3.2,3-4.5,4.9c1-2.5,1.7-5.1,1.6-8c-0.2-5-3.9-10.6-8.6-10.6
					c-5-0.1-7.7,5.3-10.4,9.5c-2.7,4.2-8.4,7.8-12.2,4c-1.1,1.3-2.3,2.7-3.4,4c1.1-3.5-4.4-6.2-7.2-4.1c-2.7,2.1-3.2,6.3-3.9,9.9
					c-0.7,3.6-2.6,7.6-6.1,7.8c-2.5,0.1-4.8-1.7-7.2-2.1c-3.7-0.6-7.1,2.3-8.5,5.8c-1.4,3.6-1.3,7.7-1.1,11.7
					c-3.6-1.6-7.2-3.2-10.9-4.8c-7.8,5.3-8.2,19.3-0.8,26.4c-5,0.4-10.2,0.7-14.6,3.1c-4.4,2.3-7.9,7-7.5,12.4
					C468.7,887.2,474.3,892.4,479,890.7z M489,1058.9c-1.3,2.6-1.3,5.6-1.3,8.6c-2.7-0.3-5.1-2.9-5.2-5.8c-0.2-2.9,1.9-5.8,4.6-6.4
					c-1.2-3.4-1.6-7.1-1.1-10.7c1.6,0.8,3.6,0.9,5.2-0.1c-1.1,2.9,0.3,6.7,3,8c0.6,0.3,1.2,0.4,1.8,0.5c-0.1,0.9-0.1,1.7-0.2,2.6
					C493.2,1054.4,490.3,1056.3,489,1058.9z M537.5,897.4c0.3,0,0.5,0,0.8,0.1c-0.2,0.5-0.4,1-0.4,1.6
					C537.7,898.5,537.6,897.9,537.5,897.4z M518.6,876.4c1.2-3.2,3.6-5.6,5.9-7.9c4-4,7.9-7.9,11.9-11.9c1.7,2.2,3.5,4.5,5.2,6.7
					c1.9-0.7,3.4-2.4,4.1-4.5c0.2,2.3,1.6,4.7,3.7,5.6c2.4,1,5,0,6.4-2c0.9,0.4,2,0.6,2.9,0.8c1.9,0.4,4.1,1.8,3.6,3.8
					c-0.2,1-1.1,1.5-2,1.8c-1.1-0.8-2.1-1.5-3.2-2.3c0.3,0.6,0.5,1.3,0.5,2.1c-1.1-0.3-2.1-0.7-3.3-0.7c-1.5,0-3.1,1.4-2.7,2.9
					c1.9,0.1,4.3,0.7,4.7,2.6c-0.1,0.1-0.2,0.3-0.3,0.4c-1.6,1.9-4.4,2.7-6.6,1.8c-2.2-0.8-4.1-3-6.4-2.5c-1.7,0.4-2.8,2.4-2.9,4.2
					c-0.1,1.9,0.6,3.7,1.2,5.4c-1.9-1.3-4.3,1.1-4.4,3.5c0,0.5,0,1,0.1,1.4c-6.1-0.1-12.7,3.4-17.1-1.3
					C517.7,883.7,517.4,879.6,518.6,876.4z M513,899.2c3.3-0.9,8,1.4,8,5.1c0,1.2-0.5,2.3-1.1,3.3c-2.1-0.8-4.5-0.5-6.8-0.3
					c-0.8-2.4-2.3-4.5-4.3-5.9C510,900.5,511.4,899.6,513,899.2z M507.6,902.3c-0.3,0.8-0.6,1.6-0.7,2.5c0-0.6,0-1.2-0.1-1.8
					C507.1,902.8,507.4,902.5,507.6,902.3z"/>
				<path fill="#CBBDCB" d="M573.4,961.8c1.5-1.1,2.3-3.2,1.9-5.1c-0.4-1.9-2-3.4-3.8-3.6c-1.6-0.2-3.2,0.6-4.8,0.3
					c-4.3-0.8-5.7-8.3-10.1-8.2c-3.9,0.1-5.3,6.1-8.9,7.7l-0.7,0.2c0.2,2.4-1.3,4.6-3,6.1c-0.1,0.1-0.3,0.2-0.4,0.3
					c-0.3-0.2-0.6-0.4-0.8-0.6c-1.4-1.1-3.1-2.2-4.9-1.7c-4.4,1.1-2.8,9.3-6.7,11.8c-1.1,0.7-2.5,0.8-3.8,1.4
					c-4,1.7-5.1,7.2-5.6,11.8c-0.2,2.3-0.5,4.6-0.7,6.8c-0.2,2.2-0.5,4.3-0.3,6.5c0.2,3.3,1.3,6.4,3.2,9.1c1.1,1.5,2.4,2.9,3.3,4.6
					c3.1,5.8-1.6,6.5-5.3,7.4c-3.1,0.8-6.8,6.3-1.9,7.8c1.9,0.6,4-1.4,3.6-3.4c1.5,1.9,4.3,1.9,6.3,0.6c2-1.3,3.3-3.4,4.6-5.5
					c1.5-2.4,3-4.8,3.5-7.6c0.5-2.8-0.5-6.1-3-7.3c2.3-0.3,3.1-3.8,2-6c-1-2.2-3-3.8-4.4-5.7c-1.4-2-2.1-5.1-0.3-6.8
					c1.3-0.5,2.7-1,4-1.5c-0.3-0.5-0.5-1.1-0.7-1.7c0.9,1.3,2.3,2.1,3.8,1.9c1.3-0.2,2.4-0.9,3.6-1.3c1.2-0.4,2.8-0.4,3.6,0.7
					c1.2,1.7-0.3,4.3,0.8,6.1c1.2,1.8,3.9,0.9,5.5-0.5c1.6-1.4,3.5-3.1,5.5-2.3c0.9-1.4,1.3-3.1,1.1-4.7c1.5,1.6,3.3,3.2,5.5,3.1
					c2.1-0.1,3.9-3.2,2.3-4.7c3,1.3,6.5,1.1,9.2-0.8c2.7-1.9,4.3-5.5,3.7-8.9C579.6,964.6,576.6,961.8,573.4,961.8z"/>
				<path fill="#CBBDCB" d="M425.2,1010.7c1.5,2.4,3.9,4.2,5,6.8c1.5,3.4,0.7,7.6,2,11.1c0.8,2.3,3,4.3,5.2,3.6
					c2.6-0.8,3.1-4.5,3-7.5c-0.1-4-0.1-8-0.2-12c2.5-0.5,3.4-4.6,1.4-6.3c2.7-1.1,5.5-2.4,7-4.9c1.5-2.6,0.9-6.8-1.8-7.6
					c1.4-1.5,2.8-3.1,3.4-5.1c0.6-2,0.1-4.5-1.6-5.6c-1.7-1-3.9-0.1-5.1,1.4c-1.3,1.5-1.8,3.6-2.3,5.6c-0.9-2-3.6-2.3-5.5-1.5
					c-1.9,0.8-3.6,2.3-5.5,3.1c-1.6,0.6-3.5,0.7-4.8,2c-2.3,2.1-1.2,6,0,9C423.2,1004.5,423.6,1008.3,425.2,1010.7z"/>
			</g>
		</g>
	</g>
	<path clip-path="url(#SVGID_2_)" fill="#3A1A40" d="M1185.4,861.6l44.1-116.3l20.8-47.9l48-36.6l4.3-42.3l-17.3,42.4l-37.7,24.2
		l-26.3,46.1l-27.2,73.3l12.2-79.7l1.9-56.1l83.9-104l-18.3,5.8l-66.2,79.6l-8.8,26.2l-15.1-51.3l-1-55.8l-16.9-20.3l8.4,30
		l-4.8,65.4l21.8,47.4l-2.4,14.3l-7.6,22.6l-6.5,96.5l-8,6.8l-0.1-3.2l-2.5-122.4l-57.6-72.8l-4-57.6l-0.3-1.1l37.2-44.7l120.1-35.3
		l39.3,6.7l-0.3-10.3l-12.8,1.2l-26.5-7.9l-103,25.3l59.8-71.9l32.6-67.8l33.9-40.1l5.1-31.8l-14.7,29.8l-42.4,40.9l-19.5,55.9
		l-0.6,0.6l-5.7-31.8l5.2-47l-11.8-8l16-26.3l33.7-24l-4-4.8l-9.8,9.5l-23.9,14.5l-18.3,26.3l0,0.6l-17.7-12.1l0.9-4.6l11.8-5.6
		l53.7-85.7l-23.3-57.9l16.8-42.3l65.4-29.6l-15.4-3.8l-56.7,30.8l-23.4,47.7l26.5,45.5l-24,46.1l-26.6,29.6l0.9-4.9
		c-0.1,0-8.7-8.1-8.8-8.1c0.1,0-1.1,12.2-2.3,23.6l-30.7,4.5l-11.2-142.6l25.7-32.6l61.6-17.4l-11.6-6.9l-16.4,8l-45.2,9.4l-16,15.6
		l-1.8-22.5l9.7-54.4l-15.4-59.9l0.2-42.7l-13.7-23l6.5,26.5l-5.2,47.4l17.4,45.7l-0.1,0.6l-20.5-17.5l-21.7-32.8l-35.8,2.2
		l-14.4-25.6c-0.1,0-9.9-0.8-9.9-0.8c0.2-0.1,20.4,30.1,20.4,30.1l43,6.8l24,40.4l12.6,7.5l-7.8,33.7l3.2,47.5l-0.3,0.3l0.4,0.7
		l3.7,54.4l-53.1-65.9l-33.7-17.8l-1.4,0.2l-17.9-9l-0.7-10.9l-41.2-24.2l-8.8-35.4L991.3-10l-11.4,5.7l-21.5,49l3.5,20.9L946.5,46
		l0.2-0.3l-0.4,0.1l-23.4-29.9l-7.8-35.7l-54.5-57.9L814.8-67l-28.4-20.5l-11.7-59.2l-5.1,12.3l13.9,52.1l31.3,26.8l37.3-15.2l30,27
		L906-7.3l-1.4,27l-81.3-9.4l-7.5-10.4l-19.1-7.2L813,5.8l1.9,3.4l-16.2-1.9l-19.9-26.5l-3.4-54.2l-6.8,8.7l3.4,15l0,39.2l9,15.7
		l-16.7-1.9L726-13l-46.1,3.8l-31.2-6.6l-18.9,8l20.3-1.4L684,2.3l36-7.6l0.4,0.2L704.5,9.3l-27.3,13.2l-3.8,30.2l-20.9,8.1
		c0,0.1-2.1,8.1-2.1,8.2c0-0.2,25.1-12.5,25.1-12.5L687,21.7l33.2-13.9l7.4-9.4L751.1,10l35.2,4.5l0.2,0.3l0.6-0.2l33.4,4.3l2.2,3.8
		l-51.4,31.5L753,79.8l-1.7,30.7l-13.9,23.5l16.8-17.6l3.8-32.8L771.4,67c7.9,2.4,20.2,6.4,20.2,6.4l30.1-18.2L855.3,68l11.3-1.9
		l3.9,9.3l-4,1.7l4.6-0.3l6.1,14.6l23.7,28.1l-0.1,0.3l0.6,0.3l27.2,32.3l-63.5-13.6l-29.3,6.5l-20.1,21.9l-24.9,7.9l23.5-1.4l23-22
		l26-4l75.3,16.5l43.3,51.4l6.8,63.3l-27.2-21.7L942,230.3l-19.1-7.2l16.2,13.2l18.4,32.5l31.8,19.6l0.4,1l5.1,47.5l51,104.2
		l-3.9-4.8l-14.6-32.3l-11.5-6.8l-19.4-28.3l-33.8,8.3l-42.2-19.1l-30-23.4l-4.9-5.3l3.8-41.4l-10.1-8.3l-5.3-6.7l-3.1-40
		l-21.1-34.3l-4.6-22.1l-2.3,21.7l15.5,32.3l7.4,38.2l-11.8-9.6l-54.7-5.5l-10.5,7.7l70.2,8.7l17,30.8l2.5,21.1l-7.9-8.5l-25.9-10.4
		l-25.1,8.8l-20.5-13.7l14.2,21.4l33.6-8l23.7,14.7l9.5,10.4l0.5,4.5l40.5,35.1l68.7,14.8l8.4,11.1l-26.1-6.3l-30.1,7.3l-13.3,26.8
		l-28.4,0.1l29.7,12.4l21-31.9l32-1.3l25.1,6.3l6.4,8.4l42.8,133.2l2,50.4l-55.4-33.2L954,536.6l-15.3-21.1l7.2-27.6l-16.3-18
		l10.1,22.2l-9.4,25.4l15.1,24.8l12.2,7.7l-20.4,0.2L918,531.1l0.2,0l-3.3-14l-25.1-27.9l5.5-33.1c0,0-18.2-22.5-18.1-22.6
		c0,0-1.8,7.4-1.9,7.4l16.1,17l-10.7,25.5l19.8,24.3l9.1,21.3l-19.6-2.8l-12.6-9l8.9,13.7l23,6.8l28.3,20.9l31.8,1.8l93.8,62.2
		l-2.8,90.4l-1.7-7.3l-18.6-18.6l12.4,23.9l5.9,47.3l22.3,32.3l0.5,5.8l-19.4-9.4l-28.6-26.1l-24.2,8.2l-8.5-13.3l-8.7-38.3
		l26.6-41.4l-12-33.7l0.8,38.3l-28.3,37.2l5.5,39l-5.2-5.5c-0.1,0-9.7,1.8-9.8,1.8c0.1-0.1,26.7,23.8,26.7,23.8l0.7-0.1l0.8,1
		l-28.6-6.1l-15.4-36.3l0.3,0.1l3.8-23.3l-18.3-52.1l27.6-50.6c0,0-11.9-41.3-11.7-41.5c-0.1,0-7,11.1-7.1,11.2l12.2,32.1l-30.2,37
		l13.1,44.7l0,36.6L917.7,719l-12.2-18.3l4.2,24.5l28.1,18.1l27,42l43.3,12.9l84,114.9l1,11l-43.1-32.2l-36.8-8.3L979.8,898
		l-32.4-4.3l27.7,11l36.8-12.9l31.8,9.3l50.8,38.3l1.4,14.7l27.1,70.2l-2.3,84.7l-15.4-29l-9.7-41.4l-18.6-18.6l12.4,23.9l5.9,47.3
		l24.9,36l-0.4,15.2l-13.5,47.2l10.6,37.5l-83.6,155.4l-10.8,86.8l-77.8,47.8l54,13.2l-33.6,66.2l61-31.6l10.4-25.4l42.5,10.4
		l1.7-74.2l-0.9-41.9l56.5-137.9l51.2,295.2l19.7-33l-61.3-292.2l46.8-174.7l-11.8-42.8l25.1-21.3l32.3-97.2l-36-50l6.5-45.4
		l56.5-45.9l-15.8,0.4l-47.8,44.8l-11.7,52.4l36.1,37.1l-12.6,51l-25.6,48.4l-12.6,5.5l-4.3-15.5l2-8.5l-3.2-90.6l15.1-48.2
		L1185.4,861.6z M1114.7,900.2l9.1-20.2l-3.4,37.8L1114.7,900.2z M1148.4,1043.1l-4.4,15.2l-2.2-36.2L1148.4,1043.1z M1142.4,946
		l-7.8-9.5l-4.3-50.3l-2.1-15.8l3.8-8.4l23.7-14.1l0.7,57.6l-11,31.3L1142.4,946z M1174,836.9l-1.6,23.1l-4.2,11.9l-1.1-30.9
		L1174,836.9z M1066.2,438.4l4.3-5.7l-4,9.3L1066.2,438.4z M1100.8,405.6l10.1,39.7l-0.6,6.2l-11.2,11.4l-5.8,30.3l0.4,46.3
		l-11.8-48l-12.8-32.9l21.2-51.7l4.3-5.6L1100.8,405.6z M1093.6,585.6l0.9,31.8l-8-23.2L1093.6,585.6z M1077.1,564.7l-4.2-48.8
		l13.6,39L1077.1,564.7z M1102.2,538.5l0-38.3l1.7-30.6l5.3-6.6l-6.8,75.2L1102.2,538.5z M1168.1,321.1c-0.1,1.1-0.2,1.7-0.2,1.7
		l35.5,38.2l-9.1,55.8l6.8,18.5l-86.4,90l6.4-76.9l5.3-6.5l-7.7-25.2l-0.2,7l-12.2-28.7l-5-2.9l46.7-61.5L1168.1,321.1z M992,132.4
		l15.2-1.1l1.7,11.9l-4.3,44.1L987,206.6l-72.3-83.8l1.3-33.9l1.9-2.7l2.8,1l36-7.6l1,0.5l33,32.2l14.8,8.1l0.8,5.6l-8.3,1.2
		l-30.4-12.7L992,132.4z M1002.8,101.7l0.9,6.2l-14.5-7.3l-4.9-6.3L1002.8,101.7z M950.4,72.9l-24.4,2l10.9-15.2L950.4,72.9z
		 M842.5,58.1l-28.7-9.2L792.4,69L775.5,62l51.6-31.2l4.3,7.6L863.2,58l0.2,0.4L842.5,58.1z M872.4,56.3l-37-29.6l-0.5-0.7l7.2-4.4
		l64.3,8.3l26,25.4l-2.8,5.7l-11.8,14.5l-1.2,0.1l-31.2-6.6l-5.7,2.4L872.4,56.3z M891.2,95.6L881.8,76l5-0.3l24.2,8.2l-5.5,6.8
		l-2.9,18.1L891.2,95.6z M1003,216.7l16.1-32.3l-3.6-53.6l8.1-0.6l39.1,21.3l59.2,74.2l5.9,86.7l-38.9,68.3l-11.3-44l0.2-42.7
		l-13.7-23l6.5,26.5l-4.8,44.1l-0.1-0.5l-5.5,35.6l22.1,15.7l-23.9,41.9l-57.4-107.1L1003,216.7z M1078.3,379l-4.9-2.8l-5.4-24.3
		L1078.3,379z M1022.3,408.2l2,2.5l13.2,38.7l16.7,15.7l1.6,40.1L1022.3,408.2z M1062.4,609l1.4-2.5l-0.1,3.3L1062.4,609z
		 M1071.4,752.3l5.5-120.8l6.2,4.1l6.4,19.8l-1.1,7.2l59.1,58.3l8.1,106.6l0.1,12.2l-29.4,14.9l0-0.4l0,0.4l-6.9,3.5l-6.8,11.2
		l-1.8-32l-9.1-23.4l-4-9.8l-0.2-3.3l-5.2-9.8l-14.3-34.8l0.9,9.5L1071.4,752.3z M1039.5,772.3l32.6,32.8l10.3,2.9l6.7,72.9
		l-40.5-49.5l-35.6-56.2L1039.5,772.3z M1118.8,1179.2l-0.1,5.1l-0.9-2.7L1118.8,1179.2z M1125.6,1280.1l-47.1,92.8l0-0.2
		l46.1-117.9l3.8,13.5L1125.6,1280.1z M1134.1,1230.7l8.8-22.4l-6.8,28.3L1134.1,1230.7z M1151,1174.4l-3.7-61l16.3-37.7l5.9,21.4
		L1151,1174.4z M1157.1,962.7l-1.3-4.9l1.2-3.9L1157.1,962.7z"/>
	<path clip-path="url(#SVGID_2_)" fill="#3A1A40" d="M630.8,37.9L596,34.8L564.2,50l-0.4-0.1l11.2-17.1l22.2-18.4l-4.3-29l17.5-12.3
		c0,0-0.1-8-0.2-8.1c0.1,0.1-20.3,17.2-20.3,17.2l-1.7,35.1l-27.5,20.4l-4.5,10.4l-25-5.5l-34.2,3.7l-0.2-0.2l-0.5,0.3l-39.2,4.2
		L500.7,6l10.4-27.8l-6.4-28.9l6.9-25l-11.2,20.2l4.9,31.4L494.8-0.5l-52.2,52.7L380.1,59l-52.5-30l31-10.2l31-0.9l15.6-11.7
		l-18.7,5.9L351.8,9L320,24.2l-1-0.2L279.6,1.4L168.4-15.8c2.2-2.6,3.8-4.4,3.8-4.3c-0.1,0-12.3,0.8-12.4,0.8l-1.4,2l-3.2-0.5
		l1.8,2.4L141.8,6.3L97,4.1L69.8,36.9L44.1,54.4l-0.2-0.6L65.7,8.2l-6.5-47.4l8.1-26.5l-17.2,23l0.2,42.7L31.1,59.8l12.1,54.4
		L41,136.7l-20-15.6l-56.6-9.4l-20.6-8l-14.6,6.9L6.5,128l32.2,32.6l-14,142.6l-38.4-4.5c-1.5-11.4-3-23.6-2.9-23.6
		c-0.1,0-10.9,8.1-11,8.1l1.2,4.9l-33.3-29.6l-30-46.1l33.1-45.5L-86,119.2l-71-30.8l-19.3,3.8l81.9,29.6l21,42.3l-29.2,57.9
		l67.3,85.7l14.8,5.6l1.1,4.6L-41.6,330l0-0.6l-22.9-26.3l-30-14.5l-12.3-9.5l-4.9,4.8l42.2,24l20,26.3l-14.7,8l6.6,47l-7.1,31.8
		l-0.7-0.6l-24.4-55.9l-53.1-40.9l-18.4-29.8l6.3,31.8l42.4,40.1l40.9,67.8l74.9,71.9l-129-25.3l-33.1,7.9L-175,487l-0.4,10.3
		l49.2-6.7l150.4,35.3l1.3,1.2l-1.8,1.7l-7,54.5l-6.1,14.4l-18.9,8.5l-0.6-3.1l-54.6-91.2l-16.9-9.3l62.7,107.9l-35.6,16l2.3,2.9
		l-33.3-31.2l-12-45l-0.5,42.3l42,45.4l14.7,51l17.5,72.4l-12.8,59.9l-0.5,0.1l0.5,0.2l-8.3,38.8l-9.5-34l-59.9-44.8l-19.8-0.4
		l70.8,45.9l8.1,45.4l-45.1,50l40.4,97.2l17.9,12.1l-1.3,3.3l28.7,200.8L2,1296.7l-6.5,15.7l13.1,35.7l4-11.4l53.2,199l54.9,43.1
		l-12-34.6l159.8-31.2l-97.4-47.8l-13.5-86.8L52.8,1222.9l13.2-37.5l-17-47.2l-0.5-15.2l31.2-36l7.4-47.3l15.5-23.9l-23.3,18.6
		l-12.1,41.4l-19.3,29l-2.9-84.7l34-70.2l1.7-14.7l63.6-38.3l39.8-9.3l46.1,12.9l34.7-11l-40.5,4.3l-41.9-14.4l-46.1,8.3l-54,32.2
		l6-52.1l77.3-80l42.8-4l30.4-35.8l28.8-12.1l6.6-23.2l-13.6,15.5l-25.7,5.4l3.9-35.9l17.3-41.2l-24.9-42.2l15.2-29
		c-0.1-0.1-5.5-12.3-5.5-12.3c0.2,0.2-15.6,38.3-15.6,38.3l20.9,55.1l-23.1,47.4l1.1,23.6l0.3,0L213.3,757l-13.2,11.1l-15.8-4.3
		l7.3-7.1l10.7-41.9l-23-42.1l4.9-37.4L169,666l21,45.8l-12.4,35.8l-9.8,11.7l-10.4-2.8l-35.9,26.1L97.2,792l0.7-5.8l27.9-32.3
		l7.4-47.3l15.5-23.9l-23.3,18.6l-2.1,7.3l-4.1-106.3l4.6,6.4l2-38.7l143.6-44.4l39.4,5.8l38.4-13.8l29.5-1.2l13.2-11.4l-17,5.9
		l-24.6-1.9l14.8-18.8l28.4-19.2l-8.9-27.6l22.6-13c0,0-1-7.7-1.1-7.8c0.1,0.1-26,17.9-26,17.9l1.3,33.9L344,495.9l-6.4,13l0.2,0
		L311,523.2l-25.1-5.1l16.3-4.7l22.7-20.8l-7.3-27.2l16.1-19.4l-23.1,13.9l4.3,28.9l-22.3,17.2L224.1,531l-66.6,17.7l29.4-14.3
		l32.9-32l-6.7-45.4l18.3-56.1l21.9-39.7l4.9-6.5l37.4,5.9l7.7-13.4l6.2-6.9l36.4-3.4l31.6-27.6l20.1-5.7l-19.6-3.5l-29.6,20.2
		l-34.8,9.3l9-15.6l6.3-73.2l-6.7-14.2l-9.6,93.9l-28.3,22.2l-19.2,3l7.9-10.4l10.1-34.5l-7.4-33.8l12.9-27.2l-9.7,9.1l4.4-46.5
		l26.6-22.8l55.6,2.8l-9.3-8l-50,1.1L273,199.7l2.1,40l-32.9,22.8l-39.1,14.6l-23.3-7.8l42.9-100.5l29.3-13.1l48.6,9.7l-5.6-8.8
		l-14.2-0.3l-34.5-9.4l-16.5,5l6.8-15.8l26-33.5l10.6-45.9l15.3-28.9l-0.9-13.2l80.6,61.1l16.6,31.4l66.2,41.7l40.3-20.3l31.9,12.7
		l26.3,52.4l1.6-12.6l-26.6-45.3l-36.4-17.9l-31,22.5L422,122l-31.8-28.3l-5.7-25.4L487,55.9L512.6,76l17.2,49.6l4.2-9.6l-7-13.2
		l-10.2-36.5l-12.5-12.6l16.2-2l40.2,6.6l42.3-13.9l31-0.9L649.5,32L630.8,37.9z M181.5,132.7l15.4,75l-26.7,60.8l-51.1,32.7
		l7.8-33.7l15.3-28.9l-1.3-20.3l-4.9,20.2l-20.4,30.3l-0.3,2.9l-13.4,18l0.1,22.6l-29.5,18.9l-8.6,11.3L39.1,308l7.3-86.7l78.5-78.5
		l35.9-17.4l16.8,1L181.5,132.7z M117.6,418l-21.3-29.8l7.8-4.5l14.8,20.8L117.6,418z M26.5,931.9l4.7-4.8l-4.3,39.7l-26.1,64.5
		l-12.6-4.4L26.5,931.9z M21.6,1017.9l-2.7,36.2l-5.5-15.2L21.6,1017.9z M48,909.6l3.5-3.6l-3.1,7.5L48,909.6z M45.1,884.3l-1-8.5
		l3.5,6.2L45.1,884.3z M36,881.9l-1.3,12l-13.2,12.1l-1.8-9.6l-11-50.7l25.1,12l4.8,8.4L36,881.9z M115.9,435l-12.2,72.3l-1.1,2.1
		l-10.9,42.1l-21-17.5L60.3,441L73,401.4l7.8-4.5l35.2,37L115.9,435z M106.3,372.4l1.5-11.9l6.1-12.9l-6.8,24.3L106.3,372.4z
		 M102,332.4l-14.1,44l-18-25.3L83,332.5l19-8.9L102,332.4z M111.9,301l-1.1-7.8l3.1-10.1L111.9,301z M-55.6,356.8l44.5-38.2
		c0,0-0.1-0.6-0.2-1.7l25.1,9.6l34.5,36.2l-55.3,72.6l19.5-3l43.5-61.6L72.3,388l-6.3,2.9l-20.2,37.9l9.6,92.3l-108.1-90l8.6-18.5
		L-55.6,356.8z M30.7,539.9l2.3-5.6l37.8,36.2l-41.9,18.9L30.7,539.9z M-1.2,625.7l-2.1,4.9L-4,627L-1.2,625.7z M-50.9,629.5
		l11.6,14.6l27-13.1l-3.5,45.5l1.8,45.9l-3.1,15.8l-13.7-58.4L-50.9,629.5z M-10.4,814.7l0.1,3.8l1.9,10.1l-9.8-6.7l4.1-22.3
		L-10.4,814.7z M-36,1018.4L-68.1,970l-15.8-51l34.2-28.1l-5,23.2l7.5,65.3L-20,832l13.4,6.4l14.1,76.5L-34.3,1019L-36,1018.4z
		 M1.5,1236.6l-22.2-188.1l4.2,2.8l31.2,57.7l-5.4,72.4l22,44.9L13.1,1270L1.5,1236.6z M100.8,1368.4l-2.7,103.2l1.3,46l-74.8-214.7
		l18.5-52.4L100.8,1368.4z M51.7,1177.4l-1.1,2.7l-0.2-5.1L51.7,1177.4z M53,937.4l0.6-1.4l-0.1,1.1L53,937.4z M108.8,800.9
		l40.8-32.8l10.1,0.9l-36.2,43.4l-32,29.4l4.4-37.9L108.8,800.9z M83.9,786.8l-6.5,9.8l-0.2,3.3l-5,9.8l-11.4,23.4l-2.2,32
		l-8.6-11.2l-8.7-3.5l0-0.4l-0.1,0.4L6.6,836.5l-4.5-20.8L7,703.5l16.7-62.1l77.7-40.8l8.4,147.5l-9,13.6l1.1-9.5L83.9,786.8z
		 M127.1,545.2l3-58.4l30.7-46.6l3.1-13.8l1.5-3.1l17.8,18l0.4,42.8l-6.3,33.5l-7.8,8.4L127.1,545.2z M214.9,401.9l-15.1,91.7
		l-10.2,11l6.4-34.8l-5.9-40.4l-17.5-13.3l31.6-15.7l22.6-35l18-12.4L214.9,401.9z M211.3,289.1l65.1-37.9l-7.7,7.2l6.5,45.2
		l-13.9,31.5l-9.6,12.6l-4.1,0.6l-2.6,4.2l-21,5.5l-23.3,28.4l-32.7,22l3.6-16l-5-15l0.1-4.3l-0.7,2.4l-14.4-42.9l-12.2-8.2
		l21.4,68.3l-6.1,20.1l0.6,0.6l-12.9,17.8l-10.6,20.9l0.7-13l-4.9-6.8l0.4-2l-2.1-31.2l-15.9-18.6l13.9-7.9l-6.8-35.6l-0.1,0.5
		l-2.7-19.5l63.4-29.7L211.3,289.1z M282.3,27.7l-20.4,30.3l-4.2,37l-0.3,0.3l-7.9-19l-3.4-29.8l-25.4-11l-0.8-22.3
		c-0.1,0-6.5-4-6.6-4c0.2,0,3.4,27.5,3.4,27.5l27.2,19.6l2.2,35.8l6,9.4l-17.3,20.1l-14.6,33.3l-0.3,0.1l0,0.6l-16.8,38.1
		l-13.3-63.1l-2.7-3.7l22.1,1.3l30.5-18l-38,12.7l-18.9-2.2l-9.9-13.9l-26.5-9l-16.4-19.2l10.4,20.7l27.7,11.6l5.4,8.7l-16.5-1.9
		l-42.2,17.8l-66.5,65.9l4.6-54.4l0.5-0.7l-0.4-0.3l4-47.5l-9.8-33.7l15.7-7.5l30.1-40.4l53.8-6.8c0,0,8.4-10,15.6-18.5l5.3,7
		L284,11.9l1.8,1.4L282.3,27.7z"/>
</g>
<g>
	<polygon fill="#392A61" points="701.9,1344.8 706.8,1332.7 714.7,1334.3 709.9,1347.2 721.5,1350.7 718.1,1361.4 706.1,1357.1 
		694.7,1387.4 694.7,1387.4 694.6,1387.7 693.4,1387.6 693.4,1387.6 685,1387 698.1,1354.3 686.2,1350.1 689.7,1341.1 	"/>
	<polygon fill="#392A61" points="355.6,1373.4 356.5,1359.1 365.4,1358 364.7,1373.2 378.1,1372.8 378.3,1385.1 364.2,1384.9 
		362.7,1420.5 362.7,1420.5 362.7,1420.8 361.5,1421.1 361.5,1421.1 352.4,1423.4 354.9,1384.7 341,1384.4 341.6,1373.7 	"/>
	<path fill="#392A61" d="M516.4,1339.2c-2,0.2-4.1,0.5-6.1,0.9c-1.3-4.8-3.2-9.4-3.3-14.5c0-1.4-2-1.3-2.1,0
		c-0.4,5.1,0.5,10.3,1.4,15.4c-2.4,0.6-4.8,1.3-7.2,2c-0.4-2.3-0.7-4.6-1-6.8c-0.6-4-7.5-3.4-7.1,0.7c0.2,2.6,1.2,5.2,2,7.8
		c-2.6,0.7-5.3,1.5-7.9,2.2c-1-2.9-2-5.7-2.1-8.8c0-1.2-2-1.1-2.1,0c-0.3,3.2,0.1,6.5,0.7,9.8c-1.9,0.5-3.7,1.1-5.6,1.7
		c-0.9,0.3-1.8,0.5-2.7,0.8c-1.1-4.2-2.3-8.2-2.5-12.5c-0.1-1.5-2.5-1.7-2.6-0.2c-0.4,4.8,0.6,9,1.3,13.7c-4.4,1.1-8.8,2.1-13.3,3.1
		c-0.2,0-0.4,0.1-0.6,0.1c-0.6-2.1-1.3-4.2-1.8-6.4c-0.4-1.4-0.5-2.3-1.6-3.3c-1.3-1.3-3.1,0.2-2.5,1.8c0.4,1.1,0.2,3.5,0.4,4.7
		c0.2,1.3,0.5,2.7,0.7,4c-4.8,0.5-9.4,0-14.2-2.1c-1.2-0.5-1.8,1.7-0.6,2.2c5.1,2,9.9,2.8,15.1,2.4c0.2,2.8,0.2,5.6,0.6,8.3
		c0.8,5.7,2.1,11.3,3,17c0.7,4.4,7.7,3.5,6.8-0.8c-1.6-8.5-3.6-16.8-5.2-25.3c4.6-0.8,9.2-1.8,13.8-2.9c0.6,4.9,1,10,2.2,14.8
		c0.7,2.8,5.4,3,5.4-0.3c-0.1-5.1-2.1-10.6-3.4-15.6c1.1-0.3,2.2-0.6,3.3-0.9c1.6-0.5,3.3-0.9,5-1.4c0.6,2.9,1.2,5.8,1.5,8.6
		c0.7,6.7,1.3,13.1,3.1,19.5c0.9,3.4,5.9,1.9,5.8-1.3c-0.1-2.7-1.4-5.2-2.1-7.8c-0.9-3.3-1.3-6.6-2-10c-0.6-3.3-1.3-6.6-2.3-9.8
		c0-0.1-0.1-0.2-0.1-0.3c2.5-0.7,5.1-1.4,7.6-2c0.6,2.5,1.2,4.9,1.8,7.4c1.6,6.5,3.5,13.4,3.7,20.1c0,1.6,2.3,1.5,2.7,0.1
		c1.8-6.6-0.2-15.3-1.2-21.9c-0.4-2.4-0.7-4.9-1.1-7.3c2.4-0.7,4.8-1.4,7.2-2c0.4,2.3,0.7,4.5,0.9,6.8c0.7,7.9,1.3,15.5,3.1,23.2
		c0.9,4,5.9,2.2,5.8-1.6c-0.1-3.2-1.4-6.2-2.1-9.3c-0.9-3.9-1.3-7.9-2-11.8c-0.4-2.7-0.9-5.5-1.5-8.2c1.8-0.3,3.6-0.5,5.4-0.6
		C519,1342.9,518.8,1339,516.4,1339.2z"/>
	<path fill="#392A61" d="M832.9,1393.4c-4.3,0.2-8.7,0.1-13,0c0-3.3,0.1-6.6-0.1-9.9c-0.1-2-3.1-2.2-3.2-0.1
		c-0.1,3.3-0.4,6.6-0.7,9.9c-3-0.1-6-0.3-8.9-0.4c-0.2-1.8-0.3-3.7-0.4-5.5c-0.1-1.6-0.9-4.4-0.4-6c0.6-1.7-1.8-2.7-2.6-1.1
		c-1.4,2.7-0.5,7.4-0.5,10.4c0,0.7,0,1.4,0,2.1c-2.7-0.1-5.3-0.1-8-0.1c-0.1-2-0.2-4-0.4-6c-0.1-1.5-2.3-1.6-2.3,0
		c0,2-0.1,4.1-0.3,6.1c-2.4,0-4.7,0.1-7.1,0.1c-0.1-1.3-0.2-2.6-0.3-3.9c-0.1-1.4-0.8-3.6-0.1-4.9c0.8-1.5-1.2-3.3-2.5-2.3
		c-2.7,2-1.7,7.8-1.5,11.1c-0.3,0-0.6,0-0.9,0c-3.9,0-7.6-0.5-11.4-1.1c-0.6-3.4-1.1-6.8-1.3-10.2c-0.1-1.1-1.9-1.1-1.9,0
		c0,3.2,0.1,6.5,0.2,9.7c-4.1-0.8-8.2-1.7-12.5-2.4c-0.3,0-0.5-0.1-0.8-0.1c-0.4-2.7-0.7-5.3-1-8c-0.2-1.9-3-1.4-2.9,0.4
		c0.1,2.4,0.2,4.7,0.3,7.1c-1.4-0.2-2.8-0.3-4.2-0.4c-0.4-4.1-1-8.3-1.5-12.4c-0.2-1.8-3.1-1.5-3.1,0.3c0,3.8-0.1,7.6-0.2,11.5
		c-3.8-0.6-7.7-1.3-11.5-1.5c-2.1-0.1-2.1,2.8,0,2.8c3.8,0,7.6,0.8,11.4,1.5c0,0.7,0,1.3-0.1,2c-0.2,3.5,0.1,6.9-0.6,10.4
		c-0.6,2.9-0.3,15.8,0.6,18.6c0.9,2.9,5,1.8,5.5-0.7c1-6.2,0.2-23.2-0.3-29.4c1.4,0.2,2.7,0.4,4,0.6c0.3,6.8,1.2,24.4,2.1,31.1
		c0.4,3.3,5.6,3.3,5.3-0.1c-0.6-6.6-2.5-23.8-3.5-30.3c0.9,0.2,1.8,0.4,2.7,0.6c3.5,0.9,6.8,1.7,10.2,2.3c0.3,7.3,1.4,25.3,0.8,32.7
		c-0.3,3,3.9,3.6,4.6,0.7c1.4-5.4-1.1-22.2-1.4-27.7c-0.1-1.7-0.3-3.4-0.5-5.1c3.6,0.6,7.2,1,11,1c0.3,0,0.5,0,0.8,0
		c0.1,2.8,0.3,5.6,0.2,8.4c-0.1,3.7,0,18,0.3,21.6c0.3,3.3,5.5,3.3,5.2,0c-0.6-6,0.1-22.6-0.8-28.6c-0.1-0.5-0.1-0.9-0.2-1.4
		c2.1,0,4.3,0,6.4,0c-0.7,7.1-0.9,24.8-0.2,31.9c0.3,3.1,5.2,2.3,4.8-0.8c-0.7-6.8-1.2-24.3-1.2-31.1c2.6,0,5.2,0,7.8,0.1
		c-0.1,1.8-0.1,3.5,0,5.3c0.1,1.5,1.9,2.9,3.3,1.8l0.1,0c0.7-0.5,1-1.2,1-1.9l0,0c0.1-1.7,0.1-3.4,0-5.1c0.1,0,0.2,0,0.3,0
		c2.7,0.1,5.3,0.2,8,0.3c-0.1,0.7-0.1,1.5-0.2,2.2c-0.2,2.7,0.4,5.6,0.2,8.3c-0.2,2.5-0.4,14.4,0.3,17c0.7,2.8,5.4,2.4,5.1-0.7
		c-0.2-2-0.4-14.5-0.4-16.5c-0.1-2.3-0.7-4.4-0.8-6.7c0-1.2,0-2.3,0-3.5c4.3,0.2,8.6,0.3,12.8,0.1
		C835.3,1397.3,835.5,1393.3,832.9,1393.4z"/>
	<path fill="#392A61" d="M859.6,1384.2c1,16,0.4,66.4,2.7,66.3c12.2-0.5,49-9.7,49-9.7s-14.8-54.3-16.1-63.3
		C893.4,1365.3,858.5,1365.2,859.6,1384.2z"/>
</g>
<g>
	<path opacity="0.5" fill="#392A61" d="M94.4,1183.6l-27.5-10l5.6-2.3l24.2,10.9l13,19.7l-6.2,20.9l13.1,19l17.2,15.9l12.4,0.7
		l-7.8-62.4l-12.6-13l-25-4.9l3.9-3.5l6.9,2.8l18,2.1l7.4,6.1l-1.2-9.8l-8.3-23.2l0.8-26.7l-3.7-18.5l3.3-10.6l-0.2,11.8l6,20.4
		l-2.8,20.6l0.1,0.2l6.3-8.5l5.5-15.2l13.8-0.6l3.3-11.7c0,0,3.7-0.8,3.7-0.8c-0.1,0-5.2,14-5.2,14l-15.8,4.8l-5.7,18.6l-4.2,3.8
		l5.8,14.3l2.8,20.8l0.1,0.1l-0.1,0.3l3.2,23.8l14.7-30.9l0.3-0.3l-14.1-9.6l17.3,7l7.8-6.3l14.1,0.7l10.5-6.8l-7.8,8.9l-15,0.5
		l-3.9,3.7l19.1-1.8l21.7,10.8l35,38.5l-3.4-30.9l-0.3-0.4l0.2-0.2l-3-27l4.3-18.9l-8.1-4.5l-16-23.4l-27.4-4.8
		c0,0-13.4-17.6-13.5-17.5c0,0,6.3,0.7,6.3,0.7l9.6,14.8l22.6-0.4l14.4,19.1l13.4,10.4l0.1-0.3l-11.9-26.3l2.4-26.8l-4.6-15.2
		l9.2,13.3l0.7,24.2l10.9,34.3l-5.1,30.6l1.6,12.8l9.8-8.5l28.5-4.3l10.3-4.2l7.5,4.2l-38.7,8.5l-15.7,17.9l9.9,81.1l19.8-1.9
		l22.1-21.9l14.3-25.6l-17.7-26.4l13.9-26.5l35.4-16.2l9.9,2.5l-40.9,15.3l-9.8,23.6L321,1242l-32.4,47.3l-24.5,9.7l-49.8,59.2
		l10.6,81.1l-11.1,17.6l-6.1-76.4l-1.2-0.7l-21.4-67.8l-40.4-43.2l-16.6-6.5l-27.8-34.9l4-26.2L94.4,1183.6z M190.4,1313.5
		l16.2,46.3l17-27.5l0.2-0.8l-11.9-26.3l2.4-26.8l-4.6-15.2l9.2,13.3l0.7,24.2l8,25.2l23.4-37.8l-5.4-49.3l-41.3-45.9l-18.5-10.5
		l-20.5,0.6l-2.2,2.1l-17.3,36.8l5.1,37.9l20.6,28l0.6-19.6l-3.7-18.5l3.3-10.6l-0.2,11.8l6,20.4l-2.8,20.6l0.2,0.6L190.4,1313.5z"
		/>
	<path opacity="0.5" fill="#392A61" d="M852,1219.8l-28.4-7.1l5.3-2.9l25.3,8.3l15,18.2l-4,21.4l15,17.5l18.7,14l12.4-0.7
		l-14.4-61.3l-13.9-11.6l-25.4-2.2l3.5-3.9l7.2,2l18.2,0.2l8,5.3l-2.3-9.7l-10.7-22.2l-2-26.6l-5.6-18.1l2.2-10.8l1,11.7l8.1,19.6
		l-0.6,20.8l0.1,0.2l5.4-9.1l3.9-15.7l13.7-2.1l2.1-12c0,0,3.6-1.2,3.6-1.2c-0.1,0-3.7,14.4-3.7,14.4l-15.2,6.5l-3.7,19.1l-3.7,4.2
		l7.3,13.6l5,20.3l0.2,0.1l0,0.3l5.7,23.3l11.3-32.3l0.3-0.3l-15.1-8.1l18,5.1l7.1-7.1l14.1-0.8l9.7-7.9l-6.8,9.6l-14.9,2l-3.5,4.1
		l18.8-3.8l22.8,8.5l38.8,34.6l-6.6-30.4l-0.3-0.4l0.2-0.2l-5.8-26.5l2.3-19.3l-8.5-3.6l-18.4-21.6l-27.8-1.9c0,0-15.2-16.1-15.3-16
		c0,0,6.3,0,6.3,0l11.1,13.7l22.5-2.8l16.4,17.5l14.4,8.9l0-0.3l-14.6-24.9L981,1113l-6.2-14.6l10.5,12.3l3.3,24l14.5,32.9l-1.8,31
		l2.9,12.5l8.9-9.5l27.9-7.3l9.8-5.2l7.9,3.4l-37.6,12.5l-13.7,19.4l18.4,79.6l19.5-4l19.6-24.1l11.5-26.9l-20.4-24.4l11-27.8
		l33.5-19.8l10.1,1.5l-39.1,19.5l-7.3,24.5l19.4,31.5l-27.2,50.5l-23.4,12.3l-43.3,64.1l19.1,79.5l-9.1,18.7l-14.1-75.4l-1.3-0.6
		l-28.5-65.2l-44.7-38.7l-17.2-4.7l-31.3-31.8l1.2-26.4L852,1219.8z M961.2,1338.8l21,44.3l14-29.2l0.1-0.8l-14.6-24.9l-0.5-26.9
		l-6.2-14.6l10.5,12.3l3.3,24l10.6,24.2l19.2-40.1l-10.6-48.4l-45.9-41.3l-19.5-8.5l-20.3,2.8l-2,2.3l-13.3,38.4l9.1,37.2l23.5,25.6
		l-1.5-19.5l-5.6-18.1l2.2-10.8l1,11.7l8.1,19.6l-0.6,20.8l0.3,0.6L961.2,1338.8z"/>
	<path opacity="0.5" fill="#392A61" d="M504.6,1267.8l-3.4-0.8l-13.1,6.6l-5.9,10.2l5.3,9.6l-6,9.8l-8.6,8.6l-7.1,1l-0.6-30.3l6.2-7
		l14-3.8l-2.5-1.5l-3.8,1.7l-10.2,2.1l-3.8,3.3l-0.1-4.8l2.9-11.6l-2.7-12.7l0.6-9.1l-2.8-4.9l1.1,5.6l-1.8,10.1l3.3,9.7l0,0.1
		l-4.4-3.7l-4.4-7l-8,0.5l-2.9-5.4c0,0-2.2-0.2-2.2-0.2c0,0,4.2,6.4,4.2,6.4l9.5,1.4l4.8,8.6l2.7,1.6l-2.2,7.2l0.1,10.1l-0.1,0.1
		l0.1,0.2l0.1,11.6l-11-13.9l-0.2-0.1l7.4-5.4l-9.4,4.4l-5-2.6l-8.1,1.1l-6.6-2.7l5.2,3.8l8.7-0.7l2.6,1.5l-11.2,0.3l-11.7,6.4
		l-17,20.5l-0.6-15l0.1-0.2l-0.1-0.1l-0.5-13.1l-4-8.8l4.3-2.6l7.3-12.2l15.4-3.9c0,0,6.3-9.2,6.4-9.2c0,0-3.6,0.7-3.6,0.7l-4.3,7.7
		l-13.1,1.1l-6.8,10l-6.9,5.8l-0.1-0.2l4.7-13.3l-3.6-12.7l1.4-7.5l-4.2,6.9l1.6,11.6l-3.5,17l5.5,14.4l0.2,6.2l-6.4-3.5l-16.8-0.4
		l-6.3-1.4l-4,2.4l23.1,1.8l10.5,7.6l1,39.4l-11.6,0.2l-14.6-9.2l-10.4-11.4l8-13.6l-10.2-11.9l-21.8-5.7l-5.5,1.8l24.9,4.9
		l7.6,10.7l-6.5,16.9l22.6,20.8l15,3.2l33.7,25.4l0.6,39.4l7.8,7.8l-2.8-36.9l0.6-0.4l6.8-33.7l19.8-23l9-4l13.2-18.3l-4.5-12.3
		l4.3-9L504.6,1267.8z M444.7,1341.9l-5.6,23.1l-12.1-12.2l-0.2-0.4l4.7-13.3l-3.6-12.7l1.4-7.5l-4.2,6.9l1.6,11.6l-2.6,12.5
		l-16.6-16.8l-0.9-23.9l20.1-24.4l9.8-6.1l11.9-0.9l1.5,0.9l13,16.6l0.2,18.4l-9.6,14.6l-1.9-9.3l0.6-9.1l-2.8-4.9l1.1,5.6
		l-1.8,10.1l3.3,9.7l-0.1,0.3L444.7,1341.9z"/>
	<path opacity="0.5" fill="#392A61" d="M886.8,1333l-2.7-3.1l-17.1-2.9l-12.7,5.5l-1.7,12.9l-12.6,5.1l-14.2,2.1l-7.4-4l20.7-29.1
		l10.7-2.3l15.9,6.2l-1.4-3.1l-4.8-1l-11.1-5.2l-5.9,0.5l3.3-4.6l10.9-8.9l6.4-13.9l6.9-8.2l0.8-6.5l-2.9,6.1l-8.8,8.3l-3.7,11.5
		l-0.1,0.1l-1.5-6.6l0.7-9.7l-8-5.1l1.1-7.2c0,0-2-1.7-2-1.7c0.1,0-0.5,9-0.5,9l8.1,8l-1.4,11.5l1.5,3.4l-7.1,5.3l-7,9.6l-0.1,0
		l0,0.2l-8,11l-0.7-20.9l-0.1-0.3l10.8,0l-12-2.5l-3-5.9l-8.4-4.6l-4.4-7.2l2.3,7.2l8.7,5.5l1.4,3.2l-10.7-7.6l-15.6-2.1l-30.4,7.4
		l9.9-14.6l0.3-0.1l-0.1-0.1l8.7-12.7l2.3-11.2l5.9,0.5l15.4-6.4l17.3,7.1c0,0,12.4-4.3,12.4-4.2c0,0-3.9-1.8-3.9-1.9l-9.5,4.2
		l-13.2-8.1l-13.4,4.7l-10.5,0.6l0-0.2l13.8-9.2l5.5-14.5l6.6-6.1l-8.8,3.6l-6.6,12.1l-15.2,13.7l-4.9,17.4l-4.2,6l-3.6-7.8
		l-15.6-12.2l-5-5.7l-5.5-0.5l20.6,17.9l4.6,14.6l-26.6,38l-11.2-7.9l-7.3-18.9l-1.8-18.1l17.2-7.3l-1.4-18.4l-16.6-20.6l-6.4-2.2
		l20.1,22.1l-0.3,15.5l-17.9,11.5l6.9,35.5l11.9,13.6l14,47.6l-27.1,37.7l2,12.9l23.2-36.9l0.9,0l30-27.1l34.8-8l11.4,2.5l25.3-8.1
		l4.4-14.8l10.4-5.5L886.8,1333z M778.3,1361.2l-21.4,18l-2.9-20l0.1-0.5l13.8-9.2l5.5-14.5l6.6-6.1l-8.8,3.6l-6.6,12.1l-11.2,10
		l-4-27.5l15.8-23.3l36-9l13.6,1.1l11.9,7.5l0.8,1.8l0.7,24.8l-12.8,17.6l-19.3,7.1l4.7-10.2l6.9-8.2l0.8-6.5l-2.9,6.1l-8.8,8.3
		l-3.7,11.5l-0.3,0.2L778.3,1361.2z"/>
</g>
<g>
	<polygon fill="#3A1A40" points="981.8,1313.1 993.2,1270.6 1020,1272.7 1008.9,1318.2 1048.7,1325.6 1041.5,1363 1000.3,1353.3 
		974.1,1460.3 974.1,1460.3 973.8,1461.2 970.1,1461.4 970.1,1461.4 941.9,1462.5 972.8,1346.9 932.1,1337.4 940.1,1305.4 	"/>
	<polygon fill="#3A1A40" points="131.2,1308.9 138.9,1283.4 121.7,1275.5 112.8,1302.4 85.9,1292.8 77.3,1314.2 106,1323.2 
		85,1386.4 85,1386.4 84.8,1387 87.1,1388.3 87.1,1388.3 104,1398.3 125,1329.1 153.3,1337.9 159.4,1318.9 	"/>
	<path fill="#3A1A40" d="M265,1321.6c1.5,26.2,0.6,108.7,4.2,108.5c19.5-0.9,78.3-15.9,78.3-15.9s-23.6-88.9-25.7-103.7
		C319,1290.8,263.2,1290.5,265,1321.6z"/>
	<path fill="#3A1A40" d="M185.4,1365.9c-2.9,19.6-16.1,80.5-13.4,80.9c14.5,2.5,60.3,0.8,60.3,0.8s-3.9-69.5-3.2-80.8
		C230.1,1351.8,188.8,1342.6,185.4,1365.9z"/>
	<path fill="#3A1A40" d="M1127,1361c-3.1,21.5-17.7,88.3-14.7,88.8c15.9,2.7,66.2,0.8,66.2,0.8s-4.3-76.3-3.5-88.6
		C1176,1345.4,1130.8,1335.4,1127,1361z"/>
	<g>
		<path fill="#3A1A40" d="M1199.3,1800H2.5v-450.7c0,0,76.2,21.2,113.1,36.9c11.4,4.9,51.6,40.1,68.7,40.1c36.2,0,140-20.3,198.4-26
			c12-1.2,28.8-30.7,32.5-30.3c40.3,4.5,100.8-6.3,112.3-31.1c3.2-7,112.7,3.8,148.9,10.3c31.8,5.7,4.9,60.7,109.8,58.3
			c22.1-0.5,164.3,17.4,168.7,25.3c16.7,30,137.6,2.5,150.7-6.5c59.3-41,93.7-34.9,93.7-34.9V1800z"/>
		<g>
			<path fill="#3A1A40" d="M707,1087.6c0,0-29.7,46.9-51.8,64.6l8.7-36.2c0,0,8.9,0.4,14.7-4.8c-13.5,0.4-24.7-64.4-24.7-64.4
				s-32.6,54.6-46.8,52.7c9.7,7.2,15.4,8.5,15.4,8.5l-2.5,17c-3.6-9.1-5.8-15-5.8-15s-5.1,13.6-12.9,31l-1.3-52.1
				c0,0,13.8-3.6,20.4-14.2c-20.5,6.9-66-87.1-66-87.1s-25.8,98.5-48.5,102.2c18,6.5,27.3,5.9,27.3,5.9l13.4,73.6
				c-3.1,9-7.4,20.4-12.2,31.4l-7.9-41.4c0,0,9-3.7,12.5-11.5c-13.2,6.6-52.5-52.8-52.5-52.8s-8.7,69.1-23.7,73.7
				c12.8,2.7,19,1.4,19,1.4l48.3,179.2h146.1l41.8-165.5c0,0,12.3,0.8,20.6-6.1C720,1177.7,707,1087.6,707,1087.6z M651.8,1166.5
				c6.1,3.6,9.5,4.5,9.5,4.5l-4.8,27.4c-3-4.2-6-9-8.9-14.2L651.8,1166.5z"/>
			<path fill="#F49F1C" d="M565.8,1135.4l13.6-2.5c0,0-0.4-24.8-6.3-28.7C568.1,1101.1,554.9,1102.8,565.8,1135.4z"/>
			<path fill="#F49F1C" d="M506.3,1204.4l13.6-2.5c0,0-0.4-24.8-6.3-28.7C508.7,1170.1,495.5,1171.8,506.3,1204.4z"/>
			<path fill="#F49F1C" d="M690.6,1220.5l-13.5-4.3c0,0,3.4-24.6,9.9-27.6C692.4,1186.1,705.6,1189.6,690.6,1220.5z"/>
			<path fill="#F49F1C" d="M674.3,1282.9l-13.5-4.3c0,0,3.4-24.6,9.9-27.6C676.2,1248.5,689.3,1252,674.3,1282.9z"/>
			<path fill="#F49F1C" d="M639,1155.6l-13.5-4.3c0,0,3.4-24.6,9.9-27.6C640.9,1121.3,654,1124.8,639,1155.6z"/>
			<path fill="#F49F1C" d="M622.4,1233.4l-17.3,0.1c0,0-5-29.9,1.5-35.9C611.9,1192.6,628.6,1191.7,622.4,1233.4z"/>
			<path fill="#F49F1C" d="M618.2,1336.7l-28.9,0.2c0,0-8.4-50.1,2.4-60.2C600.6,1268.5,628.5,1266.8,618.2,1336.7z"/>
			<path fill="#F49F1C" d="M543.2,1268.4l-16.7,4.3c0,0-11.8-27.8-6.9-35.2C523.5,1231.4,539.4,1226.4,543.2,1268.4z"/>
			<path fill="#F49F1C" d="M589,1195.7l-13.9,2.8c0,0-8.4-23.4-4.1-29.2C574.5,1164.5,587.8,1161.1,589,1195.7z"/>
		</g>
	</g>
</g>
<g>
	<g>
		<g>
			<path fill="#FFFFFF" d="M992.4,1689.1c0.8,1,1.1,2.3,1.1,3.9v7.5c0,0.2-0.1,0.4-0.2,0.6c-0.2,0.2-0.3,0.2-0.6,0.2
				c-0.2,0-0.4-0.1-0.6-0.2c-0.2-0.2-0.2-0.3-0.2-0.6v-7.4c0-1.2-0.3-2.1-0.8-2.9c-0.6-0.7-1.4-1.1-2.6-1.1c-0.7,0-1.5,0.2-2.1,0.5
				c-0.7,0.4-1.2,0.8-1.6,1.4c-0.4,0.6-0.6,1.3-0.6,2v7.4c0,0.2-0.1,0.4-0.2,0.6c-0.2,0.2-0.3,0.2-0.6,0.2s-0.4-0.1-0.6-0.2
				s-0.2-0.3-0.2-0.6v-7.5c0-1.2-0.3-2.1-0.8-2.8s-1.4-1.1-2.5-1.1c-0.7,0-1.4,0.2-2.1,0.5c-0.7,0.4-1.2,0.8-1.6,1.4
				c-0.4,0.6-0.6,1.2-0.6,1.9v7.5c0,0.2-0.1,0.4-0.2,0.6c-0.2,0.2-0.3,0.2-0.6,0.2s-0.4-0.1-0.6-0.2s-0.2-0.3-0.2-0.6v-11.9
				c0-0.2,0.1-0.4,0.2-0.6s0.3-0.2,0.6-0.2s0.4,0.1,0.6,0.2c0.2,0.2,0.2,0.3,0.2,0.6v1.5c0.5-0.7,1.1-1.3,2-1.8
				c0.8-0.5,1.7-0.7,2.6-0.7c1,0,1.9,0.2,2.7,0.7s1.3,1.2,1.6,2.2c0.4-0.8,1.1-1.5,2.1-2c1-0.6,2-0.9,3-0.9
				C990.5,1687.6,991.7,1688.1,992.4,1689.1z"/>
			<path fill="#FFFFFF" d="M1009,1694.3c-0.2,0.2-0.3,0.2-0.6,0.2h-10.1c0,1.1,0.2,2,0.7,2.9c0.4,0.8,1.1,1.5,1.9,2
				c0.8,0.5,1.8,0.7,2.9,0.7c0.9,0,1.6-0.2,2.3-0.5c0.7-0.4,1.2-0.8,1.6-1.4c0.2-0.2,0.4-0.2,0.6-0.2c0.2,0,0.3,0.1,0.5,0.2
				s0.2,0.3,0.2,0.5c0,0.2-0.1,0.4-0.3,0.6c-0.6,0.7-1.3,1.3-2.1,1.7c-0.9,0.4-1.8,0.7-2.7,0.7c-1.4,0-2.6-0.3-3.6-0.9
				s-1.9-1.4-2.5-2.5c-0.6-1.1-0.9-2.3-0.9-3.6c0-1.5,0.3-2.7,0.9-3.8c0.6-1.1,1.3-1.9,2.3-2.5s2-0.9,3.1-0.9c1.1,0,2.1,0.2,3,0.7
				c0.9,0.5,1.7,1.2,2.3,2.2c0.6,1,0.9,2.1,0.9,3.4C1009.3,1693.9,1009.2,1694.1,1009,1694.3z M1000.2,1690
				c-0.9,0.7-1.4,1.7-1.7,3.1h9.1v-0.2c-0.1-0.8-0.4-1.5-0.8-2.1c-0.4-0.6-1-1-1.7-1.4c-0.7-0.3-1.4-0.5-2.1-0.5
				C1002.1,1688.9,1001.1,1689.3,1000.2,1690z"/>
			<path fill="#FFFFFF" d="M1022.1,1687.5c0.9,0.5,1.4,1.1,1.4,1.9c0,0.4-0.1,0.7-0.3,1s-0.5,0.4-0.9,0.4c-0.3,0-0.5,0-0.7-0.1
				c-0.2-0.1-0.4-0.2-0.5-0.3c-0.2-0.1-0.3-0.2-0.5-0.3c-0.2-0.1-0.4-0.2-0.8-0.2c-0.3-0.1-0.6-0.1-0.8-0.1c-1.3,0-2.4,0.4-3.1,1.2
				s-1.1,1.9-1.1,3.2c0,1.3,0.4,2.3,1.1,3.2c0.8,0.8,1.7,1.3,2.9,1.3c0.9,0,1.5-0.1,1.9-0.3c0.1-0.1,0.3-0.1,0.4-0.3
				c0.2-0.1,0.4-0.2,0.5-0.3c0.2-0.1,0.4-0.1,0.6-0.1c0.4,0,0.8,0.1,1.1,0.4c0.3,0.3,0.4,0.6,0.4,1.1c0,0.4-0.2,0.8-0.7,1.2
				c-0.5,0.4-1.2,0.7-2,0.9c-0.8,0.2-1.7,0.3-2.6,0.3c-1.4,0-2.6-0.3-3.6-1c-1-0.6-1.8-1.5-2.4-2.6c-0.6-1.1-0.9-2.4-0.9-3.8
				c0-1.4,0.3-2.7,0.9-3.8c0.6-1.1,1.4-2,2.5-2.6c1.1-0.6,2.3-0.9,3.6-0.9C1020,1686.8,1021.2,1687.1,1022.1,1687.5z"/>
			<path fill="#FFFFFF" d="M1038.8,1698c-0.6,1.1-1.5,2-2.6,2.6s-2.3,0.9-3.7,0.9c-1.4,0-2.6-0.3-3.7-0.9c-1.1-0.6-2-1.5-2.6-2.6
				c-0.6-1.1-1-2.4-1-3.8c0-1.4,0.3-2.7,1-3.8c0.6-1.1,1.5-2,2.6-2.6c1.1-0.6,2.3-0.9,3.7-0.9c1.3,0,2.6,0.3,3.7,0.9
				c1.1,0.6,2,1.5,2.6,2.6c0.6,1.1,1,2.4,1,3.8C1039.7,1695.6,1039.4,1696.9,1038.8,1698z M1036,1691.9c-0.4-0.7-0.9-1.2-1.5-1.6
				c-0.6-0.4-1.3-0.6-2-0.6s-1.4,0.2-2,0.6c-0.6,0.4-1.1,0.9-1.5,1.6c-0.4,0.7-0.5,1.5-0.5,2.3c0,0.9,0.2,1.6,0.5,2.3
				s0.9,1.2,1.5,1.6c0.6,0.4,1.3,0.6,2,0.6s1.4-0.2,2-0.6c0.6-0.4,1.1-0.9,1.5-1.6s0.5-1.4,0.5-2.3
				C1036.5,1693.3,1036.3,1692.6,1036,1691.9z"/>
			<path fill="#FFFFFF" d="M1053.8,1688.4c0.7,1.1,1,2.6,1,4.4v6.8c0,0.5-0.2,0.8-0.5,1.2c-0.3,0.3-0.7,0.5-1.1,0.5
				s-0.8-0.2-1.1-0.5c-0.3-0.3-0.5-0.7-0.5-1.2v-6.8c0-1-0.2-1.7-0.6-2.3c-0.4-0.6-1.1-0.8-2.1-0.8c-1,0-1.8,0.3-2.4,0.9
				s-0.9,1.3-0.9,2.2v6.8c0,0.5-0.2,0.8-0.5,1.2c-0.3,0.3-0.7,0.5-1.1,0.5s-0.8-0.2-1.1-0.5c-0.3-0.3-0.5-0.7-0.5-1.2v-11
				c0-0.5,0.2-0.8,0.5-1.2s0.7-0.5,1.1-0.5s0.8,0.2,1.1,0.5s0.5,0.7,0.5,1.2v0.5c0.5-0.6,1.1-1.2,1.9-1.6c0.8-0.5,1.6-0.7,2.6-0.7
				C1051.8,1686.8,1053.1,1687.4,1053.8,1688.4z"/>
			<path fill="#FFFFFF" d="M1070.2,1687.5c0.3,0.3,0.4,0.6,0.4,1c0,0.2-0.1,0.5-0.2,0.8l-5,10.9c-0.1,0.3-0.3,0.5-0.5,0.7
				s-0.5,0.3-0.8,0.3l-0.2,0c-0.3,0-0.6-0.1-0.8-0.3s-0.5-0.4-0.6-0.8l-5-10.9c-0.1-0.3-0.2-0.6-0.2-0.8c0-0.4,0.2-0.7,0.5-1
				c0.3-0.3,0.7-0.4,1.1-0.4c0.3,0,0.7,0.1,0.9,0.3c0.3,0.2,0.5,0.4,0.6,0.7l3.7,8.4l3.7-8.4c0.1-0.3,0.3-0.6,0.6-0.8
				c0.2-0.2,0.5-0.3,0.8-0.2C1069.6,1687.1,1069.9,1687.3,1070.2,1687.5z"/>
			<path fill="#FFFFFF" d="M1073.3,1685.1c-0.2-0.2-0.4-0.5-0.4-1v-0.5c0-0.5,0.1-0.8,0.4-1c0.3-0.2,0.7-0.3,1.3-0.3
				c0.6,0,1.1,0.1,1.3,0.3c0.2,0.2,0.4,0.5,0.4,1v0.5c0,0.5-0.1,0.9-0.4,1c-0.3,0.2-0.7,0.3-1.3,0.3
				C1074,1685.4,1073.5,1685.3,1073.3,1685.1z M1075.7,1700.8c-0.3,0.3-0.7,0.5-1.1,0.5c-0.5,0-0.8-0.2-1.1-0.5
				c-0.3-0.3-0.5-0.7-0.5-1.2v-11c0-0.5,0.2-0.8,0.5-1.2s0.7-0.5,1.1-0.5c0.5,0,0.8,0.2,1.1,0.5s0.5,0.7,0.5,1.2v11
				C1076.2,1700.1,1076.1,1700.5,1075.7,1700.8z"/>
			<path fill="#FFFFFF" d="M1092.2,1682.1c0.3,0.3,0.5,0.7,0.5,1.2v16.4c0,0.5-0.2,0.8-0.5,1.2c-0.3,0.3-0.7,0.5-1.1,0.5
				c-0.5,0-0.8-0.2-1.1-0.5s-0.5-0.7-0.5-1.1c-0.4,0.5-1,1-1.8,1.3c-0.8,0.4-1.6,0.5-2.4,0.5c-1.2,0-2.3-0.3-3.3-0.9
				s-1.8-1.5-2.4-2.6c-0.6-1.1-0.9-2.4-0.9-3.8c0-1.4,0.3-2.7,0.9-3.8c0.6-1.1,1.3-2,2.3-2.6c1-0.6,2.1-0.9,3.3-0.9
				c0.9,0,1.7,0.2,2.4,0.5c0.7,0.3,1.4,0.7,1.9,1.2v-5.2c0-0.5,0.2-0.8,0.5-1.2c0.3-0.3,0.7-0.5,1.1-0.5
				C1091.5,1681.6,1091.9,1681.8,1092.2,1682.1z M1088.5,1697.4c0.7-0.8,1.1-1.9,1.1-3.2c0-1.3-0.4-2.3-1.1-3.2
				c-0.7-0.8-1.7-1.3-2.8-1.3c-1.1,0-2.1,0.4-2.8,1.3s-1.1,1.9-1.1,3.2c0,1.3,0.4,2.3,1.1,3.2c0.7,0.8,1.7,1.3,2.8,1.3
				C1086.8,1698.6,1087.8,1698.2,1088.5,1697.4z"/>
			<path fill="#FFFFFF" d="M1108.4,1694.9c-0.3,0.3-0.7,0.4-1.1,0.4h-8.8c0.2,1,0.7,1.9,1.5,2.5c0.8,0.6,1.6,0.9,2.6,0.9
				c0.7,0,1.3-0.1,1.7-0.2c0.4-0.1,0.7-0.3,1-0.4c0.2-0.1,0.4-0.3,0.5-0.3c0.3-0.2,0.6-0.2,0.9-0.2c0.4,0,0.7,0.1,1,0.4
				c0.3,0.3,0.4,0.6,0.4,0.9c0,0.5-0.2,0.9-0.7,1.3c-0.5,0.4-1.2,0.8-2,1c-0.8,0.3-1.7,0.4-2.5,0.4c-1.5,0-2.8-0.3-3.9-0.9
				c-1.1-0.6-2-1.5-2.6-2.6c-0.6-1.1-0.9-2.3-0.9-3.7c0-1.5,0.3-2.9,1-4c0.6-1.2,1.5-2,2.5-2.6c1-0.6,2.2-0.9,3.4-0.9
				c1.2,0,2.3,0.3,3.3,1c1,0.6,1.9,1.5,2.5,2.6c0.6,1.1,0.9,2.2,0.9,3.5C1108.9,1694.3,1108.8,1694.6,1108.4,1694.9z M1098.5,1692.6
				h7v-0.2c-0.1-0.7-0.4-1.4-1.1-1.9c-0.7-0.5-1.4-0.8-2.2-0.8C1100.1,1689.7,1098.9,1690.7,1098.5,1692.6z"/>
		</g>
		<path fill="#FFFFFF" d="M1032.4,1690.2h6.7l-6.7-16.6l-6.7,16.6H1032.4z"/>
		<path fill="#FFFFFF" d="M1039.1,1690.2l-6.7-16.6l-1.1,2.8c0.3,0.2,0.7,0.4,1.1,0.4c0,0,0,0,0,0c0.2,0,0.3,0.1,0.4,0.2l5.3,13.2
			H1039.1z"/>
		<path fill="#FFFFFF" d="M1035.5,1681.4h-6.3l0.9-2.4h4.4L1035.5,1681.4z"/>
		<path fill="#FFFFFF" d="M1033.7,1679.1l0.9,2.4h1l-0.9-2.4H1033.7z"/>
		<path fill="#FFFFFF" d="M1037.8,1686.9H1027l0.9-2.4h8.8L1037.8,1686.9z"/>
		<path fill="#FFFFFF" d="M1037.8,1686.9l-0.9-2.4h-1l0.9,2.4H1037.8z"/>
		<path fill="#FFFFFF" d="M1039.3,1691.4h-13.8c-0.2,0-0.4-0.2-0.4-0.4v-0.4c0-0.2,0.2-0.4,0.4-0.4h13.8c0.2,0,0.4,0.2,0.4,0.4v0.4
			C1039.7,1691.2,1039.5,1691.4,1039.3,1691.4z"/>
		<path fill="#FFFFFF" d="M1039.3,1690.2h-1c0.2,0,0.4,0.2,0.4,0.4v0.4c0,0.2-0.2,0.4-0.4,0.4h1c0.2,0,0.4-0.2,0.4-0.4v-0.4
			C1039.7,1690.3,1039.5,1690.2,1039.3,1690.2z"/>
		<g>
			<path fill="#FFFFFF" d="M1035.7,1676.1l0.3,0.1c0.2,0.1,0.4,0.3,0.5,0.5l0.3,0.8c0.1,0.1,0.2,0.1,0.3,0l0.3-0.8
				c0.1-0.2,0.2-0.4,0.5-0.5l0.3-0.1c0.1-0.1,0.1-0.2,0-0.3l-0.3-0.1c-0.2-0.1-0.4-0.3-0.5-0.5l-0.3-0.8c-0.1-0.1-0.2-0.1-0.3,0
				l-0.3,0.8c-0.1,0.2-0.2,0.4-0.5,0.5l-0.3,0.1C1035.6,1675.8,1035.6,1676,1035.7,1676.1z"/>
			<path fill="#FFFFFF" d="M1037.8,1675.6c-0.2-0.1-0.3-0.2-0.4-0.4c-0.1,0.6-0.5,1-1,1.2c0,0,0.1,0.1,0.1,0.2l0.3,0.8
				c0.1,0.1,0.2,0.1,0.3,0l0.3-0.8c0.1-0.2,0.2-0.4,0.5-0.5l0.3-0.1c0.1-0.1,0.1-0.2,0-0.3L1037.8,1675.6z"/>
		</g>
		<path fill="#FFFFFF" d="M1025.5,1680.4l0.3,0.1c0.2,0.1,0.4,0.3,0.5,0.5l0.3,0.8c0.1,0.1,0.2,0.1,0.3,0l0.3-0.8
			c0.1-0.2,0.2-0.4,0.5-0.5l0.3-0.1c0.1-0.1,0.1-0.2,0-0.3l-0.3-0.1c-0.2-0.1-0.4-0.3-0.5-0.5l-0.3-0.8c-0.1-0.1-0.2-0.1-0.3,0
			l-0.3,0.8c-0.1,0.2-0.2,0.4-0.5,0.5l-0.3,0.1C1025.3,1680.2,1025.3,1680.3,1025.5,1680.4z"/>
		<path fill="#FFFFFF" d="M1027.6,1680c-0.2-0.1-0.3-0.2-0.4-0.4c-0.1,0.6-0.5,1-1,1.2c0,0,0.1,0.1,0.1,0.2l0.3,0.8
			c0.1,0.1,0.2,0.1,0.3,0l0.3-0.8c0.1-0.2,0.2-0.4,0.5-0.5l0.3-0.1c0.1-0.1,0.1-0.2,0-0.3L1027.6,1680z"/>
		<path fill="#FFFFFF" d="M1030.8,1675.9l0.8-0.2l0.2,0.8c0.1,0.5,0.6,0.9,1.2,0.8c0.5-0.1,0.9-0.6,0.8-1.2l-0.2-0.8l0.8-0.2
			c0.5-0.1,0.9-0.6,0.8-1.2c-0.1-0.5-0.6-0.9-1.2-0.8l-0.8,0.2l-0.2-0.8c-0.1-0.5-0.6-0.9-1.2-0.8c-0.5,0.1-0.9,0.6-0.8,1.2l0.2,0.8
			l-0.8,0.2c-0.5,0.1-0.9,0.6-0.8,1.2C1029.7,1675.6,1030.2,1676,1030.8,1675.9z"/>
	</g>
	<path fill="#FFFFFF" d="M1030.8,1675.9l0.8-0.2l1.6-2.3l-0.2-0.8c-0.1-0.5-0.6-0.9-1.2-0.8c-0.5,0.1-0.9,0.6-0.8,1.2l0.2,0.8
		l-0.8,0.2c-0.5,0.1-0.9,0.6-0.8,1.2C1029.7,1675.6,1030.2,1676,1030.8,1675.9z"/>
</g>
<g>
	<path fill="#3A1A40" d="M569.4,262.7c0,0,34-18,68.1,12.6c0,0,1.9-4.9,8.8-6.8c6.8-1.9,11.7,1.9,11.7,1.9s10.2-47.7,65.2-56.4
		c0,0-19.5,16.1-11.7,24.8c0,0-27.2-11.7-7.8,21.9c0,0-34-8.3-18,29.2c0,0-27.2-12.2-21.4,9.2c0,0-13.1-11.2-28.7,0.5
		c0,0-11.7-19.5-24.3-11.7c0,0-1-14.6-16.5-13.6C594.7,274.4,588.8,256.9,569.4,262.7z"/>
	<path fill="#3A1A40" d="M838.5,911.3c0,0,30.4-16.1,60.7,11.3c0,0,1.7-4.3,7.8-6.1c6.1-1.7,10.4,1.7,10.4,1.7s9.1-42.5,58.1-50.3
		c0,0-17.4,14.3-10.4,22.1c0,0-24.3-10.4-6.9,19.5c0,0-30.4-7.4-16.1,26c0,0-24.3-10.8-19.1,8.2c0,0-11.7-10-25.6,0.4
		c0,0-10.4-17.4-21.7-10.4c0,0-0.9-13-14.7-12.1C861.1,921.7,855.9,906.1,838.5,911.3z"/>
	<path fill="#3A1A40" d="M386.2,723.6c0,0-25.9-13.7-51.8,9.6c0,0-1.5-3.7-6.7-5.2c-5.2-1.5-8.9,1.5-8.9,1.5s-7.8-36.2-49.5-42.9
		c0,0,14.8,12.2,8.9,18.9c0,0,20.7-8.9,5.9,16.6c0,0,25.9-6.3,13.7,22.2c0,0,20.7-9.2,16.3,7c0,0,10-8.5,21.8,0.4
		c0,0,8.9-14.8,18.5-8.9c0,0,0.7-11.1,12.6-10.4C367,732.5,371.5,719.2,386.2,723.6z"/>
	<path fill="#3A1A40" d="M327.8,987.6c0,0-32.4-2.5-48.5,32.6c0,0-3.1-3.1-9.1-2.3c-5.9,0.8-8.4,5.4-8.4,5.4s-23.8-33.5-69.3-21.9
		c0,0,20.4,5.9,17.3,15.3c0,0,17.2-18.1,13.3,14.3c0,0,23.6-17.8,23.7,16.6c0,0,17-18.5,19.7,0c0,0,6.4-13,22.4-9.2
		c0,0,2.5-19,14.9-17.2c0,0-4.1-11.6,8.2-16.1C312.2,1005.1,310.9,989.6,327.8,987.6z"/>
</g>
<g>
	<path opacity="0.2" fill="#8C8AC2" d="M581.8,335.6c-18.7-1.9-39.3-6.5-49.8-22.1c-5.4-8-7.2-17.8-11-26.6
		c-3.8-8.9-10.7-17.6-20.3-18.5c-7.6-0.7-14.9,3.7-22.5,3.3c-15-0.7-22.4-17.7-32-29.2c-16.3-19.7-46-23.1-69.6-13
		c-25.5,10.9-17.2,27.8-29.2,33.1c-11.1,4.8-14.7-6.5-26.9-6.3c-12.1,0.2-36.4,2.3-47.4,7.2c-25.6,11.4-14.7,29.4-18.6,32.2
		c-9.7,7-18.6-3-22.3-4.9c-12-6.1-25.5,3.8-36.6,11.4c-35.8,24.5-81.4,28.3-124.7,31.3c10.4,13.5,30.7,14.8,47.2,10.3
		c16.5-4.5,26.7,21.5,43.6,18.9c19.7-3,48.7-23.9,63.5-10.6c8.3,22.8,28.4,31,52.2,35.7c30.2,5.9,44.7-14.4,56.7-19.2
		c11-4.3,30.1,14.4,41.9,14c27-1,47-14.4,74-15.4c18-0.7,39.3,13.7,56.6,8.8c21.5-6.1,51.6-17.8,81.4-16.5
		c116.8,5.4,110.2-16.7,93.2-13C646.1,354.2,616.1,339.1,581.8,335.6z"/>
	<path opacity="0.2" fill="#8C8AC2" d="M1055.9,1120.5c-14.1-1.4-29.7-4.9-37.6-16.7c-4-6-5.4-13.4-8.3-20.1
		c-2.8-6.7-8.1-13.3-15.3-14c-5.7-0.5-11.3,2.8-17,2.5c-11.3-0.5-16.9-13.4-24.2-22.1c-12.3-14.9-34.8-17.4-52.5-9.8
		c-19.3,8.3-13,21-22.1,25c-8.4,3.7-11.1-4.9-20.3-4.7c-9.2,0.2-27.5,1.7-35.8,5.5c-19.3,8.6-11.1,22.2-14,24.3
		c-7.4,5.3-14.1-2.2-16.9-3.7c-9.1-4.6-19.3,2.9-27.7,8.6c-27.1,18.5-61.5,21.4-94.2,23.7c7.9,10.2,23.2,11.1,35.6,7.8
		c12.5-3.4,20.2,16.2,33,14.3c14.9-2.3,36.8-18,48-8c6.2,17.3,21.4,23.4,39.4,26.9c22.8,4.5,33.8-10.9,42.9-14.5
		c8.3-3.2,22.8,10.9,31.6,10.6c20.4-0.8,35.5-10.9,55.9-11.7c13.6-0.5,29.7,10.3,42.7,6.7c16.3-4.6,39-13.5,61.5-12.4
		c88.3,4.1,83.2-12.6,70.4-9.8C1104.5,1134.5,1081.9,1123.1,1055.9,1120.5z"/>
	<path opacity="0.1" fill="#8C8AC2" d="M624,1505.6c-17-1.7-35.8-5.9-45.3-20.1c-4.9-7.3-6.5-16.2-10-24.2
		c-3.4-8.1-9.7-16-18.4-16.8c-6.9-0.7-13.6,3.3-20.5,3c-13.6-0.7-20.4-16.1-29.1-26.6c-14.9-17.9-41.9-21-63.3-11.8
		c-23.2,10-15.7,25.3-26.6,30.1c-10.1,4.4-13.4-5.9-24.4-5.7c-11,0.2-33.1,2.1-43.1,6.6c-23.2,10.4-13.3,26.8-16.9,29.3
		c-8.9,6.4-16.9-2.7-20.3-4.4c-10.9-5.6-23.2,3.5-33.3,10.4c-32.6,22.3-74,25.7-113.4,28.5c9.5,12.3,27.9,13.4,42.9,9.4
		c15-4.1,24.3,19.5,39.7,17.2c17.9-2.7,44.3-21.7,57.7-9.6c7.5,20.8,25.8,28.2,47.5,32.4c27.5,5.4,40.7-13.1,51.6-17.4
		c10-3.9,27.4,13.1,38.1,12.7c24.6-0.9,42.7-13.1,67.3-14c16.3-0.6,35.7,12.5,51.4,8c19.6-5.5,46.9-16.2,74-15
		c106.3,4.9,100.2-15.2,84.8-11.8C682.5,1522.5,655.2,1508.8,624,1505.6z"/>
	<path opacity="0.1" fill="#8C8AC2" d="M1069.5,1654.2c-17-1.7-35.8-5.9-45.3-20.1c-4.9-7.3-6.5-16.2-10-24.2
		c-3.4-8.1-9.7-16-18.4-16.8c-6.9-0.7-13.6,3.3-20.5,3c-13.6-0.7-20.4-16.1-29.1-26.6c-14.9-17.9-41.9-21-63.3-11.8
		c-23.2,10-15.7,25.3-26.6,30.1c-10.1,4.4-13.4-5.9-24.4-5.7c-11,0.2-33.1,2.1-43.1,6.6c-23.2,10.4-13.3,26.8-16.9,29.3
		c-8.9,6.4-16.9-2.7-20.3-4.4c-10.9-5.6-23.2,3.5-33.3,10.4c-32.6,22.3-74,25.7-113.4,28.5c9.5,12.3,27.9,13.4,42.9,9.4
		c15-4.1,24.3,19.5,39.7,17.2c17.9-2.7,44.3-21.7,57.7-9.6c7.5,20.8,25.8,28.2,47.5,32.4c27.5,5.4,40.7-13.1,51.6-17.4
		c10-3.9,27.4,13.1,38.1,12.7c24.6-0.9,42.7-13.1,67.3-14c16.3-0.6,35.7,12.5,51.4,8c19.6-5.5,46.9-16.2,74-15
		c106.3,4.9,100.2-15.2,84.8-11.8C1128.1,1671.1,1100.7,1657.4,1069.5,1654.2z"/>
	<path opacity="0.1" fill="#8C8AC2" d="M140.4,1691.4c17-1.7,35.8-5.9,45.3-20.1c4.9-7.3,6.5-16.2,10-24.2c3.4-8.1,9.7-16,18.4-16.8
		c6.9-0.7,13.6,3.3,20.5,3c13.6-0.7,20.4-16.1,29.1-26.6c14.9-17.9,41.9-21,63.3-11.8c23.2,10,15.7,25.3,26.6,30.1
		c10.1,4.4,13.4-5.9,24.4-5.7c11,0.2,33.1,2.1,43.1,6.6c23.2,10.4,13.3,26.8,16.9,29.3c8.9,6.4,16.9-2.7,20.3-4.4
		c10.9-5.6,23.2,3.5,33.3,10.4c32.6,22.3,74,25.7,113.4,28.5c-9.5,12.3-27.9,13.4-42.9,9.4c-15-4.1-24.3,19.5-39.7,17.2
		c-17.9-2.7-44.3-21.7-57.7-9.6c-7.5,20.8-25.8,28.2-47.5,32.4c-27.5,5.4-40.7-13.1-51.6-17.4c-10-3.9-27.4,13.1-38.1,12.7
		c-24.6-0.9-42.7-13.1-67.3-14c-16.3-0.6-35.7,12.5-51.4,8c-19.6-5.5-46.9-16.2-74-15c-106.3,4.9-100.2-15.2-84.8-11.8
		C81.9,1708.3,109.2,1694.6,140.4,1691.4z"/>
	<path opacity="0.1" fill="#8C8AC2" d="M122.4,1318.9c11.4-1.2,24.1-4,30.5-13.5c3.3-4.9,4.4-10.9,6.7-16.3
		c2.3-5.4,6.6-10.8,12.4-11.4c4.7-0.4,9.1,2.3,13.8,2c9.2-0.4,13.7-10.9,19.6-17.9c10-12.1,28.2-14.1,42.6-8
		c15.6,6.7,10.6,17,17.9,20.3c6.8,3,9-4,16.5-3.8c7.4,0.1,22.3,1.4,29.1,4.4c15.7,7,9,18,11.4,19.7c6,4.3,11.4-1.8,13.7-3
		c7.4-3.7,15.6,2.3,22.4,7c22,15,49.9,17.3,76.4,19.2c-6.4,8.3-18.8,9-28.9,6.3c-10.1-2.7-16.4,13.2-26.7,11.6
		c-12.1-1.8-29.8-14.6-38.9-6.5c-5.1,14-17.4,19-32,21.8c-18.5,3.6-27.4-8.9-34.8-11.7c-6.7-2.6-18.5,8.8-25.7,8.6
		c-16.6-0.6-28.8-8.9-45.3-9.5c-11-0.4-24.1,8.4-34.7,5.4c-13.2-3.7-31.6-10.9-49.9-10.1c-71.6,3.3-67.5-10.2-57.1-8
		C82.9,1330.3,101.3,1321,122.4,1318.9z"/>
	<path opacity="0.1" fill="#8C8AC2" d="M1068,1444c-19.4-1.9-40.8-6.7-51.6-22.9c-5.6-8.3-7.5-18.4-11.4-27.6
		c-3.9-9.2-11.1-18.3-21-19.2c-7.9-0.8-15.5,3.8-23.4,3.4c-15.5-0.8-23.3-18.4-33.2-30.3c-16.9-20.4-47.8-23.9-72.2-13.5
		c-26.5,11.4-17.9,28.9-30.3,34.3c-11.5,5-15.3-6.7-27.9-6.5c-12.6,0.2-37.7,2.4-49.2,7.5c-26.5,11.8-15.2,30.5-19.3,33.4
		c-10.1,7.3-19.3-3.1-23.2-5c-12.5-6.3-26.4,4-38,11.9c-37.2,25.4-84.4,29.3-129.3,32.5c10.8,14,31.8,15.3,48.9,10.7
		c17.1-4.6,27.7,22.3,45.3,19.6c20.4-3.1,50.5-24.8,65.9-11c8.6,23.7,29.4,32.2,54.2,37c31.3,6.1,46.4-15,58.9-19.9
		c11.4-4.5,31.2,15,43.4,14.5c28-1,48.7-15,76.8-16c18.6-0.7,40.7,14.2,58.7,9.1c22.3-6.3,53.5-18.5,84.4-17.1
		c121.2,5.6,114.3-17.3,96.7-13.5C1134.8,1463.2,1103.6,1447.5,1068,1444z"/>
	<path opacity="0.2" fill="#8C8AC2" d="M138.4,863.8c14.5-1.7,30.6-5.7,38.8-19.4c4.2-7,5.6-15.6,8.5-23.4
		c2.9-7.8,8.3-15.5,15.8-16.3c5.9-0.6,11.6,3.2,17.5,2.9c11.7-0.6,17.5-15.6,24.9-25.7c12.7-17.3,35.8-20.3,54.2-11.4
		c19.9,9.6,13.4,24.4,22.8,29c8.7,4.3,11.5-5.7,20.9-5.5c9.4,0.2,28.3,2,36.9,6.3c19.9,10,11.4,25.8,14.5,28.3
		c7.6,6.2,14.5-2.6,17.4-4.3c9.4-5.4,19.8,3.4,28.5,10c27.9,21.5,63.4,24.8,97.1,27.5c-8.1,11.9-23.9,13-36.7,9
		c-12.8-3.9-20.8,18.9-34,16.6c-15.3-2.6-37.9-21-49.4-9.3c-6.4,20.1-22.1,27.2-40.7,31.3c-23.5,5.2-34.8-12.7-44.2-16.8
		c-8.5-3.8-23.4,12.7-32.6,12.3c-21-0.9-36.6-12.7-57.6-13.6c-14-0.6-30.6,12-44,7.7c-16.8-5.3-40.2-15.7-63.4-14.5
		c-91,4.7-85.8-14.7-72.6-11.4C88.3,880.1,111.7,866.8,138.4,863.8z"/>
	<path opacity="0.2" fill="#8C8AC2" d="M603.8,538.1c19.4-1.9,40.7-6.5,51.6-22.2c5.6-8,7.5-17.8,11.4-26.7
		c3.9-8.9,11.1-17.7,21-18.6c7.9-0.7,15.4,3.7,23.3,3.3c15.5-0.7,23.2-17.8,33.1-29.4c16.9-19.8,47.7-23.2,72.1-13
		c26.5,11,17.9,27.9,30.3,33.2c11.5,4.9,15.3-6.5,27.8-6.3c12.6,0.2,37.7,2.3,49.1,7.2c26.5,11.5,15.2,29.5,19.2,32.3
		c10.1,7,19.3-3,23.1-4.9c12.5-6.1,26.4,3.8,38,11.5c37.1,24.6,84.4,28.4,129.2,31.4c-10.8,13.6-31.8,14.8-48.9,10.3
		c-17.1-4.5-27.7,21.5-45.2,19c-20.4-3-50.4-24-65.8-10.6c-8.6,22.9-29.4,31.1-54.1,35.8c-31.3,5.9-46.4-14.5-58.8-19.2
		c-11.4-4.3-31.2,14.5-43.4,14.1c-28-1-48.7-14.5-76.7-15.5c-18.6-0.7-40.7,13.7-58.6,8.8c-22.3-6.1-53.5-17.9-84.4-16.5
		c-121.1,5.4-114.2-16.8-96.6-13.1C537.1,556.8,568.2,541.6,603.8,538.1z"/>
</g>
<g>
	<path fill="#9860A1" d="M1156.4,510.9c0-21.4-0.6-29.8-0.9-45.9l-0.3,16.1c-0.1,18.5,0.2,39.6,0.5,45
		C1155.9,505.6,1156.2,524.4,1156.4,510.9z"/>
	<path fill="#9860A1" d="M1141.6,79.3c0-6.3-0.1-15.1-0.3-13.1c-0.1,4.4-0.2,11.2-0.2,17.5C1141.3,84.4,1141.5,86.1,1141.6,79.3z"/>
	<path fill="#9860A1" d="M1143.7,436c0.1-12.6,0.3-26.9,0.4-38c-0.6,2.3,0.4-22.2-0.2-27.6c-0.5-21.3-1-11.3-1.6-5.1
		c-0.2,3.3-0.3,14.3-0.2,22.9C1142.3,416.7,1143,442.6,1143.7,436z"/>
	<path fill="#9860A1" d="M1132.4,118.4c-0.4,2.7-0.1-11.3-0.2-19.9c-0.3-2.6-0.9,25.8-1.2-1.5c-0.8,7.2-1.7,37.9-2.3,70
		c-0.3,18,0.4,69.4,0,99.7l0.3-5.1c0.1,29.2,0.1,42.3,0.4,71.1c0.3-6.5,0.1-27.6,0.4-34.1c0.2,6.8,0.5,17.5,0.5,26.4
		c-0.6,1.3-0.5,37.1-0.9,50.3c0,14.3,0.6,28.5,0.7,51.6c0.4-7,0.8-7.1,1.1-20c0.5-27.7,0-51.8,0.2-77c0.1,4.7,0.6-3.7,0.6,10.5
		c0-11.6,0.2-18.9,0.5-14.9l0,15.6c0.3-10.2,0.6-23.2,0.8-35.4c0.2,17.3,0.7,25.5,0.9,31.1c0.5-0.7,0.8-40.7,1.2-12.7
		c0.2-8.6,0.1-26.4,0.3-37.5l0.5,12.2c-0.1-42.3,0.3-55.9,0.2-95.3c0.1,0.7,0.3,7.8,0.4-2.9l-0.5-17.6c0.1-10.7,0.5-7.4,0.6-14.2
		l-0.3-2.8c0.1-11.9,0.1-18.4-0.2-25.2c-0.2,4.6-0.5-14.9-0.4,5.6c-0.8,4.6-0.1-33.2-0.8-40.7c-0.6-9.2-1.7,6.8-2.2-20.7
		C1132.1,90.8,1132.8,103.5,1132.4,118.4z"/>
	<path fill="#9860A1" d="M105.6,62.2c2.6,0.4-10.9,0.1-19.3,0.2c-2.5,0.3,25,1-1.4,1.3c6.9,0.8,36.7,1.7,67.8,2.3
		c17.4,0.3,67.1-0.5,96.5,0l-5-0.3c28.3-0.1,41-0.1,68.8-0.4c-6.3-0.3-26.7-0.1-33-0.4c6.6-0.2,17-0.5,25.6-0.5
		c1.3,0.7,35.9,0.5,48.7,0.9c13.8,0,27.6-0.6,50-0.7c-6.7-0.5-6.9-0.8-19.3-1.1c-26.8-0.5-50.1,0-74.5-0.2c4.5-0.1-3.6-0.6,10.2-0.6
		c-11.3,0-18.3-0.2-14.4-0.5l15.1,0c-9.9-0.3-22.5-0.7-34.3-0.8c16.7-0.2,24.7-0.7,30.1-1c-0.6-0.5-39.4-0.8-12.3-1.3
		c-8.3-0.2-25.5-0.1-36.3-0.3l11.8-0.5c-40.9,0.1-54.1-0.4-92.2-0.2c0.7-0.1,7.6-0.3-2.8-0.4l-17,0.5c-10.4-0.1-7.2-0.6-13.7-0.6
		l-2.7,0.3c-11.5-0.1-17.8-0.1-24.4,0.2c4.5,0.2-14.5,0.5,5.4,0.4c4.4,0.8-32.1,0.1-39.4,0.8c-8.9,0.6,6.6,1.7-20.1,2.3
		C78.9,62.4,91.2,61.7,105.6,62.2z"/>
	<path fill="#9860A1" d="M1136.1,650.6c0.2-3.3,0.5,0.8,0.5-11.1c0.1-11.9,0.2-34.5-0.2-37.8c-0.3-1.5-0.6-0.1-0.8,13.5
		C1135.6,628,1135.6,656.4,1136.1,650.6z"/>
	<path fill="#9860A1" d="M1129.3,441.5c-0.4,14.7-0.2,28-0.1,47.1c0.2,12.2,0.6,12,0.9,11.8c0.2-4.9,0.3-17.9,0.4-28.6
		C1130.5,444.2,1129.7,425.4,1129.3,441.5z"/>
	<path fill="#9860A1" d="M1141.4,1066.1c0.5-8.4,1.1,1.9,1.1-32.8c-0.2-16.1-0.3-40.1-0.7-43.7c-0.7-21.6-0.7,51.9-1.5,34.3
		c-0.2,7.5-0.2,18.9-0.1,27.8C1140.6,1086.3,1141,1026.4,1141.4,1066.1z"/>
	<path fill="#9860A1" d="M1136.6,852.8c0.2,5.6,0.6-1.1,0.7-13.2c-0.1-11.5,0-22.2-0.2-30.1c-0.2-8.2-0.6-1.4-0.7,10.7
		C1136.4,830.6,1136.3,848.8,1136.6,852.8z"/>
	<path fill="#9860A1" d="M1133.7,735.3c0,7.7-0.1,21.2,0.1,26.7c0.2-3.3,0.3,1.4,0.4-5.6c0-13.1,0.1-21-0.1-30.6L1133.7,735.3z"/>
	<path fill="#9860A1" d="M1135.6,845.5c-0.4,11.8-0.1,26.4,0,40.1c0.3,2.8,0.5-0.7,0.7-6.7c0.1-12.2,0.1-26.4,0-37.4
		C1135.9,842.7,1135.7,835.6,1135.6,845.5z"/>
	<path fill="#9860A1" d="M1133,771.9c-0.1-35.9-0.8-8.2-1.3-12.7c-0.7,20.9-0.7,66.2-0.3,89.4c0.4,6.3,0.9-7.6,1,14.1
		c0.2-7.5,0.4-31.5,0.8-33.1c-0.1-11.4-0.1-22.8,0.1-35.2C1133,791.3,1133,780.8,1133,771.9z"/>
	<path fill="#9860A1" d="M1125.3,545.7c-0.4,17-0.5,42-0.2,61.8c0.2-0.1,0.3,2.3,0.3,6.2c0.1,3.9,0.1,9.3,0.1,15.2
		c0,11.9,0,26,0,34.8c0.3-7.7,1.1,11.1,1.7-2.9l0.2-46.2c-0.3-13.1-0.3-25.9-0.1-35.9C1126.5,608.1,1126.2,527.6,1125.3,545.7z"/>
	<path fill="#9860A1" d="M1135.3,890.6c-0.1-1.8-0.1-2.9-0.2-2.9c-0.4,1.5-0.6,21.6-0.7,33.9c0.2,9.6,0.5,15,0.6,24.9
		c0.2-6.1,0.4-16.1,0.6-27c0.1-7.3,0-15.3-0.1-21.4C1135.4,895,1135.3,892.4,1135.3,890.6z"/>
	<path fill="#9860A1" d="M1134.7,960.2c-0.2,7.3-0.3,15.3-0.3,24.5c0.3,13,0.2,39.5,0.7,34.6c0-19.4,0.4-30.3,0.3-50.4
		C1135.2,958.2,1135,956.5,1134.7,960.2z"/>
	<path fill="#9860A1" d="M1139,1228.8c0.2-24-0.4-40-0.7-21.8c-0.1,11-0.1,22.4,0.1,30.8C1138.6,1236.9,1138.9,1246,1139,1228.8z"/>
	<path fill="#9860A1" d="M1130.7,1134.6c-0.1,14.5,0.4,20.4,0.5,10.8c0.1-9.6,0-15.4-0.1-24.3L1130.7,1134.6z"/>
	<path fill="#9860A1" d="M355.4,1753.6l-6.5-0.1c0.2,0.1,0.5,0.1,2.9,0.1C352.9,1753.6,355.6,1753.6,355.4,1753.6z"/>
	<path fill="#9860A1" d="M857.4,1726.9c-1.1,0.4-23.8,1.3-36.4,2c24.2,0.4,15.8,1.3,20.4,1.6c2.5-0.1,11.3-0.3,19.3-0.2
		c25.2,0,37.9,0.3,33.1,0.6c44.8-0.2,80.5,0.7,123.1,0c39.8-0.3,32.4,0.8,45.8,1.3c8.9-0.5-24.5-1.1,1.9-1.6l11.9,0.2
		c15.4-0.4,32.9-0.7,27-1.3l20.5,0.3c-6.2-0.3-24.7-0.9,7.8-1c19.2-0.6-33.8-1.1-19.2-1.7c-5.1,0-17.9-0.1-31.1-0.2
		c-17.4-0.3,6.9-0.5,6.9-0.9l-21.4,0.5c-31.1,0.1-35.2-0.8-41.9-0.8c-6,0.1-2.5,0.4-16.8,0.4c-22.8-0.1-57.4-0.4-82.2,0l5.7,0.2
		c-30.9,0.2-65.2,0.6-92.5,0.5C845.5,1727.1,851.8,1726.7,857.4,1726.9z"/>
	<path fill="#9860A1" d="M1026.4,1731.2c3,0.1,1.4,0.3,7.7,0.4l-6.5-0.4L1026.4,1731.2z"/>
	<path fill="#9860A1" d="M1079.6,1728.3c-3.4,0.1,0.7,0.2,0.9,0.2C1087.7,1728.5,1083.6,1728.4,1079.6,1728.3z"/>
	<path fill="#9860A1" d="M1119.7,859.7c0.3-3.7,0.2-17.7,0-24.7C1119.7,843,1119.3,853.6,1119.7,859.7z"/>
	<path fill="#9860A1" d="M1066.1,1727.4l-7.5,0l2.7,0.1C1063.8,1727.5,1066.3,1727.5,1066.1,1727.4z"/>
	<path fill="#9860A1" d="M855.1,1731.3c2.5,0,7.7,0,8.4-0.1C860.4,1731,858.7,1731.2,855.1,1731.3z"/>
	<path fill="#9860A1" d="M772.2,1731.5c-1.2,0,1.5,0.1,2.9,0.1c2.5,0,3.9,0,3.6,0L772.2,1731.5z"/>
	<path fill="#9860A1" d="M788.9,1729c3.8,0,5,0,7.2-0.1l-9.9,0L788.9,1729z"/>
	<path fill="#9860A1" d="M610.7,1728c-0.7,0-1.5,0-2.2,0C609.1,1728,609.9,1728,610.7,1728z"/>
	<path fill="#9860A1" d="M605,1727.4c14.8,0,10,0.4,5.8,0.6c18.7-0.2,44.4,0.3,52-0.2c10.6,0.2,8-0.5,22.8-0.3
		c-14.2-0.4,8.7-0.7-11.6-1.1c-25.5-0.4-55.1,0-81.6,0.3l15.1,0c2,0.2-5.9,0.7-22.2,0.7C596.3,1727.8,589.6,1727.3,605,1727.4z"/>
	<path fill="#9860A1" d="M357,1719.7c14.8,0,10,0.4,5.8,0.6c18.7-0.2,44.4,0.3,52-0.2c10.6,0.2,8-0.5,22.8-0.3
		c-14.2-0.4,8.7-0.7-11.6-1.1c-25.5-0.4-55.1,0-81.6,0.3l15.1,0c2,0.2-5.9,0.7-22.2,0.7C348.4,1720,341.7,1719.6,357,1719.7z"/>
	<path fill="#9860A1" d="M718.8,1725.9c14.8,0,10,0.4,5.8,0.6c18.7-0.2,44.4,0.3,52-0.2c10.6,0.2,8-0.5,22.8-0.3
		c-14.2-0.4,8.7-0.7-11.6-1.1c-25.5-0.4-55.1,0-81.6,0.3l15.1,0c2,0.2-5.9,0.7-22.2,0.7C710.2,1726.3,703.5,1725.9,718.8,1725.9z"/>
	<path fill="#9860A1" d="M894.9,1721c18.3-0.1,10.5-0.5-5.4-0.4C882.5,1720.7,886.2,1721,894.9,1721z"/>
	<path fill="#9860A1" d="M557.1,1729.9c-2-0.2-10.2-0.4-19.5-0.2c-4,0.2,6.2,0.3,11.3,0.3C549.8,1730,553.4,1730,557.1,1729.9z"/>
	<path fill="#9860A1" d="M133.5,1722c-3.7,0.4-17.7,0.6-32.4,0.7c9,0.7,7.9,1.1,8.9,1.7c25.1-0.2,41.6,0.5,57,0.5
		c-1.8,0.1-2,0.2-2.4,0.3c12.2-0.5,46-0.6,49.5-1.1c34.6,0.2-2.3-1.3,36.1-1.4c-23-0.1-32.5-0.6-47.6-1c-2.7,0.3-15.1,0-22.2,0.1
		c-5-0.3,6.1-0.4-4.7-0.6l3,0.1c-12.7,0.6-25.8,0.5-51.8,0.5L133.5,1722z"/>
	<path fill="#9860A1" d="M164.6,1725.2c-2,0.1-3.5,0.2-4.1,0.3C163.4,1725.4,164.1,1725.3,164.6,1725.2z"/>
	<path fill="#9860A1" d="M288,1721.8c4.5-0.1,3.9-0.3-1.5-0.4c-7.9-0.1-12.2,0.1-12.9,0.2C276.6,1721.8,283.1,1721.8,288,1721.8z"/>
	<polygon fill="#9860A1" points="101.1,1724.7 105.7,1724.6 100.5,1724.5 	"/>
	<polygon fill="#9860A1" points="105.5,1721.9 99.1,1721.9 101.9,1721.9 	"/>
	<path fill="#9860A1" d="M70,1654.4c0,0.2,0,0.3,0,0.3C70,1654.8,70,1654.7,70,1654.4z"/>
	<path fill="#9860A1" d="M69.5,1652.4c0.1-0.5,0.3,2.9,0.4,2.4C69.8,1654.1,69.6,1642.9,69.5,1652.4z"/>
	<path fill="#9860A1" d="M71.2,1460.5l-0.2-22.4c0,11.6,0,35,0.3,45.3c-0.1,7-0.4,31.4-0.5,10c-0.3,20.1-0.2,47.8-0.7,60
		c0,35.8,0.4,68.5,0.1,99.1c0.2,9.3,1,10.1,0.7,33.4c0.1-4.4,0.3-9,0.4-4.4c0.2,7.1,0.1,11.2,0,14.9c0,1.6-0.1,3.2-0.1,5
		c0,1.6,0,3.5,0,5.8l0.5-8c0.2,10,0.4,11.3,0.6,12.2c0.2,0.8,0.4,1.1,0.6,8.1c0.2,0,0.8,0,1.3,0c-0.5,0-0.9,0-1.3,0
		c0.1-6.3,0.3-11.2,0.5-15.4c0.1-2.1,0.2-4.1,0.3-6.1c0.1-2.6,0.2-5.2,0.3-7.8c0.4-10.7,0.7-23.2,0.9-46.7l-0.1,0.2
		c0.2-26.6-0.1-48.8,0.5-67.9c-0.6-11.8-0.1-61.8-0.8-68c0.1-7.3-0.1-19.9-0.1-28.1l-0.1,5.4c-0.6-13.1-1.3-22-1.6-50.5
		c-0.1,14.4-0.2,26.7-0.7,27.2c0-5.1,0-10.2-0.1-13.7c-0.1,4.4-0.1,12.1-0.1,17C71.7,1473.9,71.5,1461.9,71.2,1460.5z"/>
	<path fill="#9860A1" d="M69.9,1556.3c0-0.8,0.1-1.8,0.1-2.9c0-0.5,0-1,0-1.5C70,1551,70,1554.9,69.9,1556.3z"/>
	<path fill="#9860A1" d="M74.5,1479.7l0.1-5.8C74.5,1475.3,74.5,1477.3,74.5,1479.7z"/>
	<polygon fill="#9860A1" points="479.6,1704.4 467.5,1704.2 466.3,1704.2 478.5,1704.4 	"/>
	<path fill="#9860A1" d="M394.2,1706.3c-4.7,0.1-7.9,0.2-6.3,0.3C392.8,1706.6,402.2,1706.4,394.2,1706.3z"/>
	<path fill="#9860A1" d="M70.9,1420.3c0-3.4,0-6.6-0.1-9.7C70.9,1414.3,70.9,1417.7,70.9,1420.3z"/>
	<path fill="#9860A1" d="M70.8,1388.3c-0.1,8,0,14.8,0,22.3C70.9,1402.5,70.9,1393.2,70.8,1388.3z"/>
	<polygon fill="#9860A1" points="71.6,1423.9 71.7,1427.4 71.7,1419.7 	"/>
	<path fill="#9860A1" d="M68.9,1291.5c-0.1,8.2,0.1,9.9,0.2,9.3C69.1,1293,69.1,1281.5,68.9,1291.5z"/>
	<polygon fill="#9860A1" points="70.6,1340.2 70.6,1350.5 70.6,1355.4 	"/>
	<path fill="#9860A1" d="M76.6,1206.9c-0.3,6.3-0.6,12.8-0.5,29.3c0,22.2,0.4,43.7,0.9,31.4c0.5-12.5,0.3-45.2,0.3-56.9
		C77.1,1224.4,76.9,1204.5,76.6,1206.9z"/>
	<path fill="#9860A1" d="M73.8,1037.8c0,0.8,0,2,0.1,3.5c0,2.9,0,6.6,0,10.2c0,7.2-0.1,13.8-0.3,11.3c0.6,23.6,0.2,48.3,0.6,66.1
		c0.3-15.6,0.1,14.9,0.5,5.6c0.1,4.9,0,7.9,0,13c0.1-26.1,0.7-6.9,1-12.9c0.5-25.2,0.6-42.4,0.9-70.9c-0.4,2.8-0.4-24.1-0.4-39.7
		c-0.4,16-0.7-11.5-0.9-22.1c-0.6,5.1-0.8,22.8-1.5,34.5C73.7,1036.5,73.7,1036.9,73.8,1037.8z"/>
	<path fill="#9860A1" d="M75.4,825.5c0,2,0.1,5,0.2,8.4c0,6.9,0.1,16,0.1,24.7C75.6,876,75.3,892,74.9,886
		c1.3,57.2,0.5,117,1.5,160.1c0.8-37.8,0.3,36,1.3,13.6c0.2,11.8-0.1,19.2-0.1,31.6c0.2-63.2,1.8-16.7,2.3-31.3
		c1.1-61,1.4-102.7,2.1-171.7c-0.9,6.8-1.1-58.2-1-96c-1.1,38.8-1.6-27.9-2.3-53.5c-1.5,12.4-2,55.2-3.5,83.4
		C75.2,822.2,75.3,823.4,75.4,825.5z"/>
	<path fill="#9860A1" d="M91.8,1695c0,1,0,2,0,2.9l0,0.6l0,0l0,0.1c0,0.2,0.1,0.3,0.2,0.3c0.2,0,0.4,0,0.6-0.2
		c0.1-0.1,0.2-0.2,0.3-0.2l0,0l0,0c0-0.4,0-0.8,0-1.3c0-2,0-4,0-6.2c0-8.6,0-18.9,0-32.4c-0.4,0.4-0.3-19.4-0.7-19
		c-0.3,12.8-0.4,14.7-0.7,24.7c0.1,6.8,0.1,15.9,0.1,24.4C91.8,1690.9,91.8,1693,91.8,1695z"/>
	<path fill="#9860A1" d="M281.8,1711.2c-1,0-1.9,0-2.8,0l-0.5,0l0,0l-0.1,0c-0.2,0-0.3,0.1-0.3,0.2c0,0.2,0,0.4,0.2,0.6
		c0.1,0.1,0.2,0.2,0.2,0.3l0,0l0,0c0.4,0,0.8,0,1.2,0c1.9,0,3.9,0,6,0.1c8.3,0,18.3,0.1,31.4,0.1c-0.4-0.4,18.8-0.3,18.4-0.7
		c-12.4-0.4-14.3-0.5-23.9-0.8c-6.5,0.1-15.4,0-23.7,0C285.7,1711.3,283.7,1711.3,281.8,1711.2z"/>
	<polygon fill="#9860A1" points="73.6,997.7 73.6,1000.5 73.7,1006.4 	"/>
	<path fill="#9860A1" d="M86.8,1384.1c0.3-5.1,0.2-20.3,0.3-28.4c0-27.1-0.4-29.5-0.8-33c-0.1,5.6-0.2,7.5-0.4,14.5
		c-0.2,14.9,0.1,29.4,0.2,44.4C86.3,1388.7,86.6,1383.6,86.8,1384.1z"/>
	<path fill="#9860A1" d="M83,1186l-0.1,2.8c0.4-5.3,0.8-18.9,1.2-31.9c-0.5-8.2-0.3-59.6-1-43.7c-0.4,8.1-0.4,18.4-0.6,34.9
		C82.6,1160.3,82.7,1179.6,83,1186z"/>
	<path fill="#9860A1" d="M67.4,581.9c0,1.4,0,2.8,0,6.6l0.2-5.8C67.5,581.4,67.5,581.6,67.4,581.9z"/>
	<path fill="#9860A1" d="M92.9,1442.1c0-11.4,0-25.9-0.3-32.4c-0.3-13.1-0.7,0.2-0.8,14.8c-0.2,12.4,0.1,22.9,0.2,32.7
		C92.3,1461.2,92.8,1458.2,92.9,1442.1z"/>
	<path fill="#9860A1" d="M77.2,772.4c0.2-15-0.2-22.5-0.4-28.3c-0.4,4.1-0.2,24.1-0.3,36.1C76.7,778.1,77.1,788.2,77.2,772.4z"/>
	<path fill="#9860A1" d="M1129.5,1396.8c-0.4-3.5-0.5-15.9-0.8-25.3c0.3-16.8-1-30.7-0.3-49c-0.8-3.1-1.3-6.4-2.1-17.3
		c-0.2,7.5-0.4,23.5-0.7,22.4c-0.4,10.7-0.3-19.7-0.6-6.6c0,25.9-0.5,69.5-1.2,86.5c0.1-0.5,0.2,1.7,0.3,2.6
		c-0.1,32.7-0.2,65.8-0.3,98.2c0.7,37.2,1.6,93.1,2.5,101.3c0.2-29.2,0.8-12.3,1.2-16.7c0,2.6,0,6.5,0,9.8c0,1.6,0,3.1,0,4.2
		c0,1.1,0,1.7,0,1.6c0.3-11.4,0.3-42.7,0.9-47.5c0.5,6.8,0.4,46.3,0.6,64.9c0.2-25.4-0.4-61.6-0.1-91.5c0.1-0.5,0.3-23.2,0.5-8.4
		c-0.1-17.7,0-32.2,0.1-45.7c0.4-5.3,0.6,10.5,0.8,13.4c-0.8-15-0.8-52.6-1-81.3C1129.1,1401.2,1129.4,1403.8,1129.5,1396.8z"/>
	<path fill="#9860A1" d="M67.3,372.8l-0.2,0.9l1,34.6c0,1.5,0,4-0.1,3c0.7,7.3,1.4,31.7,2.1-1c0.4-28.6,0.9-47.7,1.2-77.4l-0.2,2.1
		c-0.3-19.4,0.2-29.4,0.3-46.4L71,294c0.2-34.6-0.5-58.9-0.2-91.1c-0.3,11.4,0.1,19.2-0.1,31.6c-0.5-5.7-0.5-19.9-0.8-37l-0.2,13.7
		c-0.3-10.5-0.6-10.6-0.9-23.6c0.2,17.3-0.2,7.4-0.4,10.7c-0.3-10.5,0.2-34.3-0.4-23.2c-0.3,42.5-1.3,68.7-1.5,117.2
		C66.9,325.1,67.1,344,67.3,372.8z"/>
	<path fill="#9860A1" d="M79.6,807.8c0,9.2,0.2,22.7,0.4,16.4c0.2-8.4,0.2-20.1-0.1-25.5C79.8,799.2,79.7,801,79.6,807.8z"/>
	<path fill="#9860A1" d="M78.3,745.7c-0.1,0.2-0.2-4.5-0.2,2c0,4-0.1,8.1,0,10.3C78.4,761.1,78.5,750.3,78.3,745.7z"/>
	<path fill="#9860A1" d="M73.3,427c0,7.9,0.1,14,0.2,18.7C73.6,437.5,73.6,423.3,73.3,427z"/>
	<polygon fill="#9860A1" points="71.7,310.6 71.4,326.1 71.9,308.6 	"/>
	<path fill="#9860A1" d="M67.9,151.6c-0.1-5-0.2-5.6-0.3-2.8C67.6,153.9,67.8,155.8,67.9,151.6z"/>
	<path fill="#9860A1" d="M69.9,135.7c0,3.9,0.2,17.3-0.1,14.5c-0.1,9.6,0.1,19.2,0.2,26.4C69.7,158.3,70.3,148,69.9,135.7z"/>
	<path fill="#9860A1" d="M769.7,66c1.3,0.1,7.3,0.2,11.6,0.2C778,66.1,774,66.1,769.7,66z"/>
	<path fill="#9860A1" d="M676.9,65.6c23.8,0.8,66,0.2,92.8,0.4c-0.2,0-0.3,0-0.3-0.1c21.4-0.2,25.7-0.4,36.2-0.7
		c2.1,0,3.3,0.1,3.4,0.1c5.8-0.3,13.2-0.7,7.7-1.1c5.6-0.1,12.1,0,17,0c-9.4-0.1-19.5-0.1-21.7-0.4l15.2-0.2
		c-38.1,0.2-16.5-0.9-54.8-0.7c-2.5-0.1,4.5-0.1,6.4-0.2c-21.5-0.4-57.1,0.3-84.8-0.2c-34.9,0.3-52.1,1-64.3,1.8
		c-1.7,0.4-1.7,0.6,13.1,0.8C654.6,65.3,658,65.9,676.9,65.6z"/>
	<path fill="#9860A1" d="M82.7,589.4c-0.2-1.9-0.4-3.5-0.5,7.2c0,6.3,0.1,17.7,0.3,18.2C82.7,610.2,82.9,600.4,82.7,589.4z"/>
	<path fill="#9860A1" d="M77.1,327.5l-0.1,2.8c0,2.6,0,5.4,0,6.3L77.1,327.5z"/>
	<path fill="#9860A1" d="M77.4,296.5l-0.1,0.3c0,1.4-0.1,4.4-0.1,8.1L77.4,296.5z"/>
	<path fill="#9860A1" d="M78.6,348.7c0.2,8.4,0.6,9.4,0.7,4.9c0.4-12.1,0.2-30.5,0.4-40.3c-0.4-16.4-0.6-8-0.9-28.6l-0.1,23.8
		C78,305.6,78.5,334.6,78.6,348.7z"/>
	<polygon fill="#9860A1" points="815.9,61.9 813.2,62 817.9,61.9 	"/>
	<polygon fill="#9860A1" points="78.4,306.6 78.3,304.5 78.4,308 	"/>
	<polygon fill="#9860A1" points="1100.8,43.7 1093.7,43.8 1103.3,43.7 	"/>
	<polygon fill="#9860A1" points="850.2,62.5 847.3,62.5 856.2,62.4 	"/>
	<polygon fill="#9860A1" points="523,57.7 520.2,57.7 529,57.6 	"/>
	<path fill="#9860A1" d="M885.5,62.3c-4.9,0-2.7,0.1-1.4,0.1C885.9,62.3,889.6,62.3,885.5,62.3z"/>
	<path fill="#9860A1" d="M826.5,64.9c-3.1,0-3.4-0.1-6.3-0.1C822.3,64.9,824.2,65.1,826.5,64.9z"/>
	<path fill="#9860A1" d="M790.2,65.9c2.6,0.1,13.6-0.1,22.1,0C809.8,65.5,798.1,65.9,790.2,65.9z"/>
	<polygon fill="#9860A1" points="833,65 839.2,64.8 835.9,64.8 828.7,65 	"/>
	<path fill="#9860A1" d="M80.4,206.7c-0.1,6.8,0,14.2,0.1,17.5C80.8,225.6,80.8,194.8,80.4,206.7z"/>
	<path fill="#9860A1" d="M79.9,177.7c-0.1,4.4-0.1,9.3,0,15.6C80.1,195,80.2,176.6,79.9,177.7z"/>
	<path fill="#9860A1" d="M81.3,192.8c-0.2,7.2,0,7.7,0,12.8C81.4,200.2,81.5,193,81.3,192.8z"/>
	<path fill="#9860A1" d="M84.3,198.7c0,15.4,0.1,26.7,0.4,35.7C85,215.3,84.4,215,84.3,198.7z"/>
	<path fill="#9860A1" d="M84.8,206.9l0.1,6.1C85,209.7,84.9,208.1,84.8,206.9z"/>
	<path fill="#9860A1" d="M84.8,205.5c0,0.5,0,0.9,0,1.4L84.8,205.5z"/>
	<polygon fill="#9860A1" points="84.6,193.6 84.6,198.5 84.6,191 	"/>
	<polygon fill="#9860A1" points="84.8,184.7 84.8,186.2 85,194.5 	"/>
	<path fill="#9860A1" d="M84.5,95.3c0,0.6,0,1,0,1.2c0-0.4,0-0.9,0-1.5c0-0.4,0-0.9,0-1.4c0-0.4,0-0.8,0-1.1c0-0.7-0.1-1.1-0.2-0.6
		c0,0.6,0,1.2,0,1.7C84.5,94.3,84.5,94.8,84.5,95.3z"/>
	<path fill="#9860A1" d="M1133.2,66.7l-12.6-0.4c-11.3,0-36.1,0-30.8,0.5C1098,66.9,1124.9,67.1,1133.2,66.7z"/>
	<path fill="#9860A1" d="M846.4,75.8c6.4,0,14,0.1,14.7-0.1C859.5,75.3,836.9,75.7,846.4,75.8z"/>
	<path fill="#9860A1" d="M459,62.7c45.7,0.1,100.6,0.3,105.7-0.5C553.4,59.8,390.8,61.6,459,62.7z"/>
	<polygon fill="#9860A1" points="1042.8,72.5 1029,72.5 1042.1,72.6 	"/>
</g>
<g>
	<g>
		<path fill="#FECE4C" d="M233,297.3c4.7,1,7.1,2.5,7.1,4.4v1c0,0.8-0.7,2-2.2,3.4c2.4,6.3,3.7,10.3,3.7,12c0,0.5-0.7,1.9-2,4.2
			c-0.1,0.2-0.3,1.5-0.5,3.9c0,3.9,3.6,6.3,10.7,7.1h8.5c0.6,0,1.9-3.1,3.9-9.3v-0.2c-1.3-4.8-2-7.4-2-8.1c0-1.5,1.3-4.1,3.9-7.8
			c0.3-1.7,0.5-2.6,0.5-2.7c-0.2-1.1-0.2-2.1-0.2-2.9c0-0.8,0.7-1.2,2.2-1.2h20c1.8,0,2.7,1.1,2.7,3.4c0,8.8,1.5,14.7,4.4,17.6
			l0.2,1.5v0.2l-2.9,6.3c-0.3,2.2-0.5,4.3-0.5,6.3v2.2c0,8.6,1.5,18,4.4,28.3c0.2,1.3,0.2,2.6,0.2,4.2v2.2c0,4.1-0.7,8.5-2.2,13.2
			l-0.2,1.2c0.2,0.9,0.2,1.3,0.2,1.5c0,1.5-0.8,2.7-2.4,3.7l-2.9-0.2c-1.1,0-1.8,1.5-2,4.4c-0.6,1.1-1.3,1.7-2.2,1.7h-0.5
			c-1.8,0-3.3-1.9-4.4-5.6c-0.2,0-0.4-0.1-0.7-0.2c-0.9,0.4-2.4,1.7-4.6,3.7l-1.5,0.2c-2.1,0-4.3-1.5-6.6-4.4
			c-1-1.4-1.5-2.4-1.5-2.9v-1c1.1-4.1,1.7-7.3,1.7-9.8c0-1-0.2-3.4-0.5-7.3l0.2-2.4c-0.2-1.8-0.2-3.9-0.2-6.3v-1.2l-0.2-1.2
			c-0.5,0.2-0.7,0.7-0.7,1.5v0.5c0,0.7,0.1,1.6,0.2,2.7c-0.4,1.3-0.9,2-1.5,2c-1.4,0-2.8-1.8-4.2-5.4l-0.5-0.2h-1.5
			c-0.3,3.7-0.5,6.3-0.5,8.1v1c-0.3,2.1-1,3.2-2.2,3.2c-2,0-2.9-2.1-2.9-6.3c-0.2-7.5-0.9-11.2-2.2-11.2c-1.8-1.6-3.1-2.4-3.9-2.4
			c-3.3,1.3-4.9,3.2-4.9,5.6c0,2.8,0.3,12.4,1,28.8c-2.2,3.9-4.4,5.9-6.6,5.9h-0.7c-2.6,0-5.5-0.9-8.5-2.7H225c0,0.9-1,1.8-2.9,2.9
			c-3.9,0-6.9-2.3-8.8-6.8v-3.7L212,374c1-2.2,1.5-4.3,1.5-6.1c0-0.9-0.5-3.7-1.5-8.3v-0.2l1.5-3.9c-0.3-2.9-0.5-5.3-0.5-7.1
			c0.7-8.2,1-15.1,1-20.8c0-1.8-0.2-10.7-0.7-26.9l1-0.7h1.7c2.2,0,4.9,0.1,8.3,0.2L233,297.3z"/>
		<path fill="#FECE4C" d="M334.5,301.1h1.2c0.9,0,2.5,0.2,4.9,0.7c12.9-0.2,21-0.2,24.4-0.2c0.7,0.6,3.6,9.9,8.8,27.8
			c0.3,0.7,2.7,8.3,7.1,22.9c3.3,1.3,4.9,4.2,4.9,8.8c0,0.9,0.1,2.2,0.2,3.9c-0.2,0.9-0.2,1.8-0.2,2.7c0.2,1.3,2.6,9.6,7.3,24.9v1
			c0,3.1-1.1,4.6-3.2,4.6l-1.2,0.2c-0.4,0-2-1.7-4.6-5.1c-1.4-0.7-3-1-4.6-1c-0.2,0-1.7,0.4-4.4,1.2h-1.2v2c0,1.7-1.5,3.7-4.6,6.1
			h-1c-1.7,0-3-2.2-3.9-6.6v-1.2c0-0.7,0.2-2.5,0.5-5.4c0-0.9-0.7-2.8-2-5.6v-3.7c0-1.4-1.3-3.1-3.9-4.9c-3.7,0.4-5.6,1.3-5.6,2.4
			c-1.1,1.5-2.8,2.5-5.1,3.2c-1.2,0-3.1-1.5-5.6-4.6l-0.5-0.2c-3.6,0-5.4,1.6-5.4,4.9c0,2.1-1,3.2-2.9,3.2c-1.8,0-3.7,3.7-5.6,11
			c0,3.1-0.9,4.6-2.7,4.6h-1.2c-2.1,0-3.6-2-4.4-6.1c-2.9,2.1-4.9,3.2-6.1,3.2h-0.2c-1.4-0.1-3.4-1.5-6.1-4.2h-0.5
			c-0.5,0-1.3,2-2.4,6.1l-1.2,0.7c-1.3,0-2.1-1.2-2.4-3.7v-4.2c2.3-4.8,10.3-26.9,24.2-66.2c0.5-0.6,0.7-1.4,0.7-2.4v-3.4
			c0-3.6,1-8.3,2.9-14.2C330.2,302.2,332.2,301.1,334.5,301.1z M346.9,326.7c-5.2,16.8-7.8,26-7.8,27.6h6.3c1.4,0,2.4-0.2,3.2-0.5
			c0.2-5.2,0.2-9,0.2-11.5v-1.5c0-4.8-0.6-7.9-1.7-9.3v-0.5c0.5-2.3,0.7-3.7,0.7-4.2l-0.5-0.2H346.9z M352.5,337.2l-0.2,2.4
			c0,1.5-0.1,4.8-0.2,9.8c-0.5,0.8-0.7,1.6-0.7,2.4v2.2c1.4,0.2,2.3,0.2,2.7,0.2c2-0.1,2.9-0.3,2.9-0.7
			C354.5,342.7,353,337.2,352.5,337.2z"/>
		<path fill="#FECE4C" d="M404.7,301.2h24.4c0.3,0,0.5,0.2,0.5,0.5c-0.2,18.6-0.2,31.6-0.2,39.1c0.3,9.6,0.5,15.5,0.5,17.6
			c0,4.4,3,8.1,9,11c3.3-2,6.8-2.9,10.7-2.9c1.5,0.4,2.7,1.3,3.7,2.7c1.1,2.1,2.1,3.5,2.9,4.2h8.1c0.3,0,0.5,0.2,0.5,0.5v18.6
			c0,2.6-1.8,4.5-5.4,5.6c-0.7,0.2-1,0.9-1,2.2v3.2c-0.6,3.4-1.7,5.1-3.4,5.1h-0.5c-2.3-0.5-3.4-2.4-3.4-5.9v-4.2
			c0-0.9-0.3-1.5-1-1.7h-0.5l-6.8,3.2l-2.7,0.5c-2.2,0-4.8-1.4-7.6-4.2h-1.2c-2.8,0.4-4.2,1-4.2,2c-0.7,2.9-1.6,4.4-2.7,4.4
			c-3.9-1-5.9-2.8-5.9-5.4v-0.5c-2.4-1-3.8-1.5-4.4-1.5c-2.8,1.8-4.5,2.7-4.9,2.7c-3.9,0-7.2-2-9.8-6.1c1.5-8.2,2.2-12.9,2.2-14.2
			c-0.7-2-1.1-4.8-1.2-8.3c-0.7-0.9-1.2-2.1-1.5-3.4c0-1,0.4-3.8,1.2-8.5v-0.5c0-1.3-0.6-3.8-1.7-7.6v-1c0.8-2.9,1.2-5,1.2-6.1V342
			l-1-4.4l2.4-7.3c0.2-1.1,0.2-2,0.2-2.7c0-1.1-0.1-3.3-0.2-6.3c0.5-7,1.3-11.1,2.4-12.5c0.2-0.3,0.2-0.7,0.2-1.2v-4.9
			C404.1,301.7,404.3,301.2,404.7,301.2z"/>
		<path fill="#FECE4C" d="M476.3,301.2h24.4c0.3,0,0.5,0.2,0.5,0.5c-0.2,18.6-0.2,31.6-0.2,39.1c0.3,9.6,0.5,15.5,0.5,17.6
			c0,4.4,3,8.1,9,11c3.3-2,6.8-2.9,10.7-2.9c1.5,0.4,2.7,1.3,3.7,2.7c1.1,2.1,2.1,3.5,2.9,4.2h8.1c0.3,0,0.5,0.2,0.5,0.5v18.6
			c0,2.6-1.8,4.5-5.4,5.6c-0.7,0.2-1,0.9-1,2.2v3.2c-0.6,3.4-1.7,5.1-3.4,5.1h-0.5c-2.3-0.5-3.4-2.4-3.4-5.9v-4.2
			c0-0.9-0.3-1.5-1-1.7h-0.5l-6.8,3.2l-2.7,0.5c-2.2,0-4.8-1.4-7.6-4.2h-1.2c-2.8,0.4-4.2,1-4.2,2c-0.7,2.9-1.6,4.4-2.7,4.4
			c-3.9-1-5.9-2.8-5.9-5.4v-0.5c-2.4-1-3.8-1.5-4.4-1.5c-2.8,1.8-4.5,2.7-4.9,2.7c-3.9,0-7.2-2-9.8-6.1c1.5-8.2,2.2-12.9,2.2-14.2
			c-0.7-2-1.1-4.8-1.2-8.3c-0.7-0.9-1.2-2.1-1.5-3.4c0-1,0.4-3.8,1.2-8.5v-0.5c0-1.3-0.6-3.8-1.7-7.6v-1c0.8-2.9,1.2-5,1.2-6.1V342
			l-1-4.4l2.4-7.3c0.2-1.1,0.2-2,0.2-2.7c0-1.1-0.1-3.3-0.2-6.3c0.5-7,1.3-11.1,2.4-12.5c0.2-0.3,0.2-0.7,0.2-1.2v-4.9
			C475.7,301.7,476,301.2,476.3,301.2z"/>
		<path fill="#FECE4C" d="M587.3,302.1h4.4c7,0,14.6,1.8,22.7,5.4c2.5,0,5.2,1.7,8.3,5.1c0.3,2.1,2.2,5,5.9,8.5c0.2,0,0.5,1.3,1,3.9
			c1.3,2.3,2.8,7.7,4.6,16.1c1.6,0.6,2.4,2.8,2.4,6.8c1.1,3.7,1.7,6.2,1.7,7.3v1.5c0,1.7-1.5,3.8-4.4,6.3c-0.9,1.4-1.8,6.6-2.4,15.6
			c0,3-0.7,6.1-2.2,9.3c0,3.4-0.9,5.1-2.7,5.1c-0.9-0.4-2-1.7-3.4-3.9v-0.7l0.2-2.4h-0.7l-2.4,4.4c0,0.3-2.8,2.5-8.3,6.6
			c-2,2.6-3.6,3.9-4.9,3.9h-0.2c-0.9,0-2.5-0.8-4.6-2.4c-0.2-0.2-0.7-0.2-1.5-0.2c-1.2,0-2.1,1.1-2.7,3.2c-1.5,0.8-2.2,1.8-2.2,3.2
			c-0.2,5.4-1.1,8.1-2.4,8.1h-2c-2.6,0-3.9-3-3.9-9c-0.2-1.5-0.2-3.1-0.2-4.6h-2.2c-2,2.8-3.8,4.2-5.4,4.2c-2.6,0-5.9-2.2-9.8-6.6
			l-1.2-3.2l-2,3.7c-1.1,1-2.3,1.5-3.4,1.5h-0.5c-2.6,0-4.8-2.4-6.8-7.1c0-5.6-1.7-9.2-5.1-10.7c-4.1-8.5-6.1-13.1-6.1-13.9
			c0.2-1.1,0.2-2,0.2-2.7v-1c0-0.6-0.9-2.7-2.7-6.3c-0.3-0.7-0.5-1.5-0.5-2.7v-1.5c0-2.1,1.1-5.3,3.2-9.8c0-8.9,3.3-18,9.8-27.3
			C562.8,306.5,573.6,302.1,587.3,302.1z M577.3,328.7c-1.7,1.8-3.5,6.9-5.4,15.4l-0.2,3.4c0,14.2,3.3,22.9,9.8,26.1v-0.2
			c-0.3-4.8-0.5-7.8-0.5-9c0-3,0.1-4.9,0.2-5.9c-0.2-3.8-0.2-7.5-0.2-11v-8.3c0-6.8-0.7-10.3-2.2-10.3
			C578.6,328.9,578.1,328.8,577.3,328.7z M585.6,340.6c0,0.9,0.1,2.9,0.2,5.9c-0.2,2.4-0.7,6.6-1.7,12.5c0.1,10.9,0.4,16.4,1,16.4
			c1.5,0.3,3.4,0.5,5.9,0.5h1c7.6,0,12.4-3.9,14.4-11.7v-0.2c0-14.5-1.1-24-3.4-28.6c-0.2-1.5-0.6-2.2-1.2-2.2c-1,0.7-1.9,1-2.7,1
			c-3.7-1.6-5.6-3.4-5.6-5.4c-1.2-1.8-1.9-2.7-2.2-2.7h-1.7c-1.3,0-2,1.2-2,3.7C586.2,334,585.6,337.7,585.6,340.6z"/>
		<path fill="#FECE4C" d="M772.2,301.6c0.2,0,0.5,0.2,0.7,0.7v0.5c-4.1,18.4-6.3,29.2-6.8,32.5v4.2c0,0.4,0.3,1.7,1,3.7v0.5
			c0,3.5-1.4,6.3-4.2,8.5c-0.8,1.4-1.2,3.3-1.2,5.6c1,2.1,1.5,3.7,1.5,4.6c-0.5,4.6-1.2,7.1-2,7.3c-2.9,4.2-4.6,7.3-5.1,9.5v0.2
			c0.5,7.2,0.7,12,0.7,14.4c0,7.5-0.8,11.2-2.4,11.2c-0.9,7.4-1.5,11.5-2,12.2l-0.5,0.2h-0.7c-1.8,0-2.7-1.8-2.7-5.4
			c-0.8-1.4-1.8-5.5-3.2-12.2h-0.5c-0.7,0-1.2,2.4-1.7,7.3l-0.5,0.2h-1c-1.3,0-2.6-1.4-4.2-4.2c-0.3-1.6-0.6-2.4-1-2.4h-3.2
			c-2,1.8-3.7,4.8-5.1,8.8l-1,0.7h-0.7c-3.7,0-5.6-4.2-5.6-12.5c-2.3-1.5-3.4-3.2-3.4-5.1c-0.5-6-1.3-9-2.2-9c-1.3,0-2-2.7-2-8.1
			v-8.1c0-1-1.1-5.4-3.4-13.2c0-0.3-0.7-1.5-2-3.7h-0.2c-1.1,0-2.6,6.3-4.6,18.8c0,0.9,0.2,2,0.5,3.4c-1,5.7-1.5,10-1.5,12.7l1.7,10
			c-0.7,2.6-2,3.9-3.9,3.9c-0.6,0.2-1.5,0.2-2.7,0.2H697v3.2c-0.4,4.7-1.6,7.1-3.7,7.1h-0.7c-3.9-1.1-5.9-3.1-5.9-5.9
			c-0.2,0-1.8-1.5-4.6-4.6c-0.9-0.7-1.6-1-2-1c-1.3,1.6-3.2,2.4-5.9,2.4c0,0.2-0.2,0.2-0.7,0.2h-1.5c-2.4,0-5.2-1.9-8.3-5.6
			c-0.3-1.1-0.5-1.8-0.5-2.2v-0.2c0-0.6,0.5-2,1.5-4.4v-0.2c0-1.4-2.9-13.2-8.8-35.4h-0.2c-1.8,0.9-2.7,3.9-2.7,9
			c-0.7,3.6-1.2,5.4-1.7,5.4h-0.7c-1.2,0-2.1-4.3-2.7-12.9l0.2-2.2c-0.7-1.5-1-2.6-1-3.2v-1.7c-0.7-9.4-1-15.5-1-18.3
			c-0.7-1.6-1.3-5.9-2-12.9v-1.2c0-0.3,0.2-0.5,0.7-0.5c-0.5-3.6-0.7-5.8-0.7-6.6c0-0.2,0.1-0.4,0.2-0.7c-0.5-1.8-0.7-3.2-0.7-4.2
			c0.2-0.5,0.7-0.7,1.5-0.7h22.2c0.7,0,1.8,4.5,3.4,13.4l8.5,36.9c0.9,1.5,2,2.7,3.2,3.7c2.2,0,3.5-1.8,3.9-5.4
			c1.3-5.9,2-9.5,2-10.7v-1c0-2.4-0.2-6.2-0.5-11.5c0-1.4,1.6-6.5,4.9-15.1c2.8-7,4.4-10.5,4.9-10.5c0.3-0.2,0.6-0.2,1-0.2h7.6
			c3,0,7.1-0.1,12.5-0.2c1.4,0,2.3,1.5,2.7,4.6c2.6,12,4.5,18.1,5.6,18.1c0,0.2,1.7,1.3,4.9,3.2c0.7,1.1,1,2,1,2.7
			c-1.3,3.2-2,5.6-2,7.3c0,7.9,1,15,2.9,21.2h1c1.3,0,2.4-2,3.2-5.9c0.8-1.8,2.1-7.8,3.9-17.8v-0.7c0-0.7-0.3-2.9-1-6.8
			c2.1-6.6,3.2-10.7,3.2-12.5c2.1-1,3.2-3.2,3.2-6.6c0.8-4.7,1.6-7.1,2.4-7.1H772.2z"/>
		<path fill="#FECE4C" d="M785.5,298.4h0.7c0.6,0,1.8,0.8,3.7,2.4c0.2,0.2,1.1,0.3,2.7,0.5c3.2-0.2,5.3-0.2,6.3-0.2
			c2.2,0.2,3.6,0.2,4.2,0.2c0.5,0,2.4-0.9,5.6-2.7h0.2c6.5,0.4,9.8,1.1,9.8,2.2c0.6,0.3,1.3,0.5,2,0.5h12.9c1.5,0,2.2,0.6,2.2,1.7
			v17.1c-2.3,2.6-3.5,3.9-3.7,3.9h-0.2c-0.5,0-1.6-0.7-3.2-2c-0.9,2.9-2.4,4.4-4.4,4.4c-0.4,0-1.6-0.8-3.7-2.4c-1,0-2.8-0.9-5.4-2.7
			c-0.9-0.2-1.6-0.2-2.2-0.2h-0.2c-2.2,2-4.1,3-5.6,3.2c0.2,0.9,0.3,3.2,0.5,6.8h0.2c2.6,0,6.6,1.1,11.7,3.4h11.5
			c1.1,0,2,0.2,2.7,0.5c0.2,6.8,0.2,11.8,0.2,15.1v5.6c0,1.3-1.3,2.8-3.9,4.4c0,0.5-0.1,0.7-0.2,0.7l0.2,1.2v6.1
			c0,1.6,0.2,2.4,0.5,2.4c3.9,0,5.9,0.2,5.9,0.7l0.2,1.5v17.6c-1,3.8-1.5,6.6-1.5,8.3v2l0.2,1.7c-0.7,0.3-1.5,0.5-2.7,0.5
			c-1.1-1.5-1.8-4.1-2.2-7.6c-0.6-2.3-1.2-3.4-1.7-3.4c-1.9,0-4.6,2-8.1,6.1c-0.5,0.3-1,0.5-1.5,0.5c-2.9,0-5.6-1.7-8.1-5.1h-0.2
			c-0.9,0-2.6,1.3-5.1,3.9c-0.8,0.5-1.6,0.7-2.4,0.7h-0.2c-1,0-3.2-1.1-6.6-3.2h-0.2c-1.1,2.9-2.2,4.4-3.4,4.4
			c-0.3,0.2-0.6,0.2-1,0.2c-1.1-0.2-2.6-2-4.4-5.4h-0.2c-0.8,0.5-1.5,0.7-2,0.7h-0.7c-2.8,0-4.9-1.8-6.1-5.4c-0.2-1.1-0.2-2-0.2-2.7
			v-0.5c0-1.6,1-4.4,2.9-8.3v-19.8c0-4-0.1-9.6-0.2-16.8c-1.8-2-2.7-3.6-2.7-4.9v-1.7c1.1-8.6,1.7-13.8,1.7-15.4
			c0-0.4-0.2-4.5-0.7-12.2c0-0.3,0.2-0.9,0.5-1.7c-0.2-1.1-0.2-2-0.2-2.7C779.7,301,781.6,299.6,785.5,298.4z M806.8,354.1v10.5
			c0,4.1,2.6,6.1,7.8,6.1h12.2c0.3-3.1,0.5-5.5,0.5-7.1c0-4.9-0.8-7.3-2.4-7.3c0-0.4-0.8-0.9-2.4-1.7c-3,2.3-5.2,3.4-6.8,3.4
			c-2.1,0-4.1-1.3-6.1-3.9H806.8z"/>
		<path fill="#FECE4C" d="M849.4,298.4h0.7c0.6,0,1.8,0.8,3.7,2.4c0.2,0.2,1.1,0.3,2.7,0.5c3.2-0.2,5.3-0.2,6.3-0.2
			c2.2,0.2,3.6,0.2,4.2,0.2c0.5,0,2.4-0.9,5.6-2.7h0.2c6.5,0.4,9.8,1.1,9.8,2.2c0.6,0.3,1.3,0.5,2,0.5h12.9c1.5,0,2.2,0.6,2.2,1.7
			v17.1c-2.3,2.6-3.5,3.9-3.7,3.9h-0.2c-0.5,0-1.6-0.7-3.2-2c-0.9,2.9-2.4,4.4-4.4,4.4c-0.4,0-1.6-0.8-3.7-2.4c-1,0-2.8-0.9-5.4-2.7
			c-0.9-0.2-1.6-0.2-2.2-0.2h-0.2c-2.2,2-4.1,3-5.6,3.2c0.2,0.9,0.3,3.2,0.5,6.8h0.2c2.6,0,6.6,1.1,11.7,3.4H895
			c1.1,0,2,0.2,2.7,0.5c0.2,6.8,0.2,11.8,0.2,15.1v5.6c0,1.3-1.3,2.8-3.9,4.4c0,0.5-0.1,0.7-0.2,0.7l0.2,1.2v6.1
			c0,1.6,0.2,2.4,0.5,2.4c3.9,0,5.9,0.2,5.9,0.7l0.2,1.5v17.6c-1,3.8-1.5,6.6-1.5,8.3v2l0.2,1.7c-0.7,0.3-1.5,0.5-2.7,0.5
			c-1.1-1.5-1.8-4.1-2.2-7.6c-0.6-2.3-1.2-3.4-1.7-3.4c-1.9,0-4.6,2-8.1,6.1c-0.5,0.3-1,0.5-1.5,0.5c-2.9,0-5.6-1.7-8.1-5.1H875
			c-0.9,0-2.6,1.3-5.1,3.9c-0.8,0.5-1.6,0.7-2.4,0.7h-0.2c-1,0-3.2-1.1-6.6-3.2h-0.2c-1.1,2.9-2.2,4.4-3.4,4.4
			c-0.3,0.2-0.6,0.2-1,0.2c-1.1-0.2-2.6-2-4.4-5.4h-0.2c-0.8,0.5-1.5,0.7-2,0.7h-0.7c-2.8,0-4.9-1.8-6.1-5.4c-0.2-1.1-0.2-2-0.2-2.7
			v-0.5c0-1.6,1-4.4,2.9-8.3v-19.8c0-4-0.1-9.6-0.2-16.8c-1.8-2-2.7-3.6-2.7-4.9v-1.7c1.1-8.6,1.7-13.8,1.7-15.4
			c0-0.4-0.2-4.5-0.7-12.2c0-0.3,0.2-0.9,0.5-1.7c-0.2-1.1-0.2-2-0.2-2.7C843.5,301,845.5,299.6,849.4,298.4z M870.6,354.1v10.5
			c0,4.1,2.6,6.1,7.8,6.1h12.2c0.3-3.1,0.5-5.5,0.5-7.1c0-4.9-0.8-7.3-2.4-7.3c0-0.4-0.8-0.9-2.4-1.7c-3,2.3-5.2,3.4-6.8,3.4
			c-2.1,0-4.1-1.3-6.1-3.9H870.6z"/>
		<path fill="#FECE4C" d="M991.1,298.1c6.2,1.6,9.3,3.4,9.3,5.4c-0.3,2.9-0.5,4.7-0.5,5.4v1.7c0,1.3,0.2,3.8,0.5,7.3
			c0,0.8-0.3,2.5-1,5.1c2.1,2.4,3.2,4.2,3.2,5.4v0.7c-2,4.6-2.9,8-2.9,10.3v2.2c0.7,3.6,1,5.7,1,6.3v3.2c0,6.6-0.6,11-1.7,13.2
			l-0.2,1.2c0,2.7,0.7,5.2,2.2,7.6c0.3,0.7,0.5,1.8,0.5,3.2v9c0.3,1.1,0.5,1.8,0.5,2v0.7c0,1.1-0.7,3.1-2,5.9
			c-0.6,12.9-1.7,19.9-3.4,21.2h-0.2c-2.5,0-4.1-4.3-4.6-12.9c0-1-1.5-2.3-4.6-3.9c-0.8,2-2,3.5-3.7,4.4h-0.7
			c-1.9,0-4.2-1.5-6.8-4.6c-0.9-0.2-1.5-0.2-2-0.2c-0.9,0-1.5,0.4-2,1.2v2.4c-0.9,1.1-1.6,1.7-2.2,1.7c-3.3-1.9-4.9-3.7-4.9-5.4
			c-1.8-1.3-3.3-4.2-4.6-8.8c-3.1-4.9-4.6-7.6-4.6-8.3c0-1.3-1.8-3.7-5.4-7.1c0-0.3-1-1.7-2.9-4.4c-0.7,0.9-1,1.8-1,2.7v11
			c0,1.2-0.2,1.8-0.7,2h-1c-1.1,0-1.8-2.4-2.2-7.1c0.3-3.1,0.5-5,0.5-5.9v-0.5l-1.5-19.3c-1.1-2.8-1.7-5.5-1.7-7.8
			c-4.6-8.3-7.2-13.3-7.8-14.9h-0.5v0.2c0.3,11.2,1.1,16.8,2.4,16.8c0.3,0.7,0.5,1.2,0.5,1.7c0,4.7-0.3,13.3-1,25.9
			c0.7,8.8,1.3,13.2,1.7,13.2c0.4,0.3,1.3,2.4,2.4,6.3c-1.1,2.7-2.6,4.5-4.4,5.4l-1,0.2v2.9c0,0.9-0.7,1.8-2,2.9
			c-1.8,0-2.8-1.2-3.2-3.7v-0.7h-0.2c-2.1,0-3.2,2.3-3.2,6.8c-0.7,4.1-2,6.1-3.9,6.1c-3.3-1.7-4.9-5.5-4.9-11.5v-1.2l-0.2-1.7
			c-2.1,1.5-3.5,2.2-4.4,2.2h-0.5c-2-0.7-2.9-2.8-2.9-6.3v-5.6c0-2.2,1-6.2,2.9-12v-1.2c-1.5-3-2.2-5.4-2.2-7.1c0.7-5.4,1-8.5,1-9.3
			c-1-4.2-1.5-7.1-1.5-8.8v-0.7c0-1.1,0.2-2.6,0.7-4.4c-1-4.3-1.5-6.7-1.5-7.3v-2.4c1.1-3,1.7-4.8,1.7-5.4c0-0.7-0.1-3.2-0.2-7.3
			c0-0.5,0.7-2.2,2-5.1v-16.6c0-0.3,0.2-0.5,0.5-0.5h30.8c1.8,0,3.4,1.9,4.6,5.6c0.2,0,7.2,13.1,21,39.1l3.4,3.7h1.7
			c1.1,0,1.7-0.3,1.7-1c0-2.1,0.8-4.6,2.4-7.6v-0.5c0-6.8-0.5-10.3-1.5-10.3v-0.2l0.2-3.4c-1.3-1.8-2-3.1-2-3.9l0.7-5.4
			c-0.2-2-0.3-3-0.5-3.2c0-0.5,0.9-1.8,2.7-3.9v-8.3c0-0.3,0.2-0.5,0.5-0.5h9.8C986.9,301.6,988.7,300.4,991.1,298.1z"/>
	</g>
</g>
</svg>
