<?xml version="1.0" encoding="utf-8"?>
<!-- Generator: Adobe Illustrator 23.0.4, SVG Export Plug-In . SVG Version: 6.00 Build 0)  -->
<svg version="1.1" id="Layer_1" xmlns="http://www.w3.org/2000/svg" xmlns:xlink="http://www.w3.org/1999/xlink" x="0px" y="0px"
	 width="1200px" height="1800px" viewBox="0 0 1200 1800" enable-background="new 0 0 1200 1800" xml:space="preserve">
<pattern  x="4125" y="-567" width="93.6" height="93.6" patternUnits="userSpaceOnUse" id="New_Pattern_Swatch_1" viewBox="93.5 -124.8 93.6 93.6" overflow="visible">
	<g id="XMLID_15080_">
		<rect id="XMLID_15135_" x="93.5" y="-124.8" fill="none" width="93.6" height="93.6"/>
		<g id="XMLID_15129_">
			<polygon id="XMLID_15134_" fill="none" points="117.2,-31.3 116.9,-31.3 117,-31.1 			"/>
			<polygon id="XMLID_15133_" fill="none" points="164.1,-31.3 163.8,-31.3 163.9,-31.1 			"/>
			<polygon id="XMLID_15132_" fill="#EFF8FB" points="178.6,-31.3 164.1,-31.3 163.9,-31.1 163.8,-31.3 149.3,-31.3 163.9,-15.6 			
				"/>
			<polygon id="XMLID_15131_" fill="#EFF8FB" points="131.7,-31.3 117.2,-31.3 117,-31.1 116.9,-31.3 102.4,-31.3 117,-15.6 			"/>
			<polygon id="XMLID_15130_" fill="#BFE5E8" points="140.5,-25.1 163.9,0 187.3,-25 187.3,-31.3 178.6,-31.3 163.9,-15.6 
				149.3,-31.3 131.7,-31.3 117,-15.6 102.4,-31.3 93.6,-31.3 93.6,-25.1 117,0 			"/>
		</g>
		<g id="XMLID_15127_">
			<polygon id="XMLID_15128_" fill="#BFE5E8" points="46.9,-25.1 70.3,0 93.7,-25 93.7,-31.3 85,-31.3 70.3,-15.6 55.7,-31.3 
				38.1,-31.3 23.4,-15.6 8.8,-31.3 0,-31.3 0,-25.1 23.4,0 			"/>
		</g>
		<g id="XMLID_15106_">
			<polygon id="XMLID_15126_" fill="none" points="178.5,-31.2 187.3,-40.6 187.3,-40.6 178.5,-31.2 			"/>
			<polygon id="XMLID_15125_" fill="none" points="117.2,-124.9 116.9,-124.9 117,-124.7 			"/>
			<polygon id="XMLID_15124_" fill="none" points="140.5,-118.7 163.9,-93.6 187.3,-118.6 187.3,-118.6 163.9,-93.6 140.5,-118.7 
				117,-93.6 93.6,-118.7 93.6,-118.7 117,-93.6 			"/>
			<polygon id="XMLID_15123_" fill="none" points="164.1,-124.9 163.8,-124.9 163.9,-124.7 			"/>
			<polygon id="XMLID_15122_" fill="none" points="131.6,-31.2 131.6,-31.2 140.5,-40.7 149.4,-31.2 149.4,-31.2 140.5,-40.7 			"/>
			<polygon id="XMLID_15121_" fill="none" points="102.5,-31.2 93.6,-40.7 93.6,-40.7 102.5,-31.2 			"/>
			<polygon id="XMLID_15120_" fill="none" points="140.5,-71.9 163.9,-46.8 187.3,-71.8 187.3,-71.8 163.9,-46.8 140.5,-71.9 
				117,-46.8 93.6,-71.9 93.6,-71.9 117,-46.8 			"/>
			<polygon id="XMLID_15119_" fill="none" points="140.5,-103 163.9,-78 187.3,-103 187.3,-103 163.9,-78 140.5,-103.1 117,-78 
				93.6,-103.1 93.6,-103 117,-78 			"/>
			<polygon id="XMLID_15118_" fill="none" points="140.5,-56.3 163.9,-31.2 187.3,-56.2 187.3,-56.2 163.9,-31.2 140.5,-56.3 
				117,-31.2 93.6,-56.3 93.6,-56.3 117,-31.2 			"/>
			<polygon id="XMLID_15117_" fill="#EFF8FB" points="178.6,-124.9 164.1,-124.9 163.9,-124.7 163.8,-124.9 149.3,-124.9 
				163.9,-109.2 			"/>
			<polygon id="XMLID_15116_" fill="#EFF8FB" points="131.7,-124.9 117.2,-124.9 117,-124.7 116.9,-124.9 102.4,-124.9 117,-109.2 
							"/>
			<polygon id="XMLID_15115_" fill="#BFE5E8" points="140.5,-118.7 163.9,-93.6 187.3,-118.6 187.3,-124.9 178.6,-124.9 
				163.9,-109.2 149.3,-124.9 131.7,-124.9 117,-109.2 102.4,-124.9 93.6,-124.9 93.6,-118.7 117,-93.6 			"/>
			<polygon id="XMLID_15114_" fill="#EFF8FB" points="140.5,-103.1 163.9,-78 187.3,-103 187.3,-118.6 163.9,-93.6 140.5,-118.7 
				117,-93.6 93.6,-118.7 93.6,-103.1 117,-78 			"/>
			<polygon id="XMLID_15113_" fill="#BFE5E8" points="140.5,-87.5 163.9,-62.4 187.3,-87.4 187.3,-103 163.9,-78 140.5,-103 
				117,-78 93.6,-103 93.6,-87.5 117,-62.4 			"/>
			<polygon id="XMLID_15112_" fill="#EFF8FB" points="140.5,-71.9 163.9,-46.8 187.3,-71.8 187.3,-87.4 163.9,-62.4 140.5,-87.5 
				117,-62.4 93.6,-87.5 93.6,-87.4 93.6,-71.9 117,-46.8 			"/>
			<polygon id="XMLID_15111_" fill="#BFE5E8" points="140.5,-56.3 163.9,-31.2 187.3,-56.2 187.3,-71.8 163.9,-46.8 140.5,-71.9 
				117,-46.8 93.6,-71.9 93.6,-56.3 117,-31.2 			"/>
			<polygon id="XMLID_15110_" fill="#EFF8FB" points="131.6,-31.2 140.5,-40.7 149.4,-31.2 178.5,-31.2 187.3,-40.6 187.3,-56.2 
				163.9,-31.2 140.5,-56.3 117,-31.2 93.6,-56.3 93.6,-40.7 102.5,-31.2 			"/>
			<polygon id="XMLID_15109_" fill="#BFE5E8" points="93.6,-40.7 93.6,-31.2 102.5,-31.2 			"/>
			<polygon id="XMLID_15108_" fill="#BFE5E8" points="187.3,-31.2 187.3,-40.6 178.5,-31.2 			"/>
			<polygon id="XMLID_15107_" fill="#BFE5E8" points="131.6,-31.2 149.4,-31.2 140.5,-40.7 			"/>
		</g>
		<g id="XMLID_15093_">
			<polygon id="XMLID_15105_" fill="none" points="84.9,-31.2 93.7,-40.6 93.7,-40.6 84.9,-31.2 			"/>
			<polygon id="XMLID_15104_" fill="none" points="46.9,-118.7 70.3,-93.6 93.7,-118.6 93.7,-118.6 70.3,-93.6 46.9,-118.7 
				23.4,-93.6 0,-118.7 0,-118.7 23.4,-93.6 			"/>
			<polygon id="XMLID_15103_" fill="none" points="46.9,-71.9 70.3,-46.8 93.7,-71.8 93.7,-71.8 70.3,-46.8 46.9,-71.9 23.4,-46.8 
				0,-71.9 0,-71.9 23.4,-46.8 			"/>
			<polygon id="XMLID_15102_" fill="none" points="46.9,-103 70.3,-78 93.7,-103 93.7,-103 70.3,-78 46.9,-103.1 23.4,-78 0,-103.1 
				0,-103 23.4,-78 			"/>
			<polygon id="XMLID_15101_" fill="none" points="46.9,-56.3 70.3,-31.2 93.7,-56.2 93.7,-56.2 70.3,-31.2 46.9,-56.3 23.4,-31.2 
				0,-56.3 0,-56.3 23.4,-31.2 			"/>
			<polygon id="XMLID_15100_" fill="#BFE5E8" points="46.9,-118.7 70.3,-93.6 93.7,-118.6 93.7,-124.9 85,-124.9 70.3,-109.2 
				55.7,-124.9 38.1,-124.9 23.4,-109.2 8.8,-124.9 0,-124.9 0,-118.7 23.4,-93.6 			"/>
			<polygon id="XMLID_15099_" fill="#EFF8FB" points="46.9,-103.1 70.3,-78 93.7,-103 93.7,-118.6 70.3,-93.6 46.9,-118.7 
				23.4,-93.6 0,-118.7 0,-103.1 23.4,-78 			"/>
			<polygon id="XMLID_15098_" fill="#BFE5E8" points="46.9,-87.5 70.3,-62.4 93.7,-87.4 93.7,-103 70.3,-78 46.9,-103 23.4,-78 
				0,-103 0,-87.5 23.4,-62.4 			"/>
			<polygon id="XMLID_15097_" fill="#EFF8FB" points="46.9,-71.9 70.3,-46.8 93.7,-71.8 93.7,-87.4 70.3,-62.4 46.9,-87.5 
				23.4,-62.4 0,-87.5 0,-87.4 0,-71.9 23.4,-46.8 			"/>
			<polygon id="XMLID_15096_" fill="#BFE5E8" points="46.9,-56.3 70.3,-31.2 93.7,-56.2 93.7,-71.8 70.3,-46.8 46.9,-71.9 
				23.4,-46.8 0,-71.9 0,-56.3 23.4,-31.2 			"/>
			<polygon id="XMLID_15095_" fill="#EFF8FB" points="38,-31.2 46.9,-40.7 55.8,-31.2 84.9,-31.2 93.7,-40.6 93.7,-56.2 70.3,-31.2 
				46.9,-56.3 23.4,-31.2 0,-56.3 0,-40.7 8.9,-31.2 			"/>
			<polygon id="XMLID_15094_" fill="#BFE5E8" points="93.7,-31.2 93.7,-40.6 84.9,-31.2 			"/>
		</g>
		<g id="XMLID_15085_">
			<polygon id="XMLID_15092_" fill="none" points="178.5,-124.8 187.3,-134.2 187.3,-134.2 178.5,-124.8 			"/>
			<polygon id="XMLID_15091_" fill="none" points="131.6,-124.8 131.6,-124.8 140.5,-134.3 149.4,-124.8 149.4,-124.8 140.5,-134.3 
							"/>
			<polygon id="XMLID_15090_" fill="none" points="102.5,-124.8 93.6,-134.3 93.6,-134.3 102.5,-124.8 			"/>
			<polygon id="XMLID_15089_" fill="#EFF8FB" points="131.6,-124.8 140.5,-134.3 149.4,-124.8 178.5,-124.8 187.3,-134.2 
				187.3,-149.8 163.9,-124.8 140.5,-149.9 117,-124.8 93.6,-149.9 93.6,-134.3 102.5,-124.8 			"/>
			<polygon id="XMLID_15088_" fill="#BFE5E8" points="93.6,-134.3 93.6,-124.8 102.5,-124.8 			"/>
			<polygon id="XMLID_15087_" fill="#BFE5E8" points="187.3,-124.8 187.3,-134.2 178.5,-124.8 			"/>
			<polygon id="XMLID_15086_" fill="#BFE5E8" points="131.6,-124.8 149.4,-124.8 140.5,-134.3 			"/>
		</g>
		<g id="XMLID_15081_">
			<polygon id="XMLID_15084_" fill="none" points="84.9,-124.8 93.7,-134.2 93.7,-134.2 84.9,-124.8 			"/>
			<polygon id="XMLID_15083_" fill="#EFF8FB" points="38,-124.8 46.9,-134.3 55.8,-124.8 84.9,-124.8 93.7,-134.2 93.7,-149.8 
				70.3,-124.8 46.9,-149.9 23.4,-124.8 0,-149.9 0,-134.3 8.9,-124.8 			"/>
			<polygon id="XMLID_15082_" fill="#BFE5E8" points="93.7,-124.8 93.7,-134.2 84.9,-124.8 			"/>
		</g>
	</g>
</pattern>
<g>
	<g id="XMLID_4_">
		<g id="XMLID_15312_">
			
				<pattern  id="XMLID_1239_" xlink:href="#New_Pattern_Swatch_1" patternTransform="matrix(3.3333 0 0 3.5714 26809.8105 12852.8154)">
			</pattern>
			<rect id="XMLID_15316_" fill="url(#XMLID_1239_)" width="1200" height="1800"/>
			<rect id="XMLID_15315_" y="663.5" fill="#C6CDC7" width="1200" height="351.7"/>
			<rect id="XMLID_15314_" y="687.9" fill="#FFFFFF" width="1200" height="302.9"/>
			<rect id="XMLID_15313_" y="711.3" fill="#BDDBED" width="1200" height="256"/>
		</g>
		<g id="XMLID_15304_">
			<g id="XMLID_15309_">
				<g id="XMLID_15310_">
					<path fill="#FFFFFF" d="M597.4,1562.4c0-34.2-69.5-53.9-190.7-53.9c-31.3,0-53.5-9.4-65.8-27.8c-22.3-33.5-5.3-85.9,0-100.2
						h-5.8c-61.3,0-111.3-49.9-111.3-111.2v-7.8c-5.8-1.7-22.9-7.6-40.2-22.9c-19.1-16.9-42-49.1-42-105.8
						c0-30.3,7.4-62.8,14.5-94.1c18.7-82.1,36.3-159.7-71.9-198.5l-6.8-2.5l6.8-2.5c108.1-38.8,90.5-116.4,71.9-198.5
						c-7.1-31.4-14.5-63.8-14.5-94.1c0-31.3,7.3-75.1,42-105.8c17.3-15.3,34.4-21.2,40.2-22.9V406c0-61.3,49.9-111.2,111.3-111.2
						h5.8c-5.3-14.3-22.3-66.7,0-100.2c12.3-18.4,34.4-27.8,65.8-27.8c121.2,0,190.7-19.6,190.7-53.9h5.2
						c0,34.2,69.5,53.9,190.7,53.9c31.3,0,53.5,9.4,65.8,27.8c22.3,33.5,5.3,85.9,0,100.2h5.8c61.3,0,111.3,49.9,111.3,111.2v7.8
						c5.8,1.7,22.9,7.6,40.2,22.9c19.1,16.9,42,49.1,42,105.8c0,30.3-7.4,62.8-14.5,94.1c-18.7,82.1-36.3,159.7,71.9,198.5l6.8,2.5
						l-6.8,2.5c-108.1,38.8-90.5,116.4-71.9,198.5c7.1,31.4,14.5,63.8,14.5,94.1c0,31.3-7.3,75.1-42,105.8
						c-17.3,15.3-34.4,21.2-40.2,22.9v7.8c0,61.3-49.9,111.2-111.3,111.2h-5.8c5.3,14.3,22.3,66.7,0,100.2
						c-12.3,18.4-34.4,27.8-65.8,27.8c-121.2,0-190.7,19.6-190.7,53.9H597.4z"/>
					<path fill="#FFDE7D" d="M600,112.9c0,38.6,78,56.5,193.3,56.5s62,128,62,128h9.6c60,0,108.6,48.6,108.6,108.6v9.8
						c0,0,82.2,18.7,82.2,126.8c0,108-93.7,240.3,59.1,295.1c-152.8,54.9-59.1,187.1-59.1,295.1c0,108-82.2,126.8-82.2,126.8v9.8
						c0,60-48.6,108.6-108.6,108.6h-9.6c0,0,53.3,128-62,128S600,1523.8,600,1562.4c0-38.6-78-56.5-193.3-56.5s-62-128-62-128h-9.6
						c-60,0-108.6-48.6-108.6-108.6v-9.8c0,0-82.2-18.7-82.2-126.8c0-108,93.7-240.3-59.1-295.1c152.8-54.9,59.1-187.1,59.1-295.1
						c0-108,82.2-126.8,82.2-126.8V406c0-60,48.6-108.6,108.6-108.6h9.6c0,0-53.3-128,62-128S600,151.5,600,112.9 M605.2,112.9
						h-10.4c0,7.8-3.9,14.7-12,21c-8.4,6.5-21,12.1-37.6,16.7c-32.4,8.9-80.3,13.6-138.5,13.6c-32.3,0-55.1,9.7-67.9,29
						c-11.1,16.7-14.3,39.8-9.4,68.5c2.2,12.8,5.5,23.8,7.8,30.5h-2.1c-30.4,0-59,11.8-80.5,33.3c-21.5,21.5-33.4,50.1-33.4,80.4
						v5.9c-7.3,2.3-23.3,8.7-39.3,22.9c-12.5,11-22.4,24.6-29.5,40.3c-8.8,19.4-13.3,42.1-13.3,67.5c0,30.6,7.4,63.2,14.6,94.7
						c9.4,41.4,18.3,80.4,11.6,114.5c-3.5,17.9-11.1,32.8-23.2,45.6c-13.7,14.5-32.9,26.1-58.6,35.3l-13.7,4.9l13.7,4.9
						c25.7,9.2,44.9,20.8,58.6,35.3c12.1,12.8,19.6,27.7,23.2,45.6c6.7,34.1-2.2,73.2-11.6,114.5c-7.2,31.5-14.6,64.1-14.6,94.7
						c0,25.4,4.5,48.1,13.3,67.5c7.1,15.7,17.1,29.2,29.5,40.3c16,14.2,32,20.5,39.3,22.9v5.9c0,30.4,11.8,59,33.4,80.4
						c21.5,21.5,50.1,33.3,80.5,33.3h2.1c-2.3,6.8-5.6,17.7-7.8,30.5c-4.9,28.8-1.8,51.8,9.4,68.5c12.8,19.2,35.7,29,67.9,29
						c58.2,0,106.1,4.7,138.5,13.6c16.6,4.5,29.2,10.2,37.6,16.7c8.1,6.3,12,13.1,12,21h10.4c0-7.8,3.9-14.7,12-21
						c8.4-6.5,21-12.1,37.6-16.7c32.4-8.9,80.3-13.6,138.5-13.6c32.3,0,55.1-9.7,67.9-29c11.1-16.7,14.3-39.8,9.4-68.5
						c-2.2-12.8-5.5-23.8-7.8-30.5h2.1c30.4,0,59-11.8,80.5-33.3c21.5-21.5,33.4-50.1,33.4-80.4v-5.9c7.3-2.3,23.3-8.7,39.3-22.9
						c12.5-11,22.4-24.6,29.5-40.3c8.8-19.4,13.3-42.1,13.3-67.5c0-30.6-7.4-63.2-14.6-94.7c-9.4-41.4-18.3-80.4-11.6-114.5
						c3.5-17.9,11.1-32.8,23.2-45.6c13.7-14.5,32.9-26.1,58.6-35.3l13.7-4.9l-13.7-4.9c-25.7-9.2-44.9-20.8-58.6-35.3
						c-12.1-12.8-19.6-27.7-23.2-45.6c-6.7-34.1,2.2-73.2,11.6-114.5c7.2-31.5,14.6-64.1,14.6-94.7c0-25.4-4.5-48.1-13.3-67.5
						c-7.1-15.7-17.1-29.2-29.5-40.3c-16-14.2-32-20.5-39.3-22.9V406c0-30.4-11.8-59-33.4-80.4c-21.5-21.5-50.1-33.3-80.5-33.3h-2.1
						c2.3-6.8,5.6-17.7,7.8-30.5c4.9-28.8,1.8-51.8-9.4-68.5c-12.8-19.2-35.7-29-67.9-29c-58.2,0-106.1-4.7-138.5-13.6
						c-16.6-4.5-29.2-10.2-37.6-16.7C609.1,127.6,605.2,120.8,605.2,112.9L605.2,112.9z"/>
				</g>
			</g>
			
				<path id="XMLID_15308_" fill="#FFDE7D" stroke="#FFFFFF" stroke-width="13.8426" stroke-linecap="round" stroke-linejoin="round" stroke-miterlimit="10" d="
				M1116.9,831.8c-47.9-17.2-73.7-42.7-81.1-80.2c-6.7-33.9,2.2-72.8,11.5-114.1c7.2-31.6,14.6-64.2,14.6-95
				c0-58.1-23.5-91.1-43.2-108.6c-15.7-13.9-31.3-20.3-39-22.9V406c0-63.3-51.6-114.8-114.9-114.8h-0.6c6.5-19.4,19-66.9-2.2-98.6
				c-13-19.5-36.2-29.4-68.8-29.4c-117.1,0-187-18.8-187-50.2c0-3.5-2.8-6.3-6.3-6.3c-3.5,0-6.3,2.8-6.3,6.3
				c0,31.4-69.9,50.2-187,50.2c-32.6,0-55.8,9.9-68.8,29.4c-21.2,31.7-8.7,79.2-2.2,98.6h-0.6c-63.4,0-114.9,51.5-114.9,114.8v5.1
				c-7.7,2.6-23.3,9-39,22.9c-19.7,17.4-43.2,50.4-43.2,108.6c0,30.7,7.4,63.4,14.6,95c9.4,41.2,18.2,80.2,11.5,114.1
				c-7.4,37.5-33.1,63-81.1,80.2c-2.5,0.9-4.2,3.3-4.2,5.9c0,2.6,1.7,5,4.2,5.9c47.9,17.2,73.7,42.7,81.1,80.2
				c6.7,33.9-2.2,72.8-11.5,114.1c-7.2,31.6-14.6,64.2-14.6,95c0,58.1,23.5,91.1,43.2,108.6c15.7,13.9,31.3,20.3,39,22.9v5.1
				c0,63.3,51.6,114.8,114.9,114.8h0.6c-6.5,19.4-19,66.9,2.2,98.6c13,19.5,36.2,29.4,68.8,29.4c117.1,0,187,18.8,187,50.2
				c0,3.5,2.8,6.3,6.3,6.3c3.5,0,6.3-2.8,6.3-6.3c0-31.4,69.9-50.2,187-50.2c32.6,0,55.8-9.9,68.8-29.4c21.2-31.7,8.7-79.2,2.2-98.6
				h0.6c63.4,0,114.9-51.5,114.9-114.8v-5.1c7.7-2.6,23.3-9,39-22.9c19.7-17.4,43.2-50.4,43.2-108.6c0-30.7-7.4-63.4-14.6-95
				c-9.4-41.2-18.2-80.2-11.5-114.1c7.4-37.5,33.1-63,81.1-80.2c2.5-0.9,4.2-3.3,4.2-5.9C1121.1,835,1119.4,832.7,1116.9,831.8z"/>
			<g id="XMLID_15305_">
				<g id="XMLID_15306_">
					<path fill="#FFFFFF" d="M600,1565c-1.4,0-2.6-1.2-2.6-2.6c0-34.2-69.5-53.9-190.7-53.9c-31.3,0-53.5-9.4-65.8-27.8
						c-22.3-33.5-5.3-85.9,0-100.2h-5.8c-61.3,0-111.3-49.9-111.3-111.2v-7.8c-5.8-1.7-22.9-7.6-40.2-22.9
						c-19.1-16.9-42-49.1-42-105.8c0-30.3,7.4-62.8,14.5-94.1c18.7-82.1,36.3-159.7-71.9-198.5c-1-0.4-1.7-1.4-1.7-2.5
						s0.7-2.1,1.7-2.5c108.1-38.8,90.5-116.4,71.9-198.5c-7.1-31.4-14.5-63.8-14.5-94.1c0-31.3,7.3-75.1,42-105.8
						c17.3-15.3,34.4-21.2,40.2-22.9V406c0-61.3,49.9-111.2,111.3-111.2h5.8c-5.3-14.3-22.3-66.7,0-100.2
						c12.3-18.4,34.4-27.8,65.8-27.8c121.2,0,190.7-19.6,190.7-53.9c0-1.4,1.2-2.6,2.6-2.6s2.6,1.2,2.6,2.6
						c0,34.2,69.5,53.9,190.7,53.9c31.3,0,53.5,9.4,65.8,27.8c22.3,33.5,5.3,85.9,0,100.2h5.8c61.3,0,111.3,49.9,111.3,111.2v7.8
						c5.8,1.7,22.9,7.6,40.2,22.9c19.1,16.9,42,49.1,42,105.8c0,30.3-7.4,62.8-14.5,94.1c-18.7,82.1-36.3,159.7,71.9,198.5
						c1,0.4,1.7,1.4,1.7,2.5s-0.7,2.1-1.7,2.5c-108.1,38.8-90.5,116.4-71.9,198.5c7.1,31.4,14.5,63.8,14.5,94.1
						c0,31.3-7.3,75.1-42,105.8c-17.3,15.3-34.4,21.2-40.2,22.9v7.8c0,61.3-49.9,111.2-111.3,111.2h-5.8c5.3,14.3,22.3,66.7,0,100.2
						c-12.3,18.4-34.4,27.8-65.8,27.8c-121.2,0-190.7,19.6-190.7,53.9C602.6,1563.8,601.4,1565,600,1565z"/>
					<path fill="#BDDBED" d="M600,112.9c0,38.6,78,56.5,193.3,56.5s62,128,62,128h9.6c60,0,108.6,48.6,108.6,108.6v9.8
						c0,0,82.2,18.7,82.2,126.8c0,108-93.7,240.3,59.1,295.1c-152.8,54.9-59.1,187.1-59.1,295.1c0,108-82.2,126.8-82.2,126.8v9.8
						c0,60-48.6,108.6-108.6,108.6h-9.6c0,0,53.3,128-62,128S600,1523.8,600,1562.4c0-38.6-78-56.5-193.3-56.5s-62-128-62-128h-9.6
						c-60,0-108.6-48.6-108.6-108.6v-9.8c0,0-82.2-18.7-82.2-126.8c0-108,93.7-240.3-59.1-295.1c152.8-54.9,59.1-187.1,59.1-295.1
						c0-108,82.2-126.8,82.2-126.8V406c0-60,48.6-108.6,108.6-108.6h9.6c0,0-53.3-128,62-128S600,151.5,600,112.9 M600,107.7
						c-2.9,0-5.2,2.3-5.2,5.2c0,7.8-3.9,14.7-12,21c-8.4,6.5-21,12.1-37.6,16.7c-32.4,8.9-80.3,13.6-138.5,13.6
						c-32.3,0-55.1,9.7-67.9,29c-11.1,16.7-14.3,39.8-9.4,68.5c2.2,12.8,5.5,23.8,7.8,30.5h-2.1c-30.4,0-59,11.8-80.5,33.3
						c-21.5,21.5-33.4,50.1-33.4,80.4v5.9c-7.3,2.3-23.3,8.7-39.3,22.9c-12.5,11-22.4,24.6-29.5,40.3c-8.8,19.4-13.3,42.1-13.3,67.5
						c0,30.6,7.4,63.2,14.6,94.7c9.4,41.4,18.3,80.4,11.6,114.5c-3.5,17.9-11.1,32.8-23.2,45.6c-13.7,14.5-32.9,26.1-58.6,35.3
						c-2.1,0.7-3.5,2.7-3.5,4.9s1.4,4.2,3.5,4.9c25.7,9.2,44.9,20.8,58.6,35.3c12.1,12.8,19.6,27.7,23.2,45.6
						c6.7,34.1-2.2,73.2-11.6,114.5c-7.2,31.5-14.6,64.1-14.6,94.7c0,25.4,4.5,48.1,13.3,67.5c7.1,15.7,17.1,29.2,29.5,40.3
						c16,14.2,32,20.5,39.3,22.9v5.9c0,30.4,11.8,59,33.4,80.4c21.5,21.5,50.1,33.3,80.5,33.3h2.1c-2.3,6.8-5.6,17.7-7.8,30.5
						c-4.9,28.8-1.8,51.8,9.4,68.5c12.8,19.2,35.7,29,67.9,29c58.2,0,106.1,4.7,138.5,13.6c16.6,4.5,29.2,10.2,37.6,16.7
						c8.1,6.3,12,13.1,12,21c0,2.9,2.3,5.2,5.2,5.2s5.2-2.3,5.2-5.2c0-7.8,3.9-14.7,12-21c8.4-6.5,21-12.1,37.6-16.7
						c32.4-8.9,80.3-13.6,138.5-13.6c32.3,0,55.1-9.7,67.9-29c11.1-16.7,14.3-39.8,9.4-68.5c-2.2-12.8-5.5-23.8-7.8-30.5h2.1
						c30.4,0,59-11.8,80.5-33.3c21.5-21.5,33.4-50.1,33.4-80.4v-5.9c7.3-2.3,23.3-8.7,39.3-22.9c12.5-11,22.4-24.6,29.5-40.3
						c8.8-19.4,13.3-42.1,13.3-67.5c0-30.6-7.4-63.2-14.6-94.7c-9.4-41.4-18.3-80.4-11.6-114.5c3.5-17.9,11.1-32.8,23.2-45.6
						c13.7-14.5,32.9-26.1,58.6-35.3c2.1-0.7,3.5-2.7,3.5-4.9s-1.4-4.2-3.5-4.9c-25.7-9.2-44.9-20.8-58.6-35.3
						c-12.1-12.8-19.6-27.7-23.2-45.6c-6.7-34.1,2.2-73.2,11.6-114.5c7.2-31.5,14.6-64.1,14.6-94.7c0-25.4-4.5-48.1-13.3-67.5
						c-7.1-15.7-17.1-29.2-29.5-40.3c-16-14.2-32-20.5-39.3-22.9V406c0-30.4-11.8-59-33.4-80.4c-21.5-21.5-50.1-33.3-80.5-33.3h-2.1
						c2.3-6.8,5.6-17.7,7.8-30.5c4.9-28.8,1.8-51.8-9.4-68.5c-12.8-19.2-35.7-29-67.9-29c-58.2,0-106.1-4.7-138.5-13.6
						c-16.6-4.5-29.2-10.2-37.6-16.7c-8.1-6.3-12-13.1-12-21C605.2,110,602.9,107.7,600,107.7L600,107.7z"/>
				</g>
			</g>
		</g>
		<g id="XMLID_15142_">
			<g id="XMLID_15244_">
				<linearGradient id="XMLID_2470_" gradientUnits="userSpaceOnUse" x1="598.8466" y1="445.2248" x2="597.359" y2="616.2951">
					<stop  offset="0" style="stop-color:#D6D8D7"/>
					<stop  offset="1" style="stop-color:#E2E4E6"/>
				</linearGradient>
				<path id="XMLID_15288_" fill="url(#XMLID_2470_)" d="M532.8,460.5c-17.4,17-23.7,42-29.3,65.6c-4.6,19.5-9,41,0.2,58.8
					c9,17.4,29,26.5,48.5,28.8s39.1-0.9,58.6-1.7c17.8-0.7,36.1,0.5,53.1-4.8s33-19.5,33.4-37.3c0.4-13.3-7.8-25.3-11.1-38.2
					c-3.2-12.4-1.9-25.5-5.1-37.9c-6.6-25.7-31.9-43.5-58-48.1c-26.1-4.7-53,1.4-78.3,9.5C542.9,454.2,532.8,460.5,532.8,460.5z"/>
				<linearGradient id="XMLID_2471_" gradientUnits="userSpaceOnUse" x1="435.7408" y1="454.3302" x2="544.6484" y2="346.7114">
					<stop  offset="0" style="stop-color:#D6D8D7"/>
					<stop  offset="1" style="stop-color:#E2E4E6"/>
				</linearGradient>
				<path id="XMLID_15287_" fill="url(#XMLID_2471_)" d="M518.4,323.6c-10.8-13-32.8-10.7-45.4,0.6c-12.6,11.3-17.9,28.5-21.8,44.9
					c-3.9,16.5-7.2,33.7-17.2,47.3c-4.7,6.4-11.1,12.6-11.2,20.6c-0.1,7.8,6.5,14.5,13.9,17.1c7.4,2.6,15.5,2.1,23.3,1.5
					c4.6,10.7,16,17.6,27.6,18.7c20.2,2,39.6-12.1,48.7-30.3c9.1-18.2,9.5-39.5,6.7-59.7c-2.8-20.1-8.7-39.7-11.5-59.9L518.4,323.6z
					"/>
				<linearGradient id="XMLID_2473_" gradientUnits="userSpaceOnUse" x1="753.6219" y1="449.7377" x2="645.3638" y2="322.7922">
					<stop  offset="0" style="stop-color:#D6D8D7"/>
					<stop  offset="1" style="stop-color:#E2E4E6"/>
				</linearGradient>
				<path id="XMLID_15286_" fill="url(#XMLID_2473_)" d="M661.2,317.7c3.8-13.4,20-20.6,33.7-17.7c13.7,3,24.5,13.7,31.4,25.9
					s10.6,25.8,15.3,38.9c4.7,13.1,10.8,26.3,21.2,35.6c5,4.5,11.2,8.3,13.6,14.6c3.9,10.2-4.9,21.6-15.3,24.7
					c-10.4,3.1-21.6,0.4-32.1-2.4c0.3,4.4-2.8,8.6-6.7,10.7c-3.9,2.1-8.5,2.5-13,2.5c-17.2-0.1-34.4-5.8-48.2-16L661.2,317.7z"/>
				<path id="XMLID_15285_" fill="#C1C3BC" d="M587.7,292c0,0-0.1-1.1-0.3-2.9c-0.1-0.9-0.3-2-0.6-3.2c-0.3-1.2-0.7-2.6-1.1-4.1
					c-0.5-1.4-1.1-3-1.9-4.5c-0.7-1.6-1.7-3.1-2.7-4.7c-1-1.6-2.3-3-3.6-4.4c-1.3-1.4-2.9-2.7-4.3-3.8c-1.8-1.3-3.3-2.1-5.1-3
					c-1.8-0.8-3.5-1.5-5.3-2c-1.8-0.4-3.6-0.9-5.3-1.1c-1.7-0.2-3.4-0.3-4.9-0.3c-1.5,0-2.9,0.1-4.2,0.2c-1.2,0.2-2.4,0.3-3.3,0.5
					c-1.8,0.3-2.9,0.6-2.9,0.6s0.2-0.1,0.6-0.4c0.4-0.3,1-0.7,1.9-1.1c0.8-0.5,1.9-1,3.2-1.4c1.3-0.5,2.7-0.9,4.4-1.2
					c1.6-0.3,3.5-0.6,5.4-0.5c1.9-0.1,4,0.1,6.1,0.5c2.1,0.4,4.2,1,6.3,1.9c2,0.9,4.3,2.1,5.9,3.3c2,1.5,3.6,3,5.1,4.7
					c1.5,1.7,2.7,3.5,3.8,5.4c1,1.9,1.9,3.7,2.4,5.6c0.6,1.8,1,3.6,1.2,5.3c0.2,1.7,0.3,3.2,0.2,4.5c-0.1,1.3-0.2,2.5-0.3,3.5
					c-0.1,1-0.4,1.6-0.5,2.1C587.8,291.7,587.7,292,587.7,292z"/>
				<path id="XMLID_15284_" fill="#C1C3BC" d="M595.5,294.3c0,0,0.1-1.5,0.1-4c0-1.3-0.1-2.8-0.1-4.6c-0.1-1.8-0.3-3.7-0.6-5.9
					c-0.3-2.1-0.7-4.4-1.3-6.8c-0.5-2.4-1.4-4.8-2.2-7.3c-0.9-2.5-2-5-3.2-7.5c-1.3-2.5-2.7-4.9-4.3-7.2c-1.6-2.4-3.3-4.5-5.2-6.6
					c-1.9-2-3.8-4-5.8-5.7c-2-1.7-4-3.3-6.1-4.7c-2-1.4-4-2.6-5.9-3.7c-1.9-1-3.7-1.9-5.3-2.7c-1.6-0.7-3-1.3-4.2-1.8
					c-2.4-0.9-3.8-1.4-3.8-1.4s0.4,0,1.1,0.1c0.7,0.1,1.7,0.1,3,0.3c1.3,0.2,2.8,0.5,4.6,0.9c1.8,0.5,3.7,1,5.9,1.8
					c2.1,0.8,4.4,1.8,6.6,3.1c2.3,1.2,4.6,2.7,6.9,4.4c2.3,1.7,4.5,3.7,6.6,5.8c2,2.2,4.1,4.6,5.8,7c1.7,2.6,3.2,5.2,4.5,7.9
					c1.3,2.7,2.3,5.5,3.1,8.2c0.8,2.7,1.3,5.4,1.7,8c0.4,2.6,0.5,5,0.5,7.3c0,2.3-0.2,4.3-0.4,6.1c-0.2,1.8-0.5,3.4-0.8,4.6
					c-0.2,1.3-0.6,2.2-0.8,2.9C595.6,294,595.5,294.3,595.5,294.3z"/>
				<g id="XMLID_15282_">
					<linearGradient id="SVGID_2_" gradientUnits="userSpaceOnUse" x1="591.1894" y1="270.8417" x2="594.4783" y2="426.0761">
						<stop  offset="0" style="stop-color:#F8FAF9"/>
						<stop  offset="1" style="stop-color:#E2E4E6"/>
					</linearGradient>
					<path fill="url(#SVGID_2_)" d="M581.3,282.5c-38.7,5.6-73.1,21.8-82.9,74.3c-4.4,23.5,8.9,37.6,7.7,61.5
						c-0.9,17.5-12.4,31.6,14.5,54.9c10.5,9.1,26,9.2,39.9,8.9c25.5-0.5,50.9-3.6,75.8-9.2c11.7-2.6,23.5-5.9,33.6-12.3
						s18.4-16.6,20.1-28.5c1.3-9.2-1.4-18.3-2.6-27.5c-2.3-17.1,0.7-34.6-1.7-51.8c-6.1-43.2-50.8-77.2-94.1-71.3L581.3,282.5z"/>
				</g>
				<path id="XMLID_15281_" fill="#231F20" d="M641.9,421.6c-4.3-1.6-6.8-7-5.2-11.3c1.6-4.3,7-6.8,11.3-5.2
					c4.3,1.6,6.8,6.9,5.2,11.3c-1.6,4.3-6.9,6.8-11.2,5.3L641.9,421.6z"/>
				<path id="XMLID_15280_" fill="#231F20" d="M650.1,408.1c1.1,2.5,6.3,4.7,9.1,4.8c-2.7,0.2-5.3,0.9-7.7,2.1L650.1,408.1z"/>
				<path id="XMLID_15279_" fill="#231F20" d="M541.1,429.7c4.3-1.6,6.8-7,5.2-11.3c-1.6-4.3-7-6.8-11.3-5.2s-6.8,6.9-5.2,11.3
					c1.6,4.3,6.9,6.8,11.2,5.3L541.1,429.7z"/>
				<path id="XMLID_15278_" fill="#231F20" d="M532.9,416.2c-1.1,2.5-6.3,4.7-9.1,4.8c2.7,0.2,5.3,0.9,7.7,2.1L532.9,416.2z"/>
				<g id="XMLID_15276_">
					<linearGradient id="SVGID_4_" gradientUnits="userSpaceOnUse" x1="559.6307" y1="474.3288" x2="564.5893" y2="625.5653">
						<stop  offset="0" style="stop-color:#D6D8D7"/>
						<stop  offset="0.7184" style="stop-color:#DDDFE0"/>
						<stop  offset="1" style="stop-color:#D0D3D4"/>
					</linearGradient>
					<path fill="url(#SVGID_4_)" d="M533.7,511.9c-2,39.1,4.5,78.7,19,115.1c13-1.7,25.9-3.4,38.9-5.1c-0.7-30.7-1.4-61.4-2-92.1
						L533.7,511.9z"/>
				</g>
				<linearGradient id="XMLID_2474_" gradientUnits="userSpaceOnUse" x1="620.3994" y1="469.7903" x2="616.4326" y2="621.0274">
					<stop  offset="0" style="stop-color:#D6D8D7"/>
					<stop  offset="0.7184" style="stop-color:#DDDFE0"/>
					<stop  offset="1" style="stop-color:#CED0D1"/>
				</linearGradient>
				<path id="XMLID_15275_" fill="url(#XMLID_2474_)" d="M592.9,528.7c16.4-9.5,33.3-18.2,50.5-26.1c5.1,39.7,1,80.6-12.1,118.4
					c-11.7,0.4-23.3,0.9-35,1.3c-4.2-28.6-5.7-57.6-4.6-86.5L592.9,528.7z"/>
				<g id="XMLID_15271_">
					<path id="XMLID_15274_" fill="#FFFAC0" d="M580.7,623.4c-0.4-3.5-1.7-6.9-3.6-9.8c-1.4-2.3-3.6-4.4-6.2-4.6
						c-3.3-0.2-6.2,2.8-6.9,6c-0.3,1.3-0.4,2.7-0.3,4c-0.2-0.7-0.6-1.4-0.9-2.1c-1.4-2.4-4.2-4.2-6.9-3.5c-2.6,0.6-4.3,3.4-4.5,6.1
						c-0.2,2.4,0.5,4.7,1.3,6.9l1.4,0.5C562.9,625.7,571.8,624.5,580.7,623.4z"/>
					<path id="XMLID_15273_" fill="#FFFAC0" d="M552.8,627C552.8,627,552.9,627,552.8,627c0-0.2-0.1-0.4-0.2-0.6l-0.1,0L552.8,627z"
						/>
					<path id="XMLID_15272_" fill="#FFFAC0" d="M591.3,622c-0.1-2.2-0.3-4.5-1-6.6c-0.7-2.1-2.2-4.1-4.2-5c-2.1-0.9-4.8-0.4-6,1.5
						c-2.2,3.3,1.1,7.5,0.7,11.5C584.3,622.9,587.8,622.4,591.3,622z"/>
				</g>
				<g id="XMLID_15268_">
					<path id="XMLID_15270_" fill="#FFFAC0" d="M607.2,613.4c-1.2-2.7-4.8-4.6-7.3-3.1c-1.8,1.1-2.5,3.4-2.6,5.5
						c-0.1,2.1,0.2,4.3-0.3,6.3l0.2,0.2c3.5-0.1,7.1-0.3,10.6-0.4C608.1,619,608.4,616,607.2,613.4z"/>
					<path id="XMLID_15269_" fill="#FFFAC0" d="M631.8,619.7c-0.2-1.1-0.7-2.1-1.1-3.1c-1-2-2.3-4.4-4.6-4.6
						c-2.1-0.2-3.9,1.5-4.5,3.5c-0.4,1.2-0.4,2.5-0.3,3.7c-0.2-1.5-0.6-3-1.2-4.4c-1-2.1-2.7-4.1-4.9-4.8c-2.2-0.7-5,0-6.2,2.1
						c-1.7,2.9,0.3,6.9-1.1,9.9c7.8-0.3,15.7-0.6,23.5-0.9C631.5,620.6,631.6,620.1,631.8,619.7z"/>
				</g>
				<g id="XMLID_15266_">
					<linearGradient id="SVGID_6_" gradientUnits="userSpaceOnUse" x1="555.1496" y1="533.3132" x2="608.7902" y2="436.0238">
						<stop  offset="0" style="stop-color:#F8FAF9"/>
						<stop  offset="1" style="stop-color:#E2E4E6"/>
					</linearGradient>
					<path fill="url(#SVGID_6_)" d="M593.1,425.8c-12-1.3-24.1,6-29.8,16.6c-5.7,10.6-5.5,23.9-0.7,34.9c1.9,4.5,4.6,8.7,6.4,13.3
						c1.8,4.6,2.7,9.8,1,14.4c-1.7,4.6-5.8,8-10.4,9.6c-4.6,1.6-9.7,1.5-14.5,0.7c0.9-1.7,1.9-3.6,1.9-5.5c0-2-1.3-4.1-3.3-4.3
						c-2.8-0.2-4.3,3.1-5,5.8c-1.8,7.2-3.6,14.4-5.3,21.6c-0.3,1.1-0.5,2.4,0,3.4c0.7,1.3,2.4,1.7,3.9,2c9.4,1.5,18.8,3,28.3,2.7
						s19.1-2.6,26.8-8.1c11.9-8.4,17.6-22.9,22.4-36.6c4.3-12.3,8.4-25.2,7.6-38.2s-7.7-26.5-19.8-31.5L593.1,425.8z"/>
				</g>
				<g id="XMLID_15264_">
					<path id="XMLID_15265_" fill="#DEE0D9" d="M567.9,488.7c-0.6,0-1.1-0.4-1.2-1c-0.8-3.8,0-7.6,2.2-10.3c1.9-2.4,5-4,8.7-4.6
						c3.2-0.5,6.4-0.2,9.4,0c0.7,0.1,1.2,0.7,1.1,1.4c-0.1,0.7-0.7,1.2-1.4,1.1c-2.9-0.3-5.9-0.5-8.8-0.1c-3.1,0.5-5.6,1.8-7.1,3.7
						c-1.7,2.1-2.3,5.2-1.7,8.2c0.1,0.7-0.3,1.3-1,1.5C568.1,488.7,568,488.7,567.9,488.7z"/>
				</g>
				<linearGradient id="XMLID_2475_" gradientUnits="userSpaceOnUse" x1="600.0001" y1="626.3203" x2="600.0001" y2="222.358">
					<stop  offset="0" style="stop-color:#92B0B0"/>
					<stop  offset="0.2846" style="stop-color:#C9CFCF"/>
					<stop  offset="1" style="stop-color:#E1E4E6"/>
				</linearGradient>
				<path id="XMLID_15263_" opacity="0.47" fill="url(#XMLID_2475_)" d="M776.3,415.1c-2.4-6.3-8.6-10.1-13.6-14.6
					c-10.4-9.3-16.5-22.5-21.2-35.6c-4.7-13.1-8.4-26.8-15.3-38.9c-6.9-12.1-17.7-22.9-31.4-25.9c-10.8-2.3-23.3,1.7-29.9,10.2
					c-17-18.7-42.1-30.5-67.3-29.3c0-0.4,0-0.8,0-1.3c0-2.2-0.1-4.7-0.5-7.3c-0.3-2.6-0.9-5.3-1.7-8c-0.8-2.7-1.8-5.5-3.1-8.2
					c-1.3-2.7-2.8-5.4-4.5-7.9c-1.7-2.4-3.7-4.9-5.8-7c-2.1-2.2-4.3-4.1-6.6-5.8c-2.3-1.7-4.6-3.2-6.9-4.4c-2.3-1.3-4.5-2.2-6.6-3.1
					c-2.1-0.8-4.1-1.4-5.9-1.8c-1.8-0.4-3.3-0.7-4.6-0.9c-1.3-0.2-2.3-0.3-3-0.3c-0.7-0.1-1.1-0.1-1.1-0.1s1.4,0.5,3.8,1.4
					c1.2,0.4,2.6,1.1,4.2,1.8c1.6,0.7,3.4,1.6,5.3,2.7c1.9,1.1,3.9,2.3,5.9,3.7c2,1.4,4,3,6.1,4.7c2,1.7,3.9,3.7,5.8,5.7
					c1.9,2.1,3.5,4.2,5.2,6.6c1.6,2.3,3,4.7,4.3,7.2c1.2,2.5,2.4,5,3.2,7.5c0.8,2.5,1.7,4.9,2.2,7.3c0.6,2.4,1,4.7,1.3,6.8
					c0.1,0.4,0.1,0.8,0.1,1.3c-1.2,0.1-2.3,0.2-3.5,0.4l-2.9,0.3c0-0.2,0-0.4-0.1-0.7c-0.3-1.6-0.6-3.5-1.2-5.3
					c-0.6-1.8-1.4-3.7-2.4-5.6c-1.1-1.8-2.3-3.7-3.8-5.4c-1.5-1.7-3.1-3.2-5.1-4.7c-1.6-1.1-3.9-2.4-5.9-3.3
					c-2.1-0.9-4.2-1.5-6.3-1.9c-2.1-0.4-4.1-0.6-6.1-0.5c-1.9,0-3.7,0.2-5.4,0.5c-1.6,0.3-3.1,0.8-4.4,1.2c-1.3,0.5-2.3,1-3.2,1.4
					c-0.9,0.4-1.5,0.9-1.9,1.1c-0.4,0.3-0.6,0.4-0.6,0.4s1.1-0.3,2.9-0.6c0.9-0.2,2-0.3,3.3-0.5c1.3-0.1,2.7-0.2,4.2-0.2
					c1.5,0,3.2,0.1,4.9,0.3c1.7,0.2,3.5,0.6,5.3,1.1c1.8,0.5,3.6,1.2,5.3,2c1.8,0.9,3.3,1.7,5.1,3c1.4,1,3,2.4,4.3,3.8
					c1.3,1.4,2.6,2.9,3.6,4.4c1,1.6,2,3.1,2.7,4.7c0.8,1.6,1.4,3.1,1.9,4.5c0,0.1,0.1,0.2,0.1,0.3l-4.5,0.5
					c-27.2,3.9-52.2,13.1-68.1,36.4c-11.6-7.5-29.3-4.4-40.1,5.3c-12.6,11.3-17.9,28.5-21.8,44.9c-3.9,16.5-7.2,33.7-17.2,47.3
					c-4.7,6.4-11.1,12.6-11.2,20.6c-0.1,7.8,6.5,14.5,13.9,17.1c7.4,2.6,15.5,2.1,23.3,1.5c4.6,10.7,16,17.6,27.6,18.7
					c9.5,0.9,18.9-1.7,27-6.7c1.7,1.8,3.7,3.7,5.9,5.6c0.4,0.4,0.9,0.7,1.3,1c-9.5,15.4-14.1,34-18.4,51.8c-0.6,2.6-1.2,5.3-1.8,8
					c0,0,0,0,0,0c0,0-0.1,0-0.1,0c-1.7,0.2-3.3,0.6-4.9,1.1c-0.3,0.1-0.6,0.2-0.9,0.3c0,0,0,0,0,0c-0.4,0.1-0.8,0.3-1.2,0.5
					c-0.4,0.2-0.8,0.3-1.2,0.5c-0.8,0.4-1.6,0.8-2.4,1.2c-0.4,0.2-0.8,0.5-1.2,0.7c-0.5,0.3-0.9,0.6-1.4,0.9
					c-0.4,0.3-0.8,0.6-1.2,0.9c-0.4,0.3-0.8,0.6-1.2,1c-0.4,0.3-0.8,0.6-1.1,0.9c-0.4,0.4-0.8,0.8-1.3,1.1c-0.3,0.3-0.7,0.6-1,0.9
					c-0.7,0.7-1.3,1.4-1.9,2.1c-0.3,0.3-0.6,0.7-0.9,1.1c-0.3,0.3-0.5,0.6-0.8,1c0,0,0,0,0,0c-6.5,8.3-10.4,19-10.6,28.8
					c-0.3,17.9,10.8,35.5,27.2,42.7c15.5,6.8,35,3.6,47.5-7.8c1.5,0.4,3.1,0.7,4.6,0.9c1.6,4.7,3.3,9.4,5.1,14
					c7.8-1,15.6-2.1,23.4-3.1c1.5-0.2,3-0.4,4.5-0.6l0,0c0,0,0.1,0,0.1,0l0,0c3.5-0.5,7-0.9,10.5-1.4l0,0c0.1,0,0.2,0,0.3,0
					c-0.1-2.9-0.1-5.8-0.2-8.7c1.2-0.1,2.4-0.2,3.6-0.3c0.4,3.1,0.8,6.2,1.3,9.4c11-0.4,22.1-0.8,33.1-1.2c0.6,0,1.3,0,1.9-0.1
					c0.2-0.5,0.3-0.9,0.5-1.4l0,0c0.9-2.7,1.8-5.5,2.6-8.3c0.6,0,1.2,0,1.9-0.1c7.5,6.8,17.2,11.2,27.3,11.6
					c22,0.8,43.1-17.3,45.6-39.2c0.9-8.4-0.8-16.5-4.5-23.7c-0.2-0.3-0.3-0.7-0.5-1c-0.4-0.7-0.8-1.4-1.2-2c-0.3-0.5-0.6-1-0.9-1.5
					c-0.4-0.5-0.7-1.1-1.1-1.6c-0.7-1-1.4-1.9-2.2-2.8c-0.3-0.4-0.6-0.7-1-1.1c-0.6-0.7-1.2-1.3-1.9-2c-0.3-0.3-0.6-0.6-0.9-0.8
					c-1.5-1.4-3.1-2.7-4.7-3.9c-1.5-3.9-3-7.7-4-11.7c-3.2-12.4-1.9-25.5-5.1-37.9c-2.9-11.5-9.7-21.4-18.5-29.3
					c2.5-1.2,4.9-2.5,7.2-3.9c5.7-3.6,10.7-8.4,14.4-14c8,2.6,16.4,4,24.9,4c4.5,0,9.1-0.4,13-2.5c3.9-2.1,7-6.3,6.7-10.7
					c10.5,2.8,21.7,5.5,32.1,2.4C771.4,436.7,780.1,425.3,776.3,415.1z"/>
				<path id="XMLID_15262_" fill="#FED0AF" d="M652.6,424.7c-6.6,0-13.2,2.2-18.6,6.1c-1.2,0.9-2.4,1.9-3.1,3.3
					c-0.7,1.4-0.7,3.1,0.2,4.3c1.1,1.3,2.9,1.6,4.6,1.7c9.5,0.8,19,1.7,28.5,2.5c4.6,0.4,10,0.4,12.6-3.4c2.6-3.9,0.1-9.6-3.9-11.9
					c-4.1-2.4-9-2.4-13.8-2.3L652.6,424.7z"/>
				<path id="XMLID_15261_" fill="#FED0AF" d="M525.1,436.5c-3.1,0.6-6.4,1.3-8.9,3.3c-2.5,2-4,5.7-2.3,8.5c1.6,2.7,5.3,3.4,8.4,2.6
					s5.8-2.4,8.7-3.5c3.8-1.3,8-1.4,11.9-0.2c2.3,0.7,5.3,1.7,6.9-0.1c1.2-1.3,0.8-3.5-0.1-5c-1.7-3.1-5-5-8.4-5.9
					c-3.4-0.9-6.9-0.9-10.4-0.9L525.1,436.5z"/>
				<g id="XMLID_15259_">
					<path id="XMLID_15260_" fill="#DEE0D9" d="M571,502.2c-0.3,0-0.6-0.1-0.8-0.3c-0.5-0.5-0.6-1.3-0.1-1.8
						c2.2-2.4,5.4-3.9,8.7-4.1c3.3-0.2,6.6,1,9.1,3.1c0.5,0.5,0.6,1.3,0.1,1.8c-0.5,0.5-1.3,0.6-1.8,0.1c-2-1.7-4.6-2.6-7.3-2.5
						c-2.6,0.1-5.2,1.4-6.9,3.3C571.6,502.1,571.3,502.2,571,502.2z"/>
				</g>
				<g id="XMLID_15257_">
					<path id="XMLID_15258_" fill="#DEE0D9" d="M575.6,515.7c-0.5,0-1-0.3-1.2-0.8c-1.2-2.8-4.8-4.4-7.8-3.4
						c-0.7,0.2-1.4-0.1-1.6-0.8c-0.2-0.7,0.1-1.4,0.8-1.6c4.2-1.4,9.2,0.8,10.9,4.8c0.3,0.6,0,1.4-0.7,1.7
						C576,515.7,575.8,515.7,575.6,515.7z"/>
				</g>
				<g id="XMLID_15255_">
					<path fill="#E2E4E6" d="M660.5,535.2c-21.8,2.4-40.1,22.9-39.3,45.2c0.8,22,20.4,41.7,42.4,42.5s43.1-17.3,45.6-39.2
						c2.7-24.4-17.4-47.2-41.8-48.7C665,534.9,662.7,534.9,660.5,535.2z"/>
				</g>
				<g id="XMLID_15251_">
					<path id="XMLID_15254_" fill="#FFFAC0" d="M689.4,542.8c-0.1,3.6,0.3,7.2,1.8,10.4c1.8,4,5.2,7.5,9.4,8.8
						c1.6,0.5,3.4,0.6,5.1,0.3C702.2,554.5,696.5,547.6,689.4,542.8z"/>
					<path id="XMLID_15253_" fill="#FFFAC0" d="M687.8,541.7c-6.1-3.9-13.2-6.3-20.6-6.8c-2.3-0.1-4.6-0.1-6.8,0.2
						c-0.6,0.1-1.3,0.2-1.9,0.3c2.4,4.7,6.8,8.4,11.9,9.9C676.3,547,683,545.5,687.8,541.7z"/>
					<path id="XMLID_15252_" fill="#FFFAC0" d="M650.9,546.4c3.9-2.1,6.4-6.5,6.6-10.9c-7.6,1.4-14.6,5-20.4,9.9
						C641,548.3,646.6,548.8,650.9,546.4z"/>
				</g>
				<g id="XMLID_15249_">
					<path fill="#E2E4E6" d="M496.6,535.2c-16.7,5.4-28,25-28.3,41.9c-0.3,17.9,10.8,35.5,27.2,42.7c16.4,7.2,37.1,3.2,49.5-9.7
						c12.4-12.9,15.3-34.1,6.6-49.7c-8.4-15.2-28.3-26.5-45.6-26.6C502.7,533.8,499.5,534.3,496.6,535.2z"/>
				</g>
				<g id="XMLID_15245_">
					<path id="XMLID_15248_" fill="#FFFAC0" d="M495.7,535.6c-6.6,2.4-12.3,7-16.8,12.7c0.9,1.7,2.5,3.1,4.3,3.7
						c3.2,0.9,6.7-0.3,9-2.6c2.3-2.3,3.5-5.7,3.7-9C496,538.8,495.9,537.2,495.7,535.6z"/>
					<path id="XMLID_15247_" fill="#FFFAC0" d="M517.5,548.1c4.9-0.6,9.2-3.9,11.8-8.2c-7.5-3.8-15.6-6.1-23.3-6.2
						c-3,0-5.9,0.4-8.6,1.2c1.8,2.8,3.9,5.6,6.4,7.8C507.4,546.3,512.5,548.7,517.5,548.1z"/>
					<path id="XMLID_15246_" fill="#FFFAC0" d="M530.5,540.6c0.3,3.5,0.7,7.1,2.1,10.3c1.7,4.1,5.1,7.7,9.5,8.4
						c2.7,0.5,5.5-0.3,7.8-1.7C545.3,550.8,538.4,544.9,530.5,540.6z"/>
				</g>
			</g>
			<g id="XMLID_15189_">
				<g id="XMLID_15217_">
					<g id="XMLID_15218_">
						<path id="XMLID_15243_" fill="#45ABAD" d="M649.8,667.7c13.5,3.8,28,5.5,42.9,4.9c0.1-0.1,0.2-0.1,0.3-0.2
							c17.1-6.5,32.2-18.4,41.9-32.9c0.3-0.5,1-0.7,1.4-0.4c0.5,0.3,0.6,0.8,0.3,1.3c-9.1,13.5-22.7,24.8-38.4,31.8
							c17.6-1.4,35.6-6.1,52.6-13.9c23.9-22.6,34.6-55.3,29.7-82.5c-0.1-0.5,0.2-1.1,0.8-1.2c0.5-0.1,1,0.2,1.1,0.7
							c5,26.1-4.5,57.6-26.4,80.5c17.4-8.7,33.7-20.7,47.6-35.3c0.1-0.1,0.2-0.2,0.3-0.3c10-10.6,18.8-22.4,25.9-35.2c0,0,0,0,0,0
							c5.3-16.8,2.1-34.2-7.3-45.3c-0.3-0.4-0.3-1.1,0.1-1.5c0.4-0.4,1-0.4,1.4,0c8.4,9.9,12.2,24.6,9.5,39.8
							c0.8-1.6,1.6-3.3,2.4-4.9c0-0.3,0.2-0.6,0.4-0.8c5.9-13.1,10.1-26.8,12.5-40.6c0.1-0.6,0.6-1.1,1.1-1.1c0.5,0,0.9,0.5,0.8,1.2
							c-1.8,10.5-4.6,21-8.5,31.1c6.8-10.6,15.1-20.2,24.4-28c0.5-0.4,1.1-0.3,1.3,0.2c0.2,0.5,0,1.3-0.4,1.7
							c-10.1,8.3-18.9,18.9-25.8,30.6c5.4-4.5,11.4-8.2,17.5-10.5c0.6-0.2,1,0.1,1.1,0.7c0.1,0.6-0.3,1.3-0.9,1.5
							c-7.7,2.9-15.2,8-21.5,14.3c-6.9,15.2-16.2,29.5-27.2,42.2c15.5-10.1,32.3-17.9,49.1-21.8c0.6-0.1,1,0.3,1,0.9
							c-0.1,0.7-0.6,1.3-1.1,1.4c-18.7,4.3-37.4,13.4-54.4,25.6c-15.4,16.1-33.7,29.2-53.3,38.2c-0.1,0.1-0.2,0.1-0.3,0.1
							c-7.8,3.6-15.8,6.5-23.8,8.7c24,1.6,49.1,3.9,71.3,8c0.6,0.1,0.8,0.7,0.5,1.3c-0.3,0.6-1,1-1.6,0.9c-23.7-4.5-50.9-7-76.4-8.6
							c-24.9,5.9-50.1,5.4-72.3-1c-0.3-0.1-0.5-0.3-0.6-0.6c-0.1-0.2-0.1-0.4,0-0.6C648.7,667.9,649.2,667.6,649.8,667.7z"/>
						<path id="XMLID_15242_" fill="#45ABAD" d="M712.5,663.5c5.8,2.8,13.5,1.5,20.4-1.3c1.6-0.7,3.3-1.4,4.5-2.7
							c1.2-1.3,1.9-3.1,1.2-4.4c-0.5-1-1.6-1.5-2.8-1.6c-1.2-0.1-2.4,0.1-3.6,0.4c-7.1,1.7-14,4.8-20,9.2
							C712.3,663.3,712.4,663.4,712.5,663.5z"/>
						<path id="XMLID_15241_" fill="#45ABAD" d="M705.1,667.3c4.6-5.6,6.3-12.9,4.6-19.1c-0.4-1.5-1.1-3.1-2.6-3.7
							c-1.3-0.5-3-0.1-4.2,0.8c-1.2,0.9-2,2.3-2.5,3.7c-1.1,3-1,6.2-0.3,9.1C700.8,661,703.8,664.6,705.1,667.3L705.1,667.3z"/>
						<path id="XMLID_15240_" fill="#45ABAD" d="M732.9,643.8c3.6-1.5,7.2-3.2,10.2-5.7c3-2.5,5.5-5.8,6.3-9.4
							c0.4-1.8,0.3-3.8-1.1-4.8c-1.4-1-3.5-0.5-5.1,0.4c-3.5,1.8-6.1,5.1-7.7,8.6c-1.6,3.5-2.4,7.3-3.2,11
							C732.5,643.9,732.6,643.9,732.9,643.8z"/>
						<path id="XMLID_15239_" fill="#45ABAD" d="M754.9,672.8c7.9-1.8,15.4-3.9,21.4-10.1c1.4-1.4,2.6-3,3.1-4.7
							c0.5-1.7,0.2-3.5-1.1-4.3c-1.7-1.1-4.5-0.2-6.7,1c-6.9,3.6-12.9,9.3-16.6,15.9C754.9,671.5,754.9,671.9,754.9,672.8z"/>
						<path id="XMLID_15238_" fill="#45ABAD" d="M755.2,672.7c2.6,5.5,0.5,12.8-2.7,19.5c-0.7,1.5-1.5,3-2.8,4.2
							c-1.3,1.2-3.2,2.1-4.7,1.7c-1.8-0.4-2.2-2.3-2.2-4c0-7.5,4.9-15.8,12-21.3C755,672.7,755.1,672.7,755.2,672.7z"/>
						<path id="XMLID_15237_" fill="#45ABAD" d="M782.1,675.9c4.5-0.5,9.2-2.9,13.2-6.1c4-3.2,7.2-7.3,9.7-11.5
							c0.9-1.5,1.7-3,1.9-4.6c0.2-1.5-0.5-3-1.8-3.2c-1.3-0.2-2.9,0.6-4.3,1.5c-8.1,5.4-14.6,13.7-17.3,22.2
							C782.9,674.9,782.6,675.3,782.1,675.9z"/>
						<path id="XMLID_15236_" fill="#45ABAD" d="M778.2,674.2c3.6,1.7,6.1,5,6.7,9.1c0.6,4.1-0.8,8.9-3.8,13.2
							c-1.1,1.6-2.6,3.2-4.4,3.7c-1.4,0.4-2.8,0-3.6-0.7c-0.8-0.8-1.2-1.8-1.5-3c-1.5-6.1,0.6-13.6,5.1-20
							C777.3,675.6,777.6,675.1,778.2,674.2z"/>
						<path id="XMLID_15235_" fill="#45ABAD" d="M797.2,678.3c3.6,5.6,11.1,7.6,19.6,5.3c2-0.6,4.1-1.4,5.9-2.9
							c1.8-1.5,3.3-3.7,3.2-5.5c0-2.1-2-3.2-3.9-3.6c-6.9-1.6-16.8,0.9-24.6,5.4C797.3,677.6,797.3,677.8,797.2,678.3z"/>
						<path id="XMLID_15234_" fill="#45ABAD" d="M772.5,631.9c8.8,1.1,19.3-4.2,25-12.7c0.9-1.4,1.8-3,2-4.6
							c0.2-1.6-0.3-3.2-1.6-3.7c-1.3-0.6-2.9,0-4.4,0.6c-8.3,3.5-15.6,10.5-19.7,18.6C773.2,630.8,773,631.2,772.5,631.9z"/>
						<path id="XMLID_15233_" fill="#45ABAD" d="M772.5,631.1c0.8-6.3-1.1-12.3-5.1-16.5c-1.1-1.1-2.3-2.2-3.9-2.5
							c-1.6-0.4-3.5,0.1-4.6,1.4c-1.5,1.8-1,4.4-0.2,6.4c2.6,5.9,7.3,10.7,13.4,13.1C772.3,632.2,772.3,631.9,772.5,631.1z"/>
						<path id="XMLID_15232_" fill="#45ABAD" d="M781.4,605.7c9.8-4.3,18.1-13.7,21.2-24.2c0.7-2.3,0.9-5.3-1-6.1
							c-1-0.4-2.3-0.1-3.3,0.6c-1,0.7-1.8,1.7-2.6,2.7c-4.8,6.5-8.6,13.7-10.9,21.4C783.4,602.3,782.8,603.5,781.4,605.7z"/>
						<path id="XMLID_15231_" fill="#45ABAD" d="M780.7,604c1.1-0.4,1.8-1.6,1.9-2.8c0.2-1.1-0.1-2.2-0.5-3.2
							c-1.9-5.8-5.1-11-9.4-15c-1.8-1.6-4.4-3-6.5-1.7c-2.1,1.3-2.1,4.3-1.5,6.7c2,7.7,8.5,14.4,16.3,16.4
							C780.9,604.2,780.9,604.1,780.7,604z"/>
						<path id="XMLID_15230_" fill="#45ABAD" d="M782.7,579.4c6.4-5.8,7.1-17,3-23.7c-0.5-0.9-1.2-1.7-2.1-2
							c-1.1-0.4-2.4,0.1-3.3,0.9c-0.9,0.8-1.4,1.9-1.8,3.1c-2.5,6.8-1.4,15,3.2,20.5C782,578.7,782.3,578.9,782.7,579.4z"/>
						<path id="XMLID_15229_" fill="#45ABAD" d="M859.2,594.1c4.8-5.4,10.7-9.7,16.6-12c1.5-0.6,3-1,4.4-0.8
							c1.3,0.3,2.4,1.4,2.4,3.2c-0.1,2.7-2.6,5.3-4.8,6.7c-5.6,3.7-13.6,6.7-18.6,5.1C859.2,595.5,859.2,595,859.2,594.1z"/>
						<path id="XMLID_15228_" fill="#45ABAD" d="M847.2,599.4c6.6-4.6,12.5-11.3,16.7-18.9c1-1.8,1.9-4.2,0.9-5.4
							c-0.6-0.8-1.7-0.7-2.7-0.3s-1.9,1.4-2.7,2.3c-5.4,5.8-9.7,12.9-12.3,20.4C847.1,598.2,847.1,598.6,847.2,599.4z"/>
						<path id="XMLID_15227_" fill="#45ABAD" d="M847.5,599.5c5.8,1.3,10.7,5.1,13.3,10.8c0.7,1.5,1.2,3.1,1,5
							c-0.1,1.9-1,4.1-2.5,5.5c-2.5,2.3-5.5,1.6-7.5,0.3c-5.4-3.7-7.9-13.2-5.9-21.4C846.5,599.6,846.8,599.5,847.5,599.5z"/>
						<path id="XMLID_15226_" fill="#45ABAD" d="M832.1,604.7c6.4-3.8,11.9-10.4,14.9-17.7c0.9-2.4,1.5-5.4-0.1-6.5
							c-0.9-0.7-2.4-0.4-3.6,0.4s-2.2,1.9-3.2,3c-2.5,2.9-4.9,5.8-6.7,9.1c-1.8,3.3-3.6,8.6-3.5,12
							C830.8,604.9,831.2,604.8,832.1,604.7z"/>
						<path id="XMLID_15225_" fill="#45ABAD" d="M829.9,606.3c7,2.7,10.4,11.9,8.5,21.1c-0.4,1.9-1.4,4.3-3.3,5
							c-1.4,0.5-2.4-0.4-3.2-1.3c-5-5.8-5.8-15.5-2.7-24.6C829.6,606.5,829.7,606.4,829.9,606.3z"/>
						<path id="XMLID_15224_" fill="#45ABAD" d="M848.9,536.9c7.3-5.9,11.3-17.4,9.1-26.4c-0.4-1.5-0.9-3-1.8-4.1
							c-0.9-1.1-2.3-1.6-3.7-1.2c-2,0.7-3.3,3.2-4.1,5.6c-2.4,7.3-2.6,15.3-0.4,22C848.3,534.5,848.5,535.3,848.9,536.9z"/>
						<path id="XMLID_15223_" fill="#F9A01B" d="M859.1,556c1.6-2,4.5-2.1,5.3,0c0.8,2.1-1.1,5.5-3.2,5.8
							C859.1,562.1,857.7,558.2,859.1,556L859.1,556z"/>
						<path id="XMLID_15222_" fill="#F9A01B" d="M872.8,529.1c1.8,1,1.1,6.3-0.5,8.5s-4.5,2.6-5.9,0.9c-1.4-1.7-1.2-5,0.3-7.2
							C868.3,529.1,870.9,528.2,872.8,529.1L872.8,529.1z"/>
						<path id="XMLID_15221_" fill="#45ABAD" d="M826,540.8c-0.5-7.9-5.1-14.6-11.4-17.5c-1.1-0.5-2.5-0.9-3.6-0.3
							c-1.4,0.8-1.8,2.6-1.8,4.2c-0.1,4.1,1.3,8.2,3.9,11.1c2.6,2.9,7.7,4.4,11.6,4.1C825.2,541.7,825.4,541.4,826,540.8z"/>
						<path id="XMLID_15220_" fill="#45ABAD" d="M833.2,557.3c5.8-5.6,8.7-14.6,7.3-22.1c-0.3-1.8-1.4-3.8-3.1-3.5
							c-1.2,0.2-2.2,1.6-2.8,2.8c-3.5,6.7-4.5,14.7-2.5,21.3C832.5,556.4,832.7,556.7,833.2,557.3z"/>
						<path id="XMLID_15219_" fill="#45ABAD" d="M833.3,568.3c-7.1,1.3-13.7-2.7-16.5-9c-0.6-1.3-0.9-3,0-4.2
							c1.2-1.6,3.3-1.2,4.8-0.5c5.1,2.5,9.3,6.8,11.6,12.5C833.2,567.6,833.2,567.8,833.3,568.3z"/>
					</g>
				</g>
				<g id="XMLID_15190_">
					<g id="XMLID_15191_">
						<path id="XMLID_15216_" fill="#45ABAD" d="M544.3,667.7c-13.5,3.8-28,5.5-42.9,4.9c-0.1-0.1-0.2-0.1-0.3-0.2
							c-17.1-6.5-32.2-18.4-41.9-32.9c-0.3-0.5-1-0.7-1.4-0.4c-0.5,0.3-0.6,0.8-0.3,1.3c9.1,13.5,22.7,24.8,38.4,31.8
							c-17.6-1.4-35.6-6.1-52.6-13.9c-23.9-22.6-34.6-55.3-29.7-82.5c0.1-0.5-0.2-1.1-0.8-1.2c-0.5-0.1-1,0.2-1.1,0.7
							c-5,26.1,4.5,57.6,26.4,80.5c-17.4-8.7-33.7-20.7-47.6-35.3c-0.1-0.1-0.2-0.2-0.3-0.3c-10-10.6-18.8-22.4-25.9-35.2
							c0,0,0,0,0,0c-5.3-16.8-2.1-34.2,7.3-45.3c0.3-0.4,0.3-1.1-0.1-1.5c-0.4-0.4-1-0.4-1.4,0c-8.4,9.9-12.2,24.6-9.5,39.8
							c-0.8-1.6-1.6-3.3-2.4-4.9c0-0.3-0.2-0.6-0.4-0.8c-5.9-13.1-10.1-26.8-12.5-40.6c-0.1-0.6-0.6-1.1-1.1-1.1
							c-0.5,0-0.9,0.5-0.8,1.2c1.8,10.5,4.6,21,8.5,31.1c-6.8-10.6-15.1-20.2-24.4-28c-0.5-0.4-1.1-0.3-1.3,0.2
							c-0.2,0.5,0,1.3,0.4,1.7c10.1,8.3,18.9,18.9,25.8,30.6c-5.4-4.5-11.4-8.2-17.5-10.5c-0.6-0.2-1,0.1-1.1,0.7
							c-0.1,0.6,0.3,1.3,0.9,1.5c7.7,2.9,15.2,8,21.5,14.3c6.9,15.2,16.2,29.5,27.2,42.2c-15.5-10.1-32.3-17.9-49.1-21.8
							c-0.6-0.1-1,0.3-1,0.9c0.1,0.7,0.6,1.3,1.1,1.4c18.7,4.3,37.4,13.4,54.4,25.6c15.4,16.1,33.7,29.2,53.3,38.2
							c0.1,0.1,0.2,0.1,0.3,0.1c7.8,3.6,15.8,6.5,23.8,8.7c-24,1.6-49.1,3.9-71.3,8c-0.6,0.1-0.8,0.7-0.5,1.3c0.3,0.6,1,1,1.6,0.9
							c23.7-4.5,50.9-7,76.4-8.6c24.9,5.9,50.1,5.4,72.3-1c0.3-0.1,0.5-0.3,0.6-0.6c0.1-0.2,0.1-0.4,0-0.6
							C545.4,667.9,544.8,667.6,544.3,667.7z"/>
						<path id="XMLID_15215_" fill="#45ABAD" d="M481.6,663.5c-5.8,2.8-13.5,1.5-20.4-1.3c-1.6-0.7-3.3-1.4-4.5-2.7
							c-1.2-1.3-1.9-3.1-1.2-4.4c0.5-1,1.6-1.5,2.8-1.6c1.2-0.1,2.4,0.1,3.6,0.4c7.1,1.7,14,4.8,20,9.2
							C481.8,663.3,481.7,663.4,481.6,663.5z"/>
						<path id="XMLID_15214_" fill="#45ABAD" d="M489,667.3c-4.6-5.6-6.3-12.9-4.6-19.1c0.4-1.5,1.1-3.1,2.6-3.7
							c1.3-0.5,3-0.1,4.2,0.8c1.2,0.9,2,2.3,2.5,3.7c1.1,3,1,6.2,0.3,9.1C493.2,661,490.3,664.6,489,667.3L489,667.3z"/>
						<path id="XMLID_15213_" fill="#45ABAD" d="M461.2,643.8c-3.6-1.5-7.2-3.2-10.2-5.7c-3-2.5-5.5-5.8-6.3-9.4
							c-0.4-1.8-0.3-3.8,1.1-4.8c1.4-1,3.5-0.5,5.1,0.4c3.5,1.8,6.1,5.1,7.7,8.6c1.6,3.5,2.4,7.3,3.2,11
							C461.5,643.9,461.4,643.9,461.2,643.8z"/>
						<path id="XMLID_15212_" fill="#45ABAD" d="M439.2,672.8c-7.9-1.8-15.4-3.9-21.4-10.1c-1.4-1.4-2.6-3-3.1-4.7
							c-0.5-1.7-0.2-3.5,1.1-4.3c1.7-1.1,4.5-0.2,6.7,1c6.9,3.6,12.9,9.3,16.6,15.9C439.1,671.5,439.2,671.9,439.2,672.8z"/>
						<path id="XMLID_15211_" fill="#45ABAD" d="M438.8,672.7c-2.6,5.5-0.5,12.8,2.7,19.5c0.7,1.5,1.5,3,2.8,4.2
							c1.3,1.2,3.2,2.1,4.7,1.7c1.8-0.4,2.2-2.3,2.2-4c0-7.5-4.9-15.8-12-21.3C439.1,672.7,439,672.7,438.8,672.7z"/>
						<path id="XMLID_15210_" fill="#45ABAD" d="M411.9,675.9c-4.5-0.5-9.2-2.9-13.2-6.1c-4-3.2-7.2-7.3-9.7-11.5
							c-0.9-1.5-1.7-3-1.9-4.6c-0.2-1.5,0.5-3,1.8-3.2c1.3-0.2,2.9,0.6,4.3,1.5c8.1,5.4,14.6,13.7,17.3,22.2
							C411.2,674.9,411.4,675.3,411.9,675.9z"/>
						<path id="XMLID_15209_" fill="#45ABAD" d="M415.9,674.2c-3.6,1.7-6.1,5-6.7,9.1c-0.6,4.1,0.8,8.9,3.8,13.2
							c1.1,1.6,2.6,3.2,4.4,3.7c1.4,0.4,2.8,0,3.6-0.7c0.8-0.8,1.2-1.8,1.5-3c1.5-6.1-0.6-13.6-5.1-20
							C416.8,675.6,416.5,675.1,415.9,674.2z"/>
						<path id="XMLID_15208_" fill="#45ABAD" d="M396.9,678.3c-3.6,5.6-11.1,7.6-19.6,5.3c-2-0.6-4.1-1.4-5.9-2.9
							c-1.8-1.5-3.3-3.7-3.2-5.5c0-2.1,2-3.2,3.9-3.6c6.9-1.6,16.8,0.9,24.6,5.4C396.8,677.6,396.8,677.8,396.9,678.3z"/>
						<path id="XMLID_15207_" fill="#45ABAD" d="M421.5,631.9c-8.8,1.1-19.3-4.2-25-12.7c-0.9-1.4-1.8-3-2-4.6
							c-0.2-1.6,0.3-3.2,1.6-3.7c1.3-0.6,2.9,0,4.4,0.6c8.3,3.5,15.6,10.5,19.7,18.6C420.8,630.8,421.1,631.2,421.5,631.9z"/>
						<path id="XMLID_15206_" fill="#45ABAD" d="M421.6,631.1c-0.8-6.3,1.1-12.3,5.1-16.5c1.1-1.1,2.3-2.2,3.9-2.5
							c1.6-0.4,3.5,0.1,4.6,1.4c1.5,1.8,1,4.4,0.2,6.4c-2.6,5.9-7.3,10.7-13.4,13.1C421.8,632.2,421.7,631.9,421.6,631.1z"/>
						<path id="XMLID_15205_" fill="#45ABAD" d="M412.7,605.7c-9.8-4.3-18.1-13.7-21.2-24.2c-0.7-2.3-0.9-5.3,1-6.1
							c1-0.4,2.3-0.1,3.3,0.6c1,0.7,1.8,1.7,2.6,2.7c4.8,6.5,8.6,13.7,10.9,21.4C410.6,602.3,411.3,603.5,412.7,605.7z"/>
						<path id="XMLID_15204_" fill="#45ABAD" d="M413.4,604c-1.1-0.4-1.8-1.6-1.9-2.8c-0.2-1.1,0.1-2.2,0.5-3.2
							c1.9-5.8,5.1-11,9.4-15c1.8-1.6,4.4-3,6.5-1.7c2.1,1.3,2.1,4.3,1.5,6.7c-2,7.7-8.5,14.4-16.3,16.4
							C413.1,604.2,413.2,604.1,413.4,604z"/>
						<path id="XMLID_15203_" fill="#45ABAD" d="M411.4,579.4c-6.4-5.8-7.1-17-3-23.7c0.5-0.9,1.2-1.7,2.1-2
							c1.1-0.4,2.4,0.1,3.3,0.9c0.9,0.8,1.4,1.9,1.8,3.1c2.5,6.8,1.4,15-3.2,20.5C412,578.7,411.8,578.9,411.4,579.4z"/>
						<path id="XMLID_15202_" fill="#45ABAD" d="M334.9,594.1c-4.8-5.4-10.7-9.7-16.6-12c-1.5-0.6-3-1-4.4-0.8
							c-1.3,0.3-2.4,1.4-2.4,3.2c0.1,2.7,2.6,5.3,4.8,6.7c5.6,3.7,13.6,6.7,18.6,5.1C334.9,595.5,334.9,595,334.9,594.1z"/>
						<path id="XMLID_15201_" fill="#45ABAD" d="M346.9,599.4c-6.6-4.6-12.5-11.3-16.7-18.9c-1-1.8-1.9-4.2-0.9-5.4
							c0.6-0.8,1.7-0.7,2.7-0.3s1.9,1.4,2.7,2.3c5.4,5.8,9.7,12.9,12.3,20.4C347,598.2,346.9,598.6,346.9,599.4z"/>
						<path id="XMLID_15200_" fill="#45ABAD" d="M346.6,599.5c-5.8,1.3-10.7,5.1-13.3,10.8c-0.7,1.5-1.2,3.1-1,5
							c0.1,1.9,1,4.1,2.5,5.5c2.5,2.3,5.5,1.6,7.5,0.3c5.4-3.7,7.9-13.2,5.9-21.4C347.6,599.6,347.3,599.5,346.6,599.5z"/>
						<path id="XMLID_15199_" fill="#45ABAD" d="M361.9,604.7c-6.4-3.8-11.9-10.4-14.9-17.7c-0.9-2.4-1.5-5.4,0.1-6.5
							c0.9-0.7,2.4-0.4,3.6,0.4c1.2,0.7,2.2,1.9,3.2,3c2.5,2.9,4.9,5.8,6.7,9.1s3.6,8.6,3.5,12C363.3,604.9,362.8,604.8,361.9,604.7
							z"/>
						<path id="XMLID_15198_" fill="#45ABAD" d="M364.1,606.3c-7,2.7-10.4,11.9-8.5,21.1c0.4,1.9,1.4,4.3,3.3,5
							c1.4,0.5,2.4-0.4,3.2-1.3c5-5.8,5.8-15.5,2.7-24.6C364.5,606.5,364.4,606.4,364.1,606.3z"/>
						<path id="XMLID_15197_" fill="#45ABAD" d="M345.2,536.9c-7.3-5.9-11.3-17.4-9.1-26.4c0.4-1.5,0.9-3,1.8-4.1
							c0.9-1.1,2.3-1.6,3.7-1.2c2,0.7,3.3,3.2,4.1,5.6c2.4,7.3,2.6,15.3,0.4,22C345.7,534.5,345.6,535.3,345.2,536.9z"/>
						<path id="XMLID_15196_" fill="#F9A01B" d="M335,556c-1.6-2-4.5-2.1-5.3,0c-0.8,2.1,1.1,5.5,3.2,5.8
							C335,562.1,336.4,558.2,335,556L335,556z"/>
						<path id="XMLID_15195_" fill="#F9A01B" d="M321.3,529.1c-1.8,1-1.1,6.3,0.5,8.5c1.6,2.2,4.5,2.6,5.9,0.9
							c1.4-1.7,1.2-5-0.3-7.2C325.8,529.1,323.2,528.2,321.3,529.1L321.3,529.1z"/>
						<path id="XMLID_15194_" fill="#45ABAD" d="M368.1,540.8c0.5-7.9,5.1-14.6,11.4-17.5c1.1-0.5,2.5-0.9,3.6-0.3
							c1.4,0.8,1.8,2.6,1.8,4.2c0.1,4.1-1.3,8.2-3.9,11.1c-2.6,2.9-7.7,4.4-11.6,4.1C368.9,541.7,368.6,541.4,368.1,540.8z"/>
						<path id="XMLID_15193_" fill="#45ABAD" d="M360.9,557.3c-5.8-5.6-8.7-14.6-7.3-22.1c0.3-1.8,1.4-3.8,3.1-3.5
							c1.2,0.2,2.2,1.6,2.8,2.8c3.5,6.7,4.5,14.7,2.5,21.3C361.5,556.4,361.3,556.7,360.9,557.3z"/>
						<path id="XMLID_15192_" fill="#45ABAD" d="M360.8,568.3c7.1,1.3,13.7-2.7,16.5-9c0.6-1.3,0.9-3,0-4.2
							c-1.2-1.6-3.3-1.2-4.8-0.5c-5.1,2.5-9.3,6.8-11.6,12.5C360.9,567.6,360.8,567.8,360.8,568.3z"/>
					</g>
				</g>
			</g>
			<g id="XMLID_15163_">
				<g id="XMLID_15180_">
					<g id="XMLID_15187_">
						<path id="XMLID_15188_" fill="#11897D" d="M581.1,684c-18.2,1.1-36.9-4.8-51.2-16.2l1.5-1.8c13.8,11,31.9,16.8,49.6,15.7
							L581.1,684z"/>
					</g>
					<path id="XMLID_15186_" fill="#11897D" d="M531.1,667.8c2-3.7,2-8.5-0.3-12c-2-3.1-5.6-5-9.2-5.9c-3.6-0.8-7.4-0.7-11.2-0.6
						c0.5,0,0.9,0,1.4,0c-1.9,5.8-1.2,11.9,3.2,16.1c4.4,4.2,11.3,5.6,16.9,3.4L531.1,667.8z"/>
					<path id="XMLID_15185_" fill="#11897D" d="M549.1,677.9c2.1,5.1,1.3,11.3-2.1,15.7s-9.1,6.9-14.6,6.3c-1-0.1-2.1-0.4-2.9-1.1
						c-0.9-0.8-1.1-2.2-1.2-3.4c-0.2-4.9,1.8-9.9,5.3-13.4c3.6-3.4,8.6-5.3,13.6-4.9L549.1,677.9z"/>
					<path id="XMLID_15184_" fill="#11897D" d="M557.1,680.2c4.8-2.1,7.2-7.8,6.4-12.9s-4.4-9.5-8.8-12.3c-3.2,3.4-5,8.1-4.9,12.8
						c0.1,4.7,2.1,9.3,5.5,12.6L557.1,680.2z"/>
					<path id="XMLID_15183_" fill="#18BFAE" d="M555.9,669.6c0.2,2.7,0.3,5.5,0.3,8.3c0,0.3,0.2,0.6,0.6,0.6c0.3,0,0.6-0.3,0.6-0.6
						c0-0.8,0-1.7,0-2.5c1.7-2.1,3.2-4.4,4.3-6.8c0.1-0.3,0-0.6-0.3-0.8c0,0,0,0-0.1,0c-0.3-0.1-0.6,0-0.7,0.3
						c-0.9,1.9-2,3.7-3.3,5.4c-0.2-4.3-0.7-8.6-1.5-12.8c0-0.2-0.2-0.4-0.4-0.4c-0.1,0-0.2,0-0.3,0c-0.3,0.1-0.5,0.4-0.5,0.7
						c0.5,2.4,0.8,4.9,1.1,7.4c-0.9-0.4-1.8-1-2.5-1.7c-0.1-0.1-0.1-0.1-0.2-0.1c-0.2-0.1-0.4,0-0.6,0.1c-0.2,0.2-0.2,0.6,0,0.8
						C553.4,668.3,554.6,669.1,555.9,669.6z"/>
					<path id="XMLID_15182_" fill="#18BFAE" d="M533,690.7l3.7,0.3c-1.2,1.2-2.5,2.4-3.8,3.5c-0.2,0.2-0.3,0.6-0.1,0.8
						c0.2,0.2,0.6,0.3,0.8,0.1c1.6-1.4,3.2-2.9,4.7-4.4c0,0,0,0,0,0c1.4-1.4,2.7-2.9,4-4.4l0.1,5.1c0,0.3,0.3,0.6,0.6,0.6
						c0.3,0,0.6-0.3,0.6-0.6l-0.2-6.5c0.7-1,1.5-1.9,2.2-2.9c0.2-0.3,0.1-0.6-0.1-0.8c0,0-0.1-0.1-0.2-0.1c-0.2-0.1-0.5,0-0.7,0.2
						c-0.7,1-1.4,1.9-2.1,2.8c-0.1,0.1-0.2,0.2-0.2,0.3c-1.4,1.8-3,3.6-4.6,5.3l-4.7-0.4c-0.3,0-0.6,0.2-0.6,0.5
						C532.4,690.4,532.7,690.7,533,690.7z"/>
					<path id="XMLID_15181_" fill="#18BFAE" d="M513.7,655.4c1.3,0.9,2.5,1.8,3.7,2.8c-1,0.3-2.1,0.5-3.1,0.4
						c-0.3,0-0.6,0.2-0.6,0.5c0,0.3,0.2,0.6,0.5,0.6c1.4,0.1,2.9-0.1,4.2-0.7c1.8,1.5,3.6,3.1,5.4,4.7c0,0,0.1,0.1,0.1,0.1
						c0.8,0.8,1.6,1.6,2.4,2.4c0.2,0.2,0.6,0.2,0.8,0c0.2-0.2,0.2-0.6,0-0.8c-0.8-0.8-1.6-1.6-2.4-2.3l-0.3-5.1
						c0-0.2-0.2-0.4-0.4-0.5c-0.1,0-0.1,0-0.2,0c-0.3,0-0.6,0.3-0.5,0.6l0.2,3.9c-1.4-1.3-2.9-2.6-4.4-3.8c0,0,0,0,0,0
						c-0.1-0.2-0.2-0.3-0.3-0.3c0,0,0,0,0,0c-1.4-1.2-2.9-2.3-4.4-3.3c0,0-0.1-0.1-0.2-0.1c-0.2-0.1-0.5,0-0.7,0.2
						C513.4,654.9,513.5,655.2,513.7,655.4z"/>
				</g>
				<g id="XMLID_15171_">
					<g id="XMLID_15178_">
						<path id="XMLID_15179_" fill="#11897D" d="M598.6,684c18.2,1.1,36.9-4.8,51.2-16.2l-1.5-1.8c-13.8,11-31.9,16.8-49.6,15.7
							L598.6,684z"/>
					</g>
					<path id="XMLID_15177_" fill="#11897D" d="M648.6,667.8c-2-3.7-2-8.5,0.3-12c2-3.1,5.6-5,9.2-5.9c3.6-0.8,7.4-0.7,11.2-0.6
						c-0.5,0-0.9,0-1.4,0c1.9,5.8,1.2,11.9-3.2,16.1c-4.4,4.2-11.3,5.6-16.9,3.4L648.6,667.8z"/>
					<path id="XMLID_15176_" fill="#11897D" d="M630.6,677.9c-2.1,5.1-1.3,11.3,2.1,15.7s9.1,6.9,14.6,6.3c1-0.1,2.1-0.4,2.9-1.1
						c0.9-0.8,1.1-2.2,1.2-3.4c0.2-4.9-1.8-9.9-5.3-13.4c-3.6-3.4-8.6-5.3-13.6-4.9L630.6,677.9z"/>
					<path id="XMLID_15175_" fill="#11897D" d="M622.6,680.2c-4.8-2.1-7.2-7.8-6.4-12.9c0.8-5.1,4.4-9.5,8.8-12.3
						c3.2,3.4,5,8.1,4.9,12.8c-0.1,4.7-2.1,9.3-5.5,12.6L622.6,680.2z"/>
					<path id="XMLID_15174_" fill="#18BFAE" d="M623.8,669.6c-0.2,2.7-0.3,5.5-0.3,8.3c0,0.3-0.2,0.6-0.6,0.6
						c-0.3,0-0.6-0.3-0.6-0.6c0-0.8,0-1.7,0-2.5c-1.7-2.1-3.2-4.4-4.3-6.8c-0.1-0.3,0-0.6,0.3-0.8c0,0,0,0,0.1,0
						c0.3-0.1,0.6,0,0.7,0.3c0.9,1.9,2,3.7,3.3,5.4c0.2-4.3,0.7-8.6,1.5-12.8c0-0.2,0.2-0.4,0.4-0.4c0.1,0,0.2,0,0.3,0
						c0.3,0.1,0.5,0.4,0.5,0.7c-0.5,2.4-0.8,4.9-1.1,7.4c0.9-0.4,1.8-1,2.5-1.7c0.1-0.1,0.1-0.1,0.2-0.1c0.2-0.1,0.4,0,0.6,0.1
						c0.2,0.2,0.2,0.6,0,0.8C626.3,668.3,625.1,669.1,623.8,669.6z"/>
					<path id="XMLID_15173_" fill="#18BFAE" d="M646.7,690.7L643,691c1.2,1.2,2.5,2.4,3.8,3.5c0.2,0.2,0.3,0.6,0.1,0.8
						c-0.2,0.2-0.6,0.3-0.8,0.1c-1.6-1.4-3.2-2.9-4.7-4.4c0,0,0,0,0,0c-1.4-1.4-2.7-2.9-4-4.4l-0.1,5.1c0,0.3-0.3,0.6-0.6,0.6
						c-0.3,0-0.6-0.3-0.6-0.6l0.2-6.5c-0.7-1-1.5-1.9-2.2-2.9c-0.2-0.3-0.1-0.6,0.1-0.8c0,0,0.1-0.1,0.2-0.1c0.2-0.1,0.5,0,0.7,0.2
						c0.7,1,1.4,1.9,2.1,2.8c0.1,0.1,0.2,0.2,0.2,0.3c1.4,1.8,3,3.6,4.6,5.3l4.7-0.4c0.3,0,0.6,0.2,0.6,0.5
						C647.3,690.4,647.1,690.7,646.7,690.7z"/>
					<path id="XMLID_15172_" fill="#18BFAE" d="M666,655.4c-1.3,0.9-2.5,1.8-3.7,2.8c1,0.3,2.1,0.5,3.1,0.4c0.3,0,0.6,0.2,0.6,0.5
						c0,0.3-0.2,0.6-0.5,0.6c-1.4,0.1-2.9-0.1-4.2-0.7c-1.8,1.5-3.6,3.1-5.4,4.7c0,0-0.1,0.1-0.1,0.1c-0.8,0.8-1.6,1.6-2.4,2.4
						c-0.2,0.2-0.6,0.2-0.8,0c-0.2-0.2-0.2-0.6,0-0.8c0.8-0.8,1.6-1.6,2.4-2.3l0.3-5.1c0-0.2,0.2-0.4,0.4-0.5c0.1,0,0.1,0,0.2,0
						c0.3,0,0.6,0.3,0.5,0.6l-0.2,3.9c1.4-1.3,2.9-2.6,4.4-3.8c0,0,0,0,0,0c0.1-0.2,0.2-0.3,0.3-0.3c0,0,0,0,0,0
						c1.4-1.2,2.9-2.3,4.4-3.3c0,0,0.1-0.1,0.2-0.1c0.2-0.1,0.5,0,0.7,0.2C666.3,654.9,666.2,655.2,666,655.4z"/>
				</g>
				<path id="XMLID_15170_" fill="#FFDC6B" d="M596.1,692.1c5.1,3.9,6.8,9.6,7.7,16c0.5,3.6,0.1,7.5-1.7,10.7
					c-1.8,3.2-5,5.7-8.6,6.1c-6.9,0.7-12.5-6.3-13-13.1s2.7-13.4,5.7-19.6c-4.4,6.6-10.7,11.9-17.9,15.1c-3.3,1.5-7.4,2.4-10.4,0.3
					c-2.5-1.8-3.2-5.1-3.8-8.2c-0.9-5.1-1.5-11.3,2.5-14.7c3-2.6,7.5-2.4,11.5-1.7c3.9,0.7,8,1.9,11.9,0.7
					c-4.1-1.2-8.3-2.4-11.8-4.9c-3.4-2.6-5.9-6.8-5.1-11c0.9-4.5,4.9-7.5,8.9-9.7c2-1.2,4.1-2.3,6.5-2.3c4.1-0.1,7.6,3.3,9,7.1
					s1.2,8.1,0.9,12.1c-0.8-5.8,1.9-12,6.7-15.2c4.9-3.3,11.6-3.5,16.7-0.6c1.8,1,3.4,2.6,3.6,4.6c0.1,1.5-0.6,3-1.5,4.3
					c-3.5,5.5-8.6,9.9-14.5,12.5c4.2,1.1,8.4-1.3,12.4-3s9.4-2.2,12,1.2c1.2,1.6,1.4,3.6,1.6,5.5c0.4,3.4,0.7,6.9-0.1,10.3
					c-0.8,3.4-2.8,6.6-5.9,8c-3.5,1.6-7.8,0.6-11-1.5S598.4,695.2,596.1,692.1L596.1,692.1z"/>
				<path id="XMLID_15169_" fill="#F9B755" d="M596.2,690.7c1.2-0.3,2.4,0,3.6,0.3c1.2,0.3,2.5,0.6,3.6,0.1s2-1.8,1.5-2.9
					c-0.4-0.7-1.2-1-1.9-1.3c-2.4-0.9-4.8-1.8-7.2-2.7c0.9-2.2,1.9-4.4,2.8-6.6c0.3-0.8,0.7-1.7,0.3-2.5c-0.4-0.9-1.6-1.3-2.5-1
					c-1,0.3-1.7,1-2.3,1.8c-1.2,1.5-2.5,3.6-4.4,3.4c-2.3-0.2-3.9-3.5-6.1-2.8c-1.2,0.4-1.7,1.9-1.3,3.2s1.3,2.2,2.2,3
					c0.9,0.9,1.9,1.8,2.3,2.9c-2.1,0.7-4.1,1.3-6.2,2c-0.8,0.3-1.7,0.6-2,1.3c-0.4,0.9,0.1,2,1,2.5s1.9,0.5,2.9,0.4
					c2.1-0.3,4.6-1,6.1,0.4c2.1,2,0.3,6.5,2.9,7.9c1.5,0.8,3.5-0.4,4.1-2s0.3-3.4,0-5.1L596.2,690.7z"/>
				<ellipse id="XMLID_15168_" fill="#FFF5D4" cx="592.5" cy="690.6" rx="2.4" ry="2.4"/>
				<circle id="XMLID_15167_" fill="#FFF5D4" cx="588" cy="681.8" r="1.6"/>
				<circle id="XMLID_15166_" fill="#FFF5D4" cx="587.6" cy="688.3" r="1.7"/>
				<circle id="XMLID_15165_" fill="#FFF5D4" cx="592.9" cy="681.7" r="1.7"/>
				<circle id="XMLID_15164_" fill="#FFF5D4" cx="591.5" cy="686.1" r="0.9"/>
			</g>
			<g id="XMLID_15153_">
				<g id="XMLID_15161_">
					<path id="XMLID_15162_" fill="#70A0AD" d="M359.1,520.1c0.2,0.2,0.5,0.4,0.9,0.4c0.6,0,1.1-0.5,1.1-1.1
						c-0.5-18,5-26.9,5.1-26.9c0.3-0.5,0.2-1.2-0.3-1.5c-0.5-0.3-1.2-0.2-1.5,0.3c-0.2,0.4-5.9,9.4-5.4,28.2
						C358.8,519.7,358.9,519.9,359.1,520.1z"/>
				</g>
				<path id="XMLID_15160_" fill="#FCB679" d="M364.1,455.4c-5.2,1.4-11.1,27.9-0.2,35.6s34.3-12.2,33.8-18.2
					c-0.5-6-5.6-2.2-5.6-2.2s6.5-5.3,2.8-8.6c-3.8-3.3-7.6,5.4-10.2,4.5c-2.5-0.9,4.8-10.7,0.3-12.5c-4.5-1.8-6.1,9-8.6,9
					s2.9-9.4-1.6-9.8c-4.5-0.4-3.8,9.4-5.8,8.7C367,461.1,368.8,454.1,364.1,455.4z"/>
				<path id="XMLID_15159_" fill="#F6DFB1" d="M365.2,491.8c-6.5-3.2-7.4-13-7.4-15.5c0-2.5,2.1-9.9,5.3-9c3.3,0.8-1.6,6.5,1.4,7.4
					c3,0.9,2.8-7.7,5.4-6.7c2.7,1-1,8.2,0.6,8.9c1.7,0.8,5.2-8,9.1-5.4c3.8,2.6-5.4,7.6-3.4,9.4c2,1.8,6.1-5.4,8.1-2.2
					c2,3.2-5.4,5.1-4.5,6.5c0.9,1.4,5.3-3.9,6.7-0.8C387.9,487.6,372,495.1,365.2,491.8z"/>
				<path id="XMLID_15158_" fill="#70A0AD" d="M361.1,504c0,0,4.3-5.3,8.3-6.1c4-0.8,8-0.5,8.7,1.9c0.7,2.4-3.2,5.4-7.6,6.1
					C366.2,506.7,360.3,507.6,361.1,504z"/>
				<path id="XMLID_15157_" fill="#70A0AD" d="M360.5,503.5c0,0-3.5-9.1-9.3-9.1c-5.7,0.1-5.2,6.4,0,8.9c5.2,2.4,9.2,2.4,9.2,2.4
					L360.5,503.5z"/>
			</g>
			<g id="XMLID_15143_">
				<g id="XMLID_15150_">
					<path id="XMLID_15151_" fill="#70A0AD" d="M830.2,520.1c-0.2,0.2-0.5,0.4-0.9,0.4c-0.6,0-1.1-0.5-1.1-1.1
						c0.5-18-5-26.9-5.1-26.9c-0.3-0.5-0.2-1.2,0.3-1.5c0.5-0.3,1.2-0.2,1.5,0.3c0.2,0.4,5.9,9.4,5.4,28.2
						C830.5,519.7,830.4,519.9,830.2,520.1z"/>
				</g>
				<path id="XMLID_15149_" fill="#FCB679" d="M825.2,455.4c5.2,1.4,11.1,27.9,0.2,35.6s-34.3-12.2-33.8-18.2c0.5-6,5.6-2.2,5.6-2.2
					s-6.5-5.3-2.8-8.6c3.8-3.3,7.6,5.4,10.2,4.5c2.5-0.9-4.8-10.7-0.3-12.5c4.5-1.8,6.1,9,8.6,9c2.5,0-2.9-9.4,1.6-9.8
					c4.5-0.4,3.8,9.4,5.8,8.7C822.3,461.1,820.5,454.1,825.2,455.4z"/>
				<path id="XMLID_15148_" fill="#F6DFB1" d="M824.1,491.8c6.5-3.2,7.4-13,7.4-15.5c0-2.5-2.1-9.9-5.3-9c-3.3,0.8,1.6,6.5-1.4,7.4
					c-3,0.9-2.8-7.7-5.4-6.7s1,8.2-0.6,8.9c-1.7,0.8-5.2-8-9.1-5.4s5.4,7.6,3.4,9.4c-2,1.8-6.1-5.4-8.1-2.2c-2,3.2,5.4,5.1,4.5,6.5
					s-5.3-3.9-6.7-0.8C801.4,487.6,817.3,495.1,824.1,491.8z"/>
				<path id="XMLID_15147_" fill="#70A0AD" d="M828.3,504c0,0-4.3-5.3-8.3-6.1c-4-0.8-8-0.5-8.7,1.9c-0.7,2.4,3.2,5.4,7.6,6.1
					C823.2,506.7,829,507.6,828.3,504z"/>
				<path id="XMLID_15146_" fill="#70A0AD" d="M828.8,503.5c0,0,3.5-9.1,9.3-9.1c5.7,0.1,5.2,6.4,0,8.9c-5.2,2.4-9.2,2.4-9.2,2.4
					L828.8,503.5z"/>
			</g>
		</g>
	</g>
	<g>
		<g>
			<g>
				<path fill="#C9CFCF" d="M992.4,1689.1c0.8,1,1.1,2.3,1.1,3.9v7.5c0,0.2-0.1,0.4-0.2,0.6c-0.2,0.2-0.3,0.2-0.6,0.2
					c-0.2,0-0.4-0.1-0.6-0.2c-0.2-0.2-0.2-0.3-0.2-0.6v-7.4c0-1.2-0.3-2.1-0.8-2.9c-0.6-0.7-1.4-1.1-2.6-1.1c-0.7,0-1.5,0.2-2.1,0.5
					c-0.7,0.4-1.2,0.8-1.6,1.4c-0.4,0.6-0.6,1.3-0.6,2v7.4c0,0.2-0.1,0.4-0.2,0.6c-0.2,0.2-0.3,0.2-0.6,0.2s-0.4-0.1-0.6-0.2
					s-0.2-0.3-0.2-0.6v-7.5c0-1.2-0.3-2.1-0.8-2.8s-1.4-1.1-2.5-1.1c-0.7,0-1.4,0.2-2.1,0.5c-0.7,0.4-1.2,0.8-1.6,1.4
					c-0.4,0.6-0.6,1.2-0.6,1.9v7.5c0,0.2-0.1,0.4-0.2,0.6c-0.2,0.2-0.3,0.2-0.6,0.2s-0.4-0.1-0.6-0.2s-0.2-0.3-0.2-0.6v-11.9
					c0-0.2,0.1-0.4,0.2-0.6s0.3-0.2,0.6-0.2s0.4,0.1,0.6,0.2c0.2,0.2,0.2,0.3,0.2,0.6v1.5c0.5-0.7,1.1-1.3,2-1.8
					c0.8-0.5,1.7-0.7,2.6-0.7c1,0,1.9,0.2,2.7,0.7s1.3,1.2,1.6,2.2c0.4-0.8,1.1-1.5,2.1-2c1-0.6,2-0.9,3-0.9
					C990.5,1687.6,991.7,1688.1,992.4,1689.1z"/>
				<path fill="#C9CFCF" d="M1009,1694.3c-0.2,0.2-0.3,0.2-0.6,0.2h-10.1c0,1.1,0.2,2,0.7,2.9c0.4,0.8,1.1,1.5,1.9,2
					c0.8,0.5,1.8,0.7,2.9,0.7c0.9,0,1.6-0.2,2.3-0.5c0.7-0.4,1.2-0.8,1.6-1.4c0.2-0.2,0.4-0.2,0.6-0.2c0.2,0,0.3,0.1,0.5,0.2
					s0.2,0.3,0.2,0.5c0,0.2-0.1,0.4-0.3,0.6c-0.6,0.7-1.3,1.3-2.1,1.7c-0.9,0.4-1.8,0.7-2.7,0.7c-1.4,0-2.6-0.3-3.6-0.9
					s-1.9-1.4-2.5-2.5c-0.6-1.1-0.9-2.3-0.9-3.6c0-1.5,0.3-2.7,0.9-3.8c0.6-1.1,1.3-1.9,2.3-2.5s2-0.9,3.1-0.9c1.1,0,2.1,0.2,3,0.7
					c0.9,0.5,1.7,1.2,2.3,2.2c0.6,1,0.9,2.1,0.9,3.4C1009.3,1693.9,1009.2,1694.1,1009,1694.3z M1000.2,1690
					c-0.9,0.7-1.4,1.7-1.7,3.1h9.1v-0.2c-0.1-0.8-0.4-1.5-0.8-2.1c-0.4-0.6-1-1-1.7-1.4c-0.7-0.3-1.4-0.5-2.1-0.5
					C1002.1,1688.9,1001.1,1689.3,1000.2,1690z"/>
				<path fill="#C9CFCF" d="M1022.1,1687.5c0.9,0.5,1.4,1.1,1.4,1.9c0,0.4-0.1,0.7-0.3,1s-0.5,0.4-0.9,0.4c-0.3,0-0.5,0-0.7-0.1
					c-0.2-0.1-0.4-0.2-0.5-0.3c-0.2-0.1-0.3-0.2-0.5-0.3c-0.2-0.1-0.4-0.2-0.8-0.2c-0.3-0.1-0.6-0.1-0.8-0.1c-1.3,0-2.4,0.4-3.1,1.2
					s-1.1,1.9-1.1,3.2c0,1.3,0.4,2.3,1.1,3.2c0.8,0.8,1.7,1.3,2.9,1.3c0.9,0,1.5-0.1,1.9-0.3c0.1-0.1,0.3-0.1,0.4-0.3
					c0.2-0.1,0.4-0.2,0.5-0.3c0.2-0.1,0.4-0.1,0.6-0.1c0.4,0,0.8,0.1,1.1,0.4c0.3,0.3,0.4,0.6,0.4,1.1c0,0.4-0.2,0.8-0.7,1.2
					c-0.5,0.4-1.2,0.7-2,0.9c-0.8,0.2-1.7,0.3-2.6,0.3c-1.4,0-2.6-0.3-3.6-1c-1-0.6-1.8-1.5-2.4-2.6c-0.6-1.1-0.9-2.4-0.9-3.8
					c0-1.4,0.3-2.7,0.9-3.8c0.6-1.1,1.4-2,2.5-2.6c1.1-0.6,2.3-0.9,3.6-0.9C1020,1686.8,1021.2,1687.1,1022.1,1687.5z"/>
				<path fill="#C9CFCF" d="M1038.8,1698c-0.6,1.1-1.5,2-2.6,2.6s-2.3,0.9-3.7,0.9c-1.4,0-2.6-0.3-3.7-0.9c-1.1-0.6-2-1.5-2.6-2.6
					c-0.6-1.1-1-2.4-1-3.8c0-1.4,0.3-2.7,1-3.8c0.6-1.1,1.5-2,2.6-2.6c1.1-0.6,2.3-0.9,3.7-0.9c1.3,0,2.6,0.3,3.7,0.9
					c1.1,0.6,2,1.5,2.6,2.6c0.6,1.1,1,2.4,1,3.8C1039.7,1695.6,1039.4,1696.9,1038.8,1698z M1036,1691.9c-0.4-0.7-0.9-1.2-1.5-1.6
					c-0.6-0.4-1.3-0.6-2-0.6s-1.4,0.2-2,0.6c-0.6,0.4-1.1,0.9-1.5,1.6c-0.4,0.7-0.5,1.5-0.5,2.3c0,0.9,0.2,1.6,0.5,2.3
					s0.9,1.2,1.5,1.6c0.6,0.4,1.3,0.6,2,0.6s1.4-0.2,2-0.6c0.6-0.4,1.1-0.9,1.5-1.6s0.5-1.4,0.5-2.3
					C1036.5,1693.3,1036.3,1692.6,1036,1691.9z"/>
				<path fill="#C9CFCF" d="M1053.8,1688.4c0.7,1.1,1,2.6,1,4.4v6.8c0,0.5-0.2,0.8-0.5,1.2c-0.3,0.3-0.7,0.5-1.1,0.5
					s-0.8-0.2-1.1-0.5c-0.3-0.3-0.5-0.7-0.5-1.2v-6.8c0-1-0.2-1.7-0.6-2.3c-0.4-0.6-1.1-0.8-2.1-0.8c-1,0-1.8,0.3-2.4,0.9
					s-0.9,1.3-0.9,2.2v6.8c0,0.5-0.2,0.8-0.5,1.2c-0.3,0.3-0.7,0.5-1.1,0.5s-0.8-0.2-1.1-0.5c-0.3-0.3-0.5-0.7-0.5-1.2v-11
					c0-0.5,0.2-0.8,0.5-1.2s0.7-0.5,1.1-0.5s0.8,0.2,1.1,0.5s0.5,0.7,0.5,1.2v0.5c0.5-0.6,1.1-1.2,1.9-1.6c0.8-0.5,1.6-0.7,2.6-0.7
					C1051.8,1686.8,1053.1,1687.4,1053.8,1688.4z"/>
				<path fill="#C9CFCF" d="M1070.2,1687.5c0.3,0.3,0.4,0.6,0.4,1c0,0.2-0.1,0.5-0.2,0.8l-5,10.9c-0.1,0.3-0.3,0.5-0.5,0.7
					s-0.5,0.3-0.8,0.3l-0.2,0c-0.3,0-0.6-0.1-0.8-0.3s-0.5-0.4-0.6-0.8l-5-10.9c-0.1-0.3-0.2-0.6-0.2-0.8c0-0.4,0.2-0.7,0.5-1
					c0.3-0.3,0.7-0.4,1.1-0.4c0.3,0,0.7,0.1,0.9,0.3c0.3,0.2,0.5,0.4,0.6,0.7l3.7,8.4l3.7-8.4c0.1-0.3,0.3-0.6,0.6-0.8
					c0.2-0.2,0.5-0.3,0.8-0.2C1069.6,1687.1,1069.9,1687.3,1070.2,1687.5z"/>
				<path fill="#C9CFCF" d="M1073.3,1685.1c-0.2-0.2-0.4-0.5-0.4-1v-0.5c0-0.5,0.1-0.8,0.4-1c0.3-0.2,0.7-0.3,1.3-0.3
					c0.6,0,1.1,0.1,1.3,0.3c0.2,0.2,0.4,0.5,0.4,1v0.5c0,0.5-0.1,0.9-0.4,1c-0.3,0.2-0.7,0.3-1.3,0.3
					C1074,1685.4,1073.5,1685.3,1073.3,1685.1z M1075.7,1700.8c-0.3,0.3-0.7,0.5-1.1,0.5c-0.5,0-0.8-0.2-1.1-0.5
					c-0.3-0.3-0.5-0.7-0.5-1.2v-11c0-0.5,0.2-0.8,0.5-1.2s0.7-0.5,1.1-0.5c0.5,0,0.8,0.2,1.1,0.5s0.5,0.7,0.5,1.2v11
					C1076.2,1700.1,1076.1,1700.5,1075.7,1700.8z"/>
				<path fill="#C9CFCF" d="M1092.2,1682.1c0.3,0.3,0.5,0.7,0.5,1.2v16.4c0,0.5-0.2,0.8-0.5,1.2c-0.3,0.3-0.7,0.5-1.1,0.5
					c-0.5,0-0.8-0.2-1.1-0.5s-0.5-0.7-0.5-1.1c-0.4,0.5-1,1-1.8,1.3c-0.8,0.4-1.6,0.5-2.4,0.5c-1.2,0-2.3-0.3-3.3-0.9
					s-1.8-1.5-2.4-2.6c-0.6-1.1-0.9-2.4-0.9-3.8c0-1.4,0.3-2.7,0.9-3.8c0.6-1.1,1.3-2,2.3-2.6c1-0.6,2.1-0.9,3.3-0.9
					c0.9,0,1.7,0.2,2.4,0.5c0.7,0.3,1.4,0.7,1.9,1.2v-5.2c0-0.5,0.2-0.8,0.5-1.2c0.3-0.3,0.7-0.5,1.1-0.5
					C1091.5,1681.6,1091.9,1681.8,1092.2,1682.1z M1088.5,1697.4c0.7-0.8,1.1-1.9,1.1-3.2c0-1.3-0.4-2.3-1.1-3.2
					c-0.7-0.8-1.7-1.3-2.8-1.3c-1.1,0-2.1,0.4-2.8,1.3s-1.1,1.9-1.1,3.2c0,1.3,0.4,2.3,1.1,3.2c0.7,0.8,1.7,1.3,2.8,1.3
					C1086.8,1698.6,1087.8,1698.2,1088.5,1697.4z"/>
				<path fill="#C9CFCF" d="M1108.4,1694.9c-0.3,0.3-0.7,0.4-1.1,0.4h-8.8c0.2,1,0.7,1.9,1.5,2.5c0.8,0.6,1.6,0.9,2.6,0.9
					c0.7,0,1.3-0.1,1.7-0.2c0.4-0.1,0.7-0.3,1-0.4c0.2-0.1,0.4-0.3,0.5-0.3c0.3-0.2,0.6-0.2,0.9-0.2c0.4,0,0.7,0.1,1,0.4
					c0.3,0.3,0.4,0.6,0.4,0.9c0,0.5-0.2,0.9-0.7,1.3c-0.5,0.4-1.2,0.8-2,1c-0.8,0.3-1.7,0.4-2.5,0.4c-1.5,0-2.8-0.3-3.9-0.9
					c-1.1-0.6-2-1.5-2.6-2.6c-0.6-1.1-0.9-2.3-0.9-3.7c0-1.5,0.3-2.9,1-4c0.6-1.2,1.5-2,2.5-2.6c1-0.6,2.2-0.9,3.4-0.9
					c1.2,0,2.3,0.3,3.3,1c1,0.6,1.9,1.5,2.5,2.6c0.6,1.1,0.9,2.2,0.9,3.5C1108.9,1694.3,1108.8,1694.6,1108.4,1694.9z
					 M1098.5,1692.6h7v-0.2c-0.1-0.7-0.4-1.4-1.1-1.9c-0.7-0.5-1.4-0.8-2.2-0.8C1100.1,1689.7,1098.9,1690.7,1098.5,1692.6z"/>
			</g>
			<path fill="#C9CFCF" d="M1032.4,1690.2h6.7l-6.7-16.6l-6.7,16.6H1032.4z"/>
			<path fill="#C9CFCF" d="M1039.1,1690.2l-6.7-16.6l-1.1,2.8c0.3,0.2,0.7,0.4,1.1,0.4c0,0,0,0,0,0c0.2,0,0.3,0.1,0.4,0.2l5.3,13.2
				H1039.1z"/>
			<path fill="#C9CFCF" d="M1035.5,1681.4h-6.3l0.9-2.4h4.4L1035.5,1681.4z"/>
			<path fill="#C9CFCF" d="M1033.7,1679.1l0.9,2.4h1l-0.9-2.4H1033.7z"/>
			<path fill="#C9CFCF" d="M1037.8,1686.9H1027l0.9-2.4h8.8L1037.8,1686.9z"/>
			<path fill="#C9CFCF" d="M1037.8,1686.9l-0.9-2.4h-1l0.9,2.4H1037.8z"/>
			<path fill="#C9CFCF" d="M1039.3,1691.4h-13.8c-0.2,0-0.4-0.2-0.4-0.4v-0.4c0-0.2,0.2-0.4,0.4-0.4h13.8c0.2,0,0.4,0.2,0.4,0.4v0.4
				C1039.7,1691.2,1039.5,1691.4,1039.3,1691.4z"/>
			<path fill="#C9CFCF" d="M1039.3,1690.2h-1c0.2,0,0.4,0.2,0.4,0.4v0.4c0,0.2-0.2,0.4-0.4,0.4h1c0.2,0,0.4-0.2,0.4-0.4v-0.4
				C1039.7,1690.3,1039.5,1690.2,1039.3,1690.2z"/>
			<g>
				<path fill="#C9CFCF" d="M1035.7,1676.1l0.3,0.1c0.2,0.1,0.4,0.3,0.5,0.5l0.3,0.8c0.1,0.1,0.2,0.1,0.3,0l0.3-0.8
					c0.1-0.2,0.2-0.4,0.5-0.5l0.3-0.1c0.1-0.1,0.1-0.2,0-0.3l-0.3-0.1c-0.2-0.1-0.4-0.3-0.5-0.5l-0.3-0.8c-0.1-0.1-0.2-0.1-0.3,0
					l-0.3,0.8c-0.1,0.2-0.2,0.4-0.5,0.5l-0.3,0.1C1035.6,1675.8,1035.6,1676,1035.7,1676.1z"/>
				<path fill="#C9CFCF" d="M1037.8,1675.6c-0.2-0.1-0.3-0.2-0.4-0.4c-0.1,0.6-0.5,1-1,1.2c0,0,0.1,0.1,0.1,0.2l0.3,0.8
					c0.1,0.1,0.2,0.1,0.3,0l0.3-0.8c0.1-0.2,0.2-0.4,0.5-0.5l0.3-0.1c0.1-0.1,0.1-0.2,0-0.3L1037.8,1675.6z"/>
			</g>
			<path fill="#C9CFCF" d="M1025.5,1680.4l0.3,0.1c0.2,0.1,0.4,0.3,0.5,0.5l0.3,0.8c0.1,0.1,0.2,0.1,0.3,0l0.3-0.8
				c0.1-0.2,0.2-0.4,0.5-0.5l0.3-0.1c0.1-0.1,0.1-0.2,0-0.3l-0.3-0.1c-0.2-0.1-0.4-0.3-0.5-0.5l-0.3-0.8c-0.1-0.1-0.2-0.1-0.3,0
				l-0.3,0.8c-0.1,0.2-0.2,0.4-0.5,0.5l-0.3,0.1C1025.3,1680.2,1025.3,1680.3,1025.5,1680.4z"/>
			<path fill="#C9CFCF" d="M1027.6,1680c-0.2-0.1-0.3-0.2-0.4-0.4c-0.1,0.6-0.5,1-1,1.2c0,0,0.1,0.1,0.1,0.2l0.3,0.8
				c0.1,0.1,0.2,0.1,0.3,0l0.3-0.8c0.1-0.2,0.2-0.4,0.5-0.5l0.3-0.1c0.1-0.1,0.1-0.2,0-0.3L1027.6,1680z"/>
			<path fill="#C9CFCF" d="M1030.8,1675.9l0.8-0.2l0.2,0.8c0.1,0.5,0.6,0.9,1.2,0.8c0.5-0.1,0.9-0.6,0.8-1.2l-0.2-0.8l0.8-0.2
				c0.5-0.1,0.9-0.6,0.8-1.2c-0.1-0.5-0.6-0.9-1.2-0.8l-0.8,0.2l-0.2-0.8c-0.1-0.5-0.6-0.9-1.2-0.8c-0.5,0.1-0.9,0.6-0.8,1.2
				l0.2,0.8l-0.8,0.2c-0.5,0.1-0.9,0.6-0.8,1.2C1029.7,1675.6,1030.2,1676,1030.8,1675.9z"/>
		</g>
		<path fill="#C9CFCF" d="M1030.8,1675.9l0.8-0.2l1.6-2.3l-0.2-0.8c-0.1-0.5-0.6-0.9-1.2-0.8c-0.5,0.1-0.9,0.6-0.8,1.2l0.2,0.8
			l-0.8,0.2c-0.5,0.1-0.9,0.6-0.8,1.2C1029.7,1675.6,1030.2,1676,1030.8,1675.9z"/>
	</g>
</g>
</svg>
