<?xml version="1.0" encoding="utf-8"?>
<!-- Generator: Adobe Illustrator 23.0.4, SVG Export Plug-In . SVG Version: 6.00 Build 0)  -->
<svg version="1.1" xmlns="http://www.w3.org/2000/svg" xmlns:xlink="http://www.w3.org/1999/xlink" x="0px" y="0px" width="1200px"
	 height="1800px" viewBox="0 0 1200 1800" enable-background="new 0 0 1200 1800" xml:space="preserve">
<g id="Layer_1">
	<g>
		<defs>
			<rect id="SVGID_613_" width="1200" height="1800"/>
		</defs>
		<clipPath id="SVGID_2_">
			<use xlink:href="#SVGID_613_"  overflow="visible"/>
		</clipPath>
		<g clip-path="url(#SVGID_2_)">
			<g>
				<rect y="37.5" fill="#FFFFFF" stroke="#231F20" stroke-miterlimit="10" width="1200" height="1697.1"/>
				<g>
					<rect y="0.8" fill="#C3E5F7" width="1197.7" height="1836.8"/>
					<rect y="37.5" fill="#92D3F3" width="1197.7" height="72.4"/>
					<rect y="194.2" fill="#92D3F3" width="1197.7" height="64.4"/>
					<rect y="342.9" fill="#92D3F3" width="1197.7" height="64.4"/>
					<rect y="491.6" fill="#92D3F3" width="1197.7" height="64.4"/>
					<rect y="640.3" fill="#92D3F3" width="1197.7" height="64.4"/>
					<rect y="789" fill="#92D3F3" width="1197.7" height="64.4"/>
					<rect y="937.7" fill="#92D3F3" width="1197.7" height="64.4"/>
					<rect y="1086.4" fill="#92D3F3" width="1197.7" height="64.4"/>
					<rect y="1235.1" fill="#92D3F3" width="1197.7" height="64.4"/>
					<rect y="1383.8" fill="#92D3F3" width="1197.7" height="64.4"/>
					<rect y="1532.5" fill="#92D3F3" width="1197.7" height="64.4"/>
					<rect y="1670.2" fill="#92D3F3" width="1197.7" height="64.4"/>
					<g>
						<path fill="#C5D6E0" d="M1035.3,1131.9c-1-2.5-3.5-4.2-6.3-4.2c-51.3-54-38.6-194.4-30.2-287.6c1.9-21.1,3.7-41,4.5-57.1
							c1.3-24.9-4.3-43.9-16.5-56.3c-10.7-10.9-26-16.5-45.5-16.5c-9,0-17.2,1.2-23.1,2.4c0.5-22.7-5.9-41.4-19.2-55.5
							C870,626,813.9,622,768.4,622c-16.6,0-32.7,0.6-48.3,1.2c-13,0.5-25.4,0.9-36,0.9c-54.6,0-62.6-29.4-68.4-51l-2.7-10.6
							c-0.8-3.3-4-5.4-7.5-5c-3.4,0.4-6.1,3.2-6.1,6.6c0,0,0,1.9-0.4,4.7c-0.3,2-0.4,2.9-0.4,2.9c-3.4,19.6-17.1,52.3-71,52.3
							c-10.7,0-23-0.5-36-0.9c-15.6-0.6-31.7-1.2-48.3-1.2c-45.6,0-101.6,4-130.7,35.1c-13.3,14.2-19.7,32.8-19.2,55.5
							c-6-1.2-14.2-2.4-23.1-2.4c-19.4,0-34.7,5.5-45.5,16.5C212.5,739.1,207,758,208.3,783c0.8,16.1,2.6,36,4.5,57.1
							c8.4,93.2,21.1,233.5-30.2,287.6c-2.8,0-5.3,1.7-6.3,4.2c-0.5,1.2-0.6,2.5-0.3,3.8c-0.3,1.2-0.2,2.5,0.3,3.8
							c1,2.5,3.5,4.2,6.3,4.2c51.3,54.1,38.6,194.4,30.2,287.6c-1.9,21.1-3.7,41-4.5,57.1c-1.3,24.9,4.3,43.9,16.5,56.3
							c10.7,10.9,26,16.5,45.5,16.5c9,0,17.2-1.2,23.1-2.4c-0.5,22.7,5.9,41.4,19.2,55.5c29.1,31.1,85.2,35.1,130.7,35.1
							c16.6,0,32.7-0.6,48.3-1.2c13-0.5,25.4-0.9,36-0.9c39.9,0,63.2,17.3,69.1,51.5l1.9,9.9c0.6,3.1,3.4,5.4,6.7,5.4
							c0,0,0.1,0,0.1,0c3.2,0,6-2.2,6.7-5.2l2.3-10c0-0.1,0.1-0.2,0.1-0.3c4-23.4,19.4-51.3,69.6-51.3c10.7,0,23,0.5,36,0.9
							c15.6,0.6,31.7,1.2,48.3,1.2c45.6,0,101.6-4,130.7-35.1c13.3-14.2,19.7-32.8,19.2-55.5c6,1.2,14.2,2.4,23.1,2.4
							c19.4,0,34.7-5.5,45.5-16.5c12.2-12.4,17.8-31.4,16.5-56.3c-0.8-16.1-2.6-36-4.5-57.1c-8.4-93.2-21.1-233.6,30.2-287.6
							c2.8,0,5.3-1.7,6.3-4.2c0.5-1.2,0.6-2.5,0.3-3.7C1035.8,1134.4,1035.8,1133.1,1035.3,1131.9z"/>
						<path fill="#F4EFE5" d="M1017.9,1121.9h-2.8c-68-66.6-34.1-262.3-29.6-351.7c4.6-90.6-85.6-61.3-85.6-61.3
							c11.6-114.6-148.1-90.6-226.8-90.6c-60.9,0-69.5-35.4-75.4-57l-2.4-9.7c0,0,0,2.2-0.5,5.7c-0.3,2.2-0.5,3-0.5,3
							c-3.1,18-16.9,57.9-77.8,57.9c-78.7,0-238.4-24-226.8,90.6c0,0-90.3-29.3-85.6,61.3c4.6,89.4,38.4,285.1-29.6,351.7h-2.8
							c0.5,0.4,0.9,0.9,1.4,1.3c-0.5,0.4-0.9,0.9-1.4,1.3h2.8c68,66.6,34.1,262.3,29.6,351.7c-4.6,90.6,85.6,61.3,85.6,61.3
							c-11.6,114.6,148.1,90.6,226.8,90.6c60.9,0,72.7,38.9,75.8,57l1.9,9.9l2.3-10c3.1-18,15.5-56.8,76.4-56.8
							c78.7,0,238.4,24,226.8-90.6c0,0,90.3,29.3,85.6-61.3c-4.6-89.4-38.4-285.1,29.6-351.7h2.8c-0.5-0.4-0.9-0.9-1.4-1.3
							C1016.9,1122.8,1017.4,1122.3,1017.9,1121.9z"/>
						
							<path fill="none" stroke="#CB8967" stroke-width="7" stroke-linecap="round" stroke-linejoin="round" stroke-miterlimit="10" stroke-dasharray="4.989,29.9342" d="
							M990.5,1122h-2.6c-63.6-62.3-31.9-245.4-27.7-329c4.3-84.7-80.1-57.3-80.1-57.3C890.9,628.5,741.6,651,668,651
							c-57,0-65-33.1-70.5-53.3l-2.3-9c0,0,0,2-0.4,5.3c-0.3,2.1-0.4,2.8-0.4,2.8c-2.9,16.9-15.8,54.2-72.7,54.2
							c-73.6,0-223-22.4-212.1,84.7c0,0-84.4-27.4-80.1,57.3c4.3,83.6,35.9,266.6-27.7,329h-2.6c0.5,0.4,0.9,0.8,1.3,1.2
							c-0.4,0.4-0.9,0.8-1.3,1.2h2.6c63.6,62.3,31.9,245.4,27.7,329c-4.3,84.7,80.1,57.3,80.1,57.3
							c-10.8,107.2,138.5,84.7,212.1,84.7c57,0,68,36.4,70.9,53.3l1.8,9.2l2.1-9.3c2.9-16.9,14.5-53.2,71.5-53.2
							c73.6,0,223,22.4,212.1-84.7c0,0,84.4,27.4,80.1-57.3c-4.3-83.6-35.9-266.6,27.7-329h2.6c-0.5-0.4-0.9-0.8-1.3-1.2
							C989.6,1122.8,990,1122.4,990.5,1122z"/>
					</g>
					<polygon fill="#FCD298" points="819.7,224.7 377.8,224.7 409.1,162.2 377.8,103 819.7,103 792.4,162.2 					"/>
					<g>
						<g>
							<path fill="#88BBDA" d="M205.3,621.4c5.1,18.8-13,24.8-13,24.8c-4.4,1.6-8.9,1.3-12.2,0.7c-0.7,3.7-2.5,6.9-6.3,8.8
								c0,0-9.4,4.4-12.3-4.7c0,0-2.3-6.9,6.4-9.8c-2.8-6.8-6.8-14.8-6.8-14.8c-5.5-10.9-12.8-26.8-17.4-38.9c0,0-5-11.1,2.2-14
								c0,0,5-2.8,9.9,7.4c-0.8-8.5-0.3-17.9,5.3-21.2c10.7-6.2,17.9,3.8,19.6,12.9c1.1,6.1,0.2,16.6-5.6,25.3
								C186.6,594.4,198.9,598.6,205.3,621.4z M169.3,644.7c-0.9,0.1-2,0.5-2.8,0.8c-2.5,1.4-2,3.5-1.9,4.3c0.2,0.7,1.4,3.3,4.1,2.3
								C171.3,651.1,170,646.8,169.3,644.7z M167.1,606.2c2.2,4.9,4.5,10,6.7,14.5c0,0,5.9,11.2,6.5,21.3c2.3,0.6,6.2,1.1,9.7-0.4
								c0,0,7.4-2.4,1.1-20.5C185,604.2,172.9,602.1,167.1,606.2z M164.9,601.1c6.4-10.6,3.5-26.2,2-31c-1.9-5.6-4.1-3.9-4.1-3.9
								c-0.7,0.5-1.1,1.2-1.4,2C158.5,576.9,163.7,596.5,164.9,601.1z"/>
							<path fill="#88BBDA" d="M255.4,591.3c0.6,2,2,5.4,2.6,7.8c0,0,4.6,13.5-5.3,17.7c0,0-10.5,5.1-19-4
								c1.9,8.6-0.5,13.1-5.9,15.4c-10.5,4.5-17-11.3-17-11.3c-9-20.6-4-29,1.6-32.6c3.9-2.4,6.7-1.4,8.5,0.2
								c-0.2-2.4,0.4-4.4,2-5.5c0,0,5.6-4.6,10.5,6.5c0,0,11.4,29,17.6,27.1c5.7-1.8,3.3-11.5,3.3-11.5c-0.4-2-1.2-4.5-2.1-7.2
								c-0.3-0.9,0-1.8,0.6-2.5l0.5-0.6C253.9,590.2,255,590.5,255.4,591.3z M225.6,599.5c-0.3-0.7-0.7-1.5-1.1-2.3
								c-1.4-3-5.5-11.4-7.9-10.1c-2.9,1.9,4.1,20.5,4.1,20.5c5.5,15.2,8.7,12.7,8.7,12.7C233.5,618.8,226.4,601.4,225.6,599.5z"/>
							<path fill="#88BBDA" d="M289,575.6c-1.1,6.6-5.6,10.1-8.4,11.6c3.3,14.3-5.4,18.5-5.4,18.5s-12.5,8.3-21.7-8.2
								c0,0-4.5-7.2-7.3-13.4c0,0-19.7-40-5.5-47.2c0,0,8.7-5.6,14.4,12.1c2.9,8.8,0.8,15.2-1.9,19.2c0.5,1.1,1,2,1.3,3
								c0.2-2.6,1.4-4.4,1.4-4.4c6.5-9.4,18.4,0.4,23.8,16.7c4.3-2.6,5.4-5.8,5.7-7.5c0.1-0.7,0.7-1.3,1.5-1.7l0.4-0.2
								C288.2,573.8,289.3,574.7,289,575.6z M276.1,589.1c-7.2,2-12.4-1-16.1-5.4c4,8.3,9.7,18.9,13.6,17.8
								C275,601.2,277.7,597,276.1,589.1z M251,562.5c0.6-2.8,0.6-6.7-0.8-11.7c-2.4-8.7-4.7-7.9-4.7-7.9
								C243.8,543.9,247.5,554,251,562.5z M275,585.5c-0.5-1.4-1-2.8-1.8-4.3c-6.6-13.4-10.6-12.2-10.6-12.2
								C258,572.3,267.4,585.5,275,585.5z"/>
							<path fill="#88BBDA" d="M329.6,555.2c0.8,2,2.1,5.3,2.7,7.7c2.4,9.4,2,16.9-3.4,24.6c5,12,7.1,25.7-2.6,31.1
								c-10.4,5.7-14.6-3.6-14.6-3.6c-3.6-7.5-1.5-14.5,6.6-23.3c-3.6-7.8-8.2-15.8-10-18.9c2.7,14.8-3.2,18-8.1,18.4
								c-9.1,0.6-17.3-13.5-22.9-27.6c-4.4-11.2,0.8-14.1,0.8-14.1s6.8-4.8,11.9,10.1c0,0,5.4,14.3,8.7,20.4c0,0,1.9,3.9,3.8,3
								c2.4-1,2.4-10.6-1.6-23.7c-3.3-7.2-5.9-15.7-1.9-18.5c0,0,5.6-4.9,11.1,7.3c0,0,3.8,9.5,8.2,17.3c0,0,4,7.6,8.2,16.6
								c4.8-8.7,2.2-17.2,2.2-17.2c-0.4-2-1.2-4.5-2.1-7.2c-0.3-0.9,0-1.8,0.6-2.5l0.4-0.5C328.2,554,329.3,554.3,329.6,555.2z
								 M323,605.3c-0.3-2.4-1.3-5.4-2.7-8.6c-5.9,6.9-6.1,11.9-5.2,14.8c1.1,4,4.1,3.7,4.1,3.7C323.8,614.3,323,605.3,323,605.3z"
								/>
						</g>
					</g>
					<g>
						<g>
							<g>
								<path fill="#88BBDA" d="M933.7,591.5c0.8-2.2,1.9-4.4,3.2-6.6c1.5-2.5,2.7-5.2,4-7.8c4.6-9.3,1.4-18.1-7.7-22.6
									c-4.1-2-9.6-2-14-1.4c-21.6,2.8-28.1,30-24.3,47.7c1.1,5.2,3.7,11.6,6.7,16c4,6,13.1,10.9,19.7,7.5c5.3-2.8,8.5-8,8.9-13.8
									C930.6,603.5,931.4,597.5,933.7,591.5z"/>
							</g>
							<path fill="#88BBDA" d="M955.6,556.9c-4.1,4.2-10.2,4.9-13.4,1.7c-3.3-3.3-2.6-9.3,1.6-13.5c4.1-4.2,10.2-4.9,13.4-1.7
								C960.4,546.7,959.7,552.7,955.6,556.9z"/>
							<path fill="#88BBDA" d="M937.7,546.6c-1.9,3.7-5.8,5.4-8.7,3.9c-2.9-1.5-3.6-5.7-1.7-9.4c1.9-3.7,5.8-5.4,8.7-3.9
								C938.9,538.7,939.6,542.9,937.7,546.6z"/>
							<path fill="#88BBDA" d="M923.5,542.9c-0.1,3.7-2.5,6.6-5.4,6.6c-2.9-0.1-5.2-3.1-5.1-6.8c0.1-3.7,2.5-6.7,5.4-6.6
								C921.3,536.1,923.6,539.2,923.5,542.9z"/>
							<path fill="#88BBDA" d="M910.3,545.8c1.5,3.1,0.8,6.6-1.6,7.7c-2.4,1.2-5.6-0.4-7.1-3.5c-1.5-3.1-0.8-6.6,1.6-7.7
								C905.6,541.1,908.8,542.7,910.3,545.8z"/>
							<path fill="#88BBDA" d="M900.8,553.6c2.1,2.1,2.6,5.1,1,6.8c-1.6,1.7-4.7,1.4-6.8-0.7c-2.1-2.1-2.6-5.1-1-6.8
								C895.6,551.2,898.7,551.5,900.8,553.6z"/>
						</g>
						<g>
							<g>
								<path fill="#88BBDA" d="M959.8,604.9c1.3-2,2.5-4.1,3.5-6.5c1.2-2.7,2.6-5.2,4-7.8c4.8-9.2,13.8-11.7,22.8-6.9
									c4,2.1,7.2,6.7,9.3,10.6c10.4,19.2-7.9,40.4-24.4,47.7c-4.8,2.1-11.6,3.8-16.8,3.9c-7.2,0.2-16.5-4.3-17.6-11.7
									c-0.9-6,1.5-11.6,6-15.3C951.9,614.5,956.3,610.3,959.8,604.9z"/>
							</g>
							<path fill="#88BBDA" d="M975.1,566.9c-1,5.8,1.9,11.2,6.5,11.9c4.5,0.8,9-3.3,10-9.2c1-5.8-1.9-11.2-6.5-11.9
								C980.5,557,976,561.1,975.1,566.9z"/>
							<path fill="#88BBDA" d="M993.8,575.4c-1.8,3.7-1,7.9,1.9,9.3c2.9,1.4,6.7-0.4,8.5-4.1c1.8-3.7,1-7.9-1.9-9.3
								C999.5,569.9,995.7,571.7,993.8,575.4z"/>
							<path fill="#88BBDA" d="M1005.1,584.8c-2.9,2.2-3.9,5.9-2.2,8.2c1.7,2.3,5.5,2.4,8.5,0.1c2.9-2.2,3.9-5.9,2.2-8.2
								C1011.9,582.7,1008.1,582.6,1005.1,584.8z"/>
							<path fill="#88BBDA" d="M1010.5,597.3c-3.4,0.6-5.7,3.2-5.3,5.9c0.5,2.7,3.6,4.3,6.9,3.7c3.4-0.6,5.7-3.2,5.3-5.9
								C1017,598.4,1013.9,596.7,1010.5,597.3z"/>
							<path fill="#88BBDA" d="M1009.8,609.5c-2.9-0.5-5.6,0.9-6,3.2c-0.4,2.3,1.6,4.6,4.5,5.1c2.9,0.5,5.6-0.9,6-3.2
								C1014.7,612.4,1012.7,610.1,1009.8,609.5z"/>
						</g>
					</g>
					
						<path fill="none" stroke="#F2F2F2" stroke-width="9.9781" stroke-linecap="round" stroke-miterlimit="10" stroke-dasharray="19.9561,14.9671" d="
						M1143.5,0.8c-28.5,79.7-81.1,258.5-70.8,343.3c12.7,104.4,59.9,205.2,46.1,312.1c-5,38.6-5.2,90.9-19.9,127.1"/>
					<g>
						<g>
							<path fill="#FCD298" d="M1086.2,445.5l-33-30.7c-8.3-7.7-8.8-20.7-1.1-29c7.7-8.3,20.7-8.8,28.9-1.1l4.7,4.4l4.4-4.2
								c8.2-7.8,21.1-7.5,29,0.7c7.8,8.2,7.5,21.2-0.7,29L1086.2,445.5z"/>
						</g>
						<path fill="#FFF2CF" d="M1102.4,382.9c-2.5,3.8,2.1,3.8,5.1,5.4c3.2,1.7,5.8,4.6,7.9,7.5c2.2,3.1,1.7,8.5,4.2,7.6
							c3-1,2.6-4.8,1.8-7.2c-3.1-8.8-6.2-11.8-12.2-14C1106.8,381.5,1103.5,381.3,1102.4,382.9z"/>
					</g>
					<g>
						
							<path fill="none" stroke="#FFFFFF" stroke-width="9.9781" stroke-linecap="round" stroke-miterlimit="10" stroke-dasharray="19.9561,14.9671" d="
							M88.8,686.7C53.9,597.1,60.5,538,86.6,450.5C112.8,360.9,60,88.2,36,0.8"/>
						
							<path fill="none" stroke="#FFFFFF" stroke-width="9.9781" stroke-linecap="round" stroke-miterlimit="10" stroke-dasharray="19.9561,14.9671" d="
							M70,738.2c10,79.4,66.4,156.9,87.7,234.9c34.8,127.2,36.9,253.7-16.7,375.6c-18.9,43.1-39.7,84-36.9,132.7"/>
						<g>
							<path fill="#FCD298" d="M120.8,1366.3c9.1,0,29.7,60.3,29.7,60.3s62.7,3,66.3,9.7c3.7,6.6-48,46.9-48,46.9s16,61.9,11.3,66.3
								c-4.7,4.4-59.3-31.3-59.3-31.3s-53.1,35.8-59.3,31.3c-6.2-4.5,11.3-66.3,11.3-66.3s-47.7-39.2-48-46.9
								c-0.3-7.7,66.3-9.7,66.3-9.7S111.7,1366.3,120.8,1366.3z"/>
							<path fill="#FFF2CF" d="M122.9,1375.8c0,0,4.1,41.1,18.4,50.7C155.7,1436.1,122.9,1360.7,122.9,1375.8z"/>
						</g>
						<g>
							<g>
								<path fill="#FCD298" d="M180.3,1208.1l-34-31.7c-8.5-8-9-21.4-1.1-29.9c7.9-8.6,21.3-9.1,29.8-1.1l4.9,4.5l4.5-4.3
									c8.4-8.1,21.8-7.8,29.8,0.7c8.1,8.5,7.8,21.9-0.7,29.9L180.3,1208.1z"/>
							</g>
							<path fill="#FFF2CF" d="M197,1143.7c-2.6,3.9,2.1,3.9,5.3,5.6c3.3,1.7,6,4.7,8.2,7.7c2.3,3.2,1.8,8.7,4.4,7.9
								c3.1-1,2.7-4.9,1.8-7.4c-3.2-9.1-6.4-12.2-12.5-14.4C201.5,1142.2,198.1,1142.1,197,1143.7z"/>
						</g>
						<g>
							<path fill="#FCD298" d="M183.7,775.4c-60.3-11.8-99.7-70.3-87.9-130.8c3.7-18.9,11.9-35.7,23.2-49.5
								c-45.9,6.2-84.9,41-94.2,89.2c-11.7,60.5,27.6,119,87.9,130.8c41.5,8.1,82.1-8.1,107.2-38.7C208.1,778,196,777.8,183.7,775.4
								z"/>
							<path fill="#FFF2CF" d="M52.4,650.7c0,0-31.2,91.9,35.4,138.3c0,0,4.8,21-27-9.7C29,748.6,15.9,701.2,46,649.4
								C59.3,626.4,52.4,650.7,52.4,650.7z"/>
						</g>
					</g>
					
						<path fill="none" stroke="#F2F2F2" stroke-width="9.9781" stroke-linecap="round" stroke-miterlimit="10" stroke-dasharray="19.9561,14.9671" d="
						M1093.9,749.6c-49.7,133.1-78.7,237.2-79,377.2c-0.1,73,27.6,120.4,50.3,184.5"/>
					<g>
						<path fill="#FCD298" d="M690.4,540l-6.4-3.5c-12.8,32.8-24.8,24-24.8,24c-13.2-4.1-3.6-35.2-3.6-35.2l-10-2.3
							c-4,44.6-24.4,32.8-24.4,32.8c-13.7-8.2-16-53.1-16.3-63.9h-8.1c-0.4,10.8-2.6,55.7-16.3,63.9c0,0-20.4,11.7-24.4-32.8
							l-10,2.3c0,0,9.6,31.1-3.6,35.2c0,0-12,8.8-24.8-24l-6.4,3.5c0,0,12.8,30.8,10.9,76.8l76.1,0.6v0l2.4,0l2.4,0v0l76.1-0.6
							C677.6,570.8,690.4,540,690.4,540z"/>
						<g>
							<path fill="#FBCC96" d="M526.2,537.9c0,6-4.8,10.8-10.8,10.8c-6,0-10.8-4.9-10.8-10.8c0-6,4.8-10.8,10.8-10.8
								C521.3,527.1,526.2,532,526.2,537.9z"/>
							<path fill="#FDEEEC" d="M521.5,532.9c0,1.5-1.4,2.7-3.1,2.7c-1.7,0-3.1-1.2-3.1-2.7c0-1.5,1.4-2.7,3.1-2.7
								C520.1,530.2,521.5,531.4,521.5,532.9z"/>
						</g>
						<g>
							<path fill="#FBCC96" d="M560.8,523.3c0,6-4.8,10.8-10.8,10.8c-6,0-10.8-4.9-10.8-10.8c0-6,4.8-10.8,10.8-10.8
								C556,512.5,560.8,517.3,560.8,523.3z"/>
							<path fill="#FDEEEC" d="M556.1,518.3c0,1.5-1.4,2.7-3.1,2.7c-1.7,0-3.1-1.2-3.1-2.7c0-1.5,1.4-2.7,3.1-2.7
								C554.7,515.6,556.1,516.8,556.1,518.3z"/>
						</g>
						<g>
							<path fill="#FBCC96" d="M662.5,523.9c0,6-4.8,10.8-10.8,10.8c-6,0-10.8-4.9-10.8-10.8c0-6,4.8-10.8,10.8-10.8
								C657.7,513.1,662.5,517.9,662.5,523.9z"/>
							<path fill="#FDEEEC" d="M657.8,518.9c0,1.5-1.4,2.7-3.1,2.7c-1.7,0-3.1-1.2-3.1-2.7s1.4-2.7,3.1-2.7
								C656.5,516.1,657.8,517.4,657.8,518.9z"/>
						</g>
						<g>
							<path fill="#FBCC96" d="M698.8,538c0,6-4.8,10.8-10.8,10.8c-6,0-10.8-4.9-10.8-10.8c0-6,4.8-10.8,10.8-10.8
								C693.9,527.1,698.8,532,698.8,538z"/>
							<path fill="#FDEEEC" d="M694.1,533c0,1.5-1.4,2.7-3.1,2.7c-1.7,0-3.1-1.2-3.1-2.7c0-1.5,1.4-2.7,3.1-2.7
								C692.7,530.2,694.1,531.4,694.1,533z"/>
						</g>
						<g>
							<path fill="#FBCC96" d="M611.7,490.5c0,6-4.8,10.8-10.8,10.8c-6,0-10.8-4.9-10.8-10.8c0-6,4.8-10.8,10.8-10.8
								C606.8,479.6,611.7,484.5,611.7,490.5z"/>
							<path fill="#FDEEEC" d="M607,485.5c0,1.5-1.4,2.7-3.1,2.7c-1.7,0-3.1-1.2-3.1-2.7c0-1.5,1.4-2.7,3.1-2.7
								C605.6,482.7,607,484,607,485.5z"/>
						</g>
						<path fill="#FCDCBC" d="M678.1,570.6c0,0-2.7,9-3.3,36.6c0,0-5.3,9.4-6.4-1.8c-1.2-11.1-2.1-22.5,6.6-38.3
							C683.8,551.2,678.1,570.6,678.1,570.6z"/>
					</g>
					<g>
						<g>
							<path fill="#FCD298" d="M1099.3,854.8l-84.1-78.4c-21.1-19.7-22.4-52.8-2.7-74c19.6-21.2,52.7-22.4,73.8-2.7l12,11.2
								l11.2-10.7c20.8-20,53.9-19.2,73.8,1.7c19.9,20.9,19.2,54.1-1.7,74L1099.3,854.8z"/>
						</g>
						<path fill="#FFF2CF" d="M1140.7,695.4c-6.5,9.6,5.2,9.7,13.1,13.9c8.1,4.2,14.9,11.7,20.2,19.1c5.6,7.9,4.4,21.6,10.8,19.5
							c7.7-2.5,6.7-12.2,4.5-18.4c-7.8-22.5-15.8-30.2-31-35.6C1151.9,691.7,1143.5,691.3,1140.7,695.4z"/>
					</g>
					<g>
						<g>
							<path fill="#92C9DB" d="M843.1,1428.4c-17.7,44.7-37.6,88.8,4.1,127c24.2,25.6,66.4,32,96.2,39.8
								c93.8,24.7,101.7-96.3,113.8-171.4c12.5-77.5,20.8-122.8,31.5-202.1c3.6-45.6-0.8-44.6-61.2-63.6
								c-49.7-15.6-57-27.5-81.4,24.1C946.1,1182.3,883.6,1322.6,843.1,1428.4z"/>
						</g>
						<g>
							<path fill="#92C9DB" d="M843.1,1428.4c-17.7,44.7-37.6,88.8,4.1,127c24.2,25.6,66.4,32,96.2,39.8
								c93.8,24.7,101.7-96.3,113.8-171.4c12.5-77.5,20.8-122.8,31.5-202.1c3.6-45.6-0.8-44.6-61.2-63.6
								c-49.7-15.6-57-27.5-81.4,24.1C946.1,1182.3,883.6,1322.6,843.1,1428.4z"/>
						</g>
						<g>
							<path fill="#6BBED8" d="M873,1553.6c-15.5-18.4-26.9-38.3-23.8-63.3c3.7-29,15.2-57.2,23.9-84.9
								c11.2-35.6,22.5-71.1,34.9-106.3c10.9-31.1,20.6-65.7,36.8-94.5c9.6-17.1,28.5-2.1,41.2,4.2c31.3,15.6,66.6,20.7,101.3,22.6
								c0.4-3.2,0.9-6.3,1.3-9.6c3.6-45.6-0.8-44.6-61.2-63.6c-49.7-15.6-57-27.5-81.4,24.1c0,0-62.5,140.2-103,246.1
								c-17.7,44.7-37.6,88.8,4.1,127c15.3,16.2,37.9,24.7,59.9,30.8C894.3,1576.3,882.8,1565.2,873,1553.6z"/>
						</g>
						<path fill="#00AEE7" d="M947.9,1178.4c0,0,60.3,36.9,140.7,43.4c0,0,5.6,0.3,8.2-11.8c2.2-10.1,9.3-47.4,9.3-47.4
							s6.3-16.9-16.3-26.9c-13.9-6.2-25.1-10.5-45.7-17.1c-29.2-9.3-50.9-12.6-58.1-12.6c-7.2,0-14.8,0.4-21.7,13.5
							c-6.8,13.1-17,44.4-17,44.4S942.2,1173.7,947.9,1178.4z"/>
						<path fill="#5FBFED" d="M1106.1,1162.6c0,0,6.3-16.9-16.3-26.9c-13.9-6.2-25.1-10.5-45.7-17.1c-29.2-9.3-50.9-12.6-58.1-12.6
							c-7.2,0-14.8,0.4-21.7,13.5c-0.5,1-2.1,11.3,69.5,33.5C1097.8,1172.9,1106.1,1162.6,1106.1,1162.6z"/>
						<g>
							<path fill="#F5C695" d="M1089.8,1154.3c20.6-0.7-29.9-30.8-23.9-52c2.9-11.3,12.3-27,14.6-38.1c2.7-12.7,1.8-27-16.2-30
								c-7.7-1.3-19.5,0.3-24.5,26.8c-3.1,16.2-4.1,34-21.3,40.7c-10.9,4.3-25.3,6-35.2,12.3c-2.9,1.8-6.2,4.1-2,7.2
								C981.2,1121.2,1032.2,1156.2,1089.8,1154.3z"/>
						</g>
						<g>
							<path fill="#F3B275" d="M1093.4,1148.1c-4.1,2.4-8.3,4.6-12.5,6.2c2.9,0.1,5.9,0.1,8.9,0
								C1095.3,1154.1,1095.7,1151.8,1093.4,1148.1z"/>
						</g>
						<g>
							<path fill="#F3BF8E" d="M1001.5,1123.1c0.2-6.4,9.6-7.7,15.8-10.3c18.9-7.8,29-18.4,29.3-34.7c0.3-17.3,0.5-31.9,12.5-44.2
								c-7.1,0.7-15.4,6-19.4,27.1c-3.1,16.2-4.1,34-21.3,40.7c-10.9,4.3-25.3,6-35.2,12.3c-2.9,1.8-6.2,4.1-2,7.2
								c0,0,20.1,13.8,49.3,23.6C1025.6,1140.4,1001.3,1129.7,1001.5,1123.1z"/>
						</g>
						<g>
							<g>
								<path fill="#F2AC70" d="M1093.9,1148.9c-0.8,0.4-1.9,0.6-3.6,0.7c-70.3,4.3-108.5-33.1-108.5-33.1c-0.4-0.3-0.8-0.6-1.1-1
									c-2.1,1.6-2.3,3.4,0.5,5.6c0,0,51,35.1,108.5,33.1C1094.8,1154.1,1095.6,1152.1,1093.9,1148.9z"/>
							</g>
						</g>
						<path fill="#F9E6C3" d="M1079.5,1054c-0.2,6.2-3.1,11.2-6.6,11.1c-3.4-0.1-6-5.2-5.8-11.4c0.2-6.2,3.1-11.2,6.6-11.1
							C1077.1,1042.7,1079.7,1047.8,1079.5,1054z"/>
						<g>
							<path fill="#BDD9DF" d="M1055.6,1285.9c-0.6-0.3-1.2-0.6-1.8-0.8c-23.7-8.4-31.2,82.2-32.5,93.6c-2.2,19.6-5.6,39-7,58.6
								c-0.5,6.5,3.4,33.5,18.4,20.8c9.8-8.3,14.4-43.4,19.6-73.5c6.6-38,12.2-53.8,10.5-83.3
								C1062.3,1294.5,1061.3,1288.8,1055.6,1285.9z"/>
						</g>
						
							<line fill="none" stroke="#B7DAF4" stroke-width="14.9671" stroke-linecap="round" stroke-miterlimit="10" x1="930" y1="1244.7" x2="951.2" y2="1254"/>
						
							<line fill="none" stroke="#B7DAF4" stroke-width="14.9671" stroke-linecap="round" stroke-miterlimit="10" x1="907.1" y1="1291.8" x2="928.6" y2="1300.3"/>
						
							<line fill="none" stroke="#B7DAF4" stroke-width="14.9671" stroke-linecap="round" stroke-miterlimit="10" x1="890.9" y1="1331.6" x2="912.4" y2="1340.2"/>
						
							<line fill="none" stroke="#B7DAF4" stroke-width="14.9671" stroke-linecap="round" stroke-miterlimit="10" x1="871.9" y1="1380.4" x2="893.4" y2="1389"/>
						
							<line fill="none" stroke="#B7DAF4" stroke-width="14.9671" stroke-linecap="round" stroke-miterlimit="10" x1="850.3" y1="1436.1" x2="871.8" y2="1444.6"/>
					</g>
				</g>
				<polygon fill="#FCD298" points="1008.7,372.7 185.2,372.7 243.5,310.4 185.2,251.3 1008.7,251.3 957.7,310.4 				"/>
			</g>
			<g>
				<g>
					<g>
						<path fill="#F9F9F9" d="M992.4,1728.2c0.8,1,1.1,2.3,1.1,3.9v7.5c0,0.2-0.1,0.4-0.2,0.6c-0.2,0.2-0.3,0.2-0.6,0.2
							c-0.2,0-0.4-0.1-0.6-0.2c-0.2-0.2-0.2-0.3-0.2-0.6v-7.4c0-1.2-0.3-2.1-0.8-2.9c-0.6-0.7-1.4-1.1-2.6-1.1
							c-0.7,0-1.5,0.2-2.1,0.5c-0.7,0.4-1.2,0.8-1.6,1.4c-0.4,0.6-0.6,1.3-0.6,2v7.4c0,0.2-0.1,0.4-0.2,0.6
							c-0.2,0.2-0.3,0.2-0.6,0.2s-0.4-0.1-0.6-0.2s-0.2-0.3-0.2-0.6v-7.5c0-1.2-0.3-2.1-0.8-2.8s-1.4-1.1-2.5-1.1
							c-0.7,0-1.4,0.2-2.1,0.5c-0.7,0.4-1.2,0.8-1.6,1.4c-0.4,0.6-0.6,1.2-0.6,1.9v7.5c0,0.2-0.1,0.4-0.2,0.6
							c-0.2,0.2-0.3,0.2-0.6,0.2s-0.4-0.1-0.6-0.2s-0.2-0.3-0.2-0.6v-11.9c0-0.2,0.1-0.4,0.2-0.6s0.3-0.2,0.6-0.2s0.4,0.1,0.6,0.2
							c0.2,0.2,0.2,0.3,0.2,0.6v1.5c0.5-0.7,1.1-1.3,2-1.8c0.8-0.5,1.7-0.7,2.6-0.7c1,0,1.9,0.2,2.7,0.7s1.3,1.2,1.6,2.2
							c0.4-0.8,1.1-1.5,2.1-2c1-0.6,2-0.9,3-0.9C990.5,1726.7,991.7,1727.2,992.4,1728.2z"/>
						<path fill="#F9F9F9" d="M1009,1733.4c-0.2,0.2-0.3,0.2-0.6,0.2h-10.1c0,1.1,0.2,2,0.7,2.9c0.4,0.8,1.1,1.5,1.9,2
							c0.8,0.5,1.8,0.7,2.9,0.7c0.9,0,1.6-0.2,2.3-0.5c0.7-0.4,1.2-0.8,1.6-1.4c0.2-0.2,0.4-0.2,0.6-0.2c0.2,0,0.3,0.1,0.5,0.2
							s0.2,0.3,0.2,0.5c0,0.2-0.1,0.4-0.3,0.6c-0.6,0.7-1.3,1.3-2.1,1.7c-0.9,0.4-1.8,0.7-2.7,0.7c-1.4,0-2.6-0.3-3.6-0.9
							s-1.9-1.4-2.5-2.5c-0.6-1.1-0.9-2.3-0.9-3.6c0-1.5,0.3-2.7,0.9-3.8c0.6-1.1,1.3-1.9,2.3-2.5s2-0.9,3.1-0.9
							c1.1,0,2.1,0.2,3,0.7c0.9,0.5,1.7,1.2,2.3,2.2c0.6,1,0.9,2.1,0.9,3.4C1009.3,1733,1009.2,1733.2,1009,1733.4z M1000.2,1729.1
							c-0.9,0.7-1.4,1.7-1.7,3.1h9.1v-0.2c-0.1-0.8-0.4-1.5-0.8-2.1c-0.4-0.6-1-1-1.7-1.4c-0.7-0.3-1.4-0.5-2.1-0.5
							C1002.1,1728,1001.1,1728.4,1000.2,1729.1z"/>
						<path fill="#F9F9F9" d="M1022.1,1726.6c0.9,0.5,1.4,1.1,1.4,1.9c0,0.4-0.1,0.7-0.3,1s-0.5,0.4-0.9,0.4c-0.3,0-0.5,0-0.7-0.1
							c-0.2-0.1-0.4-0.2-0.5-0.3c-0.2-0.1-0.3-0.2-0.5-0.3c-0.2-0.1-0.4-0.2-0.8-0.2c-0.3-0.1-0.6-0.1-0.8-0.1
							c-1.3,0-2.4,0.4-3.1,1.2s-1.1,1.9-1.1,3.2c0,1.3,0.4,2.3,1.1,3.2c0.8,0.8,1.7,1.3,2.9,1.3c0.9,0,1.5-0.1,1.9-0.3
							c0.1-0.1,0.3-0.1,0.4-0.3c0.2-0.1,0.4-0.2,0.5-0.3c0.2-0.1,0.4-0.1,0.6-0.1c0.4,0,0.8,0.1,1.1,0.4c0.3,0.3,0.4,0.6,0.4,1.1
							c0,0.4-0.2,0.8-0.7,1.2c-0.5,0.4-1.2,0.7-2,0.9c-0.8,0.2-1.7,0.3-2.6,0.3c-1.4,0-2.6-0.3-3.6-1c-1-0.6-1.8-1.5-2.4-2.6
							c-0.6-1.1-0.9-2.4-0.9-3.8c0-1.4,0.3-2.7,0.9-3.8c0.6-1.1,1.4-2,2.5-2.6c1.1-0.6,2.3-0.9,3.6-0.9
							C1020,1725.9,1021.2,1726.2,1022.1,1726.6z"/>
						<path fill="#F9F9F9" d="M1038.8,1737.1c-0.6,1.1-1.5,2-2.6,2.6s-2.3,0.9-3.7,0.9c-1.4,0-2.6-0.3-3.7-0.9
							c-1.1-0.6-2-1.5-2.6-2.6c-0.6-1.1-1-2.4-1-3.8c0-1.4,0.3-2.7,1-3.8c0.6-1.1,1.5-2,2.6-2.6c1.1-0.6,2.3-0.9,3.7-0.9
							c1.3,0,2.6,0.3,3.7,0.9c1.1,0.6,2,1.5,2.6,2.6c0.6,1.1,1,2.4,1,3.8C1039.7,1734.7,1039.4,1736,1038.8,1737.1z M1036,1731
							c-0.4-0.7-0.9-1.2-1.5-1.6c-0.6-0.4-1.3-0.6-2-0.6s-1.4,0.2-2,0.6c-0.6,0.4-1.1,0.9-1.5,1.6c-0.4,0.7-0.5,1.5-0.5,2.3
							c0,0.9,0.2,1.6,0.5,2.3s0.9,1.2,1.5,1.6c0.6,0.4,1.3,0.6,2,0.6s1.4-0.2,2-0.6c0.6-0.4,1.1-0.9,1.5-1.6s0.5-1.4,0.5-2.3
							C1036.5,1732.4,1036.3,1731.7,1036,1731z"/>
						<path fill="#F9F9F9" d="M1053.8,1727.5c0.7,1.1,1,2.6,1,4.4v6.8c0,0.5-0.2,0.8-0.5,1.2c-0.3,0.3-0.7,0.5-1.1,0.5
							s-0.8-0.2-1.1-0.5c-0.3-0.3-0.5-0.7-0.5-1.2v-6.8c0-1-0.2-1.7-0.6-2.3c-0.4-0.6-1.1-0.8-2.1-0.8c-1,0-1.8,0.3-2.4,0.9
							s-0.9,1.3-0.9,2.2v6.8c0,0.5-0.2,0.8-0.5,1.2c-0.3,0.3-0.7,0.5-1.1,0.5s-0.8-0.2-1.1-0.5c-0.3-0.3-0.5-0.7-0.5-1.2v-11
							c0-0.5,0.2-0.8,0.5-1.2s0.7-0.5,1.1-0.5s0.8,0.2,1.1,0.5s0.5,0.7,0.5,1.2v0.5c0.5-0.6,1.1-1.2,1.9-1.6
							c0.8-0.5,1.6-0.7,2.6-0.7C1051.8,1725.9,1053.1,1726.5,1053.8,1727.5z"/>
						<path fill="#F9F9F9" d="M1070.2,1726.6c0.3,0.3,0.4,0.6,0.4,1c0,0.2-0.1,0.5-0.2,0.8l-5,10.9c-0.1,0.3-0.3,0.5-0.5,0.7
							s-0.5,0.3-0.8,0.3l-0.2,0c-0.3,0-0.6-0.1-0.8-0.3s-0.5-0.4-0.6-0.8l-5-10.9c-0.1-0.3-0.2-0.6-0.2-0.8c0-0.4,0.2-0.7,0.5-1
							c0.3-0.3,0.7-0.4,1.1-0.4c0.3,0,0.7,0.1,0.9,0.3c0.3,0.2,0.5,0.4,0.6,0.7l3.7,8.4l3.7-8.4c0.1-0.3,0.3-0.6,0.6-0.8
							c0.2-0.2,0.5-0.3,0.8-0.2C1069.6,1726.2,1069.9,1726.3,1070.2,1726.6z"/>
						<path fill="#F9F9F9" d="M1073.3,1724.2c-0.2-0.2-0.4-0.5-0.4-1v-0.5c0-0.5,0.1-0.8,0.4-1c0.3-0.2,0.7-0.3,1.3-0.3
							c0.6,0,1.1,0.1,1.3,0.3c0.2,0.2,0.4,0.5,0.4,1v0.5c0,0.5-0.1,0.9-0.4,1c-0.3,0.2-0.7,0.3-1.3,0.3
							C1074,1724.5,1073.5,1724.4,1073.3,1724.2z M1075.7,1739.9c-0.3,0.3-0.7,0.5-1.1,0.5c-0.5,0-0.8-0.2-1.1-0.5
							c-0.3-0.3-0.5-0.7-0.5-1.2v-11c0-0.5,0.2-0.8,0.5-1.2s0.7-0.5,1.1-0.5c0.5,0,0.8,0.2,1.1,0.5s0.5,0.7,0.5,1.2v11
							C1076.2,1739.2,1076.1,1739.6,1075.7,1739.9z"/>
						<path fill="#F9F9F9" d="M1092.2,1721.2c0.3,0.3,0.5,0.7,0.5,1.2v16.4c0,0.5-0.2,0.8-0.5,1.2c-0.3,0.3-0.7,0.5-1.1,0.5
							c-0.5,0-0.8-0.2-1.1-0.5s-0.5-0.7-0.5-1.1c-0.4,0.5-1,1-1.8,1.3c-0.8,0.4-1.6,0.5-2.4,0.5c-1.2,0-2.3-0.3-3.3-0.9
							s-1.8-1.5-2.4-2.6c-0.6-1.1-0.9-2.4-0.9-3.8c0-1.4,0.3-2.7,0.9-3.8c0.6-1.1,1.3-2,2.3-2.6c1-0.6,2.1-0.9,3.3-0.9
							c0.9,0,1.7,0.2,2.4,0.5c0.7,0.3,1.4,0.7,1.9,1.2v-5.2c0-0.5,0.2-0.8,0.5-1.2c0.3-0.3,0.7-0.5,1.1-0.5
							C1091.5,1720.7,1091.9,1720.9,1092.2,1721.2z M1088.5,1736.5c0.7-0.8,1.1-1.9,1.1-3.2c0-1.3-0.4-2.3-1.1-3.2
							c-0.7-0.8-1.7-1.3-2.8-1.3c-1.1,0-2.1,0.4-2.8,1.3s-1.1,1.9-1.1,3.2c0,1.3,0.4,2.3,1.1,3.2c0.7,0.8,1.7,1.3,2.8,1.3
							C1086.8,1737.7,1087.8,1737.3,1088.5,1736.5z"/>
						<path fill="#F9F9F9" d="M1108.4,1734c-0.3,0.3-0.7,0.4-1.1,0.4h-8.8c0.2,1,0.7,1.9,1.5,2.5c0.8,0.6,1.6,0.9,2.6,0.9
							c0.7,0,1.3-0.1,1.7-0.2c0.4-0.1,0.7-0.3,1-0.4c0.2-0.1,0.4-0.3,0.5-0.3c0.3-0.2,0.6-0.2,0.9-0.2c0.4,0,0.7,0.1,1,0.4
							c0.3,0.3,0.4,0.6,0.4,0.9c0,0.5-0.2,0.9-0.7,1.3c-0.5,0.4-1.2,0.8-2,1c-0.8,0.3-1.7,0.4-2.5,0.4c-1.5,0-2.8-0.3-3.9-0.9
							c-1.1-0.6-2-1.5-2.6-2.6c-0.6-1.1-0.9-2.3-0.9-3.7c0-1.5,0.3-2.9,1-4c0.6-1.2,1.5-2,2.5-2.6c1-0.6,2.2-0.9,3.4-0.9
							c1.2,0,2.3,0.3,3.3,1c1,0.6,1.9,1.5,2.5,2.6c0.6,1.1,0.9,2.2,0.9,3.5C1108.9,1733.4,1108.8,1733.7,1108.4,1734z
							 M1098.5,1731.7h7v-0.2c-0.1-0.7-0.4-1.4-1.1-1.9c-0.7-0.5-1.4-0.8-2.2-0.8C1100.1,1728.8,1098.9,1729.8,1098.5,1731.7z"/>
					</g>
					<path fill="#F9F9F9" d="M1032.4,1729.3h6.7l-6.7-16.6l-6.7,16.6H1032.4z"/>
					<path fill="#F9F9F9" d="M1039.1,1729.3l-6.7-16.6l-1.1,2.8c0.3,0.2,0.7,0.4,1.1,0.4c0,0,0,0,0,0c0.2,0,0.3,0.1,0.4,0.2
						l5.3,13.2H1039.1z"/>
					<path fill="#F9F9F9" d="M1035.5,1720.5h-6.3l0.9-2.4h4.4L1035.5,1720.5z"/>
					<path fill="#F9F9F9" d="M1033.7,1718.2l0.9,2.4h1l-0.9-2.4H1033.7z"/>
					<path fill="#F9F9F9" d="M1037.8,1726H1027l0.9-2.4h8.8L1037.8,1726z"/>
					<path fill="#F9F9F9" d="M1037.8,1726l-0.9-2.4h-1l0.9,2.4H1037.8z"/>
					<path fill="#F9F9F9" d="M1039.3,1730.4h-13.8c-0.2,0-0.4-0.2-0.4-0.4v-0.4c0-0.2,0.2-0.4,0.4-0.4h13.8c0.2,0,0.4,0.2,0.4,0.4
						v0.4C1039.7,1730.3,1039.5,1730.4,1039.3,1730.4z"/>
					<path fill="#F9F9F9" d="M1039.3,1729.3h-1c0.2,0,0.4,0.2,0.4,0.4v0.4c0,0.2-0.2,0.4-0.4,0.4h1c0.2,0,0.4-0.2,0.4-0.4v-0.4
						C1039.7,1729.4,1039.5,1729.3,1039.3,1729.3z"/>
					<g>
						<path fill="#F9F9F9" d="M1035.7,1715.2l0.3,0.1c0.2,0.1,0.4,0.3,0.5,0.5l0.3,0.8c0.1,0.1,0.2,0.1,0.3,0l0.3-0.8
							c0.1-0.2,0.2-0.4,0.5-0.5l0.3-0.1c0.1-0.1,0.1-0.2,0-0.3l-0.3-0.1c-0.2-0.1-0.4-0.3-0.5-0.5l-0.3-0.8c-0.1-0.1-0.2-0.1-0.3,0
							l-0.3,0.8c-0.1,0.2-0.2,0.4-0.5,0.5l-0.3,0.1C1035.6,1714.9,1035.6,1715.1,1035.7,1715.2z"/>
						<path fill="#F9F9F9" d="M1037.8,1714.7c-0.2-0.1-0.3-0.2-0.4-0.4c-0.1,0.6-0.5,1-1,1.2c0,0,0.1,0.1,0.1,0.2l0.3,0.8
							c0.1,0.1,0.2,0.1,0.3,0l0.3-0.8c0.1-0.2,0.2-0.4,0.5-0.5l0.3-0.1c0.1-0.1,0.1-0.2,0-0.3L1037.8,1714.7z"/>
					</g>
					<path fill="#F9F9F9" d="M1025.5,1719.5l0.3,0.1c0.2,0.1,0.4,0.2,0.5,0.5l0.3,0.8c0.1,0.1,0.2,0.1,0.3,0l0.3-0.8
						c0.1-0.2,0.2-0.4,0.5-0.5l0.3-0.1c0.1-0.1,0.1-0.2,0-0.3l-0.3-0.1c-0.2-0.1-0.4-0.2-0.5-0.5l-0.3-0.8c-0.1-0.1-0.2-0.1-0.3,0
						l-0.3,0.8c-0.1,0.2-0.2,0.4-0.5,0.5l-0.3,0.1C1025.3,1719.2,1025.3,1719.4,1025.5,1719.5z"/>
					<path fill="#F9F9F9" d="M1027.6,1719.1c-0.2-0.1-0.3-0.2-0.4-0.4c-0.1,0.6-0.5,1-1,1.2c0,0,0.1,0.1,0.1,0.2l0.3,0.8
						c0.1,0.1,0.2,0.1,0.3,0l0.3-0.8c0.1-0.2,0.2-0.4,0.5-0.5l0.3-0.1c0.1-0.1,0.1-0.2,0-0.3L1027.6,1719.1z"/>
					<path fill="#F9F9F9" d="M1030.8,1714.9l0.8-0.2l0.2,0.8c0.1,0.5,0.6,0.9,1.2,0.8s0.9-0.6,0.8-1.2l-0.2-0.8l0.8-0.2
						c0.5-0.1,0.9-0.6,0.8-1.2s-0.6-0.9-1.2-0.8l-0.8,0.2l-0.2-0.8c-0.1-0.5-0.6-0.9-1.2-0.8c-0.5,0.1-0.9,0.6-0.8,1.2l0.2,0.8
						l-0.8,0.2c-0.5,0.1-0.9,0.6-0.8,1.2S1030.2,1715,1030.8,1714.9z"/>
				</g>
				<path fill="#F9F9F9" d="M1030.8,1714.9l0.8-0.2l1.6-2.3l-0.2-0.8c-0.1-0.5-0.6-0.9-1.2-0.8c-0.5,0.1-0.9,0.6-0.8,1.2l0.2,0.8
					l-0.8,0.2c-0.5,0.1-0.9,0.6-0.8,1.2S1030.2,1715,1030.8,1714.9z"/>
			</g>
			<rect y="1765.8" fill="#92D3F3" width="1197.7" height="64.4"/>
		</g>
	</g>
</g>
<g id="Layer_2">
</g>
</svg>
