<?xml version="1.0" encoding="utf-8"?>
<!-- Generator: Adobe Illustrator 23.0.4, SVG Export Plug-In . SVG Version: 6.00 Build 0)  -->
<svg version="1.1" xmlns="http://www.w3.org/2000/svg" xmlns:xlink="http://www.w3.org/1999/xlink" x="0px" y="0px" width="1200px"
	 height="1800px" viewBox="0 0 1200 1800" enable-background="new 0 0 1200 1800" xml:space="preserve">
<g id="Layer_1">
	<g>
		<defs>
			<rect id="SVGID_9_" x="1325.6" y="4.2" width="1200" height="1800"/>
		</defs>
		<clipPath id="SVGID_2_">
			<use xlink:href="#SVGID_9_"  overflow="visible"/>
		</clipPath>
		<g clip-path="url(#SVGID_2_)">
			<g>
				<path opacity="0.29" fill="#FFFFFF" d="M1197.1,444.5c1.8,24,17.2,43.3,34.6,52c37.4,18.9,86,9,125.3,9.2
					c29.6,0.1,59.1,0.3,88.7,0.4c22.4,0.1,56.1,8.5,74.2-13.8c17.7-21.7,7.4-64.1-14.1-79.1c-21.5-15-48-9.8-71.2-0.1
					c6.2-2.7,0.4-51.1-0.7-58.7c-11.8-83.5-127.4-84.2-135.1,2.1c-1.8,20.2,7.9,35.2,13.1,52.7c-12.5,2.3-20-13.1-30.8-19.7
					C1249.5,370.4,1192.8,386.8,1197.1,444.5z"/>
			</g>
		</g>
	</g>
	<g>
		<defs>
			<rect id="SVGID_11_" width="1200" height="1800"/>
		</defs>
		<clipPath id="SVGID_4_">
			<use xlink:href="#SVGID_11_"  overflow="visible"/>
		</clipPath>
		<g clip-path="url(#SVGID_4_)">
			<g>
				<g>
					<rect x="-8.2" y="-33.1" fill="#B5CFED" stroke="#1D1D1B" stroke-miterlimit="10" width="1227.7" height="1835.5"/>
					<polyline fill="none" stroke="#8DABC9" stroke-width="5" stroke-miterlimit="10" points="961.9,1733.2 64.1,1733.2 64.1,75.8 
						1141.5,75.8 1141.5,1733.2 					"/>
					<g>
						<path fill="#8FBC22" d="M317.7,1102.3c1.5,15.9,3.1,33.4,5.7,50.9c3.5,23.9,8.9,47.7,18,67.5c-13-3.8-26.4-7.7-39.9-6.9
							c-14.6,0.9-26.7,5.2-30.2,20.5c-2.6,11.4,2.4,22.9,0.8,34.4c-2.6,18-9.1,35.5-18.9,50.8c-30.8,47.7-100.9,69.7-151.5,41.4
							c-6.8-3.8-13.2-8.4-18.9-13.7c-3.8-3.5-7.4-7.3-10.6-11.4c-11.6-14.5-19.2-32.2-20.9-50.8c-2.7-30.5,9-67.2,41.8-75.5
							c9.8-2.5,20.5,1.6,27.4,8.7c4.1,4.3,12.8,17.9,4.9,21.5c-1.7-2.3-2.7-5.5-4.6-7.6c-4.8-5.2-10.8-8.3-18.4-7.3
							c-10,1.4-17.6,11.1-18.7,21.2c-1.1,10.1,3,20.1,9,28.3c7.4,10.1,17.9,18.1,30.1,20.9c20.6,4.7,36.2-9.8,40.3-29
							c4.3-20.3-7.4-40-8.5-60.3c-1.6-27.8,7.4-56,24.7-77.8C210.9,1088.2,274.8,1067.7,317.7,1102.3z"/>
						<path d="M201.7,1127.8c-0.2,0.1-0.5,0.1-0.7,0.1c-0.5,0.1-0.9,0.3-1.4,0.4C199.6,1128.4,201.3,1129,201.7,1127.8z"/>
						<path opacity="0.5" fill="#8FBC22" d="M323.4,1153.3c3.5,23.9,8.9,47.7,18,67.5c-13-3.8-26.4-7.7-39.9-6.9
							c-14.6,0.9-26.7,5.2-30.2,20.5c-2.6,11.4,2.4,22.9,0.8,34.4c-2.6,18-9.1,35.5-18.9,50.8c-30.8,47.7-100.9,69.7-151.5,41.4
							c-6.8-3.8-13.2-8.4-18.9-13.7c19.9,7.7,42.3,9.1,62.8,3.2c30.6-8.8,56.2-33.7,65.8-64.1c8.5-26.8,5.2-56.5,15.5-82.7
							C242.3,1164.6,285,1144.9,323.4,1153.3z"/>
						<path opacity="0.3" fill="#FFFFFF" d="M71.4,1321.6c4.6,6.2,10.2,11.5,17.5,14.3c1.9,0.7,3.9,1.3,6,1.1
							c6.6-0.8,6.8-8.6,3.5-12.8c-2.1-2.7-5-4.5-7.6-6.6c-9.1-7.4-14.8-18.8-15.3-30.5c-0.1-3.3,0.1-6.7-1.1-9.7
							c-3.3-7.9-9.1-2.4-11.9,2.6c-4.5,8-2.6,18.3,0.7,26.4C65.3,1311.8,68,1317,71.4,1321.6z"/>
						<g>
							<path opacity="0.5" fill="#8FBC22" d="M174.5,1155.3c0.5,2,2,3.7,4.6,4.4c12.5,3.4,13.4-20.8,1.2-16.1
								C176.1,1145.2,173.3,1151.1,174.5,1155.3z"/>
							<path opacity="0.5" fill="#8FBC22" d="M172,1295.3c0.5,2,2,3.7,4.6,4.4c12.5,3.4,13.4-20.8,1.2-16.1
								C173.7,1285.2,170.8,1291.1,172,1295.3z"/>
							<path opacity="0.5" fill="#8FBC22" d="M189.9,1164.6c1,2.8,3.9,4.7,6.8,4.6c2.9-0.1,5.7-2.3,6.6-5.1c0.8-2.4-0.4-7.5-2.8-8.8
								C194.8,1152.2,187.9,1158.6,189.9,1164.6z"/>
							<path opacity="0.5" fill="#8FBC22" d="M194.5,1281.8c1,2.8,3.9,4.7,6.8,4.6c2.9-0.1,5.7-2.3,6.6-5.1c0.8-2.4-0.4-7.5-2.8-8.8
								C199.4,1269.4,192.5,1275.9,194.5,1281.8z"/>
							<path opacity="0.5" fill="#8FBC22" d="M185.8,1170.9c1.1-3.6-4-5.6-6.3-2.8C176.6,1171.7,183.9,1177.1,185.8,1170.9z"/>
							<path opacity="0.5" fill="#8FBC22" d="M197.7,1302.2c1.1-3.6-4-5.6-6.3-2.8C188.5,1303,195.7,1308.5,197.7,1302.2z"/>
							<path opacity="0.5" fill="#8FBC22" d="M212.2,1227c2-6.4-7.2-10.1-11.2-5.1C195.7,1228.4,208.7,1238.2,212.2,1227z"/>
							<path opacity="0.5" fill="#8FBC22" d="M214.9,1215.8c1.1-3.6-4-5.6-6.3-2.8C205.7,1216.6,213,1222,214.9,1215.8z"/>
							<path opacity="0.5" fill="#8FBC22" d="M144.7,1332.8c-5.6,3.8-0.7,12.4,5.6,11C158.6,1341.9,154.4,1326.2,144.7,1332.8z"/>
							<path opacity="0.5" fill="#8FBC22" d="M135.6,1339.8c-3.1,2.1-0.4,6.9,3.2,6.1C143.3,1344.9,141,1336.1,135.6,1339.8z"/>
						</g>
					</g>
					<g>
						<path fill="#8FBC22" d="M343.7,1773c-12.8,15.4-30.3,21.4-48.3,24.1c-7,1-14,1.6-20.9,2c-8,0.5-16,0.9-24,1.3
							c-35.6,1.6-71.2,2.1-106.8,1.4c-19.5-0.4-42.5,1.8-64.1-0.2c-5.6-0.5-11.2-1.4-16.6-2.7c-4.9-1.2-9.7-2.7-14.2-4.6
							c-59.9-25.9-80.2-144.8-3.2-159.7c24.1-4.7,49.1,9.2,64.7,32.6c-13.4-35.4-6.2-82.6,18-108.5c28.5-30.5,74.9-28.8,103.4,1.7
							c28.5,30.5,37.4,85.2,22.8,128.4c17.5-32.7,57.8-42.4,83.1-19C362.8,1693,366.4,1745.6,343.7,1773z"/>
						<path opacity="0.5" fill="#8FBC22" d="M295.4,1797c-7,1-14,1.6-20.9,2c-43.6,2.6-87.2,3.5-130.9,2.6
							c-24.7-0.5-54.8,3.2-80.6-2.9c-1.6-1.6-3-3.4-4.5-5.1c-12.6-15.5-21-35.2-19.3-56.8c1.8-22.5,22.6-36.2,40.5-33.5
							c17.9,2.6,33.3,16.7,47.7,30.4c-10.3-19.5-9.6-46.4-0.2-66.6c9.4-20.2,26.6-33.8,44.9-38.6c17.8-4.7,38.4-0.5,50.5,16.5
							c16.4,23,11.7,58.4,5.9,88.4c13.7-25.3,46.5-29.6,64.2-8.4C307.9,1743.4,308.4,1776.7,295.4,1797z"/>
						<path opacity="0.5" fill="#8FBC22" d="M266.4,1790.1c-2.2,3.8-5.9,5.8-9.4,7.4c-2.2,1-4.3,1.9-6.5,2.8
							c-35.6,1.6-71.2,2.1-106.8,1.4c-19.5-0.4-42.5,1.8-64.1-0.2c-5.2-3.3-9.3-8.3-9.8-15.8c-0.7-11.1,9.1-18.4,17.8-20.7
							c13.5-3.6,28-1.9,40.7,4.9c5.3,2.9,10.5,6.6,16.3,7.4c5.8,0.8,12.5-2.4,14.2-9.4c2-8.1-3.4-15.7-5.7-23.6
							c-3.5-12.1,1.1-26.6,9.7-33.4c8.7-6.9,20.5-6.1,29.1,0.8c8.6,6.9,14,19.4,14.8,32.2c0.3,5.3,0,10.6,1,15.7
							c1.1,5.1,4.1,10.1,8.3,10.7c3.8,0.5,7.2-2.5,10.5-4.8c8.8-6,19.8-6.8,29.1-2.1c4.3,2.1,8.3,5.5,10.7,10.4
							C268.7,1778.7,269,1785.4,266.4,1790.1z"/>
					</g>
					<g>
						<path fill="#8FBC22" d="M1190.2,1772.2c-14.5,15.8-34.4,22-54.9,24.7c-7.9,1.1-16,1.6-23.8,2c-9.1,0.5-18.2,0.9-27.3,1.3
							c-40.4,1.6-80.9,2.1-121.4,1.4c-22.2-0.4-48.3,1.9-72.8-0.3c-6.4-0.6-12.7-1.4-18.8-2.7c-5.6-1.2-11-2.7-16.2-4.8
							c-68-26.6-91.1-148.5-3.6-163.9c27.4-4.8,55.8,9.4,73.5,33.4c-15.3-36.3-7.1-84.7,20.4-111.3c32.3-31.3,85.1-29.6,117.4,1.7
							c32.4,31.3,42.4,87.4,25.9,131.7c19.9-33.5,65.7-43.5,94.4-19.5C1211.8,1690.1,1215.9,1744.2,1190.2,1772.2z"/>
						<path opacity="0.5" fill="#8FBC22" d="M1135.3,1796.9c-7.9,1.1-16,1.6-23.8,2c-49.5,2.7-99.1,3.6-148.7,2.7
							c-28-0.5-62.3,3.3-91.6-3c-1.8-1.7-3.5-3.4-5.1-5.3c-14.4-15.9-23.8-36.1-21.9-58.2c2-23,25.7-37.1,46-34.4
							c20.4,2.7,37.8,17.2,54.2,31.2c-11.7-20-10.9-47.6-0.2-68.3c10.7-20.7,30.2-34.7,51-39.6c20.3-4.8,43.6-0.5,57.3,16.9
							c18.6,23.6,13.3,60,6.7,90.7c15.6-26,52.9-30.4,72.9-8.7C1149.5,1741.8,1150,1776,1135.3,1796.9z"/>
						<path opacity="0.5" fill="#8FBC22" d="M1102.3,1789.7c-2.5,3.9-6.6,5.9-10.7,7.6c-2.5,1-4.9,2-7.4,2.9
							c-40.4,1.6-80.9,2.1-121.4,1.4c-22.2-0.4-48.3,1.9-72.8-0.3c-5.9-3.4-10.6-8.5-11.1-16.2c-0.8-11.3,10.4-18.8,20.3-21.2
							c15.4-3.7,31.8-1.9,46.2,5c6.1,2.9,12,6.8,18.5,7.6c6.6,0.8,14.2-2.5,16.1-9.6c2.2-8.3-3.9-16.1-6.5-24.2
							c-4-12.4,1.2-27.3,11.1-34.3c9.8-7,23.3-6.3,33.1,0.8c9.8,7.1,15.9,19.9,16.8,33.1c0.4,5.4,0,10.9,1.2,16.1
							c1.2,5.2,4.6,10.3,9.4,10.9c4.3,0.5,8.2-2.6,11.9-4.9c10-6.1,22.5-6.9,33-2.2c4.9,2.2,9.5,5.6,12.1,10.7
							C1104.9,1778.1,1105.3,1784.9,1102.3,1789.7z"/>
					</g>
					<g>
						<path fill="#D69980" d="M1073.4,765.3c-0.6,14.7-1.5,29-6.9,42.2c-11.6,27.9-34.6,48.4-65.7,47.9c-11.1-0.2-22.2-0.7-33.4-1.3
							c-9-0.4-17.8,0.4-26.5,2.8c-6,1.6-12.4,0.6-18.3,3c-1.2,0.5-2.5,0.2-3.1-1.3c-0.4-1.2-0.2-2.4,0.9-3c1.4-0.7,1.5-1.9,1.7-3.1
							c2.1-11.7,5.6-23.1,10.3-34c6.5-14.9,10.8-31,19.8-44.7c4.6-7,7.7-14.7,11.6-22.1c9.1-17,23.7-26.4,41.3-30.9
							c18.2-4.6,36.2-2,53.8,3.9c4.7,1.6,6.8,6.4,8.8,10.7C1072.4,745,1072.9,755.4,1073.4,765.3z"/>
						<path fill="#ECC8AE" d="M939.7,861.5c-5.1,0-10.3,0.1-15.4,0c-5.1-0.1-5.6-1-4.1-5.8c0.1-0.4,0.2-0.7,0.1-1.1
							c-0.5-13.7,4.6-26,9.2-38.4c4.7-12.8,9.2-25.6,16.1-37.4c0.1-0.2,0.3-0.5,0.3-0.7c0-5.9,4.2-5.3,7.8-5.5
							c10.7-0.6,21.5-1.4,32.2-1.6c10.3-0.1,20.6,0.2,30.6,3.1c11.5,3.3,16,11.6,12.5,23.5c-1.8,6.3-4.8,11.9-10.1,15.9
							c-2.8,2.1-5.9,3-9.2,3.2c-1.8,0.1-3.3-0.6-3.5-2.6c-0.3-1.9,1-2.9,2.7-3.4c5.3-1.6,9.8-7.6,9.4-12.5
							c-0.4-4.8-6.3-10.5-11.6-11.1c-23-2.4-34.2,35.1-15.8,48.1c13.3,9.4,30.4,13,46.2,9.6c-5.1,5.6-12.6,6.8-19.4,8.7
							c-10.8,3-21.8,5.1-32.8,6.5c-15,1.8-30.1,1.5-45.1,1.5C939.7,861.4,939.7,861.5,939.7,861.5z"/>
						<path fill="#FDEEE7" d="M1062.8,729.6c-0.9,0.6-2.2,0.6-2.6-0.4c-1-2.1-2.8-2.7-4.6-3.3c-0.5-0.2-1-0.3-1.4-0.5
							c-8.2-3.4-16.5-6.4-25.4-6.8c-14.1-0.7-26.3,4.7-37.8,12.4c-18.9,12.7-32.3,30.4-42.8,50.7c-3.9,7.6-7.6,15.4-10.9,23.2
							c-0.4,0.9-0.8,1.8-1.1,2.7c-0.6,1.4-1.1,2.8-1.7,4.1c-3.2,8.1-6.1,16.3-8.7,24.6c-0.1,0.3-0.2,0.6-0.3,0.9
							c-4.5,14.5-7.9,29.3-10.4,44.5c-3.2,19.7-4.5,39.5-6.5,59.2c-0.3,2.5,0,5.1-2.2,7c-0.9,0.7-0.2,1.9-0.1,2.9
							c0.9,11.9,2.5,23.6,4.3,35.3c2.2,14.4,4.8,28.8,7.1,43.2c8.1,51.7,22.7,101.8,36.1,152.1c10,37.6,20,74.8,28.3,112.8
							c2.9,13.3,6,22.8,0.3,36.8c-0.6,1.4-1.2,2.8-1.9,4.1c-1.9,3.7-5.1,6-9.3,6.7c-9.8,1.7-19.5,3.4-29.3,5.3
							c-5.9,1.1-10.9,3.9-15.5,7.9c-1.2,1.1-2.3,2.2-3.5,3.3c-0.9,1-1.8,2-2.7,3c1.4,0,2.8,0,4.2-0.1c10.1-0.4,19.3-2.1,28.5-4.7
							c0.5-0.1,0.9-0.3,1.4-0.4c1.4-0.5,2.8-1,4.2-1.3c3.1-0.7,6.4-1,8.6,1.7c4.3,5.6,10.2,6.4,16.4,7c3.8,0.4,7.6,0.7,10.9,2.8
							c0.2,0.1,0.5,0.4,0.6,0.4c1.8-0.6,2.9-0.7,3.8-0.3c1.9,0.9,1.8,3.9,2.3,6.3c0.1,0.7,0.3,1.4,0.4,2c2.1,11.3,2.7,22.8,3.4,34.2
							c0.9,13.3,1,26.6,0.5,39.9c-1,27.1-4.4,53.5-12.2,78.8c-4.4,14.2-10.1,28.1-17.5,41.4c-0.7,1.3-1.4,2.5-2.1,3.8
							c-0.1,0.1-0.1,0.2-0.2,0.3c-2.3,4-4.7,8-7.3,11.8c-13.6,20.9-30,39.3-49.4,54.8c-8,6.4-17.8,10.9-27.6,14.5
							c-14.2,5.3-28.6,9.5-43.9,9.1c-7.3-0.2-14.2-1.4-20.6-3.5c-11.6-3.8-21.7-10.8-30.6-20.7c-3.5-3.9-6.8-8-8.9-12.9
							c-0.6-1.3-1.2-2.6-0.2-4c0.9-1.2,2.1-0.4,3.3-0.6c3.5-0.3,7-1,10.4-1.6c0.7-0.1,1.5-0.3,2.2-0.4c14-2.2,28-4.6,42.1-6.5
							c15.3-2.2,24.2-11.4,29.4-25.1c5.2-13.8,7.1-27.8,0.8-42.1c-0.4-0.9-0.8-1.7-1.2-2.5c-2.5-4.7-5.8-8.5-10.6-11
							c-8.9-4.6-17.9-8.1-28.1-5.8c-10.1,2.3-19.4,6.2-28.4,11.5c-11.9,7-24.1,13.4-36.3,19.9c-24.3,13-50.4,19.6-77.2,24.2
							c-27.2,4.6-54.8,5.3-82.2,7.3c-22.9,1.7-45.9,3.3-68.9,3.5c-27.3,0.3-54.6,0.9-81.8-1.8c-10.6-1-21.3-0.8-31.9-1.3
							c-35-1.7-69.7-5.8-103.6-15.5c-5.2-1.5-10.5-2.9-15.7-4.4c-7.2-2.1-14.4-4.5-21.3-7.5c-1.1-0.5-2.4-0.9-3.3-1.6
							c-5-4-4.6-5.5-0.7-8.6c4.8-3.8,8.5-8.7,11.7-14.1c13.7-23.3,23.8-48,25.1-75.7c0.6-11.9,0.2-23.8-0.3-35.7
							c-1.1-23.4-2.3-46.8-3.2-70.2c-1.6-38.2-8.3-75.3-19.8-111.7c-14.3-45.2-25.7-91.4-36-137.8c-7.8-35-14-70.3-17.5-106
							c-2.1-21.1-3.5-42.4-4-63.6c-0.3-10.6-0.4-21.2-0.2-31.9c0.1-10,1.8-19.1,2.9-28.9c0.7-6,4-10.1,9.3-12.6
							c7.9-3.7,16.2-6.4,24.8-8c0.4-0.1,0.8-0.2,2.4-0.6c-7-2.7-12.9-5.2-19.5-5.3c-2.6-0.1-5.2-0.1-7.7-0.6
							c-4.4-0.9-5.6-3.2-4.8-7.7c0.8-4.3,2.2-8.5,3.2-12.8c1.2-5.6,0.2-9.5,0-15c-0.5-13,24.5-7.1,30.1-3.2c5.8,4,11.1,5.4,17.7,2.1
							c3.4-1.7,7.5-2.3,12.5-2.8c-5-2.5-9.2-4-13.5-5.2c-10.5-3.1-20.8-6.6-29.6-13.6c-3.6-2.8-6.3-6.6-7.7-11
							c-1.8-5.9,0.9-10.5,3.4-15.6c2.3-4.8,4.9-9.4,7.6-14c5.1-8.6,10.9-16.9,17.2-24.6c12.2-14.9,26.3-28.2,41.7-39.6
							c13.7-10.1,28.8-16.8,44.7-22.4c4.8-1.7,9.7-3.5,14.5-4.9c4.1-1.2,8.2-2,12.4-2.3c17.8-1.1,35.6-0.6,53.5,2
							c25.4,3.7,49.2,13.1,73.4,20.9c13,4.2,26.2,6,39.5,7.9c27.5,3.9,55.1,7.8,82.8,9.4c15.5,0.9,31.1,0.3,46.6-0.6
							c7.8-0.5,15.7,0,23.5,0.1c25.8,0.4,51.6-0.1,77.2-4.6c6.4-1.1,12.8-1.8,19.3-2.2c26.4-1.9,52.7-5.6,79-9.1
							c24.2-3.3,48.5-3.7,72.9-2.4c19.7,1.1,38.9,4.5,57.1,12.4c9.6,4.2,18.3,9.6,25.7,16.7c0.4,0.4,0.9,0.8,1.3,1.3
							c3.4,3.4,6.5,7.1,9.3,11.3c0.2,0.4,0.5,0.7,0.7,1.1c1.2,1.7,2.2,3.5,2.5,5.7C1063.8,727.9,1063.7,729,1062.8,729.6z"/>
						<path opacity="0.6" fill="#FCE6DB" d="M1063.7,726.9c-0.2-2.2-1.3-3.9-2.5-5.7c-0.2-0.4-0.5-0.7-0.7-1.1
							c-2.8-4.2-5.9-7.9-9.3-11.3c-0.4-0.4-0.9-0.9-1.3-1.3c-0.2,0-0.3,0.1-0.5,0.1c-3.5,0.6-9.7-3-13.3-3.8
							c-9.2-2.1-18.7-2.6-28.1-2.2c-15.5,0.6-29.5,6.4-42.7,14.7c-20.3,12.7-38.1,28.8-56.1,44.7c-18.3,16.3-30.9,36.1-36.4,60.5
							c-6.1,27.5-17.2,52.4-34.6,74.2c-5.2,6.6-9.9,13.7-12,22c-5.5,21.3-4.7,42.2,4.9,62.2c11.8,24.9,23.3,49.9,31.1,76.5
							c5.4,18.5,11,37,17.8,55c7.9,20.8,13.2,42.4,17.7,64.2c5.2,25.5,7.9,51.3,9,77.3c1,21.3-1.7,42-9.4,61.8
							c-5,12.9-12,24.6-19.1,36.3c-4.9,8.1-9.6,16.4-10.9,25.9c-3.9,29.6,5,55,25.9,75.2c12.7,12.2,15.1,26.1,10.4,42.1
							c-4.6,15.7-14.4,28.4-24.4,40.8c-2.3,2.9-4.8,5.6-7.3,8.3c-10,10.5-21.4,19.6-32.8,28.4c-11.7,9.1-23.3,18.2-32.4,30.2
							c-4.2,5.5-7.1,11.4-8,18c-0.3,2.2-0.4,4.5-0.2,6.9c0.2,2.4-1.2,2.2-2.7,2.5c-1.6,0.3-3.2,0.6-4.7,0.9
							c8.8,13.5,20.5,23.2,33.7,29.5c6.4,2.2,13.3,3.3,20.6,3.5c15.3,0.4,29.7-3.9,43.9-9.1c9.8-3.6,19.6-8.2,27.6-14.5
							c19.4-15.5,35.8-33.9,49.4-54.8c2.5-3.9,4.9-7.8,7.3-11.8c0.1-0.1,0.1-0.2,0.2-0.3c0.7-1.2,1.4-2.5,2.1-3.8
							c7.4-13.4,13.1-27.2,17.5-41.4c7.8-25.3,11.2-51.8,12.2-78.8c0.5-13.3,0.3-26.6-0.5-39.9c-0.8-11.4-1.3-22.9-3.4-34.2
							c-0.8-2.8-1.7-5.6-2.7-8.3c-0.8-0.4-2-0.4-3.8,0.3c-0.1,0.1-0.4-0.2-0.6-0.4c-3.4-2.1-7.1-2.4-10.9-2.8
							c-6.1-0.6-12.1-1.4-16.4-7c-2.1-2.8-5.5-2.4-8.6-1.7c-1.4,0.3-2.8,0.8-4.2,1.3c-0.5,0.2-0.9,0.3-1.4,0.4
							c-9.1,2.6-19,4.8-28.5,4.7c-1.2,0-2.4-0.1-3.7-0.1c0.7-1,1.4-1.9,2-2.7c1.2-1.4,2.3-2.5,3.5-3.4c4.6-4.1,9.6-6.9,15.6-8
							c9.7-1.9,19.5-3.6,29.3-5.3c4.2-0.7,7.3-3,9.3-6.7c0.7-1.4,1.3-2.7,1.9-4.1c5.8-13.9,2.6-23.5-0.3-36.8
							c-8.3-38-18.3-75.3-28.3-112.8c-13.4-50.3-28-100.4-36.1-152.1c-2.3-14.4-4.9-28.8-7.1-43.2c-1.8-11.7-3.4-23.5-4.3-35.3
							c-0.1-1-0.7-2.2,0.1-2.9c2.2-1.9,1.9-4.5,2.2-7c2-19.8,3.3-39.6,6.5-59.2c2.5-15.2,6-30,10.4-44.5c0.1-0.3,0.2-0.6,0.3-0.9
							c2.5-8.2,5.4-16.4,8.7-24.6c0.6-1.4,1.1-2.8,1.7-4.1c0.4-0.9,0.8-1.8,1.1-2.7c3.3-7.8,7-15.6,10.9-23.2
							c10.5-20.3,23.9-38,42.8-50.7c11.5-7.7,23.7-13.1,37.8-12.4c8.9,0.4,17.2,3.5,25.4,6.8c0.5,0.2,0.9,0.4,1.4,0.5
							c1.8,0.6,3.6,1.1,4.6,3.3c0.4,0.9,1.7,0.9,2.6,0.4C1063.7,729,1063.8,727.9,1063.7,726.9z"/>
						<path opacity="0.6" fill="#FCE6DB" d="M384.2,668c-5,7-11.7,11.8-18.7,16.4c-10.4,6.9-21.4,12.9-30.9,21.2
							c-17.3,15-25.1,34.5-24.3,57.7c0.3,8.1,4,12.5,11.6,14.5c6,1.6,12.1,3,18.2,4.6c3.7,1,7.1,2.7,10.3,4.9
							c7.8,5.7,9.5,15.1,4.5,23.4c-3.8,6.3-9.6,10.4-15.4,14.4c-4.3,3-8.5,6-12.6,9.2c-0.9,0.7-2.4,1.4-2.1,2.7
							c0.3,1.2,1.9,0.9,2.9,1.2c1.2,0.4,2.4,0.6,3.6,0.9c11.2,2.1,11,11.6,6.6,18c-4.4,6.4-10.2,11.2-16.9,15
							c-7.8,4.4-15.7,8.7-23.6,13.2c-7.1,4-14.1,8.1-19.4,14.7c-8.1,10.2-13.2,21.5-13,35c0.5,33.5,2.6,66.8,7.6,100
							c3.8,25.4,10.9,49.8,18.7,74.1c1.6,5.1,4.1,9.8,6.7,14.3c11.9,20.8,26.3,39.7,41.1,58.3c12.9,16.2,25.8,32.5,34.8,51.6
							c5.6,11.8,6.3,23.3,1.5,35.5c-5.3,13.4-12.2,26-17.7,39.2c-4.2,10.1-8,20.2-6.7,31.5c1.1,9.3,3.1,18.5,6.1,27.3
							c5.6,16.6,10.9,33.2,15.2,50.3c5.2,20.9,4.1,41.3-2.2,61.7c-6.4,20.7-13.8,41-27.4,57.9c-10.3,12.9-22.1,24.1-35.3,33.3
							c-7.2-2.1-14.4-4.5-21.3-7.5c-1.1-0.5-2.4-0.9-3.3-1.6c-5-4-4.6-5.5-0.7-8.6c4.8-3.8,8.5-8.7,11.7-14.1
							c13.7-23.3,23.8-48,25.1-75.7c0.6-11.9,0.2-23.8-0.3-35.7c-1.1-23.4-2.3-46.8-3.2-70.2c-1.6-38.2-8.3-75.3-19.8-111.7
							c-14.3-45.2-25.7-91.4-36-137.8c-7.8-35-14-70.3-17.5-106c-2.9-29.4-5.2-58.8-4.2-88.4c0.2-4.9-1.8-10.1,1-14.9
							c-2.6-7.3,1.1-14.1,1.9-21.1c0.7-6,4-10.1,9.3-12.6c7.9-3.7,16.2-6.4,24.8-8c0.4-0.1,0.8-0.2,2.4-0.6
							c-7-2.7-12.9-5.2-19.5-5.3c-2.6-0.1-5.2-0.1-7.7-0.6c-4.4-0.9-5.6-3.2-4.8-7.7c1.3-6.8,2.7-13.7,3.9-20.5
							c0.4-2.1,0.7-4-0.7-6.1c-1.6-2.3,1.5-6.8,5.3-7.6c8.6-1.8,17.3-2,24.8,3.2c5.8,4,11.1,5.4,17.7,2.1c3.4-1.7,7.5-2.3,12.5-2.8
							c-5-2.5-9.2-4-13.5-5.2c-10.5-3.1-20.8-6.6-29.6-13.6c-2-1.5-3.9-3.1-5.4-5.1c-1.7-2.4,0.3-6.5-3.4-8.3
							c-0.8-0.4,0-2.9,0.4-4.3c1.1-3.9,2.5-7.7,4.5-11.2c16.6-30.4,38.7-55.6,66.1-75.9c13.7-10.1,28.8-16.8,44.7-22.4
							c4.8-1.7,9.7-3.5,14.5-4.9C387.5,662.5,386.1,665.4,384.2,668z"/>
						<path fill="#D69980" d="M881.5,1578.3c-1.1,19.3-11.7,31.5-29.9,36.2c-3.9,1-7.8,1.9-11.6,2.7c-9.6,2-19.3,3.6-29,5.7
							c-5.3,1.1-10.5,2.5-14.9,2.4c-4.2,0.1-7.6-0.4-10.1-1.6c-4.8-2.3-6.9-7-6.7-14.5c0-1.6,0.2-3.2,0.3-4.7c1-8.3,4.1-16,6.9-23.7
							c1.6-4.3,3.3-8.4,5.2-12.4c6.5-13.8,15.1-26.2,26.6-36.5c7.9-7.1,17.1-10,27.3-10.2c4.3-0.1,8.1,1.3,11.7,3.8
							C875.8,1537.8,882.7,1556.2,881.5,1578.3z"/>
						<path fill="#ECC8AE" d="M840.9,1584c-8.9,0.9-12.9,3.7-14.5,10.3c-1.3,5.5,0.7,11.8,4.1,16.2c1.4,1.8,3.8,4.4,5.7,5.5
							c0.5,0.3,2.3,0.7,3.7,1.2c-9.6,2-19.3,3.6-29,5.7c-5.3,1.1-10.5,2.5-14.9,2.4c-4.2,0.1-7.6-0.4-10.1-1.6
							c-4-6.1-6-12.6-6.4-19.2c-0.4-6.7,0.9-13.6,3.4-20.7c1.3-3.8,3.2-7.4,5-11c1-1.9,2.3-3.4,3.8-4.6c1.9-1.4,4.2-2.2,6.9-2.4
							c10-0.7,20-1,30,0.8c6.8,1.2,12,4.9,15.8,10.7C846.9,1581.2,845.5,1583.6,840.9,1584z"/>
						<path fill="#F8E7DE" d="M845.6,1662.8c0,0.1,0.1,0.2,0.1,0.3c0,0.3-0.2,0.6-0.5,0.9c-4.5,4.9-9.7,4.6-15.6,4.3
							c-13.2,0.5-26.9,4.7-40.7,7.5c-31.5,6.4-62.8,14.4-94.7,18.4c-14.1,1.7-28.2,3.1-42.4,3.2c-33.1,0.1-66,2.5-98.9,5.6
							c-32.8,3.1-65.7,3.6-98.7,3.1c-21-0.3-42-2-63-3.1c-12.2-0.6-24.5-0.8-36.7-0.9c-32.6-0.4-65-2.4-97.4-5.6
							c-18.9-1.9-37.8-2.8-56.6-5.1c-9.1-1.1-18.3-1.7-27.3-3.7c-2.1-0.5-3.6-1.3-5.1-3.2c-9.8-12.2-14.2-26.6-16.9-41.5
							c-0.5-2.9-1-5.8-1.4-8.7c-1.5-10.7,1.7-13.4,12.1-12.5c3.5,0.3,6.9,1.7,10.5,1.4c0.9-0.1,2.5,1,2.7-0.8
							c0.1-1.8-1.5-0.4-2.2-0.9c-1.5-1.1-3.2-1.8-4.7-2.9c-3.9-3.1-8-6-11.4-9.6c-2.8-2.9-7.1-4.5-8.2-8.5c-1.1-4.4,0.3-10.8,1.7-15
							c7.7-21.6,18.2-41.5,33.1-58.7c3.7-4.3,10.4-12.1,16.7-6.7c12.5,10.9,27.2,17.9,42.2,24.1c30.8,12.7,62.9,20.5,95.4,26.5
							c35.7,6.6,71.7,10.8,107.8,13.1c28.2,1.9,56.5,3,84.7,2.7c55.6-0.6,111-4.4,165.9-14.3c23.5-4.2,46.9-9.4,69.7-16.8
							c8-2.6,15.2-6.9,22.9-10.2c12.9-5.5,24.9-12.8,37.3-19.5c-3.5,4-7,7.9-10.5,12c-16.7,19.1-29,42.3-34.2,67.6
							c-0.7,3.3-0.5,6.3,1,9.8c2.5,5.7,5.5,10.7,9,15.2c0.2,0.3,0.4,0.5,0.6,0.8c8.2,10.1,18.8,17.6,30.3,24.2
							c6.3,3.6,14.5,6.6,21.8,6.6c0.4,0,0.8,0,1.2,0.1C845.3,1662.3,845.5,1662.5,845.6,1662.8z"/>
						<path fill="#F0CBB0" d="M846.2,1662.8c0.1,2.5-5.4,4-7.2,4.5c-3,0.8-6.2,1.1-9.4,0.9c-13.2,0.5-26.9,4.7-40.7,7.5
							c-31.5,6.4-62.8,14.4-94.7,18.4c-14.1,1.7-28.2,3.1-42.4,3.2c-33.1,0.1-66,2.5-98.9,5.6c-32.8,3.1-65.7,3.6-98.7,3.1
							c-21-0.3-42-2-63-3.1c-12.2-0.6-24.5-0.8-36.7-0.9c-32.6-0.4-65-2.4-97.4-5.6c-18.9-1.9-37.8-2.8-56.6-5.1
							c-9.1-1.1-18.3-1.7-27.3-3.7c-2.1-0.5-3.6-1.3-5.1-3.2c-9.8-12.2-14.2-26.6-16.9-41.5c5.3-0.5,10.5,0.9,15.8,1.5
							c20.3,2.4,39.3,10.1,58.7,16c17.2,5.2,34.4,9.7,52.4,10.5c13.5,0.6,26.4-2.9,39.5-5.8c22.4-5,45-7.3,67.8-4.4
							c12.9,1.7,25.3,5.8,37.9,8.7c34.2,8,67.9,6.9,101.4-4.3c21.3-7.1,42.9-13.2,65.2-16.1c19.1-2.5,38.4-2.2,57.6-2
							c34.2,0.4,68.2,0.8,101.8-8.2c13.8-3.7,27.9-5.8,42-8.3c0.3,0.3,0.5,0.5,0.6,0.8c13.3,19.8,32.2,28,53,31.3
							C845.2,1662.6,845.7,1662.7,846.2,1662.8z"/>
					</g>
					<path fill="#FFFFFF" d="M82.1,225.8c1,13.2,9.5,23.9,19.1,28.8c20.7,10.4,47.6,5,69.3,5.1c16.3,0.1,32.7,0.1,49,0.2
						c12.4,0.1,31,4.7,41-7.6c9.8-12,4.1-35.4-7.8-43.7c-11.9-8.3-26.5-5.4-39.3,0c3.4-1.5,0.2-28.2-0.4-32.5
						c-6.5-46.1-70.4-46.6-74.7,1.2c-1,11.2,4.4,19.5,7.3,29.1c-6.9,1.2-11-7.2-17-10.9C111.1,184.8,79.7,193.9,82.1,225.8z"/>
					<path fill="#FFFFFF" d="M35.6,46.8C29.7,51.7,25.3,59.3,24,69.6c-8,63.7,85.9,45.2,110.7,44.9c10-0.1,20.3-0.3,29.7-4.8
						c12.4-6,22.6-20.3,24.7-37.3c2.1-16.9-4.8-35.6-17-42.5c-12.2-6.9-28.4,0.3-33.6,16c-1-20.6-3.1-44.1-16.3-55.7
						c-11.9-10.5-29.7-5.8-38.9,8.6c-9,14.2-8,32.4-5.8,49.3C66.1,37.8,47.7,36.8,35.6,46.8z"/>
					<path opacity="0.22" fill="#FFFFFF" d="M1056.5,346.2c-8.6,7.1-15,18.1-16.9,33.2c-11.7,92.8,125.1,65.8,161.3,65.4
						c14.6-0.2,29.5-0.4,43.2-7.1c18.1-8.7,32.9-29.6,36-54.3c3.1-24.7-7-51.8-24.7-61.9c-17.7-10-41.3,0.4-48.9,23.3
						c-1.4-29.9-4.6-64.2-23.7-81.1c-17.3-15.4-43.3-8.5-56.6,12.5c-13.2,20.6-11.6,47.1-8.4,71.7
						C1100.9,333,1074.1,331.6,1056.5,346.2z"/>
					<path fill="#FFFFFF" d="M959.2,395.3c-4.9,4.5-8.6,11.4-9.7,20.9c-6.7,58.3,71.5,41.4,92.1,41.1c8.3-0.1,16.9-0.3,24.7-4.4
						c10.3-5.5,18.8-18.6,20.6-34.1c1.8-15.5-4-32.6-14.1-38.9c-10.1-6.3-23.6,0.2-27.9,14.7c-0.8-18.8-2.6-40.3-13.5-51
						c-9.9-9.7-24.7-5.3-32.4,7.8c-7.5,13-6.6,29.6-4.8,45.1C984.6,387,969.2,386.2,959.2,395.3z"/>
					<path fill="#FFFFFF" d="M160.7,416c-3,2.5-5.2,6.2-5.8,11.5c-4,32,43.2,22.7,55.7,22.6c5-0.1,10.2-0.2,14.9-2.4
						c6.2-3,11.4-10.2,12.4-18.7c1.1-8.5-2.4-17.9-8.5-21.4c-6.1-3.5-14.3,0.1-16.9,8.1c-0.5-10.3-1.6-22.1-8.2-28
						c-6-5.3-14.9-2.9-19.5,4.3c-4.5,7.1-4,16.3-2.9,24.8C176.1,411.5,166.8,411,160.7,416z"/>
					<path fill="#FFFFFF" d="M1014.3,77.3c1,13.2,9.5,23.9,19.1,28.8c20.7,10.4,47.6,5,69.3,5.1c16.3,0.1,32.7,0.1,49,0.2
						c12.4,0.1,31,4.7,41-7.6c9.8-12,4.1-35.4-7.8-43.7c-11.9-8.3-26.5-5.4-39.3,0c3.4-1.5,0.2-28.2-0.4-32.5
						c-6.5-46.1-70.4-46.6-74.7,1.2c-1,11.2,4.4,19.5,7.3,29.1c-6.9,1.2-11-7.2-17-10.9C1043.3,36.3,1011.9,45.4,1014.3,77.3z"/>
					<path fill="#FFFFFF" d="M88,610.5c-3,2.5-5.2,6.2-5.8,11.5c-4,32,43.2,22.7,55.7,22.6c5-0.1,10.2-0.2,14.9-2.4
						c6.2-3,11.4-10.2,12.4-18.7c1.1-8.5-2.4-17.9-8.5-21.4c-6.1-3.5-14.3,0.1-16.9,8.1c-0.5-10.3-1.6-22.1-8.2-28
						c-6-5.3-14.9-2.9-19.5,4.3c-4.5,7.1-4,16.3-2.9,24.8C103.4,606,94.1,605.5,88,610.5z"/>
					<g>
						<text transform="matrix(1 0 0 1 460.6543 338.6397)"><tspan x="0" y="0" fill="#F48B88" font-family="'MyriadPro-Regular'" font-size="71.82px" letter-spacing="-2">F</tspan><tspan x="32.8" y="0" fill="#F48B88" font-family="'MyriadPro-Regular'" font-size="71.82px">e</tspan><tspan x="68.7" y="0" fill="#F48B88" font-family="'MyriadPro-Regular'" font-size="71.82px">r</tspan><tspan x="92.5" y="0" fill="#F48B88" font-family="'MyriadPro-Regular'" font-size="71.82px">nanda</tspan></text>
					</g>
					<text transform="matrix(1 0 0 1 514.9146 190.5117)" fill="#F7F5FA" font-family="'MyriadPro-Regular'" font-size="53.865px">10 anos</text>
				</g>
				<g>
					<g>
						<path fill="#FCCB17" d="M877.9,1019c-6.6,6.3-4.7,17.5-8.6,25.7c-3.2,6.6-10.1,10.2-17.4,9.9c-4.1-0.2-16.7-1.9-17-7.7
							c0.9,17.2,8.3,30.4,26.5,33.9c16.6,3.1,26.1-5.2,35.4-17.7c2.3-3,5.2-6.2,8.6-8.2c1.8-1.1,3.8-2,5.9-2.5
							c2.1-0.5,5.6,0.5,7.3-0.1c3.9-1.5,1.3-12.9-0.3-16.7c-2.2-5.1-5.9-9.6-10.1-13.2C899.9,1015.1,887,1010.2,877.9,1019z"/>
						<path fill="#FCCB17" d="M835.7,1019.9c-7.6-2.1-16.9-2.3-22.3,3.6c-4.5,4.9-5.3,13.1-11.3,15.8c5.7-3.5,12.9-0.1,19.2,1.8
							c16.2,4.8,35.2-2.1,44.5-16.2c-3.5-3.1-9.5-0.2-13.8-0.5C846.6,1024.1,841,1021.4,835.7,1019.9z"/>
						<path opacity="0.5" fill="#FCCB17" d="M884.2,1036.9c-2.4,6.5-5.3,13-10,18.1c-4.7,5.1-11.6,8.6-18.5,7.9
							c7.1,6.5,18.7,7.2,26.5,1.7c6-4.3,9.5-11.4,15.3-15.9c6.4-5,23-14.3,10.7-23.2C897.5,1017.8,887.7,1027.1,884.2,1036.9z"/>
						<path fill="#FCCB17" d="M797.9,1058.2c-1.8,2.6-2.9,5.8-5.1,8.2c7.1-2.4,15.1,3.6,22.1,0.9c6.5-2.6,8.3-11.2,14.2-14.9
							C818.9,1051.5,804.8,1048.2,797.9,1058.2z"/>
						<path opacity="0.5" fill="#FCCB17" d="M819.4,1029.2c4.6,2.7,9.3,5.5,14.5,6.4c5.9,1,19.6-4.1,8.4-8.3
							C834.9,1024.6,826.3,1025.2,819.4,1029.2z"/>
						<path opacity="0.5" fill="#FCCB17" d="M808.2,1054.9c-2.9,1-5.4,3.2-6.8,5.9c4.5,1.4,9.6,2.7,13.7,0.4
							c2.4-1.3,6.2-4.5,3.3-6.4C816.2,1053.4,810.3,1054.1,808.2,1054.9z"/>
					</g>
					<path fill="#8FBC22" d="M1044.2,1038.2c-14.1,14.7-32.9,25.7-52.3,32.1c-12.5,4.2-25.9,6.9-38.9,4.3
						c-17.3-3.4-31.4-15.9-42.4-29.8c-0.3-0.4-0.7-0.8-1-1.3c-4.7-6.1-9-12.8-12.6-19.7c-5.8-11.3-9.6-23.4-10.4-35.6
						c-0.5-7.2,0.2-14.5,2.1-21.6c7-25.6,29.9-44.4,54.9-53.4c2.2-0.8,4.6-1.6,7.2-2.4c23.6-7.6,62-15.8,81.5-5.1
						c26.7,14.8,39.9,64.4,34.1,91.9c-0.7,3.5-1.7,6.8-2.9,10.1C1059.4,1019.1,1052.7,1029.3,1044.2,1038.2z"/>
					<path fill="#8FBC22" d="M1050.1,1038.1c-2,0.2-3.9,0.2-5.9,0c-9.2-0.6-18.5-4.1-27.3-9.1c-13-7.5-24.9-18.3-33.4-27.7
						c-19.1-21.1-33.9-49.4-33.5-78.4c0.1-4.5,0.2-8.5,0.7-12.2c1.2-9.1,4.2-16.4,11.8-24.6c15.4-16.6,38-32.5,61.3-30.3
						c27,2.4,52.5,17.5,71.8,35.8c6.4,6,12.1,12.9,16.9,20.3c12.7,19.5,19.2,43,14.4,66.3C1120.2,1011.5,1083,1035.4,1050.1,1038.1z
						"/>
					<path d="M951.1,934.5c-0.8,1.8-1.2,3.8-0.8,5.7c0.7,2.8,3.3,4.7,6.1,5.5c3.4,1,7.8,0.3,9.6-2.8
						C970.8,934.1,956.5,921.8,951.1,934.5z"/>
					<path d="M993.6,998.8c-0.8,1.8-1.2,3.8-0.8,5.7c0.7,2.8,3.3,4.7,6.1,5.5c3.4,1,7.8,0.3,9.6-2.8
						C1013.3,998.4,999,986.1,993.6,998.8z"/>
					<path opacity="0.5" fill="#8FBC22" d="M1050.1,1038.1c-2,0.2-3.9,0.2-5.9,0c-14.1,14.7-32.9,25.7-52.3,32.1
						c-12.5,4.2-25.9,6.9-38.9,4.3c-17.3-3.4-31.4-15.9-42.4-29.8c-0.3-0.4-0.7-0.8-1-1.3c-4.7-6.1-9-12.8-12.6-19.7
						c-5.8-11.3-9.6-23.4-10.4-35.6c0.1-0.2,0.3-0.5,0.4-0.7c13.9,14.7,25.2,32,40,46.1c10.8,10.2,23.8,18.6,38.4,21.6
						c20.1,4.2,41.3-3.8,52.4-21.4c4.7-7.4,3.1-15.4,12.8-19.3c10.6-4.2,21.9-0.8,32.8-6.8c14.1-7.8,24.6-22.8,25.3-39.1
						c0.4-9.1-1.9-18.3-0.7-27.4c1.7-13.3,12-24.7,24.5-29.4c12.7,19.5,19.2,43,14.4,66.3C1120.2,1011.5,1083,1035.4,1050.1,1038.1z
						"/>
					<path opacity="0.3" fill="#FFFFFF" d="M991.5,877.9c-4.3,1.7-8.4,5.3-8.4,10c0,4.2,3.5,7.6,7,9.9c5,3.3,11.1,5.5,17,4.7
						c10.3-1.4,17.3-12.8,9.4-21.2C1010.8,875.2,998.7,875.1,991.5,877.9z"/>
					<path opacity="0.3" fill="#FFFFFF" d="M970.2,890.7c4.2,0.7,6.3,6.6,3.6,9.9c-2.7,3.2-8.9,2.1-10.4-1.8
						C962,894.8,966.1,890,970.2,890.7L970.2,890.7z"/>
					<g>
						<path opacity="0.5" fill="#8FBC22" d="M1051.2,969.3c-2.1,1.6-3.3,4-2.9,7.4c1.9,16.2,30.4,5.8,19.3-6.1
							C1063.7,966.5,1055.6,966,1051.2,969.3z"/>
						<path opacity="0.5" fill="#8FBC22" d="M1047.7,991.5c-2.8,2.4-3.7,6.7-2.1,10.1c1.5,3.4,5.3,5.5,9,5.3c3.1-0.2,8.5-4,8.9-7.3
							C1064.4,991.4,1053.6,986.4,1047.7,991.5z"/>
						<path opacity="0.5" fill="#8FBC22" d="M1038.4,989.8c4.7-0.4,4.7-7.3,0.3-8.6C1033.2,979.5,1030.3,990.4,1038.4,989.8z"/>
						<path opacity="0.5" fill="#8FBC22" d="M985.7,1046.7c8.4-0.7,8.3-13.1,0.6-15.4C976.2,1028.2,971,1047.8,985.7,1046.7z"/>
						<path opacity="0.5" fill="#8FBC22" d="M999.9,1044.6c4.7-0.4,4.7-7.3,0.3-8.6C994.7,1034.3,991.8,1045.2,999.9,1044.6z"/>
					</g>
					<path opacity="0.3" fill="#FFFFFF" d="M913.4,936.1c-6.1,6.5-10.4,14.4-14.1,22.4c-0.8,1.8-1.6,3.7-1.7,5.6
						c-0.1,2,0.7,4.1,2.3,5.1c1.9,1.2,4.5,0.6,6.3-0.7c1.8-1.3,3.1-3.3,4.3-5.1c5.5-7.9,12.3-14.8,20.1-20.4c3.4-2.4,7-4.6,9.1-8.2
						c3.9-6.9-1-12.3-7.9-10.5C924.8,926.2,918.3,930.8,913.4,936.1z"/>
					<path fill="#FDEEE7" d="M1057.4,877.7c-3.5,8.2-15.4,6-22.6,4.2c-6.9-1.7-13.6-5.7-17.1-12c-1.2-2-1.9-4.2-2.4-6.4
						c-2-9.5,2-20.3,6.3-29.5c3.1-6.6,6.4-13.3,10.9-19.1c13.1-16.9,36.7-24.8,57.4-19.2c-0.5,0.4-1,0.8-1.5,1.2
						c-15.1,12.8-25.4,31-29.5,50.4C1057.1,856,1060.5,870.3,1057.4,877.7z"/>
					<path fill="#FDEEE7" d="M1150.6,983.3c-6.8,2.9-14,4.3-21.2,5.6c-12.3,2.2-26.7,3.4-35.6-5.4c-4.8-4.7-7-11.5-7.2-18.3
						c0-0.5,0-0.9,0-1.4c0.1-7.5,1.1-19.5,9.8-20.8c7.9-1.1,20.9,5.9,29.7,6.3c20.4,1.1,41.3-4.6,57.8-16.7c0,0.2,0,0.4,0,0.6
						C1183.8,954.6,1170.1,975.1,1150.6,983.3z"/>
					<path d="M1042.8,1036.8c-2.8-0.7-5-2.2-7.1-4.1c-1.1-1-2.8,0.7-1.8,1.8c2.3,2.5,5.3,4.1,8.6,4.8
						C1044.1,1039.7,1044.4,1037.2,1042.8,1036.8z"/>
					<path d="M909.8,985.4c-3.9-7.2-9.7,5.5-2,3.3C910.1,988,910.4,986.6,909.8,985.4z"/>
					<path d="M933,1028.9c-1.8-0.7-4.1-0.4-4.7,1.4c-0.9,2.9,4.3,4.7,6,2.6C935.8,1031.1,934.6,1029.6,933,1028.9z"/>
					<path opacity="0.6" fill="#FCE6DB" d="M1057.4,877.7c-3.5,8.2-15.4,6-22.6,4.2c-6.9-1.7-13.6-5.7-17.1-12
						c-1.2-2-1.9-4.2-2.4-6.4c0.5-0.2,1.1-0.4,1.7-0.4c5.7-0.9,9.5,3.3,15.6,0.9c4.5-1.8,8.3-5.8,10.6-10c3.7-6.9,4.8-14.8,7.5-22.1
						c6-16.8,20.7-29.9,37.7-34.9c-15.1,12.8-25.4,31-29.5,50.4C1057.1,856,1060.5,870.3,1057.4,877.7z"/>
					<path opacity="0.6" fill="#FCE6DB" d="M1150.6,983.3c-6.8,2.9-14,4.3-21.2,5.6c-12.3,2.2-26.7,3.4-35.6-5.4
						c-4.8-4.7-7-11.5-7.2-18.3c0.4-0.1,0.9-0.3,1.3-0.4c5.4-1.2,10.6,2.1,15.6,4.5c12.9,6.3,28.5,7.1,42,2.2
						c13.5-4.9,24.9-15.5,30.8-28.7c1.7-3.8,3.9-8.5,7.6-9.6C1183.8,954.6,1170.1,975.1,1150.6,983.3z"/>
					<g>
						<path fill="#8FBC22" d="M969,1113.5c-3.8-3.9-9.8-4.5-15.3-4.3c-14.1,0.4-66.4,18.6-32.1,31.6
							C935,1145.8,990.5,1135.9,969,1113.5z"/>
						<path fill="#8FBC22" d="M976.2,1156.9c-1.9-5-7.8-5.1-13.4-5c-14.1,0.4-66.4,18.6-32.1,31.6c8.3,3.1,19.4,1.1,27.8-0.7
							c10.9-2.4,18.8-10.7,18.3-22.5C976.7,1158.9,976.5,1157.8,976.2,1156.9z"/>
						<path fill="#8FBC22" d="M975.1,1138.9c-1.9-5-7.8-5.1-13.4-5c-14.1,0.4-66.4,18.6-32.1,31.6c8.3,3.1,19.4,1.1,27.8-0.7
							c10.9-2.4,18.8-10.7,18.3-22.5C975.6,1141,975.4,1139.9,975.1,1138.9z"/>
						<path d="M962.1,1134.9c-8.4,3.7-17.1,5.4-26.3,4.8c-1.6-0.1-1.9,2.3-0.3,2.4c9.4,0.8,19-0.9,27.5-4.9
							C964.5,1136.5,963.6,1134.3,962.1,1134.9z"/>
						<path d="M970.1,1158.2c-13,5.5-26.4,7.8-40.4,5.7c-1.6-0.2-1.9,2.2-0.3,2.5c13.9,2.1,29,0.4,41.7-5.9
							C972.5,1159.8,971.6,1157.6,970.1,1158.2z"/>
						<path opacity="0.3" fill="#FFFFFF" d="M928.4,1119.3c-2.8,1.1-5.6,2.5-7.5,4.9c-0.5,0.7-1,1.5-0.8,2.4
							c0.4,1.6,2.5,1.8,4.1,1.7c6.7-0.4,13.5-0.9,20.2-1.3c3.2-0.2,6.5-0.5,9.2-2.1c6.4-3.7,4.2-13-3.4-12
							C943.1,1113.8,935.1,1116.6,928.4,1119.3z"/>
					</g>
				</g>
				<g>
					<g>
						<path fill="#795E6B" d="M763.2,1726.7c0.6,0,0.3-0.9-0.2-0.9C762.4,1725.8,762.7,1726.7,763.2,1726.7L763.2,1726.7z"/>
					</g>
				</g>
				<g>
					<path fill="#DF396C" d="M562.4,659.5c5.7,2.1,12.3-2.3,17.9-0.1c5.8,2.3,7.4,10.5,13.2,13c2.6-8.3,6.7-16.1,12.2-22.9
						c-8.6-4.5-16.9-9.8-25.1-15C580.9,634.8,564,657.5,562.4,659.5z"/>
					<path fill="#DF396C" d="M612.5,671.2c5.1-3.2,5.7-11.1,10.9-14.1c5.4-3.1,12.9,0.6,18.4-2.4c-5-7.2-8.6-15.3-10.6-23.7
						c-8.9,4-18.1,7.3-27.2,10.5C604.4,641.4,611.9,668.7,612.5,671.2z"/>
					<path fill="#FCCB17" d="M647.7,616.6c-2,14.4-12.3,27.1-25.5,33.1c-13,5.8-28.9,5.1-40.7-2.7c-6.7-4.4-11.2-9.6-13.9-15.2
						c-3.4-7-4-14.5-2.4-21.8c6.1-28.1,37.5-47.4,65.3-30.7c0.3,0.2,0.5,0.3,0.8,0.5C643.1,587.3,649.6,602.5,647.7,616.6z"/>
					<path fill="#DF396C" d="M594.3,602.3c-3.5,0.6-6.4,3.3-7,6.9c-0.6,3.4,0.8,7,2.9,9.7c2.1,2.8,5,4.8,7.8,6.9
						c2,1.4,3.9,2.9,5.9,4.3c0.6,0.4,1.2,0.8,1.9,0.9c1.3,0.1,2.3-1.1,3.2-2c2.5-2.7,5.7-4.7,8.6-7c2.9-2.3,5.6-5.3,6.2-8.9
						c0.8-4.9-2.9-10.2-7.8-11c-2.1-0.4-4.3,0.1-6.1,1.1c-3.1,1.7-2.9,5.4-6.4,3.4c-3.1-1.8-4.7-4.7-8.7-4.2
						C594.7,602.3,594.5,602.3,594.3,602.3z"/>
					<path opacity="0.5" fill="#FCCB17" d="M647.7,616.6c-2,14.4-12.3,27.1-25.5,33.1c-13,5.8-28.9,5.1-40.7-2.7
						c-6.7-4.4-11.2-9.6-13.9-15.2c-0.1-0.9-0.1-1.8,0-2.6c13.5,6.4,26.7,16.1,42.6,11.7c11.6-3.2,20.1-13.9,23.1-25.6
						c3-11.7,1.1-24.1-2.7-35.5c0.2-0.1,0.5-0.1,0.7-0.1C643.1,587.3,649.6,602.5,647.7,616.6z"/>
					<path fill="#FDE795" d="M577.6,597.3c-0.7,2.2-0.9,4.8,0.2,6.8c1.1,2.1,3.7,3.5,5.8,2.6c1.9-0.7,2.8-2.7,4-4.3
						c2.1-3,5.4-5.2,9-6.2c2.8-0.7,6.2-0.9,7.7-3.3c1.2-1.9,0.7-4.6-0.9-6.3c-1.6-1.6-4-2.3-6.2-2.3
						C589.2,584.5,580.1,589.3,577.6,597.3z"/>
				</g>
				<path opacity="0.29" fill="#FFFFFF" d="M-128.6,440.3c1.8,24,17.2,43.3,34.6,52c37.4,18.9,86,9,125.3,9.2
					c29.6,0.1,59.1,0.3,88.7,0.4c22.4,0.1,56.1,8.5,74.2-13.8c17.7-21.7,7.4-64.1-14.1-79.1c-21.5-15-48-9.8-71.2-0.1
					c6.2-2.7,0.4-51.1-0.7-58.7c-11.8-83.5-127.4-84.2-135.1,2.1c-1.8,20.2,7.9,35.2,13.1,52.7c-12.5,2.3-20-13.1-30.8-19.7
					C-76.1,366.2-132.8,382.6-128.6,440.3z"/>
				<g>
					<path fill="#FDEEE7" d="M451.2,123.2c7.1-4.3,10.2-10.7,8.1-16.6c0.5,1.4,40.2,0.2,43.5,0.2c63.6-0.2,127.4-1,190.9-2.6
						c4.2-0.1,8.3,0,12.5,0c10,0.3,20.1,0.6,30.1,1c5.7,0.2,11.6-0.1,17.2,0.3c0.2,2.7,1.9,5.9,3.7,8.3c2.1,3,5.3,5.8,9.2,8.1
						c3.9,2.3,8.6,4.2,13.7,5.5c1.2,0.3,15.8,2.5,15.7,1.8c2.2,19.9-2.3,38.5,1.3,58.4c-11.5-2.9-21.2-1.3-31.6,2.8
						c-10.4,4-13.9,11.7-14,19.1c-95.2,0.3-190.8,9.7-285.2,2.4c-5.3-11-21.4-20-40.3-22.5c-3.5-14.5-0.7-60.6-0.7-60.6
						s9.4-0.3,13.7-1.1C443.6,126.8,447.8,125.3,451.2,123.2z"/>
				</g>
				<g>
					<g>
						<path fill="#FCCB17" d="M659.5,53c-6.1,5.4-7,14-9.7,20.8c-2.5,6.5-5.1,12.9-7.2,19.5c-2,6.1-2.2,14.1-9.6,17.7
							c-5.8,2.8-13.6,2.8-20.2,3.1c-2,0.1-4,0-6.1,0.1c-9.8-0.7-19.6-1.8-28.3-5.8c-2.9-1.3-4.9-3-6.4-5.2c-0.5-0.7-0.9-1.5-1.2-2.3
							c-5.6-12.9-11.7-25.6-17.5-38.4c-0.6-1.3-1.5-1.4-2.7-1.8c-6-2-9.1-6.8-7.3-11.5c1.6-4,6.9-6.3,12.4-5.4
							c6.1,1,10.4,5.4,9.3,10.4c-0.2,0.8-0.2,1.4-0.2,2.1c0.2,1.7,1.1,3,2.7,4.3c2.7,2.3,5.1,4.7,7.6,7.1c2,1.8,4.5,3.2,7.4,4.1
							c2,0.6,3.7,0.7,5.1,0.3c1.5-0.4,2.8-1.5,3.7-3.1c2.9-5,8.7-16.1,2.3-20.2c-4.9-3.1-4.7-9.4-0.5-13.3
							c3.8-3.5,10.2-4.2,14.8-1.8c0.3,0.1,0.5,0.3,0.8,0.4c5,3.1,6.3,9.1,2.3,13.2c-1.9,1.9-2.2,3.5-1.2,5.7c1.6,3.4,2.5,7,4.5,10.3
							c2.2,3.6,5.5,6.3,10.8,5.5c0.4-0.1,0.8-0.1,1.1-0.2c5.2-1.2,9.2-5.1,11.4-8.8c1.2-2,2.1-4.1,1.4-6.2c-0.7-2.4-3.1-4.1-2.8-6.7
							c0.6-4.9,5.4-8.7,11.4-9.5c4.4-0.6,9,0.7,11.8,3.4c0.3,0.3,0.7,0.7,0.9,1.1C663.2,45.7,663.1,49.8,659.5,53z"/>
						<path fill="#FDE795" d="M585.3,101.4c-0.2,1.1-0.3,2.5-2.2,2.8c-6,0.9-7.6-4-9.6-7.5c-2.4-4.4-11.5-16.9-2.1-18.7
							c3.6-0.7,6,0.9,7.1,3.4c1.9,4.4,3.4,9,5.1,13.5C584.3,97,585.1,99.1,585.3,101.4z"/>
						<path fill="#FDE795" d="M641.9,47.3c0-1.9,1.3-4,2.7-5.3c2-2,9.4-3.7,8.4,0.8c-0.3,1.6-2.7,2.5-3.6,4
							c-0.8,1.2-0.7,2.9-2.1,3.8c-1.3,0.8-3.3,0.3-4.3-0.7C642.2,49.1,641.9,48.3,641.9,47.3z"/>
						<path fill="#FDE795" d="M592.8,42c0.6-2.3,1.1-4.9,4-6.4c1.7-0.9,3.5-1.2,5.1,0.2c2.8,2.4-2.2,10.1-6.2,9.6
							C593.5,45.1,592.8,43.8,592.8,42z"/>
						<path fill="#FDE795" d="M544.4,51.5c0.2-2,0.4-3.9,3.1-4.5c5.5-1.3,4.8,6.6,3.8,8.7c-0.5,1-2,1.3-3.4,0.9
							C544.5,55.8,544.9,53.4,544.4,51.5z"/>
					</g>
					<path opacity="0.5" fill="#FCCB17" d="M659.5,53c-6.1,5.4-7,14-9.7,20.8c-2.5,6.5-5.1,12.9-7.2,19.5c-2,6.1-2.2,14.1-9.6,17.7
						c-5.8,2.8-13.6,2.8-20.2,3.1c-2,0.1-4,0-6.1,0.1c-9.8-0.7-19.6-1.8-28.3-5.8c-2.9-1.3-4.9-3-6.4-5.2
						c10.7,2.7,22.5,2.7,33.3,0.5c14.5-3,15.2-8,18.8-18.5c4.7-13.6,19.3-19.2,28.1-30.3c3.3-4.2,4.2-10,7.3-14.1
						c0.3,0.3,0.7,0.7,0.9,1.1C663.2,45.7,663.1,49.8,659.5,53z"/>
					<path opacity="0.5" fill="#FCCB17" d="M626.2,68.6c-6.6,4.9-18,2.1-20.6-5.2c-1.6-4.5-3.3-9.1-2.5-13.7
						c0.9-5.5,5.1-10.7,4.8-16.1c0.3,0.1,0.5,0.3,0.8,0.4c5,3.1,6.3,9.1,2.3,13.2c-1.9,1.9-2.2,3.5-1.2,5.7c1.6,3.4,2.5,7,4.5,10.3
						c2.2,3.6,5.5,6.3,10.8,5.5C625.4,68.7,625.8,68.6,626.2,68.6z"/>
					<path opacity="0.5" fill="#FCCB17" d="M587.5,72c-4.9,5-16.5,2.6-21.1-1.6c-3.3-3-4.7-7.3-3.5-11.1c0.3-1.1,0.9-2.2,1.7-3.1
						c0.2,1.7,1.1,3,2.7,4.3c2.7,2.3,5.1,4.7,7.6,7.1c2,1.8,4.5,3.2,7.4,4.1C584.4,72.3,586.1,72.4,587.5,72z"/>
				</g>
				<g>
					<path fill="#FDEEE7" d="M366.5,264.6c10.2-5.7,14.8-14.3,11.7-22.1c0.7,1.8,58,0.3,62.9,0.3c91.9-0.3,184-1.3,275.7-3.5
						c6.1-0.1,12,0,18.1,0c14.5,0.4,29,0.8,43.5,1.3c8.2,0.3,16.8-0.1,24.9,0.4c0.4,3.6,2.8,7.8,5.3,11.1c3.1,4,7.7,7.7,13.3,10.8
						c5.7,3.1,12.4,5.6,19.7,7.3c1.7,0.4,22.8,3.4,22.7,2.4c3.2,26.6-3.3,51.4,1.9,77.9c-16.6-3.9-30.6-1.7-45.7,3.7
						c-15.1,5.4-20.1,15.6-20.3,25.4c-137.5,0.3-275.6,12.9-412,3.2c-7.7-14.7-30.9-26.7-58.2-30c-5.1-19.4-1-80.8-1-80.8
						s13.6-0.4,19.8-1.5C355.5,269.3,361.6,267.3,366.5,264.6z"/>
				</g>
				<path opacity="0.29" fill="#FFFFFF" d="M756,464.5c0.7,9.9,7.1,18,14.3,21.6c15.5,7.8,35.7,3.8,52,3.8
					c12.3,0.1,24.5,0.1,36.8,0.2c9.3,0,23.3,3.5,30.8-5.7c7.4-9,3.1-26.6-5.8-32.8c-8.9-6.2-19.9-4.1-29.5,0
					c2.6-1.1,0.2-21.2-0.3-24.4c-4.9-34.6-52.8-34.9-56,0.9c-0.7,8.4,3.3,14.6,5.4,21.8c-5.2,0.9-8.3-5.4-12.8-8.2
					C777.7,433.8,754.2,440.6,756,464.5z"/>
				<path opacity="0.29" fill="#FFFFFF" d="M935.4,215.1c0.7,9.9,7.1,18,14.3,21.6c15.5,7.8,35.7,3.8,52,3.8
					c12.3,0.1,24.5,0.1,36.8,0.2c9.3,0,23.3,3.5,30.8-5.7c7.4-9,3.1-26.6-5.8-32.8c-8.9-6.2-19.9-4.1-29.5,0
					c2.6-1.1,0.2-21.2-0.3-24.4c-4.9-34.6-52.8-34.9-56,0.9c-0.7,8.4,3.3,14.6,5.4,21.8c-5.2,0.9-8.3-5.4-12.8-8.2
					C957.1,184.4,933.6,191.2,935.4,215.1z"/>
			</g>
			<g>
				<g>
					<g>
						<path fill="#F9F9F9" d="M992.4,1727.4c0.8,1,1.1,2.3,1.1,3.9v7.5c0,0.2-0.1,0.4-0.2,0.6c-0.2,0.2-0.3,0.2-0.6,0.2
							c-0.2,0-0.4-0.1-0.6-0.2c-0.2-0.2-0.2-0.3-0.2-0.6v-7.4c0-1.2-0.3-2.1-0.8-2.9c-0.6-0.7-1.4-1.1-2.6-1.1
							c-0.7,0-1.5,0.2-2.1,0.5c-0.7,0.4-1.2,0.8-1.6,1.4c-0.4,0.6-0.6,1.3-0.6,2v7.4c0,0.2-0.1,0.4-0.2,0.6
							c-0.2,0.2-0.3,0.2-0.6,0.2s-0.4-0.1-0.6-0.2s-0.2-0.3-0.2-0.6v-7.5c0-1.2-0.3-2.1-0.8-2.8s-1.4-1.1-2.5-1.1
							c-0.7,0-1.4,0.2-2.1,0.5c-0.7,0.4-1.2,0.8-1.6,1.4c-0.4,0.6-0.6,1.2-0.6,1.9v7.5c0,0.2-0.1,0.4-0.2,0.6
							c-0.2,0.2-0.3,0.2-0.6,0.2s-0.4-0.1-0.6-0.2s-0.2-0.3-0.2-0.6v-11.9c0-0.2,0.1-0.4,0.2-0.6s0.3-0.2,0.6-0.2s0.4,0.1,0.6,0.2
							c0.2,0.2,0.2,0.3,0.2,0.6v1.5c0.5-0.7,1.1-1.3,2-1.8c0.8-0.5,1.7-0.7,2.6-0.7c1,0,1.9,0.2,2.7,0.7s1.3,1.2,1.6,2.2
							c0.4-0.8,1.1-1.5,2.1-2c1-0.6,2-0.9,3-0.9C990.5,1725.9,991.7,1726.4,992.4,1727.4z"/>
						<path fill="#F9F9F9" d="M1009,1732.6c-0.2,0.2-0.3,0.2-0.6,0.2h-10.1c0,1.1,0.2,2,0.7,2.9c0.4,0.8,1.1,1.5,1.9,2
							c0.8,0.5,1.8,0.7,2.9,0.7c0.9,0,1.6-0.2,2.3-0.5c0.7-0.4,1.2-0.8,1.6-1.4c0.2-0.2,0.4-0.2,0.6-0.2c0.2,0,0.3,0.1,0.5,0.2
							s0.2,0.3,0.2,0.5c0,0.2-0.1,0.4-0.3,0.6c-0.6,0.7-1.3,1.3-2.1,1.7c-0.9,0.4-1.8,0.7-2.7,0.7c-1.4,0-2.6-0.3-3.6-0.9
							s-1.9-1.4-2.5-2.5c-0.6-1.1-0.9-2.3-0.9-3.6c0-1.5,0.3-2.7,0.9-3.8c0.6-1.1,1.3-1.9,2.3-2.5s2-0.9,3.1-0.9
							c1.1,0,2.1,0.2,3,0.7c0.9,0.5,1.7,1.2,2.3,2.2c0.6,1,0.9,2.1,0.9,3.4C1009.3,1732.3,1009.2,1732.4,1009,1732.6z
							 M1000.2,1728.3c-0.9,0.7-1.4,1.7-1.7,3.1h9.1v-0.2c-0.1-0.8-0.4-1.5-0.8-2.1c-0.4-0.6-1-1-1.7-1.4c-0.7-0.3-1.4-0.5-2.1-0.5
							C1002.1,1727.3,1001.1,1727.6,1000.2,1728.3z"/>
						<path fill="#F9F9F9" d="M1022.1,1725.9c0.9,0.5,1.4,1.1,1.4,1.9c0,0.4-0.1,0.7-0.3,1s-0.5,0.4-0.9,0.4c-0.3,0-0.5,0-0.7-0.1
							c-0.2-0.1-0.4-0.2-0.5-0.3c-0.2-0.1-0.3-0.2-0.5-0.3c-0.2-0.1-0.4-0.2-0.8-0.2c-0.3-0.1-0.6-0.1-0.8-0.1
							c-1.3,0-2.4,0.4-3.1,1.2s-1.1,1.9-1.1,3.2c0,1.3,0.4,2.3,1.1,3.2c0.8,0.8,1.7,1.3,2.9,1.3c0.9,0,1.5-0.1,1.9-0.3
							c0.1-0.1,0.3-0.1,0.4-0.3c0.2-0.1,0.4-0.2,0.5-0.3c0.2-0.1,0.4-0.1,0.6-0.1c0.4,0,0.8,0.1,1.1,0.4c0.3,0.3,0.4,0.6,0.4,1.1
							c0,0.4-0.2,0.8-0.7,1.2c-0.5,0.4-1.2,0.7-2,0.9c-0.8,0.2-1.7,0.3-2.6,0.3c-1.4,0-2.6-0.3-3.6-1c-1-0.6-1.8-1.5-2.4-2.6
							c-0.6-1.1-0.9-2.4-0.9-3.8c0-1.4,0.3-2.7,0.9-3.8c0.6-1.1,1.4-2,2.5-2.6c1.1-0.6,2.3-0.9,3.6-0.9
							C1020,1725.1,1021.2,1725.4,1022.1,1725.9z"/>
						<path fill="#F9F9F9" d="M1038.8,1736.3c-0.6,1.1-1.5,2-2.6,2.6s-2.3,0.9-3.7,0.9c-1.4,0-2.6-0.3-3.7-0.9
							c-1.1-0.6-2-1.5-2.6-2.6c-0.6-1.1-1-2.4-1-3.8c0-1.4,0.3-2.7,1-3.8c0.6-1.1,1.5-2,2.6-2.6c1.1-0.6,2.3-0.9,3.7-0.9
							c1.3,0,2.6,0.3,3.7,0.9c1.1,0.6,2,1.5,2.6,2.6c0.6,1.1,1,2.4,1,3.8C1039.7,1733.9,1039.4,1735.2,1038.8,1736.3z M1036,1730.2
							c-0.4-0.7-0.9-1.2-1.5-1.6c-0.6-0.4-1.3-0.6-2-0.6s-1.4,0.2-2,0.6c-0.6,0.4-1.1,0.9-1.5,1.6c-0.4,0.7-0.5,1.5-0.5,2.3
							c0,0.9,0.2,1.6,0.5,2.3s0.9,1.2,1.5,1.6c0.6,0.4,1.3,0.6,2,0.6s1.4-0.2,2-0.6c0.6-0.4,1.1-0.9,1.5-1.6s0.5-1.4,0.5-2.3
							C1036.5,1731.7,1036.3,1730.9,1036,1730.2z"/>
						<path fill="#F9F9F9" d="M1053.8,1726.8c0.7,1.1,1,2.6,1,4.4v6.8c0,0.5-0.2,0.8-0.5,1.2c-0.3,0.3-0.7,0.5-1.1,0.5
							s-0.8-0.2-1.1-0.5c-0.3-0.3-0.5-0.7-0.5-1.2v-6.8c0-1-0.2-1.7-0.6-2.3c-0.4-0.6-1.1-0.8-2.1-0.8c-1,0-1.8,0.3-2.4,0.9
							s-0.9,1.3-0.9,2.2v6.8c0,0.5-0.2,0.8-0.5,1.2c-0.3,0.3-0.7,0.5-1.1,0.5s-0.8-0.2-1.1-0.5c-0.3-0.3-0.5-0.7-0.5-1.2v-11
							c0-0.5,0.2-0.8,0.5-1.2s0.7-0.5,1.1-0.5s0.8,0.2,1.1,0.5s0.5,0.7,0.5,1.2v0.5c0.5-0.6,1.1-1.2,1.9-1.6
							c0.8-0.5,1.6-0.7,2.6-0.7C1051.8,1725.1,1053.1,1725.7,1053.8,1726.8z"/>
						<path fill="#F9F9F9" d="M1070.2,1725.9c0.3,0.3,0.4,0.6,0.4,1c0,0.2-0.1,0.5-0.2,0.8l-5,10.9c-0.1,0.3-0.3,0.5-0.5,0.7
							s-0.5,0.3-0.8,0.3l-0.2,0c-0.3,0-0.6-0.1-0.8-0.3s-0.5-0.4-0.6-0.8l-5-10.9c-0.1-0.3-0.2-0.6-0.2-0.8c0-0.4,0.2-0.7,0.5-1
							c0.3-0.3,0.7-0.4,1.1-0.4c0.3,0,0.7,0.1,0.9,0.3c0.3,0.2,0.5,0.4,0.6,0.7l3.7,8.4l3.7-8.4c0.1-0.3,0.3-0.6,0.6-0.8
							c0.2-0.2,0.5-0.3,0.8-0.2C1069.6,1725.4,1069.9,1725.6,1070.2,1725.9z"/>
						<path fill="#F9F9F9" d="M1073.3,1723.4c-0.2-0.2-0.4-0.5-0.4-1v-0.5c0-0.5,0.1-0.8,0.4-1c0.3-0.2,0.7-0.3,1.3-0.3
							c0.6,0,1.1,0.1,1.3,0.3c0.2,0.2,0.4,0.5,0.4,1v0.5c0,0.5-0.1,0.9-0.4,1c-0.3,0.2-0.7,0.3-1.3,0.3
							C1074,1723.7,1073.5,1723.6,1073.3,1723.4z M1075.7,1739.1c-0.3,0.3-0.7,0.5-1.1,0.5c-0.5,0-0.8-0.2-1.1-0.5
							c-0.3-0.3-0.5-0.7-0.5-1.2v-11c0-0.5,0.2-0.8,0.5-1.2s0.7-0.5,1.1-0.5c0.5,0,0.8,0.2,1.1,0.5s0.5,0.7,0.5,1.2v11
							C1076.2,1738.5,1076.1,1738.8,1075.7,1739.1z"/>
						<path fill="#F9F9F9" d="M1092.2,1720.4c0.3,0.3,0.5,0.7,0.5,1.2v16.4c0,0.5-0.2,0.8-0.5,1.2c-0.3,0.3-0.7,0.5-1.1,0.5
							c-0.5,0-0.8-0.2-1.1-0.5s-0.5-0.7-0.5-1.1c-0.4,0.5-1,1-1.8,1.3c-0.8,0.4-1.6,0.5-2.4,0.5c-1.2,0-2.3-0.3-3.3-0.9
							s-1.8-1.5-2.4-2.6c-0.6-1.1-0.9-2.4-0.9-3.8c0-1.4,0.3-2.7,0.9-3.8c0.6-1.1,1.3-2,2.3-2.6c1-0.6,2.1-0.9,3.3-0.9
							c0.9,0,1.7,0.2,2.4,0.5c0.7,0.3,1.4,0.7,1.9,1.2v-5.2c0-0.5,0.2-0.8,0.5-1.2c0.3-0.3,0.7-0.5,1.1-0.5
							C1091.5,1720,1091.9,1720.1,1092.2,1720.4z M1088.5,1735.7c0.7-0.8,1.1-1.9,1.1-3.2c0-1.3-0.4-2.3-1.1-3.2
							c-0.7-0.8-1.7-1.3-2.8-1.3c-1.1,0-2.1,0.4-2.8,1.3s-1.1,1.9-1.1,3.2c0,1.3,0.4,2.3,1.1,3.2c0.7,0.8,1.7,1.3,2.8,1.3
							C1086.8,1737,1087.8,1736.5,1088.5,1735.7z"/>
						<path fill="#F9F9F9" d="M1108.4,1733.2c-0.3,0.3-0.7,0.4-1.1,0.4h-8.8c0.2,1,0.7,1.9,1.5,2.5c0.8,0.6,1.6,0.9,2.6,0.9
							c0.7,0,1.3-0.1,1.7-0.2c0.4-0.1,0.7-0.3,1-0.4c0.2-0.1,0.4-0.3,0.5-0.3c0.3-0.2,0.6-0.2,0.9-0.2c0.4,0,0.7,0.1,1,0.4
							c0.3,0.3,0.4,0.6,0.4,0.9c0,0.5-0.2,0.9-0.7,1.3c-0.5,0.4-1.2,0.8-2,1c-0.8,0.3-1.7,0.4-2.5,0.4c-1.5,0-2.8-0.3-3.9-0.9
							c-1.1-0.6-2-1.5-2.6-2.6c-0.6-1.1-0.9-2.3-0.9-3.7c0-1.5,0.3-2.9,1-4c0.6-1.2,1.5-2,2.5-2.6c1-0.6,2.2-0.9,3.4-0.9
							c1.2,0,2.3,0.3,3.3,1c1,0.6,1.9,1.5,2.5,2.6c0.6,1.1,0.9,2.2,0.9,3.5C1108.9,1732.6,1108.8,1733,1108.4,1733.2z M1098.5,1731
							h7v-0.2c-0.1-0.7-0.4-1.4-1.1-1.9c-0.7-0.5-1.4-0.8-2.2-0.8C1100.1,1728.1,1098.9,1729,1098.5,1731z"/>
					</g>
					<path fill="#F9F9F9" d="M1032.4,1728.5h6.7l-6.7-16.6l-6.7,16.6H1032.4z"/>
					<path fill="#F9F9F9" d="M1039.1,1728.5l-6.7-16.6l-1.1,2.8c0.3,0.2,0.7,0.4,1.1,0.4c0,0,0,0,0,0c0.2,0,0.3,0.1,0.4,0.2
						l5.3,13.2H1039.1z"/>
					<path fill="#F9F9F9" d="M1035.5,1719.8h-6.3l0.9-2.4h4.4L1035.5,1719.8z"/>
					<path fill="#F9F9F9" d="M1033.7,1717.4l0.9,2.4h1l-0.9-2.4H1033.7z"/>
					<path fill="#F9F9F9" d="M1037.8,1725.3H1027l0.9-2.4h8.8L1037.8,1725.3z"/>
					<path fill="#F9F9F9" d="M1037.8,1725.3l-0.9-2.4h-1l0.9,2.4H1037.8z"/>
					<path fill="#F9F9F9" d="M1039.3,1729.7h-13.8c-0.2,0-0.4-0.2-0.4-0.4v-0.4c0-0.2,0.2-0.4,0.4-0.4h13.8c0.2,0,0.4,0.2,0.4,0.4
						v0.4C1039.7,1729.5,1039.5,1729.7,1039.3,1729.7z"/>
					<path fill="#F9F9F9" d="M1039.3,1728.5h-1c0.2,0,0.4,0.2,0.4,0.4v0.4c0,0.2-0.2,0.4-0.4,0.4h1c0.2,0,0.4-0.2,0.4-0.4v-0.4
						C1039.7,1728.7,1039.5,1728.5,1039.3,1728.5z"/>
					<g>
						<path fill="#F9F9F9" d="M1035.7,1714.4l0.3,0.1c0.2,0.1,0.4,0.3,0.5,0.5l0.3,0.8c0.1,0.1,0.2,0.1,0.3,0l0.3-0.8
							c0.1-0.2,0.2-0.4,0.5-0.5l0.3-0.1c0.1-0.1,0.1-0.2,0-0.3l-0.3-0.1c-0.2-0.1-0.4-0.3-0.5-0.5l-0.3-0.8c-0.1-0.1-0.2-0.1-0.3,0
							l-0.3,0.8c-0.1,0.2-0.2,0.4-0.5,0.5l-0.3,0.1C1035.6,1714.1,1035.6,1714.3,1035.7,1714.4z"/>
						<path fill="#F9F9F9" d="M1037.8,1714c-0.2-0.1-0.3-0.2-0.4-0.4c-0.1,0.6-0.5,1-1,1.2c0,0,0.1,0.1,0.1,0.2l0.3,0.8
							c0.1,0.1,0.2,0.1,0.3,0l0.3-0.8c0.1-0.2,0.2-0.4,0.5-0.5l0.3-0.1c0.1-0.1,0.1-0.2,0-0.3L1037.8,1714z"/>
					</g>
					<path fill="#F9F9F9" d="M1025.5,1718.7l0.3,0.1c0.2,0.1,0.4,0.2,0.5,0.5l0.3,0.8c0.1,0.1,0.2,0.1,0.3,0l0.3-0.8
						c0.1-0.2,0.2-0.4,0.5-0.5l0.3-0.1c0.1-0.1,0.1-0.2,0-0.3l-0.3-0.1c-0.2-0.1-0.4-0.2-0.5-0.5l-0.3-0.8c-0.1-0.1-0.2-0.1-0.3,0
						l-0.3,0.8c-0.1,0.2-0.2,0.4-0.5,0.5l-0.3,0.1C1025.3,1718.5,1025.3,1718.7,1025.5,1718.7z"/>
					<path fill="#F9F9F9" d="M1027.6,1718.3c-0.2-0.1-0.3-0.2-0.4-0.4c-0.1,0.6-0.5,1-1,1.2c0,0,0.1,0.1,0.1,0.2l0.3,0.8
						c0.1,0.1,0.2,0.1,0.3,0l0.3-0.8c0.1-0.2,0.2-0.4,0.5-0.5l0.3-0.1c0.1-0.1,0.1-0.2,0-0.3L1027.6,1718.3z"/>
					<path fill="#F9F9F9" d="M1030.8,1714.2l0.8-0.2l0.2,0.8c0.1,0.5,0.6,0.9,1.2,0.8c0.5-0.1,0.9-0.6,0.8-1.2l-0.2-0.8l0.8-0.2
						c0.5-0.1,0.9-0.6,0.8-1.2s-0.6-0.9-1.2-0.8l-0.8,0.2l-0.2-0.8c-0.1-0.5-0.6-0.9-1.2-0.8c-0.5,0.1-0.9,0.6-0.8,1.2l0.2,0.8
						l-0.8,0.2c-0.5,0.1-0.9,0.6-0.8,1.2S1030.2,1714.3,1030.8,1714.2z"/>
				</g>
				<path fill="#F9F9F9" d="M1030.8,1714.2l0.8-0.2l1.6-2.3l-0.2-0.8c-0.1-0.5-0.6-0.9-1.2-0.8c-0.5,0.1-0.9,0.6-0.8,1.2l0.2,0.8
					l-0.8,0.2c-0.5,0.1-0.9,0.6-0.8,1.2S1030.2,1714.3,1030.8,1714.2z"/>
			</g>
		</g>
	</g>
</g>
<g id="Layer_2">
</g>
</svg>
